<?xml version="1.0" encoding="utf-8"?>
<!-- Generator: Adobe Illustrator 18.1.1, SVG Export Plug-In . SVG Version: 6.00 Build 0)  -->
<!DOCTYPE svg PUBLIC "-//W3C//DTD SVG 1.1//EN" "http://www.w3.org/Graphics/SVG/1.1/DTD/svg11.dtd">
<svg version="1.1" id="Layer_1" xmlns="http://www.w3.org/2000/svg" xmlns:xlink="http://www.w3.org/1999/xlink" x="0px" y="0px"
	 viewBox="0 0 874.5 580.5" enable-background="new 0 0 874.5 580.5" xml:space="preserve">
<g id="New_Symbol_1">
</g>
<g>
	<g>
		<g>
			<polygon fill="#465E61" points="187.1,484.7 187.1,83.5 645.2,83.5 673.6,105.7 673.6,205.9 641.6,233.8 641.6,331.7 
				673.6,360.2 673.6,458.1 644.9,484.7 			"/>
			<path fill="#E0BB9B" d="M643.3,88.9l24.9,19.5v95.1l-28.3,24.7l-3.7,3.2v4.9v93.1v4.8l3.6,3.2l28.4,25.3v93.1l-25.4,23.6H192.5
				V88.9H643.3 M647,78.1H181.7v412H647l32-29.7V357.8l-32-28.5v-93.1l32-27.9V103.1L647,78.1L647,78.1z"/>
		</g>
		<polygon fill="none" stroke="#E0BB9B" stroke-miterlimit="10" points="214.5,461.4 616.2,461.4 635.6,444.8 635.6,359.2 
			616.2,342.1 616.2,226.9 635.6,208.3 635.6,123 616.2,106.8 214.5,106.8 		"/>
		<polygon fill="none" stroke="#E0BB9B" stroke-miterlimit="10" points="636.2,479.2 616.2,461.1 214.5,461.1 190.3,479.7 		"/>
		<polygon fill="none" stroke="#E0BB9B" stroke-miterlimit="10" points="636.2,89 616.2,107.1 214.5,107.1 190.3,88.4 		"/>
	</g>
</g>
<g>
	<g>
		<g>
			<polygon fill="#465E61" stroke="#E0BB9B" stroke-miterlimit="10" points="368.6,200.7 548.5,200.7 548.5,210.2 369.4,210.2 			
				"/>
			<polygon fill="#465E61" stroke="#E0BB9B" stroke-miterlimit="10" points="365,192.1 552.1,192.1 552.1,202.5 365.6,202.5 			"/>
			<polygon fill="#465E61" stroke="#E0BB9B" stroke-miterlimit="10" points="361.5,183.5 555.6,183.5 555.6,194.9 361.7,194.9 			
				"/>
			<rect x="357.9" y="174.8" fill="#465E61" stroke="#E0BB9B" stroke-miterlimit="10" width="201.2" height="12.4"/>
		</g>
		<g>
			<polygon fill="#465E61" stroke="#E0BB9B" stroke-miterlimit="10" points="548.5,148.7 368.5,148.7 368.5,139.2 547.7,139.2 			
				"/>
			<polygon fill="#465E61" stroke="#E0BB9B" stroke-miterlimit="10" points="552,157.3 365,157.3 365,146.9 551.5,146.9 			"/>
			<polygon fill="#465E61" stroke="#E0BB9B" stroke-miterlimit="10" points="555.6,165.9 361.5,165.9 361.5,154.5 555.3,154.5 			
				"/>
			<rect x="357.9" y="162.2" fill="#465E61" stroke="#E0BB9B" stroke-miterlimit="10" width="201.2" height="12.4"/>
		</g>
		<rect x="357.9" y="162.2" fill="#465E61" stroke="#E0BB9B" stroke-miterlimit="10" width="201.2" height="25"/>
	</g>
	<g>
		<g>
			<polygon fill="#465E61" stroke="#E0BB9B" stroke-miterlimit="10" points="371.9,312.2 551.8,312.2 551.8,321.7 372.7,321.7 			
				"/>
			<polygon fill="#465E61" stroke="#E0BB9B" stroke-miterlimit="10" points="368.3,303.6 555.3,303.6 555.3,314 368.8,314 			"/>
			<polygon fill="#465E61" stroke="#E0BB9B" stroke-miterlimit="10" points="364.8,295 558.9,295 558.9,306.4 365,306.4 			"/>
			<rect x="361.2" y="286.4" fill="#465E61" stroke="#E0BB9B" stroke-miterlimit="10" width="201.2" height="12.4"/>
		</g>
		<g>
			<polygon fill="#465E61" stroke="#E0BB9B" stroke-miterlimit="10" points="551.8,260.2 371.8,260.2 371.8,250.7 551,250.7 			"/>
			<polygon fill="#465E61" stroke="#E0BB9B" stroke-miterlimit="10" points="555.3,268.8 368.3,268.8 368.3,258.4 554.8,258.4 			
				"/>
			<polygon fill="#465E61" stroke="#E0BB9B" stroke-miterlimit="10" points="558.9,277.4 364.7,277.4 364.7,266 558.6,266 			"/>
			<rect x="361.2" y="273.7" fill="#465E61" stroke="#E0BB9B" stroke-miterlimit="10" width="201.2" height="12.4"/>
		</g>
		<rect x="361.2" y="273.7" fill="#465E61" stroke="#E0BB9B" stroke-miterlimit="10" width="201.2" height="25"/>
	</g>
	<g>
		<g>
			<polygon fill="#465E61" stroke="#E0BB9B" stroke-miterlimit="10" points="268.8,419.4 546.1,419.4 546.1,428.9 270,428.9 			"/>
			<polygon fill="#465E61" stroke="#E0BB9B" stroke-miterlimit="10" points="263.3,410.8 551.5,410.8 551.5,421.2 264.1,421.2 			
				"/>
			<polygon fill="#465E61" stroke="#E0BB9B" stroke-miterlimit="10" points="257.8,402.2 557,402.2 557,413.6 258.2,413.6 			"/>
			<rect x="252.4" y="393.6" fill="#465E61" stroke="#E0BB9B" stroke-miterlimit="10" width="310.1" height="12.4"/>
		</g>
		<g>
			<polygon fill="#465E61" stroke="#E0BB9B" stroke-miterlimit="10" points="546,367.4 268.7,367.4 268.7,357.9 544.7,357.9 			"/>
			<polygon fill="#465E61" stroke="#E0BB9B" stroke-miterlimit="10" points="551.5,376 263.3,376 263.3,365.6 550.6,365.6 			"/>
			<polygon fill="#465E61" stroke="#E0BB9B" stroke-miterlimit="10" points="556.9,384.6 257.8,384.6 257.8,373.2 556.5,373.2 			
				"/>
			<rect x="252.4" y="380.9" fill="#465E61" stroke="#E0BB9B" stroke-miterlimit="10" width="310.1" height="12.4"/>
		</g>
		<rect x="252.4" y="380.9" fill="#465E61" stroke="#E0BB9B" stroke-miterlimit="10" width="310.1" height="25"/>
	</g>
	<polygon fill="none" stroke="#E0BB9B" stroke-width="1.5" stroke-miterlimit="10" points="260.8,271.5 260.8,99.2 300.1,99.2 
		300.1,271.6 	"/>
	<line fill="none" stroke="#E0BB9B" stroke-width="4" stroke-miterlimit="10" x1="300.1" y1="278" x2="300.1" y2="98.2"/>
</g>
<path fill="none" stroke="#E0BB9B" stroke-width="2.802" stroke-miterlimit="10" d="M619.2,247.1"/>
<path fill="none" stroke="#E0BB9B" stroke-width="10.7796" stroke-miterlimit="10" d="M393.5,375.5"/>
<path opacity="0.1" fill="#E0BB9B" stroke="#E0BB9B" stroke-width="0.5" stroke-miterlimit="10" stroke-dasharray="2" d="
	M379.9,208.3"/>
<polygon fill="#465E61" points="647.2,311.8 625.4,312.8 625.4,253.3 647.2,254.7 "/>
<rect x="200.6" y="96.8" fill="none" stroke="#E0BB9B" stroke-width="1.5" stroke-miterlimit="10" width="18.5" height="177.7"/>
<polygon fill="none" stroke="#E0BB9B" stroke-miterlimit="10" points="232.5,272.5 219.1,274.5 219.1,96.8 232.5,107 "/>
<line fill="none" stroke="#E0BB9B" stroke-miterlimit="10" x1="228.8" y1="273" x2="228.8" y2="103.6"/>
<line fill="none" stroke="#E0BB9B" stroke-miterlimit="10" x1="229.8" y1="273" x2="229.8" y2="103.6"/>
<line fill="none" stroke="#E0BB9B" stroke-miterlimit="10" x1="224.8" y1="274" x2="224.8" y2="100.6"/>
<line fill="none" stroke="#E0BB9B" stroke-miterlimit="10" x1="221.8" y1="274" x2="221.8" y2="97.8"/>
</svg>
