<?xml version="1.0" encoding="utf-8"?>
<!-- Generator: Adobe Illustrator 18.1.1, SVG Export Plug-In . SVG Version: 6.00 Build 0)  -->
<!DOCTYPE svg PUBLIC "-//W3C//DTD SVG 1.1//EN" "http://www.w3.org/Graphics/SVG/1.1/DTD/svg11.dtd">
<svg version="1.1" id="Layer_1" xmlns="http://www.w3.org/2000/svg" xmlns:xlink="http://www.w3.org/1999/xlink" x="0px" y="0px"
	 viewBox="0 0 874.5 580.5" enable-background="new 0 0 874.5 580.5" xml:space="preserve">
<symbol  id="New_Symbol_1_1_" viewBox="-27.8 -25.2 55.5 50.4">
	<g>
		<path fill="none" stroke="#E0BB9B" stroke-miterlimit="10" d="M-11,24.7h22.4c4.9,0,8.9-4,8.9-8.9V-7.7c0-4.9-4-8.9-8.9-8.9H-11
			c-4.9,0-8.9,4-8.9,8.9v23.6C-19.9,20.7-15.9,24.7-11,24.7z"/>
		<g>
			<path fill="none" stroke="#E0BB9B" stroke-miterlimit="10" d="M27.3-12.7"/>
			<path fill="none" stroke="#E0BB9B" stroke-miterlimit="10" d="M-19.6-8.3c0-4.7,3.9-8.6,8.6-8.6H11c4.7,0,8.6,3.9,8.6,8.6
				c0,9.2,7.7,6.3,7.7-4.5c0-6.2-5.4-12-12-12h-30.5c-6.6,0-11.3,5.7-11.3,12C-26.5-3.5-19.6-0.7-19.6-8.3z"/>
			<path fill="none" stroke="#E0BB9B" stroke-miterlimit="10" d="M19.6-8.3"/>
		</g>
		<path fill="none" stroke="#E0BB9B" stroke-miterlimit="10" d="M23.8,19.5L23.8,19.5c1.9,0,3.5-1.6,3.5-3.5V-6.7
			c0-1.9-1.6-3.5-3.5-3.5h0c-1.9,0-3.5,1.6-3.5,3.5V16C20.3,17.9,21.8,19.5,23.8,19.5z"/>
		<path fill="none" stroke="#E0BB9B" stroke-miterlimit="10" d="M-23.8,19.5L-23.8,19.5c1.9,0,3.5-1.6,3.5-3.5V-6.7
			c0-1.9-1.6-3.5-3.5-3.5h0c-1.9,0-3.5,1.6-3.5,3.5V16C-27.3,17.9-25.7,19.5-23.8,19.5z"/>
	</g>
</symbol>
<symbol  id="New_Symbol_2" viewBox="-33.2 -5.1 66.3 10.2">
	<line fill="none" stroke="#E0BB9B" stroke-width="4" stroke-miterlimit="10" x1="-33.2" y1="-3.1" x2="33.2" y2="-3.1"/>
	<line fill="none" stroke="#E0BB9B" stroke-width="2" stroke-miterlimit="10" x1="-21.6" y1="-0.7" x2="-21.6" y2="5.1"/>
	<line fill="none" stroke="#E0BB9B" stroke-width="2" stroke-miterlimit="10" x1="21.5" y1="-0.7" x2="21.5" y2="5.1"/>
</symbol>
<symbol  id="chair" viewBox="-23.7 -25.3 43.2 50.3">
	<path fill="none" stroke="#E0BB9B" stroke-width="1.3029" stroke-miterlimit="10" d="M15.4-24.6h-28.7c-1.9,0-3.4,1.5-3.4,3.4V7.3
		c0,1.9,1.5,3.4,3.4,3.4h28.7c1.9,0,3.4-1.5,3.4-3.4v-28.6C18.8-23.1,17.3-24.6,15.4-24.6z"/>
	<path fill="none" stroke="#E0BB9B" stroke-width="1.3029" stroke-miterlimit="10" d="M18.8,17.3c0-3.9-7.9-7-17.7-7
		s-17.7,3.2-17.7,7s7.9,7,17.7,7S18.8,21.2,18.8,17.3z"/>
	<path fill="none" stroke="#E0BB9B" stroke-width="1.3029" stroke-miterlimit="10" d="M-23.7,11.9"/>
</symbol>
<g id="New_Symbol_1">
</g>
<g>
	<g>
		<g>
			<rect x="153.7" y="93.1" fill="#465E61" width="530.6" height="386.2"/>
			<path fill="#E0BB9B" d="M678.9,98.5V474H159.1V98.5H678.9 M689.7,87.8H148.4v397h541.3V87.8L689.7,87.8z"/>
		</g>
		<g>
			<path fill="#E0BB9B" d="M688.7,88.8v395H151.3v-395H688.7 M689.7,87.8H150.3v397h539.3V87.8L689.7,87.8z"/>
		</g>
		<rect x="181.1" y="116.4" fill="none" stroke="#E0BB9B" stroke-miterlimit="10" width="477.8" height="339.6"/>
		<polygon fill="none" stroke="#E0BB9B" stroke-miterlimit="10" points="678.9,474.1 658.9,456.3 181.1,456.3 157,474.8 		"/>
		<polygon fill="none" stroke="#E0BB9B" stroke-miterlimit="10" points="678.9,98.9 658.9,117.3 181.1,117.3 157,98.5 		"/>
	</g>
</g>
<g>
	<g>
		<path fill="none" stroke="#E0BB9B" stroke-miterlimit="10" d="M605.5,239.3l-1.4,27.9c-0.3,6.1-5.5,10.8-11.6,10.5l-29.4-1.5
			c-6.1-0.3-10.8-5.5-10.5-11.6l1.4-27.9c0.3-6.1,5.5-10.8,11.6-10.5l29.4,1.5C601.1,228,605.9,233.2,605.5,239.3z"/>
		<g>
			<path fill="none" stroke="#E0BB9B" stroke-miterlimit="10" d="M559.5,277.8"/>
			<path fill="none" stroke="#E0BB9B" stroke-miterlimit="10" d="M566.2,231.5c-4.7-0.2-8.8,3.4-9,8.1l-1.1,21.8
				c-0.2,4.7,3.4,8.8,8.1,9c9.2,0.5,5.8,7.9-4.8,7.4c-6.2-0.3-11.6-6-11.3-12.5l1.5-30.3c0.3-6.5,6.3-10.9,12.5-10.6
				C571.3,224.9,573.8,231.9,566.2,231.5z"/>
			<path fill="none" stroke="#E0BB9B" stroke-miterlimit="10" d="M564.3,270.4"/>
		</g>
		<path fill="none" stroke="#E0BB9B" stroke-miterlimit="10" d="M591.6,276L591.6,276c-0.1,1.9-1.7,3.4-3.7,3.3l-22.5-1.1
			c-1.9-0.1-3.4-1.7-3.3-3.7v0c0.1-1.9,1.7-3.4,3.7-3.3l22.5,1.1C590.2,272.4,591.7,274,591.6,276z"/>
		<path fill="none" stroke="#E0BB9B" stroke-miterlimit="10" d="M594,228.8L594,228.8c-0.1,1.9-1.7,3.4-3.7,3.3l-22.5-1.1
			c-1.9-0.1-3.4-1.7-3.3-3.7v0c0.1-1.9,1.7-3.4,3.7-3.3l22.5,1.1C592.6,225.2,594.1,226.9,594,228.8z"/>
	</g>
	<g>
		<path fill="none" stroke="#E0BB9B" stroke-miterlimit="10" d="M607.7,145.1l0.7,28c0.2,6.1-4.7,11.2-10.8,11.3l-29.4,0.8
			c-6.1,0.2-11.2-4.7-11.3-10.8l-0.7-28c-0.2-6.1,4.7-11.2,10.8-11.3l29.4-0.8C602.4,134.2,607.5,139.1,607.7,145.1z"/>
		<g>
			<path fill="none" stroke="#E0BB9B" stroke-miterlimit="10" d="M564.7,187.1"/>
			<path fill="none" stroke="#E0BB9B" stroke-miterlimit="10" d="M567.9,140.4c-4.7,0.1-8.5,4.1-8.3,8.8l0.6,21.8
				c0.1,4.7,4.1,8.5,8.8,8.3c9.2-0.2,6.4,7.5-4.2,7.7c-6.2,0.2-12.1-5.1-12.2-11.6l-0.8-30.4c-0.2-6.6,5.4-11.3,11.6-11.5
				C572.5,133.4,575.5,140.2,567.9,140.4z"/>
			<path fill="none" stroke="#E0BB9B" stroke-miterlimit="10" d="M568.9,179.3"/>
		</g>
		<path fill="none" stroke="#E0BB9B" stroke-miterlimit="10" d="M596.6,182.8L596.6,182.8c0,1.9-1.5,3.5-3.4,3.6l-22.5,0.6
			c-1.9,0-3.5-1.5-3.6-3.4v0c0-1.9,1.5-3.5,3.4-3.6l22.5-0.6C595,179.3,596.6,180.9,596.6,182.8z"/>
		<path fill="none" stroke="#E0BB9B" stroke-miterlimit="10" d="M595.4,135.5L595.4,135.5c0,1.9-1.5,3.5-3.4,3.6l-22.5,0.6
			c-1.9,0-3.5-1.5-3.6-3.4v0c0-1.9,1.5-3.5,3.4-3.6l22.5-0.6C593.7,132.1,595.3,133.6,595.4,135.5z"/>
	</g>
	<polygon fill="none" stroke="#E0BB9B" stroke-width="1.2561" stroke-miterlimit="10" points="435.2,316.1 456.2,426.9 456.2,464.9 
		402.8,464.9 402.8,433.1 382.9,316.1 	"/>
	<polyline fill="none" stroke="#E0BB9B" stroke-width="4" stroke-miterlimit="10" points="402.8,464.9 402.8,433.1 382.9,316.1 
		432.2,316.1 	"/>
	<g>
		<polygon fill="#35484A" points="158.9,326.6 188.9,314.3 188.9,281.1 158.9,260.5 		"/>
		<g>
			<line fill="none" stroke="#E0BB9B" stroke-width="3" stroke-miterlimit="10" x1="208.4" y1="293.4" x2="158.3" y2="262.7"/>
			<g>
				<g>
					<path fill="none" stroke="#E0BB9B" stroke-miterlimit="10" d="M206.5,292.4c-0.2,0.4-0.5,0.9-0.7,1.3"/>
					<path fill="none" stroke="#E0BB9B" stroke-miterlimit="10" stroke-dasharray="3.0439,3.0439" d="M204.2,296.3
						c-10.3,16.7-28.4,28-49.1,29"/>
					<path fill="none" stroke="#E0BB9B" stroke-miterlimit="10" d="M153.6,325.4c-0.5,0-1,0-1.5,0"/>
				</g>
			</g>
		</g>
	</g>
	
		<use xlink:href="#chair"  width="43.2" height="50.3" id="XMLID_59_" x="-23.7" y="-25.3" transform="matrix(-0.9896 0.144 0.144 0.9896 299.4827 193.0709)" overflow="visible"/>
	
		<use xlink:href="#chair"  width="43.2" height="50.3" id="XMLID_58_" x="-23.7" y="-25.3" transform="matrix(-0.9124 0.4093 0.4093 0.9124 218.4814 193.0709)" overflow="visible"/>
	
		<use xlink:href="#chair"  width="43.2" height="50.3" id="XMLID_57_" x="-23.7" y="-25.3" transform="matrix(-1 -3.916070e-03 -3.916070e-03 1 379.101 191.3526)" overflow="visible"/>
	<path fill="none" stroke="#E0BB9B" stroke-width="1.2561" stroke-miterlimit="10" d="M483.3,113.3h-60.4c-4.4,0-8.4,1.6-11,4
		c-2.4-2.4-6.3-4-10.6-4h-51.5c-4.9,0-9.2,2-11.5,5.1c-2.5-3-6.9-5.1-11.9-5.1h-58.6c-4.5,0-8.5,1.6-11.1,4.2
		c-2.4-2.7-6.5-4.5-11.1-4.5h-51.5c-7.3,0-13.3,4.6-13.3,10.2v17c0,5.6,6,10.2,13.3,10.2h51.5c4.4,0,8.3-1.6,10.7-4.2
		c2.6,2.7,6.7,4.5,11.4,4.5h58.6c5,0,9.4-2,11.9-5.1c2.3,3,6.6,5.1,11.5,5.1h51.5c4.3,0,8.1-1.6,10.6-4c2.6,2.5,6.6,4,11,4h60.4
		c7.8,0,14.2-4.9,14.2-10.8v-15.7C497.5,118.2,491.1,113.3,483.3,113.3z"/>
	<path fill="none" stroke="#E0BB9B" stroke-width="1.2561" stroke-miterlimit="10" d="M642.1,119.9h19.3c3.4,0,6.1,2.8,6.1,6.1v65.9
		c0,3.4-2.8,6.1-6.1,6.1h-19.3c-3.4,0-6.1-2.8-6.1-6.1V126C636,122.6,638.7,119.9,642.1,119.9z"/>
	
		<use xlink:href="#chair"  width="43.2" height="50.3" id="XMLID_48_" x="-23.7" y="-25.3" transform="matrix(-0.9911 -0.1334 -0.1334 0.9911 454.8732 191.3526)" overflow="visible"/>
	
		<use xlink:href="#New_Symbol_1_1_"  width="55.5" height="50.4" x="-27.8" y="-25.2" transform="matrix(-1.354336e-02 0.9999 0.9999 1.354336e-02 191.5526 380.4339)" overflow="visible"/>
	
		<use xlink:href="#New_Symbol_1_1_"  width="55.5" height="50.4" id="XMLID_47_" x="-27.8" y="-25.2" transform="matrix(0.9951 9.847996e-02 9.847996e-02 -0.9951 247.1056 433.0703)" overflow="visible"/>
	
		<use xlink:href="#New_Symbol_1_1_"  width="55.5" height="50.4" id="XMLID_46_" x="-27.8" y="-25.2" transform="matrix(0.6308 -0.7759 -0.7759 -0.6308 318.3451 429.3664)" overflow="visible"/>
	
		<use xlink:href="#New_Symbol_1_1_"  width="55.5" height="50.4" id="XMLID_45_" x="-27.8" y="-25.2" transform="matrix(-0.138 -0.9904 -0.9904 0.138 345.1251 356.0081)" overflow="visible"/>
	<path fill="none" stroke="#E0BB9B" stroke-width="1.2561" stroke-miterlimit="10" d="M642.1,211.9h19.3c3.4,0,6.1,2.8,6.1,6.1v65.9
		c0,3.4-2.8,6.1-6.1,6.1h-19.3c-3.4,0-6.1-2.8-6.1-6.1V218C636,214.6,638.7,211.9,642.1,211.9z"/>
	
		<use xlink:href="#New_Symbol_2"  width="66.3" height="10.2" x="-33.2" y="-5.1" transform="matrix(1 0 0 -0.7637 219.1005 107.2584)" overflow="visible"/>
	
		<use xlink:href="#New_Symbol_2"  width="66.3" height="10.2" x="-33.2" y="-5.1" transform="matrix(1 0 0 -0.7637 297.0564 107.2584)" overflow="visible"/>
	
		<use xlink:href="#New_Symbol_2"  width="66.3" height="10.2" x="-33.2" y="-5.1" transform="matrix(1 0 0 -0.7637 375.5201 107.2584)" overflow="visible"/>
	
		<use xlink:href="#New_Symbol_2"  width="66.3" height="10.2" x="-33.2" y="-5.1" transform="matrix(1 0 0 -0.7637 454.4828 107.2584)" overflow="visible"/>
	<line fill="#656565" stroke="#E0BB9B" stroke-width="10.7796" stroke-miterlimit="10" x1="521.4" y1="392" x2="521.4" y2="480.8"/>
	<polyline fill="none" stroke="#E0BB9B" stroke-width="10.7796" stroke-miterlimit="10" points="686.3,316.1 521.4,316.1 521.4,350 
			"/>
	<g>
		<line fill="none" stroke="#E0BB9B" stroke-width="3" stroke-miterlimit="10" x1="486.5" y1="372.9" x2="521.4" y2="394.6"/>
		<g>
			<g>
				<path fill="none" stroke="#E0BB9B" stroke-miterlimit="10" d="M486.5,372.9c0.2-0.4,0.5-0.9,0.7-1.3"/>
				<path fill="none" stroke="#E0BB9B" stroke-miterlimit="10" stroke-dasharray="3.048,3.048" d="M488.8,368.9
					c7.5-11.3,20-19,34.4-19.9"/>
				<path fill="none" stroke="#E0BB9B" stroke-miterlimit="10" d="M524.7,349c0.5,0,1,0,1.5,0"/>
			</g>
		</g>
	</g>
</g>
<g>
	
		<circle opacity="0.1" fill="#E0BB9B" stroke="#E0BB9B" stroke-width="0.5" stroke-miterlimit="10" stroke-dasharray="2" cx="330.2" cy="271.2" r="97.1"/>
	<g>
		<polygon fill="none" stroke="#FFFFFF" stroke-width="1.2581" stroke-miterlimit="10" points="324.2,281.5 324.7,285.3 
			333.7,285.3 334.1,281.5 334.1,276 324.2,276 		"/>
		<path fill="none" stroke="#FFFFFF" stroke-width="1.2581" stroke-miterlimit="10" d="M342.8,265c-0.1-0.1-0.3-0.3-0.4-0.4l0.4-0.6
			h-1.2c-1.1-0.7-2.6-1.3-3.3-1.3c-1,0-2,0.5-2.5,1.3h-1.1c-0.5-0.8-1.5-1.3-2.5-1.3s-2,0.5-2.5,1.3h-1c-0.5-0.8-1.5-1.3-2.5-1.3
			s-2,0.5-2.5,1.3h-0.9c-0.5-0.8-1.5-1.3-2.5-1.3c-0.7,0-2.2,0.7-3.3,1.3h-1.4l0.5,0.7c-0.1,0.1-0.2,0.2-0.3,0.3h0.5l7.7,10.9h10.3
			L342,265H342.8z"/>
	</g>
	<path opacity="0.1" fill="#E0BB9B" stroke="#E0BB9B" stroke-width="0.5" stroke-miterlimit="10" stroke-dasharray="2" d="
		M390.6,271.2c0-53.6,43.5-97.1,97.1-97.1s97.1,43.5,97.1,97.1c0,15.8-3.8,30.8-10.5,44l-52.8,0.9c0,0,2.7,24.2,0,33.9
		c-1.7,6-7.6-5.5-18.6,5.5c-11,11-7.5,12.8-15.2,12.8C434,368.2,390.6,324.8,390.6,271.2z"/>
	<g>
		<polygon fill="none" stroke="#FFFFFF" stroke-width="1.2581" stroke-miterlimit="10" points="481.7,281.5 482.1,285.3 
			491.2,285.3 491.6,281.5 491.6,276 481.7,276 		"/>
		<path fill="none" stroke="#FFFFFF" stroke-width="1.2581" stroke-miterlimit="10" d="M500.2,265c-0.1-0.1-0.3-0.3-0.4-0.4l0.4-0.6
			H499c-1.1-0.7-2.6-1.3-3.3-1.3c-1,0-2,0.5-2.5,1.3h-1.1c-0.5-0.8-1.5-1.3-2.5-1.3s-2,0.5-2.5,1.3h-1c-0.5-0.8-1.5-1.3-2.5-1.3
			s-2,0.5-2.5,1.3h-0.9c-0.5-0.8-1.5-1.3-2.5-1.3c-0.7,0-2.2,0.7-3.3,1.3h-1.4l0.5,0.7c-0.1,0.1-0.2,0.2-0.3,0.3h0.5l7.7,10.9h10.3
			l7.7-10.9H500.2z"/>
	</g>
</g>
<g>
	<polygon fill="none" stroke="#FFFFFF" stroke-miterlimit="10" points="747.7,340.5 747.4,339.5 747.4,172 729.8,154.1 700,154.1 
		700,162.2 726.5,162.2 739.4,175.4 739.4,257.5 729.8,247.8 700,247.8 700,255.9 726.5,255.9 739.4,269 739.4,339.5 715.1,363.8 
		721.1,369.8 742.9,348 765,370 770.7,363.3 	"/>
	<ellipse fill="#FFFFFF" cx="770.7" cy="393.5" rx="13.4" ry="13.7"/>
	<path fill="#C26868" d="M767.1,395.4c0,2.8,1.6,3.9,3.6,3.9s3.6-1.1,3.6-3.9c0-2.8-3.6-8.3-3.6-8.3S767.1,392.6,767.1,395.4z"/>
	<ellipse fill="#FFFFFF" cx="717.4" cy="393.5" rx="13.4" ry="13.7"/>
	<path fill="#68BCC2" d="M713.8,396.4c0,2.8,1.6,3.9,3.6,3.9s3.6-1.1,3.6-3.9c0-2.8-3.6-8.3-3.6-8.3S713.8,393.6,713.8,396.4z"/>
	<rect x="695.5" y="245.8" fill="none" stroke="#FFFFFF" stroke-miterlimit="10" width="4.5" height="12.7"/>
	<rect x="695.5" y="151.6" fill="none" stroke="#FFFFFF" stroke-miterlimit="10" width="4.5" height="12.7"/>
	<rect x="737.1" y="268.2" fill="none" stroke="#FFFFFF" stroke-miterlimit="10" width="12.7" height="4.5"/>
	<rect x="737.1" y="184.8" fill="none" stroke="#FFFFFF" stroke-miterlimit="10" width="12.7" height="4.5"/>
	<rect x="737.1" y="330.8" fill="none" stroke="#FFFFFF" stroke-miterlimit="10" width="12.7" height="4.5"/>
	
		<rect x="714.1" y="361.7" transform="matrix(-0.7071 0.7071 -0.7071 -0.7071 1483.2086 121.7185)" fill="none" stroke="#FFFFFF" stroke-miterlimit="10" width="4.5" height="12.7"/>
	
		<rect x="766.5" y="361.7" transform="matrix(-0.7071 -0.7071 0.7071 -0.7071 1052.0848 1171.8715)" fill="none" stroke="#FFFFFF" stroke-miterlimit="10" width="4.5" height="12.7"/>
	<g>
		<path fill="none" stroke="#FFFFFF" stroke-miterlimit="10" d="M653.8,136.1H625c-4.8,0-8.7,3.9-8.7,8.7v0c0,1.5,0.4,2.9,1.1,4.2
			l3.6,6.4c1.6,2.8,1.4,6.3-0.3,9l-2.9,4.4c-0.9,1.4-1.4,3.1-1.4,4.8v0.7c0,4.8,3.9,8.7,8.7,8.7h28.8c4.8,0,8.7-3.9,8.7-8.7v-29.5
			C662.5,140,658.6,136.1,653.8,136.1z"/>
		<circle fill="none" stroke="#FFFFFF" stroke-miterlimit="10" cx="631.8" cy="159.6" r="4.4"/>
		<path fill="none" stroke="#FFFFFF" stroke-miterlimit="10" d="M642.3,159.6c0-2.1,9.6-3.9,15.1-3.9c5.6,0,5,1.7,5,3.9
			c0,2.1,0.5,3.9-5,3.9C651.9,163.5,642.3,161.8,642.3,159.6z"/>
		<polygon fill="none" stroke="#FFFFFF" stroke-miterlimit="10" points="661.1,165.9 662.5,168.2 661.1,170.6 658.4,170.6 
			657.1,168.2 658.4,165.9 		"/>
		<polygon fill="none" stroke="#FFFFFF" stroke-miterlimit="10" points="661.1,148.1 662.5,150.4 661.1,152.7 658.4,152.7 
			657.1,150.4 658.4,148.1 		"/>
	</g>
	<g>
		<path fill="none" stroke="#FFFFFF" stroke-miterlimit="10" d="M653.8,228.1H625c-4.8,0-8.7,3.9-8.7,8.7v0c0,1.5,0.4,2.9,1.1,4.2
			l3.6,6.4c1.6,2.8,1.4,6.3-0.3,9l-2.9,4.4c-0.9,1.4-1.4,3.1-1.4,4.8v0.7c0,4.8,3.9,8.7,8.7,8.7h28.8c4.8,0,8.7-3.9,8.7-8.7v-29.5
			C662.5,232,658.6,228.1,653.8,228.1z"/>
		<circle fill="none" stroke="#FFFFFF" stroke-miterlimit="10" cx="631.8" cy="251.6" r="4.4"/>
		<path fill="none" stroke="#FFFFFF" stroke-miterlimit="10" d="M642.3,251.6c0-2.1,9.6-3.9,15.1-3.9c5.6,0,5,1.7,5,3.9
			s0.5,3.9-5,3.9C651.9,255.5,642.3,253.8,642.3,251.6z"/>
		<polygon fill="none" stroke="#FFFFFF" stroke-miterlimit="10" points="661.1,257.9 662.5,260.2 661.1,262.5 658.4,262.5 
			657.1,260.2 658.4,257.9 		"/>
		<polygon fill="none" stroke="#FFFFFF" stroke-miterlimit="10" points="661.1,240 662.5,242.4 661.1,244.7 658.4,244.7 
			657.1,242.4 658.4,240 		"/>
	</g>
</g>
<g>
	<g>
		<path fill="none" stroke="#FFFFFF" stroke-width="1.2581" stroke-miterlimit="10" d="M407.7,404.1l-8.3-32.7
			c-0.8-3.1-0.3-5.7,1-5.8l8.9-0.3c1.1,0,2.5,2.2,3.2,4.9l7.3,28.6c0.7,2.7,0.5,5.4-0.5,5.8l-7.9,4
			C410.1,409.3,408.5,407.3,407.7,404.1z"/>
		<polyline fill="none" stroke="#FFFFFF" stroke-width="1.2581" stroke-miterlimit="10" points="411.3,408.7 406.7,409.9 405,407 
			395.5,369.8 395.8,366.8 400.4,365.7 		"/>
		<polyline fill="none" stroke="#FFFFFF" stroke-width="1.2581" stroke-miterlimit="10" points="414.7,379.3 417.6,378.6 
			418.7,373.9 423,390.7 419.7,386.7 416.8,387.4 		"/>
	</g>
	<path fill="#FFFFFF" d="M418.3,374.2c1,0,1.6-1,2-2.1c0.2-0.4,0.5-1.7,1.4-1.2c0.4,0.2,0.7,0.4,1.1,0.5c0.7,0.2,1.3-0.1,1.9-0.4
		l12.7,28.1l11-4.9L433,360.1l-11,4.9l2.5,5.4c-0.1,0.1-0.3,0.1-0.4,0.2c-0.9,0.5-1.5,0-2.2-0.4c-0.4-0.2-0.7-0.2-1.1,0
		c-1.2,0.7-0.9,3.7-2.6,3.3 M432.3,361.9l14.2,31.6l-8.4,3.8l-14.2-31.6L432.3,361.9z M439,392.5l0.8,1.7l-1.7,0.8l-0.8-1.7
		L439,392.5z M437.8,389.7l0.8,1.7l-1.7,0.8l-0.8-1.7L437.8,389.7z M436.5,386.9l0.8,1.7l-1.7,0.8l-0.8-1.7L436.5,386.9z
		 M435.2,384.1l0.8,1.7l-1.7,0.8l-0.8-1.7L435.2,384.1z M433.9,381.2l0.8,1.7l-1.7,0.8l-0.8-1.7L433.9,381.2z M432.7,378.4l0.8,1.7
		l-1.7,0.8l-0.8-1.7L432.7,378.4z M431.4,375.5l0.8,1.7l-1.7,0.8l-0.8-1.7L431.4,375.5z M430.1,372.8l0.8,1.7l-1.7,0.8l-0.8-1.7
		L430.1,372.8z M442.1,392.5l0.8,1.7l-1.7,0.8l-0.8-1.7L442.1,392.5z M440.8,389.8l0.8,1.7l-1.7,0.8l-0.8-1.7L440.8,389.8z
		 M439.5,386.9l0.8,1.7l-1.7,0.8l-0.8-1.7L439.5,386.9z M438.3,384.2l0.8,1.7l-1.7,0.8l-0.8-1.7L438.3,384.2z M436.9,381.2l0.8,1.7
		l-1.7,0.8l-0.8-1.7L436.9,381.2z M435.7,378.5l0.8,1.7l-1.7,0.8l-0.8-1.7L435.7,378.5z M434.4,375.6l0.8,1.7l-1.7,0.8l-0.8-1.7
		L434.4,375.6z M433.2,372.8l0.8,1.7l-1.7,0.8l-0.8-1.7L433.2,372.8z M430.3,366.6l0.8,1.7l-1.7,0.8l-0.8-1.7L430.3,366.6z
		 M431,366.5l-0.8-1.7l1.7-0.8l0.8,1.7L431,366.5z M432.4,369.5l-0.8-1.7l1.7-0.8l0.8,1.7L432.4,369.5z M443.5,393.3l-0.8-1.7
		l1.7-0.8l0.8,1.7L443.5,393.3z M442.2,390.5l-0.8-1.7l1.7-0.8l0.8,1.7L442.2,390.5z M440.9,387.7l-0.8-1.7l1.7-0.8l0.8,1.7
		L440.9,387.7z M439.7,384.9l-0.8-1.7l1.7-0.8l0.8,1.7L439.7,384.9z M438.4,382l-0.8-1.7l1.7-0.8l0.8,1.7L438.4,382z M437.1,379.2
		l-0.8-1.7l1.7-0.8l0.8,1.7L437.1,379.2z M435.8,376.3l-0.8-1.7l1.7-0.8l0.8,1.7L435.8,376.3z M434.6,373.6l-0.8-1.7l1.7-0.8
		l0.8,1.7L434.6,373.6z M426.2,369.4l1.2,2.7l1-0.4l-1.2-2.7L426.2,369.4z M427.1,369.2l1.1,2.4l-0.7,0.3l-1.1-2.4L427.1,369.2z
		 M424.8,366.2l1.2,2.7l1-0.4l-1.2-2.7L424.8,366.2z M425.7,366l1.1,2.4l-0.7,0.3l-1.1-2.4L425.7,366z"/>
</g>
<g>
	<g>
		<g>
			<path fill="none" stroke="#FFFFFF" stroke-miterlimit="10" d="M633.3,357.8c-0.1-0.2-0.2-0.5-0.4-0.7l0,0l2.9,6.3l2.9,6.3
				l2.9,6.3l2.9,6.3l0,0c-0.1-0.3-0.2-0.5-0.3-0.7L633.3,357.8z"/>
			<path fill="none" stroke="#FFFFFF" stroke-miterlimit="10" d="M610,360.4c-2.3,2.1-3.2,5.4-2.2,8.3l5-2.3L610,360.4z"/>
			<path fill="none" stroke="#FFFFFF" stroke-miterlimit="10" d="M611.9,359.2l-2,0.9l0.1,0.3C610.6,359.9,611.2,359.5,611.9,359.2z
				"/>
			<path fill="none" stroke="#FFFFFF" stroke-miterlimit="10" d="M612.8,366.5l5-2.3l-2.9-6.3l-3,1.4c-0.7,0.3-1.3,0.8-1.9,1.3
				L612.8,366.5z"/>
			
				<rect x="615.4" y="357" transform="matrix(0.4209 0.9071 -0.9071 0.4209 684.7543 -353.0786)" fill="none" stroke="#FFFFFF" stroke-miterlimit="10" width="7" height="5.6"/>
			<path fill="none" stroke="#FFFFFF" stroke-miterlimit="10" d="M625,353.1l-2,0.9c0.7-0.3,1.4-0.5,2.1-0.6L625,353.1z"/>
			<path fill="none" stroke="#FFFFFF" stroke-miterlimit="10" d="M627.9,359.4l-2.8-6.1c-0.7,0.1-1.4,0.3-2.1,0.6l-3.1,1.4l2.9,6.3
				L627.9,359.4z"/>
			<path fill="none" stroke="#FFFFFF" stroke-miterlimit="10" d="M625.1,353.4l2.8,6.1l5-2.3l0,0
				C631.3,354.4,628.2,352.9,625.1,353.4z"/>
			<path fill="none" stroke="#FFFFFF" stroke-miterlimit="10" d="M608.2,369.5c-0.1-0.2-0.2-0.5-0.3-0.7l-0.1,0l2.9,6.3l0,0
				L608.2,369.5z"/>
			<path fill="none" stroke="#FFFFFF" stroke-miterlimit="10" d="M612.8,366.5l-5,2.3c0.1,0.2,0.2,0.5,0.3,0.7l2.6,5.6l5-2.3
				L612.8,366.5z"/>
			
				<rect x="613.3" y="365.7" transform="matrix(0.4209 0.9071 -0.9071 0.4209 691.414 -346.1523)" fill="none" stroke="#FFFFFF" stroke-miterlimit="10" width="7" height="5.6"/>
			
				<rect x="618.4" y="363.3" transform="matrix(0.4209 0.9071 -0.9071 0.4209 692.2105 -352.0758)" fill="none" stroke="#FFFFFF" stroke-miterlimit="10" width="7" height="5.6"/>
			
				<rect x="623.4" y="361" transform="matrix(0.4209 0.9071 -0.9071 0.4209 693.0073 -357.9993)" fill="none" stroke="#FFFFFF" stroke-miterlimit="10" width="7" height="5.6"/>
			
				<rect x="629.2" y="358" transform="matrix(-0.9071 0.4209 -0.4209 -0.9071 1357.3104 423.3144)" fill="none" stroke="#FFFFFF" stroke-miterlimit="10" width="5.6" height="7"/>
			
				<rect x="612.2" y="374.8" transform="matrix(0.9071 -0.4209 0.4209 0.9071 -102.3582 292.8536)" fill="none" stroke="#FFFFFF" stroke-miterlimit="10" width="0" height="7"/>
			
				<rect x="612" y="373.6" transform="matrix(0.9071 -0.4209 0.4209 0.9071 -101.6321 293.8053)" fill="none" stroke="#FFFFFF" stroke-miterlimit="10" width="5.5" height="7"/>
			
				<rect x="617" y="371.3" transform="matrix(0.9071 -0.4209 0.4209 0.9071 -100.1855 295.7014)" fill="none" stroke="#FFFFFF" stroke-miterlimit="10" width="5.6" height="7"/>
			
				<rect x="621.3" y="369.7" transform="matrix(0.4209 0.9071 -0.9071 0.4209 699.6669 -351.073)" fill="none" stroke="#FFFFFF" stroke-miterlimit="10" width="7" height="5.6"/>
			
				<rect x="627.1" y="366.6" transform="matrix(-0.9071 0.4209 -0.4209 -0.9071 1356.9683 440.7483)" fill="none" stroke="#FFFFFF" stroke-miterlimit="10" width="5.6" height="7"/>
			
				<rect x="632.1" y="364.3" transform="matrix(-0.9071 0.4209 -0.4209 -0.9071 1365.5919 434.1696)" fill="none" stroke="#FFFFFF" stroke-miterlimit="10" width="5.6" height="7"/>
			
				<rect x="615.2" y="381.1" transform="matrix(0.9071 -0.4209 0.4209 0.9071 -104.7541 294.6815)" fill="none" stroke="#FFFFFF" stroke-miterlimit="10" width="0" height="7"/>
			
				<rect x="614.9" y="380" transform="matrix(0.9071 -0.4209 0.4209 0.9071 -104.0281 295.6331)" fill="none" stroke="#FFFFFF" stroke-miterlimit="10" width="5.5" height="7"/>
			
				<rect x="619.2" y="378.4" transform="matrix(-0.4209 -0.9071 0.9071 -0.4209 539.0944 1106.4373)" fill="none" stroke="#FFFFFF" stroke-miterlimit="10" width="7" height="5.6"/>
			
				<rect x="624.3" y="376" transform="matrix(-0.4209 -0.9071 0.9071 -0.4209 548.3735 1107.6852)" fill="none" stroke="#FFFFFF" stroke-miterlimit="10" width="7" height="5.6"/>
			
				<rect x="630" y="373" transform="matrix(-0.9071 0.4209 -0.4209 -0.9071 1365.2494 451.6036)" fill="none" stroke="#FFFFFF" stroke-miterlimit="10" width="5.6" height="7"/>
			
				<rect x="635" y="370.6" transform="matrix(-0.9071 0.4209 -0.4209 -0.9071 1373.8729 445.0244)" fill="none" stroke="#FFFFFF" stroke-miterlimit="10" width="5.6" height="7"/>
			<path fill="none" stroke="#FFFFFF" stroke-miterlimit="10" d="M619.3,393.4l-2.6-5.6l0,0l2.9,6.3l0.1,0
				C619.5,393.9,619.4,393.7,619.3,393.4z"/>
			<path fill="none" stroke="#FFFFFF" stroke-miterlimit="10" d="M616.7,387.8l2.6,5.6c0.1,0.2,0.2,0.5,0.4,0.7l5-2.3l-2.9-6.3
				L616.7,387.8z"/>
			
				<rect x="622.2" y="384.7" transform="matrix(-0.4209 -0.9071 0.9071 -0.4209 537.5236 1118.1171)" fill="none" stroke="#FFFFFF" stroke-miterlimit="10" width="7" height="5.6"/>
			
				<rect x="627.2" y="382.4" transform="matrix(-0.4209 -0.9071 0.9071 -0.4209 546.8027 1119.3649)" fill="none" stroke="#FFFFFF" stroke-miterlimit="10" width="7" height="5.6"/>
			
				<rect x="632.2" y="380" transform="matrix(-0.4209 -0.9071 0.9071 -0.4209 556.0815 1120.613)" fill="none" stroke="#FFFFFF" stroke-miterlimit="10" width="7" height="5.6"/>
			
				<rect x="638" y="377" transform="matrix(-0.9071 0.4209 -0.4209 -0.9071 1382.1541 455.8793)" fill="none" stroke="#FFFFFF" stroke-miterlimit="10" width="5.6" height="7"/>
			<path fill="none" stroke="#FFFFFF" stroke-miterlimit="10" d="M627.4,397.9l-2.8-6l-5,2.3C621.3,396.9,624.4,398.3,627.4,397.9z"
				/>
			<path fill="none" stroke="#FFFFFF" stroke-miterlimit="10" d="M627.5,398.2l2-0.9c-0.7,0.3-1.4,0.5-2.2,0.6L627.5,398.2z"/>
			<path fill="none" stroke="#FFFFFF" stroke-miterlimit="10" d="M624.6,391.8l2.8,6c0.7-0.1,1.5-0.3,2.2-0.6l3-1.4l-2.9-6.3
				L624.6,391.8z"/>
			
				<rect x="630.1" y="388.7" transform="matrix(-0.4209 -0.9071 0.9071 -0.4209 545.2316 1131.045)" fill="none" stroke="#FFFFFF" stroke-miterlimit="10" width="7" height="5.6"/>
			<path fill="none" stroke="#FFFFFF" stroke-miterlimit="10" d="M640.7,392.1l2-0.9l-0.1-0.3C642,391.3,641.4,391.7,640.7,392.1z"
				/>
			<path fill="none" stroke="#FFFFFF" stroke-miterlimit="10" d="M639.7,384.8l-5,2.3l2.9,6.3l3.1-1.4c0.7-0.3,1.3-0.7,1.8-1.2
				L639.7,384.8z"/>
			<path fill="none" stroke="#FFFFFF" stroke-miterlimit="10" d="M639.7,384.8l2.8,6.1c2.3-2,3.3-5.4,2.2-8.4l0,0L639.7,384.8z"/>
		</g>
		<path fill="none" stroke="#FFFFFF" stroke-miterlimit="10" d="M640.7,392.1l-11.1,5.2c-3.9,1.8-8.5,0.1-10.3-3.8l-11.1-24
			c-1.8-3.9-0.1-8.5,3.8-10.3L623,354c3.9-1.8,8.5-0.1,10.3,3.8l11.1,24C646.2,385.6,644.5,390.3,640.7,392.1z"/>
	</g>
	<g>
		<polygon fill="none" stroke="#FFFFFF" stroke-miterlimit="10" points="656.7,414.4 668.7,428.4 609.4,428.4 608.3,414.4 		"/>
		<polyline fill="none" stroke="#FFFFFF" stroke-miterlimit="10" points="609.4,427.3 609.4,467.1 668.3,467.1 668.7,428.3 		"/>
		<polygon fill="none" stroke="#FFFFFF" stroke-miterlimit="10" points="595.5,413.9 596.7,428.4 596.7,467.1 539.1,467.1 
			539.1,428.1 542.2,413.9 		"/>
		<line fill="none" stroke="#FFFFFF" stroke-miterlimit="10" x1="596.7" y1="428.4" x2="539.1" y2="428.4"/>
		<ellipse fill="none" stroke="#FFFFFF" stroke-miterlimit="10" cx="568.9" cy="421.5" rx="11.2" ry="3.5"/>
		<ellipse fill="none" stroke="#FFFFFF" stroke-miterlimit="10" cx="637.5" cy="421.5" rx="11.2" ry="3.5"/>
	</g>
	<path fill="none" stroke="#FFFFFF" stroke-miterlimit="10" d="M531.1,320.8c0,0,44.7,41.4,147.8,33.2c0,0-36.5,10.8-152.7,56.5"/>
	<path fill="#FFFFFF" d="M539.1,344.8c0,0,9.9-3.9,15.4-9.5c5.5-5.5,26.6,9.5,26.6,9.5s-8.8,7.5-5.9,13.9
		C578.2,365,539.1,344.8,539.1,344.8z"/>
	<path fill="#FFFFFF" stroke="#465E61" stroke-miterlimit="10" d="M562.2,437.5v11.5c0,1.2,1,2.1,2.1,2.1h18.7c1.2,0,2.1-1,2.1-2.1
		v-9.4c0-1.2-1-2.1-2.1-2.1h-25.8c-1.2,0-2.1,1-2.1,2.1V456c0,1.2,1,2.1,2.1,2.1h19.6c1.2,0,2.1-1,2.1-2.1v-17.6"/>
	<path fill="#FFFFFF" stroke="#465E61" stroke-miterlimit="10" d="M594.7,438.9l-28-11c-1-0.4-2.1,0.1-2.5,1.1l-6.3,16
		c-0.4,1,0.1,2.1,1.1,2.5l28,11c1,0.4,2.1-0.1,2.5-1.1l6.3-16C596.2,440.4,595.7,439.3,594.7,438.9z"/>
	<path fill="#FFFFFF" stroke="#465E61" stroke-miterlimit="10" d="M648.5,436.4l-29.5,6.2c-1,0.2-1.7,1.2-1.5,2.2l3.5,16.8
		c0.2,1,1.2,1.7,2.2,1.5l29.5-6.2c1-0.2,1.7-1.2,1.5-2.2l-3.5-16.8C650.6,436.8,649.5,436.2,648.5,436.4z"/>
	<path fill="#FFFFFF" stroke="#465E61" stroke-miterlimit="10" d="M651.4,431.8L622,438c-1,0.2-1.7,1.2-1.5,2.2l3.5,16.8
		c0.2,1,1.2,1.7,2.2,1.5l29.5-6.2c1-0.2,1.7-1.2,1.5-2.2l-3.5-16.8C653.5,432.2,652.5,431.6,651.4,431.8z"/>
	<path fill="#FFFFFF" stroke="#465E61" stroke-miterlimit="10" d="M659.3,436.6l-30,2.6c-1,0.1-1.8,1-1.7,2l1.5,17.2
		c0.1,1,1,1.8,2,1.7l30-2.6c1-0.1,1.8-1,1.7-2l-1.5-17.2C661.2,437.3,660.3,436.6,659.3,436.6z"/>
</g>
<path fill="none" stroke="#E0BB9B" stroke-width="1.2561" stroke-miterlimit="10" d="M225,133.4l-5.5,6.1l2.7,2.7l5.8-5.8l5.6-3.1
	l4.4,4.4l2.2-4.4l-4-4c0,0,0.6-4.5-6.4-4.5S225,133.4,225,133.4z"/>
<path fill="none" stroke="#E0BB9B" stroke-width="0.5" stroke-miterlimit="10" d="M239.3,135.9c0,0,4.3,4.3,8.4,0.2
	c4.1-4.1,0.2-3.7,4.6-11.2c4.4-7.5,8.9-10.4,8.9-10.4"/>
<path fill="none" stroke="#E0BB9B" stroke-width="1.2561" stroke-miterlimit="10" d="M428,126.9l-5.6-6l-3,2.5l5.2,6.3l2.5,5.9
	l-4.8,4l4.2,2.6l4.4-3.6c0,0,4.4,1,5.1-5.9C436.6,125.7,428,126.9,428,126.9z"/>
<path fill="none" stroke="#E0BB9B" stroke-width="0.5" stroke-miterlimit="10" d="M407.5,114.6c0,0,4.4,9.5,0,16.9
	c-4.4,7.5-25.5-8.4-21,0s11.1,19.5,16.9,13.7c5.8-5.8,21.6-4.1,21.6-4.1"/>
<g>
	<circle fill="none" stroke="#E0BB9B" stroke-width="1.2561" stroke-miterlimit="10" cx="304.4" cy="132.1" r="0.3"/>
	<path fill="none" stroke="#E0BB9B" stroke-width="1.2561" stroke-miterlimit="10" d="M301.1,140.7c0-1.2,0.8-2.1,1.7-2.1
		c0.9,0,1.6,1,1.6,2.1c0,1.2-0.8,2.1-1.7,2.1c-0.4,0-0.7-0.2-1-0.5C301.3,142,301.1,141.4,301.1,140.7L301.1,140.7z M305.5,131.8
		c0.1-0.9,0.4-5,0.3-7.7c-0.1-3.2-0.4-3.6-0.7-3.5l-1.8,11.9c-0.3,2.6,0.2,2.6-0.7,3.8c-0.5,0.8-1.3,1.6-1.7,2.2
		c-0.5,0.5-0.8,1.3-0.8,2.2c0,0.9,0.3,1.7,0.9,2.3c0.5,0.5,1,0.7,1.6,0.7c1.4,0,2.4-1.3,2.6-3c0.1-1.1-1-3.6-1-4.5
		c0-0.7,0.3-1.6,0.7-2.5C305.2,133.2,305.4,132.7,305.5,131.8z"/>
	<path fill="none" stroke="#E0BB9B" stroke-width="1.2561" stroke-miterlimit="10" d="M312.6,138.9c-0.1,0.4-0.3,0.7-0.6,1
		c-0.7,0.5-1.9,0.2-2.6-0.7c-0.7-0.9-0.6-2.1,0.1-2.7s1.9-0.2,2.6,0.7C312.5,137.7,312.6,138.4,312.6,138.9L312.6,138.9z
		 M304.9,133.8c0.8,0.5,1.6,1.1,2,1.6c0.5,0.8,1.1,3.5,1.8,4.3c1.1,1.3,2.7,1.8,3.8,0.9c0.5-0.4,0.8-0.9,0.9-1.5
		c0.1-0.8-0.1-1.7-0.6-2.4c-0.5-0.7-1.2-1.2-2-1.3c-0.6-0.2-1.8-0.5-2.7-0.8c-1.4-0.5-1-0.8-2.7-2.7l-8.3-8.7
		c-0.2,0.1-0.3,0.6,1.5,3.3c1.5,2.3,4.2,5.5,4.7,6.1S304.4,133.5,304.9,133.8z"/>
</g>
<g>
	<circle fill="none" stroke="#E0BB9B" stroke-miterlimit="10" cx="480.8" cy="135.9" r="0.1"/>
	<path fill="none" stroke="#E0BB9B" stroke-miterlimit="10" d="M476.6,134.9c0.5-0.1,1,0.2,1.1,0.6c0.1,0.4-0.3,0.8-0.8,0.9
		c-0.5,0.1-1-0.2-1.1-0.6c0-0.2,0-0.3,0.1-0.5C476.1,135.1,476.4,135,476.6,134.9L476.6,134.9z M481,136.3c0.4,0,2.3-0.2,3.5-0.4
		c1.4-0.3,1.6-0.4,1.5-0.6l-5.5,0.1c-1.2,0-1.1,0.3-1.8,0c-0.4-0.2-0.8-0.5-1.1-0.6c-0.3-0.2-0.7-0.3-1.1-0.2
		c-0.4,0.1-0.8,0.3-1,0.6c-0.2,0.2-0.3,0.5-0.2,0.8c0.1,0.6,0.8,1,1.5,1c0.5,0,1.5-0.7,2-0.8c0.3-0.1,0.8,0,1.2,0.1
		C480.3,136.3,480.6,136.3,481,136.3z"/>
	<path fill="none" stroke="#E0BB9B" stroke-miterlimit="10" d="M478.3,140c-0.2,0-0.4-0.1-0.5-0.2c-0.3-0.3-0.2-0.8,0.2-1.2
		c0.4-0.4,0.9-0.4,1.2-0.1s0.2,0.8-0.2,1.2C478.8,139.9,478.5,140,478.3,140L478.3,140z M480.1,136.2c-0.2,0.4-0.4,0.8-0.6,1
		c-0.3,0.3-1.5,0.8-1.8,1.1c-0.5,0.6-0.6,1.3-0.2,1.8c0.2,0.2,0.5,0.3,0.8,0.3c0.4,0,0.7-0.2,1-0.4c0.3-0.3,0.4-0.6,0.5-1
		c0.1-0.3,0.1-0.8,0.2-1.3c0.2-0.7,0.3-0.5,1-1.4l3.4-4.4c-0.1-0.1-0.3-0.1-1.4,0.9c-0.9,0.9-2.2,2.3-2.4,2.6
		C480.3,135.7,480.2,135.9,480.1,136.2z"/>
</g>
</svg>
