<?xml version="1.0" encoding="utf-8"?>
<!-- Generator: Adobe Illustrator 18.1.1, SVG Export Plug-In . SVG Version: 6.00 Build 0)  -->
<!DOCTYPE svg PUBLIC "-//W3C//DTD SVG 1.1//EN" "http://www.w3.org/Graphics/SVG/1.1/DTD/svg11.dtd">
<svg version="1.1" id="Layer_1" xmlns="http://www.w3.org/2000/svg" xmlns:xlink="http://www.w3.org/1999/xlink" x="0px" y="0px"
	 viewBox="0 0 874.5 580.5" enable-background="new 0 0 874.5 580.5" xml:space="preserve">
<g>
	<g>
		<g>
			<g>
				<circle fill="none" stroke="#FFFFFF" stroke-miterlimit="10" cx="712.7" cy="424.1" r="6.8"/>
				<circle fill="none" stroke="#FFFFFF" stroke-miterlimit="10" cx="712.7" cy="443.2" r="6.8"/>
				<circle fill="none" stroke="#FFFFFF" stroke-miterlimit="10" cx="695.5" cy="443.2" r="6.8"/>
				<circle fill="none" stroke="#FFFFFF" stroke-miterlimit="10" cx="695.5" cy="424.1" r="6.8"/>
			</g>
			<g>
				<circle fill="none" stroke="#FFFFFF" stroke-miterlimit="10" cx="712.7" cy="372.4" r="6.8"/>
				<circle fill="none" stroke="#FFFFFF" stroke-miterlimit="10" cx="712.7" cy="391.5" r="6.8"/>
				<circle fill="none" stroke="#FFFFFF" stroke-miterlimit="10" cx="695.5" cy="391.5" r="6.8"/>
				<circle fill="none" stroke="#FFFFFF" stroke-miterlimit="10" cx="695.5" cy="372.4" r="6.8"/>
			</g>
			<path fill="#465E61" stroke="#FFFFFF" stroke-miterlimit="10" d="M681.8,361l11.9-16.6c0,0,0,0,0,0c2.2,1.2,4.7,2,7.4,2
				c8.2,0,14.8-6.6,14.8-14.8c0-8.2-6.6-14.8-14.8-14.8s-14.8,6.6-14.8,14.8c0,3.6,1.3,6.9,3.4,9.4c-0.1,0.1-0.2,0.2-0.3,0.3
				l-11.9,16.6c-0.3,0.5-0.5,1-0.5,1.5c0,0.8,0.4,1.6,1.1,2.2C679.3,362.5,681,362.2,681.8,361z"/>
			<path fill="#465E61" stroke="#FFFFFF" stroke-miterlimit="10" d="M671.9,319.9l16.5,5.4c0,0,0,0,0,0c-0.5,2.1-0.4,4.3,0.3,6.5
				c2.1,6.6,9.2,10.3,15.8,8.2c6.6-2.1,10.3-9.2,8.2-15.8c-2.1-6.6-9.2-10.3-15.8-8.2c-2.9,0.9-5.2,2.8-6.8,5.2
				c-0.1-0.1-0.2-0.1-0.3-0.2l-16.5-5.4c-0.5-0.2-0.9-0.1-1.4,0c-0.7,0.2-1.2,0.7-1.5,1.5C670.1,318.3,670.7,319.5,671.9,319.9z"/>
		</g>
	</g>
</g>
<g id="New_Symbol_1">
</g>
</svg>
