<?xml version="1.0" encoding="utf-8"?>
<!-- Generator: Adobe Illustrator 18.1.1, SVG Export Plug-In . SVG Version: 6.00 Build 0)  -->
<!DOCTYPE svg PUBLIC "-//W3C//DTD SVG 1.1//EN" "http://www.w3.org/Graphics/SVG/1.1/DTD/svg11.dtd">
<svg version="1.1" id="Layer_1" xmlns="http://www.w3.org/2000/svg" xmlns:xlink="http://www.w3.org/1999/xlink" x="0px" y="0px"
	 viewBox="0 0 229.9 293.1" enable-background="new 0 0 229.9 293.1" xml:space="preserve">
<g id="New_Symbol_1">
</g>
<g>
	<rect x="15" y="94.9" fill="#354B5E" width="199.9" height="198.3"/>
	<g>
		<g>
			<polygon fill="#FFFFFF" points="93,292.8 93,202.8 136,202.8 136,292.7 			"/>
		</g>
		<circle fill="#485D78" cx="125.7" cy="257.3" r="4"/>
	</g>
	<g>
		<g>
			<path fill="#FFFFFF" d="M72.3,213v41.4H36.7V213H72.3 M80.4,204.9H28.6v57.6h51.8V204.9L80.4,204.9z"/>
		</g>
		
			<rect x="28.6" y="204.9" fill="none" stroke="#485D78" stroke-width="3.6002" stroke-miterlimit="10" width="51.8" height="57.6"/>
		<line fill="none" stroke="#FFFFFF" stroke-width="1.4782" stroke-miterlimit="10" x1="54.5" y1="257.4" x2="54.5" y2="210.1"/>
		<line fill="none" stroke="#FFFFFF" stroke-width="1.4782" stroke-miterlimit="10" x1="33.3" y1="232.8" x2="75.8" y2="232.8"/>
	</g>
	<g>
		<g>
			<path fill="#FFFFFF" d="M193,213v41.4h-35.6V213H193 M201.1,204.9h-51.8v57.6h51.8V204.9L201.1,204.9z"/>
		</g>
		
			<rect x="149.3" y="204.9" fill="none" stroke="#485D78" stroke-width="3.6002" stroke-miterlimit="10" width="51.8" height="57.6"/>
		<line fill="none" stroke="#FFFFFF" stroke-width="1.4782" stroke-miterlimit="10" x1="175.2" y1="257.4" x2="175.2" y2="210.1"/>
		<line fill="none" stroke="#FFFFFF" stroke-width="1.4782" stroke-miterlimit="10" x1="154" y1="232.8" x2="196.5" y2="232.8"/>
	</g>
	<g>
		<linearGradient id="SVGID_1_" gradientUnits="userSpaceOnUse" x1="114.9455" y1="136.1789" x2="114.9455" y2="77.5906">
			<stop  offset="4.454688e-02" style="stop-color:#FFE391"/>
			<stop  offset="4.848437e-02" style="stop-color:#D8B16C"/>
			<stop  offset="1" style="stop-color:#FFD369"/>
		</linearGradient>
		<polygon fill="url(#SVGID_1_)" points="15,136.2 80.5,136.2 80.5,118.3 138.7,118.3 138.7,136.2 214.9,136.2 214.9,77.6 15,77.6 
					"/>
		<g>
			
				<rect x="138.7" y="124.6" opacity="3.000000e-02" fill="none" stroke="#000000" stroke-width="0.803" stroke-miterlimit="10" width="13.5" height="9.4"/>
			
				<rect x="165.6" y="124.6" opacity="3.000000e-02" fill="none" stroke="#000000" stroke-width="0.803" stroke-miterlimit="10" width="13.5" height="9.4"/>
			
				<rect x="192.3" y="124.6" opacity="3.000000e-02" fill="none" stroke="#000000" stroke-width="0.803" stroke-miterlimit="10" width="13.5" height="9.4"/>
			
				<rect x="144" y="115.2" opacity="3.000000e-02" fill="none" stroke="#000000" stroke-width="0.803" stroke-miterlimit="10" width="13.5" height="9.4"/>
			
				<rect x="138.7" y="115.2" opacity="3.000000e-02" fill="none" stroke="#000000" stroke-width="0.531" stroke-miterlimit="10" width="5.9" height="9.4"/>
			
				<rect x="152.2" y="124.6" opacity="3.000000e-02" fill="none" stroke="#000000" stroke-width="0.803" stroke-miterlimit="10" width="13.5" height="9.4"/>
			
				<rect x="178.8" y="124.6" opacity="3.000000e-02" fill="none" stroke="#000000" stroke-width="0.803" stroke-miterlimit="10" width="13.5" height="9.4"/>
			
				<rect x="205.7" y="124.6" opacity="3.000000e-02" fill="none" stroke="#000000" stroke-width="0.803" stroke-miterlimit="10" width="9.2" height="9.4"/>
			
				<rect x="157.4" y="115.2" opacity="3.000000e-02" fill="none" stroke="#000000" stroke-width="0.803" stroke-miterlimit="10" width="13.5" height="9.4"/>
			
				<rect x="184.3" y="115.2" opacity="3.000000e-02" fill="none" stroke="#000000" stroke-width="0.803" stroke-miterlimit="10" width="13.5" height="9.4"/>
			
				<rect x="170.9" y="115.2" opacity="3.000000e-02" fill="none" stroke="#000000" stroke-width="0.803" stroke-miterlimit="10" width="13.5" height="9.4"/>
			
				<rect x="197.8" y="115.2" opacity="3.000000e-02" fill="none" stroke="#000000" stroke-width="0.803" stroke-miterlimit="10" width="13.5" height="9.4"/>
			
				<rect x="211.3" y="115.2" opacity="3.000000e-02" fill="none" stroke="#000000" stroke-width="0.803" stroke-miterlimit="10" width="3.6" height="9.4"/>
			
				<rect x="138.7" y="105.8" opacity="3.000000e-02" fill="none" stroke="#000000" stroke-width="0.803" stroke-miterlimit="10" width="13.5" height="9.4"/>
			
				<rect x="165.6" y="105.8" opacity="3.000000e-02" fill="none" stroke="#000000" stroke-width="0.803" stroke-miterlimit="10" width="13.5" height="9.4"/>
			
				<rect x="192.3" y="105.8" opacity="3.000000e-02" fill="none" stroke="#000000" stroke-width="0.803" stroke-miterlimit="10" width="13.5" height="9.4"/>
			
				<rect x="144" y="96.4" opacity="3.000000e-02" fill="none" stroke="#000000" stroke-width="0.803" stroke-miterlimit="10" width="13.5" height="9.4"/>
			
				<rect x="127.5" y="96.4" opacity="3.000000e-02" fill="none" stroke="#000000" stroke-width="0.9038" stroke-miterlimit="10" width="17" height="9.4"/>
			
				<rect x="152.2" y="105.8" opacity="3.000000e-02" fill="none" stroke="#000000" stroke-width="0.803" stroke-miterlimit="10" width="13.5" height="9.4"/>
			
				<rect x="178.8" y="105.8" opacity="3.000000e-02" fill="none" stroke="#000000" stroke-width="0.803" stroke-miterlimit="10" width="13.5" height="9.4"/>
			
				<rect x="205.7" y="105.8" opacity="3.000000e-02" fill="none" stroke="#000000" stroke-width="0.803" stroke-miterlimit="10" width="9.2" height="9.4"/>
			
				<rect x="157.4" y="96.4" opacity="3.000000e-02" fill="none" stroke="#000000" stroke-width="0.803" stroke-miterlimit="10" width="13.5" height="9.4"/>
			
				<rect x="184.3" y="96.4" opacity="3.000000e-02" fill="none" stroke="#000000" stroke-width="0.803" stroke-miterlimit="10" width="13.5" height="9.4"/>
			
				<rect x="170.9" y="96.4" opacity="3.000000e-02" fill="none" stroke="#000000" stroke-width="0.803" stroke-miterlimit="10" width="13.5" height="9.4"/>
			
				<rect x="197.8" y="96.4" opacity="3.000000e-02" fill="none" stroke="#000000" stroke-width="0.803" stroke-miterlimit="10" width="13.5" height="9.4"/>
			
				<rect x="211.3" y="96.4" opacity="3.000000e-02" fill="none" stroke="#000000" stroke-width="0.803" stroke-miterlimit="10" width="3.6" height="9.4"/>
			
				<rect x="138.7" y="87" opacity="3.000000e-02" fill="none" stroke="#000000" stroke-width="0.803" stroke-miterlimit="10" width="13.5" height="9.4"/>
			
				<rect x="165.6" y="87" opacity="3.000000e-02" fill="none" stroke="#000000" stroke-width="0.803" stroke-miterlimit="10" width="13.5" height="9.4"/>
			
				<rect x="192.3" y="87" opacity="3.000000e-02" fill="none" stroke="#000000" stroke-width="0.803" stroke-miterlimit="10" width="13.5" height="9.4"/>
			
				<rect x="144" y="77.6" opacity="3.000000e-02" fill="none" stroke="#000000" stroke-width="0.803" stroke-miterlimit="10" width="13.5" height="9.4"/>
			
				<rect x="127.5" y="77.6" opacity="3.000000e-02" fill="none" stroke="#000000" stroke-width="0.9038" stroke-miterlimit="10" width="17" height="9.4"/>
			
				<rect x="152.2" y="87" opacity="3.000000e-02" fill="none" stroke="#000000" stroke-width="0.803" stroke-miterlimit="10" width="13.5" height="9.4"/>
			
				<rect x="178.8" y="87" opacity="3.000000e-02" fill="none" stroke="#000000" stroke-width="0.803" stroke-miterlimit="10" width="13.5" height="9.4"/>
			
				<rect x="205.7" y="87" opacity="3.000000e-02" fill="none" stroke="#000000" stroke-width="0.803" stroke-miterlimit="10" width="9.2" height="9.4"/>
			
				<rect x="157.4" y="77.6" opacity="3.000000e-02" fill="none" stroke="#000000" stroke-width="0.803" stroke-miterlimit="10" width="13.5" height="9.4"/>
			
				<rect x="184.3" y="77.6" opacity="3.000000e-02" fill="none" stroke="#000000" stroke-width="0.803" stroke-miterlimit="10" width="13.5" height="9.4"/>
			
				<rect x="170.9" y="77.6" opacity="3.000000e-02" fill="none" stroke="#000000" stroke-width="0.803" stroke-miterlimit="10" width="13.5" height="9.4"/>
			
				<rect x="197.8" y="77.6" opacity="3.000000e-02" fill="none" stroke="#000000" stroke-width="0.803" stroke-miterlimit="10" width="13.5" height="9.4"/>
			
				<rect x="211.3" y="77.6" opacity="3.000000e-02" fill="none" stroke="#000000" stroke-width="0.803" stroke-miterlimit="10" width="3.6" height="9.4"/>
			
				<rect x="55" y="124.6" opacity="3.000000e-02" fill="none" stroke="#000000" stroke-width="0.803" stroke-miterlimit="10" width="13.5" height="9.4"/>
			
				<rect x="60.2" y="115.2" opacity="3.000000e-02" fill="none" stroke="#000000" stroke-width="0.803" stroke-miterlimit="10" width="13.5" height="9.4"/>
			
				<rect x="43.7" y="115.2" opacity="3.000000e-02" fill="none" stroke="#000000" stroke-width="0.9053" stroke-miterlimit="10" width="17.1" height="9.4"/>
			
				<rect x="68.4" y="124.6" opacity="3.000000e-02" fill="none" stroke="#000000" stroke-width="0.7609" stroke-miterlimit="10" width="12.1" height="9.4"/>
			
				<rect x="73.7" y="115.2" opacity="3.000000e-02" fill="none" stroke="#000000" stroke-width="0.5678" stroke-miterlimit="10" width="6.7" height="9.4"/>
			
				<rect x="100.6" y="115.2" opacity="3.000000e-02" fill="none" stroke="#000000" stroke-width="0.4878" stroke-miterlimit="10" width="13.5" height="3.5"/>
			
				<rect x="87.2" y="115.2" opacity="3.000000e-02" fill="none" stroke="#000000" stroke-width="0.4878" stroke-miterlimit="10" width="13.5" height="3.5"/>
			
				<rect x="80.4" y="115.2" opacity="3.000000e-02" fill="none" stroke="#000000" stroke-width="0.3449" stroke-miterlimit="10" width="6.7" height="3.5"/>
			
				<rect x="114.1" y="115.2" opacity="3.000000e-02" fill="none" stroke="#000000" stroke-width="0.4878" stroke-miterlimit="10" width="13.5" height="3.5"/>
			
				<rect x="127.5" y="117.3" opacity="3.000000e-02" fill="none" stroke="#000000" stroke-width="0.306" stroke-miterlimit="10" width="11.2" height="1.6"/>
			
				<rect x="55" y="105.8" opacity="3.000000e-02" fill="none" stroke="#000000" stroke-width="0.803" stroke-miterlimit="10" width="13.5" height="9.4"/>
			
				<rect x="81.9" y="105.8" opacity="3.000000e-02" fill="none" stroke="#000000" stroke-width="0.803" stroke-miterlimit="10" width="13.5" height="9.4"/>
			
				<rect x="108.6" y="105.8" opacity="3.000000e-02" fill="none" stroke="#000000" stroke-width="0.803" stroke-miterlimit="10" width="13.5" height="9.4"/>
			
				<rect x="60.2" y="96.4" opacity="3.000000e-02" fill="none" stroke="#000000" stroke-width="0.803" stroke-miterlimit="10" width="13.5" height="9.4"/>
			
				<rect x="43.7" y="96.4" opacity="3.000000e-02" fill="none" stroke="#000000" stroke-width="0.9053" stroke-miterlimit="10" width="17.1" height="9.4"/>
			
				<rect x="68.4" y="105.8" opacity="3.000000e-02" fill="none" stroke="#000000" stroke-width="0.803" stroke-miterlimit="10" width="13.5" height="9.4"/>
			
				<rect x="95.1" y="105.8" opacity="3.000000e-02" fill="none" stroke="#000000" stroke-width="0.803" stroke-miterlimit="10" width="13.5" height="9.4"/>
			
				<rect x="122" y="105.8" opacity="3.000000e-02" fill="none" stroke="#000000" stroke-width="1.0835" stroke-miterlimit="10" width="16.7" height="9.4"/>
			
				<rect x="73.7" y="96.4" opacity="3.000000e-02" fill="none" stroke="#000000" stroke-width="0.803" stroke-miterlimit="10" width="13.5" height="9.4"/>
			
				<rect x="100.6" y="96.4" opacity="3.000000e-02" fill="none" stroke="#000000" stroke-width="0.803" stroke-miterlimit="10" width="13.5" height="9.4"/>
			
				<rect x="87.2" y="96.4" opacity="3.000000e-02" fill="none" stroke="#000000" stroke-width="0.803" stroke-miterlimit="10" width="13.5" height="9.4"/>
			
				<rect x="114.1" y="96.4" opacity="3.000000e-02" fill="none" stroke="#000000" stroke-width="0.803" stroke-miterlimit="10" width="13.5" height="9.4"/>
			
				<rect x="55" y="87" opacity="3.000000e-02" fill="none" stroke="#000000" stroke-width="0.803" stroke-miterlimit="10" width="13.5" height="9.4"/>
			
				<rect x="81.9" y="87" opacity="3.000000e-02" fill="none" stroke="#000000" stroke-width="0.803" stroke-miterlimit="10" width="13.5" height="9.4"/>
			
				<rect x="108.6" y="87" opacity="3.000000e-02" fill="none" stroke="#000000" stroke-width="0.803" stroke-miterlimit="10" width="13.5" height="9.4"/>
			
				<rect x="60.2" y="77.6" opacity="3.000000e-02" fill="none" stroke="#000000" stroke-width="0.803" stroke-miterlimit="10" width="13.5" height="9.4"/>
			
				<rect x="43.7" y="77.6" opacity="3.000000e-02" fill="none" stroke="#000000" stroke-width="0.9053" stroke-miterlimit="10" width="17.1" height="9.4"/>
			
				<rect x="68.4" y="87" opacity="3.000000e-02" fill="none" stroke="#000000" stroke-width="0.803" stroke-miterlimit="10" width="13.5" height="9.4"/>
			
				<rect x="95.1" y="87" opacity="3.000000e-02" fill="none" stroke="#000000" stroke-width="0.803" stroke-miterlimit="10" width="13.5" height="9.4"/>
			
				<rect x="122" y="87" opacity="3.000000e-02" fill="none" stroke="#000000" stroke-width="1.0835" stroke-miterlimit="10" width="16.7" height="9.4"/>
			
				<rect x="73.7" y="77.6" opacity="3.000000e-02" fill="none" stroke="#000000" stroke-width="0.803" stroke-miterlimit="10" width="13.5" height="9.4"/>
			
				<rect x="100.6" y="77.6" opacity="3.000000e-02" fill="none" stroke="#000000" stroke-width="0.803" stroke-miterlimit="10" width="13.5" height="9.4"/>
			
				<rect x="87.2" y="77.6" opacity="3.000000e-02" fill="none" stroke="#000000" stroke-width="0.803" stroke-miterlimit="10" width="13.5" height="9.4"/>
			
				<rect x="114.1" y="77.6" opacity="3.000000e-02" fill="none" stroke="#000000" stroke-width="0.803" stroke-miterlimit="10" width="13.5" height="9.4"/>
			
				<rect x="24.8" y="124.6" opacity="3.000000e-02" fill="none" stroke="#000000" stroke-width="0.803" stroke-miterlimit="10" width="13.5" height="9.4"/>
			
				<rect x="15" y="124.6" opacity="3.000000e-02" fill="none" stroke="#000000" stroke-width="0.6851" stroke-miterlimit="10" width="9.8" height="9.4"/>
			
				<rect x="38.2" y="124.6" opacity="3.000000e-02" fill="none" stroke="#000000" stroke-width="1.0853" stroke-miterlimit="10" width="16.7" height="9.4"/>
			
				<rect x="15" y="115.2" opacity="3.000000e-02" fill="none" stroke="#000000" stroke-width="0.8564" stroke-miterlimit="10" width="15.3" height="9.4"/>
			
				<rect x="30.3" y="115.2" opacity="3.000000e-02" fill="none" stroke="#000000" stroke-width="0.803" stroke-miterlimit="10" width="13.5" height="9.4"/>
			
				<rect x="24.8" y="105.8" opacity="3.000000e-02" fill="none" stroke="#000000" stroke-width="0.803" stroke-miterlimit="10" width="13.5" height="9.4"/>
			
				<rect x="15" y="105.8" opacity="3.000000e-02" fill="none" stroke="#000000" stroke-width="0.6851" stroke-miterlimit="10" width="9.8" height="9.4"/>
			
				<rect x="38.2" y="105.8" opacity="3.000000e-02" fill="none" stroke="#000000" stroke-width="1.0853" stroke-miterlimit="10" width="16.7" height="9.4"/>
			
				<rect x="15" y="96.4" opacity="3.000000e-02" fill="none" stroke="#000000" stroke-width="0.8564" stroke-miterlimit="10" width="15.3" height="9.4"/>
			
				<rect x="30.3" y="96.4" opacity="3.000000e-02" fill="none" stroke="#000000" stroke-width="0.803" stroke-miterlimit="10" width="13.5" height="9.4"/>
			
				<rect x="24.8" y="87" opacity="3.000000e-02" fill="none" stroke="#000000" stroke-width="0.803" stroke-miterlimit="10" width="13.5" height="9.4"/>
			
				<rect x="15" y="87" opacity="3.000000e-02" fill="none" stroke="#000000" stroke-width="0.6851" stroke-miterlimit="10" width="9.8" height="9.4"/>
			
				<rect x="38.2" y="87" opacity="3.000000e-02" fill="none" stroke="#000000" stroke-width="1.0853" stroke-miterlimit="10" width="16.7" height="9.4"/>
			
				<rect x="15" y="77.6" opacity="3.000000e-02" fill="none" stroke="#000000" stroke-width="0.8564" stroke-miterlimit="10" width="15.3" height="9.4"/>
			
				<rect x="30.3" y="77.6" opacity="3.000000e-02" fill="none" stroke="#000000" stroke-width="0.803" stroke-miterlimit="10" width="13.5" height="9.4"/>
		</g>
	</g>
	<g>
		<g>
			<path fill="#EFC569" d="M58.5,158.5c0,2.2-0.8,3.9-2.4,5.2c-1.6,1.3-3.7,2-6.4,2c-0.7,0-1.6-0.1-2.9-0.3v9.6
				c0,1.4,0.1,2.2,0.3,2.4s0.9,0.4,2.1,0.4c0.7,0,1,0.1,1,0.3c0,0.2-0.2,0.3-0.6,0.3h-0.6c-0.1,0-0.7,0-1.7,0s-2.1,0-3.2,0h-4.4
				c-0.8,0-1.3,0-1.4-0.1c-0.1,0-0.2-0.1-0.2-0.2c0-0.2,0.2-0.3,0.6-0.3c1.2,0,2-0.1,2.2-0.3c0.2-0.2,0.4-0.8,0.4-1.7v-19.3
				c0-1.6-0.1-2.6-0.2-2.9s-0.8-0.5-1.9-0.5c-0.7,0-1-0.1-1-0.3c0-0.2,0.3-0.3,0.9-0.3l10.7,0c2.6,0,4.6,0.4,5.9,1.2
				C57.6,154.9,58.5,156.5,58.5,158.5z M52.5,158.7c0-3.7-1.2-5.6-3.5-5.6c-1.4,0-2.1,0.6-2.1,1.8v9.9c1,0,1.7,0,2.1-0.1
				c0.7-0.1,1.4-0.4,1.9-0.9C52,162.9,52.5,161.2,52.5,158.7z"/>
			<path fill="#EFC569" d="M76.1,160.5c0,0.1-0.3,0.2-0.9,0.2c-0.7,0-1.2,0.1-1.3,0.4c-0.1,0.1-0.1,0.2-0.1,0.4v11.2
				c0,4.2-2,6.2-5.9,6.2c-2,0-3.6-0.6-4.7-1.9c-0.8-0.9-1.3-2.6-1.3-4.9V162c0-0.6-0.1-0.9-0.3-1c-0.2-0.1-0.7-0.2-1.7-0.3
				c-0.2,0-0.3-0.1-0.3-0.2c0-0.2,0.2-0.2,0.5-0.2h0.2c0.2,0,0.3,0,0.4,0h1.6c1.5,0,2.7,0,3.4,0c1,0,1.4,0,1.2,0h0.6
				c0.3,0,0.4,0.1,0.4,0.3c0,0.2-0.3,0.2-0.8,0.2c-0.8,0-1.2,0.1-1.2,0.4c0,0.2-0.1,0.4-0.1,0.6v9.8c0,1.4,0,2.3,0.1,2.7
				c0.1,1.1,0.4,2,1,2.5c0.6,0.6,1.5,0.9,2.5,0.9c1.2,0,2.1-0.4,2.6-1.2c0.7-0.9,1-2.6,1-5v-8.7c0-0.2,0-0.4,0-0.6
				c0-0.2,0-0.4,0-0.4c0-0.5-0.1-0.8-0.4-0.9c-0.2-0.1-0.5-0.2-1-0.2c-0.6,0-0.9-0.1-0.9-0.3c0-0.1,0.1-0.2,0.4-0.2
				c0.3,0,0.6,0,1.2,0c0.5,0,0.9,0,1.2,0c0,0,0.2,0,0.4-0.1c0.3,0,0.6,0,0.8,0h0.6C75.8,160.3,76.1,160.3,76.1,160.5z"/>
			<path fill="#EFC569" d="M91.7,173.7c0,1.1-0.3,2-1,2.8c-0.7,0.8-1.6,1.3-2.8,1.6c-0.9,0.2-1.8,0.3-2.6,0.4
				c-0.8,0-3.2,0.1-7.2,0.1c-0.6,0-0.9,0-1,0c-0.1,0-0.2-0.1-0.2-0.2c0-0.2,0.3-0.2,0.9-0.2s0.9-0.1,1.1-0.2
				c0.1-0.2,0.2-0.6,0.2-1.2v-15c0-0.5-0.4-0.8-1.2-0.8c-0.6,0-0.9-0.1-0.9-0.2c0-0.1,0.2-0.2,0.6-0.2c0.4,0,0.7,0,1.1,0h6.3
				c4,0,6.1,1.4,6.1,4.2c0,2.3-1.5,3.7-4.5,4.3l-0.1,0.1c1.8,0.4,3,0.8,3.7,1.4C91.2,171.2,91.7,172.3,91.7,173.7z M87.5,173.6
				c0-2.5-0.7-3.9-2.1-4.3c-0.6-0.2-1.4-0.2-2.4-0.2v1.5c0,0.4,0,1.1-0.1,1.9c0,0.4,0,1.2,0,2.3c0,1.9,0.1,2.9,0.2,3
				c0.1,0.2,0.5,0.3,1.2,0.3C86.5,178,87.5,176.6,87.5,173.6z M87,164.6c0-2.5-0.8-3.8-2.3-3.8c-0.5,0-0.9,0-1.1,0.1
				c-0.4,0.1-0.6,0.4-0.6,0.8v6.9c1.5,0,2.6-0.3,3.1-0.8C86.8,167.3,87,166.2,87,164.6z"/>
			<path fill="#EFC569" d="M128.8,163c0,0.1-0.8,0.2-2.4,0.3c-0.9,0-1.4,0.2-1.6,0.3c-0.2,0.2-0.4,0.6-0.5,1.2
				c-0.7,3.4-1.8,6.1-3.5,8l0.3,0.4l0.8,1.3l0.8,1.2c0.6,0.8,1.1,1.4,1.7,1.6c0.6,0.3,1.6,0.4,3.1,0.5c0.6,0,0.9,0.2,0.9,0.4
				c0,0.2-0.2,0.2-0.8,0.2h-2.3c-1.5,0-2.1,0-1.8,0c-0.7,0-2.4,0-5.1,0c-0.4-0.7-0.7-1.4-1.1-2c-2,1.7-4.5,2.5-7.6,2.5
				c-2.8,0-5-0.7-6.7-2c-1.7-1.4-2.6-3.1-2.6-5.3c0-1.8,0.5-3.4,1.6-4.6c1.1-1.2,2.8-2.3,5.3-3.3c-0.9-0.9-1.6-1.6-2-2.1
				c-0.9-1.1-1.3-2.4-1.3-3.9c0-1.7,0.6-3,1.9-4.1c1.3-1.1,2.9-1.6,4.9-1.6c2,0,3.5,0.5,4.7,1.4c1.2,0.9,1.8,2.1,1.8,3.6
				c0,2.5-1.7,4.2-5.1,5.2c1.1,1.1,2.5,2.8,4.2,4.9c1.7,2.1,2.9,3.8,3.6,5c1.8-2.1,2.7-4.7,2.7-7.9c0-0.6-0.3-0.9-1-0.9
				c-2,0-3-0.1-3-0.4c0-0.2,0.4-0.3,1.2-0.3h3.3h3.2C128.2,162.6,128.8,162.7,128.8,163z M116.9,175.9c-3.9-5.3-6.9-9.1-9-11.5
				c-1.2,0.9-1.9,2.7-1.9,5.4c0,2.2,0.6,4,2,5.5c1.3,1.5,2.9,2.2,4.8,2.2C114.4,177.4,115.8,176.9,116.9,175.9z M113.5,157.4
				c0-3.1-0.8-4.7-2.3-4.7c-1.5,0-2.2,1-2.2,3.2c0,1,0.3,2,0.8,3.1c0.5,1.1,1.2,2,2.1,2.7C112.9,160.9,113.5,159.5,113.5,157.4z"/>
			<path fill="#EFC569" d="M155.6,171.7c0,1.6-0.5,2.9-1.4,4c-1,1.1-2.3,1.9-3.9,2.2c-1.3,0.3-2.6,0.5-3.8,0.5
				c-1.2,0-4.6,0.1-10.4,0.1c-0.8,0-1.3,0-1.4,0c-0.1,0-0.2-0.1-0.2-0.3c0-0.2,0.4-0.3,1.2-0.3s1.3-0.1,1.5-0.4
				c0.2-0.2,0.3-0.8,0.3-1.7v-21.5c0-0.7-0.6-1.1-1.7-1.1c-0.9,0-1.3-0.1-1.3-0.3c0-0.2,0.3-0.3,0.8-0.3c0.5,0,1,0,1.5,0h9
				c5.8,0,8.7,2,8.7,5.9c0,3.3-2.2,5.3-6.5,6.1l-0.1,0.2c2.5,0.5,4.3,1.2,5.3,2C154.8,168.1,155.6,169.7,155.6,171.7z M149.6,171.5
				c0-3.5-1-5.6-3-6.2c-0.8-0.2-1.9-0.3-3.4-0.3v2.2c0,0.6,0,1.5-0.1,2.7c0,0.6,0,1.7,0,3.2c0,2.7,0.1,4.1,0.2,4.3
				c0.2,0.3,0.8,0.4,1.7,0.4C148.1,177.8,149.6,175.7,149.6,171.5z M148.9,158.7c0-3.6-1.1-5.4-3.3-5.4c-0.8,0-1.3,0-1.6,0.1
				c-0.5,0.2-0.8,0.6-0.8,1.2v9.9c2.2,0,3.7-0.4,4.5-1.2C148.5,162.5,148.9,161,148.9,158.7z"/>
			<path fill="#EFC569" d="M173.8,178.2c0,0.1-0.1,0.2-0.2,0.2c-0.1,0-0.5,0-1,0c-0.1,0-0.5,0-1.2,0c-1.3,0-2.2-0.1-2.7-0.1
				c-0.6,0-1.1,0-1.5,0c-0.9,0-1.5,0.1-1.8,0.1c-0.5,0-0.7-0.1-0.7-0.3c0-0.2,0.5-0.3,1.5-0.3c0.2,0,0.4,0,0.6-0.1
				c0.3,0,0.4-0.1,0.4-0.3c0-0.1-0.1-0.5-0.3-1.1l-0.6-1.7c-0.1-0.4-0.3-1.1-0.7-2.1h-0.5h-2c-0.7,0-1.5,0-2.3,0
				c-0.2,0.3-0.5,1.1-0.9,2.4l-0.6,1.7c-0.1,0.3-0.1,0.5-0.1,0.6c0,0.3,0.2,0.5,0.6,0.6c0.1,0,0.5,0.1,1.3,0.1
				c0.2,0,0.4,0.1,0.4,0.2c0,0.1-0.2,0.2-0.5,0.2h-4.3c-0.1,0-0.2,0-0.3,0c-0.2,0-0.4-0.1-0.4-0.3c0-0.1,0.3-0.2,0.8-0.2
				c0.7,0,1.1-0.2,1.3-0.4c0.2-0.2,0.5-1,0.9-2.2c0.3-0.9,0.8-2.2,1.4-3.9l3.2-8.7c0.2-0.4,0.4-1,0.7-1.8c0.2-0.6,0.3-0.9,0.4-0.9
				c0.1,0,0.3,0.4,0.6,1.2c0.4,1,1.9,5.1,4.6,12.2c0.4,0.9,0.7,1.8,1.1,2.8c0.3,0.8,0.6,1.3,0.9,1.5c0.2,0.1,0.8,0.2,1.6,0.2
				C173.7,178,173.8,178.1,173.8,178.2z M165.4,172.1c0-0.1-0.1-0.2-0.2-0.5c-0.7-2-1.2-3.5-1.5-4.3c-0.1-0.2-0.2-0.6-0.4-1
				l-0.2-0.5c-0.3,0.8-0.7,1.8-1.2,3.1c-0.5,1.5-0.9,2.5-1.1,3.1c0.2,0,0.3,0,0.6,0c0.2,0,0.4,0,0.6,0h1.5
				C164,172.1,164.6,172.1,165.4,172.1z"/>
			<path fill="#EFC569" d="M191.3,177.4c0,1-0.6,1.5-1.9,1.5c-1.6,0-2.9-0.5-3.9-1.5c-0.8-0.8-1.2-1.6-1.3-2.5l-0.3-2.2
				c-0.2-1.4-0.5-2.3-1-2.9c-0.5-0.5-1.2-0.8-2.2-0.8v6c0,1.4,0,2.1,0,2.2c0,0.3,0.1,0.5,0.4,0.6s0.7,0.2,1.4,0.2
				c0.4,0,0.6,0.1,0.6,0.2c0,0.1-0.1,0.2-0.3,0.2h-2.5h-0.4c-0.3,0-0.6,0-0.9,0h-1.9c-0.2,0-0.4,0-0.6,0c-0.2,0-0.3,0-0.4,0h-1.2
				c-0.2,0-0.4-0.1-0.4-0.2c0-0.1,0.4-0.2,1.1-0.3c0.6,0,0.9-0.2,1.1-0.4c0.1-0.1,0.1-0.5,0.1-1.1V163c0-0.9,0-1.5-0.1-1.6
				s-0.1-0.3-0.3-0.4c-0.2-0.1-0.6-0.2-1.2-0.2c-0.4,0-0.6-0.1-0.6-0.2c0-0.1,0.1-0.2,0.2-0.2c0.2,0,0.6,0,1.3,0h0.5
				c0.3,0,0.6,0,0.9,0h0.9c0,0,0.2,0,0.6,0c0.3,0,0.6,0,0.9,0h1.5c2.5,0,4.1,0.2,5,0.6c0.7,0.3,1.3,0.8,1.7,1.4
				c0.4,0.6,0.6,1.3,0.6,2c0,1.7-0.9,2.9-2.6,3.7c-0.8,0.4-1.9,0.6-3.4,0.8l0,0.2c1.9,0.1,3.3,0.6,4.2,1.5c0.9,0.9,1.4,2.3,1.5,4.3
				c0.1,1.6,0.4,2.6,0.7,3c0.3,0.4,0.6,0.6,0.9,0.6c0.3,0,0.4-0.1,0.4-0.2c0-0.1-0.1-0.2-0.3-0.3c-0.2-0.1-0.3-0.3-0.3-0.5
				c0-0.5,0.3-0.7,0.8-0.7C191,176.6,191.3,176.9,191.3,177.4z M184.6,164.2c0-2.3-0.9-3.4-2.7-3.4c-0.6,0-0.9,0.2-1.1,0.6
				c-0.1,0.2-0.1,1.2-0.1,2.9v4.4c1.4,0,2.4-0.3,3-1C184.3,166.9,184.6,165.7,184.6,164.2z"/>
		</g>
		<g>
			<path fill="#EFC569" d="M101,134c0,0.2-0.1,0.3-0.3,0.3s-0.3-0.2-0.4-0.6c0-0.3-0.1-0.5-0.1-0.8c-0.1-0.5-0.3-1-0.5-1.3
				c-0.3-0.5-0.8-0.8-1.5-0.9c-0.4-0.1-0.8-0.1-1.1-0.1c-0.7,0-1.1,0-1.2,0v13c0,0.5,0.1,0.8,0.4,1c0.1,0.1,0.5,0.1,1.2,0.1
				c0.2,0,0.3,0.1,0.3,0.2c0,0.1-0.1,0.2-0.3,0.2c-0.1,0-0.2,0-0.3,0c-0.9,0-1.5,0-1.8,0c-0.5,0-0.9,0-1.3,0c-0.4,0-0.9,0-1.6,0
				c-0.3,0-0.5-0.1-0.5-0.2c0-0.1,0.3-0.2,0.9-0.2c0.4,0,0.7-0.1,0.9-0.3c0.1-0.1,0.1-0.4,0.1-0.9v-12.9c-1.4,0-2.3,0.1-2.6,0.2
				c-0.9,0.3-1.4,1.2-1.6,2.6c0,0.4-0.1,0.6-0.3,0.6c-0.2,0-0.3-0.2-0.3-0.5c0-0.2,0-0.3,0-0.5l0-0.5c0-0.7,0.1-1.5,0.2-2.6h1
				l4.4,0.1c0.5,0,1.3,0,2.4,0l3.6-0.1c0,0.8,0.1,2,0.3,3.6c0,0,0,0.1,0,0.2S101,134,101,134z"/>
			<path fill="#EFC569" d="M116.2,144.9c0,0.1-0.1,0.2-0.4,0.2h-2.9c-0.2,0-0.5,0-0.9,0c-0.4,0-0.7,0-0.9,0c-0.3,0-0.4-0.1-0.4-0.2
				s0.3-0.2,1-0.2c0.4,0,0.6-0.1,0.6-0.2c0.1-0.1,0.1-0.4,0.1-1v-6.3h-6.5v6.1c0,0.6,0.1,1,0.2,1.1c0.1,0.1,0.4,0.2,1,0.2
				c0.4,0,0.6,0.1,0.6,0.2c0,0.1-0.1,0.2-0.4,0.2H107c-0.3,0-0.7,0-1.1,0c-0.4,0-0.6,0-0.7,0c-0.2,0-0.5,0-0.9,0c-0.4,0-1,0-1.8,0
				c-0.3,0-0.4-0.1-0.4-0.2s0.1-0.2,0.4-0.2c0.2,0,0.4,0,0.6,0c0.3,0,0.5-0.1,0.6-0.2c0-0.1,0.1-0.5,0.1-1.2v-11.3
				c0-0.6,0-1-0.1-1.1c-0.1-0.1-0.3-0.2-0.7-0.2c-0.4,0-0.7-0.1-0.8-0.1c-0.1,0-0.1-0.1-0.1-0.2c0-0.1,0.1-0.2,0.3-0.2
				c0.1,0,0.2,0,0.4,0c0.4,0,1.2,0,2.5,0c0.7,0,1.2,0,1.5,0c0.1,0,0.2,0,0.4,0c0.3,0,0.4,0.1,0.4,0.2c0,0.1-0.2,0.2-0.7,0.2
				c-0.5,0-0.7,0.1-0.8,0.2c-0.1,0.1-0.1,0.4-0.1,1v5h6.5v-4.6c0-0.8-0.1-1.2-0.2-1.3s-0.5-0.2-1.2-0.2c-0.2,0-0.3-0.1-0.3-0.2
				s0.1-0.2,0.4-0.2h0.1c0.2,0,0.6,0,1.1,0c0.5,0,0.9,0,1.2,0c0.9,0,1.5,0,1.8,0c0.3,0,0.5,0,0.6,0c0.3,0,0.5,0.1,0.5,0.2
				s-0.3,0.2-0.9,0.2c-0.2,0-0.3,0-0.4,0c-0.1,0-0.2,0.1-0.3,0.2s-0.1,0.5-0.1,1v11.4c0,0.7,0,1.1,0.1,1.2c0.1,0.2,0.6,0.2,1.2,0.2
				C116.1,144.7,116.2,144.8,116.2,144.9z"/>
			<path fill="#EFC569" d="M129.1,141.6c0,0.1,0,0.4,0,1.1s0,1.3,0,1.8v0.7c-1.4-0.1-4.2-0.1-8.3-0.1c-0.5,0-1,0-1.5,0s-0.8,0-1,0
				H118c-0.3,0-0.4-0.1-0.4-0.2c0-0.1,0-0.1,0.1-0.1c0,0,0.3,0,0.8-0.1c0.4,0,0.6-0.1,0.7-0.2c0.1-0.1,0.1-0.5,0.1-1v-12.1
				c0-0.4-0.1-0.7-0.2-0.7c-0.1-0.1-0.5-0.1-1.2-0.1c-0.2,0-0.3-0.1-0.3-0.2c0-0.1,0.2-0.2,0.5-0.2h3.7c0.1,0,0.9,0,2.4,0s2.5,0,3,0
				c0.4,0,0.8,0,1.2-0.1c0,0.6,0.1,1.5,0.2,2.6l0.1,0.9c0,0.1,0,0.2,0,0.3c0,0.1-0.1,0.2-0.2,0.2c-0.2,0-0.3-0.2-0.3-0.5
				c-0.3-1.3-0.7-2.1-1.3-2.5c-0.5-0.3-1.7-0.4-3.6-0.4h-1.8v6.3h0.5c1.6,0,2.6-0.1,2.9-0.4s0.6-1,0.7-2.1c0-0.3,0.1-0.5,0.2-0.5
				c0.2,0,0.2,0.1,0.2,0.4c0,0.3,0,0.6,0,1.1c0,0.5,0,0.9,0,1.1c0,1.5,0,2.6,0.1,3.2c0,0.1,0,0.3,0,0.4c0,0.2-0.1,0.3-0.2,0.3
				c-0.1,0-0.2-0.1-0.2-0.2c0-0.1-0.1-0.5-0.2-1.2c-0.1-0.8-0.5-1.4-1-1.6c-0.3-0.1-0.9-0.1-2-0.1h-1v7.2c3.2,0,5-0.1,5.5-0.2
				c0.9-0.2,1.5-1.1,1.6-2.7c0-0.4,0.1-0.5,0.3-0.5C129.1,141.2,129.1,141.3,129.1,141.6z"/>
		</g>
	</g>
	<line fill="none" stroke="#FFFFFF" stroke-width="1.4782" stroke-miterlimit="10" x1="90.8" y1="292.4" x2="137.6" y2="292.4"/>
</g>
</svg>
