<?xml version="1.0" encoding="utf-8"?>
<!-- Generator: Adobe Illustrator 18.1.0, SVG Export Plug-In . SVG Version: 6.00 Build 0)  -->
<!DOCTYPE svg PUBLIC "-//W3C//DTD SVG 1.1//EN" "http://www.w3.org/Graphics/SVG/1.1/DTD/svg11.dtd">
<svg version="1.1" id="Layer_1" xmlns="http://www.w3.org/2000/svg" xmlns:xlink="http://www.w3.org/1999/xlink" x="0px" y="0px"
	 viewBox="0 0 874.5 580.5" enable-background="new 0 0 874.5 580.5" xml:space="preserve">
<g>
	<g>
		<g>
			<g>
				<polyline fill="none" stroke="#5BCFBA" stroke-width="1.0002" stroke-miterlimit="10" points="435.4,516 435.4,531.5 
					458.4,554.5 824.3,554.5 846.8,532.1 846.8,207.8 868.7,185.8 				"/>
				<g>
					<circle fill="#5BCFBA" cx="435.4" cy="516.2" r="3.8"/>
				</g>
				<g>
					
						<rect x="865.3" y="182.6" transform="matrix(0.7071 0.7071 -0.7071 0.7071 385.8854 -559.771)" fill="#5BCFBA" width="6.6" height="6.6"/>
				</g>
			</g>
		</g>
		<g>
			<g>
				<polyline fill="none" stroke="#5BCFBA" stroke-width="1.0002" stroke-miterlimit="10" points="559.9,516 559.9,533.5 
					581.2,554.8 				"/>
				<g>
					<circle fill="#5BCFBA" cx="559.9" cy="516.2" r="3.8"/>
				</g>
			</g>
		</g>
		<g>
			<g>
				<polyline fill="none" stroke="#5BCFBA" stroke-width="1.0002" stroke-miterlimit="10" points="769.9,364.7 785.9,380.8 
					785.9,554.5 				"/>
				<g>
					<circle fill="#5BCFBA" cx="770" cy="364.8" r="3.8"/>
				</g>
			</g>
		</g>
	</g>
	<g>
		<g>
			<polyline fill="none" stroke="#5BCFBA" stroke-width="1.0002" stroke-miterlimit="10" points="461.8,56 479.3,38.5 767.3,38.5 
				790.3,61.5 790.3,230.6 808.3,248.6 846.8,248.6 			"/>
			<g>
				<circle fill="#5BCFBA" cx="461.9" cy="55.9" r="3.8"/>
			</g>
		</g>
	</g>
</g>
</svg>
