<?xml version="1.0" encoding="utf-8"?>
<!-- Generator: Adobe Illustrator 18.1.1, SVG Export Plug-In . SVG Version: 6.00 Build 0)  -->
<!DOCTYPE svg PUBLIC "-//W3C//DTD SVG 1.1//EN" "http://www.w3.org/Graphics/SVG/1.1/DTD/svg11.dtd">
<svg version="1.1" id="Layer_1" xmlns="http://www.w3.org/2000/svg" xmlns:xlink="http://www.w3.org/1999/xlink" x="0px" y="0px"
	 viewBox="0 0 229.9 293.1" enable-background="new 0 0 229.9 293.1" xml:space="preserve">
<g id="New_Symbol_1">
</g>
<g>
	<rect x="15.7" y="98.9" fill="#FFFFFF" width="200.3" height="194.2"/>
	<rect x="9" y="96.9" fill="#F0F0F0" width="211.8" height="21.2"/>
	<g>
		<g>
			<g>
				<linearGradient id="SVGID_1_" gradientUnits="userSpaceOnUse" x1="58.4686" y1="275.3614" x2="128.7931" y2="216.3521">
					<stop  offset="0" style="stop-color:#C5EDE8"/>
					<stop  offset="0.1638" style="stop-color:#FBFEFD"/>
					<stop  offset="0.341" style="stop-color:#DEF5F2"/>
					<stop  offset="0.5418" style="stop-color:#FFFFFF"/>
					<stop  offset="0.8907" style="stop-color:#D8F3EF"/>
					<stop  offset="0.8968" style="stop-color:#C9EEE9"/>
					<stop  offset="1" style="stop-color:#C5EDE8"/>
				</linearGradient>
				
					<rect x="71.2" y="201.1" fill="url(#SVGID_1_)" stroke="#E8E8E8" stroke-width="4.0039" stroke-miterlimit="10" width="44.8" height="89.5"/>
				<linearGradient id="SVGID_2_" gradientUnits="userSpaceOnUse" x1="174.5604" y1="224.9807" x2="102.2436" y2="266.7328">
					<stop  offset="0" style="stop-color:#C5EDE8"/>
					<stop  offset="0.1638" style="stop-color:#FBFEFD"/>
					<stop  offset="0.341" style="stop-color:#DEF5F2"/>
					<stop  offset="0.5418" style="stop-color:#FFFFFF"/>
					<stop  offset="0.8907" style="stop-color:#D8F3EF"/>
					<stop  offset="0.8968" style="stop-color:#C9EEE9"/>
					<stop  offset="1" style="stop-color:#C5EDE8"/>
				</linearGradient>
				
					<rect x="116" y="201.1" fill="url(#SVGID_2_)" stroke="#E8E8E8" stroke-width="4.0039" stroke-miterlimit="10" width="44.8" height="89.5"/>
				
					<rect x="160.8" y="201.1" fill="#68BCC2" stroke="#E8E8E8" stroke-width="4.0039" stroke-miterlimit="10" width="44.8" height="89.5"/>
				
					<rect x="26.5" y="201.1" fill="#68BCC2" stroke="#E8E8E8" stroke-width="4.0039" stroke-miterlimit="10" width="44.8" height="89.5"/>
			</g>
			<g>
				<rect x="73.2" y="202.9" fill="#FFFFFF" width="40.5" height="40.5"/>
				<g>
					
						<rect x="90.5" y="212.3" transform="matrix(1 -4.514792e-03 4.514792e-03 1 -1.0033 0.425)" opacity="0.6" fill="#07C999" width="6.3" height="20.2"/>
					
						<rect x="90.6" y="212.3" transform="matrix(4.514754e-03 1 -1 4.514754e-03 315.6387 127.7986)" opacity="0.6" fill="#07C999" width="6.1" height="20.2"/>
				</g>
				<rect x="118.1" y="202.9" fill="#FFFFFF" width="40.5" height="40.5"/>
				<g>
					
						<rect x="135.4" y="212.3" transform="matrix(1 -4.514792e-03 4.514792e-03 1 -1.0028 0.6278)" opacity="0.6" fill="#07C999" width="6.3" height="20.2"/>
					
						<rect x="135.5" y="212.3" transform="matrix(4.514754e-03 1 -1 4.514754e-03 360.3663 82.8686)" opacity="0.6" fill="#07C999" width="6.1" height="20.2"/>
				</g>
				<rect x="71.2" y="243.4" fill="#E8E8E8" width="44.8" height="8.7"/>
				<rect x="115.2" y="243.4" fill="#E8E8E8" width="44.8" height="8.7"/>
			</g>
		</g>
		<g>
			<g>
				<g>
					
						<path fill="#FF0010" stroke="#FF0000" stroke-width="0.88" stroke-linecap="round" stroke-linejoin="round" stroke-miterlimit="10" d="
						M101.5,170.7c0.4,0,0.9,0,1.3,0.1s0.9,0.3,1.4,0.5v1.4c-0.5-0.3-0.9-0.5-1.3-0.6c-0.4-0.1-0.8-0.2-1.3-0.2
						c-0.5,0-1,0.1-1.5,0.3c-0.4,0.2-0.8,0.5-1,1c-0.2,0.4-0.4,0.9-0.4,1.4c0,0.5,0.1,1,0.4,1.4c0.2,0.4,0.6,0.7,1,0.9
						s0.9,0.3,1.5,0.3c0.4,0,0.8-0.1,1.2-0.2c0.4-0.1,0.9-0.3,1.5-0.7v1.4c-0.5,0.3-1,0.4-1.4,0.6c-0.4,0.1-0.9,0.2-1.5,0.2
						c-0.8,0-1.5-0.2-2.2-0.5s-1.1-0.8-1.5-1.4c-0.4-0.6-0.5-1.3-0.5-2c0-0.8,0.2-1.5,0.6-2.1c0.4-0.6,0.9-1.1,1.6-1.4
						C99.9,170.8,100.6,170.7,101.5,170.7z"/>
					
						<path fill="#FF0010" stroke="#FF0000" stroke-width="0.88" stroke-linecap="round" stroke-linejoin="round" stroke-miterlimit="10" d="
						M107.3,170.8v6.5h3.7v1.2h-5.2v-7.7H107.3z"/>
					
						<path fill="#FF0010" stroke="#FF0000" stroke-width="0.88" stroke-linecap="round" stroke-linejoin="round" stroke-miterlimit="10" d="
						M113.6,170.8v7.7h-1.5v-7.7H113.6z"/>
					
						<path fill="#FF0010" stroke="#FF0000" stroke-width="0.88" stroke-linecap="round" stroke-linejoin="round" stroke-miterlimit="10" d="
						M116.8,170.8l4.6,5.4v-5.4h1.5v7.7h-1.3L117,173v5.5h-1.5v-7.7H116.8z"/>
					
						<path fill="#FF0010" stroke="#FF0000" stroke-width="0.88" stroke-linecap="round" stroke-linejoin="round" stroke-miterlimit="10" d="
						M126.3,170.8v7.7h-1.5v-7.7H126.3z"/>
					
						<path fill="#FF0010" stroke="#FF0000" stroke-width="0.88" stroke-linecap="round" stroke-linejoin="round" stroke-miterlimit="10" d="
						M132.2,170.7c0.4,0,0.9,0,1.3,0.1c0.4,0.1,0.9,0.3,1.4,0.5v1.4c-0.5-0.3-0.9-0.5-1.3-0.6c-0.4-0.1-0.8-0.2-1.3-0.2
						c-0.5,0-1,0.1-1.5,0.3c-0.4,0.2-0.8,0.5-1,1c-0.2,0.4-0.4,0.9-0.4,1.4c0,0.5,0.1,1,0.4,1.4c0.2,0.4,0.6,0.7,1,0.9
						s0.9,0.3,1.5,0.3c0.4,0,0.8-0.1,1.2-0.2s0.9-0.3,1.5-0.7v1.4c-0.5,0.3-1,0.4-1.4,0.6c-0.4,0.1-0.9,0.2-1.5,0.2
						c-0.8,0-1.5-0.2-2.2-0.5s-1.1-0.8-1.5-1.4c-0.4-0.6-0.5-1.3-0.5-2c0-0.8,0.2-1.5,0.6-2.1c0.4-0.6,0.9-1.1,1.6-1.4
						C130.6,170.8,131.3,170.7,132.2,170.7z"/>
				</g>
			</g>
			<g>
				
					<path fill="#FF0010" stroke="#FF0000" stroke-width="0.88" stroke-linecap="round" stroke-linejoin="round" stroke-miterlimit="10" d="
					M119.1,138.8v10.7h10.7v6.1h-10.7v10.7H113v-10.7h-10.7v-6.1H113v-10.7H119.1z"/>
			</g>
			
				<rect x="26.5" y="127.2" fill="none" stroke="#E8E8E8" stroke-width="4.0039" stroke-miterlimit="10" width="179.1" height="63.6"/>
		</g>
	</g>
</g>
</svg>
