<?xml version="1.0" encoding="utf-8"?>
<!-- Generator: Adobe Illustrator 18.1.1, SVG Export Plug-In . SVG Version: 6.00 Build 0)  -->
<!DOCTYPE svg PUBLIC "-//W3C//DTD SVG 1.1//EN" "http://www.w3.org/Graphics/SVG/1.1/DTD/svg11.dtd">
<svg version="1.1" id="Layer_1" xmlns="http://www.w3.org/2000/svg" xmlns:xlink="http://www.w3.org/1999/xlink" x="0px" y="0px"
	 viewBox="0 0 874.5 580.5" enable-background="new 0 0 874.5 580.5" xml:space="preserve">
<g>
	<g>
		<g>
			<g>
				<g>
					<circle fill="none" stroke="#FFFFFF" stroke-miterlimit="10" cx="568.7" cy="170.7" r="3.2"/>
					<path fill="none" stroke="#FFFFFF" stroke-miterlimit="10" d="M552.5,168v-5.7c0-5.6,4.6-10.2,10.2-10.2h6.5
						c5.6,0,10.2,4.6,10.2,10.2v16.9c0,5.6-4.6,10.2-10.2,10.2h-6.5c-5.6,0-10.2-4.6-10.2-10.2v-6.1"/>
					<path fill="none" stroke="#FFFFFF" stroke-miterlimit="10" d="M561.2,170.7c0,1.5-6.8,2.8-10.8,2.8c-4,0-3.6-1.2-3.6-2.8
						c0-1.5-0.4-2.8,3.6-2.8C554.3,168,561.2,169.2,561.2,170.7z"/>
					<polygon fill="none" stroke="#FFFFFF" stroke-miterlimit="10" points="547.7,166.3 546.8,164.6 547.7,162.9 549.7,162.9 
						550.6,164.6 549.7,166.3 					"/>
					<polygon fill="none" stroke="#FFFFFF" stroke-miterlimit="10" points="547.7,179 546.8,177.3 547.7,175.7 549.7,175.7 
						550.6,177.3 549.7,179 					"/>
				</g>
				<g>
					<circle fill="none" stroke="#FFFFFF" stroke-miterlimit="10" cx="568.7" cy="124.4" r="3.2"/>
					<path fill="none" stroke="#FFFFFF" stroke-miterlimit="10" d="M552.5,121.6V116c0-5.6,4.6-10.2,10.2-10.2h6.5
						c5.6,0,10.2,4.6,10.2,10.2v16.9c0,5.6-4.6,10.2-10.2,10.2h-6.5c-5.6,0-10.2-4.6-10.2-10.2v-6.1"/>
					<path fill="none" stroke="#FFFFFF" stroke-miterlimit="10" d="M561.2,124.4c0,1.5-6.8,2.8-10.8,2.8c-4,0-3.6-1.2-3.6-2.8
						s-0.4-2.8,3.6-2.8C554.3,121.6,561.2,122.9,561.2,124.4z"/>
					<polygon fill="none" stroke="#FFFFFF" stroke-miterlimit="10" points="547.7,119.9 546.8,118.3 547.7,116.6 549.7,116.6 
						550.6,118.3 549.7,119.9 					"/>
					<polygon fill="none" stroke="#FFFFFF" stroke-miterlimit="10" points="547.7,132.7 546.8,131 547.7,129.3 549.7,129.3 
						550.6,131 549.7,132.7 					"/>
				</g>
			</g>
			<g>
				<g>
					<ellipse fill="none" stroke="#FFFFFF" stroke-miterlimit="10" cx="693.1" cy="135.1" rx="20.5" ry="15"/>
					<ellipse fill="none" stroke="#FFFFFF" stroke-miterlimit="10" cx="699.3" cy="135.1" rx="8.7" ry="7.4"/>
					<ellipse fill="none" stroke="#FFFFFF" stroke-miterlimit="10" cx="693.8" cy="135.1" rx="14.6" ry="10"/>
					<path fill="#465E61" stroke="#FFFFFF" stroke-miterlimit="10" d="M712.5,119.2h3.1c1.9,0,3.5,1.6,3.5,3.5v24.8
						c0,1.9-1.6,3.5-3.5,3.5h-3.1c-1.9,0-3.5-1.6-3.5-3.5v-24.8C709,120.8,710.6,119.2,712.5,119.2z"/>
				</g>
				<g>
					<ellipse fill="none" stroke="#FFFFFF" stroke-miterlimit="10" cx="693.1" cy="198.5" rx="20.5" ry="15"/>
					<ellipse fill="none" stroke="#FFFFFF" stroke-miterlimit="10" cx="699.3" cy="198.5" rx="8.7" ry="7.4"/>
					<ellipse fill="none" stroke="#FFFFFF" stroke-miterlimit="10" cx="693.8" cy="198.5" rx="14.6" ry="10"/>
					<path fill="#465E61" stroke="#FFFFFF" stroke-miterlimit="10" d="M712.5,182.5h3.1c1.9,0,3.5,1.6,3.5,3.5v24.8
						c0,1.9-1.6,3.5-3.5,3.5h-3.1c-1.9,0-3.5-1.6-3.5-3.5V186C709,184.1,710.6,182.5,712.5,182.5z"/>
				</g>
				<g>
					<ellipse fill="none" stroke="#FFFFFF" stroke-miterlimit="10" cx="693.1" cy="260.9" rx="20.5" ry="15"/>
					<ellipse fill="none" stroke="#FFFFFF" stroke-miterlimit="10" cx="699.3" cy="260.9" rx="8.7" ry="7.4"/>
					<ellipse fill="none" stroke="#FFFFFF" stroke-miterlimit="10" cx="693.8" cy="260.9" rx="14.6" ry="10"/>
					<path fill="#465E61" stroke="#FFFFFF" stroke-miterlimit="10" d="M712.5,244.9h3.1c1.9,0,3.5,1.6,3.5,3.5v24.8
						c0,1.9-1.6,3.5-3.5,3.5h-3.1c-1.9,0-3.5-1.6-3.5-3.5v-24.8C709,246.5,710.6,244.9,712.5,244.9z"/>
				</g>
			</g>
			<g>
				<polygon fill="none" stroke="#FFFFFF" stroke-miterlimit="10" points="842.5,59.5 842.5,50.5 764.9,49.9 582.2,49.9 558.2,73.9 
					558.2,86.8 567.2,86.8 567.2,77.6 585.9,58.9 765.5,58.9 765.5,118.3 752.7,131.1 726.2,131.1 726.2,139.1 756,139.1 
					765.5,129.6 765.5,183 752.7,195.9 726.2,195.9 726.2,203.9 756,203.9 765.5,194.3 765.5,245.4 752.7,258.2 726.2,258.2 
					726.2,266.2 756,266.2 773.5,248.7 773.5,186.3 773.5,183.2 773.5,121.6 773.5,120.8 773.5,58.9 773.9,58.9 				"/>
				<circle fill="#FFFFFF" cx="768.5" cy="54.2" r="13.4"/>
				<path fill="#68BCC2" d="M772.1,55.7c0,2.7-1.6,3.8-3.6,3.8s-3.6-1.1-3.6-3.8c0-2.7,3.6-8.1,3.6-8.1S772.1,53,772.1,55.7z"/>
			</g>
		</g>
	</g>
</g>
<g id="New_Symbol_1">
</g>
</svg>
