<?xml version="1.0" encoding="utf-8"?>
<!-- Generator: Adobe Illustrator 18.1.1, SVG Export Plug-In . SVG Version: 6.00 Build 0)  -->
<!DOCTYPE svg PUBLIC "-//W3C//DTD SVG 1.1//EN" "http://www.w3.org/Graphics/SVG/1.1/DTD/svg11.dtd">
<svg version="1.1" id="Layer_1" xmlns="http://www.w3.org/2000/svg" xmlns:xlink="http://www.w3.org/1999/xlink" x="0px" y="0px"
	 viewBox="0 0 874.5 580.5" enable-background="new 0 0 874.5 580.5" xml:space="preserve">
<g id="New_Symbol_1">
</g>
<g>
	<g>
		<path opacity="0.1" fill="#E0BB9B" stroke="#E0BB9B" stroke-width="0.5" stroke-miterlimit="10" stroke-dasharray="2" d="
			M381.4,209.1c0-54,29.4-101.2,73-126.4l145.2-0.4c44,25.1,73.7,72.5,73.7,126.9c0,11.8-30.7,11-33.9,36.5c-0.9,7,11.3,4.8,9,9.1
			c-2.8,5.3-1,39.2-1,39.2c-26.3,37.6-70.3,61.2-120.1,61.2C446.7,355,381.4,289.7,381.4,209.1z"/>
		<g>
			<polygon fill="none" stroke="#FFFFFF" stroke-width="1.2581" stroke-miterlimit="10" points="521.4,219.5 521.8,223.2 
				530.9,223.2 531.3,219.5 531.3,213.9 521.4,213.9 			"/>
			<path fill="none" stroke="#FFFFFF" stroke-width="1.2581" stroke-miterlimit="10" d="M539.9,202.9c-0.1-0.1-0.3-0.3-0.4-0.4
				l0.4-0.6h-1.2c-1.1-0.7-2.6-1.3-3.3-1.3c-1,0-2,0.5-2.5,1.3h-1.1c-0.5-0.8-1.5-1.3-2.5-1.3s-2,0.5-2.5,1.3h-1
				c-0.5-0.8-1.5-1.3-2.5-1.3s-2,0.5-2.5,1.3H520c-0.5-0.8-1.5-1.3-2.5-1.3c-0.7,0-2.2,0.7-3.3,1.3h-1.4l0.5,0.7
				c-0.1,0.1-0.2,0.2-0.3,0.3h0.5l7.7,10.9h10.3l7.7-10.9H539.9z"/>
		</g>
	</g>
	<g>
		<path opacity="0.1" fill="#E0BB9B" stroke="#E0BB9B" stroke-width="0.5" stroke-miterlimit="10" stroke-dasharray="2" d="
			M381.4,355c0-80.6,65.3-146,146-146c47.5,0,92.7,22.7,119.4,57.8l0.6,62.4c3.4,12.3,26,19.4,26,32.8c0,56.9-32.6,99.2-80.1,123.3
			l-131.7,0C414,461.3,381.4,412,381.4,355z"/>
		<g>
			<polygon fill="none" stroke="#FFFFFF" stroke-width="1.2581" stroke-miterlimit="10" points="521.4,365.4 521.8,369.2 
				530.9,369.2 531.3,365.4 531.3,359.9 521.4,359.9 			"/>
			<path fill="none" stroke="#FFFFFF" stroke-width="1.2581" stroke-miterlimit="10" d="M539.9,348.9c-0.1-0.1-0.3-0.3-0.4-0.4
				l0.4-0.6h-1.2c-1.1-0.7-2.6-1.3-3.3-1.3c-1,0-2,0.5-2.5,1.3h-1.1c-0.5-0.8-1.5-1.3-2.5-1.3s-2,0.5-2.5,1.3h-1
				c-0.5-0.8-1.5-1.3-2.5-1.3s-2,0.5-2.5,1.3H520c-0.5-0.8-1.5-1.3-2.5-1.3c-0.7,0-2.2,0.7-3.3,1.3h-1.4l0.5,0.7
				c-0.1,0.1-0.2,0.2-0.3,0.3h0.5l7.7,10.9h10.3l7.7-10.9H539.9z"/>
		</g>
	</g>
	<g>
		<path opacity="0.1" fill="#E0BB9B" stroke="#E0BB9B" stroke-width="0.5" stroke-miterlimit="10" stroke-dasharray="2" d="
			M205.5,355c0-80.6,65.3-146,146-146s146,65.3,146,146c0,56.1-31.6,104.8-78,129.2l-137.4-0.8C236.5,458.8,205.5,410.5,205.5,355z"
			/>
		<g>
			<polygon fill="none" stroke="#FFFFFF" stroke-width="1.2581" stroke-miterlimit="10" points="345.5,365.4 346,369.2 355,369.2 
				355.4,365.4 355.4,359.9 345.5,359.9 			"/>
			<path fill="none" stroke="#FFFFFF" stroke-width="1.2581" stroke-miterlimit="10" d="M364.1,348.9c-0.1-0.1-0.3-0.3-0.4-0.4
				l0.4-0.6h-1.2c-1.1-0.7-2.6-1.3-3.3-1.3c-1,0-2,0.5-2.5,1.3H356c-0.5-0.8-1.5-1.3-2.5-1.3s-2,0.5-2.5,1.3h-1
				c-0.5-0.8-1.5-1.3-2.5-1.3s-2,0.5-2.5,1.3h-0.9c-0.5-0.8-1.5-1.3-2.5-1.3c-0.7,0-2.2,0.7-3.3,1.3h-1.4l0.5,0.7
				c-0.1,0.1-0.2,0.2-0.3,0.3h0.5l7.7,10.9h10.3l7.7-10.9H364.1z"/>
		</g>
	</g>
</g>
</svg>
