<?xml version="1.0" encoding="utf-8"?>
<!-- Generator: Adobe Illustrator 18.1.1, SVG Export Plug-In . SVG Version: 6.00 Build 0)  -->
<!DOCTYPE svg PUBLIC "-//W3C//DTD SVG 1.1//EN" "http://www.w3.org/Graphics/SVG/1.1/DTD/svg11.dtd">
<svg version="1.1" id="Layer_1" xmlns="http://www.w3.org/2000/svg" xmlns:xlink="http://www.w3.org/1999/xlink" x="0px" y="0px"
	 viewBox="0 0 229.9 293.1" enable-background="new 0 0 229.9 293.1" xml:space="preserve">
<g id="New_Symbol_1">
</g>
<g>
	<g>
		<rect x="14.2" y="125.7" fill="#729454" width="201.2" height="167.4"/>
	</g>
	<rect x="133" y="210.5" fill="#8EB7ED" width="73.6" height="57.1"/>
	<rect x="133" y="271.2" fill="#F7E588" width="73.6" height="21.7"/>
	<rect x="22.4" y="271.2" fill="#F7E588" width="73.2" height="21.7"/>
	<rect x="132.4" y="210.5" opacity="0.15" width="14.8" height="81.8"/>
	<rect x="22.4" y="210.5" fill="#8EB7ED" width="73.2" height="57.1"/>
	<rect x="82.6" y="210.5" opacity="0.15" width="13" height="81.8"/>
	<rect x="22.4" y="210.5" opacity="0.15" width="13.9" height="81.8"/>
	<rect x="192.6" y="210.5" opacity="0.15" width="13.9" height="81.8"/>
	<g>
		<g>
			<g>
				<path fill="#DB5102" d="M38.8,145c0,0.2,0,0.3-0.1,0.5c0,0.2,0,0.3,0,0.5c0,0.2,0,0.5,0,0.7c0,0.2,0,0.5,0,0.7
					c0,0.1,0,0.2,0,0.3s0,0.2,0,0.2s-0.1,0.1-0.1,0.2c-0.1,0-0.1,0.1-0.2,0.1c-0.2,0-0.4,0-0.7,0c-0.3,0-0.5,0-0.7,0
					c-0.1,0-0.2,0-0.3,0c-0.1,0-0.2,0-0.3,0c-0.1,0-0.2-0.1-0.2-0.2c0-0.1,0-0.2,0-0.4c0-0.1,0-0.2,0-0.3c0-0.1,0-0.2,0-0.4v-0.2
					c-0.2,0-0.3,0-0.5,0c-0.2,0-0.4,0-0.6,0c-0.3,0-0.5,0-0.8,0s-0.5,0.1-0.7,0.1c-0.2,0.1-0.4,0.2-0.5,0.3
					c-0.1,0.1-0.2,0.3-0.2,0.5c0,0.3,0.1,0.5,0.4,0.7s0.6,0.3,0.9,0.4c0.4,0.1,0.8,0.2,1.1,0.4s0.7,0.2,1,0.3
					c0.3,0.1,0.6,0.2,0.9,0.3c0.3,0.1,0.5,0.3,0.7,0.5c0.4,0.2,0.8,0.6,1.1,1c0.3,0.5,0.4,1,0.4,1.6c0,0.4-0.1,0.7-0.2,1
					c-0.1,0.3-0.3,0.6-0.4,0.9s-0.4,0.5-0.7,0.8c-0.3,0.2-0.5,0.4-0.8,0.6c-0.2,0.1-0.4,0.2-0.7,0.3s-0.5,0.1-0.8,0.2
					c-0.2,0.1-0.5,0.1-0.8,0.1s-0.6,0-0.9,0c-0.4,0-0.9,0-1.3-0.1s-0.8-0.1-1.2-0.2c-0.4-0.1-0.7-0.2-0.9-0.3
					c-0.3-0.1-0.5-0.2-0.6-0.3c0-0.4,0-0.7,0-1.1s0-0.7,0-1c0-0.2,0-0.3,0-0.4c0-0.1,0-0.3,0-0.4c0.2,0,0.6,0,0.9-0.1s0.7,0,1.1,0
					c0.2,0,0.4,0,0.5,0s0.2,0,0.2,0.1s0.1,0.1,0.1,0.1c0,0,0,0.1,0,0.2c0,0.1,0,0.2,0,0.4c0,0.1,0,0.3,0,0.4c0,0.2,0,0.3,0.1,0.5
					c0.4,0,0.8,0,1.1,0s0.6,0,0.9,0c0.3,0,0.5-0.1,0.8-0.2c0.2-0.1,0.4-0.2,0.6-0.4c0.1-0.1,0.1-0.2,0.2-0.3s0.1-0.2,0.1-0.3
					c0-0.2-0.1-0.4-0.3-0.6c-0.2-0.2-0.4-0.3-0.7-0.4c-0.3-0.1-0.6-0.2-0.9-0.3c-0.3-0.1-0.6-0.2-1-0.3c-0.3-0.1-0.6-0.2-0.9-0.3
					c-0.3-0.1-0.5-0.2-0.6-0.3c-0.1-0.1-0.2-0.1-0.4-0.2c-0.1-0.1-0.3-0.2-0.4-0.2s-0.3-0.2-0.4-0.3c-0.1-0.1-0.2-0.2-0.3-0.3
					c-0.1-0.1-0.2-0.2-0.3-0.4c-0.1-0.2-0.1-0.3-0.2-0.5c-0.1-0.2-0.1-0.4-0.1-0.6s0-0.4,0-0.5c0-0.4,0.1-0.7,0.1-0.9
					c0.1-0.3,0.2-0.5,0.3-0.7c0.1-0.2,0.3-0.4,0.4-0.6c0.2-0.2,0.4-0.4,0.7-0.6c0.2-0.1,0.4-0.3,0.7-0.4s0.5-0.2,0.8-0.2
					c0.3-0.1,0.6-0.1,0.8-0.1s0.5,0,0.8,0c0.3,0,0.6,0,1,0.1c0.4,0,0.8,0.1,1.2,0.2c0.4,0.1,0.8,0.1,1.1,0.2
					C38.3,144.8,38.6,144.9,38.8,145z"/>
				<path fill="#DB5102" d="M51.9,148c-0.1,0.1-0.3,0.1-0.5,0.1c-0.2,0-0.4,0-0.7,0s-0.4,0-0.6,0c-0.2,0-0.3,0-0.4-0.1
					c0,0,0-0.1,0-0.2s0-0.2,0-0.4s0-0.3,0-0.4c0-0.2,0-0.3,0-0.4c-0.2,0-0.3,0-0.4,0c-0.1,0-0.2,0-0.3,0c-0.1,0-0.2,0-0.4,0
					c-0.1,0-0.3,0-0.6,0c0,0.6,0,1.1,0,1.6c0.1,0.5,0.1,1,0.1,1.6c0,0.4,0,0.7,0,1.1c0,0.4,0,0.7-0.1,1.1s0,0.7,0,1.1
					c0,0.4,0,0.7,0.1,1.1c0.2,0,0.3,0,0.5,0s0.3,0,0.5,0c0.1,0.1,0.1,0.3,0.1,0.4c0,0.1,0,0.3,0,0.5c0,0.2,0,0.4,0,0.5
					c0,0.2,0,0.4,0,0.6c-0.1,0.1-0.2,0.2-0.4,0.2c-0.2,0-0.4,0-0.6,0c-0.2,0-0.4,0-0.7,0c-0.3,0-0.5,0-0.8,0s-0.6,0-0.8,0
					c-0.3,0-0.5,0-0.7,0c-0.1,0-0.2,0-0.3,0c-0.1,0-0.2,0-0.4,0s-0.2,0-0.3,0s-0.2,0-0.2,0c-0.1,0-0.1,0-0.1-0.1c0,0,0-0.1,0-0.1
					c0,0,0-0.1,0-0.1c0,0,0-0.1,0-0.2c0.1-0.3,0.1-0.5,0.1-0.7c0-0.2,0-0.5-0.1-0.7c0-0.1,0.1-0.1,0.2-0.2c0.1,0,0.2-0.1,0.3-0.1
					c0.1,0,0.2,0,0.4,0c0.1,0,0.2,0,0.3,0c0.1-1.2,0.2-2.4,0.2-3.7c0-1.3-0.1-2.5-0.2-3.9c-0.3-0.1-0.5-0.1-0.8-0.1
					c-0.3,0-0.5,0-0.9,0c0,0.2,0,0.3,0,0.4c0,0.1,0,0.2,0,0.3s0,0.2,0,0.3c0,0.1,0,0.2,0,0.4c-0.1,0-0.3,0.1-0.5,0.1
					c-0.2,0-0.4,0-0.6,0s-0.4,0-0.7,0s-0.4,0-0.6-0.1c0-0.5,0.1-1.1,0-1.7c0-0.6-0.1-1.2-0.2-1.7c0.8-0.1,1.7-0.2,2.5-0.2
					c0.8,0,1.6,0,2.4,0c0.8,0,1.6,0,2.4,0.1c0.8,0,1.6,0,2.5,0c0.1,0,0.2,0,0.4,0s0.3,0,0.4,0c0.1,0,0.3,0,0.4,0.1
					c0.1,0,0.2,0.1,0.2,0.1c0,0.1,0.1,0.3,0.1,0.6c0,0.2,0,0.4,0,0.6c0,0.4,0,0.7,0.1,1.1C52.1,147.3,52,147.7,51.9,148z"/>
				<path fill="#DB5102" d="M60.3,156.5c-0.1,0-0.3,0-0.5,0s-0.3,0-0.5,0c-0.8,0-1.5-0.1-2.1-0.3c-0.6-0.2-1.2-0.5-1.6-0.9
					c-0.1,0-0.1-0.1-0.2-0.2c-0.1-0.1-0.2-0.2-0.2-0.3c-0.1-0.1-0.2-0.2-0.2-0.3c-0.1-0.1-0.1-0.2-0.2-0.3c-0.1-0.1-0.2-0.3-0.4-0.6
					c-0.1-0.3-0.2-0.6-0.3-0.9c-0.1-0.3-0.2-0.7-0.2-1c-0.1-0.4-0.1-0.7-0.1-1.1c0-0.5,0.1-1,0.2-1.5c0.1-0.5,0.3-1.1,0.5-1.6
					c0.2-0.5,0.5-1,0.9-1.4c0.4-0.4,0.8-0.7,1.2-1c0.5-0.3,1-0.5,1.5-0.6c0.5-0.1,1-0.2,1.6-0.2c0.5,0,1,0.1,1.5,0.1
					c0.5,0.1,1,0.2,1.4,0.5c1,0.6,1.8,1.4,2.2,2.4c0.4,1,0.6,2.1,0.6,3.4c0,0.4,0,0.7,0,1c0,0.3-0.1,0.7-0.1,1
					c-0.2,0.5-0.4,1-0.7,1.4c-0.2,0.4-0.5,0.8-1,1.1c-0.2,0.2-0.4,0.3-0.6,0.4c-0.2,0.1-0.5,0.3-0.7,0.4c-0.3,0.1-0.5,0.2-0.8,0.3
					C61,156.4,60.6,156.4,60.3,156.5z M62.4,150.8c0-0.1,0-0.3,0-0.4c0-0.1,0-0.3,0-0.4c0-0.2,0-0.5-0.1-0.8
					c-0.1-0.3-0.2-0.6-0.3-0.8s-0.3-0.5-0.4-0.8s-0.3-0.4-0.5-0.6c-0.1-0.1-0.2-0.2-0.3-0.2c-0.1-0.1-0.3-0.2-0.4-0.2
					c-0.1-0.1-0.3-0.1-0.4-0.2c-0.1,0-0.3-0.1-0.4-0.1c-0.3,0-0.7,0.1-1,0.3s-0.6,0.5-0.9,0.9c-0.3,0.4-0.5,0.8-0.6,1.2
					c-0.2,0.5-0.2,0.9-0.2,1.4c0,0.6,0.1,1.1,0.2,1.6s0.3,0.9,0.5,1.3s0.5,0.7,0.9,0.9c0.4,0.2,0.8,0.3,1.3,0.3c0.3,0,0.6,0,0.9-0.1
					c0.3-0.1,0.6-0.2,0.9-0.4c0.3-0.4,0.5-0.8,0.7-1.3C62.3,152,62.3,151.4,62.4,150.8z"/>
				<path fill="#DB5102" d="M74.5,151c0.2,0.1,0.3,0.3,0.5,0.4c0.1,0.2,0.2,0.3,0.3,0.4c0.2,0.2,0.3,0.5,0.4,0.7
					c0.1,0.3,0.2,0.5,0.4,0.8s0.3,0.4,0.5,0.6c0.2,0.2,0.4,0.3,0.8,0.3c0.2,0,0.4,0,0.6,0c0,0.2,0.1,0.3,0.1,0.5s0,0.4,0,0.5
					c0,0.2,0,0.3,0,0.5c0,0.2-0.1,0.3-0.1,0.4c-0.3,0-0.6,0.1-0.9,0.1s-0.7,0-1.1,0c-0.4,0-0.7-0.1-1-0.2c-0.3-0.1-0.5-0.3-0.6-0.5
					c0,0,0-0.1-0.1-0.1c0-0.1-0.1-0.1-0.1-0.2s-0.1-0.2-0.1-0.2c0-0.1-0.1-0.1-0.1-0.2c-0.1-0.3-0.3-0.5-0.4-0.8
					c-0.1-0.3-0.3-0.6-0.5-0.8c-0.2-0.3-0.3-0.5-0.5-0.8s-0.3-0.5-0.5-0.7c-0.2,0-0.4,0-0.5,0c-0.2,0-0.3,0-0.4,0c0,0.2,0,0.4,0,0.6
					c0,0.2,0,0.3,0,0.5c0,0.2,0,0.3,0,0.5c0,0.2,0,0.4,0,0.6c0.1,0,0.2,0,0.3,0s0.2,0,0.2,0s0.2,0,0.2,0c0.1,0,0.2,0,0.2,0.1
					c0.1,0.1,0.2,0.2,0.2,0.3s0,0.3,0,0.5c0,0.2,0,0.4-0.1,0.6c0,0.2,0,0.4,0,0.5c-0.1,0.1-0.1,0.2-0.1,0.2c0,0-0.1,0.1-0.2,0.1
					c-0.1,0-0.1,0-0.2,0s-0.2,0-0.3,0c-0.2,0-0.3,0-0.6,0c-0.2,0-0.5,0-0.7,0c-0.3,0-0.5,0-0.8,0s-0.5,0-0.6,0c-0.1,0-0.2,0-0.4,0
					c-0.1,0-0.3,0-0.4,0c-0.1,0-0.3,0-0.4,0s-0.2,0-0.2,0c-0.1,0-0.1-0.1-0.1-0.2c0-0.1-0.1-0.2-0.1-0.3c0-0.1,0-0.2,0-0.4
					c0-0.1,0-0.3,0-0.5c0-0.2,0-0.3,0-0.5s0-0.3,0-0.5c0.1-0.1,0.1-0.1,0.2-0.1c0.1,0,0.2,0,0.2,0c0.1,0,0.2,0.1,0.3,0.1
					c0.1,0,0.2,0,0.3,0c0-0.7,0.1-1.3,0.1-1.9c0-0.6,0-1.2,0-1.8s0-1.2-0.1-1.9c0-0.6,0-1.3-0.1-2.1c-0.2,0-0.3-0.1-0.4,0
					c-0.1,0-0.2,0-0.4,0c-0.1,0-0.2,0-0.2,0c0,0-0.1,0-0.1-0.1c0-0.1,0-0.3,0-0.4c0-0.2,0-0.3,0-0.5s0-0.3,0-0.5c0-0.2,0-0.3,0-0.4
					c0.2-0.1,0.4-0.1,0.7-0.1s0.6,0,1,0c0.3,0,0.7,0,1,0c0.3,0,0.6,0,1,0c0.3,0,0.6,0,0.9,0c0.3,0,0.7,0,1,0s0.7,0,1,0.1
					s0.6,0.1,0.9,0.1c0.2,0,0.3,0.1,0.5,0.2c0.2,0.1,0.4,0.2,0.6,0.3c0.2,0.1,0.3,0.3,0.5,0.4c0.1,0.2,0.3,0.3,0.3,0.5
					c0.2,0.4,0.3,0.7,0.3,1.1c0.1,0.3,0.1,0.7,0,1.2c-0.1,0.4-0.2,0.8-0.4,1.2c-0.2,0.4-0.4,0.7-0.7,0.9c-0.2,0.2-0.4,0.3-0.5,0.4
					C74.9,150.8,74.7,150.9,74.5,151z M72.3,149.7c0.2,0,0.4,0,0.6-0.1c0.2-0.1,0.4-0.2,0.6-0.3s0.3-0.3,0.5-0.5
					c0.1-0.2,0.2-0.4,0.2-0.7c0-0.2,0-0.4-0.1-0.7c-0.1-0.3-0.2-0.4-0.3-0.6c-0.1-0.1-0.3-0.1-0.4-0.1c-0.2,0-0.3-0.1-0.5-0.1
					c-0.4-0.1-0.7-0.1-1-0.1c-0.3,0-0.6,0-0.9,0.1v3.1c0.2,0,0.5,0.1,0.7,0.1C71.8,149.7,72.1,149.7,72.3,149.7z"/>
				<path fill="#DB5102" d="M86.3,146.4c-0.2,0-0.4,0-0.7,0c-0.2,0-0.5,0-0.7,0c-0.2,0-0.5,0-0.7,0c-0.2,0-0.5,0-0.6,0.1
					c0,0.5,0,1,0.1,1.4c0.1,0.4,0,0.9-0.1,1.3c0.2,0,0.4,0.1,0.7,0c0.3,0,0.5,0,0.8,0c0.3,0,0.5,0,0.8,0c0.3,0,0.5,0,0.8,0.1
					c0.1,0.1,0.1,0.3,0.1,0.4c0,0.2,0,0.3,0,0.5s0,0.3,0,0.5s0,0.3,0.1,0.4c-0.1,0-0.1,0-0.1,0.1c-0.1,0.1-0.2,0.1-0.3,0.1
					s-0.2,0-0.3,0s-0.2,0-0.3,0s-0.2,0-0.3,0c-0.2,0-0.5,0-0.8,0.1c-0.3,0-0.6,0-0.9-0.1c-0.1,0.5-0.1,1,0,1.5c0.1,0.5,0.1,1,0,1.5
					c0.4,0.1,0.9,0.1,1.4,0.1c0.5,0,1,0,1.5-0.1c0-0.2,0-0.4,0-0.5c0-0.2-0.1-0.3-0.1-0.5c0-0.1,0.1-0.2,0.2-0.3
					c0.1-0.1,0.1-0.2,0.2-0.2c0.1,0,0.3,0,0.5,0c0.2,0,0.4,0,0.6,0c0.2,0,0.4,0,0.6,0s0.4,0.1,0.6,0.1c0,0.2,0,0.3,0,0.5
					c0,0.2,0,0.4-0.1,0.6c0,0.2,0,0.4-0.1,0.6c0,0.2,0,0.4,0,0.6c0,0.1,0,0.3,0.1,0.5s0,0.4,0,0.6c-0.1,0.1-0.2,0.1-0.4,0.1
					c-0.1,0-0.3,0-0.4,0c-0.2,0-0.5,0-0.7,0.1c-0.2,0-0.5,0.1-0.7,0.1c-0.1,0-0.3,0-0.5,0c-0.2,0-0.4,0-0.6,0s-0.4,0-0.6,0
					s-0.3,0-0.5,0c-0.8,0-1.5,0-2.3,0c-0.8,0-1.5,0-2.3,0c-0.2-0.1-0.3-0.2-0.3-0.4c0-0.2-0.1-0.3-0.1-0.5s0-0.4,0-0.6
					c0-0.2,0-0.4,0-0.7c0.1-0.1,0.3-0.1,0.4-0.1c0.2,0,0.3,0,0.5,0c0.1-1.2,0.1-2.5,0.1-3.7c0-1.2,0-2.5-0.1-3.9c-0.2,0-0.4,0-0.5,0
					c-0.2,0-0.3,0-0.4,0c0,0,0-0.1,0-0.2c0-0.1,0-0.3,0-0.5c0-0.2,0-0.3,0-0.5c0-0.2-0.1-0.3-0.1-0.4c0.1,0,0.1-0.1,0.1-0.2
					s0-0.1,0-0.2c0.3-0.1,0.7-0.1,1.1-0.1c0.4,0,0.8,0,1.1,0c0.5,0,1-0.1,1.5,0c0.5,0,1,0,1.5,0c0.3,0,0.6,0,0.9,0.1s0.7,0,0.9,0
					c0.1,0,0.3,0,0.5,0c0.2,0,0.4,0,0.6-0.1c0.2,0,0.4,0,0.6,0c0.2,0,0.3,0.1,0.4,0.1c0.1,0.1,0.1,0.2,0.2,0.3c0,0.1,0,0.3,0,0.5
					c0,0.2-0.1,0.3-0.1,0.5c0,0.2-0.1,0.3-0.1,0.5c0,0.1,0,0.3,0,0.4c0,0.1,0,0.3,0.1,0.4s0,0.3,0,0.4c0,0.1,0,0.2-0.1,0.3
					c-0.2,0-0.4,0-0.7,0c-0.3,0-0.5,0-0.8,0.1c-0.2,0-0.5,0-0.6,0c-0.2,0-0.3-0.1-0.3-0.2c0-0.2,0-0.3,0-0.6S86.4,146.7,86.3,146.4z
					"/>
				<path fill="#DB5102" d="M100.1,144.6c0,0.3,0.1,0.5,0,0.8c0,0.2,0,0.5,0,0.8c0,0.2,0,0.4,0,0.7c0.1,0.2,0.1,0.4,0,0.6
					c0,0.1-0.1,0.2-0.2,0.2c-0.1,0-0.2,0.1-0.2,0.2c-0.3,0.1-0.7,0.1-1,0.2c-0.4,0-0.7-0.1-1-0.3c0-0.2,0-0.4,0-0.6
					c0-0.2,0-0.3,0-0.6c-0.3,0-0.5,0-0.7-0.1c-0.2,0-0.4,0-0.6,0c-0.2,0-0.4,0-0.5,0c-0.2,0-0.4,0-0.7,0.1c0,0.4,0,0.9,0,1.4
					s0,1-0.1,1.4c0.2,0,0.4,0,0.7,0s0.5,0,0.8,0s0.5,0,0.8,0s0.5,0.1,0.7,0.1c0,0.1,0,0.3,0,0.5c0,0.2,0,0.3,0,0.5s0,0.3,0,0.5
					c0,0.2-0.1,0.3-0.1,0.4c-0.1,0-0.2,0-0.3,0s-0.1-0.1-0.2-0.1c-0.2,0.1-0.3,0.1-0.5,0.2c-0.2,0-0.4,0-0.6,0c-0.2,0-0.4,0-0.6,0
					c-0.2,0-0.4,0-0.5,0c0,0.3,0,0.5,0,0.8c0,0.2,0,0.5,0,0.7c0,0.2,0,0.4,0,0.6c0,0.2,0,0.5,0,0.7c0.2,0.1,0.5,0.1,0.7,0.1
					c0.3,0,0.5,0,0.8,0c0.1,0.1,0.1,0.2,0.1,0.3c0,0.1,0,0.1-0.1,0.2c0,0.2,0,0.4,0,0.7c0,0.3,0,0.5,0,0.8c-0.1,0.1-0.2,0.1-0.3,0.1
					c-0.1,0-0.2,0-0.4,0c-0.3,0-0.7,0-1.1,0c-0.4,0-0.8,0-1.2,0.1c-0.3,0-0.6,0-0.9,0c-0.3-0.1-0.6-0.1-0.9,0c-0.1,0-0.1,0-0.2,0.1
					c-0.1,0-0.1,0-0.2,0.1s-0.1,0-0.2,0c-0.1,0-0.1,0-0.2-0.1c0-0.1,0-0.3,0-0.4c0-0.2,0-0.3,0-0.5c0-0.2,0-0.3,0-0.5
					c0-0.2,0-0.3-0.1-0.4c0.2,0,0.4,0,0.6,0c0.2,0,0.4,0,0.5,0c0.1-0.4,0.1-0.8,0-1.2c0-0.4,0-0.8,0-1.3c0-0.5,0-1.1,0.1-1.7
					c0-0.6,0-1.2,0-1.7c0-0.3,0-0.6,0-0.9s0-0.6,0-0.9c-0.1-0.1-0.2-0.1-0.3-0.1c-0.1,0-0.2,0-0.4,0s-0.2,0-0.4,0
					c-0.1,0-0.2,0-0.3-0.1c0-0.1,0-0.3,0-0.5s0-0.3,0-0.5s0-0.3,0-0.5c0-0.2,0-0.3,0-0.4c0.1-0.1,0.2-0.2,0.3-0.1s0.2,0,0.3,0.1
					c0.4,0,0.8,0,1.2,0c0.4,0,0.8,0,1.3,0c0.4,0,0.8,0,1.3,0c0.4,0,0.8,0,1.2,0c0.3,0,0.6,0,0.9,0c0.3,0,0.6,0,0.9,0
					c0.2,0,0.5,0,0.7,0c0.2,0,0.4,0.1,0.5,0.2C99.7,144.5,99.9,144.5,100.1,144.6z"/>
				<path fill="#DB5102" d="M109.4,151c0.2,0.1,0.3,0.3,0.5,0.4c0.1,0.2,0.2,0.3,0.3,0.4c0.2,0.2,0.3,0.5,0.4,0.7
					c0.1,0.3,0.2,0.5,0.4,0.8s0.3,0.4,0.5,0.6c0.2,0.2,0.4,0.3,0.8,0.3c0.2,0,0.4,0,0.6,0c0,0.2,0.1,0.3,0.1,0.5s0,0.4,0,0.5
					c0,0.2,0,0.3,0,0.5c0,0.2-0.1,0.3-0.1,0.4c-0.3,0-0.6,0.1-0.9,0.1s-0.7,0-1.1,0c-0.4,0-0.7-0.1-1-0.2c-0.3-0.1-0.5-0.3-0.6-0.5
					c0,0,0-0.1-0.1-0.1c0-0.1-0.1-0.1-0.1-0.2s-0.1-0.2-0.1-0.2c0-0.1-0.1-0.1-0.1-0.2c-0.1-0.3-0.3-0.5-0.4-0.8
					c-0.1-0.3-0.3-0.6-0.5-0.8c-0.2-0.3-0.3-0.5-0.5-0.8s-0.3-0.5-0.5-0.7c-0.2,0-0.4,0-0.5,0c-0.2,0-0.3,0-0.4,0c0,0.2,0,0.4,0,0.6
					c0,0.2,0,0.3,0,0.5c0,0.2,0,0.3,0,0.5c0,0.2,0,0.4,0,0.6c0.1,0,0.2,0,0.3,0s0.2,0,0.2,0s0.2,0,0.2,0c0.1,0,0.2,0,0.2,0.1
					c0.1,0.1,0.2,0.2,0.2,0.3s0,0.3,0,0.5c0,0.2,0,0.4-0.1,0.6c0,0.2,0,0.4,0,0.5c-0.1,0.1-0.1,0.2-0.1,0.2c0,0-0.1,0.1-0.2,0.1
					c-0.1,0-0.1,0-0.2,0s-0.2,0-0.3,0c-0.2,0-0.3,0-0.6,0c-0.2,0-0.5,0-0.7,0c-0.3,0-0.5,0-0.8,0s-0.5,0-0.6,0c-0.1,0-0.2,0-0.4,0
					c-0.1,0-0.3,0-0.4,0c-0.1,0-0.3,0-0.4,0s-0.2,0-0.2,0c-0.1,0-0.1-0.1-0.1-0.2c0-0.1-0.1-0.2-0.1-0.3c0-0.1,0-0.2,0-0.4
					c0-0.1,0-0.3,0-0.5c0-0.2,0-0.3,0-0.5s0-0.3,0-0.5c0.1-0.1,0.1-0.1,0.2-0.1c0.1,0,0.2,0,0.2,0c0.1,0,0.2,0.1,0.3,0.1
					c0.1,0,0.2,0,0.3,0c0-0.7,0.1-1.3,0.1-1.9c0-0.6,0-1.2,0-1.8s0-1.2-0.1-1.9c0-0.6,0-1.3-0.1-2.1c-0.2,0-0.3-0.1-0.4,0
					c-0.1,0-0.2,0-0.4,0c-0.1,0-0.2,0-0.2,0c0,0-0.1,0-0.1-0.1c0-0.1,0-0.3,0-0.4c0-0.2,0-0.3,0-0.5s0-0.3,0-0.5c0-0.2,0-0.3,0-0.4
					c0.2-0.1,0.4-0.1,0.7-0.1s0.6,0,1,0c0.3,0,0.7,0,1,0c0.3,0,0.6,0,1,0c0.3,0,0.6,0,0.9,0c0.3,0,0.7,0,1,0s0.7,0,1,0.1
					s0.6,0.1,0.9,0.1c0.2,0,0.3,0.1,0.5,0.2c0.2,0.1,0.4,0.2,0.6,0.3c0.2,0.1,0.3,0.3,0.5,0.4c0.1,0.2,0.3,0.3,0.3,0.5
					c0.2,0.4,0.3,0.7,0.3,1.1c0.1,0.3,0.1,0.7,0,1.2c-0.1,0.4-0.2,0.8-0.4,1.2c-0.2,0.4-0.4,0.7-0.7,0.9c-0.2,0.2-0.4,0.3-0.5,0.4
					C109.9,150.8,109.7,150.9,109.4,151z M107.3,149.7c0.2,0,0.4,0,0.6-0.1c0.2-0.1,0.4-0.2,0.6-0.3s0.3-0.3,0.5-0.5
					c0.1-0.2,0.2-0.4,0.2-0.7c0-0.2,0-0.4-0.1-0.7c-0.1-0.3-0.2-0.4-0.3-0.6c-0.1-0.1-0.3-0.1-0.4-0.1c-0.2,0-0.3-0.1-0.5-0.1
					c-0.4-0.1-0.7-0.1-1-0.1c-0.3,0-0.6,0-0.9,0.1v3.1c0.2,0,0.5,0.1,0.7,0.1C106.8,149.7,107,149.7,107.3,149.7z"/>
				<path fill="#DB5102" d="M120.8,156.5c-0.1,0-0.3,0-0.5,0s-0.3,0-0.5,0c-0.8,0-1.5-0.1-2.1-0.3c-0.6-0.2-1.2-0.5-1.6-0.9
					c-0.1,0-0.1-0.1-0.2-0.2c-0.1-0.1-0.2-0.2-0.2-0.3c-0.1-0.1-0.2-0.2-0.2-0.3c-0.1-0.1-0.1-0.2-0.2-0.3c-0.1-0.1-0.2-0.3-0.4-0.6
					c-0.1-0.3-0.2-0.6-0.3-0.9c-0.1-0.3-0.2-0.7-0.2-1c-0.1-0.4-0.1-0.7-0.1-1.1c0-0.5,0.1-1,0.2-1.5c0.1-0.5,0.3-1.1,0.5-1.6
					c0.2-0.5,0.5-1,0.9-1.4c0.4-0.4,0.8-0.7,1.2-1c0.5-0.3,1-0.5,1.5-0.6c0.5-0.1,1-0.2,1.6-0.2c0.5,0,1,0.1,1.5,0.1
					c0.5,0.1,1,0.2,1.4,0.5c1,0.6,1.8,1.4,2.2,2.4c0.4,1,0.6,2.1,0.6,3.4c0,0.4,0,0.7,0,1c0,0.3-0.1,0.7-0.1,1
					c-0.2,0.5-0.4,1-0.7,1.4c-0.2,0.4-0.5,0.8-1,1.1c-0.2,0.2-0.4,0.3-0.6,0.4c-0.2,0.1-0.5,0.3-0.7,0.4c-0.3,0.1-0.5,0.2-0.8,0.3
					C121.5,156.4,121.2,156.4,120.8,156.5z M122.9,150.8c0-0.1,0-0.3,0-0.4c0-0.1,0-0.3,0-0.4c0-0.2,0-0.5-0.1-0.8
					c-0.1-0.3-0.2-0.6-0.3-0.8s-0.3-0.5-0.4-0.8s-0.3-0.4-0.5-0.6c-0.1-0.1-0.2-0.2-0.3-0.2c-0.1-0.1-0.3-0.2-0.4-0.2
					c-0.1-0.1-0.3-0.1-0.4-0.2c-0.1,0-0.3-0.1-0.4-0.1c-0.3,0-0.7,0.1-1,0.3s-0.6,0.5-0.9,0.9c-0.3,0.4-0.5,0.8-0.6,1.2
					c-0.2,0.5-0.2,0.9-0.2,1.4c0,0.6,0.1,1.1,0.2,1.6s0.3,0.9,0.5,1.3s0.5,0.7,0.9,0.9c0.4,0.2,0.8,0.3,1.3,0.3c0.3,0,0.6,0,0.9-0.1
					c0.3-0.1,0.6-0.2,0.9-0.4c0.3-0.4,0.5-0.8,0.7-1.3C122.8,152,122.9,151.4,122.9,150.8z"/>
				<path fill="#DB5102" d="M140.1,144.6c0,0.3,0,0.5,0.1,0.8c0,0.3,0.1,0.5,0.1,0.7c0,0.1,0,0.2,0,0.3s-0.1,0.1-0.2,0.1
					c-0.1,0-0.2,0-0.3,0c-0.1,0-0.2,0-0.3,0c-0.1,0-0.2,0-0.2,0.1c0,0-0.1,0.1-0.1,0.2s0,0.1,0,0.2c0,0.1,0,0.1,0,0.2
					c0,0.3,0,0.6,0,0.9c0,0.3,0,0.6,0,0.9c0,0.4,0,0.9-0.1,1.3c0,0.4-0.1,0.8-0.1,1.3c0,0.5,0,1,0,1.5c0,0.5,0,1,0,1.4
					c0,0.3,0,0.6,0,0.9c0,0.3,0,0.6-0.1,0.9c-0.1,0.1-0.2,0.2-0.4,0.2s-0.4,0.1-0.6,0.1c-0.2,0-0.4,0-0.7,0c-0.2,0-0.4,0-0.5,0
					c-0.9-1.1-1.8-2.2-2.7-3.4c-0.9-1.2-1.7-2.4-2.5-3.6c0,0.2-0.1,0.5-0.1,0.7c0,0.2,0,0.5,0,0.7c0,0.4,0,0.8,0,1.2s0,0.8,0,1.2
					c0,0.2,0,0.4,0,0.6s0,0.4,0,0.6c0.1,0,0.2,0,0.3,0c0.1,0,0.2,0,0.3,0c0.1,0,0.2,0,0.3,0s0.2,0,0.2,0c0.1,0,0.1,0.1,0.2,0.2
					c0,0.1,0,0.2,0,0.3c0,0.1,0,0.3,0,0.4c0,0.1,0,0.3,0,0.4c0,0.2,0,0.3,0,0.4s-0.2,0.1-0.4,0.1c-0.2,0-0.3,0-0.5,0s-0.3,0-0.5,0
					c-0.2,0-0.3,0-0.5,0.1c-0.2,0-0.4,0.1-0.6,0.1c-0.3,0-0.5,0-0.8,0s-0.5,0-0.8,0c-0.2,0-0.3,0-0.5,0c-0.2,0-0.3,0-0.5,0.1
					c0-0.1,0-0.1,0-0.2s0-0.1,0-0.2c0-0.2,0-0.4,0-0.6c0-0.2,0-0.4,0-0.6c0-0.2,0-0.3,0.1-0.3s0.3,0,0.6,0c0.1,0,0.2,0,0.3,0
					c0.1,0,0.2,0,0.3,0.1c0-0.3,0.1-0.7,0.1-1c0-0.3,0-0.7,0-1c0-0.8,0-1.6-0.1-2.3s-0.1-1.5-0.1-2.2c0-0.2,0-0.4,0-0.6s0-0.4,0-0.6
					c-0.1-0.1-0.1-0.1-0.2-0.1c-0.1,0-0.2,0-0.2,0c-0.1,0-0.2,0-0.4,0c-0.1,0-0.2,0-0.4,0c-0.2,0-0.3,0-0.4-0.1c0-0.2,0-0.4,0-0.6
					c0-0.2,0-0.4,0-0.6c0-0.2,0-0.3,0.1-0.5c0-0.1,0.1-0.3,0.3-0.3c0.2,0.1,0.3,0.1,0.5,0.1c0.2,0,0.4,0,0.6,0c0.3,0,0.5,0,0.8,0
					c0.3,0,0.5,0,0.8,0c0.2,0,0.3,0,0.5,0c0.2,0,0.3,0,0.4,0.1c0.9,1.2,1.7,2.3,2.6,3.4c0.9,1.1,1.8,2.3,2.7,3.4
					c0.1-0.4,0.1-0.8,0.1-1.2c0-0.5,0-1.1-0.1-1.7c-0.1-0.6-0.1-1.2-0.1-1.8v-0.2c-0.1,0-0.1,0-0.2,0c-0.1,0-0.2,0-0.2,0
					c-0.1,0-0.2,0-0.2,0c-0.1,0-0.1,0-0.2,0c-0.1,0-0.1-0.1-0.2-0.2c0-0.3,0.1-0.5,0.1-0.8c0-0.3,0-0.6,0-0.8c0-0.1,0.1-0.1,0.2-0.1
					c0.1,0,0.2,0,0.4,0h0.2c0.2,0,0.5,0,0.7,0c0.3,0,0.5,0,0.8,0c0.4,0,0.8,0,1.2,0C139.5,144.5,139.8,144.5,140.1,144.6z"/>
				<path fill="#DB5102" d="M153,148c-0.1,0.1-0.3,0.1-0.5,0.1c-0.2,0-0.4,0-0.7,0s-0.4,0-0.6,0c-0.2,0-0.3,0-0.4-0.1
					c0,0,0-0.1,0-0.2s0-0.2,0-0.4s0-0.3,0-0.4c0-0.2,0-0.3,0-0.4c-0.2,0-0.3,0-0.4,0c-0.1,0-0.2,0-0.3,0c-0.1,0-0.2,0-0.4,0
					c-0.1,0-0.3,0-0.6,0c0,0.6,0,1.1,0,1.6c0.1,0.5,0.1,1,0.1,1.6c0,0.4,0,0.7,0,1.1c0,0.4,0,0.7-0.1,1.1s0,0.7,0,1.1
					c0,0.4,0,0.7,0.1,1.1c0.2,0,0.3,0,0.5,0s0.3,0,0.5,0c0.1,0.1,0.1,0.3,0.1,0.4c0,0.1,0,0.3,0,0.5c0,0.2,0,0.4,0,0.5
					c0,0.2,0,0.4,0,0.6c-0.1,0.1-0.2,0.2-0.4,0.2c-0.2,0-0.4,0-0.6,0c-0.2,0-0.4,0-0.7,0c-0.3,0-0.5,0-0.8,0s-0.6,0-0.8,0
					c-0.3,0-0.5,0-0.7,0c-0.1,0-0.2,0-0.3,0c-0.1,0-0.2,0-0.4,0s-0.2,0-0.3,0s-0.2,0-0.2,0c-0.1,0-0.1,0-0.1-0.1c0,0,0-0.1,0-0.1
					c0,0,0-0.1,0-0.1c0,0,0-0.1,0-0.2c0.1-0.3,0.1-0.5,0.1-0.7c0-0.2,0-0.5-0.1-0.7c0-0.1,0.1-0.1,0.2-0.2c0.1,0,0.2-0.1,0.3-0.1
					c0.1,0,0.2,0,0.4,0c0.1,0,0.2,0,0.3,0c0.1-1.2,0.2-2.4,0.2-3.7c0-1.3-0.1-2.5-0.2-3.9c-0.3-0.1-0.5-0.1-0.8-0.1
					c-0.3,0-0.5,0-0.9,0c0,0.2,0,0.3,0,0.4c0,0.1,0,0.2,0,0.3s0,0.2,0,0.3c0,0.1,0,0.2,0,0.4c-0.1,0-0.3,0.1-0.5,0.1
					c-0.2,0-0.4,0-0.6,0s-0.4,0-0.7,0s-0.4,0-0.6-0.1c0-0.5,0.1-1.1,0-1.7c0-0.6-0.1-1.2-0.2-1.7c0.8-0.1,1.7-0.2,2.5-0.2
					c0.8,0,1.6,0,2.4,0c0.8,0,1.6,0,2.4,0.1c0.8,0,1.6,0,2.5,0c0.1,0,0.2,0,0.4,0s0.3,0,0.4,0c0.1,0,0.3,0,0.4,0.1
					c0.1,0,0.2,0.1,0.2,0.1c0,0.1,0.1,0.3,0.1,0.6c0,0.2,0,0.4,0,0.6c0,0.4,0,0.7,0.1,1.1C153.1,147.3,153.1,147.7,153,148z"/>
				<path fill="#DB5102" d="M167.4,144.5c0,0.1,0,0.2,0,0.4c0,0.2,0,0.4,0,0.6c0,0.2,0,0.4,0,0.6c0,0.2-0.1,0.3-0.1,0.3
					c0,0-0.1,0-0.3,0c-0.2,0-0.3,0-0.5,0c-0.1,0.4-0.1,0.7-0.1,1.1c0,0.3,0,0.7,0,1c0,0.3,0,0.7,0,1c0,0.3,0,0.7,0,1.1
					c0,0.2,0,0.3,0,0.5c0,0.1,0,0.3,0,0.5c0,0.5,0,0.9-0.1,1.3c-0.1,0.4-0.1,0.9-0.1,1.4c0.5,0.1,1,0.1,1.4,0.1c0.5,0,0.9,0,1.3,0
					c0-0.1,0.1-0.3,0.1-0.4c0-0.1,0-0.2,0-0.3s0-0.2,0-0.3s0-0.2,0.1-0.2c0.1-0.1,0.3-0.1,0.5-0.1c0.2,0,0.4,0,0.7,0s0.4,0,0.6,0.1
					c0.2,0,0.4,0.1,0.5,0.1c0,0.3,0,0.6,0,0.8c0,0.3,0,0.5,0,0.8c0,0.3,0,0.5,0,0.8c0,0.2,0,0.5-0.1,0.7c-0.2,0-0.5,0.1-0.8,0.1
					c-0.3,0-0.7,0-1,0c-0.4,0-0.7,0-1.1,0s-0.8,0-1.1,0c-0.7,0.1-1.4,0.1-2.1,0c-0.8,0-1.5-0.1-2.3-0.1c-0.1-0.1-0.2-0.1-0.2-0.2
					c-0.1-0.1-0.1-0.1-0.1-0.2c0-0.1,0-0.2,0-0.3s0.1-0.3,0-0.4c0-0.1,0-0.2,0-0.3c0-0.1,0-0.2,0-0.2c0-0.2,0.1-0.4,0.3-0.4
					c0.2,0,0.4,0,0.6,0c0-0.4,0-0.9,0-1.4s0-1,0-1.6c0-0.5,0-1,0-1.5s0-0.8,0.1-1.1c0-0.4,0-0.8,0-1.2c0-0.4,0-0.8-0.1-1.2
					c-0.1,0-0.1-0.1-0.2-0.1s-0.2,0-0.3,0c-0.1,0-0.2,0-0.3,0c-0.1,0-0.2,0-0.2-0.1c0-0.1,0-0.2,0-0.4s0-0.3,0-0.5
					c0-0.2,0-0.3,0.1-0.5c0-0.2,0-0.3,0-0.4c0.1-0.1,0.2-0.1,0.4-0.1s0.3,0,0.4,0s0.3,0,0.5,0.1s0.3,0,0.5,0c0.2,0,0.4,0,0.6,0
					c0.2,0,0.4,0,0.5,0c0.1,0,0.3,0,0.4,0c0.2,0,0.3,0,0.5,0s0.3,0,0.5,0C167.1,144.4,167.3,144.5,167.4,144.5z"/>
				<path fill="#DB5102" d="M182.9,148c-0.1,0.1-0.3,0.1-0.5,0.1c-0.2,0-0.4,0-0.7,0c-0.2,0-0.4,0-0.6,0c-0.2,0-0.3,0-0.4-0.1
					c0,0,0-0.1,0-0.2s0-0.2,0-0.4s0-0.3,0-0.4c0-0.2,0-0.3,0-0.4c-0.2,0-0.3,0-0.4,0c-0.1,0-0.2,0-0.3,0c-0.1,0-0.2,0-0.4,0
					c-0.1,0-0.3,0-0.6,0c0,0.6,0,1.1,0,1.6c0.1,0.5,0.1,1,0.1,1.6c0,0.4,0,0.7,0,1.1c0,0.4,0,0.7-0.1,1.1s0,0.7,0,1.1
					c0,0.4,0,0.7,0.1,1.1c0.2,0,0.3,0,0.5,0s0.3,0,0.5,0c0.1,0.1,0.1,0.3,0.1,0.4c0,0.1,0,0.3,0,0.5c0,0.2,0,0.4,0,0.5
					c0,0.2,0,0.4,0,0.6c-0.1,0.1-0.2,0.2-0.4,0.2c-0.2,0-0.4,0-0.6,0c-0.2,0-0.4,0-0.7,0c-0.3,0-0.5,0-0.8,0s-0.6,0-0.8,0
					c-0.3,0-0.5,0-0.7,0c-0.1,0-0.2,0-0.3,0s-0.2,0-0.4,0s-0.2,0-0.3,0c-0.1,0-0.2,0-0.2,0c-0.1,0-0.1,0-0.1-0.1c0,0,0-0.1,0-0.1
					c0,0,0-0.1,0-0.1c0,0,0-0.1,0-0.2c0.1-0.3,0.1-0.5,0.1-0.7c0-0.2,0-0.5-0.1-0.7c0-0.1,0.1-0.1,0.2-0.2c0.1,0,0.2-0.1,0.3-0.1
					s0.2,0,0.4,0c0.1,0,0.2,0,0.3,0c0.1-1.2,0.2-2.4,0.2-3.7c0-1.3-0.1-2.5-0.2-3.9c-0.3-0.1-0.5-0.1-0.8-0.1s-0.5,0-0.9,0
					c0,0.2,0,0.3,0,0.4c0,0.1,0,0.2,0,0.3s0,0.2,0,0.3c0,0.1,0,0.2,0,0.4c-0.1,0-0.3,0.1-0.5,0.1s-0.4,0-0.6,0c-0.2,0-0.4,0-0.7,0
					s-0.4,0-0.6-0.1c0-0.5,0.1-1.1,0-1.7c0-0.6-0.1-1.2-0.2-1.7c0.8-0.1,1.7-0.2,2.5-0.2c0.8,0,1.6,0,2.4,0s1.6,0,2.4,0.1
					c0.8,0,1.6,0,2.5,0c0.1,0,0.2,0,0.4,0s0.3,0,0.4,0c0.1,0,0.3,0,0.4,0.1c0.1,0,0.2,0.1,0.2,0.1c0,0.1,0.1,0.3,0.1,0.6
					s0,0.4,0,0.6c0,0.4,0,0.7,0.1,1.1C183,147.3,183,147.7,182.9,148z"/>
				<path fill="#DB5102" d="M184.9,156.3c0-0.1,0-0.2,0-0.3s0-0.3,0-0.5c0-0.2,0-0.4,0-0.6s0-0.4,0-0.5c0.1-0.2,0.3-0.3,0.5-0.3
					c0.2,0,0.5,0,0.7,0.1c0-0.6,0-1.2,0-1.8c0-0.6-0.1-1.2-0.1-1.9c0-0.6-0.1-1.3-0.1-1.9c0-0.7,0-1.4,0.1-2.1c-0.2,0-0.4,0-0.6,0
					s-0.4,0-0.5-0.1c0-0.1,0-0.3,0-0.5c0-0.2,0-0.4,0-0.6c0-0.1,0-0.2,0-0.4s0-0.2,0-0.4c0-0.1,0.1-0.1,0.1-0.1c0,0,0,0,0.1,0
					c0.1,0,0.2,0,0.4,0s0.3,0,0.4,0c0.5,0,1,0,1.4,0c0.4,0,0.9,0,1.3,0s0.9,0,1.3,0s0.9,0,1.4,0.1c0.6,0.1,1.1,0.2,1.7,0.3
					c0.6,0.1,1,0.3,1.4,0.6c0.4,0.3,0.8,0.6,1.1,1c0.3,0.4,0.6,0.8,0.8,1.3c0.1,0.3,0.2,0.6,0.2,1c0,0.4,0.1,0.8,0.1,1.2
					s0,0.8-0.1,1.2c-0.1,0.4-0.1,0.7-0.2,1c-0.1,0.6-0.2,1.1-0.5,1.5c-0.2,0.4-0.5,0.8-0.7,1.2c-0.1,0.1-0.2,0.3-0.4,0.4
					s-0.3,0.3-0.5,0.4c-0.2,0.1-0.4,0.2-0.6,0.3s-0.4,0.2-0.6,0.2c-0.2,0.1-0.5,0.1-0.8,0.1c-0.3,0-0.6,0.1-0.8,0.1
					c-0.3,0.1-0.6,0.1-0.9,0.1c-0.3,0-0.6,0-0.9,0s-0.6,0-0.9-0.1c-0.3,0-0.6,0-0.9,0c-0.5,0-1,0.1-1.5,0.1
					C185.8,156.5,185.3,156.5,184.9,156.3z M192.1,153.8c0.3-0.2,0.6-0.4,0.7-0.8c0.2-0.4,0.3-0.8,0.4-1.2c0.1-0.4,0.1-0.8,0.1-1.2
					c0-0.4,0-0.8-0.1-1.2c0-0.4-0.1-0.7-0.2-1c-0.1-0.3-0.3-0.6-0.4-0.8c-0.3-0.2-0.6-0.4-0.9-0.6c-0.3-0.2-0.7-0.3-1-0.3
					c-0.4,0-0.7,0-1-0.1s-0.6,0-0.9,0.2c-0.1,0.7-0.1,1.3-0.1,2s0,1.3,0,2c0,0.7,0,1.3,0.1,1.9c0,0.6,0,1.2,0,1.8
					c0.6,0.1,1.2,0.1,1.7,0S191.6,154.2,192.1,153.8z"/>
				<path fill="#DB5102" d="M200.7,151.8c0.4,0,0.7,0,1,0.1s0.5,0.2,0.7,0.4c0.3,0.2,0.6,0.6,0.7,1c0.1,0.4,0.2,0.9,0.1,1.3
					c-0.1,0.4-0.2,0.8-0.5,1.2c-0.3,0.3-0.6,0.6-1.1,0.6c-0.2,0-0.4,0.1-0.6,0.1c-0.2,0-0.5,0-0.7,0c-0.2,0-0.5-0.1-0.7-0.1
					c-0.2-0.1-0.4-0.1-0.5-0.2c-0.3-0.3-0.5-0.7-0.5-1.2c0-0.5,0-0.9,0.2-1.3c0.2-0.4,0.4-0.8,0.8-1.1
					C199.9,152.1,200.3,151.9,200.7,151.8z"/>
			</g>
		</g>
		<g>
			<path fill="#F7E588" d="M37.9,144.1c0,0.2,0,0.3-0.1,0.5c0,0.2,0,0.3,0,0.5c0,0.2,0,0.5,0,0.7c0,0.2,0,0.5,0,0.7
				c0,0.1,0,0.2,0,0.3s0,0.2,0,0.2s-0.1,0.1-0.1,0.2c-0.1,0-0.1,0.1-0.2,0.1c-0.2,0-0.4,0-0.7,0c-0.3,0-0.5,0-0.7,0
				c-0.1,0-0.2,0-0.3,0c-0.1,0-0.2,0-0.3,0c-0.1,0-0.2-0.1-0.2-0.2c0-0.1,0-0.2,0-0.4c0-0.1,0-0.2,0-0.3c0-0.1,0-0.2,0-0.4v-0.2
				c-0.2,0-0.3,0-0.5,0c-0.2,0-0.4,0-0.6,0c-0.3,0-0.5,0-0.8,0s-0.5,0.1-0.7,0.1c-0.2,0.1-0.4,0.2-0.5,0.3c-0.1,0.1-0.2,0.3-0.2,0.5
				c0,0.3,0.1,0.5,0.4,0.7s0.6,0.3,0.9,0.4c0.4,0.1,0.8,0.2,1.1,0.4s0.7,0.2,1,0.3c0.3,0.1,0.6,0.2,0.9,0.3c0.3,0.1,0.5,0.3,0.7,0.5
				c0.4,0.2,0.8,0.6,1.1,1c0.3,0.5,0.4,1,0.4,1.6c0,0.4-0.1,0.7-0.2,1c-0.1,0.3-0.3,0.6-0.4,0.9s-0.4,0.5-0.7,0.8
				c-0.3,0.2-0.5,0.4-0.8,0.6c-0.2,0.1-0.4,0.2-0.7,0.3s-0.5,0.1-0.8,0.2c-0.2,0.1-0.5,0.1-0.8,0.1s-0.6,0-0.9,0
				c-0.4,0-0.9,0-1.3-0.1s-0.8-0.1-1.2-0.2c-0.4-0.1-0.7-0.2-0.9-0.3c-0.3-0.1-0.5-0.2-0.6-0.3c0-0.4,0-0.7,0-1.1s0-0.7,0-1
				c0-0.2,0-0.3,0-0.4c0-0.1,0-0.3,0-0.4c0.2,0,0.6,0,0.9-0.1s0.7,0,1.1,0c0.2,0,0.4,0,0.5,0s0.2,0,0.2,0.1s0.1,0.1,0.1,0.1
				c0,0,0,0.1,0,0.2c0,0.1,0,0.2,0,0.4c0,0.1,0,0.3,0,0.4c0,0.2,0,0.3,0.1,0.5c0.4,0,0.8,0,1.1,0s0.6,0,0.9,0c0.3,0,0.5-0.1,0.8-0.2
				c0.2-0.1,0.4-0.2,0.6-0.4c0.1-0.1,0.1-0.2,0.2-0.3s0.1-0.2,0.1-0.3c0-0.2-0.1-0.4-0.3-0.6c-0.2-0.2-0.4-0.3-0.7-0.4
				c-0.3-0.1-0.6-0.2-0.9-0.3c-0.3-0.1-0.6-0.2-1-0.3c-0.3-0.1-0.6-0.2-0.9-0.3c-0.3-0.1-0.5-0.2-0.6-0.3c-0.1-0.1-0.2-0.1-0.4-0.2
				c-0.1-0.1-0.3-0.2-0.4-0.2s-0.3-0.2-0.4-0.3c-0.1-0.1-0.2-0.2-0.3-0.3c-0.1-0.1-0.2-0.2-0.3-0.4c-0.1-0.2-0.1-0.3-0.2-0.5
				c-0.1-0.2-0.1-0.4-0.1-0.6s0-0.4,0-0.5c0-0.4,0.1-0.7,0.1-0.9c0.1-0.3,0.2-0.5,0.3-0.7c0.1-0.2,0.3-0.4,0.4-0.6
				c0.2-0.2,0.4-0.4,0.7-0.6c0.2-0.1,0.4-0.3,0.7-0.4s0.5-0.2,0.8-0.2c0.3-0.1,0.6-0.1,0.8-0.1s0.5,0,0.8,0c0.3,0,0.6,0,1,0.1
				c0.4,0,0.8,0.1,1.2,0.2c0.4,0.1,0.8,0.1,1.1,0.2C37.4,143.9,37.7,144,37.9,144.1z"/>
			<path fill="#F7E588" d="M51,147.1c-0.1,0.1-0.3,0.1-0.5,0.1c-0.2,0-0.4,0-0.7,0s-0.4,0-0.6,0c-0.2,0-0.3,0-0.4-0.1
				c0,0,0-0.1,0-0.2s0-0.2,0-0.4s0-0.3,0-0.4c0-0.2,0-0.3,0-0.4c-0.2,0-0.3,0-0.4,0c-0.1,0-0.2,0-0.3,0c-0.1,0-0.2,0-0.4,0
				c-0.1,0-0.3,0-0.6,0c0,0.6,0,1.1,0,1.6c0.1,0.5,0.1,1,0.1,1.6c0,0.4,0,0.7,0,1.1c0,0.4,0,0.7-0.1,1.1s0,0.7,0,1.1
				c0,0.4,0,0.7,0.1,1.1c0.2,0,0.3,0,0.5,0s0.3,0,0.5,0c0.1,0.1,0.1,0.3,0.1,0.4c0,0.1,0,0.3,0,0.5c0,0.2,0,0.4,0,0.5
				c0,0.2,0,0.4,0,0.6c-0.1,0.1-0.2,0.2-0.4,0.2c-0.2,0-0.4,0-0.6,0c-0.2,0-0.4,0-0.7,0c-0.3,0-0.5,0-0.8,0s-0.6,0-0.8,0
				c-0.3,0-0.5,0-0.7,0c-0.1,0-0.2,0-0.3,0c-0.1,0-0.2,0-0.4,0s-0.2,0-0.3,0s-0.2,0-0.2,0c-0.1,0-0.1,0-0.1-0.1c0,0,0-0.1,0-0.1
				c0,0,0-0.1,0-0.1c0,0,0-0.1,0-0.2c0.1-0.3,0.1-0.5,0.1-0.7c0-0.2,0-0.5-0.1-0.7c0-0.1,0.1-0.1,0.2-0.2c0.1,0,0.2-0.1,0.3-0.1
				c0.1,0,0.2,0,0.4,0c0.1,0,0.2,0,0.3,0c0.1-1.2,0.2-2.4,0.2-3.7c0-1.3-0.1-2.5-0.2-3.9c-0.3-0.1-0.5-0.1-0.8-0.1
				c-0.3,0-0.5,0-0.9,0c0,0.2,0,0.3,0,0.4c0,0.1,0,0.2,0,0.3s0,0.2,0,0.3c0,0.1,0,0.2,0,0.4c-0.1,0-0.3,0.1-0.5,0.1
				c-0.2,0-0.4,0-0.6,0s-0.4,0-0.7,0s-0.4,0-0.6-0.1c0-0.5,0.1-1.1,0-1.7c0-0.6-0.1-1.2-0.2-1.7c0.8-0.1,1.7-0.2,2.5-0.2
				c0.8,0,1.6,0,2.4,0c0.8,0,1.6,0,2.4,0.1c0.8,0,1.6,0,2.5,0c0.1,0,0.2,0,0.4,0s0.3,0,0.4,0c0.1,0,0.3,0,0.4,0.1
				c0.1,0,0.2,0.1,0.2,0.1c0,0.1,0.1,0.3,0.1,0.6c0,0.2,0,0.4,0,0.6c0,0.4,0,0.7,0.1,1.1C51.2,146.4,51.1,146.8,51,147.1z"/>
			<path fill="#F7E588" d="M59.4,155.6c-0.1,0-0.3,0-0.5,0s-0.3,0-0.5,0c-0.8,0-1.5-0.1-2.1-0.3c-0.6-0.2-1.2-0.5-1.6-0.9
				c-0.1,0-0.1-0.1-0.2-0.2c-0.1-0.1-0.2-0.2-0.2-0.3c-0.1-0.1-0.2-0.2-0.2-0.3c-0.1-0.1-0.1-0.2-0.2-0.3c-0.1-0.1-0.2-0.3-0.4-0.6
				c-0.1-0.3-0.2-0.6-0.3-0.9c-0.1-0.3-0.2-0.7-0.2-1c-0.1-0.4-0.1-0.7-0.1-1.1c0-0.5,0.1-1,0.2-1.5c0.1-0.5,0.3-1.1,0.5-1.6
				c0.2-0.5,0.5-1,0.9-1.4c0.4-0.4,0.8-0.7,1.2-1c0.5-0.3,1-0.5,1.5-0.6c0.5-0.1,1-0.2,1.6-0.2c0.5,0,1,0.1,1.5,0.1
				c0.5,0.1,1,0.2,1.4,0.5c1,0.6,1.8,1.4,2.2,2.4c0.4,1,0.6,2.1,0.6,3.4c0,0.4,0,0.7,0,1c0,0.3-0.1,0.7-0.1,1
				c-0.2,0.5-0.4,1-0.7,1.4c-0.2,0.4-0.5,0.8-1,1.1c-0.2,0.2-0.4,0.3-0.6,0.4c-0.2,0.1-0.5,0.3-0.7,0.4c-0.3,0.1-0.5,0.2-0.8,0.3
				C60.1,155.5,59.7,155.5,59.4,155.6z M61.5,149.9c0-0.1,0-0.3,0-0.4c0-0.1,0-0.3,0-0.4c0-0.2,0-0.5-0.1-0.8
				c-0.1-0.3-0.2-0.6-0.3-0.8s-0.3-0.5-0.4-0.8s-0.3-0.4-0.5-0.6c-0.1-0.1-0.2-0.2-0.3-0.2c-0.1-0.1-0.3-0.2-0.4-0.2
				c-0.1-0.1-0.3-0.1-0.4-0.2c-0.1,0-0.3-0.1-0.4-0.1c-0.3,0-0.7,0.1-1,0.3s-0.6,0.5-0.9,0.9c-0.3,0.4-0.5,0.8-0.6,1.2
				c-0.2,0.5-0.2,0.9-0.2,1.4c0,0.6,0.1,1.1,0.2,1.6s0.3,0.9,0.5,1.3s0.5,0.7,0.9,0.9c0.4,0.2,0.8,0.3,1.3,0.3c0.3,0,0.6,0,0.9-0.1
				c0.3-0.1,0.6-0.2,0.9-0.4c0.3-0.4,0.5-0.8,0.7-1.3C61.4,151.1,61.4,150.5,61.5,149.9z"/>
			<path fill="#F7E588" d="M73.6,150.1c0.2,0.1,0.3,0.3,0.5,0.4c0.1,0.2,0.2,0.3,0.3,0.4c0.2,0.2,0.3,0.5,0.4,0.7
				c0.1,0.3,0.2,0.5,0.4,0.8s0.3,0.4,0.5,0.6c0.2,0.2,0.4,0.3,0.8,0.3c0.2,0,0.4,0,0.6,0c0,0.2,0.1,0.3,0.1,0.5s0,0.4,0,0.5
				c0,0.2,0,0.3,0,0.5c0,0.2-0.1,0.3-0.1,0.4c-0.3,0-0.6,0.1-0.9,0.1s-0.7,0-1.1,0c-0.4,0-0.7-0.1-1-0.2c-0.3-0.1-0.5-0.3-0.6-0.5
				c0,0,0-0.1-0.1-0.1c0-0.1-0.1-0.1-0.1-0.2s-0.1-0.2-0.1-0.2c0-0.1-0.1-0.1-0.1-0.2c-0.1-0.3-0.3-0.5-0.4-0.8
				c-0.1-0.3-0.3-0.6-0.5-0.8c-0.2-0.3-0.3-0.5-0.5-0.8s-0.3-0.5-0.5-0.7c-0.2,0-0.4,0-0.5,0c-0.2,0-0.3,0-0.4,0c0,0.2,0,0.4,0,0.6
				c0,0.2,0,0.3,0,0.5c0,0.2,0,0.3,0,0.5c0,0.2,0,0.4,0,0.6c0.1,0,0.2,0,0.3,0s0.2,0,0.2,0s0.2,0,0.2,0c0.1,0,0.2,0,0.2,0.1
				c0.1,0.1,0.2,0.2,0.2,0.3s0,0.3,0,0.5c0,0.2,0,0.4-0.1,0.6c0,0.2,0,0.4,0,0.5c-0.1,0.1-0.1,0.2-0.1,0.2c0,0-0.1,0.1-0.2,0.1
				c-0.1,0-0.1,0-0.2,0s-0.2,0-0.3,0c-0.2,0-0.3,0-0.6,0c-0.2,0-0.5,0-0.7,0c-0.3,0-0.5,0-0.8,0s-0.5,0-0.6,0c-0.1,0-0.2,0-0.4,0
				c-0.1,0-0.3,0-0.4,0c-0.1,0-0.3,0-0.4,0s-0.2,0-0.2,0c-0.1,0-0.1-0.1-0.1-0.2c0-0.1-0.1-0.2-0.1-0.3c0-0.1,0-0.2,0-0.4
				c0-0.1,0-0.3,0-0.5c0-0.2,0-0.3,0-0.5s0-0.3,0-0.5c0.1-0.1,0.1-0.1,0.2-0.1c0.1,0,0.2,0,0.2,0c0.1,0,0.2,0.1,0.3,0.1
				c0.1,0,0.2,0,0.3,0c0-0.7,0.1-1.3,0.1-1.9c0-0.6,0-1.2,0-1.8s0-1.2-0.1-1.9c0-0.6,0-1.3-0.1-2.1c-0.2,0-0.3-0.1-0.4,0
				c-0.1,0-0.2,0-0.4,0c-0.1,0-0.2,0-0.2,0c0,0-0.1,0-0.1-0.1c0-0.1,0-0.3,0-0.4c0-0.2,0-0.3,0-0.5s0-0.3,0-0.5c0-0.2,0-0.3,0-0.4
				c0.2-0.1,0.4-0.1,0.7-0.1s0.6,0,1,0c0.3,0,0.7,0,1,0c0.3,0,0.6,0,1,0c0.3,0,0.6,0,0.9,0c0.3,0,0.7,0,1,0s0.7,0,1,0.1
				s0.6,0.1,0.9,0.1c0.2,0,0.3,0.1,0.5,0.2c0.2,0.1,0.4,0.2,0.6,0.3c0.2,0.1,0.3,0.3,0.5,0.4c0.1,0.2,0.3,0.3,0.3,0.5
				c0.2,0.4,0.3,0.7,0.3,1.1c0.1,0.3,0.1,0.7,0,1.2c-0.1,0.4-0.2,0.8-0.4,1.2c-0.2,0.4-0.4,0.7-0.7,0.9c-0.2,0.2-0.4,0.3-0.5,0.4
				C74,149.9,73.8,150,73.6,150.1z M71.4,148.8c0.2,0,0.4,0,0.6-0.1c0.2-0.1,0.4-0.2,0.6-0.3s0.3-0.3,0.5-0.5
				c0.1-0.2,0.2-0.4,0.2-0.7c0-0.2,0-0.4-0.1-0.7c-0.1-0.3-0.2-0.4-0.3-0.6c-0.1-0.1-0.3-0.1-0.4-0.1c-0.2,0-0.3-0.1-0.5-0.1
				c-0.4-0.1-0.7-0.1-1-0.1c-0.3,0-0.6,0-0.9,0.1v3.1c0.2,0,0.5,0.1,0.7,0.1C70.9,148.8,71.2,148.8,71.4,148.8z"/>
			<path fill="#F7E588" d="M85.5,145.5c-0.2,0-0.4,0-0.7,0c-0.2,0-0.5,0-0.7,0c-0.2,0-0.5,0-0.7,0c-0.2,0-0.5,0-0.6,0.1
				c0,0.5,0,1,0.1,1.4c0.1,0.4,0,0.9-0.1,1.3c0.2,0,0.4,0.1,0.7,0c0.3,0,0.5,0,0.8,0c0.3,0,0.5,0,0.8,0c0.3,0,0.5,0,0.8,0.1
				c0.1,0.1,0.1,0.3,0.1,0.4c0,0.2,0,0.3,0,0.5s0,0.3,0,0.5s0,0.3,0.1,0.4c-0.1,0-0.1,0-0.1,0.1c-0.1,0.1-0.2,0.1-0.3,0.1
				s-0.2,0-0.3,0s-0.2,0-0.3,0s-0.2,0-0.3,0c-0.2,0-0.5,0-0.8,0.1c-0.3,0-0.6,0-0.9-0.1c-0.1,0.5-0.1,1,0,1.5c0.1,0.5,0.1,1,0,1.5
				c0.4,0.1,0.9,0.1,1.4,0.1c0.5,0,1,0,1.5-0.1c0-0.2,0-0.4,0-0.5c0-0.2-0.1-0.3-0.1-0.5c0-0.1,0.1-0.2,0.2-0.3
				c0.1-0.1,0.1-0.2,0.2-0.2c0.1,0,0.3,0,0.5,0c0.2,0,0.4,0,0.6,0c0.2,0,0.4,0,0.6,0s0.4,0.1,0.6,0.1c0,0.2,0,0.3,0,0.5
				c0,0.2,0,0.4-0.1,0.6c0,0.2,0,0.4-0.1,0.6c0,0.2,0,0.4,0,0.6c0,0.1,0,0.3,0.1,0.5s0,0.4,0,0.6c-0.1,0.1-0.2,0.1-0.4,0.1
				c-0.1,0-0.3,0-0.4,0c-0.2,0-0.5,0-0.7,0.1c-0.2,0-0.5,0.1-0.7,0.1c-0.1,0-0.3,0-0.5,0c-0.2,0-0.4,0-0.6,0s-0.4,0-0.6,0
				s-0.3,0-0.5,0c-0.8,0-1.5,0-2.3,0c-0.8,0-1.5,0-2.3,0c-0.2-0.1-0.3-0.2-0.3-0.4c0-0.2-0.1-0.3-0.1-0.5s0-0.4,0-0.6
				c0-0.2,0-0.4,0-0.7c0.1-0.1,0.3-0.1,0.4-0.1c0.2,0,0.3,0,0.5,0c0.1-1.2,0.1-2.5,0.1-3.7c0-1.2,0-2.5-0.1-3.9c-0.2,0-0.4,0-0.5,0
				c-0.2,0-0.3,0-0.4,0c0,0,0-0.1,0-0.2c0-0.1,0-0.3,0-0.5c0-0.2,0-0.3,0-0.5c0-0.2-0.1-0.3-0.1-0.4c0.1,0,0.1-0.1,0.1-0.2
				s0-0.1,0-0.2c0.3-0.1,0.7-0.1,1.1-0.1c0.4,0,0.8,0,1.1,0c0.5,0,1-0.1,1.5,0c0.5,0,1,0,1.5,0c0.3,0,0.6,0,0.9,0.1s0.7,0,0.9,0
				c0.1,0,0.3,0,0.5,0c0.2,0,0.4,0,0.6-0.1c0.2,0,0.4,0,0.6,0c0.2,0,0.3,0.1,0.4,0.1c0.1,0.1,0.1,0.2,0.2,0.3c0,0.1,0,0.3,0,0.5
				c0,0.2-0.1,0.3-0.1,0.5c0,0.2-0.1,0.3-0.1,0.5c0,0.1,0,0.3,0,0.4c0,0.1,0,0.3,0.1,0.4s0,0.3,0,0.4c0,0.1,0,0.2-0.1,0.3
				c-0.2,0-0.4,0-0.7,0c-0.3,0-0.5,0-0.8,0.1c-0.2,0-0.5,0-0.6,0c-0.2,0-0.3-0.1-0.3-0.2c0-0.2,0-0.3,0-0.6S85.5,145.8,85.5,145.5z"
				/>
			<path fill="#F7E588" d="M99.2,143.7c0,0.3,0.1,0.5,0,0.8c0,0.2,0,0.5,0,0.8c0,0.2,0,0.4,0,0.7c0.1,0.2,0.1,0.4,0,0.6
				c0,0.1-0.1,0.2-0.2,0.2c-0.1,0-0.2,0.1-0.2,0.2c-0.3,0.1-0.7,0.1-1,0.2c-0.4,0-0.7-0.1-1-0.3c0-0.2,0-0.4,0-0.6
				c0-0.2,0-0.3,0-0.6c-0.3,0-0.5,0-0.7-0.1c-0.2,0-0.4,0-0.6,0c-0.2,0-0.4,0-0.5,0c-0.2,0-0.4,0-0.7,0.1c0,0.4,0,0.9,0,1.4
				s0,1-0.1,1.4c0.2,0,0.4,0,0.7,0s0.5,0,0.8,0s0.5,0,0.8,0s0.5,0.1,0.7,0.1c0,0.1,0,0.3,0,0.5c0,0.2,0,0.3,0,0.5s0,0.3,0,0.5
				c0,0.2-0.1,0.3-0.1,0.4c-0.1,0-0.2,0-0.3,0s-0.1-0.1-0.2-0.1c-0.2,0.1-0.3,0.1-0.5,0.2c-0.2,0-0.4,0-0.6,0c-0.2,0-0.4,0-0.6,0
				c-0.2,0-0.4,0-0.5,0c0,0.3,0,0.5,0,0.8c0,0.2,0,0.5,0,0.7c0,0.2,0,0.4,0,0.6c0,0.2,0,0.5,0,0.7c0.2,0.1,0.5,0.1,0.7,0.1
				c0.3,0,0.5,0,0.8,0c0.1,0.1,0.1,0.2,0.1,0.3c0,0.1,0,0.1-0.1,0.2c0,0.2,0,0.4,0,0.7c0,0.3,0,0.5,0,0.8c-0.1,0.1-0.2,0.1-0.3,0.1
				c-0.1,0-0.2,0-0.4,0c-0.3,0-0.7,0-1.1,0c-0.4,0-0.8,0-1.2,0.1c-0.3,0-0.6,0-0.9,0c-0.3-0.1-0.6-0.1-0.9,0c-0.1,0-0.1,0-0.2,0.1
				c-0.1,0-0.1,0-0.2,0.1s-0.1,0-0.2,0c-0.1,0-0.1,0-0.2-0.1c0-0.1,0-0.3,0-0.4c0-0.2,0-0.3,0-0.5c0-0.2,0-0.3,0-0.5
				c0-0.2,0-0.3-0.1-0.4c0.2,0,0.4,0,0.6,0c0.2,0,0.4,0,0.5,0c0.1-0.4,0.1-0.8,0-1.2c0-0.4,0-0.8,0-1.3c0-0.5,0-1.1,0.1-1.7
				c0-0.6,0-1.2,0-1.7c0-0.3,0-0.6,0-0.9s0-0.6,0-0.9c-0.1-0.1-0.2-0.1-0.3-0.1c-0.1,0-0.2,0-0.4,0s-0.2,0-0.4,0
				c-0.1,0-0.2,0-0.3-0.1c0-0.1,0-0.3,0-0.5s0-0.3,0-0.5s0-0.3,0-0.5c0-0.2,0-0.3,0-0.4c0.1-0.1,0.2-0.2,0.3-0.1s0.2,0,0.3,0.1
				c0.4,0,0.8,0,1.2,0c0.4,0,0.8,0,1.3,0c0.4,0,0.8,0,1.3,0c0.4,0,0.8,0,1.2,0c0.3,0,0.6,0,0.9,0c0.3,0,0.6,0,0.9,0
				c0.2,0,0.5,0,0.7,0c0.2,0,0.4,0.1,0.5,0.2C98.8,143.7,99,143.6,99.2,143.7z"/>
			<path fill="#F7E588" d="M108.5,150.1c0.2,0.1,0.3,0.3,0.5,0.4c0.1,0.2,0.2,0.3,0.3,0.4c0.2,0.2,0.3,0.5,0.4,0.7
				c0.1,0.3,0.2,0.5,0.4,0.8s0.3,0.4,0.5,0.6c0.2,0.2,0.4,0.3,0.8,0.3c0.2,0,0.4,0,0.6,0c0,0.2,0.1,0.3,0.1,0.5s0,0.4,0,0.5
				c0,0.2,0,0.3,0,0.5c0,0.2-0.1,0.3-0.1,0.4c-0.3,0-0.6,0.1-0.9,0.1s-0.7,0-1.1,0c-0.4,0-0.7-0.1-1-0.2c-0.3-0.1-0.5-0.3-0.6-0.5
				c0,0,0-0.1-0.1-0.1c0-0.1-0.1-0.1-0.1-0.2s-0.1-0.2-0.1-0.2c0-0.1-0.1-0.1-0.1-0.2c-0.1-0.3-0.3-0.5-0.4-0.8
				c-0.1-0.3-0.3-0.6-0.5-0.8c-0.2-0.3-0.3-0.5-0.5-0.8s-0.3-0.5-0.5-0.7c-0.2,0-0.4,0-0.5,0c-0.2,0-0.3,0-0.4,0c0,0.2,0,0.4,0,0.6
				c0,0.2,0,0.3,0,0.5c0,0.2,0,0.3,0,0.5c0,0.2,0,0.4,0,0.6c0.1,0,0.2,0,0.3,0s0.2,0,0.2,0s0.2,0,0.2,0c0.1,0,0.2,0,0.2,0.1
				c0.1,0.1,0.2,0.2,0.2,0.3s0,0.3,0,0.5c0,0.2,0,0.4-0.1,0.6c0,0.2,0,0.4,0,0.5c-0.1,0.1-0.1,0.2-0.1,0.2c0,0-0.1,0.1-0.2,0.1
				c-0.1,0-0.1,0-0.2,0s-0.2,0-0.3,0c-0.2,0-0.3,0-0.6,0c-0.2,0-0.5,0-0.7,0c-0.3,0-0.5,0-0.8,0s-0.5,0-0.6,0c-0.1,0-0.2,0-0.4,0
				c-0.1,0-0.3,0-0.4,0c-0.1,0-0.3,0-0.4,0s-0.2,0-0.2,0c-0.1,0-0.1-0.1-0.1-0.2c0-0.1-0.1-0.2-0.1-0.3c0-0.1,0-0.2,0-0.4
				c0-0.1,0-0.3,0-0.5c0-0.2,0-0.3,0-0.5s0-0.3,0-0.5c0.1-0.1,0.1-0.1,0.2-0.1c0.1,0,0.2,0,0.2,0c0.1,0,0.2,0.1,0.3,0.1
				c0.1,0,0.2,0,0.3,0c0-0.7,0.1-1.3,0.1-1.9c0-0.6,0-1.2,0-1.8s0-1.2-0.1-1.9c0-0.6,0-1.3-0.1-2.1c-0.2,0-0.3-0.1-0.4,0
				c-0.1,0-0.2,0-0.4,0c-0.1,0-0.2,0-0.2,0c0,0-0.1,0-0.1-0.1c0-0.1,0-0.3,0-0.4c0-0.2,0-0.3,0-0.5s0-0.3,0-0.5c0-0.2,0-0.3,0-0.4
				c0.2-0.1,0.4-0.1,0.7-0.1s0.6,0,1,0c0.3,0,0.7,0,1,0c0.3,0,0.6,0,1,0c0.3,0,0.6,0,0.9,0c0.3,0,0.7,0,1,0s0.7,0,1,0.1
				s0.6,0.1,0.9,0.1c0.2,0,0.3,0.1,0.5,0.2c0.2,0.1,0.4,0.2,0.6,0.3c0.2,0.1,0.3,0.3,0.5,0.4c0.1,0.2,0.3,0.3,0.3,0.5
				c0.2,0.4,0.3,0.7,0.3,1.1c0.1,0.3,0.1,0.7,0,1.2c-0.1,0.4-0.2,0.8-0.4,1.2c-0.2,0.4-0.4,0.7-0.7,0.9c-0.2,0.2-0.4,0.3-0.5,0.4
				C109,149.9,108.8,150,108.5,150.1z M106.4,148.8c0.2,0,0.4,0,0.6-0.1c0.2-0.1,0.4-0.2,0.6-0.3s0.3-0.3,0.5-0.5
				c0.1-0.2,0.2-0.4,0.2-0.7c0-0.2,0-0.4-0.1-0.7c-0.1-0.3-0.2-0.4-0.3-0.6c-0.1-0.1-0.3-0.1-0.4-0.1c-0.2,0-0.3-0.1-0.5-0.1
				c-0.4-0.1-0.7-0.1-1-0.1c-0.3,0-0.6,0-0.9,0.1v3.1c0.2,0,0.5,0.1,0.7,0.1C105.9,148.8,106.1,148.8,106.4,148.8z"/>
			<path fill="#F7E588" d="M119.9,155.6c-0.1,0-0.3,0-0.5,0s-0.3,0-0.5,0c-0.8,0-1.5-0.1-2.1-0.3c-0.6-0.2-1.2-0.5-1.6-0.9
				c-0.1,0-0.1-0.1-0.2-0.2c-0.1-0.1-0.2-0.2-0.2-0.3c-0.1-0.1-0.2-0.2-0.2-0.3c-0.1-0.1-0.1-0.2-0.2-0.3c-0.1-0.1-0.2-0.3-0.4-0.6
				c-0.1-0.3-0.2-0.6-0.3-0.9c-0.1-0.3-0.2-0.7-0.2-1c-0.1-0.4-0.1-0.7-0.1-1.1c0-0.5,0.1-1,0.2-1.5c0.1-0.5,0.3-1.1,0.5-1.6
				c0.2-0.5,0.5-1,0.9-1.4c0.4-0.4,0.8-0.7,1.2-1c0.5-0.3,1-0.5,1.5-0.6c0.5-0.1,1-0.2,1.6-0.2c0.5,0,1,0.1,1.5,0.1
				c0.5,0.1,1,0.2,1.4,0.5c1,0.6,1.8,1.4,2.2,2.4c0.4,1,0.6,2.1,0.6,3.4c0,0.4,0,0.7,0,1c0,0.3-0.1,0.7-0.1,1
				c-0.2,0.5-0.4,1-0.7,1.4c-0.2,0.4-0.5,0.8-1,1.1c-0.2,0.2-0.4,0.3-0.6,0.4c-0.2,0.1-0.5,0.3-0.7,0.4c-0.3,0.1-0.5,0.2-0.8,0.3
				C120.6,155.5,120.3,155.5,119.9,155.6z M122,149.9c0-0.1,0-0.3,0-0.4c0-0.1,0-0.3,0-0.4c0-0.2,0-0.5-0.1-0.8
				c-0.1-0.3-0.2-0.6-0.3-0.8s-0.3-0.5-0.4-0.8s-0.3-0.4-0.5-0.6c-0.1-0.1-0.2-0.2-0.3-0.2c-0.1-0.1-0.3-0.2-0.4-0.2
				c-0.1-0.1-0.3-0.1-0.4-0.2c-0.1,0-0.3-0.1-0.4-0.1c-0.3,0-0.7,0.1-1,0.3s-0.6,0.5-0.9,0.9c-0.3,0.4-0.5,0.8-0.6,1.2
				c-0.2,0.5-0.2,0.9-0.2,1.4c0,0.6,0.1,1.1,0.2,1.6s0.3,0.9,0.5,1.3s0.5,0.7,0.9,0.9c0.4,0.2,0.8,0.3,1.3,0.3c0.3,0,0.6,0,0.9-0.1
				c0.3-0.1,0.6-0.2,0.9-0.4c0.3-0.4,0.5-0.8,0.7-1.3C121.9,151.1,122,150.5,122,149.9z"/>
			<path fill="#F7E588" d="M139.2,143.7c0,0.3,0,0.5,0.1,0.8c0,0.3,0.1,0.5,0.1,0.7c0,0.1,0,0.2,0,0.3s-0.1,0.1-0.2,0.1
				c-0.1,0-0.2,0-0.3,0c-0.1,0-0.2,0-0.3,0c-0.1,0-0.2,0-0.2,0.1c0,0-0.1,0.1-0.1,0.2s0,0.1,0,0.2c0,0.1,0,0.1,0,0.2
				c0,0.3,0,0.6,0,0.9c0,0.3,0,0.6,0,0.9c0,0.4,0,0.9-0.1,1.3c0,0.4-0.1,0.8-0.1,1.3c0,0.5,0,1,0,1.5c0,0.5,0,1,0,1.4
				c0,0.3,0,0.6,0,0.9c0,0.3,0,0.6-0.1,0.9c-0.1,0.1-0.2,0.2-0.4,0.2s-0.4,0.1-0.6,0.1c-0.2,0-0.4,0-0.7,0c-0.2,0-0.4,0-0.5,0
				c-0.9-1.1-1.8-2.2-2.7-3.4c-0.9-1.2-1.7-2.4-2.5-3.6c0,0.2-0.1,0.5-0.1,0.7c0,0.2,0,0.5,0,0.7c0,0.4,0,0.8,0,1.2s0,0.8,0,1.2
				c0,0.2,0,0.4,0,0.6s0,0.4,0,0.6c0.1,0,0.2,0,0.3,0c0.1,0,0.2,0,0.3,0c0.1,0,0.2,0,0.3,0s0.2,0,0.2,0c0.1,0,0.1,0.1,0.2,0.2
				c0,0.1,0,0.2,0,0.3c0,0.1,0,0.3,0,0.4c0,0.1,0,0.3,0,0.4c0,0.2,0,0.3,0,0.4s-0.2,0.1-0.4,0.1c-0.2,0-0.3,0-0.5,0s-0.3,0-0.5,0
				c-0.2,0-0.3,0-0.5,0.1c-0.2,0-0.4,0.1-0.6,0.1c-0.3,0-0.5,0-0.8,0s-0.5,0-0.8,0c-0.2,0-0.3,0-0.5,0c-0.2,0-0.3,0-0.5,0.1
				c0-0.1,0-0.1,0-0.2s0-0.1,0-0.2c0-0.2,0-0.4,0-0.6c0-0.2,0-0.4,0-0.6c0-0.2,0-0.3,0.1-0.3s0.3,0,0.6,0c0.1,0,0.2,0,0.3,0
				c0.1,0,0.2,0,0.3,0.1c0-0.3,0.1-0.7,0.1-1c0-0.3,0-0.7,0-1c0-0.8,0-1.6-0.1-2.3s-0.1-1.5-0.1-2.2c0-0.2,0-0.4,0-0.6s0-0.4,0-0.6
				c-0.1-0.1-0.1-0.1-0.2-0.1c-0.1,0-0.2,0-0.2,0c-0.1,0-0.2,0-0.4,0c-0.1,0-0.2,0-0.4,0c-0.2,0-0.3,0-0.4-0.1c0-0.2,0-0.4,0-0.6
				c0-0.2,0-0.4,0-0.6c0-0.2,0-0.3,0.1-0.5c0-0.1,0.1-0.3,0.3-0.3c0.2,0.1,0.3,0.1,0.5,0.1c0.2,0,0.4,0,0.6,0c0.3,0,0.5,0,0.8,0
				c0.3,0,0.5,0,0.8,0c0.2,0,0.3,0,0.5,0c0.2,0,0.3,0,0.4,0.1c0.9,1.2,1.7,2.3,2.6,3.4c0.9,1.1,1.8,2.3,2.7,3.4
				c0.1-0.4,0.1-0.8,0.1-1.2c0-0.5,0-1.1-0.1-1.7c-0.1-0.6-0.1-1.2-0.1-1.8v-0.2c-0.1,0-0.1,0-0.2,0c-0.1,0-0.2,0-0.2,0
				c-0.1,0-0.2,0-0.2,0c-0.1,0-0.1,0-0.2,0c-0.1,0-0.1-0.1-0.2-0.2c0-0.3,0.1-0.5,0.1-0.8c0-0.3,0-0.6,0-0.8c0-0.1,0.1-0.1,0.2-0.1
				c0.1,0,0.2,0,0.4,0h0.2c0.2,0,0.5,0,0.7,0c0.3,0,0.5,0,0.8,0c0.4,0,0.8,0,1.2,0C138.6,143.6,139,143.6,139.2,143.7z"/>
			<path fill="#F7E588" d="M152.1,147.1c-0.1,0.1-0.3,0.1-0.5,0.1c-0.2,0-0.4,0-0.7,0s-0.4,0-0.6,0c-0.2,0-0.3,0-0.4-0.1
				c0,0,0-0.1,0-0.2s0-0.2,0-0.4s0-0.3,0-0.4c0-0.2,0-0.3,0-0.4c-0.2,0-0.3,0-0.4,0c-0.1,0-0.2,0-0.3,0c-0.1,0-0.2,0-0.4,0
				c-0.1,0-0.3,0-0.6,0c0,0.6,0,1.1,0,1.6c0.1,0.5,0.1,1,0.1,1.6c0,0.4,0,0.7,0,1.1c0,0.4,0,0.7-0.1,1.1s0,0.7,0,1.1
				c0,0.4,0,0.7,0.1,1.1c0.2,0,0.3,0,0.5,0s0.3,0,0.5,0c0.1,0.1,0.1,0.3,0.1,0.4c0,0.1,0,0.3,0,0.5c0,0.2,0,0.4,0,0.5
				c0,0.2,0,0.4,0,0.6c-0.1,0.1-0.2,0.2-0.4,0.2c-0.2,0-0.4,0-0.6,0c-0.2,0-0.4,0-0.7,0c-0.3,0-0.5,0-0.8,0s-0.6,0-0.8,0
				c-0.3,0-0.5,0-0.7,0c-0.1,0-0.2,0-0.3,0c-0.1,0-0.2,0-0.4,0s-0.2,0-0.3,0s-0.2,0-0.2,0c-0.1,0-0.1,0-0.1-0.1c0,0,0-0.1,0-0.1
				c0,0,0-0.1,0-0.1c0,0,0-0.1,0-0.2c0.1-0.3,0.1-0.5,0.1-0.7c0-0.2,0-0.5-0.1-0.7c0-0.1,0.1-0.1,0.2-0.2c0.1,0,0.2-0.1,0.3-0.1
				c0.1,0,0.2,0,0.4,0c0.1,0,0.2,0,0.3,0c0.1-1.2,0.2-2.4,0.2-3.7c0-1.3-0.1-2.5-0.2-3.9c-0.3-0.1-0.5-0.1-0.8-0.1
				c-0.3,0-0.5,0-0.9,0c0,0.2,0,0.3,0,0.4c0,0.1,0,0.2,0,0.3s0,0.2,0,0.3c0,0.1,0,0.2,0,0.4c-0.1,0-0.3,0.1-0.5,0.1
				c-0.2,0-0.4,0-0.6,0s-0.4,0-0.7,0s-0.4,0-0.6-0.1c0-0.5,0.1-1.1,0-1.7c0-0.6-0.1-1.2-0.2-1.7c0.8-0.1,1.7-0.2,2.5-0.2
				c0.8,0,1.6,0,2.4,0c0.8,0,1.6,0,2.4,0.1c0.8,0,1.6,0,2.5,0c0.1,0,0.2,0,0.4,0s0.3,0,0.4,0c0.1,0,0.3,0,0.4,0.1
				c0.1,0,0.2,0.1,0.2,0.1c0,0.1,0.1,0.3,0.1,0.6c0,0.2,0,0.4,0,0.6c0,0.4,0,0.7,0.1,1.1C152.2,146.4,152.2,146.8,152.1,147.1z"/>
			<path fill="#F7E588" d="M166.5,143.6c0,0.1,0,0.2,0,0.4c0,0.2,0,0.4,0,0.6c0,0.2,0,0.4,0,0.6c0,0.2-0.1,0.3-0.1,0.3
				c0,0-0.1,0-0.3,0c-0.2,0-0.3,0-0.5,0c-0.1,0.4-0.1,0.7-0.1,1.1c0,0.3,0,0.7,0,1c0,0.3,0,0.7,0,1c0,0.3,0,0.7,0,1.1
				c0,0.2,0,0.3,0,0.5c0,0.1,0,0.3,0,0.5c0,0.5,0,0.9-0.1,1.3c-0.1,0.4-0.1,0.9-0.1,1.4c0.5,0.1,1,0.1,1.4,0.1c0.5,0,0.9,0,1.3,0
				c0-0.1,0.1-0.3,0.1-0.4c0-0.1,0-0.2,0-0.3s0-0.2,0-0.3s0-0.2,0.1-0.2c0.1-0.1,0.3-0.1,0.5-0.1c0.2,0,0.4,0,0.7,0s0.4,0,0.6,0.1
				c0.2,0,0.4,0.1,0.5,0.1c0,0.3,0,0.6,0,0.8c0,0.3,0,0.5,0,0.8c0,0.3,0,0.5,0,0.8c0,0.2,0,0.5-0.1,0.7c-0.2,0-0.5,0.1-0.8,0.1
				c-0.3,0-0.7,0-1,0c-0.4,0-0.7,0-1.1,0s-0.8,0-1.1,0c-0.7,0.1-1.4,0.1-2.1,0c-0.8,0-1.5-0.1-2.3-0.1c-0.1-0.1-0.2-0.1-0.2-0.2
				c-0.1-0.1-0.1-0.1-0.1-0.2c0-0.1,0-0.2,0-0.3s0.1-0.3,0-0.4c0-0.1,0-0.2,0-0.3c0-0.1,0-0.2,0-0.2c0-0.2,0.1-0.4,0.3-0.4
				c0.2,0,0.4,0,0.6,0c0-0.4,0-0.9,0-1.4s0-1,0-1.6c0-0.5,0-1,0-1.5s0-0.8,0.1-1.1c0-0.4,0-0.8,0-1.2c0-0.4,0-0.8-0.1-1.2
				c-0.1,0-0.1-0.1-0.2-0.1s-0.2,0-0.3,0c-0.1,0-0.2,0-0.3,0c-0.1,0-0.2,0-0.2-0.1c0-0.1,0-0.2,0-0.4s0-0.3,0-0.5
				c0-0.2,0-0.3,0.1-0.5c0-0.2,0-0.3,0-0.4c0.1-0.1,0.2-0.1,0.4-0.1s0.3,0,0.4,0s0.3,0,0.5,0.1s0.3,0,0.5,0c0.2,0,0.4,0,0.6,0
				c0.2,0,0.4,0,0.5,0c0.1,0,0.3,0,0.4,0c0.2,0,0.3,0,0.5,0s0.3,0,0.5,0C166.2,143.5,166.4,143.6,166.5,143.6z"/>
			<path fill="#F7E588" d="M182,147.1c-0.1,0.1-0.3,0.1-0.5,0.1c-0.2,0-0.4,0-0.7,0c-0.2,0-0.4,0-0.6,0c-0.2,0-0.3,0-0.4-0.1
				c0,0,0-0.1,0-0.2s0-0.2,0-0.4s0-0.3,0-0.4c0-0.2,0-0.3,0-0.4c-0.2,0-0.3,0-0.4,0c-0.1,0-0.2,0-0.3,0c-0.1,0-0.2,0-0.4,0
				c-0.1,0-0.3,0-0.6,0c0,0.6,0,1.1,0,1.6c0.1,0.5,0.1,1,0.1,1.6c0,0.4,0,0.7,0,1.1c0,0.4,0,0.7-0.1,1.1s0,0.7,0,1.1
				c0,0.4,0,0.7,0.1,1.1c0.2,0,0.3,0,0.5,0s0.3,0,0.5,0c0.1,0.1,0.1,0.3,0.1,0.4c0,0.1,0,0.3,0,0.5c0,0.2,0,0.4,0,0.5
				c0,0.2,0,0.4,0,0.6c-0.1,0.1-0.2,0.2-0.4,0.2c-0.2,0-0.4,0-0.6,0c-0.2,0-0.4,0-0.7,0c-0.3,0-0.5,0-0.8,0s-0.6,0-0.8,0
				c-0.3,0-0.5,0-0.7,0c-0.1,0-0.2,0-0.3,0s-0.2,0-0.4,0s-0.2,0-0.3,0c-0.1,0-0.2,0-0.2,0c-0.1,0-0.1,0-0.1-0.1c0,0,0-0.1,0-0.1
				c0,0,0-0.1,0-0.1c0,0,0-0.1,0-0.2c0.1-0.3,0.1-0.5,0.1-0.7c0-0.2,0-0.5-0.1-0.7c0-0.1,0.1-0.1,0.2-0.2c0.1,0,0.2-0.1,0.3-0.1
				s0.2,0,0.4,0c0.1,0,0.2,0,0.3,0c0.1-1.2,0.2-2.4,0.2-3.7c0-1.3-0.1-2.5-0.2-3.9c-0.3-0.1-0.5-0.1-0.8-0.1s-0.5,0-0.9,0
				c0,0.2,0,0.3,0,0.4c0,0.1,0,0.2,0,0.3s0,0.2,0,0.3c0,0.1,0,0.2,0,0.4c-0.1,0-0.3,0.1-0.5,0.1s-0.4,0-0.6,0c-0.2,0-0.4,0-0.7,0
				s-0.4,0-0.6-0.1c0-0.5,0.1-1.1,0-1.7c0-0.6-0.1-1.2-0.2-1.7c0.8-0.1,1.7-0.2,2.5-0.2c0.8,0,1.6,0,2.4,0s1.6,0,2.4,0.1
				c0.8,0,1.6,0,2.5,0c0.1,0,0.2,0,0.4,0s0.3,0,0.4,0c0.1,0,0.3,0,0.4,0.1c0.1,0,0.2,0.1,0.2,0.1c0,0.1,0.1,0.3,0.1,0.6s0,0.4,0,0.6
				c0,0.4,0,0.7,0.1,1.1C182.1,146.4,182.1,146.8,182,147.1z"/>
			<path fill="#F7E588" d="M184,155.4c0-0.1,0-0.2,0-0.3s0-0.3,0-0.5c0-0.2,0-0.4,0-0.6s0-0.4,0-0.5c0.1-0.2,0.3-0.3,0.5-0.3
				c0.2,0,0.5,0,0.7,0.1c0-0.6,0-1.2,0-1.8c0-0.6-0.1-1.2-0.1-1.9c0-0.6-0.1-1.3-0.1-1.9c0-0.7,0-1.4,0.1-2.1c-0.2,0-0.4,0-0.6,0
				s-0.4,0-0.5-0.1c0-0.1,0-0.3,0-0.5c0-0.2,0-0.4,0-0.6c0-0.1,0-0.2,0-0.4s0-0.2,0-0.4c0-0.1,0.1-0.1,0.1-0.1c0,0,0,0,0.1,0
				c0.1,0,0.2,0,0.4,0s0.3,0,0.4,0c0.5,0,1,0,1.4,0c0.4,0,0.9,0,1.3,0s0.9,0,1.3,0s0.9,0,1.4,0.1c0.6,0.1,1.1,0.2,1.7,0.3
				c0.6,0.1,1,0.3,1.4,0.6c0.4,0.3,0.8,0.6,1.1,1c0.3,0.4,0.6,0.8,0.8,1.3c0.1,0.3,0.2,0.6,0.2,1c0,0.4,0.1,0.8,0.1,1.2
				s0,0.8-0.1,1.2c-0.1,0.4-0.1,0.7-0.2,1c-0.1,0.6-0.2,1.1-0.5,1.5c-0.2,0.4-0.5,0.8-0.7,1.2c-0.1,0.1-0.2,0.3-0.4,0.4
				s-0.3,0.3-0.5,0.4c-0.2,0.1-0.4,0.2-0.6,0.3s-0.4,0.2-0.6,0.2c-0.2,0.1-0.5,0.1-0.8,0.1c-0.3,0-0.6,0.1-0.8,0.1
				c-0.3,0.1-0.6,0.1-0.9,0.1c-0.3,0-0.6,0-0.9,0s-0.6,0-0.9-0.1c-0.3,0-0.6,0-0.9,0c-0.5,0-1,0.1-1.5,0.1
				C184.9,155.6,184.4,155.6,184,155.4z M191.2,152.9c0.3-0.2,0.6-0.4,0.7-0.8c0.2-0.4,0.3-0.8,0.4-1.2c0.1-0.4,0.1-0.8,0.1-1.2
				c0-0.4,0-0.8-0.1-1.2c0-0.4-0.1-0.7-0.2-1c-0.1-0.3-0.3-0.6-0.4-0.8c-0.3-0.2-0.6-0.4-0.9-0.6c-0.3-0.2-0.7-0.3-1-0.3
				c-0.4,0-0.7,0-1-0.1s-0.6,0-0.9,0.2c-0.1,0.7-0.1,1.3-0.1,2s0,1.3,0,2c0,0.7,0,1.3,0.1,1.9c0,0.6,0,1.2,0,1.8
				c0.6,0.1,1.2,0.1,1.7,0S190.7,153.3,191.2,152.9z"/>
			<path fill="#F7E588" d="M199.8,151c0.4,0,0.7,0,1,0.1s0.5,0.2,0.7,0.4c0.3,0.2,0.6,0.6,0.7,1c0.1,0.4,0.2,0.9,0.1,1.3
				c-0.1,0.4-0.2,0.8-0.5,1.2c-0.3,0.3-0.6,0.6-1.1,0.6c-0.2,0-0.4,0.1-0.6,0.1c-0.2,0-0.5,0-0.7,0c-0.2,0-0.5-0.1-0.7-0.1
				c-0.2-0.1-0.4-0.1-0.5-0.2c-0.3-0.3-0.5-0.7-0.5-1.2c0-0.5,0-0.9,0.2-1.3c0.2-0.4,0.4-0.8,0.8-1.1C199,151.2,199.4,151,199.8,151
				z"/>
		</g>
		
			<rect x="23" y="134.3" fill="none" stroke="#F7E588" stroke-width="1.7952" stroke-linecap="round" stroke-linejoin="round" stroke-miterlimit="10" width="183.6" height="30.1"/>
	</g>
	<g>
		<polyline fill="#333333" points="92.7,292.8 92.7,209.8 137.7,209.8 137.7,292.8 		"/>
		<ellipse fill="#E6C634" cx="127.1" cy="255.5" rx="4.2" ry="4.3"/>
	</g>
	<g>
		<g>
			<polygon fill="#C69C6D" points="0.9,205.3 14.5,172.3 215.1,172.3 228.6,205.3 			"/>
			<path fill="#A67C52" d="M217.1,205.3h-4.7h-7.7H200h-7.7h-4.7h-7.7h-4.7h-7.7h-4.7H155h-4.7h-7.7h-4.7h-7.7h-4.7h-7.7H113h-7.7
				h-4.7h-7.7h-4.7h-7.7h-4.7H68h-4.7h-7.7h-4.7h-7.7h-4.7h-7.7h-4.7h-7.7h-4.7H1.2c0,5.2,3.8,9.4,8.6,9.4c2.4,0,4.7-1.1,6.2-3
				c1.6,1.8,3.8,3,6.2,3s4.7-1.1,6.2-3c1.6,1.8,3.8,3,6.2,3c2.4,0,4.7-1.1,6.2-3c1.6,1.8,3.8,3,6.2,3s4.7-1.1,6.2-3
				c1.6,1.8,3.8,3,6.2,3c2.4,0,4.7-1.1,6.2-3c1.6,1.8,3.8,3,6.2,3s4.7-1.1,6.2-3c1.6,1.8,3.8,3,6.2,3c2.4,0,4.7-1.1,6.2-3
				c1.6,1.8,3.8,3,6.2,3s4.7-1.1,6.2-3c1.6,1.8,3.8,3,6.2,3c2.4,0,4.7-1.1,6.2-3c1.6,1.8,3.8,3,6.2,3s4.7-1.1,6.2-3
				c1.6,1.8,3.8,3,6.2,3c2.4,0,4.7-1.1,6.2-3c1.6,1.8,3.8,3,6.2,3s4.7-1.1,6.2-3c1.6,1.8,3.8,3,6.2,3s4.7-1.1,6.2-3
				c1.6,1.8,3.8,3,6.2,3c2.4,0,4.7-1.1,6.2-3c1.6,1.8,3.8,3,6.2,3c2.4,0,4.7-1.1,6.2-3c1.6,1.8,3.8,3,6.2,3c2.4,0,4.7-1.1,6.2-3
				c1.6,1.8,3.8,3,6.2,3s4.7-1.1,6.2-3c1.6,1.8,3.8,3,6.2,3c4.7,0,7.7-4.2,7.7-9.4H217.1z"/>
		</g>
		
			<polygon opacity="0.4" fill="none" stroke="#F7E588" stroke-width="1.7946" stroke-linecap="round" stroke-linejoin="round" stroke-miterlimit="10" points="
			9.1,198.8 219.7,198.8 211.2,175.9 18.2,175.9 		"/>
	</g>
	<g opacity="0.15">
		<rect x="43" y="247.2" fill="#333333" width="12.2" height="20.4"/>
		
			<rect x="60.3" y="247.2" transform="matrix(0.8313 -0.5558 0.5558 0.8313 -132.3952 78.6299)" fill="#333333" width="6.1" height="20.4"/>
		
			<rect x="68.5" y="247.2" transform="matrix(0.8313 -0.5558 0.5558 0.8313 -131.0105 83.1921)" fill="#333333" width="6.1" height="20.4"/>
		<circle fill="#333333" cx="155" cy="260" r="7.6"/>
		<g>
			<path fill="#333333" d="M191.7,239.2c0.6-0.6,1.4-0.7,2-0.4l0.1-0.1c0.4-0.9,1-1.9,2-2.8c0.9-0.9,1.9-1.6,2.8-2
				c0,0,0.2-0.2,0.4-0.4c0.2-0.2,0.1-0.7-0.3-1.1l-2.3-2.3c-0.4-0.4-0.9-0.5-1.1-0.3l-0.4,0.4c-0.4,0.9-1,1.9-2,2.9
				c-0.9,0.9-1.9,1.6-2.9,2l-0.1,0.1c0.4,0.6,0.3,1.5-0.3,2.2l-6.1,6.1c-0.3,0-0.7-0.2-1.3-1.1c-1-1.6-3.4-2.5-5.3,0.9
				c-2,3.4-0.3,4-5.9,4.6l0,0c-2,0.1-3.8,0.9-5.2,2.3c-3.4,3.4-3,9.2,0.9,13.1c3.8,3.8,9.7,4.2,13.1,0.9c0.1-0.1,0.1-0.1,0.2-0.2
				l0,0c0,0,0,0,0.1-0.1c0.3-0.3,0.5-0.6,0.7-0.9c0.9-1.2,2.1-3.4,1.8-5.8c-0.4-3.5,2.9-3.3,4.2-4.2c1.4-0.9,1.8-1.6,1.9-2.5
				c0,0-1.6,1.1-3.1-0.3c-1.2-1.2-0.7-3.2-0.1-4.3L191.7,239.2z"/>
		</g>
	</g>
</g>
</svg>
