<?xml version="1.0" encoding="utf-8"?>
<!-- Generator: Adobe Illustrator 18.1.1, SVG Export Plug-In . SVG Version: 6.00 Build 0)  -->
<!DOCTYPE svg PUBLIC "-//W3C//DTD SVG 1.1//EN" "http://www.w3.org/Graphics/SVG/1.1/DTD/svg11.dtd">
<svg version="1.1" id="Layer_1" xmlns="http://www.w3.org/2000/svg" xmlns:xlink="http://www.w3.org/1999/xlink" x="0px" y="0px"
	 viewBox="0 0 874.5 580.5" enable-background="new 0 0 874.5 580.5" xml:space="preserve">
<symbol  id="chair" viewBox="-23.7 -25.3 43.2 50.3">
	<path fill="none" stroke="#E0BB9B" stroke-width="1.3029" stroke-miterlimit="10" d="M15.4-24.6h-28.7c-1.9,0-3.4,1.5-3.4,3.4V7.3
		c0,1.9,1.5,3.4,3.4,3.4h28.7c1.9,0,3.4-1.5,3.4-3.4v-28.6C18.8-23.1,17.3-24.6,15.4-24.6z"/>
	<path fill="none" stroke="#E0BB9B" stroke-width="1.3029" stroke-miterlimit="10" d="M18.8,17.3c0-3.9-7.9-7-17.7-7
		s-17.7,3.2-17.7,7s7.9,7,17.7,7S18.8,21.2,18.8,17.3z"/>
	<path fill="none" stroke="#E0BB9B" stroke-width="1.3029" stroke-miterlimit="10" d="M-23.7,11.9"/>
</symbol>
<g>
	<g>
		<g>
			<g>
				<rect x="114.1" y="88.1" fill="#465E61" width="623.6" height="421.2"/>
				<path fill="#E0BB9B" d="M732.2,93.5V504H119.5V93.5H732.2 M743,82.8H108.7v432H743V82.8L743,82.8z"/>
			</g>
			<rect x="141.5" y="111.4" fill="none" stroke="#E0BB9B" stroke-miterlimit="10" width="570.8" height="374.6"/>
			<polygon fill="none" stroke="#E0BB9B" stroke-miterlimit="10" points="732.2,504 712.2,486.1 141.5,486.1 117.3,504.6 			"/>
			<polygon fill="none" stroke="#E0BB9B" stroke-miterlimit="10" points="732.2,93.8 712.2,112.1 141.5,112.1 117.3,93.4 
				444.4,93.7 			"/>
		</g>
		
			<use xlink:href="#chair"  width="43.2" height="50.3" id="XMLID_28_" x="-23.7" y="-25.3" transform="matrix(4.987940e-02 0.9988 0.9988 -4.987940e-02 215.6058 384.5679)" overflow="visible"/>
		<path fill="#E0BB9B" d="M163.7,373.8c0.9,0.5,1.9-0.1,2.8-0.9c0.4-0.3,1.3-1.3,1.8-0.4c0.2,0.4,0.4,0.7,0.7,1
			c0.5,0.5,1.2,0.5,1.9,0.5l-2.4,30.7l12,1l3-37.3l-12-1l-0.5,5.9c-0.1,0-0.3,0-0.4,0c-1.1,0-1.4-0.7-1.8-1.4
			c-0.2-0.4-0.5-0.6-1-0.6c-1.4,0-2.5,2.8-3.9,1.6 M181.8,369.8l-2.7,34.5l-9.2-0.7l2.7-34.5L181.8,369.8z M173,399.8l-0.2,1.9
			l-1.9-0.2l0.2-1.9L173,399.8z M173.2,396.8l-0.2,1.9l-1.9-0.2l0.2-1.9L173.2,396.8z M173.4,393.7l-0.2,1.9l-1.9-0.2l0.2-1.9
			L173.4,393.7z M173.7,390.6l-0.2,1.9l-1.9-0.2l0.2-1.9L173.7,390.6z M173.9,387.4l-0.2,1.9l-1.9-0.2l0.2-1.9L173.9,387.4z
			 M174.2,384.4l-0.2,1.9l-1.9-0.2l0.2-1.9L174.2,384.4z M174.4,381.3l-0.2,1.9l-1.9-0.2l0.2-1.9L174.4,381.3z M174.7,378.3
			l-0.2,1.9l-1.9-0.2l0.2-1.9L174.7,378.3z M175.6,401.3l-0.2,1.9l-1.9-0.2l0.2-1.9L175.6,401.3z M175.8,398.3l-0.2,1.9l-1.9-0.2
			l0.2-1.9L175.8,398.3z M176.1,395.2l-0.2,1.9l-1.9-0.2l0.2-1.9L176.1,395.2z M176.3,392.1l-0.2,1.9l-1.9-0.2l0.2-1.9L176.3,392.1z
			 M176.6,388.9l-0.2,1.9l-1.9-0.2l0.2-1.9L176.6,388.9z M176.8,385.9l-0.2,1.9l-1.9-0.2l0.2-1.9L176.8,385.9z M177.1,382.8
			l-0.2,1.9l-1.9-0.2l0.2-1.9L177.1,382.8z M177.3,379.8l-0.2,1.9l-1.9-0.2l0.2-1.9L177.3,379.8z M177.8,372.9l-0.2,1.9l-1.9-0.2
			l0.2-1.9L177.8,372.9z M178.5,373.2l0.2-1.9l1.9,0.2l-0.2,1.9L178.5,373.2z M178.2,376.5l0.2-1.9l1.9,0.2l-0.2,1.9L178.2,376.5z
			 M176.5,402.7l0.2-1.9l1.9,0.2l-0.2,1.9L176.5,402.7z M176.7,399.6l0.2-1.9l1.9,0.2l-0.2,1.9L176.7,399.6z M177,396.5l0.2-1.9
			l1.9,0.2l-0.2,1.9L177,396.5z M177.2,393.5l0.2-1.9l1.9,0.2l-0.2,1.9L177.2,393.5z M177.5,390.3l0.2-1.9l1.9,0.2l-0.2,1.9
			L177.5,390.3z M177.7,387.2l0.2-1.9l1.9,0.2l-0.2,1.9L177.7,387.2z M177.9,384.1l0.2-1.9l1.9,0.2l-0.2,1.9L177.9,384.1z
			 M178.2,381.1l0.2-1.9l1.9,0.2l-0.2,1.9L178.2,381.1z M172.8,373.4l-0.2,2.9l1,0.1l0.2-2.9L172.8,373.4z M173.7,373.6l-0.2,2.6
			l-0.8-0.1l0.2-2.6L173.7,373.6z M173.1,369.9l-0.2,2.9l1,0.1l0.2-2.9L173.1,369.9z M174,370.1l-0.2,2.6l-0.8-0.1l0.2-2.6
			L174,370.1z"/>
		<g>
			<g>
				
					<rect x="106.4" y="363.3" transform="matrix(-4.581901e-02 -0.9989 0.9989 -4.581901e-02 -220.003 567.0029)" fill="none" stroke="#E0BB9B" stroke-width="1.2611" stroke-miterlimit="10" width="108.7" height="50.5"/>
			</g>
			<polyline fill="none" stroke="#E0BB9B" stroke-width="0.8133" stroke-miterlimit="10" points="184,333.1 189.8,335.7 190.5,352 
				184.8,351.3 			"/>
			<polyline fill="none" stroke="#E0BB9B" stroke-width="0.8217" stroke-miterlimit="10" points="189,441.9 194.5,438.4 
				193.7,421.8 188.1,423.3 			"/>
		</g>
		
			<use xlink:href="#chair"  width="43.2" height="50.3" id="XMLID_27_" x="-23.7" y="-25.3" transform="matrix(0.9998 2.154656e-02 2.154656e-02 -0.9998 274.3421 416.3978)" overflow="visible"/>
		<path fill="#E0BB9B" d="M259.9,467.4c0.6-0.9,0-1.9-0.7-2.8c-0.3-0.4-1.2-1.3-0.2-1.8c0.4-0.2,0.7-0.3,1-0.6
			c0.5-0.5,0.6-1.1,0.7-1.8l30.5,4.6l1.8-11.9l-37-5.6l-1.8,11.9l5.9,0.9c0,0.1,0,0.3,0,0.4c-0.1,1.1-0.8,1.3-1.6,1.7
			c-0.4,0.2-0.6,0.5-0.6,0.9c-0.1,1.4,2.6,2.7,1.3,4 M257.2,449.1l34.2,5.2l-1.4,9.2l-34.2-5.2L257.2,449.1z M286.5,460l1.9,0.3
			l-0.3,1.9l-1.9-0.3L286.5,460z M283.5,459.6l1.9,0.3l-0.3,1.9l-1.9-0.3L283.5,459.6z M280.4,459.1l1.9,0.3l-0.3,1.9l-1.9-0.3
			L280.4,459.1z M277.4,458.7l1.9,0.3l-0.3,1.9l-1.9-0.3L277.4,458.7z M274.2,458.2l1.9,0.3l-0.3,1.9l-1.9-0.3L274.2,458.2z
			 M271.2,457.7l1.9,0.3l-0.3,1.9l-1.9-0.3L271.2,457.7z M268.1,457.2l1.9,0.3l-0.3,1.9l-1.9-0.3L268.1,457.2z M265.1,456.8l1.9,0.3
			l-0.3,1.9l-1.9-0.3L265.1,456.8z M288.2,457.5l1.9,0.3l-0.3,1.9l-1.9-0.3L288.2,457.5z M285.2,457.1l1.9,0.3l-0.3,1.9l-1.9-0.3
			L285.2,457.1z M282.1,456.6l1.9,0.3l-0.3,1.9l-1.9-0.3L282.1,456.6z M279.1,456.1l1.9,0.3l-0.3,1.9l-1.9-0.3L279.1,456.1z
			 M275.9,455.6l1.9,0.3l-0.3,1.9l-1.9-0.3L275.9,455.6z M272.9,455.2l1.9,0.3l-0.3,1.9l-1.9-0.3L272.9,455.2z M269.8,454.7l1.9,0.3
			l-0.3,1.9l-1.9-0.3L269.8,454.7z M266.8,454.3l1.9,0.3l-0.3,1.9l-1.9-0.3L266.8,454.3z M260,453.2l1.9,0.3l-0.3,1.9l-1.9-0.3
			L260,453.2z M260.4,452.6l-1.9-0.3l0.3-1.9l1.9,0.3L260.4,452.6z M263.6,453.1l-1.9-0.3l0.3-1.9l1.9,0.3L263.6,453.1z
			 M289.6,456.7l-1.9-0.3l0.3-1.9l1.9,0.3L289.6,456.7z M286.6,456.3l-1.9-0.3l0.3-1.9l1.9,0.3L286.6,456.3z M283.5,455.8l-1.9-0.3
			l0.3-1.9l1.9,0.3L283.5,455.8z M280.5,455.3l-1.9-0.3l0.3-1.9l1.9,0.3L280.5,455.3z M277.3,454.9l-1.9-0.3l0.3-1.9l1.9,0.3
			L277.3,454.9z M274.3,454.4l-1.9-0.3l0.3-1.9l1.9,0.3L274.3,454.4z M271.2,453.9l-1.9-0.3l0.3-1.9l1.9,0.3L271.2,453.9z
			 M268.2,453.5l-1.9-0.3l0.3-1.9l1.9,0.3L268.2,453.5z M260.2,458.3l2.9,0.4l0.2-1l-2.9-0.4L260.2,458.3z M260.4,457.4l2.6,0.4
			l-0.1,0.8l-2.6-0.4L260.4,457.4z M256.7,457.7l2.9,0.4l0.2-1l-2.9-0.4L256.7,457.7z M257,456.9l2.6,0.4l-0.1,0.8l-2.6-0.4
			L257,456.9z"/>
		<g>
			<g>
				
					<rect x="220.1" y="446.1" transform="matrix(-0.9997 -2.561042e-02 2.561042e-02 -0.9997 536.6869 949.5837)" fill="none" stroke="#E0BB9B" stroke-width="1.2611" stroke-miterlimit="10" width="108.7" height="50.5"/>
			</g>
			<polyline fill="none" stroke="#E0BB9B" stroke-width="0.8133" stroke-miterlimit="10" points="220.8,444.3 223.7,438.7 
				240,439.1 239,444.7 			"/>
			<polyline fill="none" stroke="#E0BB9B" stroke-width="0.8217" stroke-miterlimit="10" points="329.6,447.1 326.5,441.3 
				309.9,440.9 311,446.6 			"/>
		</g>
		<g>
			<path fill="none" stroke="#E0BB9B" stroke-miterlimit="10" d="M410.7,241.6v-132c0-1,0.8-1.8,1.8-1.8h45.7c1,0,1.8,0.8,1.8,1.8
				v132c0,1-0.8,1.8-1.8,1.8h-45.7C411.6,243.4,410.7,242.6,410.7,241.6z"/>
			<path fill="none" stroke="#E0BB9B" stroke-miterlimit="10" d="M420.3,124.8L420.3,124.8c0-6,4.9-11,11-11h8.2c6,0,11,4.9,11,11v0
				c0,6-4.9,11-11,11h-8.2C425.3,135.7,420.3,130.8,420.3,124.8z"/>
			<rect x="410.6" y="133" fill="#465E61" stroke="#E0BB9B" stroke-miterlimit="10" width="48.8" height="110.4"/>
			<circle fill="#465E61" stroke="#E0BB9B" stroke-miterlimit="10" cx="412.8" cy="106.3" r="3.3"/>
			<circle fill="#465E61" stroke="#E0BB9B" stroke-miterlimit="10" cx="461.1" cy="106.3" r="3.3"/>
			<circle fill="#465E61" stroke="#E0BB9B" stroke-miterlimit="10" cx="412.8" cy="243.4" r="3.3"/>
			<circle fill="#465E61" stroke="#E0BB9B" stroke-miterlimit="10" cx="461.1" cy="243.4" r="3.3"/>
		</g>
		<g>
			<path fill="none" stroke="#E0BB9B" stroke-miterlimit="10" d="M323.9,241.6v-132c0-1,0.8-1.8,1.8-1.8h45.7c1,0,1.8,0.8,1.8,1.8
				v132c0,1-0.8,1.8-1.8,1.8h-45.7C324.8,243.4,323.9,242.6,323.9,241.6z"/>
			<path fill="none" stroke="#E0BB9B" stroke-miterlimit="10" d="M333.5,124.8L333.5,124.8c0-6,4.9-11,11-11h8.2c6,0,11,4.9,11,11v0
				c0,6-4.9,11-11,11h-8.2C338.4,135.7,333.5,130.8,333.5,124.8z"/>
			<rect x="323.8" y="133" fill="#465E61" stroke="#E0BB9B" stroke-miterlimit="10" width="48.8" height="110.4"/>
			<circle fill="#465E61" stroke="#E0BB9B" stroke-miterlimit="10" cx="325.9" cy="106.3" r="3.3"/>
			<circle fill="#465E61" stroke="#E0BB9B" stroke-miterlimit="10" cx="374.3" cy="106.3" r="3.3"/>
			<circle fill="#465E61" stroke="#E0BB9B" stroke-miterlimit="10" cx="325.9" cy="243.4" r="3.3"/>
			<circle fill="#465E61" stroke="#E0BB9B" stroke-miterlimit="10" cx="374.3" cy="243.4" r="3.3"/>
		</g>
		<g>
			<path fill="none" stroke="#E0BB9B" stroke-miterlimit="10" d="M235.2,241.6v-132c0-1,0.8-1.8,1.8-1.8h45.7c1,0,1.8,0.8,1.8,1.8
				v132c0,1-0.8,1.8-1.8,1.8h-45.7C236.1,243.4,235.2,242.6,235.2,241.6z"/>
			<path fill="none" stroke="#E0BB9B" stroke-miterlimit="10" d="M244.8,124.8L244.8,124.8c0-6,4.9-11,11-11h8.2c6,0,11,4.9,11,11v0
				c0,6-4.9,11-11,11h-8.2C249.8,135.7,244.8,130.8,244.8,124.8z"/>
			<rect x="235.1" y="133" fill="#465E61" stroke="#E0BB9B" stroke-miterlimit="10" width="48.8" height="110.4"/>
			<circle fill="#465E61" stroke="#E0BB9B" stroke-miterlimit="10" cx="237.3" cy="106.3" r="3.3"/>
			<circle fill="#465E61" stroke="#E0BB9B" stroke-miterlimit="10" cx="285.6" cy="106.3" r="3.3"/>
			<circle fill="#465E61" stroke="#E0BB9B" stroke-miterlimit="10" cx="237.3" cy="243.4" r="3.3"/>
			<circle fill="#465E61" stroke="#E0BB9B" stroke-miterlimit="10" cx="285.6" cy="243.4" r="3.3"/>
		</g>
		<g>
			<path fill="none" stroke="#E0BB9B" stroke-miterlimit="10" d="M147.2,241.6v-132c0-1,0.8-1.8,1.8-1.8h45.7c1,0,1.8,0.8,1.8,1.8
				v132c0,1-0.8,1.8-1.8,1.8h-45.7C148.1,243.4,147.2,242.6,147.2,241.6z"/>
			<path fill="none" stroke="#E0BB9B" stroke-miterlimit="10" d="M156.8,124.8L156.8,124.8c0-6,4.9-11,11-11h8.2c6,0,11,4.9,11,11v0
				c0,6-4.9,11-11,11h-8.2C161.8,135.7,156.8,130.8,156.8,124.8z"/>
			<rect x="147.1" y="133" fill="#465E61" stroke="#E0BB9B" stroke-miterlimit="10" width="48.8" height="110.4"/>
			<circle fill="#465E61" stroke="#E0BB9B" stroke-miterlimit="10" cx="149.3" cy="106.3" r="3.3"/>
			<circle fill="#465E61" stroke="#E0BB9B" stroke-miterlimit="10" cx="197.6" cy="106.3" r="3.3"/>
			<circle fill="#465E61" stroke="#E0BB9B" stroke-miterlimit="10" cx="149.3" cy="243.4" r="3.3"/>
			<circle fill="#465E61" stroke="#E0BB9B" stroke-miterlimit="10" cx="197.6" cy="243.4" r="3.3"/>
		</g>
		<polyline fill="none" stroke="#E0BB9B" stroke-width="10.7796" stroke-miterlimit="10" points="280.6,330.9 453.4,330.9 
			453.4,509.1 		"/>
		<line fill="none" stroke="#E0BB9B" stroke-width="10.7796" stroke-miterlimit="10" x1="112.7" y1="330.9" x2="238.4" y2="330.9"/>
		<polyline fill="none" stroke="#E0BB9B" stroke-width="10.7796" stroke-miterlimit="10" points="534.8,255 534.8,293.2 
			740.8,293.2 		"/>
		<path fill="none" stroke="#E0BB9B" stroke-width="10.7796" stroke-miterlimit="10" d="M596.3,255"/>
		<line fill="none" stroke="#E0BB9B" stroke-width="10.7796" stroke-miterlimit="10" x1="534.8" y1="88" x2="534.8" y2="210.7"/>
		<polyline fill="none" stroke="#E0BB9B" stroke-width="4" stroke-miterlimit="10" points="626.5,96.9 626.5,162.8 740.8,162.8 		
			"/>
		<polyline fill="none" stroke="#E0BB9B" stroke-width="4" stroke-miterlimit="10" points="626.5,162.6 626.5,228.6 740.8,228.6 		
			"/>
		<polyline fill="none" stroke="#E0BB9B" stroke-width="4" stroke-miterlimit="10" points="626.5,227.3 626.5,293.2 740.8,293.2 		
			"/>
		<rect x="537.2" y="86.8" fill="none" stroke="#E0BB9B" stroke-miterlimit="10" width="46.7" height="110.5"/>
		<g>
			<line fill="none" stroke="#E0BB9B" stroke-width="3" stroke-miterlimit="10" x1="495.8" y1="234" x2="532.2" y2="256.3"/>
			<g>
				<g>
					<path fill="none" stroke="#E0BB9B" stroke-miterlimit="10" d="M497.2,234.7c0.2-0.4,0.5-0.9,0.7-1.3"/>
					<path fill="none" stroke="#E0BB9B" stroke-miterlimit="10" stroke-dasharray="3.048,3.048" d="M499.5,230.8
						c7.5-11.3,19.9-19.1,34.3-20"/>
					<path fill="none" stroke="#E0BB9B" stroke-miterlimit="10" d="M535.3,210.7c0.5,0,1,0,1.5,0"/>
				</g>
			</g>
		</g>
		<g>
			<line fill="none" stroke="#E0BB9B" stroke-width="3" stroke-miterlimit="10" x1="666.1" y1="128.6" x2="627.7" y2="106.3"/>
			<g>
				<g>
					<path fill="none" stroke="#E0BB9B" stroke-miterlimit="10" d="M664.7,127.9c-0.2,0.4-0.5,0.9-0.7,1.3"/>
					<path fill="none" stroke="#E0BB9B" stroke-miterlimit="10" stroke-dasharray="3.048,3.048" d="M662.4,131.8
						c-7.5,11.3-19.9,19.1-34.3,20"/>
					<path fill="none" stroke="#E0BB9B" stroke-miterlimit="10" d="M626.6,151.9c-0.5,0-1,0-1.5,0"/>
				</g>
			</g>
		</g>
		<g>
			<line fill="none" stroke="#E0BB9B" stroke-width="3" stroke-miterlimit="10" x1="666.1" y1="194.1" x2="627.7" y2="171.8"/>
			<g>
				<g>
					<path fill="none" stroke="#E0BB9B" stroke-miterlimit="10" d="M664.7,193.3c-0.2,0.4-0.5,0.9-0.7,1.3"/>
					<path fill="none" stroke="#E0BB9B" stroke-miterlimit="10" stroke-dasharray="3.048,3.048" d="M662.4,197.3
						c-7.5,11.3-19.9,19.1-34.3,20"/>
					<path fill="none" stroke="#E0BB9B" stroke-miterlimit="10" d="M626.6,217.4c-0.5,0-1,0-1.5,0"/>
				</g>
			</g>
		</g>
		<g>
			<line fill="none" stroke="#E0BB9B" stroke-width="3" stroke-miterlimit="10" x1="666.1" y1="258.7" x2="627.7" y2="236.4"/>
			<g>
				<g>
					<path fill="none" stroke="#E0BB9B" stroke-miterlimit="10" d="M664.7,258c-0.2,0.4-0.5,0.9-0.7,1.3"/>
					<path fill="none" stroke="#E0BB9B" stroke-miterlimit="10" stroke-dasharray="3.048,3.048" d="M662.4,261.9
						c-7.5,11.3-19.9,19.1-34.3,20"/>
					<path fill="none" stroke="#E0BB9B" stroke-miterlimit="10" d="M626.6,282c-0.5,0-1,0-1.5,0"/>
				</g>
			</g>
		</g>
		<g>
			<line fill="none" stroke="#E0BB9B" stroke-width="3" stroke-miterlimit="10" x1="495.8" y1="385.7" x2="532.2" y2="408.1"/>
			<g>
				<g>
					<path fill="none" stroke="#E0BB9B" stroke-miterlimit="10" d="M497.2,386.5c0.2-0.4,0.5-0.9,0.7-1.3"/>
					<path fill="none" stroke="#E0BB9B" stroke-miterlimit="10" stroke-dasharray="3.048,3.048" d="M499.5,382.6
						c7.5-11.3,19.9-19.1,34.3-20"/>
					<path fill="none" stroke="#E0BB9B" stroke-miterlimit="10" d="M535.3,362.4c0.5,0,1,0,1.5,0"/>
				</g>
			</g>
		</g>
		<line fill="none" stroke="#E0BB9B" stroke-width="10.7796" stroke-miterlimit="10" x1="535.3" y1="363.1" x2="535.3" y2="296"/>
		<line fill="none" stroke="#E0BB9B" stroke-width="10.7796" stroke-miterlimit="10" x1="535.3" y1="509.1" x2="535.3" y2="406.1"/>
		<g>
			<circle fill="none" stroke="#E0BB9B" stroke-miterlimit="10" cx="571.7" cy="333.2" r="2.9"/>
			<path fill="none" stroke="#E0BB9B" stroke-miterlimit="10" d="M574.2,318.5h5.1c5,0,9.2,4.1,9.2,9.2v5.9c0,5-4.1,9.2-9.2,9.2
				h-15.2c-5,0-9.2-4.1-9.2-9.2v-5.9c0-5,4.1-9.2,9.2-9.2h5.5"/>
			<path fill="none" stroke="#E0BB9B" stroke-miterlimit="10" d="M571.7,326.4c-1.4,0-2.5-6.2-2.5-9.7s1.1-3.2,2.5-3.2
				c1.4,0,2.5-0.3,2.5,3.2S573.1,326.4,571.7,326.4z"/>
			<polygon fill="none" stroke="#E0BB9B" stroke-miterlimit="10" points="575.7,314.2 577.2,313.4 578.7,314.2 578.7,316 
				577.2,316.9 575.7,316 			"/>
			<polygon fill="none" stroke="#E0BB9B" stroke-miterlimit="10" points="564.2,314.2 565.7,313.4 567.2,314.2 567.2,316 
				565.7,316.9 564.2,316 			"/>
		</g>
		
			<rect x="615.4" y="318.6" transform="matrix(-0.1893 -0.9819 0.9819 -0.1893 413.2743 1003.3992)" fill="none" stroke="#E0BB9B" stroke-miterlimit="10" width="10.8" height="25.1"/>
		<polygon fill="none" stroke="#E0BB9B" stroke-miterlimit="10" points="535.3,305.3 535.3,349.2 683.3,349.2 683.3,454.1 
			535.3,454.1 535.3,492.7 683.3,492.7 722.6,492.7 722.6,305.1 		"/>
		<g>
			<g>
				<line fill="#4EFF17" x1="203.5" y1="118.5" x2="226.6" y2="141.6"/>
				<g>
					<line fill="none" stroke="#E0BB9B" stroke-miterlimit="10" x1="205.3" y1="120.2" x2="224.8" y2="139.8"/>
					<g>
						<circle fill="#E0BB9B" cx="205.4" cy="120.3" r="2.6"/>
					</g>
					<g>
						<circle fill="#E0BB9B" cx="224.7" cy="139.7" r="2.6"/>
					</g>
				</g>
			</g>
			<g>
				<line fill="#4EFF17" x1="204.1" y1="141.8" x2="227" y2="118.9"/>
				<g>
					<line fill="none" stroke="#E0BB9B" stroke-miterlimit="10" x1="205.9" y1="140" x2="225.2" y2="120.6"/>
					<g>
						<circle fill="#E0BB9B" cx="206" cy="139.9" r="2.6"/>
					</g>
					<g>
						<circle fill="#E0BB9B" cx="225.2" cy="120.7" r="2.6"/>
					</g>
				</g>
			</g>
			<path fill="#E0BB9B" stroke="#E0BB9B" stroke-miterlimit="10" d="M215,139L215,139c0,0,0-1.1,0-2.4V122c0-1.3,0-2.4,0-2.4l0,0
				c0,0,0,1.1,0,2.4v14.5C215,137.9,215,139,215,139z"/>
		</g>
		<g>
			<g>
				<line fill="#4EFF17" x1="292.3" y1="118.5" x2="315.3" y2="141.6"/>
				<g>
					<line fill="none" stroke="#E0BB9B" stroke-miterlimit="10" x1="294" y1="120.2" x2="313.6" y2="139.8"/>
					<g>
						<circle fill="#E0BB9B" cx="294.1" cy="120.3" r="2.6"/>
					</g>
					<g>
						<circle fill="#E0BB9B" cx="313.5" cy="139.7" r="2.6"/>
					</g>
				</g>
			</g>
			<g>
				<line fill="#4EFF17" x1="292.9" y1="141.8" x2="315.8" y2="118.9"/>
				<g>
					<line fill="none" stroke="#E0BB9B" stroke-miterlimit="10" x1="294.6" y1="140" x2="314" y2="120.6"/>
					<g>
						<circle fill="#E0BB9B" cx="294.7" cy="139.9" r="2.6"/>
					</g>
					<g>
						<circle fill="#E0BB9B" cx="313.9" cy="120.7" r="2.6"/>
					</g>
				</g>
			</g>
			<path fill="#E0BB9B" stroke="#E0BB9B" stroke-miterlimit="10" d="M303.8,139L303.8,139c0,0,0-1.1,0-2.4V122c0-1.3,0-2.4,0-2.4
				l0,0c0,0,0,1.1,0,2.4v14.5C303.8,137.9,303.8,139,303.8,139z"/>
		</g>
		<g>
			<g>
				<line fill="#4EFF17" x1="380.4" y1="118.5" x2="403.5" y2="141.6"/>
				<g>
					<line fill="none" stroke="#E0BB9B" stroke-miterlimit="10" x1="382.2" y1="120.2" x2="401.7" y2="139.8"/>
					<g>
						<circle fill="#E0BB9B" cx="382.3" cy="120.3" r="2.6"/>
					</g>
					<g>
						<circle fill="#E0BB9B" cx="401.6" cy="139.7" r="2.6"/>
					</g>
				</g>
			</g>
			<g>
				<line fill="#4EFF17" x1="381" y1="141.8" x2="403.9" y2="118.9"/>
				<g>
					<line fill="none" stroke="#E0BB9B" stroke-miterlimit="10" x1="382.8" y1="140" x2="402.2" y2="120.6"/>
					<g>
						<circle fill="#E0BB9B" cx="382.9" cy="139.9" r="2.6"/>
					</g>
					<g>
						<circle fill="#E0BB9B" cx="402.1" cy="120.7" r="2.6"/>
					</g>
				</g>
			</g>
			<path fill="#E0BB9B" stroke="#E0BB9B" stroke-miterlimit="10" d="M391.9,139L391.9,139c0,0,0-1.1,0-2.4V122c0-1.3,0-2.4,0-2.4
				l0,0c0,0,0,1.1,0,2.4v14.5C391.9,137.9,391.9,139,391.9,139z"/>
		</g>
		<g>
			<g>
				<line fill="#4EFF17" x1="468.6" y1="118.5" x2="491.7" y2="141.6"/>
				<g>
					<line fill="none" stroke="#E0BB9B" stroke-miterlimit="10" x1="470.4" y1="120.2" x2="489.9" y2="139.8"/>
					<g>
						<circle fill="#E0BB9B" cx="470.4" cy="120.3" r="2.6"/>
					</g>
					<g>
						<circle fill="#E0BB9B" cx="489.8" cy="139.7" r="2.6"/>
					</g>
				</g>
			</g>
			<g>
				<line fill="#4EFF17" x1="469.2" y1="141.8" x2="492.1" y2="118.9"/>
				<g>
					<line fill="none" stroke="#E0BB9B" stroke-miterlimit="10" x1="471" y1="140" x2="490.3" y2="120.6"/>
					<g>
						<circle fill="#E0BB9B" cx="471" cy="139.9" r="2.6"/>
					</g>
					<g>
						<circle fill="#E0BB9B" cx="490.2" cy="120.7" r="2.6"/>
					</g>
				</g>
			</g>
			<path fill="#E0BB9B" stroke="#E0BB9B" stroke-miterlimit="10" d="M480.1,139L480.1,139c0,0,0-1.1,0-2.4V122c0-1.3,0-2.4,0-2.4
				l0,0c0,0,0,1.1,0,2.4v14.5C480.1,137.9,480.1,139,480.1,139z"/>
		</g>
		<g>
			<line fill="none" stroke="#E0BB9B" stroke-width="3" stroke-miterlimit="10" x1="258.4" y1="291.8" x2="236.1" y2="328.2"/>
			<g>
				<g>
					<path fill="none" stroke="#E0BB9B" stroke-miterlimit="10" d="M257.7,293.2c0.4,0.2,0.9,0.5,1.3,0.7"/>
					<path fill="none" stroke="#E0BB9B" stroke-miterlimit="10" stroke-dasharray="3.048,3.048" d="M261.6,295.5
						c11.3,7.5,19.1,19.9,20,34.3"/>
					<path fill="none" stroke="#E0BB9B" stroke-miterlimit="10" d="M281.7,331.3c0,0.5,0,1,0,1.5"/>
				</g>
			</g>
		</g>
	</g>
</g>
<g id="New_Symbol_1">
</g>
</svg>
