<?xml version="1.0" encoding="utf-8"?>
<!-- Generator: Adobe Illustrator 18.1.1, SVG Export Plug-In . SVG Version: 6.00 Build 0)  -->
<!DOCTYPE svg PUBLIC "-//W3C//DTD SVG 1.1//EN" "http://www.w3.org/Graphics/SVG/1.1/DTD/svg11.dtd">
<svg version="1.1" id="Layer_1" xmlns="http://www.w3.org/2000/svg" xmlns:xlink="http://www.w3.org/1999/xlink" x="0px" y="0px"
	 viewBox="0 0 874.5 580.5" enable-background="new 0 0 874.5 580.5" xml:space="preserve">
<g>
	<g>
		<g>
			<polygon fill="#35484A" stroke="#FFFFFF" stroke-miterlimit="10" points="504.5,414 488.5,398.1 488.5,304.4 477,292.8 
				505.6,264.1 505.6,179 528.4,156.2 625.3,156.2 625.3,67 595.3,67 595.3,126.2 515.9,126.2 475.6,166.6 475.6,251.7 456,271.3 
				91.2,271.3 91.2,301.3 363.9,301.3 363.9,441.9 393.9,441.9 393.9,301.3 443.1,301.3 458.5,316.8 458.5,410.5 492,444 738,444 
				842.5,523.1 842.5,489.1 743,414 			"/>
			<g>
				<line fill="none" stroke="#FFFFFF" stroke-miterlimit="10" stroke-dasharray="3" x1="90.5" y1="300.8" x2="90.2" y2="271.7"/>
				<line fill="none" stroke="#FFFFFF" stroke-miterlimit="10" stroke-dasharray="3" x1="140.8" y1="300.6" x2="140.4" y2="271.7"/>
				<line fill="none" stroke="#FFFFFF" stroke-miterlimit="10" stroke-dasharray="3" x1="191" y1="300.3" x2="190.6" y2="271.8"/>
				<line fill="none" stroke="#FFFFFF" stroke-miterlimit="10" stroke-dasharray="3" x1="241.2" y1="300" x2="240.8" y2="271.8"/>
				<line fill="none" stroke="#FFFFFF" stroke-miterlimit="10" stroke-dasharray="3" x1="291.5" y1="299.7" x2="290.9" y2="271.8"/>
				<line fill="none" stroke="#FFFFFF" stroke-miterlimit="10" stroke-dasharray="3" x1="341.7" y1="299.4" x2="341.1" y2="271.9"/>
				<line fill="none" stroke="#FFFFFF" stroke-miterlimit="10" stroke-dasharray="3" x1="392" y1="299.1" x2="391.3" y2="271.9"/>
				<line fill="none" stroke="#FFFFFF" stroke-miterlimit="10" stroke-dasharray="3" x1="442.2" y1="298.8" x2="441.5" y2="271.9"/>
				<line fill="none" stroke="#FFFFFF" stroke-miterlimit="10" stroke-dasharray="3" x1="493.2" y1="273.9" x2="474.6" y2="254.9"/>
				<line fill="none" stroke="#FFFFFF" stroke-miterlimit="10" stroke-dasharray="3" x1="502.9" y1="216.4" x2="476.7" y2="217.1"/>
				<line fill="none" stroke="#FFFFFF" stroke-miterlimit="10" stroke-dasharray="3" x1="503.6" y1="177.3" x2="484.7" y2="159.5"/>
				<line fill="none" stroke="#FFFFFF" stroke-miterlimit="10" stroke-dasharray="3" x1="533.5" y1="154" x2="532.7" y2="128.4"/>
				<line fill="none" stroke="#FFFFFF" stroke-miterlimit="10" stroke-dasharray="3" x1="583.8" y1="153.9" x2="582.9" y2="128.6"/>
				<line fill="none" stroke="#FFFFFF" stroke-miterlimit="10" stroke-dasharray="3" x1="622.3" y1="116.9" x2="597.4" y2="117.5"/>
				<line fill="none" stroke="#FFFFFF" stroke-miterlimit="10" stroke-dasharray="3" x1="622.8" y1="66.6" x2="598.2" y2="67.3"/>
			</g>
			<g>
				<line fill="none" stroke="#FFFFFF" stroke-miterlimit="10" stroke-dasharray="3" x1="363.9" y1="441.9" x2="393.9" y2="441.9"/>
				<line fill="none" stroke="#FFFFFF" stroke-miterlimit="10" stroke-dasharray="3" x1="363.9" y1="394.9" x2="393.9" y2="394.9"/>
				<line fill="none" stroke="#FFFFFF" stroke-miterlimit="10" stroke-dasharray="3" x1="363.9" y1="347.9" x2="393.9" y2="347.9"/>
				<line fill="none" stroke="#FFFFFF" stroke-miterlimit="10" stroke-dasharray="3" x1="363.9" y1="300.8" x2="393.9" y2="300.8"/>
			</g>
			<g>
				<line fill="none" stroke="#FFFFFF" stroke-miterlimit="10" stroke-dasharray="3" x1="456.1" y1="313.9" x2="478.7" y2="294.1"/>
				<line fill="none" stroke="#FFFFFF" stroke-miterlimit="10" stroke-dasharray="3" x1="459.4" y1="344.4" x2="489.4" y2="344.4"/>
				<line fill="none" stroke="#FFFFFF" stroke-miterlimit="10" stroke-dasharray="3" x1="459.4" y1="393.8" x2="489.4" y2="393.8"/>
				<line fill="none" stroke="#FFFFFF" stroke-miterlimit="10" stroke-dasharray="3" x1="558.4" y1="414.5" x2="558.4" y2="444.5"/>
				<line fill="none" stroke="#FFFFFF" stroke-miterlimit="10" stroke-dasharray="3" x1="607.5" y1="414.5" x2="607.5" y2="444.5"/>
				<line fill="none" stroke="#FFFFFF" stroke-miterlimit="10" stroke-dasharray="3" x1="658.4" y1="414.5" x2="658.4" y2="444.5"/>
				<line fill="none" stroke="#FFFFFF" stroke-miterlimit="10" stroke-dasharray="3" x1="712.2" y1="414.5" x2="712.2" y2="444.5"/>
				<line fill="none" stroke="#FFFFFF" stroke-miterlimit="10" stroke-dasharray="3" x1="775.3" y1="434.6" x2="757.6" y2="458.8"/>
				<line fill="none" stroke="#FFFFFF" stroke-miterlimit="10" stroke-dasharray="3" x1="814.1" y1="462.4" x2="796.4" y2="486.6"/>
				<line fill="none" stroke="#FFFFFF" stroke-miterlimit="10" stroke-dasharray="3" x1="511.1" y1="414.5" x2="511.1" y2="444.5"/>
			</g>
		</g>
	</g>
</g>
<g id="New_Symbol_1">
</g>
</svg>
