<?xml version="1.0" encoding="utf-8"?>
<!-- Generator: Adobe Illustrator 18.1.1, SVG Export Plug-In . SVG Version: 6.00 Build 0)  -->
<!DOCTYPE svg PUBLIC "-//W3C//DTD SVG 1.1//EN" "http://www.w3.org/Graphics/SVG/1.1/DTD/svg11.dtd">
<svg version="1.1" id="Layer_1" xmlns="http://www.w3.org/2000/svg" xmlns:xlink="http://www.w3.org/1999/xlink" x="0px" y="0px"
	 viewBox="0 0 874.5 580.5" enable-background="new 0 0 874.5 580.5" xml:space="preserve">
<g>
	<rect x="163.7" y="71.4" fill="#465E61" width="543.6" height="421.2"/>
	<path fill="#E0BB9B" d="M701.9,76.8v410.4H169.1V76.8H701.9 M712.7,66H158.3v432h554.3V66L712.7,66z"/>
</g>
<g>
	<path fill="#E0BB9B" d="M711.7,67v430H161.3V67H711.7 M712.7,66H160.3v432h552.3V66L712.7,66z"/>
</g>
<path fill="none" stroke="#E0BB9B" stroke-miterlimit="10" d="M191.1,256"/>
<rect x="191.1" y="94.7" fill="none" stroke="#E0BB9B" stroke-miterlimit="10" width="490.8" height="374.6"/>
<polygon fill="none" stroke="#E0BB9B" stroke-miterlimit="10" points="701.9,487.1 681.9,469.1 191.1,469.1 167,487.7 "/>
<polygon fill="none" stroke="#E0BB9B" stroke-miterlimit="10" points="701.9,77 681.9,95.1 191.1,95.1 167,76.5 532,76.8 "/>
<line fill="none" stroke="#E0BB9B" stroke-width="10.7796" stroke-miterlimit="10" x1="479" y1="410" x2="479" y2="492.8"/>
<line fill="none" stroke="#E0BB9B" stroke-width="10.7796" stroke-miterlimit="10" x1="394.6" y1="410" x2="394.6" y2="492.8"/>
<path fill="none" stroke="#E0BB9B" stroke-miterlimit="10" d="M483.5,107.6 M394.6,296h67c31.8,0,57.6-25.8,57.6-57.6l0.5-166.9l0,0
	H482h1l0.1,166.8l0,0.1v0c0,11.9-9.7,21.6-21.6,21.6h-67V296z M482,71.6"/>
<path fill="none" stroke="#E0BB9B" stroke-width="10.7796" stroke-linecap="square" stroke-miterlimit="10" d="M393.6,203.5l0-131.9
	l126,0l-0.5,166.9c0,31.8-25.8,57.6-57.6,57.6h-68v65.4"/>
<path fill="none" stroke="#E0BB9B" stroke-width="10.7796" stroke-miterlimit="10" d="M358.4,233.3"/>
<g>
	<line fill="none" stroke="#E0BB9B" stroke-width="3" stroke-miterlimit="10" x1="435.4" y1="387.3" x2="399" y2="365"/>
	<g>
		<g>
			<path fill="none" stroke="#E0BB9B" stroke-miterlimit="10" d="M434,386.6c-0.2,0.4-0.5,0.9-0.7,1.3"/>
			<path fill="none" stroke="#E0BB9B" stroke-miterlimit="10" stroke-dasharray="3.048,3.048" d="M431.7,390.5
				c-7.5,11.3-19.9,19.1-34.3,20"/>
			<path fill="none" stroke="#E0BB9B" stroke-miterlimit="10" d="M395.9,410.6c-0.5,0-1,0-1.5,0"/>
		</g>
	</g>
</g>
<g>
	<line fill="none" stroke="#E0BB9B" stroke-width="3" stroke-miterlimit="10" x1="269.2" y1="255.9" x2="246.9" y2="292.4"/>
	<g>
		<g>
			<path fill="none" stroke="#E0BB9B" stroke-miterlimit="10" d="M268.5,257.3c0.4,0.2,0.9,0.5,1.3,0.7"/>
			<path fill="none" stroke="#E0BB9B" stroke-miterlimit="10" stroke-dasharray="3.048,3.048" d="M272.4,259.6
				c11.3,7.5,19.1,19.9,20,34.3"/>
			<path fill="none" stroke="#E0BB9B" stroke-miterlimit="10" d="M292.5,295.4c0,0.5,0,1,0,1.5"/>
		</g>
	</g>
</g>
<g>
	<line fill="none" stroke="#E0BB9B" stroke-width="3" stroke-miterlimit="10" x1="434.8" y1="231.9" x2="398.4" y2="255"/>
	<g>
		<g>
			<path fill="none" stroke="#E0BB9B" stroke-miterlimit="10" d="M433.5,232.7c-0.2-0.4-0.5-0.9-0.7-1.3"/>
			<path fill="none" stroke="#E0BB9B" stroke-miterlimit="10" stroke-dasharray="3.0858,3.0858" d="M431.2,228.7
				c-7.4-11.8-20-19.8-34.3-20.8"/>
			<path fill="none" stroke="#E0BB9B" stroke-miterlimit="10" d="M395.3,207.8c-0.5,0-1,0-1.5,0"/>
		</g>
	</g>
</g>
<circle fill="none" stroke="#E0BB9B" stroke-miterlimit="10" cx="554.9" cy="117.5" r="12"/>
<circle fill="none" stroke="#E0BB9B" stroke-miterlimit="10" cx="554.9" cy="170.3" r="12"/>
<circle fill="none" stroke="#E0BB9B" stroke-miterlimit="10" cx="554.9" cy="220.3" r="12"/>
<circle fill="none" stroke="#E0BB9B" stroke-miterlimit="10" cx="547" cy="273.9" r="12"/>
<circle fill="none" stroke="#E0BB9B" stroke-miterlimit="10" cx="499.7" cy="318.4" r="12"/>
<circle fill="none" stroke="#E0BB9B" stroke-miterlimit="10" cx="427.5" cy="319.4" r="12"/>
<g>
	<path fill="none" stroke="#E0BB9B" stroke-miterlimit="10" d="M617.4,242L617.4,242c0-16.2,13.2-29.4,29.4-29.4h46.3v58.9h-46.3
		C630.7,271.5,617.4,258.2,617.4,242z"/>
	<path fill="none" stroke="#E0BB9B" stroke-miterlimit="10" d="M632.9,223.7l-17.2,9.4c-1.5,0.8-3.3,0.3-4.1-1.2l-11-20.2
		c-0.8-1.5-0.3-3.3,1.2-4.1l17.2-9.4c1.5-0.8,3.3-0.3,4.1,1.2l11,20.2C634.9,221.1,634.4,222.9,632.9,223.7z"/>
	<path fill="none" stroke="#E0BB9B" stroke-miterlimit="10" d="M665,219.5l-19.6-0.1c-1.7,0-3-1.4-3-3l0.1-22.9c0-1.7,1.4-3,3-3
		l19.6,0.1c1.7,0,3,1.4,3,3l-0.1,22.9C668,218.2,666.6,219.6,665,219.5z"/>
	<path fill="none" stroke="#E0BB9B" stroke-miterlimit="10" d="M674.7,289.4l-19.2,3.8c-1.6,0.3-3.2-0.7-3.5-2.4l-4.4-22.5
		c-0.3-1.6,0.7-3.2,2.4-3.5l19.2-3.8c1.6-0.3,3.2,0.7,3.5,2.4l4.4,22.5C677.4,287.5,676.3,289.1,674.7,289.4z"/>
	<path fill="none" stroke="#E0BB9B" stroke-miterlimit="10" d="M626.2,252l16.5,10.6c1.4,0.9,1.8,2.7,0.9,4.1L631.1,286
		c-0.9,1.4-2.7,1.8-4.1,0.9l-16.5-10.6c-1.4-0.9-1.8-2.7-0.9-4.1l12.4-19.3C623,251.5,624.8,251.1,626.2,252z"/>
</g>
<g>
	<path fill="none" stroke="#E0BB9B" stroke-miterlimit="10" d="M617.4,366.2L617.4,366.2c0-16.2,13.2-29.4,29.4-29.4h46.3v58.9
		h-46.3C630.7,395.6,617.4,382.3,617.4,366.2z"/>
	<path fill="none" stroke="#E0BB9B" stroke-miterlimit="10" d="M632.9,347.8l-17.2,9.4c-1.5,0.8-3.3,0.3-4.1-1.2l-11-20.2
		c-0.8-1.5-0.3-3.3,1.2-4.1l17.2-9.4c1.5-0.8,3.3-0.3,4.1,1.2l11,20.2C634.9,345.2,634.4,347,632.9,347.8z"/>
	<path fill="none" stroke="#E0BB9B" stroke-miterlimit="10" d="M665,343.7l-19.6-0.1c-1.7,0-3-1.4-3-3l0.1-22.9c0-1.7,1.4-3,3-3
		l19.6,0.1c1.7,0,3,1.4,3,3l-0.1,22.9C668,342.4,666.6,343.7,665,343.7z"/>
	<path fill="none" stroke="#E0BB9B" stroke-miterlimit="10" d="M674.7,413.6l-19.2,3.8c-1.6,0.3-3.2-0.7-3.5-2.4l-4.4-22.5
		c-0.3-1.6,0.7-3.2,2.4-3.5l19.2-3.8c1.6-0.3,3.2,0.7,3.5,2.4l4.4,22.5C677.4,411.7,676.3,413.3,674.7,413.6z"/>
	<path fill="none" stroke="#E0BB9B" stroke-miterlimit="10" d="M626.2,376.1l16.5,10.6c1.4,0.9,1.8,2.7,0.9,4.1l-12.4,19.3
		c-0.9,1.4-2.7,1.8-4.1,0.9l-16.5-10.6c-1.4-0.9-1.8-2.7-0.9-4.1l12.4-19.3C623,375.6,624.8,375.2,626.2,376.1z"/>
</g>
<g>
	<path fill="none" stroke="#E0BB9B" stroke-miterlimit="10" d="M551.3,403L551.3,403c16.2,0,29.4,13.2,29.4,29.4v46.3h-58.9v-46.3
		C521.8,416.3,535.1,403,551.3,403z"/>
	<path fill="none" stroke="#E0BB9B" stroke-miterlimit="10" d="M569.6,418.5l-9.4-17.2c-0.8-1.5-0.3-3.3,1.2-4.1l20.2-11
		c1.5-0.8,3.3-0.3,4.1,1.2l9.4,17.2c0.8,1.5,0.3,3.3-1.2,4.1l-20.2,11C572.2,420.5,570.4,420,569.6,418.5z"/>
	<path fill="none" stroke="#E0BB9B" stroke-miterlimit="10" d="M573.7,450.6l0.1-19.6c0-1.7,1.4-3,3-3l22.9,0.1c1.7,0,3,1.4,3,3
		l-0.1,19.6c0,1.7-1.4,3-3,3l-22.9-0.1C575.1,453.6,573.7,452.2,573.7,450.6z"/>
	<path fill="none" stroke="#E0BB9B" stroke-miterlimit="10" d="M503.9,460.3l-3.8-19.2c-0.3-1.6,0.7-3.2,2.4-3.5l22.5-4.4
		c1.6-0.3,3.2,0.7,3.5,2.4l3.8,19.2c0.3,1.6-0.7,3.2-2.4,3.5l-22.5,4.4C505.7,463,504.2,461.9,503.9,460.3z"/>
	<path fill="none" stroke="#E0BB9B" stroke-miterlimit="10" d="M541.3,411.8l-10.6,16.5c-0.9,1.4-2.7,1.8-4.1,0.9l-19.3-12.4
		c-1.4-0.9-1.8-2.7-0.9-4.1l10.6-16.5c0.9-1.4,2.7-1.8,4.1-0.9l19.3,12.4C541.8,408.6,542.2,410.4,541.3,411.8z"/>
</g>
<path fill="none" stroke="#E0BB9B" stroke-width="10.7796" stroke-linecap="square" stroke-miterlimit="10" d="M393.6,296"/>
<path fill="none" stroke="#E0BB9B" stroke-width="10.7796" stroke-linecap="square" stroke-miterlimit="10" d="M380.7,180.9"/>
<line fill="none" stroke="#E0BB9B" stroke-width="10.7796" stroke-linecap="square" stroke-miterlimit="10" x1="297" y1="296" x2="393.6" y2="296"/>
<line fill="none" stroke="#E0BB9B" stroke-width="10.7796" stroke-linecap="square" stroke-miterlimit="10" x1="167" y1="296" x2="243" y2="296"/>
<g>
	<line fill="none" stroke="#E0BB9B" stroke-width="3" stroke-miterlimit="10" x1="358.9" y1="214.4" x2="381.2" y2="178"/>
	<g>
		<g>
			<path fill="none" stroke="#E0BB9B" stroke-miterlimit="10" d="M359.6,213c-0.4-0.2-0.9-0.5-1.3-0.7"/>
			<path fill="none" stroke="#E0BB9B" stroke-miterlimit="10" stroke-dasharray="3.048,3.048" d="M355.7,210.7
				c-11.3-7.5-19.1-19.9-20-34.3"/>
			<path fill="none" stroke="#E0BB9B" stroke-miterlimit="10" d="M335.6,174.9c0-0.5,0-1,0-1.5"/>
		</g>
	</g>
</g>
<line fill="none" stroke="#E0BB9B" stroke-width="10.7796" stroke-linecap="square" stroke-miterlimit="10" x1="384.7" y1="174.2" x2="393.6" y2="174.2"/>
<line fill="none" stroke="#E0BB9B" stroke-width="10.7796" stroke-linecap="square" stroke-miterlimit="10" x1="167" y1="174.2" x2="331" y2="174.2"/>
<line fill="none" stroke="#E0BB9B" stroke-width="10.7796" stroke-linecap="square" stroke-miterlimit="10" x1="393.6" y1="296" x2="393.6" y2="257.8"/>
<g>
	<polygon fill="#E0BB9B" points="267.4,398.1 349,391.6 351,391.4 351.2,395.5 349.2,395.6 	"/>
</g>
<g>
	
		<circle fill="none" stroke="#E0BB9B" stroke-width="0.5" stroke-linecap="square" stroke-miterlimit="10" cx="247.7" cy="389.7" r="1.8"/>
	
		<circle fill="none" stroke="#E0BB9B" stroke-width="0.5" stroke-linecap="square" stroke-miterlimit="10" cx="247.7" cy="393.8" r="1.8"/>
	
		<circle fill="none" stroke="#E0BB9B" stroke-width="0.5" stroke-linecap="square" stroke-miterlimit="10" cx="247.7" cy="397.9" r="1.8"/>
	
		<circle fill="none" stroke="#E0BB9B" stroke-width="0.5" stroke-linecap="square" stroke-miterlimit="10" cx="247.7" cy="402" r="1.8"/>
	
		<circle fill="none" stroke="#E0BB9B" stroke-width="0.5" stroke-linecap="square" stroke-miterlimit="10" cx="251.4" cy="391.5" r="1.8"/>
	
		<circle fill="none" stroke="#E0BB9B" stroke-width="0.5" stroke-linecap="square" stroke-miterlimit="10" cx="251.4" cy="395.6" r="1.8"/>
	
		<circle fill="none" stroke="#E0BB9B" stroke-width="0.5" stroke-linecap="square" stroke-miterlimit="10" cx="251.4" cy="399.7" r="1.8"/>
	
		<circle fill="none" stroke="#E0BB9B" stroke-width="0.5" stroke-linecap="square" stroke-miterlimit="10" cx="255" cy="393.6" r="1.8"/>
	
		<circle fill="none" stroke="#E0BB9B" stroke-width="0.5" stroke-linecap="square" stroke-miterlimit="10" cx="255" cy="397.7" r="1.8"/>
	
		<circle fill="none" stroke="#E0BB9B" stroke-width="0.5" stroke-linecap="square" stroke-miterlimit="10" cx="258.7" cy="395.6" r="1.8"/>
</g>
<path fill="none" stroke="#E0BB9B" stroke-miterlimit="10" d="M339.5,361.9H231.3c-2.8,0-5,2.3-5,5v56.2c0,2.8,2.3,5,5,5h108.1
	c2.8,0,5-2.3,5-5v-56.2C344.5,364.2,342.2,361.9,339.5,361.9z M341.4,369.8v50.5c0.9,0.6,1.5,1.6,1.5,2.8c0,1.8-1.5,3.3-3.4,3.3
	c-1.1,0-2.1-0.6-2.7-1.4c0,0,0,0,0,0h-48.4c-0.6,0.8-1.6,1.4-2.7,1.4c-1.1,0-2.1-0.6-2.7-1.4h-48.4c-0.6,0.8-1.6,1.4-2.7,1.4
	c-1.9,0-3.4-1.5-3.4-3.3c0-0.9,0.4-1.7,1-2.3c0-0.1,0-0.3,0-0.4v-50.5c0-0.3,0-0.7,0.1-1c-0.6-0.6-1-1.4-1-2.4
	c0-1.8,1.5-3.3,3.4-3.3c1.4,0,2.6,0.8,3.1,2h47.7c0.5-1.2,1.7-2,3.1-2c1.4,0,2.6,0.8,3.1,2h47.7c0.5-1.2,1.7-2,3.1-2
	c1.9,0,3.4,1.5,3.4,3.3c0,1.2-0.6,2.2-1.6,2.8C341.4,369.4,341.4,369.6,341.4,369.8z"/>
<g opacity="0.1">
	<path fill-rule="evenodd" clip-rule="evenodd" fill="#FFFFFF" d="M326.9,80.6c2.7,0,2.3,2.6,2.3,5.2c0,0.5,0,1,0,1.6
		c1-1,1.9-2.1,2.9-3.1c0.3-0.4,0.6-0.8,1-1.1c1-0.5,2.1,0.1,2.4,0.9c0.4,1.4-1.5,2.7-2.2,3.5c-1.4,1.5-2.8,3.1-4.2,4.6
		c0,1.1,0,2.2,0,3.3c0.7-0.5,1.1-1.6,2-1.9c1.2-0.5,2.1,0.5,2.2,1.5c0.1,0.9-0.7,1.4-1.1,1.8c-1,1.1-2,2.3-3.1,3.4
		c0,1.2,0,2.5,0,3.7c1-0.6,2-1.2,2.9-1.7c0.1-0.4,0.2-0.8,0.3-1.2c0.3-1,1.3-4.7,1.9-5.2c1.1-0.8,3-0.1,2.6,1.6
		c-0.3,0.8-0.5,1.6-0.8,2.5c1-0.6,2.1-1.2,3.1-1.8c-0.1-0.4,0.5-1.9,0.7-2.4c0.6-1.8,1.2-3.7,1.8-5.5c0.3-0.9,0.7-2,2-1.7
		c0.6,0.2,1.1,0.7,1.2,1.3c0.2,0.7-0.3,1.4-0.5,1.9c-0.4,1.3-0.8,2.7-1.2,4c1.5-0.8,5.8-4.4,7.1-1.5c1.3,3-3.6,3.8-4.9,5.1
		c0,0,0,0,0.1,0c1.5,0.7,4.5,0.5,5.7,1.4c0.6,0.5,0.8,1.8,0.2,2.4c-1,1-3.3,0.1-4.6-0.2c-1.9-0.4-3.7-0.8-5.6-1.2
		c-0.9,0.6-1.9,1.1-2.8,1.7c0.9,0.1,2.5,0.4,2.9,1c0.7,0.9,0.1,2.2-0.8,2.5c-0.8,0.3-4.4-0.7-5.3-0.9c-0.3-0.1-0.7-0.1-1-0.2
		c-1.1,0.6-2.1,1.2-3.2,1.8c0,0,0,0,0.1,0c0.9,0.6,1.9,1.1,2.8,1.7c0.4-0.1,0.9-0.2,1.3-0.3c1-0.3,4.9-1.3,5.7-0.8
		c0.8,0.5,1.1,2,0.2,2.7c-0.7,0.5-2.1,0.6-3,0.8c0,0,0,0,0,0.1c1,0.6,2,1.2,3,1.7c0.7-0.4,1.8-0.4,2.7-0.6c2.1-0.5,4.1-0.9,6.2-1.4
		c0.8-0.1,1.4,0.4,1.7,0.9c0.3,0.7,0,1.6-0.4,1.9c-0.6,0.5-4.9,1.3-6,1.5c0,0,0,0,0,0.1c0.7,0.4,1.3,0.8,2,1.1
		c1.4,0.8,4.6,2.1,2.6,4.5c-1.6,2-5.2-1.4-6.7-1.9c0,0,0,0,0,0c0.6,1.7,1.1,3.4,1.7,5.2c0.3,1.3-1.1,2.3-2.2,1.8
		c-1.2-0.5-1.7-3.6-2.2-5c-0.5-1.5-0.9-2.9-1.4-4.4c-1-0.6-1.9-1.1-2.9-1.7c0.2,0.8,0.9,1.7,0.7,2.7c-0.2,1.1-1.7,1.8-2.7,0.9
		c-0.6-0.5-1.5-4-1.8-5c-0.1-0.3-0.2-0.7-0.3-1c-1-0.6-2.1-1.2-3.1-1.8c0,0.9,0,1.8,0,2.6c1.2,1.3,2.5,2.7,3.7,4
		c0.3,0.4,0.6,1,0.4,1.6c-0.1,0.5-0.5,0.8-0.9,1c-1.6,0.8-2.4-1.2-3.2-1.8c0,1.1,0,2.2,0,3.3c1.4,1.5,2.8,3.1,4.2,4.6
		c0.6,0.7,2.6,2.1,2.2,3.5c-0.3,0.8-1.4,1.5-2.4,0.9c-0.4-0.2-0.7-0.7-1-1.1c-1-1-1.9-2.1-2.9-3.1c0,1.4,0,2.9,0,4.3
		c0,0.7,0.1,1.5-0.1,2c-0.3,0.7-0.9,1.2-1.7,1.4c-1.6,0.3-2.3-1-2.4-2.3c0-1.8,0-3.7,0-5.5c0,0,0,0,0,0c-0.1,0.1-0.2,0.2-0.3,0.3
		c-1.2,1.3-2.4,2.6-3.6,3.9c-1,0.7-2.3,0-2.5-1c-0.2-1,0.5-1.5,0.9-2c1.3-1.5,2.6-2.9,4-4.4c0.2-0.2,1.6-1.6,1.6-1.7
		c0.1-0.4,0.1-3.3,0-3.5c-0.2,0.5-1.7,2-2.3,2.2c-1.1,0.3-2.3-0.6-2.1-1.7c0.1-0.9,0.8-1.3,1.3-1.8c1.1-1.2,2.1-2.4,3.2-3.5
		c0-0.8,0-1.6,0-2.4c-0.8,0.5-1.6,1-2.4,1.5c-0.7,1.4-1.2,5.4-2.3,6.1c-1.2,0.8-2.4-0.2-2.5-1.4c0-0.6,0.4-1.7,0.7-2.3c0,0,0,0,0,0
		c-0.9,0.5-1.9,1.1-2.8,1.6c-0.7,2.3-1.5,4.6-2.2,6.9c-0.4,1.2-0.5,2.4-1.8,2.6c-1,0.2-2.1-0.8-1.8-1.9c0.5-1.7,1.1-3.4,1.6-5.2
		c-1.7,1-3.4,2-5.1,2.9c-1.2,0.5-2.4-0.3-2.7-1.1c-0.6-1.3,0.3-2.3,1.1-2.8c1.6-0.9,3.2-1.9,4.8-2.8c-1.1-0.1-5.4-1-6-1.5
		c-0.5-0.4-0.8-1.4-0.3-2.1c0.5-0.7,1.4-0.8,2.4-0.5c1.9,0.4,3.8,0.9,5.7,1.3c0.8,0.2,1.7,0.2,2.4,0.6c1-0.6,2-1.2,3.1-1.8
		c-1-0.1-2.8-0.4-3.3-1.1c-0.6-0.8-0.2-2,0.5-2.4c0.8-0.4,4.5,0.5,5.5,0.8c0.5,0.1,1,0.2,1.5,0.3c0.7-0.4,1.3-0.8,2-1.2
		c0,0,0,0,0-0.1c-0.6-0.2-2-1.4-2.5-1.3c-1.5,0.3-3,0.6-4.4,1c-0.6,0.1-1.4,0.4-2,0.1c-0.8-0.5-1.1-2-0.3-2.7
		c0.6-0.5,1.8-0.6,2.7-0.8c-0.9-0.6-1.9-1.1-2.8-1.7c-2,0.4-3.9,0.8-5.9,1.2c-1.1,0.3-3.1,1.1-4.1,0.3c-0.8-0.6-0.7-2,0-2.5
		c0.4-0.3,1-0.3,1.6-0.5c1.4-0.3,2.8-0.6,4.2-0.9c0,0,0-0.1-0.1-0.1c-0.5-0.3-1-0.6-1.6-0.9c-1.1-0.6-3.3-1.5-3.9-2.5
		c-0.5-0.7-0.4-1.9,0.1-2.5c0.4-0.6,1.5-1.1,2.5-0.7c1.7,1,3.5,2,5.2,3c0,0,0-0.1,0-0.1c-0.4-1.3-0.8-2.7-1.2-4
		c-0.2-0.6-0.6-1.2-0.4-1.9c0.2-0.7,0.7-1.1,1.5-1.2c1.4-0.2,1.7,1.3,2,2.2c0.8,2.5,1.6,5,2.4,7.4c1,0.6,2,1.2,3.1,1.7c0,0,0,0,0,0
		c-0.3-0.9-0.5-1.7-0.8-2.6c-0.2-1.3,1.4-2.2,2.5-1.6c1,0.6,1.7,4.2,2.2,5.5c0.1,0.4,0.2,0.7,0.3,1.1c0.7,0.4,1.5,0.9,2.2,1.3
		c0-0.1,0-0.2,0-0.2c0-1,0-2.1,0-3.1c0.1-0.4-0.7-0.9-1-1.2c-0.9-1-1.7-1.9-2.6-2.9c-0.4-0.4-1-0.8-0.9-1.7c0.2-1.1,1.4-2,2.5-1.2
		c0.6,0.7,1.2,1.3,1.8,2c0.1-0.1,0.1-0.1,0-0.2c0-1.1,0-2.2,0-3.3c-0.6-0.3-1.5-1.5-1.9-2.1c-1.4-1.5-2.8-3-4.2-4.6
		c-0.4-0.5-0.4-1.5,0-2c0.4-0.6,1.5-0.8,2.2-0.3c1.3,1.4,2.6,2.8,3.9,4.2c0,0,0,0,0,0c-0.1-1.1-0.3-5.1,0.5-6.1
		C325.8,80.9,326.3,80.8,326.9,80.6z"/>
</g>
<g opacity="0.2">
	<path fill-rule="evenodd" clip-rule="evenodd" fill="#FFFFFF" d="M249.4,114.2c0.2,0,0.2,0,0.3,0.1c0,0.7,0.1,1.4,0.1,2.1
		c0,0,0,0,0,0c0,0,0.1-0.1,0.1-0.1c0.7-0.3,1-1.1,1.6-1.6c0,0,0,0,0.1,0c0.5,0.3,0.1,0.9-0.1,1.3c-0.3,0.5-0.5,1-0.8,1.5
		c-0.2,0.3-0.5,0.6-0.7,0.9c-0.1,0.1,0,0.6,0.1,0.7c0.9-0.5,1.6-1.4,2.4-2.1c0.2,0,0.2,0,0.3,0.1c0.2,0.6-0.1,1-0.4,1.4
		c-0.6,1-1.4,1.9-2.2,2.8c0,0.3,0,0.6,0.1,0.9c1-0.2,2.4-1.8,3.1-2.5c0.3,0,0.3,0.2,0.5,0.3c0,0.9-2.2,3.2-2.7,3.8
		c-0.3,0.2-0.5,0.4-0.8,0.7c0,0.2,0,0.5,0.1,0.7c1.1-0.2,3-1.9,3.7-2.7c0.3-0.3,0.5-1,1.1-1c0.1,0.1,0.3,0.2,0.4,0.3
		c0,0.8-0.7,1.4-1,1.9c-1.1,1.7-2.5,3.3-4,4.6c0.1,2.2,0.3,4.4,0.4,6.6c1.6-1.5,3.3-2.9,4.9-4.4c-0.2-2.2,0-4.9,0.5-6.7
		c0.2-0.5,0.2-1.2,0.6-1.4c0.2-0.1,0.4,0,0.5,0.1c0.2,0.4-0.1,1.9,0,2.7c0.1,0.9,0.2,1.6,0.4,2.4c0.1,0.3,0.2,0.6,0.3,0.9
		c0,0,0.1,0,0.1-0.1c0.2-0.2,0.3-0.3,0.5-0.5c-0.4-1.3,0-3.3,0.2-4.4c0.1-0.4,0.1-1,0.4-1.1c0.2-0.1,0.4-0.1,0.5,0.1
		c0,0.4,0,0.8,0,1.2c0,0.9,0.1,2.2,0.5,2.8c0.2-0.2,0.4-0.4,0.7-0.6c0-1.4,0.2-4,0.8-4.6c0.2-0.1,0.4-0.1,0.6-0.2
		c0.1,0,0.1,0,0.1,0.1c0,0.5,0,1.1-0.1,1.6c0.1,0.5,0.1,1.1,0.2,1.6c0,0,0.1,0,0.1,0c0.1-0.1,0.3-0.3,0.4-0.4c0-0.3,0.1-0.5,0.1-0.8
		c0.1-0.7,0.6-2.6,1-2.9c0.2-0.1,0.4-0.1,0.5-0.2c0.2,0.4-0.3,1.8,0,2.5c0.1-0.1,0.1-0.1,0.2-0.2c0.6-0.3,0.9-1.1,1.5-1.3
		c0,0.1,0.1,0.1,0.1,0.2c0,0,0,0,0,0c-0.5,0.5-0.9,1.1-1.4,1.6c0.4,0,2.3,0,2.4,0.1c-0.6,1.6-3.6,0.7-4.3,1.9c0,0,0,0,0,0
		c0.3,0.1,0.6,0.1,1,0.2c0.7,0.1,1.9-0.2,2.3,0.1c0,0.1,0,0.3-0.1,0.4c-0.5,0.6-2.7,0.8-3.7,0.9c-0.3,0-0.7,0-1,0
		c-0.2,0.2-0.4,0.5-0.6,0.7c0,0,0,0,0,0c0.7,0.1,1.6,0.3,2.5,0.4c0.5,0,1,0,1.5,0c0,0,0.1,0.1,0.1,0.1c0,0.2,0,0.3-0.1,0.5
		c-1.1,0.7-3.9,0.6-5.6,0.6c-0.2,0.2-0.3,0.4-0.5,0.6c0.8,0.1,1.7,0.4,2.5,0.6c0.6,0,1.1,0.1,1.7,0.1c0.6,0.1,1.4-0.3,1.7,0
		c0.1,0.1,0.2,0.3,0.1,0.5c-0.2,0.5-1.2,0.5-1.8,0.6c-1.9,0.5-4.1,0.5-6.4,0.5c-1.5,1.6-2.9,3.3-4.4,4.9c0,0,0,0,0,0
		c2.2,0.1,4.4,0.2,6.5,0.4c0.5-0.5,1-1,1.5-1.5c0.9-0.9,1.9-1.8,3.1-2.5c0.4-0.3,1.4-1,2-0.9c0.1,0.1,0.2,0.2,0.3,0.3
		c0,0.1,0,0.1,0,0.2c-0.2,0.4-0.8,0.6-1.1,1c-0.8,0.9-2.3,2.4-2.6,3.7c0.2,0,0.5,0,0.7,0c0.8-1.1,1.9-2,3.1-2.8
		c0.3-0.2,0.9-0.9,1.3-0.7c0.2,0.1,0.4,0.2,0.3,0.4c-0.1,0.3-0.5,0.5-0.7,0.7c-0.5,0.5-1.6,1.7-1.7,2.5c0.3,0,0.6,0,0.8,0.1
		c0.3-0.3,0.6-0.6,0.9-0.9c0.6-0.4,1.2-0.8,1.8-1.2c0.6-0.4,1.2-0.8,1.8-0.3c0,0,0,0,0,0c-0.3,0.3-0.6,0.5-0.9,0.8
		c-0.5,0.5-1,1.1-1.4,1.7c0,0,0,0,0,0.1c0.3,0,0.5,0.1,0.6,0c1-0.4,2.6-2.3,3.9-1.6c0,0,0,0.1,0,0.1c-0.4,0.3-1.6,1.2-1.8,1.7
		c0.7,0,1.5,0.1,2.2,0.1c0,0.1,0,0.2,0,0.3c-0.7,0.1-1.4,0.1-2.2,0.2c0.5,0.6,1.2,1.1,1.7,1.7c0,0.1-0.1,0.1-0.1,0.2
		c-1.6,0.5-2.8-1.9-4.3-1.7c0,0,0,0,0,0c0.4,0.6,0.8,1.1,1.3,1.6c0.3,0.3,0.5,0.5,0.8,0.8c0,0.2-0.2,0.3-0.4,0.4
		c-1-0.1-2.3-1.3-3.1-1.9c-0.3-0.3-0.6-0.6-0.9-0.8c-0.3,0-0.6,0.1-0.9,0.1c0.4,0.8,1,1.5,1.5,2.2c0.3,0.4,0.7,0.6,1,1
		c0,0.1,0,0.1-0.1,0.2c-0.1,0.1-0.2,0.2-0.5,0.2c-1.3-0.5-2.3-1.7-3.4-2.5c-0.3-0.3-0.6-0.6-0.9-1c-0.3,0-0.5,0-0.8,0.1c0,0,0,0,0,0
		c0.8,1.3,1.6,2.5,2.6,3.6c0.3,0.3,1.2,0.7,1.1,1.1c0,0.2-0.2,0.3-0.3,0.4c-0.8,0-1.4-0.6-1.9-1c-1.1-0.7-2.1-1.5-3-2.4
		c-0.5-0.5-1.1-1.1-1.6-1.6c-0.3-0.2-1.5,0.1-2,0.1c-1.5,0.1-3,0.2-4.6,0.2c0.2,0.6,1,1.1,1.3,1.5c1,1.1,2,2.3,3,3.4
		c2.4,0,6.8-0.1,8.2,1.1c0,0.2,0,0.3-0.1,0.5c-0.6,0.2-1.5,0-2.3,0c-1.2,0-3,0.2-3.7,0.7c0.2,0.2,0.3,0.4,0.5,0.5
		c1.5-0.1,3-0.1,4.2,0.2c0.4,0.1,1.1,0.1,1.3,0.4c0.1,0.1,0.1,0.3,0,0.5c-0.3,0.1-0.8,0-1.3,0c-0.7,0-2.5,0.2-2.8,0.5
		c0.2,0.2,0.4,0.4,0.6,0.6c1.5,0,2.8,0.1,3.9,0.5c0.4,0.2,1.2,0.3,0.9,1c-1.1,0-2.3-0.1-3.3,0.1c0,0,0,0,0,0
		c0.6,1.1,4.2,0.5,4.3,2.1c0,0,0,0-0.1,0c-0.3,0.1-2.2-0.3-2.4,0c0.5,0.5,1,1.1,1.4,1.6c0,0.1-0.1,0.1-0.1,0.2c0,0-0.1,0-0.1,0
		c-0.5-0.5-1-0.9-1.6-1.4c0,0,0,0-0.1,0c0,0.4,0,0.9-0.1,1.3c0,0.3,0.1,0.8,0,1.1c-1-0.1-1.2-2-1.4-2.9c0-0.3-0.1-0.6-0.1-1
		c-0.2-0.1-0.3-0.3-0.5-0.4c0,0,0,0-0.1,0c0,0.7-0.2,1.5-0.2,2.3c0,0.4,0.1,0.8-0.1,0.9c-0.1,0-0.3,0-0.4-0.1
		c-0.6-0.9-0.7-2.3-0.9-3.5c-0.1-0.8,0.2-1-0.3-1.4c-0.1-0.1-0.2-0.3-0.4-0.3c-0.2,0.7-0.3,1.7-0.5,2.6c0,0.4,0,0.9,0,1.3
		c0,0-0.1,0.1-0.1,0.1c-0.8,0-0.7-0.5-0.8-1.1c-0.3-1.3-0.3-3-0.3-4.5c-0.2-0.2-0.4-0.3-0.6-0.5c0,0,0,0-0.1,0
		c-0.1,0.3-0.2,0.6-0.3,0.9c-0.1,0.7-0.2,1.3-0.3,2c-0.1,0.9,0.2,2.4-0.1,3.1c-0.1,0.1-0.4,0.1-0.5,0.1c-0.4-0.2-0.4-1.1-0.6-1.6
		c-0.2-1-0.3-2.3-0.5-3.4c0-0.6,0-1.1,0-1.7c-0.1-0.4-0.1-1,0-1.4c-0.1-0.3-0.9-0.9-1.1-1.1c-0.9-0.7-1.7-1.5-2.6-2.3
		c-0.4-0.3-0.7-0.9-1.2-1.1c0,0,0,0,0,0.1c-0.1,2.2-0.2,4.3-0.3,6.5c0.4,0.4,0.8,0.7,1.1,1.1c0.4,0.4,0.7,0.7,1.1,1.1
		c0.6,0.7,1.2,1.4,1.7,2.2c0.4,0.5,1,1.3,1,2.1c-0.2,0.1-0.2,0.2-0.5,0.3c-0.4-0.3-0.6-0.6-0.9-1c-0.5-0.5-1-0.9-1.5-1.4
		c-0.7-0.5-1.5-0.9-2.3-1.4c0,0,0,0-0.1,0c0,0.2,0,0.5,0,0.7c1.1,0.8,3.1,2.9,3.5,4.3c-0.1,0.2-0.2,0.4-0.4,0.4
		c-0.3-0.3-0.6-0.7-0.9-0.9c-0.7-0.6-1.5-1.1-2.3-1.6c0,0,0,0.1-0.1,0.1c0,0.3,0,0.5,0,0.8c0.3,0.3,0.6,0.6,0.9,1
		c0.5,0.7,1.6,2,1.7,2.8c0.1,0.3-0.2,0.5-0.3,0.7c0,0-0.1,0-0.1,0c-0.6-0.6-1.6-2-2.5-2.2c0,1.5,2.5,3.1,1.6,4.5c0,0-0.1,0-0.1,0
		c-0.3-0.7-1.1-1.2-1.6-1.7c0,0,0,0-0.1,0c0,0.7-0.1,1.5-0.1,2.2c-0.1,0-0.2,0-0.3,0c0-0.7-0.1-1.4-0.1-2.1c0,0,0,0,0,0
		c-0.4,0.3-1.4,1.6-1.7,1.7c-0.6-0.8,0.7-2.5,1.2-3.2c0.1-0.2,0.3-0.3,0.4-0.5c0-0.2,0-0.5,0-0.7c-0.8,0.2-1.8,1.5-2.4,2.1
		c-0.1,0-0.1,0-0.2-0.1c-0.6-1.2,1.9-3.4,2.5-4.3c0-0.3,0-0.6-0.1-0.9c0,0,0,0,0,0c-0.8,0.3-1.6,1-2.2,1.5c-0.3,0.3-0.6,0.9-1,1
		c-0.2-0.1-0.2-0.2-0.4-0.4c0-0.9,2.1-3.1,2.7-3.7c0.3-0.2,0.5-0.5,0.8-0.7c0-0.3,0-0.5,0-0.8c-1.1,0.3-2.9,1.8-3.6,2.6
		c-0.2,0.2-0.7,1.2-1.2,1.1c-0.2-0.1-0.2-0.2-0.4-0.3c0.1-0.7,0.5-1.1,0.8-1.6c1.2-1.9,2.7-3.3,4.2-4.9c-0.1-2.2-0.3-4.4-0.4-6.5
		c0,0,0,0-0.1,0.1c-1.6,1.4-3.2,2.9-4.8,4.3c0,2.3,0.1,4.7-0.5,6.6c-0.2,0.5-0.2,1.6-0.8,1.6c-0.6-0.2-0.4-0.8-0.3-1.4
		c0.3-1.8-0.3-3.4-0.7-4.7c-0.2,0.1-0.4,0.3-0.6,0.5c0,1.7,0.2,4.4-0.6,5.5c-0.1,0-0.3,0.1-0.5,0.1c-0.1,0-0.1-0.1-0.2-0.1
		c0-0.8,0-3.8-0.5-4c-0.2,0.2-0.5,0.3-0.6,0.6c0,0.5,0,1,0,1.4c-0.2,1-0.4,3.5-1.5,3.4c-0.1-0.5,0-1.6,0-2.2
		c-0.1-0.4-0.1-0.8-0.2-1.2c-0.2,0-0.4,0.2-0.5,0.4c-0.1,0.4-0.1,0.8-0.2,1.2c-0.2,0.7-0.4,1.2-0.6,1.8c-0.1,0.4-0.4,1.1-1,0.9
		c0-0.7,0.3-1.6,0.1-2.4c0,0-0.1,0-0.1,0c-0.5,0.5-1.1,0.9-1.6,1.4c0,0,0,0-0.1,0c0-0.1-0.1-0.1-0.1-0.2c0.2-0.7,1.1-1,1.4-1.7
		c-0.5,0-2.2,0.1-2.4-0.1c0.1-1.6,3.9-0.8,4.2-2c0,0,0,0-0.1,0c-0.6-0.2-1.5-0.2-2.3-0.2c-0.3,0-0.8,0.1-1-0.1
		c-0.1-0.1,0-0.3,0.1-0.5c0.9-0.6,2.5-0.7,3.8-0.9c0.3,0,0.6,0,0.9,0c0.2-0.1,0.6-0.5,0.6-0.7c-0.7-0.2-1.6-0.3-2.5-0.4
		c-0.5,0-1,0-1.5,0c0,0-0.1-0.1-0.1-0.1c0-0.2,0-0.4,0.1-0.5c1.7-0.5,3.5-0.5,5.5-0.5c0.1-0.2,0.4-0.3,0.5-0.6
		c-0.9-0.2-2-0.5-3.1-0.6c-1-0.1-1.9,0.2-2.8,0c-0.1-0.1-0.1-0.1-0.2-0.2c0-0.9,1-0.9,1.8-1c1-0.2,2.3-0.3,3.4-0.5c1,0,2,0,2.9,0
		c1.4-1.6,2.9-3.2,4.3-4.9c0,0,0,0,0,0c-2.2-0.1-4.4-0.2-6.5-0.4c-0.4,0.4-0.8,0.8-1.1,1.2c-1.2,0.9-2.1,2-3.4,2.8
		c-0.4,0.3-1.4,1.1-2,1c-0.1-0.1-0.3-0.2-0.3-0.5c0.3-0.4,0.6-0.6,1-0.9c0.7-0.6,2.6-2.8,2.8-3.8c-0.1,0-0.2,0-0.4,0
		c-0.1,0-0.2,0-0.4,0c-0.3,0.3-0.6,0.7-0.9,1c-0.8,0.6-1.4,1.3-2.3,1.9c-0.3,0.2-0.7,0.7-1.3,0.6c-0.1-0.1-0.3-0.2-0.3-0.4
		c0.7-0.8,2.3-2,2.5-3.2c-0.1,0-0.1,0-0.2,0c-0.2,0-0.4,0-0.6-0.1c-0.3,0.1-0.5,0.5-0.7,0.7c-0.7,0.5-1.4,1.2-2.2,1.6
		c-0.5,0.2-1.2,0.7-1.6,0.1c0.1-0.3,0.5-0.6,0.8-0.7c0.5-0.4,1.1-1.1,1.4-1.7c0,0,0,0,0-0.1c-0.2,0-0.4,0-0.6,0
		c-0.3,0.2-0.6,0.4-0.8,0.7c-0.5,0.3-1,0.6-1.6,0.8c-0.5,0.2-1,0.6-1.5,0.1c0,0,0-0.1,0-0.1c0.6-0.4,1.4-1,1.7-1.6c0,0,0,0-0.1,0
		c-0.7-0.1-1.4-0.1-2.2-0.2c0-0.1,0-0.1,0-0.2c0,0,0-0.1,0.1-0.1c0.7,0,1.4-0.1,2.1-0.1c0,0,0,0,0,0c-0.2-0.3-0.4-0.5-0.7-0.8
		c-0.3-0.3-0.7-0.6-1-0.9c0.1-0.3,0.7-0.4,1-0.2c1,0.6,1.9,1.1,2.8,1.8c0.2,0,0.5,0,0.7,0c-0.2-0.8-2.1-2.1-2.1-2.6
		c0.1-0.1,0.3-0.3,0.5-0.2c0.7,0.1,2.5,1.5,3.1,2c0.3,0.2,0.5,0.5,0.8,0.7c0.3,0,0.6,0,0.9,0c0,0,0,0,0-0.1c-0.4-0.8-1-1.5-1.6-2.2
		c-0.3-0.3-0.9-0.5-0.9-1c0.1-0.2,0.2-0.2,0.4-0.3c0.4,0.1,0.6,0.3,0.9,0.5c1,0.6,1.9,1.4,2.7,2.2c0.2,0.3,0.4,0.5,0.7,0.8
		c0.2,0,0.6,0,0.8-0.1c-0.7-1.4-1.6-2.6-2.7-3.7c-0.2-0.2-1.2-0.6-1-1.1c0.1-0.1,0.2-0.2,0.3-0.3c0.8,0,1.4,0.6,1.9,1
		c1.1,0.7,2.1,1.5,2.9,2.3c0.5,0.6,1.1,1.1,1.6,1.7c0.6,0,1.3,0,1.9-0.1c1.6-0.1,3.1-0.2,4.7-0.3c-0.2-0.5-0.8-0.9-1.1-1.2
		c-1.1-1.2-2.2-2.5-3.3-3.7c-2.3,0-4.3,0.1-6.3-0.4c-0.7-0.2-1.5-0.3-1.9-0.7c0-0.2,0-0.4,0.1-0.5c0.7-0.2,1.6,0.2,2.4,0.1
		c1.3-0.2,2.5-0.3,3.6-0.7c0,0,0,0,0-0.1c-0.2-0.2-0.3-0.3-0.5-0.5c-1.4,0.1-3.1,0.1-4.4-0.2c-0.4-0.1-1-0.1-1.2-0.4
		c0-0.1-0.1-0.3,0-0.4c0-0.1,0-0.1,0.1-0.1c0.4,0,0.9,0,1.3,0c0.9-0.2,1.8-0.3,2.6-0.5c-0.1-0.2-0.4-0.5-0.6-0.7
		c-1.5,0-4.7-0.2-4.9-1.4c0,0,0.1-0.1,0.1-0.1c0.8,0,2.8,0.2,3.3-0.2c-0.1-0.2-0.3-0.3-0.4-0.5c-0.9,0-3.2-0.6-3.7-1
		c-0.1-0.1-0.2-0.4-0.2-0.6c0.1-0.1,2,0,2.5,0.1c-0.2-0.5-1.1-1.2-1.4-1.7c0,0,0-0.1,0-0.1c0.1,0,0.1-0.1,0.2-0.1
		c0.5,0.2,1.2,1,1.6,1.4c0,0,0,0,0.1,0c0-0.5,0-2.2,0.1-2.4c1,0.1,1.2,2,1.4,3c0,0.3,0.1,0.5,0.1,0.8c0.2,0.2,0.3,0.3,0.5,0.5
		c0,0,0,0,0.1,0c0.1-0.6,0.1-1.2,0.2-1.8c0-0.5,0-0.9,0-1.4c0.6-0.2,0.8,0.4,0.9,0.9c0.2,0.8,0.3,1.7,0.5,2.6c0,0.4,0,0.8,0.1,1.2
		c0.2,0.2,0.4,0.4,0.6,0.6c0.3-0.2,0.4-2,0.5-2.5c0.1-0.5-0.2-1.1,0.1-1.5c0.1,0,0.3,0,0.5,0c0.6,0.5,0.9,4.3,0.6,5.5
		c0.1,0.2,0.4,0.4,0.6,0.6c0,0,0,0,0.1,0c0.2-0.8,0.5-1.8,0.6-2.7c0.1-1-0.2-2.4,0-3.2c0.1,0,0.1-0.1,0.2-0.1c0.1,0,0.3,0,0.4,0
		c0.4,0.2,0.4,1,0.6,1.6c0.3,1.2,0.3,2.7,0.5,4.1c0,0.8,0,1.7,0,2.5c1.6,1.5,3.3,2.9,4.9,4.4c0,0,0,0,0-0.1c0.1-2.2,0.3-4.4,0.4-6.5
		c-0.4-0.3-0.8-0.7-1.1-1.1c-1.1-1.1-2.1-2.2-2.9-3.5c-0.3-0.5-1-1.3-0.9-2c0.1-0.1,0.2-0.2,0.3-0.3c0.6,0.1,0.8,0.8,1.1,1.1
		c1,1,2.2,2.1,3.7,2.6c0,0,0,0,0-0.1c0-0.2,0-0.4,0-0.7c-0.2-0.3-0.6-0.5-0.8-0.7c-0.8-0.7-1.4-1.5-2-2.5c-0.2-0.3-0.8-0.8-0.6-1.3
		c0.1-0.1,0.2-0.4,0.4-0.3c0.4,0.1,0.7,0.7,1,1c0.7,0.6,1.4,1.1,2.2,1.5c0,0,0,0,0.1,0c0-0.3,0-0.6,0-0.9c-0.9-0.7-1.8-1.9-2.3-3
		c-0.2-0.4-0.6-1.1-0.1-1.4c0.2,0,0.5,0.5,0.7,0.6c0.5,0.5,1.2,1.3,1.9,1.6c0,0,0,0,0-0.1c0.3-0.6-0.4-1-0.6-1.3
		c-0.5-0.7-1.5-2.2-1-3.1c0.1,0,0.1,0,0.2,0.1c0.3,0.6,1,1.4,1.6,1.7C249.3,115.7,249.4,115,249.4,114.2z"/>
</g>
<g>
	<ellipse fill="none" stroke="#E0BB9B" stroke-miterlimit="10" cx="234.4" cy="106.7" rx="6.7" ry="14"/>
	<path fill="none" stroke="#E0BB9B" stroke-miterlimit="10" d="M192.5,92.6c-4.6,0-8.3,6.3-8.3,14s3.7,14,8.3,14"/>
	<path fill="none" stroke="#E0BB9B" stroke-miterlimit="10" d="M189,93.9c5.8-3.2,14.5-5.2,24.2-5.2c8.6,0,16.5,1.6,22.2,4.2"/>
	<path fill="none" stroke="#E0BB9B" stroke-miterlimit="10" d="M235.6,120.2c-5.7,2.6-13.7,4.2-22.4,4.2c-9.7,0-18.4-1.9-24.2-5"/>
</g>
<g>
	<ellipse fill="none" stroke="#E0BB9B" stroke-miterlimit="10" cx="234.4" cy="141.9" rx="6.7" ry="14"/>
	<path fill="none" stroke="#E0BB9B" stroke-miterlimit="10" d="M192.5,127.9c-4.6,0-8.3,6.3-8.3,14s3.7,14,8.3,14"/>
	<path fill="none" stroke="#E0BB9B" stroke-miterlimit="10" d="M189,129.1c5.8-3.2,14.5-5.2,24.2-5.2c8.6,0,16.5,1.6,22.2,4.2"/>
	<path fill="none" stroke="#E0BB9B" stroke-miterlimit="10" d="M235.6,155.5c-5.7,2.6-13.7,4.2-22.4,4.2c-9.7,0-18.4-1.9-24.2-5"/>
</g>
<g>
	<ellipse fill="none" stroke="#E0BB9B" stroke-miterlimit="10" cx="223.8" cy="123" rx="6.7" ry="14"/>
	<path fill="none" stroke="#E0BB9B" stroke-miterlimit="10" d="M181.8,109c-4.6,0-8.3,6.3-8.3,14s3.7,14,8.3,14"/>
	<path fill="none" stroke="#E0BB9B" stroke-miterlimit="10" d="M178.4,110.2c5.8-3.2,14.5-5.2,24.2-5.2c8.6,0,16.5,1.6,22.2,4.2"/>
	<path fill="none" stroke="#E0BB9B" stroke-miterlimit="10" d="M225,136.6c-5.7,2.6-13.7,4.2-22.4,4.2c-9.7,0-18.4-1.9-24.2-5"/>
</g>
<g>
	<ellipse fill="none" stroke="#E0BB9B" stroke-miterlimit="10" cx="369.2" cy="141.1" rx="14" ry="6.7"/>
	<path fill="none" stroke="#E0BB9B" stroke-miterlimit="10" d="M383.2,99.1c0-4.6-6.3-8.3-14-8.3s-14,3.7-14,8.3"/>
	<path fill="none" stroke="#E0BB9B" stroke-miterlimit="10" d="M382,95.7c3.2,5.8,5.2,14.5,5.2,24.2c0,8.6-1.6,16.5-4.2,22.2"/>
	<path fill="none" stroke="#E0BB9B" stroke-miterlimit="10" d="M355.6,142.3c-2.6-5.7-4.2-13.7-4.2-22.4c0-9.7,1.9-18.4,5-24.2"/>
</g>
<g>
	<ellipse fill="none" stroke="#E0BB9B" stroke-miterlimit="10" cx="332.9" cy="141.1" rx="14" ry="6.7"/>
	<path fill="none" stroke="#E0BB9B" stroke-miterlimit="10" d="M347,99.1c0-4.6-6.3-8.3-14-8.3s-14,3.7-14,8.3"/>
	<path fill="none" stroke="#E0BB9B" stroke-miterlimit="10" d="M345.7,95.7c3.2,5.8,5.2,14.5,5.2,24.2c0,8.6-1.6,16.5-4.2,22.2"/>
	<path fill="none" stroke="#E0BB9B" stroke-miterlimit="10" d="M319.4,142.3c-2.6-5.7-4.2-13.7-4.2-22.4c0-9.7,1.9-18.4,5-24.2"/>
</g>
<polygon fill="none" stroke="#E0BB9B" stroke-miterlimit="10" points="221.8,290.9 181.8,290.9 181.8,179.2 327.5,178.2 
	327.5,217.3 221.8,217.3 "/>
<path fill="none" stroke="#E0BB9B" stroke-miterlimit="10" d="M205.1,266.4h-7.7c-6.6,0-12-5.4-12-12v-19.9c0-6.6,5.4-12,12-12h7.7
	c6.6,0,12,5.4,12,12v19.9C217.1,261,211.7,266.4,205.1,266.4z"/>
<circle fill="none" stroke="#E0BB9B" stroke-miterlimit="10" cx="204.2" cy="244.7" r="3.7"/>
<circle fill="none" stroke="#E0BB9B" stroke-miterlimit="10" cx="240.3" cy="192" r="5.9"/>
<circle fill="none" stroke="#E0BB9B" stroke-miterlimit="10" cx="256.8" cy="192" r="5.9"/>
<circle fill="none" stroke="#E0BB9B" stroke-miterlimit="10" cx="256.8" cy="206.9" r="5.9"/>
<circle fill="none" stroke="#E0BB9B" stroke-miterlimit="10" cx="240.3" cy="206.9" r="5.9"/>
<path fill="#465E61" stroke="#E0BB9B" stroke-miterlimit="10" d="M295.1,215.6l-14.3-10.3c0,0,0,0,0,0c1.1-1.9,1.7-4,1.7-6.4
	c0-7.1-5.7-12.8-12.8-12.8c-7.1,0-12.8,5.7-12.8,12.8s5.7,12.8,12.8,12.8c3.1,0,5.9-1.1,8.1-2.9c0.1,0.1,0.2,0.2,0.3,0.3l14.3,10.3
	c0.4,0.3,0.9,0.4,1.3,0.4c0.7,0,1.4-0.3,1.9-1C296.3,217.7,296.1,216.3,295.1,215.6z"/>
<rect x="399" y="87.7" fill="none" stroke="#E0BB9B" stroke-miterlimit="10" width="30.2" height="36.1"/>
<rect x="399" y="127.8" fill="none" stroke="#E0BB9B" stroke-miterlimit="10" width="30.2" height="36.1"/>
<rect x="399" y="167.1" fill="none" stroke="#E0BB9B" stroke-miterlimit="10" width="30.2" height="36.1"/>
<g id="New_Symbol_1">
</g>
</svg>
