<?xml version="1.0" encoding="utf-8"?>
<!-- Generator: Adobe Illustrator 18.1.1, SVG Export Plug-In . SVG Version: 6.00 Build 0)  -->
<!DOCTYPE svg PUBLIC "-//W3C//DTD SVG 1.1//EN" "http://www.w3.org/Graphics/SVG/1.1/DTD/svg11.dtd">
<svg version="1.1" id="Layer_1" xmlns="http://www.w3.org/2000/svg" xmlns:xlink="http://www.w3.org/1999/xlink" x="0px" y="0px"
	 viewBox="0 0 229.9 293.1" enable-background="new 0 0 229.9 293.1" xml:space="preserve">
<g id="New_Symbol_1">
</g>
<g>
	<rect x="15.2" y="43.8" fill="#C46857" width="199.5" height="249.4"/>
	<path opacity="0.1" d="M67.1,112.9H36.6c-0.7,0-1.2-0.5-1.2-1.2V59.3c0-0.7,0.5-1.2,1.2-1.2h30.6c0.7,0,1.2,0.5,1.2,1.2v52.3
		C68.4,112.3,67.8,112.9,67.1,112.9z"/>
	<path opacity="0.1" d="M196.5,112.9h-30.6c-0.7,0-1.2-0.5-1.2-1.2V59.3c0-0.7,0.5-1.2,1.2-1.2h30.6c0.7,0,1.2,0.5,1.2,1.2v52.3
		C197.7,112.3,197.2,112.9,196.5,112.9z"/>
	<path opacity="0.1" d="M67.1,184H36.6c-0.7,0-1.2-0.5-1.2-1.2v-52.3c0-0.7,0.5-1.2,1.2-1.2h30.6c0.7,0,1.2,0.5,1.2,1.2v52.3
		C68.4,183.5,67.8,184,67.1,184z"/>
	<path opacity="0.1" d="M110.3,184H79.7c-0.7,0-1.2-0.5-1.2-1.2v-52.3c0-0.7,0.5-1.2,1.2-1.2h30.6c0.7,0,1.2,0.5,1.2,1.2v52.3
		C111.5,183.5,110.9,184,110.3,184z"/>
	<path opacity="0.1" d="M174.8,206.5H196c0.7,0,1.2,0.5,1.2,1.2V260c0,0.7-0.5,1.2-1.2,1.2h-21.3c-0.7,0-1.2-0.5-1.2-1.2v-52.3
		C173.6,207,174.1,206.5,174.8,206.5z"/>
	<path opacity="0.1" d="M36.6,206.5h21.3c0.7,0,1.2,0.5,1.2,1.2V260c0,0.7-0.5,1.2-1.2,1.2H36.6c-0.7,0-1.2-0.5-1.2-1.2v-52.3
		C35.3,207,35.9,206.5,36.6,206.5z"/>
	<path opacity="0.1" d="M153.4,184h-30.6c-0.7,0-1.2-0.5-1.2-1.2v-52.3c0-0.7,0.5-1.2,1.2-1.2h30.6c0.7,0,1.2,0.5,1.2,1.2v52.3
		C154.6,183.5,154.1,184,153.4,184z"/>
	<path opacity="0.1" d="M110.3,112.9H79.7c-0.7,0-1.2-0.5-1.2-1.2V59.3c0-0.7,0.5-1.2,1.2-1.2h30.6c0.7,0,1.2,0.5,1.2,1.2v52.3
		C111.5,112.3,110.9,112.9,110.3,112.9z"/>
	<path opacity="0.1" d="M153.4,112.9h-30.6c-0.7,0-1.2-0.5-1.2-1.2V59.3c0-0.7,0.5-1.2,1.2-1.2h30.6c0.7,0,1.2,0.5,1.2,1.2v52.3
		C154.6,112.3,154.1,112.9,153.4,112.9z"/>
	<path opacity="0.1" d="M196.5,184h-30.6c-0.7,0-1.2-0.5-1.2-1.2v-52.3c0-0.7,0.5-1.2,1.2-1.2h30.6c0.7,0,1.2,0.5,1.2,1.2v52.3
		C197.7,183.5,197.2,184,196.5,184z"/>
	<g>
		<path fill="#2FAB9B" d="M194.4,32.4H35c-1.6,0-2.8-1.3-2.8-2.8V2.8C32.2,1.3,33.4,0,35,0h159.4c1.6,0,2.8,1.3,2.8,2.8v26.8
			C197.2,31.2,196,32.4,194.4,32.4z"/>
		<line fill="none" stroke="#E6C634" stroke-width="3" stroke-miterlimit="10" x1="55.7" y1="43.8" x2="55.7" y2="32.8"/>
		<line fill="none" stroke="#E6C634" stroke-width="3" stroke-miterlimit="10" x1="175.7" y1="43.8" x2="175.7" y2="32.8"/>
		<g>
			
				<path fill="#FFFFFF" stroke="#FFFFFF" stroke-width="1.6969" stroke-linecap="round" stroke-linejoin="round" stroke-miterlimit="10" d="
				M63.3,8.8v2.2h-5.3v12.6h-2.9V11.1h-5.3V8.8H63.3z"/>
			
				<path fill="#FFFFFF" stroke="#FFFFFF" stroke-width="1.6969" stroke-linecap="round" stroke-linejoin="round" stroke-miterlimit="10" d="
				M68.3,8.8v6.3H76V8.8h2.9v14.9H76v-6.3h-7.7v6.3h-2.9V8.8H68.3z"/>
			
				<path fill="#FFFFFF" stroke="#FFFFFF" stroke-width="1.6969" stroke-linecap="round" stroke-linejoin="round" stroke-miterlimit="10" d="
				M92,8.8v2.2h-6.7V15h6.4v2.2h-6.4v4.2h6.9v2.2h-9.8V8.8H92z"/>
			
				<path fill="#FFFFFF" stroke="#FFFFFF" stroke-width="1.6969" stroke-linecap="round" stroke-linejoin="round" stroke-miterlimit="10" d="
				M108.5,8.6c1.5,0,2.9,0.3,4.2,1c1.2,0.6,2.2,1.6,2.9,2.7c0.7,1.2,1.1,2.5,1.1,3.9c0,1.4-0.4,2.7-1.1,3.9s-1.7,2.1-2.9,2.8
				c-1.2,0.7-2.6,1-4.2,1c-1.5,0-2.9-0.3-4.2-1s-2.2-1.6-2.9-2.8c-0.7-1.2-1.1-2.5-1.1-3.9c0-1.4,0.4-2.6,1.1-3.8
				c0.7-1.2,1.7-2.1,2.9-2.8C105.5,8.9,106.9,8.6,108.5,8.6z M103.3,16.2c0,1,0.2,1.9,0.7,2.7c0.4,0.8,1.1,1.4,1.9,1.8
				c0.8,0.4,1.7,0.6,2.7,0.6c1.5,0,2.8-0.5,3.8-1.4s1.5-2.2,1.5-3.7c0-1-0.2-1.9-0.7-2.7s-1.1-1.4-1.9-1.8c-0.8-0.4-1.7-0.6-2.7-0.6
				c-1,0-1.9,0.2-2.7,0.7c-0.8,0.4-1.4,1-1.9,1.8S103.3,15.3,103.3,16.2z"/>
			
				<path fill="#FFFFFF" stroke="#FFFFFF" stroke-width="1.6969" stroke-linecap="round" stroke-linejoin="round" stroke-miterlimit="10" d="
				M128.6,8.8v2.2h-6.2v3.8h6.2v2.3h-6.2v6.5h-2.9V8.8H128.6z"/>
			
				<path fill="#FFFFFF" stroke="#FFFFFF" stroke-width="1.6969" stroke-linecap="round" stroke-linejoin="round" stroke-miterlimit="10" d="
				M140.4,8.8v2.2h-6.2v3.8h6.2v2.3h-6.2v6.5h-2.9V8.8H140.4z"/>
			
				<path fill="#FFFFFF" stroke="#FFFFFF" stroke-width="1.6969" stroke-linecap="round" stroke-linejoin="round" stroke-miterlimit="10" d="
				M146.1,8.8v14.9h-2.9V8.8H146.1z"/>
			
				<path fill="#FFFFFF" stroke="#FFFFFF" stroke-width="1.6969" stroke-linecap="round" stroke-linejoin="round" stroke-miterlimit="10" d="
				M157.3,8.6c0.8,0,1.7,0.1,2.5,0.3c0.8,0.2,1.7,0.5,2.6,1v2.7c-0.9-0.5-1.8-0.9-2.5-1.1c-0.8-0.2-1.6-0.4-2.4-0.4
				c-1.1,0-2,0.2-2.9,0.7c-0.9,0.4-1.5,1.1-2,1.8c-0.5,0.8-0.7,1.7-0.7,2.7c0,1,0.2,1.9,0.7,2.7c0.5,0.8,1.1,1.4,2,1.8
				c0.9,0.4,1.8,0.6,2.9,0.6c0.8,0,1.6-0.1,2.3-0.4s1.7-0.7,2.8-1.3v2.7c-1,0.5-1.9,0.9-2.7,1.1s-1.8,0.3-2.8,0.3
				c-1.6,0-3-0.3-4.2-0.9c-1.2-0.6-2.2-1.5-2.9-2.7c-0.7-1.2-1.1-2.5-1.1-3.9c0-1.5,0.4-2.8,1.1-4c0.7-1.2,1.7-2.1,3-2.8
				C154.3,8.9,155.7,8.6,157.3,8.6z"/>
			
				<path fill="#FFFFFF" stroke="#FFFFFF" stroke-width="1.6969" stroke-linecap="round" stroke-linejoin="round" stroke-miterlimit="10" d="
				M175.2,8.8v2.2h-6.7V15h6.5v2.2h-6.5v4.2h6.9v2.2h-9.8V8.8H175.2z"/>
		</g>
	</g>
	<g>
		<rect x="72.4" y="198" opacity="0.2" fill="#314240" width="85.1" height="95.2"/>
		<linearGradient id="SVGID_1_" gradientUnits="userSpaceOnUse" x1="62.3661" y1="275.589" x2="129.4667" y2="219.2849">
			<stop  offset="0" style="stop-color:#C5EDE8"/>
			<stop  offset="0.1638" style="stop-color:#FBFEFD"/>
			<stop  offset="0.341" style="stop-color:#DEF5F2"/>
			<stop  offset="0.5418" style="stop-color:#FFFFFF"/>
			<stop  offset="0.8907" style="stop-color:#D8F3EF"/>
			<stop  offset="0.8968" style="stop-color:#C9EEE9"/>
			<stop  offset="1" style="stop-color:#C5EDE8"/>
		</linearGradient>
		<rect x="77.1" y="201.8" fill="url(#SVGID_1_)" width="37.7" height="91.4"/>
		<linearGradient id="SVGID_2_" gradientUnits="userSpaceOnUse" x1="167.5025" y1="227.8585" x2="99.6809" y2="267.0153">
			<stop  offset="0" style="stop-color:#C5EDE8"/>
			<stop  offset="0.1638" style="stop-color:#FBFEFD"/>
			<stop  offset="0.341" style="stop-color:#DEF5F2"/>
			<stop  offset="0.5418" style="stop-color:#FFFFFF"/>
			<stop  offset="0.8907" style="stop-color:#D8F3EF"/>
			<stop  offset="0.8968" style="stop-color:#C9EEE9"/>
			<stop  offset="1" style="stop-color:#C5EDE8"/>
		</linearGradient>
		<rect x="114.8" y="201.8" fill="url(#SVGID_2_)" width="37.7" height="91.4"/>
		
			<line fill="none" stroke="#E6C634" stroke-width="4" stroke-linecap="round" stroke-linejoin="round" stroke-miterlimit="10" x1="105.2" y1="239.8" x2="105.2" y2="256.8"/>
		
			<line fill="none" stroke="#E6C634" stroke-width="4" stroke-linecap="round" stroke-linejoin="round" stroke-miterlimit="10" x1="124.2" y1="239.8" x2="124.2" y2="256.8"/>
	</g>
</g>
</svg>
