<?xml version="1.0" encoding="utf-8"?>
<!-- Generator: Adobe Illustrator 18.1.1, SVG Export Plug-In . SVG Version: 6.00 Build 0)  -->
<!DOCTYPE svg PUBLIC "-//W3C//DTD SVG 1.1//EN" "http://www.w3.org/Graphics/SVG/1.1/DTD/svg11.dtd">
<svg version="1.1" id="Layer_1" xmlns="http://www.w3.org/2000/svg" xmlns:xlink="http://www.w3.org/1999/xlink" x="0px" y="0px"
	 viewBox="0 0 874.5 580.5" enable-background="new 0 0 874.5 580.5" xml:space="preserve">
<symbol  id="chair" viewBox="-23.7 -25.3 43.2 50.3">
	<path fill="none" stroke="#E0BB9B" stroke-width="1.3029" stroke-miterlimit="10" d="M15.4-24.6h-28.7c-1.9,0-3.4,1.5-3.4,3.4V7.3
		c0,1.9,1.5,3.4,3.4,3.4h28.7c1.9,0,3.4-1.5,3.4-3.4v-28.6C18.8-23.1,17.3-24.6,15.4-24.6z"/>
	<path fill="none" stroke="#E0BB9B" stroke-width="1.3029" stroke-miterlimit="10" d="M18.8,17.3c0-3.9-7.9-7-17.7-7
		s-17.7,3.2-17.7,7s7.9,7,17.7,7S18.8,21.2,18.8,17.3z"/>
	<path fill="none" stroke="#E0BB9B" stroke-width="1.3029" stroke-miterlimit="10" d="M-23.7,11.9"/>
</symbol>
<g>
	<g>
		<g>
			<g>
				<rect x="92.1" y="73" fill="#465E61" width="653.6" height="421.2"/>
				<path fill="#E0BB9B" d="M740.2,78.3v410.4H97.5V78.3H740.2 M751,67.6H86.7v432H751V67.6L751,67.6z"/>
			</g>
			<g>
				<path fill="#E0BB9B" d="M750,68.6v430H89.7v-430H750 M751,67.6H88.7v432H751V67.6L751,67.6z"/>
			</g>
			<path fill="none" stroke="#E0BB9B" stroke-miterlimit="10" d="M119.5,257.6"/>
			<polyline fill="none" stroke="#E0BB9B" stroke-miterlimit="10" points="119.5,250.8 119.5,96.3 720.2,96.3 720.2,470.9 
				119.5,470.9 119.5,329.2 			"/>
			<polygon fill="none" stroke="#E0BB9B" stroke-miterlimit="10" points="740.2,489 720.2,471.3 119.5,471.3 95.3,489.7 			"/>
			<polygon fill="none" stroke="#E0BB9B" stroke-miterlimit="10" points="740.2,78.8 720.2,97.3 119.5,97.3 95.3,78.4 			"/>
		</g>
		<g>
			<polyline fill="none" stroke="#E0BB9B" stroke-width="10.7796" stroke-miterlimit="10" points="613,189.6 613,246.6 632.1,246.6 
							"/>
			<line fill="none" stroke="#E0BB9B" stroke-width="10.7796" stroke-miterlimit="10" x1="744" y1="246.6" x2="675.8" y2="246.6"/>
			<g>
				<rect x="617" y="89.4" fill="none" stroke="#E0BB9B" stroke-miterlimit="10" width="111.1" height="34.2"/>
				<g>
					<polygon fill="none" stroke="#E0BB9B" stroke-miterlimit="10" points="679,93.6 679,117.1 713.5,117.1 719,111.6 719,86.4 
						684.4,86.4 					"/>
					<rect x="684.4" y="86.4" fill="none" stroke="#E0BB9B" stroke-miterlimit="10" width="34.7" height="25.2"/>
					<polygon fill="none" stroke="#E0BB9B" stroke-miterlimit="10" points="684.4,113.2 681.7,115.6 712,115.6 715,113.2 					"/>
				</g>
				<g>
					<circle fill="none" stroke="#E0BB9B" stroke-miterlimit="10" cx="640" cy="105.1" r="10.5"/>
					<circle fill="none" stroke="#E0BB9B" stroke-miterlimit="10" cx="640.7" cy="101.6" r="9"/>
					<circle fill="none" stroke="#E0BB9B" stroke-miterlimit="10" cx="640.7" cy="101.6" r="2.2"/>
					<polyline fill="none" stroke="#E0BB9B" stroke-miterlimit="10" points="649.7,101.6 652.5,101.7 653.5,105.1 650.5,105.1 					
						"/>
					<polyline fill="none" stroke="#E0BB9B" stroke-miterlimit="10" points="633.7,97.7 627.8,98.7 631.7,103.3 					"/>
				</g>
			</g>
			<line fill="none" stroke="#E0BB9B" stroke-width="10.7796" stroke-miterlimit="10" x1="613" y1="67.6" x2="613" y2="145.9"/>
		</g>
	</g>
	<path opacity="0.1" fill="#E0BB9B" stroke="#E0BB9B" stroke-width="0.5" stroke-miterlimit="10" stroke-dasharray="2" d="
		M306.2,281.9c-0.2-2.6-0.3-5.3-0.3-8c0-7.8,0.9-15.4,2.7-22.7l23.4-0.5v-43c17.7-19,43-30.9,71.1-30.9c53.6,0,97.1,43.5,97.1,97.1
		S456.6,371,403,371c-19.2,0-37.1-5.6-52.1-15.2c-4.4-2.8,0.9-16.9-3-20.3c-2.4-2.1-14.1,6.6-16.3,4.2c-9.9-10.7-17.4-23.7-21.6-38
		l6.1-7.8l4.3-4.9L306.2,281.9z"/>
	<path opacity="0.1" fill="#E0BB9B" stroke="#E0BB9B" stroke-width="0.5" stroke-miterlimit="10" stroke-dasharray="2" d="
		M613.5,196.9c1.2,0.9,2.9,4.3,3.5,2.9c2.4-5.6-11.7,24.8-4,46.8c3,8.4,27.7,3.6,18.4,4.2c-4.7,0.3,7.6,25.4,19.2,32.6
		c-4.9,49-46.3,87.3-96.6,87.3c-53.6,0-97.1-43.5-97.1-97.1s43.5-97.1,97.1-97.1C576.4,176.5,597.1,184.1,613.5,196.9"/>
	<path fill="none" stroke="#E0BB9B" stroke-width="2.802" stroke-miterlimit="10" d="M632.2,246.6"/>
	<g>
		<line fill="none" stroke="#E0BB9B" stroke-width="3" stroke-miterlimit="10" x1="654.5" y1="287.6" x2="676.8" y2="251.1"/>
		<g>
			<g>
				<path fill="none" stroke="#E0BB9B" stroke-miterlimit="10" d="M655.2,286.2c-0.4-0.2-0.9-0.5-1.3-0.7"/>
				<path fill="none" stroke="#E0BB9B" stroke-miterlimit="10" stroke-dasharray="3.048,3.048" d="M651.3,283.9
					c-11.3-7.5-19.1-19.9-20-34.3"/>
				<path fill="none" stroke="#E0BB9B" stroke-miterlimit="10" d="M631.2,248.1c0-0.5,0-1,0-1.5"/>
			</g>
		</g>
	</g>
	<g>
		<line fill="none" stroke="#E0BB9B" stroke-width="3" stroke-miterlimit="10" x1="571.7" y1="168.2" x2="608.1" y2="190.5"/>
		<g>
			<g>
				<path fill="none" stroke="#E0BB9B" stroke-miterlimit="10" d="M573.1,169c0.2-0.4,0.5-0.9,0.7-1.3"/>
				<path fill="none" stroke="#E0BB9B" stroke-miterlimit="10" stroke-dasharray="3.048,3.048" d="M575.4,165
					c7.5-11.3,19.9-19.1,34.3-20"/>
				<path fill="none" stroke="#E0BB9B" stroke-miterlimit="10" d="M611.2,144.9c0.5,0,1,0,1.5,0"/>
			</g>
		</g>
	</g>
	<g>
		<line fill="none" stroke="#E0BB9B" stroke-width="3" stroke-miterlimit="10" x1="372" y1="167.5" x2="335.6" y2="145.2"/>
		<g>
			<g>
				<path fill="none" stroke="#E0BB9B" stroke-miterlimit="10" d="M370.6,166.7c-0.2,0.4-0.5,0.9-0.7,1.3"/>
				<path fill="none" stroke="#E0BB9B" stroke-miterlimit="10" stroke-dasharray="3.048,3.048" d="M368.3,170.6
					c-7.5,11.3-19.9,19.1-34.3,20"/>
				<path fill="none" stroke="#E0BB9B" stroke-miterlimit="10" d="M332.5,190.8c-0.5,0-1,0-1.5,0"/>
			</g>
		</g>
	</g>
	<g>
		<line fill="none" stroke="#FFFFFF" stroke-width="1.2581" stroke-miterlimit="10" x1="321" y1="289.6" x2="284.6" y2="267.3"/>
		<path fill="none" stroke="#FFFFFF" stroke-width="1.2581" stroke-miterlimit="10" d="M319.6,288.8c-7.4,14.3-22.4,24.1-39.6,24.1"
			/>
	</g>
	<g>
		<line fill="none" stroke="#E0BB9B" stroke-width="3" stroke-miterlimit="10" x1="348.8" y1="335.5" x2="307.5" y2="346.4"/>
		<g>
			<g>
				<path fill="none" stroke="#E0BB9B" stroke-miterlimit="10" d="M347.3,336c0.2,0.5,0.3,0.9,0.5,1.4"/>
				<path fill="none" stroke="#E0BB9B" stroke-miterlimit="10" stroke-dasharray="3.048,3.048" d="M348.6,340.4
					c3,13.2,0,27.6-9.2,38.6"/>
				<path fill="none" stroke="#E0BB9B" stroke-miterlimit="10" d="M338.4,380.2c-0.3,0.4-0.7,0.7-1,1.1"/>
			</g>
		</g>
	</g>
	<polyline fill="none" stroke="#E0BB9B" stroke-width="10.7796" stroke-miterlimit="10" points="88.7,250.8 331.6,251.1 
		331.6,190.5 	"/>
	<polyline fill="none" stroke="#E0BB9B" stroke-width="10.7796" stroke-miterlimit="10" points="338.4,379 357.6,399.1 357.6,489.6 
			"/>
	<path fill="none" stroke="#E0BB9B" stroke-width="10.7796" stroke-miterlimit="10" d="M345.4,375"/>
	<polyline fill="none" stroke="#E0BB9B" stroke-width="10.7796" stroke-miterlimit="10" points="88.7,329.2 283,329.2 304.8,351 	
		"/>
	<line fill="none" stroke="#E0BB9B" stroke-width="10.7796" stroke-miterlimit="10" x1="331.6" y1="145.9" x2="331.6" y2="72.6"/>
	<g>
		<g>
			<line fill="none" stroke="#E0BB9B" stroke-width="1.2007" stroke-miterlimit="10" x1="218" y1="325.2" x2="218" y2="252.9"/>
			<line fill="none" stroke="#E0BB9B" stroke-width="1.2007" stroke-miterlimit="10" x1="212" y1="325.2" x2="212" y2="252.9"/>
		</g>
		<g>
			<line fill="none" stroke="#E0BB9B" stroke-width="1.2007" stroke-miterlimit="10" x1="197.7" y1="325.2" x2="197.7" y2="252.9"/>
			<line fill="none" stroke="#E0BB9B" stroke-width="1.2007" stroke-miterlimit="10" x1="191.7" y1="325.2" x2="191.7" y2="252.9"/>
		</g>
		<g>
			<line fill="none" stroke="#E0BB9B" stroke-width="1.2007" stroke-miterlimit="10" x1="177.4" y1="325.2" x2="177.4" y2="252.9"/>
			<line fill="none" stroke="#E0BB9B" stroke-width="1.2007" stroke-miterlimit="10" x1="171.4" y1="325.2" x2="171.4" y2="252.9"/>
		</g>
		<g>
			<line fill="none" stroke="#E0BB9B" stroke-width="1.2007" stroke-miterlimit="10" x1="157.2" y1="325.2" x2="157.2" y2="252.9"/>
			<line fill="none" stroke="#E0BB9B" stroke-width="1.2007" stroke-miterlimit="10" x1="151.2" y1="325.2" x2="151.2" y2="252.9"/>
		</g>
		<g>
			<line fill="none" stroke="#E0BB9B" stroke-width="1.2007" stroke-miterlimit="10" x1="136.9" y1="325.2" x2="136.9" y2="252.9"/>
			<line fill="none" stroke="#E0BB9B" stroke-width="1.2007" stroke-miterlimit="10" x1="130.9" y1="325.2" x2="130.9" y2="252.9"/>
		</g>
		<g>
			<line fill="none" stroke="#E0BB9B" stroke-width="1.2007" stroke-miterlimit="10" x1="116.6" y1="325.2" x2="116.6" y2="252.9"/>
			<line fill="none" stroke="#E0BB9B" stroke-width="1.2007" stroke-miterlimit="10" x1="110.6" y1="325.2" x2="110.6" y2="252.9"/>
		</g>
		<g>
			<line fill="none" stroke="#E0BB9B" stroke-width="1.2007" stroke-miterlimit="10" x1="96.3" y1="325.2" x2="96.3" y2="252.9"/>
			<line fill="none" stroke="#E0BB9B" stroke-width="1.2007" stroke-miterlimit="10" x1="90.3" y1="325.2" x2="90.3" y2="252.9"/>
		</g>
	</g>
	<line fill="none" stroke="#E0BB9B" stroke-width="10.7796" stroke-miterlimit="10" x1="280" y1="268" x2="280" y2="254.8"/>
	<line fill="none" stroke="#E0BB9B" stroke-width="10.7796" stroke-miterlimit="10" x1="280" y1="325.2" x2="280" y2="312.1"/>
	
		<rect x="158.9" y="387.8" transform="matrix(-0.2935 -0.956 0.956 -0.2935 -141.15 710.2106)" fill="none" stroke="#E0BB9B" stroke-miterlimit="10" width="66" height="39"/>
	<path fill="none" stroke="#E0BB9B" stroke-width="1.1807" stroke-miterlimit="10" d="M284.3,168.5c0,24.5-30.6,28.1-68.3,28.1
		s-68.3-5.6-68.3-28.1s30.6-28.1,68.3-28.1S284.3,144,284.3,168.5z"/>
	
		<use xlink:href="#chair"  width="43.2" height="50.3" id="XMLID_38_" x="-23.7" y="-25.3" transform="matrix(-0.995 -0.1002 -0.1002 0.995 167.9072 207.7208)" overflow="visible"/>
	
		<use xlink:href="#chair"  width="43.2" height="50.3" x="-23.7" y="-25.3" transform="matrix(-0.9999 1.314782e-02 1.314782e-02 0.9999 215.0697 211.5042)" overflow="visible"/>
	
		<use xlink:href="#chair"  width="43.2" height="50.3" x="-23.7" y="-25.3" transform="matrix(-1.314782e-02 -0.9999 -0.9999 1.314782e-02 153.988 415.6475)" overflow="visible"/>
	
		<use xlink:href="#chair"  width="43.2" height="50.3" id="XMLID_37_" x="-23.7" y="-25.3" transform="matrix(-0.9905 0.1373 0.1373 0.9905 259.7303 206.7754)" overflow="visible"/>
	
		<use xlink:href="#chair"  width="43.2" height="50.3" id="XMLID_36_" x="-23.7" y="-25.3" transform="matrix(0.995 0.1002 0.1002 -0.995 263.0558 130.2812)" overflow="visible"/>
	
		<use xlink:href="#chair"  width="43.2" height="50.3" x="-23.7" y="-25.3" transform="matrix(0.9999 -1.314782e-02 -1.314782e-02 -0.9999 215.8933 126.4978)" overflow="visible"/>
	
		<use xlink:href="#chair"  width="43.2" height="50.3" id="XMLID_35_" x="-23.7" y="-25.3" transform="matrix(0.9905 -0.1373 -0.1373 -0.9905 171.2327 131.2266)" overflow="visible"/>
	<g>
		
			<use xlink:href="#chair"  width="43.2" height="50.3" id="XMLID_34_" x="-23.7" y="-25.3" transform="matrix(-0.9905 0.1373 0.1373 0.9905 457.8776 160.9361)" overflow="visible"/>
		<g>
			<path fill="none" stroke="#FFFFFF" stroke-width="1.2581" stroke-miterlimit="10" d="M476,92.5h-33.6c-3.2,0-5.6,1.4-5.3,3
				l1.9,10.9c0.2,1.3,2.7,2.4,5.5,2.4h29.4c2.8,0,5.3-1.1,5.5-2.4l1.9-10.9C481.6,93.9,479.3,92.5,476,92.5z"/>
			<polyline fill="none" stroke="#FFFFFF" stroke-width="1.2581" stroke-miterlimit="10" points="481.4,95.5 481.4,89.6 478.1,88.3 
				439.9,88.3 437.1,89.6 437.1,95.5 			"/>
			<polyline fill="none" stroke="#FFFFFF" stroke-width="1.2581" stroke-miterlimit="10" points="453.8,108.8 453.8,112.5 
				449.6,115.4 466.8,115.4 462.2,112.5 462.2,108.8 			"/>
		</g>
		<g>
			
				<rect x="403" y="90.5" fill="none" stroke="#E0BB9B" stroke-width="1.2561" stroke-miterlimit="10" width="108.3" height="50.3"/>
			<polyline fill="none" stroke="#E0BB9B" stroke-width="1.1021" stroke-miterlimit="10" points="511.2,140.7 508.4,151.2 
				492.2,151.2 493.1,140.7 			"/>
			<polyline fill="none" stroke="#E0BB9B" stroke-width="1.1136" stroke-miterlimit="10" points="403,140.7 406.2,151.2 
				422.7,151.2 421.5,140.7 			"/>
		</g>
	</g>
	
		<use xlink:href="#chair"  width="43.2" height="50.3" id="XMLID_33_" x="-23.7" y="-25.3" transform="matrix(1 -4.064985e-03 -4.064985e-03 -1 428.4965 383.5747)" overflow="visible"/>
	<g>
		<path fill="none" stroke="#FFFFFF" stroke-width="1.2581" stroke-miterlimit="10" d="M411,438.7h33.7c3.2,0,5.6,1.1,5.3,2.4
			l-1.9,8.7c-0.2,1.1-2.7,1.9-5.5,1.9h-29.5c-2.8,0-5.3-0.8-5.5-1.9l-1.9-8.7C405.3,439.8,407.7,438.7,411,438.7z"/>
		<polyline fill="none" stroke="#FFFFFF" stroke-width="1.2581" stroke-miterlimit="10" points="405.6,441.1 405.6,436.4 
			408.9,435.4 447.2,435.4 450.1,436.4 450.1,441.1 		"/>
		<polyline fill="none" stroke="#FFFFFF" stroke-width="1.2581" stroke-miterlimit="10" points="433.3,451.7 433.3,454.7 
			437.5,456.9 420.3,456.9 424.9,454.7 424.9,451.7 		"/>
	</g>
	<g>
		
			<rect x="375.6" y="413.3" fill="none" stroke="#E0BB9B" stroke-width="1.2611" stroke-miterlimit="10" width="108.7" height="50.5"/>
	</g>
	<path fill="#E0BB9B" d="M415.4,435c0.5-0.9-0.1-1.9-0.8-2.8c-0.3-0.4-1.2-1.3-0.3-1.8c0.4-0.2,0.7-0.4,1-0.7
		c0.5-0.5,0.6-1.2,0.6-1.8l30.6,3.8l1.5-11.9l-37.1-4.7l-1.5,11.9l5.9,0.7c0,0.1,0,0.3,0,0.4c0,1.1-0.8,1.3-1.5,1.7
		c-0.4,0.2-0.6,0.5-0.6,1c0,1.4,2.7,2.7,1.4,4 M412.2,416.7l34.4,4.3l-1.2,9.2l-34.4-4.3L412.2,416.7z M441.8,426.9l1.9,0.2
		l-0.2,1.9l-1.9-0.2L441.8,426.9z M438.7,426.5l1.9,0.2l-0.2,1.9l-1.9-0.2L438.7,426.5z M435.6,426.1l1.9,0.2l-0.2,1.9l-1.9-0.2
		L435.6,426.1z M432.6,425.7l1.9,0.2l-0.2,1.9l-1.9-0.2L432.6,425.7z M429.4,425.3l1.9,0.2l-0.2,1.9l-1.9-0.2L429.4,425.3z
		 M426.4,425l1.9,0.2l-0.2,1.9l-1.9-0.2L426.4,425z M423.3,424.6l1.9,0.2l-0.2,1.9l-1.9-0.2L423.3,424.6z M420.3,424.2l1.9,0.2
		l-0.2,1.9l-1.9-0.2L420.3,424.2z M443.4,424.3l1.9,0.2l-0.2,1.9l-1.9-0.2L443.4,424.3z M440.4,423.9l1.9,0.2l-0.2,1.9l-1.9-0.2
		L440.4,423.9z M437.3,423.5l1.9,0.2l-0.2,1.9l-1.9-0.2L437.3,423.5z M434.3,423.2l1.9,0.2l-0.2,1.9l-1.9-0.2L434.3,423.2z
		 M431.1,422.8l1.9,0.2l-0.2,1.9l-1.9-0.2L431.1,422.8z M428.1,422.4l1.9,0.2l-0.2,1.9l-1.9-0.2L428.1,422.4z M425,422l1.9,0.2
		l-0.2,1.9l-1.9-0.2L425,422z M421.9,421.6l1.9,0.2l-0.2,1.9l-1.9-0.2L421.9,421.6z M415.1,420.8l1.9,0.2l-0.2,1.9l-1.9-0.2
		L415.1,420.8z M415.4,420.2l-1.9-0.2l0.2-1.9l1.9,0.2L415.4,420.2z M418.7,420.6l-1.9-0.2l0.2-1.9l1.9,0.2L418.7,420.6z
		 M444.8,423.5l-1.9-0.2l0.2-1.9l1.9,0.2L444.8,423.5z M441.8,423.1l-1.9-0.2l0.2-1.9l1.9,0.2L441.8,423.1z M438.7,422.7l-1.9-0.2
		l0.2-1.9l1.9,0.2L438.7,422.7z M435.6,422.4l-1.9-0.2l0.2-1.9l1.9,0.2L435.6,422.4z M432.5,421.9l-1.9-0.2l0.2-1.9l1.9,0.2
		L432.5,421.9z M429.4,421.6l-1.9-0.2l0.2-1.9l1.9,0.2L429.4,421.6z M426.3,421.2l-1.9-0.2l0.2-1.9l1.9,0.2L426.3,421.2z
		 M423.3,420.8l-1.9-0.2l0.2-1.9l1.9,0.2L423.3,420.8z M415.4,425.8l2.9,0.4l0.1-1l-2.9-0.4L415.4,425.8z M415.7,424.9l2.6,0.3
		l-0.1,0.8l-2.6-0.3L415.7,424.9z M411.9,425.3l2.9,0.4l0.1-1l-2.9-0.4L411.9,425.3z M412.2,424.5l2.6,0.3l-0.1,0.8l-2.6-0.3
		L412.2,424.5z"/>
	<polyline fill="none" stroke="#E0BB9B" stroke-width="0.8133" stroke-miterlimit="10" points="375.6,412.8 378.5,407.1 
		394.8,407.1 393.9,412.8 	"/>
	<polyline fill="none" stroke="#E0BB9B" stroke-width="0.8217" stroke-miterlimit="10" points="484.5,412.8 481.3,407.1 
		464.7,407.1 465.9,412.8 	"/>
	
		<use xlink:href="#chair"  width="43.2" height="50.3" id="XMLID_32_" x="-23.7" y="-25.3" transform="matrix(0.9899 -0.1415 -0.1415 -0.9899 554.0906 385.5747)" overflow="visible"/>
	<g>
		<path fill="none" stroke="#FFFFFF" stroke-width="1.2581" stroke-miterlimit="10" d="M535,438.7h33.7c3.2,0,5.6,1.1,5.3,2.4
			l-1.9,8.7c-0.2,1.1-2.7,1.9-5.5,1.9h-29.5c-2.8,0-5.3-0.8-5.5-1.9l-1.9-8.7C529.3,439.8,531.7,438.7,535,438.7z"/>
		<polyline fill="none" stroke="#FFFFFF" stroke-width="1.2581" stroke-miterlimit="10" points="529.6,441.1 529.6,436.4 
			532.9,435.4 571.2,435.4 574.1,436.4 574.1,441.1 		"/>
		<polyline fill="none" stroke="#FFFFFF" stroke-width="1.2581" stroke-miterlimit="10" points="557.3,451.7 557.3,454.7 
			561.5,456.9 544.3,456.9 548.9,454.7 548.9,451.7 		"/>
	</g>
	<g>
		
			<rect x="499.6" y="413.3" fill="none" stroke="#E0BB9B" stroke-width="1.2611" stroke-miterlimit="10" width="108.7" height="50.5"/>
	</g>
	<path fill="#E0BB9B" d="M539.3,435c0.5-0.9-0.1-1.9-0.8-2.8c-0.3-0.4-1.2-1.3-0.3-1.8c0.4-0.2,0.7-0.4,1-0.7
		c0.5-0.5,0.6-1.2,0.6-1.8l30.6,3.8l1.5-11.9l-37.1-4.7l-1.5,11.9l5.9,0.7c0,0.1,0,0.3,0,0.4c0,1.1-0.8,1.3-1.5,1.7
		c-0.4,0.2-0.6,0.5-0.6,1c0,1.4,2.7,2.7,1.4,4 M536.2,416.7l34.4,4.3l-1.2,9.2l-34.4-4.3L536.2,416.7z M565.8,426.9l1.9,0.2
		l-0.2,1.9l-1.9-0.2L565.8,426.9z M562.7,426.5l1.9,0.2l-0.2,1.9l-1.9-0.2L562.7,426.5z M559.6,426.1l1.9,0.2l-0.2,1.9l-1.9-0.2
		L559.6,426.1z M556.6,425.7l1.9,0.2l-0.2,1.9l-1.9-0.2L556.6,425.7z M553.4,425.3l1.9,0.2l-0.2,1.9l-1.9-0.2L553.4,425.3z
		 M550.4,425l1.9,0.2l-0.2,1.9l-1.9-0.2L550.4,425z M547.3,424.6l1.9,0.2l-0.2,1.9l-1.9-0.2L547.3,424.6z M544.3,424.2l1.9,0.2
		l-0.2,1.9l-1.9-0.2L544.3,424.2z M567.4,424.3l1.9,0.2l-0.2,1.9l-1.9-0.2L567.4,424.3z M564.4,423.9l1.9,0.2l-0.2,1.9l-1.9-0.2
		L564.4,423.9z M561.3,423.5l1.9,0.2l-0.2,1.9l-1.9-0.2L561.3,423.5z M558.3,423.2l1.9,0.2l-0.2,1.9l-1.9-0.2L558.3,423.2z
		 M555.1,422.8l1.9,0.2l-0.2,1.9l-1.9-0.2L555.1,422.8z M552.1,422.4l1.9,0.2l-0.2,1.9l-1.9-0.2L552.1,422.4z M549,422l1.9,0.2
		l-0.2,1.9l-1.9-0.2L549,422z M545.9,421.6l1.9,0.2l-0.2,1.9l-1.9-0.2L545.9,421.6z M539.1,420.8l1.9,0.2l-0.2,1.9l-1.9-0.2
		L539.1,420.8z M539.4,420.2l-1.9-0.2l0.2-1.9l1.9,0.2L539.4,420.2z M542.7,420.6l-1.9-0.2l0.2-1.9l1.9,0.2L542.7,420.6z
		 M568.8,423.5l-1.9-0.2l0.2-1.9l1.9,0.2L568.8,423.5z M565.7,423.1l-1.9-0.2l0.2-1.9l1.9,0.2L565.7,423.1z M562.6,422.7l-1.9-0.2
		l0.2-1.9l1.9,0.2L562.6,422.7z M559.6,422.4l-1.9-0.2l0.2-1.9l1.9,0.2L559.6,422.4z M556.4,421.9l-1.9-0.2l0.2-1.9l1.9,0.2
		L556.4,421.9z M553.4,421.6l-1.9-0.2l0.2-1.9l1.9,0.2L553.4,421.6z M550.3,421.2l-1.9-0.2l0.2-1.9l1.9,0.2L550.3,421.2z
		 M547.3,420.8l-1.9-0.2l0.2-1.9l1.9,0.2L547.3,420.8z M539.4,425.8l2.9,0.4l0.1-1l-2.9-0.4L539.4,425.8z M539.7,424.9l2.6,0.3
		l-0.1,0.8l-2.6-0.3L539.7,424.9z M535.9,425.3l2.9,0.4l0.1-1l-2.9-0.4L535.9,425.3z M536.2,424.5l2.6,0.3l-0.1,0.8l-2.6-0.3
		L536.2,424.5z"/>
	<polyline fill="none" stroke="#E0BB9B" stroke-width="0.8133" stroke-miterlimit="10" points="500,412.8 502.9,407.1 519.2,407.1 
		518.3,412.8 	"/>
	<polyline fill="none" stroke="#E0BB9B" stroke-width="0.8217" stroke-miterlimit="10" points="608.7,412.8 605.5,407.1 
		588.9,407.1 590.1,412.8 	"/>
	
		<use xlink:href="#chair"  width="43.2" height="50.3" id="XMLID_31_" x="-23.7" y="-25.3" transform="matrix(0.1366 -0.9906 -0.9906 -0.1366 646.7122 358.5417)" overflow="visible"/>
	<path fill="#E0BB9B" d="M468.2,113.3c-0.3,0.7,0.2,1.5,0.9,2.1c0.3,0.3,1.1,0.9,0.4,1.4c-0.3,0.2-0.5,0.3-0.7,0.6
		c-0.4,0.4-0.3,1-0.3,1.5H444v9.5h29.6v-9.5h-4.7c0-0.1,0-0.2,0-0.3c-0.1-0.9,0.5-1.1,1-1.5c0.3-0.2,0.4-0.5,0.4-0.8
		c-0.1-1.1-2.4-1.8-1.5-3 M472.5,127.3h-27.4V120h27.4V127.3z M448.3,122.2h-1.5v-1.5h1.5V122.2z M450.7,122.2h-1.5v-1.5h1.5V122.2z
		 M453.1,122.2h-1.5v-1.5h1.5V122.2z M455.5,122.2H454v-1.5h1.5V122.2z M458.1,122.2h-1.5v-1.5h1.5V122.2z M460.5,122.2H459v-1.5
		h1.5V122.2z M463,122.2h-1.5v-1.5h1.5V122.2z M465.4,122.2h-1.5v-1.5h1.5V122.2z M447.2,124.4h-1.5v-1.5h1.5V124.4z M449.6,124.4
		h-1.5v-1.5h1.5V124.4z M452.1,124.4h-1.5v-1.5h1.5V124.4z M454.5,124.4H453v-1.5h1.5V124.4z M457.1,124.4h-1.5v-1.5h1.5V124.4z
		 M459.5,124.4h-1.5v-1.5h1.5V124.4z M461.9,124.4h-1.5v-1.5h1.5V124.4z M464.3,124.4h-1.5v-1.5h1.5V124.4z M469.8,124.4h-1.5v-1.5
		h1.5V124.4z M469.6,124.9h1.5v1.5h-1.5V124.9z M467,124.9h1.5v1.5H467V124.9z M446.2,125.2h1.5v1.5h-1.5V125.2z M448.6,125.2h1.5
		v1.5h-1.5V125.2z M451.1,125.2h1.5v1.5h-1.5V125.2z M453.5,125.2h1.5v1.5h-1.5V125.2z M456.1,125.2h1.5v1.5h-1.5V125.2z
		 M458.5,125.2h1.5v1.5h-1.5V125.2z M460.9,125.2h1.5v1.5h-1.5V125.2z M463.3,125.2h1.5v1.5h-1.5V125.2z M469.1,120.5h-2.3v0.8h2.3
		V120.5z M469,121.2h-2.1v-0.6h2.1V121.2z M471.8,120.5h-2.3v0.8h2.3V120.5z M471.7,121.2h-2.1v-0.6h2.1V121.2z"/>
	<g>
		<g>
			<path fill="none" stroke="#FFFFFF" stroke-width="1.2581" stroke-miterlimit="10" d="M729.1,344.3V378c0,3.2-1.1,5.6-2.4,5.3
				l-8.7-1.9c-1.1-0.2-1.9-2.7-1.9-5.5v-29.5c0-2.8,0.8-5.3,1.9-5.5l8.7-1.9C728,338.6,729.1,341,729.1,344.3z"/>
			<polyline fill="none" stroke="#FFFFFF" stroke-width="1.2581" stroke-miterlimit="10" points="726.7,338.9 731.4,338.9 
				732.4,342.2 732.4,380.5 731.4,383.4 726.7,383.3 			"/>
			<polyline fill="none" stroke="#FFFFFF" stroke-width="1.2581" stroke-miterlimit="10" points="716.1,366.6 713.2,366.6 
				710.9,370.8 710.9,353.5 713.2,358.2 716.1,358.2 			"/>
		</g>
		<g>
			
				<rect x="674.9" y="305.9" fill="none" stroke="#E0BB9B" stroke-width="1.2611" stroke-miterlimit="10" width="50.5" height="108.7"/>
		</g>
		<path fill="#E0BB9B" d="M711.4,370.7c-1-0.2-1.8,0.6-2.4,1.6c-0.3,0.4-0.9,1.6-1.6,0.8c-0.3-0.3-0.5-0.6-0.9-0.8
			c-0.6-0.4-1.3-0.2-1.9-0.1l-5.4-30.4l-11.9,2.1l6.5,36.8l11.9-2.1l-1-5.9c0.1,0,0.3-0.1,0.4-0.1c1-0.3,1.5,0.3,2.1,0.9
			c0.3,0.3,0.7,0.4,1.1,0.3c1.3-0.4,1.8-3.4,3.4-2.5 M694.9,379.1l-6-34.1l9.1-1.6l6,34.1L694.9,379.1z M695.9,347.8l-0.3-1.9
			l1.9-0.3l0.3,1.9L695.9,347.8z M696.4,350.8l-0.3-1.9l1.9-0.3l0.3,1.9L696.4,350.8z M696.9,353.9l-0.3-1.9l1.9-0.3l0.3,1.9
			L696.9,353.9z M697.5,356.9l-0.3-1.9l1.9-0.3l0.3,1.9L697.5,356.9z M698,360.1l-0.3-1.9l1.9-0.3l0.3,1.9L698,360.1z M698.6,363
			l-0.3-1.9l1.9-0.3l0.3,1.9L698.6,363z M699.1,366.1l-0.3-1.9l1.9-0.3l0.3,1.9L699.1,366.1z M699.6,369.1l-0.3-1.9l1.9-0.3l0.3,1.9
			L699.6,369.1z M692.9,347l-0.3-1.9l1.9-0.3l0.3,1.9L692.9,347z M693.5,350l-0.3-1.9l1.9-0.3l0.3,1.9L693.5,350z M694,353.1
			l-0.3-1.9l1.9-0.3l0.3,1.9L694,353.1z M694.5,356.1l-0.3-1.9l1.9-0.3l0.3,1.9L694.5,356.1z M695.1,359.3l-0.3-1.9l1.9-0.3l0.3,1.9
			L695.1,359.3z M695.6,362.2l-0.3-1.9l1.9-0.3l0.3,1.9L695.6,362.2z M696.2,365.3l-0.3-1.9l1.9-0.3l0.3,1.9L696.2,365.3z
			 M696.7,368.3l-0.3-1.9l1.9-0.3l0.3,1.9L696.7,368.3z M697.9,375.1l-0.3-1.9l1.9-0.3l0.3,1.9L697.9,375.1z M697.2,375l0.3,1.9
			l-1.9,0.3l-0.3-1.9L697.2,375z M696.6,371.7l0.3,1.9l-1.9,0.3l-0.3-1.9L696.6,371.7z M691.7,346l0.3,1.9l-1.9,0.3l-0.3-1.9
			L691.7,346z M692.3,348.9l0.3,1.9l-1.9,0.3l-0.3-1.9L692.3,348.9z M692.8,352l0.3,1.9l-1.9,0.3l-0.3-1.9L692.8,352z M693.3,355
			l0.3,1.9l-1.9,0.3l-0.3-1.9L693.3,355z M693.9,358.2l0.3,1.9l-1.9,0.3l-0.3-1.9L693.9,358.2z M694.4,361.2l0.3,1.9l-1.9,0.3
			l-0.3-1.9L694.4,361.2z M695,364.3l0.3,1.9l-1.9,0.3l-0.3-1.9L695,364.3z M695.5,367.2l0.3,1.9l-1.9,0.3l-0.3-1.9L695.5,367.2z
			 M702.6,373.3l-0.5-2.9l-1,0.2l0.5,2.9L702.6,373.3z M701.7,373.4l-0.5-2.6l0.8-0.1l0.5,2.6L701.7,373.4z M703.2,376.8l-0.5-2.9
			l-1,0.2l0.5,2.9L703.2,376.8z M702.3,376.8l-0.5-2.6l0.8-0.1l0.5,2.6L702.3,376.8z"/>
		<polygon fill="none" stroke="#E0BB9B" stroke-width="1.1065" stroke-miterlimit="10" points="674.9,414.6 667.4,406.3 
			667.4,392.3 674.9,397.9 		"/>
		<polyline fill="none" stroke="#E0BB9B" stroke-width="1.1065" stroke-miterlimit="10" points="674.9,322.1 667.4,325.9 
			667.4,309.7 674.9,305.9 		"/>
	</g>
	<path fill="none" stroke="#FFFFFF" stroke-width="1.2581" stroke-miterlimit="10" d="M399.9,286.8h6.1c-0.1,0.9-0.5,1.6-1,2.2
		c-0.6,0.6-1.2,0.9-2,0.9s-1.5-0.3-2-0.9C400.4,288.5,400,287.7,399.9,286.8z M398.4,286.1h9.1l0.4-3.8H398L398.4,286.1z
		 M413.2,268.1c0,2.7-0.9,5-2.7,6.9c0,0-0.1,0.1-0.1,0.2c-0.1,0.2-0.2,0.4-0.4,0.6c-0.3,0.5-0.6,1.1-0.8,1.7
		c-0.3,0.6-0.5,1.3-0.7,1.9c0,0.1-0.1,0.2-0.1,0.3c0,0.2,0,0.3-0.1,0.3c0,0,0,0.1-0.1,0.2c0,0.1,0,0.2,0,0.2v0.1v1v1.2H407h-1h-6.2
		h-1h-1.2v-1.2v-1l0-0.1c0-0.1,0-0.2-0.1-0.4c0-0.2-0.1-0.4-0.1-0.5c-0.2-0.6-0.4-1.3-0.7-1.9c-0.3-0.6-0.6-1.2-0.9-1.8
		c-0.1-0.2-0.3-0.5-0.4-0.6c0,0-0.1-0.1-0.1-0.2v0c-1.8-1.9-2.6-4.2-2.6-6.8c0-2.8,1-5.2,3-7.2s4.4-3,7.2-3c2.8,0,5.2,1,7.2,3
		C412.2,262.9,413.2,265.3,413.2,268.1z M398.4,266.2l1.9,3.7l0.8,1.7l0.8-1.7l1-2.1l1,2.1l0.8,1.7l0.8-1.7l1.9-3.7"/>
	<path fill="none" stroke="#FFFFFF" stroke-width="1.2581" stroke-miterlimit="10" d="M550.9,286.5h6.1c-0.1,0.9-0.5,1.6-1,2.2
		c-0.6,0.6-1.2,0.9-2,0.9c-0.8,0-1.5-0.3-2-0.9C551.4,288.1,551,287.4,550.9,286.5z M549.4,285.7h9.1l0.4-3.8H549L549.4,285.7z
		 M564.2,267.7c0,2.7-0.9,5-2.7,6.9c0,0-0.1,0.1-0.1,0.2c-0.1,0.2-0.2,0.4-0.4,0.6c-0.3,0.5-0.6,1.1-0.8,1.7
		c-0.3,0.6-0.5,1.3-0.7,1.9c0,0.1-0.1,0.2-0.1,0.3c0,0.2,0,0.3-0.1,0.3c0,0,0,0.1-0.1,0.2c0,0.1,0,0.2,0,0.2v0.1v1v1.2H558h-1h-6.2
		h-1h-1.2v-1.2v-1l0-0.1c0-0.1,0-0.2-0.1-0.4c0-0.2-0.1-0.4-0.1-0.5c-0.2-0.6-0.4-1.3-0.7-1.9c-0.3-0.6-0.6-1.2-0.9-1.8
		c-0.1-0.2-0.3-0.5-0.4-0.6c0,0-0.1-0.1-0.1-0.2v0c-1.8-1.9-2.6-4.2-2.6-6.8c0-2.8,1-5.2,3-7.2s4.4-3,7.2-3s5.2,1,7.2,3
		C563.2,262.5,564.2,264.9,564.2,267.7z M549.4,265.9l1.9,3.7l0.8,1.7l0.8-1.7l1-2.1l1,2.1l0.8,1.7l0.8-1.7l1.9-3.7"/>
	<path opacity="0.1" fill="#E0BB9B" stroke="#E0BB9B" stroke-width="0.5" stroke-miterlimit="10" stroke-dasharray="2" d="
		M331.9,207.8"/>
</g>
<g>
	<g>
		<g>
			<g>
				<polyline fill="none" stroke="#5BCFBA" stroke-width="1.0002" stroke-miterlimit="10" points="435.4,513.4 435.4,528.8 
					458.4,551.8 824.3,551.8 846.8,529.4 846.8,205.1 868.7,183.2 				"/>
				<g>
					<circle fill="#5BCFBA" cx="435.4" cy="513.6" r="3.8"/>
				</g>
				<g>
					
						<rect x="865.3" y="180" transform="matrix(0.7071 0.7071 -0.7071 0.7071 384.0209 -560.5433)" fill="#5BCFBA" width="6.6" height="6.6"/>
				</g>
			</g>
		</g>
		<g>
			<g>
				<polyline fill="none" stroke="#5BCFBA" stroke-width="1.0002" stroke-miterlimit="10" points="559.9,513.3 559.9,530.8 
					581.2,552.2 				"/>
				<g>
					<circle fill="#5BCFBA" cx="559.9" cy="513.5" r="3.8"/>
				</g>
			</g>
		</g>
		<g>
			<g>
				<polyline fill="none" stroke="#5BCFBA" stroke-width="1.0002" stroke-miterlimit="10" points="769.9,362.1 785.9,378.1 
					785.9,551.8 				"/>
				<g>
					<circle fill="#5BCFBA" cx="770" cy="362.2" r="3.8"/>
				</g>
			</g>
		</g>
	</g>
	<g>
		<g>
			<polyline fill="none" stroke="#5BCFBA" stroke-width="1.0002" stroke-miterlimit="10" points="461.8,53.4 479.3,35.9 767.3,35.9 
				790.3,58.9 790.3,227.9 808.3,245.9 846.8,245.9 			"/>
			<g>
				<circle fill="#5BCFBA" cx="461.9" cy="53.3" r="3.8"/>
			</g>
		</g>
	</g>
</g>
<g id="New_Symbol_1">
</g>
</svg>
