<?xml version="1.0" encoding="utf-8"?>
<!-- Generator: Adobe Illustrator 18.1.1, SVG Export Plug-In . SVG Version: 6.00 Build 0)  -->
<!DOCTYPE svg PUBLIC "-//W3C//DTD SVG 1.1//EN" "http://www.w3.org/Graphics/SVG/1.1/DTD/svg11.dtd">
<svg version="1.1" id="Layer_1" xmlns="http://www.w3.org/2000/svg" xmlns:xlink="http://www.w3.org/1999/xlink" x="0px" y="0px"
	 viewBox="0 0 874.5 580.5" enable-background="new 0 0 874.5 580.5" xml:space="preserve">
<g id="New_Symbol_1">
</g>
<g>
	<g>
		<g>
			<polygon fill="#465E61" points="187.1,484.7 187.1,83.5 645.2,83.5 673.6,105.7 673.6,205.9 641.6,233.8 641.6,331.7 
				673.6,360.2 673.6,458.1 644.9,484.7 			"/>
			<path fill="#E0BB9B" d="M643.3,88.9l24.9,19.5v95.1l-28.3,24.7l-3.7,3.2v4.9v93.1v4.8l3.6,3.2l28.4,25.3v93.1l-25.4,23.6H192.5
				V88.9H643.3 M647,78.1H181.7v412H647l32-29.7V357.8l-32-28.5v-93.1l32-27.9V103.1L647,78.1L647,78.1z"/>
		</g>
		<polygon fill="none" stroke="#E0BB9B" stroke-miterlimit="10" points="214.5,461.4 616.2,461.4 635.6,444.8 635.6,359.2 
			616.2,342.1 616.2,226.9 635.6,208.3 635.6,123 616.2,106.8 214.5,106.8 		"/>
		<polygon fill="none" stroke="#E0BB9B" stroke-miterlimit="10" points="636.2,479.2 616.2,461.3 214.5,461.3 190.3,479.9 		"/>
		<polygon fill="none" stroke="#E0BB9B" stroke-miterlimit="10" points="636.2,89.1 616.2,107.3 214.5,107.3 190.3,88.6 		"/>
	</g>
</g>
<g>
	<g>
		<g>
			<polygon fill="#465E61" stroke="#E0BB9B" stroke-miterlimit="10" points="368.6,200.7 548.5,200.7 548.5,210.2 369.4,210.2 			
				"/>
			<polygon fill="#465E61" stroke="#E0BB9B" stroke-miterlimit="10" points="365,192.1 552.1,192.1 552.1,202.5 365.6,202.5 			"/>
			<polygon fill="#465E61" stroke="#E0BB9B" stroke-miterlimit="10" points="361.5,183.5 555.6,183.5 555.6,194.9 361.7,194.9 			
				"/>
			<rect x="357.9" y="174.8" fill="#465E61" stroke="#E0BB9B" stroke-miterlimit="10" width="201.2" height="12.4"/>
		</g>
		<g>
			<polygon fill="#465E61" stroke="#E0BB9B" stroke-miterlimit="10" points="548.5,148.7 368.5,148.7 368.5,139.2 547.7,139.2 			
				"/>
			<polygon fill="#465E61" stroke="#E0BB9B" stroke-miterlimit="10" points="552,157.3 365,157.3 365,146.9 551.5,146.9 			"/>
			<polygon fill="#465E61" stroke="#E0BB9B" stroke-miterlimit="10" points="555.6,165.9 361.5,165.9 361.5,154.5 555.3,154.5 			
				"/>
			<rect x="357.9" y="162.2" fill="#465E61" stroke="#E0BB9B" stroke-miterlimit="10" width="201.2" height="12.4"/>
		</g>
		<rect x="357.9" y="162.2" fill="#465E61" stroke="#E0BB9B" stroke-miterlimit="10" width="201.2" height="25"/>
	</g>
	<g>
		<g>
			<polygon fill="#465E61" stroke="#E0BB9B" stroke-miterlimit="10" points="371.9,312.2 551.8,312.2 551.8,321.7 372.7,321.7 			
				"/>
			<polygon fill="#465E61" stroke="#E0BB9B" stroke-miterlimit="10" points="368.3,303.6 555.3,303.6 555.3,314 368.8,314 			"/>
			<polygon fill="#465E61" stroke="#E0BB9B" stroke-miterlimit="10" points="364.8,295 558.9,295 558.9,306.4 365,306.4 			"/>
			<rect x="361.2" y="286.4" fill="#465E61" stroke="#E0BB9B" stroke-miterlimit="10" width="201.2" height="12.4"/>
		</g>
		<g>
			<polygon fill="#465E61" stroke="#E0BB9B" stroke-miterlimit="10" points="551.8,260.2 371.8,260.2 371.8,250.7 551,250.7 			"/>
			<polygon fill="#465E61" stroke="#E0BB9B" stroke-miterlimit="10" points="555.3,268.8 368.3,268.8 368.3,258.4 554.8,258.4 			
				"/>
			<polygon fill="#465E61" stroke="#E0BB9B" stroke-miterlimit="10" points="558.9,277.4 364.7,277.4 364.7,266 558.6,266 			"/>
			<rect x="361.2" y="273.7" fill="#465E61" stroke="#E0BB9B" stroke-miterlimit="10" width="201.2" height="12.4"/>
		</g>
		<rect x="361.2" y="273.7" fill="#465E61" stroke="#E0BB9B" stroke-miterlimit="10" width="201.2" height="25"/>
	</g>
	<g>
		<g>
			<polygon fill="#465E61" stroke="#E0BB9B" stroke-miterlimit="10" points="268.8,419.4 546.1,419.4 546.1,428.9 270,428.9 			"/>
			<polygon fill="#465E61" stroke="#E0BB9B" stroke-miterlimit="10" points="263.3,410.8 551.5,410.8 551.5,421.2 264.1,421.2 			
				"/>
			<polygon fill="#465E61" stroke="#E0BB9B" stroke-miterlimit="10" points="257.8,402.2 557,402.2 557,413.6 258.2,413.6 			"/>
			<rect x="252.4" y="393.6" fill="#465E61" stroke="#E0BB9B" stroke-miterlimit="10" width="310.1" height="12.4"/>
		</g>
		<g>
			<polygon fill="#465E61" stroke="#E0BB9B" stroke-miterlimit="10" points="546,367.4 268.7,367.4 268.7,357.9 544.7,357.9 			"/>
			<polygon fill="#465E61" stroke="#E0BB9B" stroke-miterlimit="10" points="551.5,376 263.3,376 263.3,365.6 550.6,365.6 			"/>
			<polygon fill="#465E61" stroke="#E0BB9B" stroke-miterlimit="10" points="556.9,384.6 257.8,384.6 257.8,373.2 556.5,373.2 			
				"/>
			<rect x="252.4" y="380.9" fill="#465E61" stroke="#E0BB9B" stroke-miterlimit="10" width="310.1" height="12.4"/>
		</g>
		<rect x="252.4" y="380.9" fill="#465E61" stroke="#E0BB9B" stroke-miterlimit="10" width="310.1" height="25"/>
	</g>
	<polygon fill="none" stroke="#E0BB9B" stroke-width="1.5" stroke-miterlimit="10" points="260.8,271.5 260.8,99.2 300.1,99.2 
		300.1,271.6 	"/>
	<line fill="none" stroke="#E0BB9B" stroke-width="4" stroke-miterlimit="10" x1="300.1" y1="278" x2="300.1" y2="98.2"/>
</g>
<path fill="none" stroke="#E0BB9B" stroke-width="2.802" stroke-miterlimit="10" d="M619.2,247.1"/>
<path fill="none" stroke="#E0BB9B" stroke-width="10.7796" stroke-miterlimit="10" d="M393.5,375.5"/>
<path opacity="0.1" fill="#E0BB9B" stroke="#E0BB9B" stroke-width="0.5" stroke-miterlimit="10" stroke-dasharray="2" d="
	M379.9,208.3"/>
<polygon fill="#465E61" points="647.2,311.8 625.4,312.8 625.4,253.3 647.2,254.7 "/>
<g>
	<line fill="none" stroke="#FFFFFF" stroke-width="4" stroke-miterlimit="10" x1="693" y1="282.1" x2="645.2" y2="252.7"/>
	<g>
		<g>
			<path fill="none" stroke="#FFFFFF" stroke-width="2" stroke-miterlimit="10" d="M691.2,282.4c-0.2,0.4-0.5,0.9-0.7,1.3"/>
			<path fill="none" stroke="#FFFFFF" stroke-width="2" stroke-miterlimit="10" stroke-dasharray="2.9075,2.9075" d="M689,286.3
				c-9.9,15.9-27.1,26.7-46.9,27.7"/>
			<path fill="none" stroke="#FFFFFF" stroke-width="2" stroke-miterlimit="10" d="M640.6,314c-0.5,0-1,0-1.5,0"/>
		</g>
	</g>
</g>
<rect x="200.6" y="96.8" fill="none" stroke="#E0BB9B" stroke-width="1.5" stroke-miterlimit="10" width="18.5" height="177.7"/>
<polygon fill="none" stroke="#E0BB9B" stroke-miterlimit="10" points="232.5,272.5 219.1,274.5 219.1,96.8 232.5,107 "/>
<line fill="none" stroke="#E0BB9B" stroke-miterlimit="10" x1="228.8" y1="273" x2="228.8" y2="103.6"/>
<line fill="none" stroke="#E0BB9B" stroke-miterlimit="10" x1="229.8" y1="273" x2="229.8" y2="103.6"/>
<line fill="none" stroke="#E0BB9B" stroke-miterlimit="10" x1="224.8" y1="274" x2="224.8" y2="100.6"/>
<line fill="none" stroke="#E0BB9B" stroke-miterlimit="10" x1="221.8" y1="274" x2="221.8" y2="97.8"/>
<g>
	<g>
		<g>
			<path opacity="0.5" fill="none" stroke="#FFFFFF" stroke-width="2" stroke-miterlimit="10" d="M215.1,448c5.4,0,9.8,4.4,9.8,9.8"
				/>
			<path opacity="0.4556" fill="none" stroke="#FFFFFF" stroke-width="2" stroke-miterlimit="10" d="M214.8,433.6
				c13.6,0,24.6,11,24.6,24.6"/>
			<path opacity="0.4111" fill="none" stroke="#FFFFFF" stroke-width="2" stroke-miterlimit="10" d="M214.4,419.2
				c21.8,0,39.5,17.7,39.5,39.5"/>
			<path opacity="0.3667" fill="none" stroke="#FFFFFF" stroke-width="2" stroke-miterlimit="10" d="M214,404.8
				c30,0,54.3,24.3,54.3,54.3"/>
			<path opacity="0.3222" fill="none" stroke="#FFFFFF" stroke-width="2" stroke-miterlimit="10" d="M213.7,390.4
				c38.2,0,69.1,31,69.1,69.1"/>
			<path opacity="0.2778" fill="none" stroke="#FFFFFF" stroke-width="2" stroke-miterlimit="10" d="M213.3,376
				c46.4,0,84,37.6,84,84"/>
			<path opacity="0.2333" fill="none" stroke="#FFFFFF" stroke-width="2" stroke-miterlimit="10" d="M212.9,361.6
				c54.6,0,98.8,44.2,98.8,98.8"/>
			<path opacity="0.1889" fill="none" stroke="#FFFFFF" stroke-width="2" stroke-miterlimit="10" d="M212.5,347.2
				c62.8,0,113.7,50.9,113.7,113.7"/>
			<path opacity="0.1444" fill="none" stroke="#FFFFFF" stroke-width="2" stroke-miterlimit="10" d="M212.2,332.9
				c71,0,128.5,57.5,128.5,128.5"/>
			<path opacity="0.1" fill="none" stroke="#FFFFFF" stroke-width="2" stroke-miterlimit="10" d="M211.8,318.5
				c79.2,0,143.3,64.2,143.3,143.3"/>
		</g>
		<circle fill="#FFFFFF" stroke="#FFFFFF" stroke-width="2" stroke-miterlimit="10" cx="213.1" cy="460.8" r="6.5"/>
	</g>
	<g>
		<g>
			<polyline fill="none" stroke="#5BCFBA" stroke-width="1.0002" stroke-miterlimit="10" points="211.7,496.5 229.6,514.1 
				326.5,514.1 351.5,490.3 351.2,388 			"/>
			<g>
				
					<rect x="208.5" y="493.3" transform="matrix(-0.7009 0.7133 -0.7133 -0.7009 714.3923 693.6042)" fill="#5BCFBA" width="6.6" height="6.6"/>
			</g>
			<g>
				<circle fill="#5BCFBA" cx="351.2" cy="388.2" r="3.8"/>
			</g>
		</g>
	</g>
	<g>
		<g>
			<polyline fill="none" stroke="#5BCFBA" stroke-width="1.0002" stroke-miterlimit="10" points="326.5,514.1 502.3,514.1 
				527.3,490.3 527,388 			"/>
			<g>
				<circle fill="#5BCFBA" cx="527" cy="388.2" r="3.8"/>
			</g>
		</g>
	</g>
	<g>
		<g>
			<path opacity="0.5" fill="none" stroke="#FFFFFF" stroke-width="2" stroke-miterlimit="10" d="M624.9,113.9
				c-5.4,0-9.8-4.4-9.8-9.8"/>
			<path opacity="0.4556" fill="none" stroke="#FFFFFF" stroke-width="2" stroke-miterlimit="10" d="M625.2,128.3
				c-13.6,0-24.6-11-24.6-24.6"/>
			<path opacity="0.4111" fill="none" stroke="#FFFFFF" stroke-width="2" stroke-miterlimit="10" d="M625.6,142.7
				c-21.8,0-39.5-17.7-39.5-39.5"/>
			<path opacity="0.3667" fill="none" stroke="#FFFFFF" stroke-width="2" stroke-miterlimit="10" d="M626,157.1
				c-30,0-54.3-24.3-54.3-54.3"/>
			<path opacity="0.3222" fill="none" stroke="#FFFFFF" stroke-width="2" stroke-miterlimit="10" d="M626.4,171.5
				c-38.2,0-69.1-31-69.1-69.1"/>
			<path opacity="0.2778" fill="none" stroke="#FFFFFF" stroke-width="2" stroke-miterlimit="10" d="M626.7,185.9
				c-46.4,0-84-37.6-84-84"/>
			<path opacity="0.2333" fill="none" stroke="#FFFFFF" stroke-width="2" stroke-miterlimit="10" d="M627.1,200.3
				c-54.6,0-98.8-44.2-98.8-98.8"/>
			<path opacity="0.1889" fill="none" stroke="#FFFFFF" stroke-width="2" stroke-miterlimit="10" d="M627.5,214.7
				c-62.8,0-113.7-50.9-113.7-113.7"/>
			<path opacity="0.1444" fill="none" stroke="#FFFFFF" stroke-width="2" stroke-miterlimit="10" d="M627.8,229.1
				c-71,0-128.5-57.5-128.5-128.5"/>
			<path opacity="0.1" fill="none" stroke="#FFFFFF" stroke-width="2" stroke-miterlimit="10" d="M628.2,243.4
				c-79.2,0-143.3-64.2-143.3-143.3"/>
		</g>
		<circle fill="#FFFFFF" stroke="#FFFFFF" stroke-width="2" stroke-miterlimit="10" cx="626.9" cy="101.1" r="6.5"/>
	</g>
	<g>
		<g>
			<polyline fill="none" stroke="#5BCFBA" stroke-width="1.0002" stroke-miterlimit="10" points="628.2,78.1 610.3,60.4 552.4,60.4 
				527.4,84.3 527.7,186.5 			"/>
			<g>
				
					<rect x="624.8" y="74.6" transform="matrix(0.7009 -0.7133 0.7133 0.7009 132.2951 471.3415)" fill="#5BCFBA" width="6.6" height="6.6"/>
			</g>
			<g>
				<circle fill="#5BCFBA" cx="527.7" cy="186.3" r="3.8"/>
			</g>
		</g>
	</g>
</g>
<g>
	<g>
		<path opacity="0.1" fill="#E0BB9B" stroke="#E0BB9B" stroke-width="0.5" stroke-miterlimit="10" stroke-dasharray="2" d="
			M381.4,209.1c0-54,29.4-101.2,73-126.4l145.2-0.4c44,25.1,73.7,72.5,73.7,126.9c0,11.8-30.7,11-33.9,36.5c-0.9,7,11.3,4.8,9,9.1
			c-2.8,5.3-1,39.2-1,39.2c-26.3,37.6-70.3,61.2-120.1,61.2C446.7,355,381.4,289.7,381.4,209.1z"/>
		<g>
			<polygon fill="none" stroke="#FFFFFF" stroke-width="1.2581" stroke-miterlimit="10" points="521.4,219.5 521.8,223.2 
				530.9,223.2 531.3,219.5 531.3,213.9 521.4,213.9 			"/>
			<path fill="none" stroke="#FFFFFF" stroke-width="1.2581" stroke-miterlimit="10" d="M539.9,202.9c-0.1-0.1-0.3-0.3-0.4-0.4
				l0.4-0.6h-1.2c-1.1-0.7-2.6-1.3-3.3-1.3c-1,0-2,0.5-2.5,1.3h-1.1c-0.5-0.8-1.5-1.3-2.5-1.3s-2,0.5-2.5,1.3h-1
				c-0.5-0.8-1.5-1.3-2.5-1.3s-2,0.5-2.5,1.3H520c-0.5-0.8-1.5-1.3-2.5-1.3c-0.7,0-2.2,0.7-3.3,1.3h-1.4l0.5,0.7
				c-0.1,0.1-0.2,0.2-0.3,0.3h0.5l7.7,10.9h10.3l7.7-10.9H539.9z"/>
		</g>
	</g>
	<g>
		<path opacity="0.1" fill="#E0BB9B" stroke="#E0BB9B" stroke-width="0.5" stroke-miterlimit="10" stroke-dasharray="2" d="
			M381.4,355c0-80.6,65.3-146,146-146c47.5,0,92.7,22.7,119.4,57.8l0.6,62.4c3.4,12.3,26,19.4,26,32.8c0,56.9-32.6,99.2-80.1,123.3
			l-131.7,0C414,461.3,381.4,412,381.4,355z"/>
		<g>
			<polygon fill="none" stroke="#FFFFFF" stroke-width="1.2581" stroke-miterlimit="10" points="521.4,365.4 521.8,369.2 
				530.9,369.2 531.3,365.4 531.3,359.9 521.4,359.9 			"/>
			<path fill="none" stroke="#FFFFFF" stroke-width="1.2581" stroke-miterlimit="10" d="M539.9,348.9c-0.1-0.1-0.3-0.3-0.4-0.4
				l0.4-0.6h-1.2c-1.1-0.7-2.6-1.3-3.3-1.3c-1,0-2,0.5-2.5,1.3h-1.1c-0.5-0.8-1.5-1.3-2.5-1.3s-2,0.5-2.5,1.3h-1
				c-0.5-0.8-1.5-1.3-2.5-1.3s-2,0.5-2.5,1.3H520c-0.5-0.8-1.5-1.3-2.5-1.3c-0.7,0-2.2,0.7-3.3,1.3h-1.4l0.5,0.7
				c-0.1,0.1-0.2,0.2-0.3,0.3h0.5l7.7,10.9h10.3l7.7-10.9H539.9z"/>
		</g>
	</g>
	<g>
		<path opacity="0.1" fill="#E0BB9B" stroke="#E0BB9B" stroke-width="0.5" stroke-miterlimit="10" stroke-dasharray="2" d="
			M205.5,355c0-80.6,65.3-146,146-146s146,65.3,146,146c0,56.1-31.6,104.8-78,129.2l-137.4-0.8C236.5,458.8,205.5,410.5,205.5,355z"
			/>
		<g>
			<polygon fill="none" stroke="#FFFFFF" stroke-width="1.2581" stroke-miterlimit="10" points="345.5,365.4 346,369.2 355,369.2 
				355.4,365.4 355.4,359.9 345.5,359.9 			"/>
			<path fill="none" stroke="#FFFFFF" stroke-width="1.2581" stroke-miterlimit="10" d="M364.1,348.9c-0.1-0.1-0.3-0.3-0.4-0.4
				l0.4-0.6h-1.2c-1.1-0.7-2.6-1.3-3.3-1.3c-1,0-2,0.5-2.5,1.3H356c-0.5-0.8-1.5-1.3-2.5-1.3s-2,0.5-2.5,1.3h-1
				c-0.5-0.8-1.5-1.3-2.5-1.3s-2,0.5-2.5,1.3h-0.9c-0.5-0.8-1.5-1.3-2.5-1.3c-0.7,0-2.2,0.7-3.3,1.3h-1.4l0.5,0.7
				c-0.1,0.1-0.2,0.2-0.3,0.3h0.5l7.7,10.9h10.3l7.7-10.9H364.1z"/>
		</g>
	</g>
</g>
</svg>
