<?xml version="1.0" encoding="utf-8"?>
<!-- Generator: Adobe Illustrator 18.1.1, SVG Export Plug-In . SVG Version: 6.00 Build 0)  -->
<!DOCTYPE svg PUBLIC "-//W3C//DTD SVG 1.1//EN" "http://www.w3.org/Graphics/SVG/1.1/DTD/svg11.dtd">
<svg version="1.1" id="Layer_1" xmlns="http://www.w3.org/2000/svg" xmlns:xlink="http://www.w3.org/1999/xlink" x="0px" y="0px"
	 viewBox="0 0 874.5 580.5" enable-background="new 0 0 874.5 580.5" xml:space="preserve">
<g id="New_Symbol_1">
</g>
<g>
	<g>
		<g>
			<path opacity="0.5" fill="none" stroke="#FFFFFF" stroke-width="2" stroke-miterlimit="10" d="M215.1,448c5.4,0,9.8,4.4,9.8,9.8"
				/>
			<path opacity="0.4556" fill="none" stroke="#FFFFFF" stroke-width="2" stroke-miterlimit="10" d="M214.8,433.6
				c13.6,0,24.6,11,24.6,24.6"/>
			<path opacity="0.4111" fill="none" stroke="#FFFFFF" stroke-width="2" stroke-miterlimit="10" d="M214.4,419.2
				c21.8,0,39.5,17.7,39.5,39.5"/>
			<path opacity="0.3667" fill="none" stroke="#FFFFFF" stroke-width="2" stroke-miterlimit="10" d="M214,404.8
				c30,0,54.3,24.3,54.3,54.3"/>
			<path opacity="0.3222" fill="none" stroke="#FFFFFF" stroke-width="2" stroke-miterlimit="10" d="M213.7,390.4
				c38.2,0,69.1,31,69.1,69.1"/>
			<path opacity="0.2778" fill="none" stroke="#FFFFFF" stroke-width="2" stroke-miterlimit="10" d="M213.3,376
				c46.4,0,84,37.6,84,84"/>
			<path opacity="0.2333" fill="none" stroke="#FFFFFF" stroke-width="2" stroke-miterlimit="10" d="M212.9,361.6
				c54.6,0,98.8,44.2,98.8,98.8"/>
			<path opacity="0.1889" fill="none" stroke="#FFFFFF" stroke-width="2" stroke-miterlimit="10" d="M212.5,347.2
				c62.8,0,113.7,50.9,113.7,113.7"/>
			<path opacity="0.1444" fill="none" stroke="#FFFFFF" stroke-width="2" stroke-miterlimit="10" d="M212.2,332.9
				c71,0,128.5,57.5,128.5,128.5"/>
			<path opacity="0.1" fill="none" stroke="#FFFFFF" stroke-width="2" stroke-miterlimit="10" d="M211.8,318.5
				c79.2,0,143.3,64.2,143.3,143.3"/>
		</g>
		<circle fill="#FFFFFF" stroke="#FFFFFF" stroke-width="2" stroke-miterlimit="10" cx="213.1" cy="460.8" r="6.5"/>
	</g>
	<g>
		<g>
			<polyline fill="none" stroke="#5BCFBA" stroke-width="1.0002" stroke-miterlimit="10" points="211.7,496.5 229.6,514.1 
				326.5,514.1 351.5,490.3 351.2,388 			"/>
			<g>
				
					<rect x="208.5" y="493.3" transform="matrix(-0.7009 0.7133 -0.7133 -0.7009 714.3925 693.6048)" fill="#5BCFBA" width="6.6" height="6.6"/>
			</g>
			<g>
				<circle fill="#5BCFBA" cx="351.2" cy="388.2" r="3.8"/>
			</g>
		</g>
	</g>
	<g>
		<g>
			<polyline fill="none" stroke="#5BCFBA" stroke-width="1.0002" stroke-miterlimit="10" points="326.5,514.1 502.3,514.1 
				527.3,490.3 527,388 			"/>
			<g>
				<circle fill="#5BCFBA" cx="527" cy="388.2" r="3.8"/>
			</g>
		</g>
	</g>
	<g>
		<g>
			<path opacity="0.5" fill="none" stroke="#FFFFFF" stroke-width="2" stroke-miterlimit="10" d="M624.9,113.9
				c-5.4,0-9.8-4.4-9.8-9.8"/>
			<path opacity="0.4556" fill="none" stroke="#FFFFFF" stroke-width="2" stroke-miterlimit="10" d="M625.2,128.3
				c-13.6,0-24.6-11-24.6-24.6"/>
			<path opacity="0.4111" fill="none" stroke="#FFFFFF" stroke-width="2" stroke-miterlimit="10" d="M625.6,142.7
				c-21.8,0-39.5-17.7-39.5-39.5"/>
			<path opacity="0.3667" fill="none" stroke="#FFFFFF" stroke-width="2" stroke-miterlimit="10" d="M626,157.1
				c-30,0-54.3-24.3-54.3-54.3"/>
			<path opacity="0.3222" fill="none" stroke="#FFFFFF" stroke-width="2" stroke-miterlimit="10" d="M626.4,171.5
				c-38.2,0-69.1-31-69.1-69.1"/>
			<path opacity="0.2778" fill="none" stroke="#FFFFFF" stroke-width="2" stroke-miterlimit="10" d="M626.7,185.9
				c-46.4,0-84-37.6-84-84"/>
			<path opacity="0.2333" fill="none" stroke="#FFFFFF" stroke-width="2" stroke-miterlimit="10" d="M627.1,200.3
				c-54.6,0-98.8-44.2-98.8-98.8"/>
			<path opacity="0.1889" fill="none" stroke="#FFFFFF" stroke-width="2" stroke-miterlimit="10" d="M627.5,214.7
				c-62.8,0-113.7-50.9-113.7-113.7"/>
			<path opacity="0.1444" fill="none" stroke="#FFFFFF" stroke-width="2" stroke-miterlimit="10" d="M627.8,229.1
				c-71,0-128.5-57.5-128.5-128.5"/>
			<path opacity="0.1" fill="none" stroke="#FFFFFF" stroke-width="2" stroke-miterlimit="10" d="M628.2,243.4
				c-79.2,0-143.3-64.2-143.3-143.3"/>
		</g>
		<circle fill="#FFFFFF" stroke="#FFFFFF" stroke-width="2" stroke-miterlimit="10" cx="626.9" cy="101.1" r="6.5"/>
	</g>
	<g>
		<g>
			<polyline fill="none" stroke="#5BCFBA" stroke-width="1.0002" stroke-miterlimit="10" points="628.2,78.1 610.3,60.4 552.4,60.4 
				527.4,84.3 527.7,186.5 			"/>
			<g>
				
					<rect x="624.8" y="74.6" transform="matrix(0.7009 -0.7133 0.7133 0.7009 132.2949 471.3416)" fill="#5BCFBA" width="6.6" height="6.6"/>
			</g>
			<g>
				<circle fill="#5BCFBA" cx="527.7" cy="186.3" r="3.8"/>
			</g>
		</g>
	</g>
</g>
</svg>
