<?xml version="1.0" encoding="utf-8"?>
<!-- Generator: Adobe Illustrator 18.1.1, SVG Export Plug-In . SVG Version: 6.00 Build 0)  -->
<!DOCTYPE svg PUBLIC "-//W3C//DTD SVG 1.1//EN" "http://www.w3.org/Graphics/SVG/1.1/DTD/svg11.dtd">
<svg version="1.1" id="Layer_1" xmlns="http://www.w3.org/2000/svg" xmlns:xlink="http://www.w3.org/1999/xlink" x="0px" y="0px"
	 viewBox="0 0 798.8 96.9" enable-background="new 0 0 798.8 96.9" xml:space="preserve">
<g>
	<path fill="#CC4F3D" d="M40.5,83.4c1.8-0.1,3.7-0.2,5.5-0.4c2-0.2,3.7-0.3,5.3-0.3c1.6-0.1,2.3,0.3,2.3,1c0,0.6-1.4,1.7-4,3.3
		c-2.6,1.5-5.6,3.1-9,4.7c-3.3,1.5-6.4,2.8-9.5,4c-3,1-4.9,1.4-5.7,1c-0.8-0.4-1.2-0.8-1.3-1.5c0-0.6,0-1.3,0.2-1.9
		c0.2-0.7,0.4-1.3,0.5-1.9c0.2-0.7,0.1-1.1-0.3-1.5c-0.4-0.4-1.2-0.5-2.5-0.3c-1.2,0.2-2.6,0.5-4,0.8c-1.4,0.3-2.7,0.5-4,0.8
		c-1.2,0.2-2.1,0.1-2.6-0.3c-0.2-0.1-1-2.7-2.4-7.6C7.8,78.5,6.4,73,4.9,67c-1.5-6.2-2.7-12-3.8-17.5c-1-5.5-1.4-9-1-10.3
		c0.3-0.9,2.1-1.9,5.5-3.1c3.4-1.2,7.2-2.2,11.3-3.2c4.1-1,8-1.8,11.7-2.3c3.7-0.6,5.9-0.7,6.7-0.5c1,0.3,1.7,1,2.2,2.2
		c0.6,1,0.9,2.2,1.1,3.4c0.3,1.2,0.3,2.3,0.2,3.4c0,1.1-0.2,1.8-0.5,2.1c-0.4,0.5-1.8,1-4.1,1.4c-2.3,0.4-4.7,0.8-7.5,1.3
		c-2.7,0.4-5.2,0.8-7.6,1.4c-2.3,0.5-3.8,1-4.4,1.7c-0.4,0.4-0.6,1-0.8,1.8c-0.1,0.8,0,1.6,0.2,2.4c0.2,0.8,0.5,1.6,0.8,2.3
		c0.4,0.7,0.8,1.2,1.3,1.5c0.7,0.5,1.7,0.6,3,0.5c1.3-0.2,2.6-0.5,4-0.8c1.4-0.4,2.7-0.7,4-1c1.3-0.3,2.3-0.4,3-0.1
		c0.5,0.2,0.9,0.7,1.3,1.6c0.5,0.9,0.8,1.9,0.9,3c0.2,1.1,0.3,2.2,0.2,3.2c-0.1,1-0.4,1.7-0.8,2.1c-0.5,0.5-1.4,0.8-2.7,1.1
		c-1.2,0.2-2.5,0.4-4,0.8c-1.4,0.2-2.7,0.5-3.9,0.9c-1.2,0.3-2,0.9-2.5,1.6c-0.2,0.4-0.3,1-0.3,1.9c0,0.8,0.2,1.7,0.5,2.6
		c0.3,0.9,0.7,1.7,1.1,2.5c0.5,0.7,1,1.2,1.6,1.3c0.6,0.1,1.7,0.1,3.2-0.1c1.6-0.3,3.2-0.6,4.9-1c1.7-0.4,3.3-0.7,4.9-1
		c1.5-0.3,2.6-0.4,3.1-0.2c0.6,0.1,0.9,0.5,1,1.1c0.2,0.5,0.1,1.1-0.1,1.8c-0.1,0.6-0.4,1.4-0.8,2.2c-0.4,0.8-0.7,1.5-1.1,2.2
		c-0.1,0.6,0,1.1,0.3,1.6C37.6,83.2,38.7,83.4,40.5,83.4z"/>
	<path fill="#CC4F3D" d="M77.2,65.9c-1.4-1.6-2.6-2.9-3.7-4c-1.1-1.2-2.1-2.1-3-2.7c-0.8-0.7-1.5-0.9-2-0.9c-0.3,0-0.6,0.2-0.8,0.5
		c-0.4,0.8-0.5,2.2-0.3,4.3c0.2,2.1,0.6,4.7,1.1,8c0.2,0.9,0.3,1.9,0.5,3c0.2,1.1,0.3,2.1,0.4,3.1c0.2,0.9,0.2,1.8,0.3,2.5
		c0.1,0.7,0,1.1-0.1,1.3c-0.2,0.3-1.3,0.6-3.2,1c-1.7,0.2-3.4,0.3-5.1,0.2c-1.6-0.1-2.7-0.3-3.2-0.7c-0.2-0.2-0.5-0.9-0.8-2.2
		s-0.7-3-1.1-5.1c-0.4-2.1-0.8-4.7-1.3-7.6c-0.4-2.9-0.9-6.1-1.4-9.5c-0.5-3.3-0.9-6.5-1.2-9.5c-0.3-3.1-0.7-5.9-0.9-8.3
		C51.2,37,51,34.9,51,33.3c0-1.7,0.1-2.7,0.2-3.2c0.2-0.6,1-1.1,2.5-1.8c1.5-0.6,3.1-1.1,4.8-1.3c1.1-0.2,2-0.2,2.5-0.1
		c0.6,0.1,1,0.2,1.1,0.4c0.4,0.4,1,1,1.8,1.9c0.8,0.9,1.7,1.9,2.6,3.1c1.4,1.6,2.6,3.2,3.8,4.8c1.2,1.6,2.3,3,3.2,4.2
		c1,1.3,1.9,2.3,2.7,3.2c0.8,0.8,1.4,1.3,1.9,1.4c0.2,0,0.3,0,0.4,0c0.2,0,0.4-0.2,0.6-0.4c0.2-0.3,0.3-1,0.3-1.9c0-1,0-2.2-0.2-3.7
		c-0.1-1.5-0.3-3.1-0.5-4.9c-0.2-1.8-0.5-3.7-0.8-5.7c-0.3-2.2-0.5-4-0.7-5.2c-0.1-1.4-0.2-2.4,0-3c0.2-0.7,0.8-1.4,2-2
		c1.2-0.6,2.7-1.1,4.2-1.3c1.2-0.2,2.5-0.2,3.7,0.1c1.3,0.2,2.1,0.7,2.6,1.5c0.2,0.4,0.5,1.5,1,3.2c0.4,1.7,0.8,3.9,1.4,6.5
		c0.5,2.6,1.1,5.5,1.6,8.8c0.5,3.3,1,6.6,1.5,10.2c0.7,4.8,1.1,8.9,1.4,12.3c0.3,3.4,0.5,6.1,0.5,8.3c0.1,2.1,0,3.8-0.2,4.9
		c-0.1,1.1-0.3,1.7-0.6,1.8c-1.3,0.8-2.7,1.3-4.2,1.5c-1.4,0.2-2.8,0.1-4.1-0.3c-1.2-0.4-2.3-1.1-3.3-2.1c-0.3-0.3-0.8-0.8-1.4-1.5
		c-0.5-0.7-1.2-1.5-2-2.4C80,69.1,78.6,67.5,77.2,65.9z"/>
	<path fill="#CC4F3D" d="M109.7,19.9c3.5-0.8,7.4-1.5,11.6-2.1c4.2-0.5,8.2-0.9,11.9-1.1c3.7-0.2,6-0.1,6.7,0.2
		c0.9,0.4,1.6,1.1,1.9,2.2c0.5,1,0.7,2.1,0.7,3.2c0.1,1.1,0.1,2.2-0.1,3.2c-0.2,1-0.4,1.6-0.7,2c-0.5,0.5-1.9,0.8-4.2,1
		c-2.3,0.2-4.8,0.4-7.6,0.6c-2.7,0.1-5.3,0.3-7.7,0.6c-2.4,0.2-3.9,0.6-4.5,1.2c-0.4,0.4-0.7,1-0.9,1.9c-0.1,0.8-0.2,1.8-0.1,2.7
		c0.1,0.9,0.3,1.8,0.6,2.7c0.4,0.8,0.7,1.4,1.2,1.8c0.7,0.5,1.7,0.8,3,0.8c1.3-0.1,2.6-0.2,4.1-0.4c1.5-0.2,2.8-0.4,4.1-0.6
		c1.3-0.2,2.3-0.1,3,0.2c0.5,0.2,0.8,0.8,1.1,1.7c0.4,0.9,0.6,1.9,0.6,3.1c0.1,1.1,0.1,2.1-0.1,3.2c-0.1,0.9-0.4,1.6-1,2
		c-0.5,0.4-1.5,0.6-2.7,0.8c-1.2,0.1-2.6,0.2-4,0.3c-1.4,0.1-2.7,0.3-4,0.5c-1.2,0.2-2.1,0.7-2.6,1.3c-0.2,0.4-0.4,1-0.5,1.8
		c0,0.8,0,1.6,0.2,2.5c0.2,0.9,0.5,1.7,0.8,2.5c0.4,0.8,0.8,1.4,1.4,1.8c0.5,0.3,1.7,0.4,3.6,0.2c2-0.2,4.1-0.5,6.4-0.8
		s4.6-0.6,6.7-0.8c2.2-0.3,3.6-0.2,4.4,0.1c0.6,0.2,1.1,0.8,1.5,1.7c0.5,0.8,0.8,1.7,1,2.9c0.2,1,0.3,2,0.2,3.2
		c-0.1,1.1-0.3,1.9-0.8,2.6c-0.6,0.9-2.7,1.7-6.3,2.5c-3.5,0.7-7.4,1.2-11.5,1.6c-4.1,0.4-7.8,0.6-11.3,0.6
		c-3.4-0.1-5.3-0.3-5.7-0.9c-0.4-0.6-1-3.4-1.9-8.4c-0.8-5.1-1.6-10.7-2.4-16.8c-0.8-6.1-1.3-11.8-1.8-17.2c-0.4-5.4-0.5-8.5,0-9.4
		C104.3,21.6,106.2,20.7,109.7,19.9z"/>
	<path fill="#CC4F3D" d="M186.7,47.4c1.4,2.3,3,4.6,4.5,7.1c1.7,2.4,3.1,4.6,4.4,6.6c1.3,2.1,1.9,3.4,1.8,4.2
		c-0.1,0.7-0.7,1.3-1.8,1.9c-1,0.5-2.3,0.9-3.7,1.1c-1.4,0.2-2.7,0.2-4.1,0.1c-1.3-0.2-2.3-0.7-2.9-1.4c-0.6-0.7-1.4-2-2.4-3.7
		c-0.9-1.7-2-3.6-3-5.5c-1-1.9-2-3.7-3-5.3c-0.9-1.6-1.7-2.6-2.2-3.1c-1.1-0.9-2.2-1.2-3.4-1c-1.1,0.1-2,0.5-2.8,1.1
		c-0.6,0.4-0.8,1.7-0.7,3.8c0.1,2,0.3,4.2,0.6,6.5c0.3,2.3,0.4,4.4,0.4,6.4c0.1,1.9-0.3,3.1-1,3.5c-0.7,0.3-1.6,0.6-2.8,0.9
		c-1.1,0.2-2.1,0.3-3.2,0.3s-2-0.1-2.9-0.3c-0.9-0.3-1.5-0.7-1.8-1.1c-0.5-0.8-1.2-3.8-1.9-9c-0.7-5.2-1.4-10.9-2-17
		c-0.6-6.2-0.9-11.9-1.1-17.2c-0.2-5.3,0-8.4,0.5-9.4c0.6-1.1,2.2-2.1,4.6-2.7c2.5-0.8,5.3-1.3,8.3-1.5c3.1-0.3,6.1-0.3,9.1-0.2
		c3.1,0.1,5.4,0.5,7.1,1c1.2,0.4,2.3,1,3.4,1.7c1.2,0.7,2.2,1.5,3.1,2.5c1,1,1.8,2.1,2.3,3.4c0.6,1.2,1,2.6,1.1,4.2
		c0.1,2.5-0.1,4.6-0.8,6.4c-0.7,1.8-1.4,3.4-2.3,4.6c-0.8,1.3-1.6,2.4-2.4,3.3c-0.7,0.8-1,1.6-1.1,2.3
		C184.6,43.2,185.3,45,186.7,47.4z M169.4,37.8c1.5-0.2,3-0.6,4.4-1.4c1.5-0.8,2.6-1.9,3.5-3.4c1-1.5,1.2-3.3,0.8-5.5
		c-0.3-1.8-1.2-3.1-2.6-3.9c-1.3-0.8-2.8-1.4-4.4-1.5c-1.5-0.2-2.9-0.2-4.3,0.2c-1.3,0.3-2.1,0.7-2.3,1.1c-0.4,0.6-0.7,1.7-0.9,3.1
		c-0.1,1.3-0.2,2.7-0.1,4.2c0.1,1.4,0.4,2.7,0.8,4c0.5,1.2,1.1,2,1.8,2.5C166.9,37.8,168,38,169.4,37.8z"/>
	<path fill="#CC4F3D" d="M243.4,44c0.7,2.8,1.1,5.8,1.4,9c0.3,3.1,0.6,6.1,0.6,8.9c0.1,2.7,0.1,4.4-0.1,5.1
		c-0.2,0.7-0.8,1.2-1.8,1.6c-1,0.3-2.1,0.5-3.2,0.5c-1.1,0-2.2,0-3.1-0.2c-1-0.2-1.5-0.4-1.7-0.6c-0.2-0.3-0.4-0.8-0.6-1.3
		c-0.1-0.6-0.3-1.2-0.5-1.7c-0.1-0.6-0.3-1.2-0.5-1.7c-0.1-0.6-0.3-0.9-0.6-1.2c-0.3-0.2-0.7-0.3-1.3-0.2c-0.6,0.1-1.2,0.3-2,0.5
		c-0.7,0.2-1.5,0.5-2.3,0.7c-0.8,0.2-1.5,0.3-2.2,0.4c-3.2,0.2-6.2-0.2-9.2-1.5c-2.9-1.3-5.5-3.1-7.7-5.5c-2.2-2.4-4.1-5.3-5.6-8.7
		c-1.4-3.4-2.3-7.1-2.6-11.1c-0.3-4,0-7.7,0.9-11.2c0.9-3.5,2.3-6.6,4.1-9.1c1.9-2.7,4.1-4.8,6.7-6.3c2.7-1.6,5.6-2.6,8.8-2.8
		c2-0.2,4,0.1,6,0.9c2.1,0.7,3.9,1.7,5.6,2.9c1.8,1.2,3.3,2.5,4.7,4c1.4,1.5,2.4,2.9,3,4.2c0.4,0.8,0.4,1.7,0,2.6
		c-0.4,0.8-1,1.6-1.8,2.3c-0.8,0.7-1.7,1.2-2.8,1.6c-1,0.4-2,0.5-2.9,0.4c-0.4-0.1-0.9-0.3-1.3-0.7c-0.3-0.5-0.6-0.8-0.8-1.1
		c-0.3-0.3-0.7-0.8-1.1-1.3c-0.5-0.6-1-1.1-1.7-1.6c-0.6-0.5-1.5-0.9-2.4-1.2c-0.9-0.4-2-0.5-3.2-0.3c-1.3,0.1-2.5,0.6-3.6,1.5
		c-1.1,0.8-2,2-2.8,3.4c-0.8,1.4-1.3,3-1.7,4.9c-0.4,1.8-0.5,3.7-0.3,5.8c0.2,2,0.6,4,1.1,5.9c0.6,1.8,1.3,3.4,2.2,4.8
		c0.9,1.4,2,2.5,3.1,3.4c1.2,0.8,2.4,1.3,3.6,1.5c0.7,0.1,1.5,0.1,2.3-0.1c0.9-0.2,1.6-0.4,2.3-0.7c0.8-0.3,1.4-0.7,2-1.1
		c0.6-0.4,1-0.8,1.2-1.1c0.2-0.4,0.3-1,0.2-1.8c0-0.9-0.1-1.8-0.2-2.6c-0.1-1-0.1-1.8-0.3-2.6c-0.1-0.8,0-1.3,0.1-1.6
		c0.3-0.5,0.8-1,1.8-1.3c0.9-0.4,1.9-0.6,2.9-0.7c1.1-0.2,2.1-0.2,3.1-0.1c1,0.1,1.7,0.3,2.1,0.7C242.2,39.3,242.9,41.2,243.4,44z"
		/>
	<path fill="#CC4F3D" d="M273.4,46.1c0.3,3.6,0.6,7,0.7,10c0.2,3,0.1,4.6-0.2,4.9c-0.3,0.2-1.1,0.4-2.3,0.6
		c-1.2,0.2-2.5,0.3-3.8,0.5c-1.3,0.1-2.5,0.1-3.6,0c-1-0.1-1.7-0.4-1.9-0.8c-0.1-0.3-0.3-1.9-0.6-4.8c-0.2-2.9-0.5-6.1-0.7-9.6
		c-0.2-3.5-0.4-6.7-0.6-9.6c-0.1-2.9-0.2-4.5-0.3-4.8c0-0.3-0.4-0.9-1.1-2c-0.7-1.1-1.5-2.3-2.4-3.7c-0.9-1.4-1.9-2.8-3-4.2
		c-1-1.5-1.8-2.8-2.4-3.9c-1.8-3-3-5.2-3.9-6.7c-0.7-1.4-1.1-2.4-1.3-2.9c0-0.2,0-0.3,0.1-0.6c0.1-0.3,0.2-0.5,0.3-0.7
		c0.3-0.4,0.8-0.7,1.4-0.9c0.6-0.3,1.3-0.5,1.9-0.6c0.7-0.1,1.4-0.3,2-0.3c0.6-0.1,1.1-0.2,1.4-0.1c0.4,0,1-0.1,1.8,0
		c0.8,0,1.5,0.1,1.9,0.2c0.5,0.2,1.1,0.8,1.8,2c0.7,1.1,1.6,2.9,2.8,5.3c0.5,1.1,1.2,2.4,2.1,3.8c0.9,1.4,1.5,2.3,2,2.7
		c0.2-0.3,0.5-0.7,0.8-1.4c0.3-0.6,0.6-1.3,1-2.1c0.4-0.8,0.7-1.7,1-2.5c0.4-0.9,0.7-1.7,1-2.3c0.9-2.1,1.6-3.6,2.1-4.6
		c0.5-1,0.9-1.6,1.2-1.9c0.3-0.3,0.7-0.4,1.2-0.6c0.5-0.2,1-0.3,1.5-0.4s1-0.2,1.4-0.2c0.4-0.1,0.7-0.1,0.9-0.1c0.5,0,1.1-0.1,1.8,0
		c0.7,0,1.3,0.1,1.9,0.2c0.6,0.1,1.2,0.3,1.6,0.6c0.5,0.2,0.8,0.6,1,1.1c0.1,0.3,0.1,0.8-0.1,1.4c-0.1,0.6-0.4,1.4-0.9,2.4
		c-0.4,1-1,2.2-1.8,3.8c-0.7,1.5-1.6,3.4-2.8,5.6c-0.5,1.1-1.2,2.3-1.9,3.6c-0.7,1.3-1.4,2.7-2.1,3.9c-0.7,1.3-1.2,2.3-1.7,3.3
		c-0.5,0.9-0.7,1.5-0.7,1.8C272.7,37.6,273.1,42.4,273.4,46.1z"/>
	<path fill="#CC4F3D" d="M359.6,22.6c2,1.1,4.2,2.4,6.5,3.9c2.3,1.5,4.4,3.4,6.3,5.7s2.9,5.5,3,9.7c0.1,2.5-0.3,4.6-1.1,6.4
		c-0.8,1.7-1.9,3.2-3.2,4.4c-1.4,1.2-2.9,2.1-4.8,2.8c-1.8,0.7-3.7,1.2-5.7,1.5c-2,0.3-4.2,0.5-6.7,0.7c-2.4,0.1-4.7,0-6.9-0.1
		c-2.1-0.2-4-0.4-5.5-0.7c-1.5-0.4-2.4-0.8-2.7-1.3c-0.4-0.6-0.4-1.2-0.1-1.7c0.3-0.6,0.7-1.1,1.1-1.6c0.5-0.5,0.8-1.1,1.2-1.6
		c0.3-0.5,0.4-1.1,0.1-1.6c-0.3-0.5-1.2-0.9-2.7-1.2c-1.4-0.3-3-0.6-4.7-0.9c-1.6-0.3-3-0.6-4.2-1c-1.2-0.4-1.7-0.9-1.6-1.4
		c0.2-0.6,1.5-1.3,4-2.2c2.5-0.9,5.3-1.6,8.3-2.3c3.1-0.7,6-1.2,8.8-1.5c2.8-0.3,4.5-0.2,5.1,0.3c0.7,0.5,0.9,1.1,0.8,2
		c-0.1,0.8-0.3,1.6-0.6,2.4c-0.3,0.8-0.6,1.5-1,2.3c-0.3,0.7-0.3,1.1,0,1.4c0.3,0.3,0.9,0.4,1.9,0.4c1,0,2.2-0.2,3.3-0.6
		c1.2-0.5,2.2-1.1,3.1-1.9c1-0.9,1.4-2.1,1.4-3.5c-0.1-2.6-1.2-4.5-3.3-5.8c-2.1-1.3-4.4-2.6-6.9-4.1c-2.5-1.5-4.7-3.5-6.8-5.8
		c-2-2.4-2.9-6-2.7-10.9c0.1-1.3,0.4-2.7,1.1-4c0.7-1.4,1.6-2.7,2.7-3.9c1.2-1.3,2.5-2.4,4.1-3.3c1.6-1,3.2-1.7,5.1-2.1
		c2-0.5,3.8-0.7,5.5-0.6c1.7,0,3.2,0.1,4.5,0.4c1.3,0.2,2.4,0.6,3.4,1c1,0.4,1.7,0.7,2.2,1c0.5,0.3,0.8,1,0.9,2.1
		c0.1,1,0,2.1-0.2,3.3c-0.2,1.1-0.5,2.2-1,3.2c-0.4,0.9-0.9,1.4-1.5,1.5c-0.3,0.1-0.8,0-1.4-0.1c-0.5-0.2-1.1-0.3-1.9-0.5
		c-0.7-0.2-1.5-0.3-2.4-0.4c-0.9-0.1-1.9,0-3.1,0.2c-1.6,0.3-3,1.1-3.9,2.5c-0.9,1.2-1.2,2.4-1,3.3C356.4,20,357.6,21.5,359.6,22.6z
		"/>
	<path fill="#CC4F3D" d="M412.4,8.1c2.9,5.3,5.4,11.3,7.4,18c2.1,6.6,3.7,12.9,4.7,18.7c1.1,5.8,1.4,9.2,1,10.1
		c-0.2,0.5-0.9,0.9-2.1,1.2c-1.1,0.3-2.4,0.4-3.8,0.5c-1.3,0-2.6,0-3.9-0.2c-1.2-0.3-2-0.6-2.3-1.1c-0.4-0.7-0.7-1.5-1-2.3
		c-0.2-0.9-0.4-1.7-0.7-2.6c-0.2-0.9-0.4-1.7-0.5-2.4c-0.2-0.8-0.3-1.4-0.5-1.8c-0.3-0.6-1.1-1-2.6-1.2c-1.4-0.3-3-0.4-4.6-0.3
		c-1.6,0-3.2,0.1-4.7,0.3c-1.5,0.2-2.4,0.4-2.7,0.7c-0.3,0.3-0.6,0.9-1,1.7c-0.3,0.8-0.6,1.7-0.9,2.7c-0.3,1-0.5,1.9-0.7,2.8
		c-0.2,0.9-0.4,1.6-0.6,2c-0.3,0.8-1,1.3-2.3,1.6c-1.2,0.3-2.5,0.4-3.9,0.3c-1.4-0.1-2.7-0.4-4-0.8c-1.2-0.5-2-1.1-2.4-1.8
		c-0.3-0.8,0-4.1,1.1-9.8c1.1-5.7,2.7-11.9,4.8-18.4c2.1-6.6,4.7-12.5,7.7-17.8c3-5.4,6.1-8,9.3-8C406.5,0,409.5,2.7,412.4,8.1z
		 M407.9,31.5c-0.4-1.9-0.9-3.8-1.5-5.9s-1.3-4-2-5.7c-0.7-1.7-1.3-2.6-1.7-2.6c-0.4,0-1,0.8-1.8,2.6c-0.7,1.7-1.4,3.6-2.1,5.7
		c-0.6,2.1-1.2,4-1.6,5.9c-0.4,1.8-0.5,3-0.2,3.3c0.3,0.4,1,0.8,2,1c1.1,0.2,2.3,0.3,3.5,0.3c1.3,0,2.5-0.1,3.6-0.4
		c1.1-0.3,1.8-0.7,2.2-1.1C408.5,34.3,408.4,33.3,407.9,31.5z"/>
	<path fill="#CC4F3D" d="M455.7,33.3c1.2-3.5,2.2-7.4,3.2-11.8c1-4.4,2-8.5,2.9-12.4c0.9-3.9,1.5-6.2,2-7c0.5-0.8,1.3-1.3,2.5-1.5
		c1.3-0.3,2.6-0.3,4-0.1c1.4,0.1,2.7,0.4,3.9,0.9c1.2,0.5,2,1.1,2.3,1.9c0.3,0.9-0.2,4.2-1.5,10c-1.3,5.8-3.1,12-5.5,18.6
		c-2.4,6.6-5.1,12.5-8.2,17.9c-3.1,5.3-6.3,7.9-9.6,7.8c-3.3-0.1-6.3-2.9-9-8.4c-2.7-5.5-4.9-11.6-6.8-18.3c-1.8-6.7-3.1-13.1-4-19
		c-0.8-5.9-1-9.4-0.7-10.3c0.2-0.5,0.9-0.9,2.1-1.1c1.2-0.3,2.5-0.4,3.9-0.4c1.4,0,2.7,0.1,3.9,0.4c1.3,0.2,2,0.6,2.3,1.2
		c0.3,0.6,0.7,2.8,1.4,6.8s1.4,8.1,2.3,12.6c0.9,4.5,1.8,8.5,2.8,12.1c1,3.6,2,5.4,3,5.5C453.6,38.5,454.7,36.8,455.7,33.3z"/>
	<path fill="#CC4F3D" d="M485.7,3.2c0.4-0.6,1-1.1,2-1.3c1-0.3,2.1-0.4,3.2-0.3c1.1,0,2.2,0.2,3.2,0.6c1.1,0.3,1.8,0.8,2.2,1.5
		c0.4,0.6,0.6,3.7,0.6,9.1c0,5.4-0.2,11.3-0.4,17.6c-0.2,6.3-0.5,12.2-0.9,17.7c-0.3,5.4-0.7,8.5-1,9.2c-0.2,0.7-0.9,1.2-2,1.5
		c-1.1,0.2-2.1,0.3-3.4,0.3c-1.2-0.1-2.3-0.4-3.4-0.7c-1.1-0.4-1.8-1-2.2-1.6c-0.4-0.6-0.6-3.7-0.6-9.1c0-5.5,0.2-11.4,0.5-17.7
		c0.3-6.4,0.6-12.3,1-17.7C485,6.8,485.4,3.8,485.7,3.2z"/>
	<path fill="#CC4F3D" d="M528.2,46.7c-1-1.8-2-3.4-2.8-4.7c-0.9-1.4-1.7-2.5-2.4-3.3c-0.7-0.8-1.3-1.2-1.8-1.2
		c-0.3,0-0.6,0.1-0.9,0.4c-0.6,0.7-0.9,2-1.1,4.1c-0.2,2.1-0.3,4.8-0.5,8c0,0.9-0.1,1.9-0.1,3.1c0,1.1-0.1,2.1-0.2,3.2
		c0,1-0.1,1.8-0.2,2.5c-0.1,0.7-0.2,1.1-0.3,1.2c-0.3,0.2-1.4,0.3-3.3,0.3c-1.7-0.1-3.4-0.4-5-0.8c-1.6-0.4-2.6-0.9-3-1.3
		c-0.2-0.2-0.3-1-0.4-2.3c-0.1-1.3-0.1-3-0.1-5.2c0-2.2,0.1-4.7,0.2-7.7c0.1-2.9,0.3-6.1,0.5-9.6c0.2-3.4,0.5-6.6,0.7-9.6
		c0.3-3.1,0.5-5.9,0.7-8.3c0.3-2.5,0.6-4.5,0.9-6.1c0.3-1.6,0.6-2.7,0.8-3.1c0.3-0.5,1.2-0.9,2.8-1.3c1.6-0.3,3.2-0.4,5-0.3
		c1.1,0.1,2,0.2,2.5,0.4c0.6,0.2,0.9,0.4,1,0.6c0.4,0.5,0.8,1.2,1.3,2.3c0.6,1,1.3,2.2,2,3.5c1,1.8,1.9,3.6,2.7,5.4
		c0.9,1.8,1.7,3.4,2.3,4.8c0.8,1.4,1.4,2.7,2,3.6c0.6,1,1.2,1.5,1.6,1.7c0.2,0.1,0.3,0.1,0.4,0.1c0.2,0,0.4-0.1,0.7-0.3
		c0.3-0.2,0.5-0.9,0.7-1.8c0.2-1,0.4-2.2,0.6-3.6c0.2-1.5,0.4-3.1,0.5-4.9c0.2-1.8,0.3-3.7,0.4-5.7c0.1-2.2,0.2-4,0.3-5.3
		c0.1-1.4,0.3-2.4,0.6-2.9c0.3-0.7,1.1-1.2,2.4-1.5c1.3-0.4,2.8-0.5,4.4-0.4c1.2,0,2.5,0.3,3.6,0.8c1.2,0.4,2,1.1,2.2,2
		c0.1,0.4,0.3,1.5,0.3,3.4c0.1,1.7,0.1,4,0.1,6.6c0,2.6,0,5.6-0.2,8.9c-0.1,3.3-0.3,6.7-0.5,10.3c-0.3,4.8-0.6,8.9-1,12.4
		c-0.4,3.4-0.7,6.1-1.1,8.3c-0.3,2.1-0.8,3.7-1.2,4.8c-0.3,1-0.7,1.6-1,1.7c-1.5,0.5-3,0.8-4.4,0.7c-1.4-0.1-2.7-0.5-3.9-1.1
		c-1.1-0.7-2.1-1.6-2.8-2.7c-0.2-0.4-0.6-0.9-1.1-1.8c-0.4-0.8-0.9-1.8-1.5-2.7C530.3,50.4,529.2,48.5,528.2,46.7z"/>
	<path fill="#CC4F3D" d="M599.3,46.7c0.2,2.9,0.2,5.9,0,9.1c-0.2,3.2-0.4,6.1-0.8,8.9c-0.3,2.7-0.6,4.4-0.9,5.1
		c-0.3,0.7-1,1.1-2.1,1.3c-1.1,0.1-2.1,0.1-3.2,0c-1.1-0.1-2.1-0.3-3.1-0.6c-0.9-0.3-1.5-0.6-1.6-0.9c-0.1-0.4-0.2-0.8-0.4-1.4
		c0-0.6-0.1-1.2-0.2-1.8c0-0.6-0.1-1.2-0.2-1.8c0-0.6-0.2-1-0.4-1.2c-0.2-0.3-0.6-0.4-1.2-0.4c-0.6,0-1.2,0.1-2,0.2
		c-0.7,0.1-1.5,0.2-2.4,0.3c-0.8,0.1-1.5,0.1-2.2,0c-3.2-0.3-6.1-1.2-8.8-2.9c-2.6-1.7-4.9-3.9-6.8-6.6c-1.8-2.8-3.2-5.9-4.2-9.5
		c-0.8-3.6-1.1-7.4-0.8-11.4c0.3-4,1.2-7.6,2.6-10.9c1.4-3.3,3.3-6.1,5.5-8.4c2.3-2.3,4.8-4.1,7.6-5.2c2.9-1.2,5.9-1.7,9.1-1.4
		c2,0.2,3.9,0.7,5.8,1.8c1.9,1,3.6,2.2,5.1,3.7c1.6,1.4,2.9,3,4,4.7c1.2,1.7,1.9,3.2,2.3,4.6c0.3,0.9,0.1,1.7-0.4,2.6
		c-0.5,0.7-1.2,1.4-2.2,2c-0.9,0.5-1.9,0.9-3,1.2c-1.1,0.2-2.1,0.2-2.9,0c-0.4-0.1-0.8-0.4-1.1-0.9c-0.2-0.5-0.5-0.9-0.6-1.2
		c-0.2-0.4-0.5-0.9-0.9-1.5c-0.4-0.6-0.9-1.2-1.5-1.8c-0.6-0.6-1.3-1.1-2.2-1.6c-0.9-0.5-1.9-0.8-3.1-0.8c-1.3-0.1-2.5,0.2-3.8,1
		c-1.2,0.6-2.3,1.6-3.3,3c-1,1.2-1.8,2.8-2.5,4.6c-0.7,1.7-1,3.6-1.2,5.7c-0.1,2-0.1,4,0.2,6c0.3,1.9,0.8,3.6,1.5,5.1
		c0.7,1.5,1.6,2.8,2.5,3.9c1.1,1,2.2,1.7,3.4,2c0.7,0.2,1.5,0.3,2.3,0.3c0.9,0,1.7-0.1,2.4-0.3c0.8-0.2,1.5-0.5,2.1-0.8
		c0.6-0.3,1.1-0.7,1.3-0.9c0.3-0.4,0.4-1,0.5-1.7c0.1-0.9,0.2-1.8,0.2-2.6c0.1-1,0.1-1.8,0.1-2.6c0.1-0.8,0.2-1.3,0.4-1.5
		c0.3-0.5,1-0.8,2-1c1-0.2,2-0.3,3-0.3c1.1,0,2.1,0.2,3.1,0.4c1,0.3,1.6,0.6,1.9,1C598.8,41.9,599.2,43.8,599.3,46.7z"/>
	<path fill="#CC4F3D" d="M681.2,30.1c-2.9,0-6.1-0.2-9.8-0.6c-0.2,0.7-0.5,1.4-0.9,2.1c-0.3,0.7-0.6,1.5-0.8,2.2
		c-0.2,0.7-0.4,1.4-0.4,2c0,0.6,0.1,1.1,0.3,1.3c0.5,0.5,1.2,0.8,2.1,0.8c1.1-0.1,2.1-0.1,3.1-0.1c1.1-0.1,2.1,0.1,3.1,0.3
		c0.9,0.2,1.6,0.8,1.9,1.9c0.3,1-0.5,3.3-2.4,6.9c-1.9,3.5-4,7.2-6.5,11c-2.5,3.8-4.9,7.1-7.3,10.1c-2.3,2.9-3.9,4.4-4.8,4.3
		c-0.8-0.1-1.2-1-1-2.6c0.2-1.6,0.5-3.5,0.9-5.6c0.5-2.1,0.9-4.1,1.2-6c0.4-2,0.3-3.2-0.2-3.8c-0.5-0.6-1.2-0.8-2-0.6
		c-0.8,0.1-1.6,0.4-2.5,0.7c-0.8,0.2-1.7,0.4-2.5,0.6c-0.8,0.1-1.5-0.2-2-1c-0.5-0.7-0.6-2.2-0.2-4.4c0.4-2.3,1-4.9,1.8-7.7
		c0.9-2.8,1.9-5.5,2.9-8.2c1.2-2.7,2.2-4.6,3.1-6c-3.2-0.6-6.1-1.2-8.5-1.7c-2.3-0.6-3.7-1-4-1.3c-0.5-0.4-0.8-1-1.1-1.8
		c-0.2-0.8-0.3-1.7-0.3-2.6c0.1-1,0.3-1.9,0.7-2.9c0.4-1,1-1.8,1.7-2.4s3.2-0.8,7.3-0.5c4.2,0.3,8.6,0.7,13.3,1.4
		c4.7,0.6,9.1,1.3,13.1,2c4,0.7,6.3,1.2,6.9,1.4c0.6,0.2,1,0.8,1.2,1.5c0.3,0.6,0.4,1.4,0.4,2.4c0,0.9-0.2,1.8-0.7,2.9
		c-0.4,1-1,2-1.9,2.9C685.9,29.6,684.1,30,681.2,30.1z"/>
	<path fill="#CC4F3D" d="M697.8,20.4c0.4-0.6,1.1-1,2.1-1.1c1-0.2,2.1-0.3,3.2-0.1c1.1,0.1,2.2,0.4,3.1,0.9c1,0.4,1.7,0.9,2.1,1.6
		c0.4,0.7,0.3,3.7-0.1,9.1c-0.4,5.4-1,11.2-1.6,17.6c-0.7,6.3-1.4,12.1-2.1,17.6c-0.7,5.4-1.3,8.4-1.7,9.1c-0.3,0.7-1,1.1-2.1,1.3
		c-1.1,0.1-2.2,0.2-3.4,0c-1.2-0.2-2.2-0.5-3.3-1c-1-0.5-1.7-1.1-2.1-1.7c-0.4-0.7-0.3-3.7,0.1-9.1c0.4-5.4,1-11.3,1.7-17.6
		c0.8-6.4,1.5-12.3,2.2-17.6C696.8,23.9,697.4,21,697.8,20.4z"/>
	<path fill="#CC4F3D" d="M757.7,34.8c1.5,2.8,1.9,6.4,1.3,10.7c-0.3,2.4-1,4.7-2,7.1c-0.9,2.3-2.4,4.3-4.5,6c-2,1.6-4.7,2.8-8,3.6
		c-3.3,0.7-7.5,0.7-12.7-0.2c-1.2-0.2-2.1,0.6-2.6,2.3c-0.5,1.7-0.9,3.6-1.2,5.7c-0.3,2.1-0.6,4.1-1,6.1c-0.3,1.9-0.9,2.9-1.7,3.1
		c-0.9,0.1-1.9,0.3-3,0.3c-1.1-0.1-2.2-0.2-3.3-0.4c-1.1-0.3-2-0.6-2.8-1c-0.8-0.5-1.3-1-1.6-1.6c-0.4-0.9-0.3-4,0.1-9.1
		c0.5-5.1,1.1-10.7,1.9-16.7c0.8-6,1.8-11.5,2.8-16.6c1-5.2,1.9-8.2,2.7-9c0.9-1,2.7-1.6,5.3-1.8c2.7-0.1,5.6,0,8.7,0.5
		c3.2,0.4,6.3,1.1,9.3,2s5.3,1.7,6.9,2.8C754.5,29.8,756.3,31.9,757.7,34.8z M735.2,49.6c1.2,0,2.5-0.3,3.9-0.8
		c1.4-0.5,2.7-1.3,3.8-2.3c1.2-1.1,1.9-2.4,2-4c0.2-1.5-0.2-2.6-1.1-3.5c-0.8-0.9-1.9-1.5-3.2-1.9c-1.2-0.4-2.4-0.6-3.6-0.6
		c-1.1,0-2,0.1-2.5,0.5c-0.4,0.4-0.9,1.1-1.3,2.3c-0.3,1.1-0.6,2.4-0.8,3.7c-0.2,1.3-0.2,2.6-0.2,3.8c0.1,1.2,0.3,1.9,0.6,2.3
		C733.3,49.5,734.1,49.6,735.2,49.6z"/>
	<path fill="#CC4F3D" d="M798.8,39.4c-0.1,1-0.5,2.1-1,3.2c-0.4,1.1-1,2-1.7,2.9c-0.6,0.8-1.2,1.2-1.8,1.1c-0.4,0-1-0.2-1.7-0.6
		c-0.7-0.4-1.5-0.8-2.5-1.2c-0.9-0.4-1.8-0.8-2.8-1.1c-1-0.3-1.9-0.4-2.8-0.3c-1.7,0.2-2.9,0.9-3.6,2c-0.7,1.1-1,2.1-1,3.1
		c0,1.8,0.9,3.3,2.6,4.8c1.8,1.4,3.6,3,5.5,4.9c2,1.8,3.6,4,5,6.6c1.4,2.6,1.7,5.8,0.9,9.9c-0.5,2.5-1.3,4.5-2.6,6.2
		c-1.2,1.6-2.6,2.9-4.3,3.9c-1.6,0.9-3.4,1.6-5.4,1.9c-1.9,0.3-3.8,0.4-5.8,0.3c-0.9-0.1-1.9-0.3-3.1-0.5c-1.1-0.3-2.3-0.5-3.5-0.8
		c-1.2-0.3-2.3-0.7-3.4-1c-1.1-0.4-2-0.7-2.8-1.1c-0.8-0.3-1.2-1.1-1.3-2.4c0-1.2,0.2-2.5,0.5-3.8c0.4-1.3,0.9-2.5,1.5-3.5
		c0.6-1,1.3-1.5,1.9-1.4s1.2,0.3,2,0.5c0.8,0.2,1.6,0.5,2.5,0.8c0.9,0.3,1.8,0.5,2.8,0.8c1,0.2,1.9,0.3,2.8,0.4
		c1.5,0.1,2.6-0.2,3.5-0.8c0.9-0.7,1.5-1.9,1.8-3.8c0.4-2.6-0.2-4.6-2-6.1c-1.7-1.5-3.6-3.1-5.7-4.8c-2-1.7-3.7-3.9-5-6.4
		c-1.3-2.6-1.4-6.2-0.1-10.9c0.4-1.3,1-2.5,1.9-3.7c1-1.2,2.2-2.3,3.5-3.2c1.4-1,3-1.7,4.7-2.3c1.8-0.6,3.5-1,5.4-1
		c2,0,3.9,0.1,5.5,0.6c1.7,0.4,3.1,0.8,4.3,1.4c1.2,0.5,2.3,1.1,3.1,1.7c0.9,0.6,1.5,1,1.9,1.4C798.8,37.6,798.9,38.3,798.8,39.4z"
		/>
</g>
</svg>
