<?xml version="1.0" encoding="utf-8"?>
<!-- Generator: Adobe Illustrator 18.1.1, SVG Export Plug-In . SVG Version: 6.00 Build 0)  -->
<!DOCTYPE svg PUBLIC "-//W3C//DTD SVG 1.1//EN" "http://www.w3.org/Graphics/SVG/1.1/DTD/svg11.dtd">
<svg version="1.1" id="Layer_1" xmlns="http://www.w3.org/2000/svg" xmlns:xlink="http://www.w3.org/1999/xlink" x="0px" y="0px"
	 viewBox="0 0 211.8 293.2" enable-background="new 0 0 211.8 293.2" xml:space="preserve">
<g>
	<rect x="6.6" y="99" fill="#FFFFFF" width="200.3" height="194.2"/>
	<rect x="0" y="97" fill="#F0F0F0" width="211.8" height="21.2"/>
	<g>
		<g>
			<g>
				<linearGradient id="SVGID_1_" gradientUnits="userSpaceOnUse" x1="49.4397" y1="275.4392" x2="119.7642" y2="216.4299">
					<stop  offset="0" style="stop-color:#C5EDE8"/>
					<stop  offset="0.1638" style="stop-color:#FBFEFD"/>
					<stop  offset="0.341" style="stop-color:#DEF5F2"/>
					<stop  offset="0.5418" style="stop-color:#FFFFFF"/>
					<stop  offset="0.8907" style="stop-color:#D8F3EF"/>
					<stop  offset="0.8968" style="stop-color:#C9EEE9"/>
					<stop  offset="1" style="stop-color:#C5EDE8"/>
				</linearGradient>
				
					<rect x="62.2" y="201.2" fill="url(#SVGID_1_)" stroke="#E8E8E8" stroke-width="4.0039" stroke-miterlimit="10" width="44.8" height="89.5"/>
				<linearGradient id="SVGID_2_" gradientUnits="userSpaceOnUse" x1="165.5316" y1="225.0585" x2="93.2147" y2="266.8106">
					<stop  offset="0" style="stop-color:#C5EDE8"/>
					<stop  offset="0.1638" style="stop-color:#FBFEFD"/>
					<stop  offset="0.341" style="stop-color:#DEF5F2"/>
					<stop  offset="0.5418" style="stop-color:#FFFFFF"/>
					<stop  offset="0.8907" style="stop-color:#D8F3EF"/>
					<stop  offset="0.8968" style="stop-color:#C9EEE9"/>
					<stop  offset="1" style="stop-color:#C5EDE8"/>
				</linearGradient>
				
					<rect x="107" y="201.2" fill="url(#SVGID_2_)" stroke="#E8E8E8" stroke-width="4.0039" stroke-miterlimit="10" width="44.8" height="89.5"/>
				
					<rect x="151.8" y="201.2" fill="#68BCC2" stroke="#E8E8E8" stroke-width="4.0039" stroke-miterlimit="10" width="44.8" height="89.5"/>
				
					<rect x="17.4" y="201.2" fill="#68BCC2" stroke="#E8E8E8" stroke-width="4.0039" stroke-miterlimit="10" width="44.8" height="89.5"/>
			</g>
			<g>
				<rect x="64.2" y="202.9" fill="#FFFFFF" width="40.5" height="40.5"/>
				<g>
					
						<rect x="81.4" y="212.4" transform="matrix(1 -4.514792e-03 4.514792e-03 1 -1.0037 0.3842)" opacity="0.6" fill="#07C999" width="6.3" height="20.2"/>
					
						<rect x="81.5" y="212.4" transform="matrix(4.514754e-03 1 -1 4.514754e-03 306.7285 136.9051)" opacity="0.6" fill="#07C999" width="6.1" height="20.2"/>
				</g>
				<rect x="109.1" y="202.9" fill="#FFFFFF" width="40.5" height="40.5"/>
				<g>
					
						<rect x="126.4" y="212.4" transform="matrix(1 -4.514792e-03 4.514792e-03 1 -1.0033 0.5871)" opacity="0.6" fill="#07C999" width="6.3" height="20.2"/>
					
						<rect x="126.5" y="212.4" transform="matrix(4.514754e-03 1 -1 4.514754e-03 351.4561 91.975)" opacity="0.6" fill="#07C999" width="6.1" height="20.2"/>
				</g>
				<rect x="62.2" y="243.5" fill="#E8E8E8" width="44.8" height="8.7"/>
				<rect x="106.1" y="243.5" fill="#E8E8E8" width="44.8" height="8.7"/>
			</g>
		</g>
		<g>
			<g>
				<g>
					
						<path fill="#FF0010" stroke="#FF0000" stroke-width="0.88" stroke-linecap="round" stroke-linejoin="round" stroke-miterlimit="10" d="
						M92.4,170.7c0.4,0,0.9,0,1.3,0.1c0.4,0.1,0.9,0.3,1.4,0.5v1.4c-0.5-0.3-0.9-0.5-1.3-0.6c-0.4-0.1-0.8-0.2-1.3-0.2
						c-0.5,0-1,0.1-1.5,0.3c-0.4,0.2-0.8,0.5-1,1c-0.2,0.4-0.4,0.9-0.4,1.4c0,0.5,0.1,1,0.4,1.4c0.2,0.4,0.6,0.7,1,0.9
						s0.9,0.3,1.5,0.3c0.4,0,0.8-0.1,1.2-0.2c0.4-0.1,0.9-0.3,1.5-0.7v1.4c-0.5,0.3-1,0.4-1.4,0.6s-0.9,0.2-1.5,0.2
						c-0.8,0-1.5-0.2-2.2-0.5c-0.6-0.3-1.1-0.8-1.5-1.4c-0.4-0.6-0.5-1.3-0.5-2c0-0.8,0.2-1.5,0.6-2.1c0.4-0.6,0.9-1.1,1.6-1.4
						C90.9,170.9,91.6,170.7,92.4,170.7z"/>
					
						<path fill="#FF0010" stroke="#FF0000" stroke-width="0.88" stroke-linecap="round" stroke-linejoin="round" stroke-miterlimit="10" d="
						M98.3,170.8v6.5h3.7v1.2h-5.2v-7.7H98.3z"/>
					
						<path fill="#FF0010" stroke="#FF0000" stroke-width="0.88" stroke-linecap="round" stroke-linejoin="round" stroke-miterlimit="10" d="
						M104.6,170.8v7.7h-1.5v-7.7H104.6z"/>
					
						<path fill="#FF0010" stroke="#FF0000" stroke-width="0.88" stroke-linecap="round" stroke-linejoin="round" stroke-miterlimit="10" d="
						M107.8,170.8l4.6,5.4v-5.4h1.5v7.7h-1.3l-4.6-5.5v5.5h-1.5v-7.7H107.8z"/>
					
						<path fill="#FF0010" stroke="#FF0000" stroke-width="0.88" stroke-linecap="round" stroke-linejoin="round" stroke-miterlimit="10" d="
						M117.3,170.8v7.7h-1.5v-7.7H117.3z"/>
					
						<path fill="#FF0010" stroke="#FF0000" stroke-width="0.88" stroke-linecap="round" stroke-linejoin="round" stroke-miterlimit="10" d="
						M123.1,170.7c0.4,0,0.9,0,1.3,0.1s0.9,0.3,1.4,0.5v1.4c-0.5-0.3-0.9-0.5-1.3-0.6c-0.4-0.1-0.8-0.2-1.3-0.2
						c-0.5,0-1,0.1-1.5,0.3s-0.8,0.5-1,1c-0.2,0.4-0.4,0.9-0.4,1.4c0,0.5,0.1,1,0.4,1.4c0.2,0.4,0.6,0.7,1,0.9
						c0.4,0.2,0.9,0.3,1.5,0.3c0.4,0,0.8-0.1,1.2-0.2c0.4-0.1,0.9-0.3,1.5-0.7v1.4c-0.5,0.3-1,0.4-1.4,0.6c-0.4,0.1-0.9,0.2-1.5,0.2
						c-0.8,0-1.5-0.2-2.2-0.5c-0.6-0.3-1.1-0.8-1.5-1.4c-0.4-0.6-0.5-1.3-0.5-2c0-0.8,0.2-1.5,0.6-2.1s0.9-1.1,1.6-1.4
						C121.6,170.9,122.3,170.7,123.1,170.7z"/>
				</g>
			</g>
			<g>
				
					<path fill="#FF0010" stroke="#FF0000" stroke-width="0.88" stroke-linecap="round" stroke-linejoin="round" stroke-miterlimit="10" d="
					M110.1,138.8v10.7h10.7v6.1h-10.7v10.7h-6.1v-10.7H93.2v-6.1h10.7v-10.7H110.1z"/>
			</g>
			
				<rect x="17.4" y="127.3" fill="none" stroke="#E8E8E8" stroke-width="4.0039" stroke-miterlimit="10" width="179.1" height="63.6"/>
		</g>
	</g>
</g>
</svg>
