<?xml version="1.0" encoding="utf-8"?>
<!-- Generator: Adobe Illustrator 18.1.1, SVG Export Plug-In . SVG Version: 6.00 Build 0)  -->
<!DOCTYPE svg PUBLIC "-//W3C//DTD SVG 1.1//EN" "http://www.w3.org/Graphics/SVG/1.1/DTD/svg11.dtd">
<svg version="1.1" id="Layer_1" xmlns="http://www.w3.org/2000/svg" xmlns:xlink="http://www.w3.org/1999/xlink" x="0px" y="0px"
	 viewBox="0 0 199.5 293.2" enable-background="new 0 0 199.5 293.2" xml:space="preserve">
<g>
	<rect x="0" y="43.8" fill="#C46857" width="199.5" height="249.4"/>
	<path opacity="0.1" d="M52,112.9H21.4c-0.7,0-1.2-0.5-1.2-1.2V59.4c0-0.7,0.5-1.2,1.2-1.2H52c0.7,0,1.2,0.5,1.2,1.2v52.3
		C53.2,112.4,52.6,112.9,52,112.9z"/>
	<path opacity="0.1" d="M181.3,112.9h-30.6c-0.7,0-1.2-0.5-1.2-1.2V59.4c0-0.7,0.5-1.2,1.2-1.2h30.6c0.7,0,1.2,0.5,1.2,1.2v52.3
		C182.5,112.4,182,112.9,181.3,112.9z"/>
	<path opacity="0.1" d="M52,184H21.4c-0.7,0-1.2-0.5-1.2-1.2v-52.3c0-0.7,0.5-1.2,1.2-1.2H52c0.7,0,1.2,0.5,1.2,1.2v52.3
		C53.2,183.5,52.6,184,52,184z"/>
	<path opacity="0.1" d="M95.1,184H64.5c-0.7,0-1.2-0.5-1.2-1.2v-52.3c0-0.7,0.5-1.2,1.2-1.2h30.6c0.7,0,1.2,0.5,1.2,1.2v52.3
		C96.3,183.5,95.8,184,95.1,184z"/>
	<path opacity="0.1" d="M159.6,206.5h21.3c0.7,0,1.2,0.5,1.2,1.2V260c0,0.7-0.5,1.2-1.2,1.2h-21.3c-0.7,0-1.2-0.5-1.2-1.2v-52.3
		C158.4,207,158.9,206.5,159.6,206.5z"/>
	<path opacity="0.1" d="M21.4,206.5h21.3c0.7,0,1.2,0.5,1.2,1.2V260c0,0.7-0.5,1.2-1.2,1.2H21.4c-0.7,0-1.2-0.5-1.2-1.2v-52.3
		C20.2,207,20.7,206.5,21.4,206.5z"/>
	<path opacity="0.1" d="M138.2,184h-30.6c-0.7,0-1.2-0.5-1.2-1.2v-52.3c0-0.7,0.5-1.2,1.2-1.2h30.6c0.7,0,1.2,0.5,1.2,1.2v52.3
		C139.4,183.5,138.9,184,138.2,184z"/>
	<path opacity="0.1" d="M95.1,112.9H64.5c-0.7,0-1.2-0.5-1.2-1.2V59.4c0-0.7,0.5-1.2,1.2-1.2h30.6c0.7,0,1.2,0.5,1.2,1.2v52.3
		C96.3,112.4,95.8,112.9,95.1,112.9z"/>
	<path opacity="0.1" d="M138.2,112.9h-30.6c-0.7,0-1.2-0.5-1.2-1.2V59.4c0-0.7,0.5-1.2,1.2-1.2h30.6c0.7,0,1.2,0.5,1.2,1.2v52.3
		C139.4,112.4,138.9,112.9,138.2,112.9z"/>
	<path opacity="0.1" d="M181.3,184h-30.6c-0.7,0-1.2-0.5-1.2-1.2v-52.3c0-0.7,0.5-1.2,1.2-1.2h30.6c0.7,0,1.2,0.5,1.2,1.2v52.3
		C182.5,183.5,182,184,181.3,184z"/>
	<g>
		<path fill="#2FAB9B" d="M179.2,32.5H19.8c-1.6,0-2.8-1.3-2.8-2.8V2.8C17,1.3,18.2,0,19.8,0h159.4c1.6,0,2.8,1.3,2.8,2.8v26.8
			C182.1,31.2,180.8,32.5,179.2,32.5z"/>
		<line fill="none" stroke="#E6C634" stroke-width="3" stroke-miterlimit="10" x1="40" y1="43.9" x2="40" y2="32.9"/>
		<line fill="none" stroke="#E6C634" stroke-width="3" stroke-miterlimit="10" x1="160" y1="43.9" x2="160" y2="32.9"/>
		<g>
			
				<path fill="#FFFFFF" stroke="#FFFFFF" stroke-width="1.6969" stroke-linecap="round" stroke-linejoin="round" stroke-miterlimit="10" d="
				M48.2,8.8v2.2h-5.3v12.6H40V11.1h-5.3V8.8H48.2z"/>
			
				<path fill="#FFFFFF" stroke="#FFFFFF" stroke-width="1.6969" stroke-linecap="round" stroke-linejoin="round" stroke-miterlimit="10" d="
				M53.1,8.8v6.3h7.7V8.8h2.9v14.9h-2.9v-6.3h-7.7v6.3h-2.9V8.8H53.1z"/>
			
				<path fill="#FFFFFF" stroke="#FFFFFF" stroke-width="1.6969" stroke-linecap="round" stroke-linejoin="round" stroke-miterlimit="10" d="
				M76.8,8.8v2.2h-6.7V15h6.4v2.2h-6.4v4.2H77v2.2h-9.8V8.8H76.8z"/>
			
				<path fill="#FFFFFF" stroke="#FFFFFF" stroke-width="1.6969" stroke-linecap="round" stroke-linejoin="round" stroke-miterlimit="10" d="
				M93.3,8.6c1.5,0,2.9,0.3,4.2,1s2.2,1.6,2.9,2.7c0.7,1.2,1.1,2.5,1.1,3.9c0,1.4-0.4,2.7-1.1,3.9c-0.7,1.2-1.7,2.1-2.9,2.8
				c-1.2,0.7-2.6,1-4.2,1c-1.5,0-2.9-0.3-4.2-1c-1.3-0.7-2.2-1.6-2.9-2.8c-0.7-1.2-1.1-2.5-1.1-3.9c0-1.4,0.4-2.6,1.1-3.8
				c0.7-1.2,1.7-2.1,2.9-2.8C90.3,9,91.7,8.6,93.3,8.6z M88.1,16.3c0,1,0.2,1.9,0.7,2.7c0.4,0.8,1.1,1.4,1.9,1.8s1.7,0.6,2.7,0.6
				c1.5,0,2.8-0.5,3.8-1.4s1.5-2.2,1.5-3.7c0-1-0.2-1.9-0.7-2.7s-1.1-1.4-1.9-1.8c-0.8-0.4-1.7-0.6-2.7-0.6c-1,0-1.9,0.2-2.7,0.7
				c-0.8,0.4-1.4,1-1.9,1.8C88.3,14.4,88.1,15.3,88.1,16.3z"/>
			
				<path fill="#FFFFFF" stroke="#FFFFFF" stroke-width="1.6969" stroke-linecap="round" stroke-linejoin="round" stroke-miterlimit="10" d="
				M113.4,8.8v2.2h-6.2v3.8h6.2v2.3h-6.2v6.5h-2.9V8.8H113.4z"/>
			
				<path fill="#FFFFFF" stroke="#FFFFFF" stroke-width="1.6969" stroke-linecap="round" stroke-linejoin="round" stroke-miterlimit="10" d="
				M125.2,8.8v2.2H119v3.8h6.2v2.3H119v6.5h-2.9V8.8H125.2z"/>
			
				<path fill="#FFFFFF" stroke="#FFFFFF" stroke-width="1.6969" stroke-linecap="round" stroke-linejoin="round" stroke-miterlimit="10" d="
				M130.9,8.8v14.9h-2.9V8.8H130.9z"/>
			
				<path fill="#FFFFFF" stroke="#FFFFFF" stroke-width="1.6969" stroke-linecap="round" stroke-linejoin="round" stroke-miterlimit="10" d="
				M142.2,8.6c0.8,0,1.7,0.1,2.5,0.3c0.8,0.2,1.7,0.5,2.6,1v2.7c-0.9-0.5-1.8-0.9-2.5-1.1c-0.8-0.2-1.6-0.4-2.4-0.4
				c-1.1,0-2,0.2-2.9,0.7c-0.9,0.4-1.5,1.1-2,1.8c-0.5,0.8-0.7,1.7-0.7,2.7c0,1,0.2,1.9,0.7,2.7s1.1,1.4,2,1.8
				c0.9,0.4,1.8,0.6,2.9,0.6c0.8,0,1.6-0.1,2.3-0.4c0.7-0.2,1.7-0.7,2.8-1.3v2.7c-1,0.5-1.9,0.9-2.7,1.1s-1.8,0.3-2.8,0.3
				c-1.6,0-3-0.3-4.2-0.9c-1.2-0.6-2.2-1.5-2.9-2.7c-0.7-1.2-1.1-2.5-1.1-3.9c0-1.5,0.4-2.8,1.1-4c0.7-1.2,1.7-2.1,3-2.8
				C139.1,9,140.6,8.6,142.2,8.6z"/>
			
				<path fill="#FFFFFF" stroke="#FFFFFF" stroke-width="1.6969" stroke-linecap="round" stroke-linejoin="round" stroke-miterlimit="10" d="
				M160,8.8v2.2h-6.7V15h6.4v2.2h-6.4v4.2h6.9v2.2h-9.8V8.8H160z"/>
		</g>
	</g>
	<g>
		<rect x="57.2" y="198" opacity="0.2" fill="#314240" width="85.1" height="95.2"/>
		<linearGradient id="SVGID_1_" gradientUnits="userSpaceOnUse" x1="47.1833" y1="275.6105" x2="114.2839" y2="219.3064">
			<stop  offset="0" style="stop-color:#C5EDE8"/>
			<stop  offset="0.1638" style="stop-color:#FBFEFD"/>
			<stop  offset="0.341" style="stop-color:#DEF5F2"/>
			<stop  offset="0.5418" style="stop-color:#FFFFFF"/>
			<stop  offset="0.8907" style="stop-color:#D8F3EF"/>
			<stop  offset="0.8968" style="stop-color:#C9EEE9"/>
			<stop  offset="1" style="stop-color:#C5EDE8"/>
		</linearGradient>
		<rect x="61.9" y="201.8" fill="url(#SVGID_1_)" width="37.7" height="91.4"/>
		<linearGradient id="SVGID_2_" gradientUnits="userSpaceOnUse" x1="152.3197" y1="227.88" x2="84.4981" y2="267.0369">
			<stop  offset="0" style="stop-color:#C5EDE8"/>
			<stop  offset="0.1638" style="stop-color:#FBFEFD"/>
			<stop  offset="0.341" style="stop-color:#DEF5F2"/>
			<stop  offset="0.5418" style="stop-color:#FFFFFF"/>
			<stop  offset="0.8907" style="stop-color:#D8F3EF"/>
			<stop  offset="0.8968" style="stop-color:#C9EEE9"/>
			<stop  offset="1" style="stop-color:#C5EDE8"/>
		</linearGradient>
		<rect x="99.6" y="201.8" fill="url(#SVGID_2_)" width="37.7" height="91.4"/>
		
			<line fill="none" stroke="#E6C634" stroke-width="4" stroke-linecap="round" stroke-linejoin="round" stroke-miterlimit="10" x1="89.5" y1="239.9" x2="89.5" y2="256.9"/>
		
			<line fill="none" stroke="#E6C634" stroke-width="4" stroke-linecap="round" stroke-linejoin="round" stroke-miterlimit="10" x1="108.5" y1="239.9" x2="108.5" y2="256.9"/>
	</g>
</g>
</svg>
