<?xml version="1.0" encoding="utf-8"?>
<!-- Generator: Adobe Illustrator 18.1.1, SVG Export Plug-In . SVG Version: 6.00 Build 0)  -->
<!DOCTYPE svg PUBLIC "-//W3C//DTD SVG 1.1//EN" "http://www.w3.org/Graphics/SVG/1.1/DTD/svg11.dtd">
<svg version="1.1" id="Layer_1" xmlns="http://www.w3.org/2000/svg" xmlns:xlink="http://www.w3.org/1999/xlink" x="0px" y="0px"
	 viewBox="0 0 200.8 293.2" enable-background="new 0 0 200.8 293.2" xml:space="preserve">
<g>
	<rect x="0.4" y="94.9" fill="#354B5E" width="199.9" height="198.3"/>
	<g>
		<g>
			<polygon fill="#FFFFFF" points="78.3,292.9 78.3,202.9 121.3,202.9 121.3,292.8 			"/>
		</g>
		<circle fill="#485D78" cx="111.1" cy="257.4" r="4"/>
	</g>
	<g>
		<g>
			<path fill="#FFFFFF" d="M57.8,213v41.4H22.2V213H57.8 M65.9,204.9H14.1v57.6h51.8V204.9L65.9,204.9z"/>
		</g>
		
			<rect x="14.1" y="204.9" fill="none" stroke="#485D78" stroke-width="3.6002" stroke-miterlimit="10" width="51.8" height="57.6"/>
		<line fill="none" stroke="#FFFFFF" stroke-width="1.4782" stroke-miterlimit="10" x1="40" y1="257.4" x2="40" y2="210.1"/>
		<line fill="none" stroke="#FFFFFF" stroke-width="1.4782" stroke-miterlimit="10" x1="18.7" y1="232.8" x2="61.2" y2="232.8"/>
	</g>
	<g>
		<g>
			<path fill="#FFFFFF" d="M178.5,213v41.4h-35.6V213H178.5 M186.6,204.9h-51.8v57.6h51.8V204.9L186.6,204.9z"/>
		</g>
		
			<rect x="134.8" y="204.9" fill="none" stroke="#485D78" stroke-width="3.6002" stroke-miterlimit="10" width="51.8" height="57.6"/>
		<line fill="none" stroke="#FFFFFF" stroke-width="1.4782" stroke-miterlimit="10" x1="160.7" y1="257.4" x2="160.7" y2="210.1"/>
		<line fill="none" stroke="#FFFFFF" stroke-width="1.4782" stroke-miterlimit="10" x1="139.4" y1="232.8" x2="181.9" y2="232.8"/>
	</g>
	<g>
		<linearGradient id="SVGID_1_" gradientUnits="userSpaceOnUse" x1="100.3892" y1="136.2004" x2="100.3892" y2="77.6121">
			<stop  offset="4.454688e-02" style="stop-color:#FFE391"/>
			<stop  offset="4.848437e-02" style="stop-color:#D8B16C"/>
			<stop  offset="1" style="stop-color:#FFD369"/>
		</linearGradient>
		<polygon fill="url(#SVGID_1_)" points="0.4,136.2 66,136.2 66,118.3 124.1,118.3 124.1,136.2 200.4,136.2 200.4,77.6 0.4,77.6 		
			"/>
		<g>
			
				<rect x="124.1" y="124.7" opacity="3.000000e-02" fill="none" stroke="#000000" stroke-width="0.803" stroke-miterlimit="10" width="13.5" height="9.4"/>
			
				<rect x="151.1" y="124.7" opacity="3.000000e-02" fill="none" stroke="#000000" stroke-width="0.803" stroke-miterlimit="10" width="13.5" height="9.4"/>
			
				<rect x="177.7" y="124.7" opacity="3.000000e-02" fill="none" stroke="#000000" stroke-width="0.803" stroke-miterlimit="10" width="13.5" height="9.4"/>
			
				<rect x="129.4" y="115.3" opacity="3.000000e-02" fill="none" stroke="#000000" stroke-width="0.803" stroke-miterlimit="10" width="13.5" height="9.4"/>
			
				<rect x="124.1" y="115.3" opacity="3.000000e-02" fill="none" stroke="#000000" stroke-width="0.531" stroke-miterlimit="10" width="5.9" height="9.4"/>
			
				<rect x="137.6" y="124.7" opacity="3.000000e-02" fill="none" stroke="#000000" stroke-width="0.803" stroke-miterlimit="10" width="13.5" height="9.4"/>
			
				<rect x="164.3" y="124.7" opacity="3.000000e-02" fill="none" stroke="#000000" stroke-width="0.803" stroke-miterlimit="10" width="13.5" height="9.4"/>
			
				<rect x="191.2" y="124.7" opacity="3.000000e-02" fill="none" stroke="#000000" stroke-width="0.803" stroke-miterlimit="10" width="9.2" height="9.4"/>
			
				<rect x="142.9" y="115.3" opacity="3.000000e-02" fill="none" stroke="#000000" stroke-width="0.803" stroke-miterlimit="10" width="13.5" height="9.4"/>
			
				<rect x="169.8" y="115.3" opacity="3.000000e-02" fill="none" stroke="#000000" stroke-width="0.803" stroke-miterlimit="10" width="13.5" height="9.4"/>
			
				<rect x="156.3" y="115.3" opacity="3.000000e-02" fill="none" stroke="#000000" stroke-width="0.803" stroke-miterlimit="10" width="13.5" height="9.4"/>
			
				<rect x="183.2" y="115.3" opacity="3.000000e-02" fill="none" stroke="#000000" stroke-width="0.803" stroke-miterlimit="10" width="13.5" height="9.4"/>
			
				<rect x="196.7" y="115.3" opacity="3.000000e-02" fill="none" stroke="#000000" stroke-width="0.803" stroke-miterlimit="10" width="3.6" height="9.4"/>
			
				<rect x="124.1" y="105.8" opacity="3.000000e-02" fill="none" stroke="#000000" stroke-width="0.803" stroke-miterlimit="10" width="13.5" height="9.4"/>
			
				<rect x="151.1" y="105.8" opacity="3.000000e-02" fill="none" stroke="#000000" stroke-width="0.803" stroke-miterlimit="10" width="13.5" height="9.4"/>
			
				<rect x="177.7" y="105.8" opacity="3.000000e-02" fill="none" stroke="#000000" stroke-width="0.803" stroke-miterlimit="10" width="13.5" height="9.4"/>
			
				<rect x="129.4" y="96.4" opacity="3.000000e-02" fill="none" stroke="#000000" stroke-width="0.803" stroke-miterlimit="10" width="13.5" height="9.4"/>
			
				<rect x="113" y="96.4" opacity="3.000000e-02" fill="none" stroke="#000000" stroke-width="0.9038" stroke-miterlimit="10" width="17" height="9.4"/>
			
				<rect x="137.6" y="105.8" opacity="3.000000e-02" fill="none" stroke="#000000" stroke-width="0.803" stroke-miterlimit="10" width="13.5" height="9.4"/>
			
				<rect x="164.3" y="105.8" opacity="3.000000e-02" fill="none" stroke="#000000" stroke-width="0.803" stroke-miterlimit="10" width="13.5" height="9.4"/>
			
				<rect x="191.2" y="105.8" opacity="3.000000e-02" fill="none" stroke="#000000" stroke-width="0.803" stroke-miterlimit="10" width="9.2" height="9.4"/>
			
				<rect x="142.9" y="96.4" opacity="3.000000e-02" fill="none" stroke="#000000" stroke-width="0.803" stroke-miterlimit="10" width="13.5" height="9.4"/>
			
				<rect x="169.8" y="96.4" opacity="3.000000e-02" fill="none" stroke="#000000" stroke-width="0.803" stroke-miterlimit="10" width="13.5" height="9.4"/>
			
				<rect x="156.3" y="96.4" opacity="3.000000e-02" fill="none" stroke="#000000" stroke-width="0.803" stroke-miterlimit="10" width="13.5" height="9.4"/>
			
				<rect x="183.2" y="96.4" opacity="3.000000e-02" fill="none" stroke="#000000" stroke-width="0.803" stroke-miterlimit="10" width="13.5" height="9.4"/>
			
				<rect x="196.7" y="96.4" opacity="3.000000e-02" fill="none" stroke="#000000" stroke-width="0.803" stroke-miterlimit="10" width="3.6" height="9.4"/>
			
				<rect x="124.1" y="87" opacity="3.000000e-02" fill="none" stroke="#000000" stroke-width="0.803" stroke-miterlimit="10" width="13.5" height="9.4"/>
			
				<rect x="151.1" y="87" opacity="3.000000e-02" fill="none" stroke="#000000" stroke-width="0.803" stroke-miterlimit="10" width="13.5" height="9.4"/>
			
				<rect x="177.7" y="87" opacity="3.000000e-02" fill="none" stroke="#000000" stroke-width="0.803" stroke-miterlimit="10" width="13.5" height="9.4"/>
			
				<rect x="129.4" y="77.6" opacity="3.000000e-02" fill="none" stroke="#000000" stroke-width="0.803" stroke-miterlimit="10" width="13.5" height="9.4"/>
			
				<rect x="113" y="77.6" opacity="3.000000e-02" fill="none" stroke="#000000" stroke-width="0.9038" stroke-miterlimit="10" width="17" height="9.4"/>
			
				<rect x="137.6" y="87" opacity="3.000000e-02" fill="none" stroke="#000000" stroke-width="0.803" stroke-miterlimit="10" width="13.5" height="9.4"/>
			
				<rect x="164.3" y="87" opacity="3.000000e-02" fill="none" stroke="#000000" stroke-width="0.803" stroke-miterlimit="10" width="13.5" height="9.4"/>
			
				<rect x="191.2" y="87" opacity="3.000000e-02" fill="none" stroke="#000000" stroke-width="0.803" stroke-miterlimit="10" width="9.2" height="9.4"/>
			
				<rect x="142.9" y="77.6" opacity="3.000000e-02" fill="none" stroke="#000000" stroke-width="0.803" stroke-miterlimit="10" width="13.5" height="9.4"/>
			
				<rect x="169.8" y="77.6" opacity="3.000000e-02" fill="none" stroke="#000000" stroke-width="0.803" stroke-miterlimit="10" width="13.5" height="9.4"/>
			
				<rect x="156.3" y="77.6" opacity="3.000000e-02" fill="none" stroke="#000000" stroke-width="0.803" stroke-miterlimit="10" width="13.5" height="9.4"/>
			
				<rect x="183.2" y="77.6" opacity="3.000000e-02" fill="none" stroke="#000000" stroke-width="0.803" stroke-miterlimit="10" width="13.5" height="9.4"/>
			
				<rect x="196.7" y="77.6" opacity="3.000000e-02" fill="none" stroke="#000000" stroke-width="0.803" stroke-miterlimit="10" width="3.6" height="9.4"/>
			
				<rect x="40.4" y="124.7" opacity="3.000000e-02" fill="none" stroke="#000000" stroke-width="0.803" stroke-miterlimit="10" width="13.5" height="9.4"/>
			
				<rect x="45.7" y="115.3" opacity="3.000000e-02" fill="none" stroke="#000000" stroke-width="0.803" stroke-miterlimit="10" width="13.5" height="9.4"/>
			
				<rect x="29.2" y="115.3" opacity="3.000000e-02" fill="none" stroke="#000000" stroke-width="0.9053" stroke-miterlimit="10" width="17.1" height="9.4"/>
			
				<rect x="53.9" y="124.7" opacity="3.000000e-02" fill="none" stroke="#000000" stroke-width="0.7609" stroke-miterlimit="10" width="12.1" height="9.4"/>
			
				<rect x="59.1" y="115.3" opacity="3.000000e-02" fill="none" stroke="#000000" stroke-width="0.5678" stroke-miterlimit="10" width="6.7" height="9.4"/>
			
				<rect x="86.1" y="115.3" opacity="3.000000e-02" fill="none" stroke="#000000" stroke-width="0.4878" stroke-miterlimit="10" width="13.5" height="3.5"/>
			
				<rect x="72.6" y="115.3" opacity="3.000000e-02" fill="none" stroke="#000000" stroke-width="0.4878" stroke-miterlimit="10" width="13.5" height="3.5"/>
			
				<rect x="65.9" y="115.3" opacity="3.000000e-02" fill="none" stroke="#000000" stroke-width="0.3449" stroke-miterlimit="10" width="6.7" height="3.5"/>
			
				<rect x="99.5" y="115.3" opacity="3.000000e-02" fill="none" stroke="#000000" stroke-width="0.4878" stroke-miterlimit="10" width="13.5" height="3.5"/>
			
				<rect x="113" y="117.3" opacity="3.000000e-02" fill="none" stroke="#000000" stroke-width="0.306" stroke-miterlimit="10" width="11.2" height="1.6"/>
			
				<rect x="40.4" y="105.8" opacity="3.000000e-02" fill="none" stroke="#000000" stroke-width="0.803" stroke-miterlimit="10" width="13.5" height="9.4"/>
			
				<rect x="67.3" y="105.8" opacity="3.000000e-02" fill="none" stroke="#000000" stroke-width="0.803" stroke-miterlimit="10" width="13.5" height="9.4"/>
			
				<rect x="94" y="105.8" opacity="3.000000e-02" fill="none" stroke="#000000" stroke-width="0.803" stroke-miterlimit="10" width="13.5" height="9.4"/>
			
				<rect x="45.7" y="96.4" opacity="3.000000e-02" fill="none" stroke="#000000" stroke-width="0.803" stroke-miterlimit="10" width="13.5" height="9.4"/>
			
				<rect x="29.2" y="96.4" opacity="3.000000e-02" fill="none" stroke="#000000" stroke-width="0.9053" stroke-miterlimit="10" width="17.1" height="9.4"/>
			
				<rect x="53.9" y="105.8" opacity="3.000000e-02" fill="none" stroke="#000000" stroke-width="0.803" stroke-miterlimit="10" width="13.5" height="9.4"/>
			
				<rect x="80.5" y="105.8" opacity="3.000000e-02" fill="none" stroke="#000000" stroke-width="0.803" stroke-miterlimit="10" width="13.5" height="9.4"/>
			
				<rect x="107.5" y="105.8" opacity="3.000000e-02" fill="none" stroke="#000000" stroke-width="1.0835" stroke-miterlimit="10" width="16.7" height="9.4"/>
			
				<rect x="59.1" y="96.4" opacity="3.000000e-02" fill="none" stroke="#000000" stroke-width="0.803" stroke-miterlimit="10" width="13.5" height="9.4"/>
			
				<rect x="86.1" y="96.4" opacity="3.000000e-02" fill="none" stroke="#000000" stroke-width="0.803" stroke-miterlimit="10" width="13.5" height="9.4"/>
			
				<rect x="72.6" y="96.4" opacity="3.000000e-02" fill="none" stroke="#000000" stroke-width="0.803" stroke-miterlimit="10" width="13.5" height="9.4"/>
			
				<rect x="99.5" y="96.4" opacity="3.000000e-02" fill="none" stroke="#000000" stroke-width="0.803" stroke-miterlimit="10" width="13.5" height="9.4"/>
			
				<rect x="40.4" y="87" opacity="3.000000e-02" fill="none" stroke="#000000" stroke-width="0.803" stroke-miterlimit="10" width="13.5" height="9.4"/>
			
				<rect x="67.3" y="87" opacity="3.000000e-02" fill="none" stroke="#000000" stroke-width="0.803" stroke-miterlimit="10" width="13.5" height="9.4"/>
			
				<rect x="94" y="87" opacity="3.000000e-02" fill="none" stroke="#000000" stroke-width="0.803" stroke-miterlimit="10" width="13.5" height="9.4"/>
			
				<rect x="45.7" y="77.6" opacity="3.000000e-02" fill="none" stroke="#000000" stroke-width="0.803" stroke-miterlimit="10" width="13.5" height="9.4"/>
			
				<rect x="29.2" y="77.6" opacity="3.000000e-02" fill="none" stroke="#000000" stroke-width="0.9053" stroke-miterlimit="10" width="17.1" height="9.4"/>
			
				<rect x="53.9" y="87" opacity="3.000000e-02" fill="none" stroke="#000000" stroke-width="0.803" stroke-miterlimit="10" width="13.5" height="9.4"/>
			
				<rect x="80.5" y="87" opacity="3.000000e-02" fill="none" stroke="#000000" stroke-width="0.803" stroke-miterlimit="10" width="13.5" height="9.4"/>
			
				<rect x="107.5" y="87" opacity="3.000000e-02" fill="none" stroke="#000000" stroke-width="1.0835" stroke-miterlimit="10" width="16.7" height="9.4"/>
			
				<rect x="59.1" y="77.6" opacity="3.000000e-02" fill="none" stroke="#000000" stroke-width="0.803" stroke-miterlimit="10" width="13.5" height="9.4"/>
			
				<rect x="86.1" y="77.6" opacity="3.000000e-02" fill="none" stroke="#000000" stroke-width="0.803" stroke-miterlimit="10" width="13.5" height="9.4"/>
			
				<rect x="72.6" y="77.6" opacity="3.000000e-02" fill="none" stroke="#000000" stroke-width="0.803" stroke-miterlimit="10" width="13.5" height="9.4"/>
			
				<rect x="99.5" y="77.6" opacity="3.000000e-02" fill="none" stroke="#000000" stroke-width="0.803" stroke-miterlimit="10" width="13.5" height="9.4"/>
			
				<rect x="10.2" y="124.7" opacity="3.000000e-02" fill="none" stroke="#000000" stroke-width="0.803" stroke-miterlimit="10" width="13.5" height="9.4"/>
			
				<rect x="0.4" y="124.7" opacity="3.000000e-02" fill="none" stroke="#000000" stroke-width="0.6851" stroke-miterlimit="10" width="9.8" height="9.4"/>
			
				<rect x="23.7" y="124.7" opacity="3.000000e-02" fill="none" stroke="#000000" stroke-width="1.0853" stroke-miterlimit="10" width="16.7" height="9.4"/>
			
				<rect x="0.4" y="115.3" opacity="3.000000e-02" fill="none" stroke="#000000" stroke-width="0.8564" stroke-miterlimit="10" width="15.3" height="9.4"/>
			
				<rect x="15.7" y="115.3" opacity="3.000000e-02" fill="none" stroke="#000000" stroke-width="0.803" stroke-miterlimit="10" width="13.5" height="9.4"/>
			
				<rect x="10.2" y="105.8" opacity="3.000000e-02" fill="none" stroke="#000000" stroke-width="0.803" stroke-miterlimit="10" width="13.5" height="9.4"/>
			
				<rect x="0.4" y="105.8" opacity="3.000000e-02" fill="none" stroke="#000000" stroke-width="0.6851" stroke-miterlimit="10" width="9.8" height="9.4"/>
			
				<rect x="23.7" y="105.8" opacity="3.000000e-02" fill="none" stroke="#000000" stroke-width="1.0853" stroke-miterlimit="10" width="16.7" height="9.4"/>
			
				<rect x="0.4" y="96.4" opacity="3.000000e-02" fill="none" stroke="#000000" stroke-width="0.8564" stroke-miterlimit="10" width="15.3" height="9.4"/>
			
				<rect x="15.7" y="96.4" opacity="3.000000e-02" fill="none" stroke="#000000" stroke-width="0.803" stroke-miterlimit="10" width="13.5" height="9.4"/>
			
				<rect x="10.2" y="87" opacity="3.000000e-02" fill="none" stroke="#000000" stroke-width="0.803" stroke-miterlimit="10" width="13.5" height="9.4"/>
			
				<rect x="0.4" y="87" opacity="3.000000e-02" fill="none" stroke="#000000" stroke-width="0.6851" stroke-miterlimit="10" width="9.8" height="9.4"/>
			
				<rect x="23.7" y="87" opacity="3.000000e-02" fill="none" stroke="#000000" stroke-width="1.0853" stroke-miterlimit="10" width="16.7" height="9.4"/>
			
				<rect x="0.4" y="77.6" opacity="3.000000e-02" fill="none" stroke="#000000" stroke-width="0.8564" stroke-miterlimit="10" width="15.3" height="9.4"/>
			
				<rect x="15.7" y="77.6" opacity="3.000000e-02" fill="none" stroke="#000000" stroke-width="0.803" stroke-miterlimit="10" width="13.5" height="9.4"/>
		</g>
	</g>
	<g>
		<g>
			<path fill="#EFC569" d="M44,158.5c0,2.2-0.8,3.9-2.4,5.2c-1.6,1.3-3.7,2-6.4,2c-0.7,0-1.6-0.1-2.9-0.3v9.6c0,1.4,0.1,2.2,0.3,2.4
				s0.9,0.4,2.1,0.4c0.7,0,1,0.1,1,0.3c0,0.2-0.2,0.3-0.6,0.3h-0.6c-0.1,0-0.7,0-1.7,0c-1,0-2.1,0-3.2,0h-4.4c-0.8,0-1.3,0-1.4-0.1
				c-0.1,0-0.2-0.1-0.2-0.2c0-0.2,0.2-0.3,0.6-0.3c1.2,0,2-0.1,2.2-0.3s0.4-0.8,0.4-1.7v-19.3c0-1.6-0.1-2.6-0.2-2.9
				c-0.1-0.3-0.8-0.5-1.9-0.5c-0.7,0-1-0.1-1-0.3c0-0.2,0.3-0.3,0.9-0.3l10.7,0c2.6,0,4.6,0.4,5.9,1.2C43.1,154.9,44,156.5,44,158.5
				z M37.9,158.7c0-3.7-1.2-5.6-3.5-5.6c-1.4,0-2.1,0.6-2.1,1.8v9.9c1,0,1.7,0,2.1-0.1c0.7-0.1,1.4-0.4,1.9-0.9
				C37.4,162.9,37.9,161.2,37.9,158.7z"/>
			<path fill="#EFC569" d="M61.6,160.5c0,0.1-0.3,0.2-0.9,0.2c-0.7,0-1.2,0.1-1.3,0.4c-0.1,0.1-0.1,0.2-0.1,0.4v11.2
				c0,4.2-2,6.2-5.9,6.2c-2,0-3.6-0.6-4.7-1.9c-0.8-0.9-1.3-2.6-1.3-4.9v-10.1c0-0.6-0.1-0.9-0.3-1c-0.2-0.1-0.7-0.2-1.7-0.3
				c-0.2,0-0.3-0.1-0.3-0.2c0-0.2,0.2-0.2,0.5-0.2h0.2c0.2,0,0.3,0,0.4,0h1.6c1.5,0,2.7,0,3.4,0c1,0,1.4,0,1.2,0h0.6
				c0.3,0,0.4,0.1,0.4,0.3c0,0.2-0.3,0.2-0.8,0.2c-0.8,0-1.2,0.1-1.2,0.4c0,0.2-0.1,0.4-0.1,0.6v9.8c0,1.4,0,2.3,0.1,2.7
				c0.1,1.1,0.4,2,1,2.5c0.6,0.6,1.5,0.9,2.5,0.9c1.2,0,2.1-0.4,2.6-1.2c0.7-0.9,1-2.6,1-5v-8.7c0-0.2,0-0.4,0-0.6s0-0.4,0-0.4
				c0-0.5-0.1-0.8-0.4-0.9c-0.2-0.1-0.5-0.2-1-0.2c-0.6,0-0.9-0.1-0.9-0.3c0-0.1,0.1-0.2,0.4-0.2c0.3,0,0.6,0,1.2,0
				c0.5,0,0.9,0,1.2,0c0,0,0.2,0,0.4-0.1c0.3,0,0.6,0,0.8,0h0.6C61.3,160.3,61.6,160.4,61.6,160.5z"/>
			<path fill="#EFC569" d="M77.2,173.8c0,1.1-0.3,2-1,2.8s-1.6,1.3-2.8,1.6c-0.9,0.2-1.8,0.3-2.6,0.4c-0.8,0-3.2,0.1-7.2,0.1
				c-0.6,0-0.9,0-1,0s-0.2-0.1-0.2-0.2c0-0.2,0.3-0.2,0.9-0.2c0.6,0,0.9-0.1,1.1-0.2c0.1-0.2,0.2-0.6,0.2-1.2v-15
				c0-0.5-0.4-0.8-1.2-0.8c-0.6,0-0.9-0.1-0.9-0.2c0-0.1,0.2-0.2,0.6-0.2c0.4,0,0.7,0,1.1,0h6.3c4,0,6.1,1.4,6.1,4.2
				c0,2.3-1.5,3.7-4.5,4.3l-0.1,0.1c1.8,0.4,3,0.8,3.7,1.4C76.6,171.2,77.2,172.4,77.2,173.8z M73,173.6c0-2.5-0.7-3.9-2.1-4.3
				c-0.6-0.2-1.4-0.2-2.4-0.2v1.5c0,0.4,0,1.1-0.1,1.9c0,0.4,0,1.2,0,2.3c0,1.9,0.1,2.9,0.2,3c0.1,0.2,0.5,0.3,1.2,0.3
				C71.9,178,73,176.6,73,173.6z M72.5,164.7c0-2.5-0.8-3.8-2.3-3.8c-0.5,0-0.9,0-1.1,0.1c-0.4,0.1-0.6,0.4-0.6,0.8v6.9
				c1.5,0,2.6-0.3,3.1-0.8C72.2,167.3,72.5,166.2,72.5,164.7z"/>
			<path fill="#EFC569" d="M114.3,163c0,0.1-0.8,0.2-2.4,0.3c-0.9,0-1.4,0.2-1.6,0.3c-0.2,0.2-0.4,0.6-0.5,1.2
				c-0.7,3.4-1.8,6.1-3.5,8l0.3,0.4l0.8,1.3l0.8,1.2c0.5,0.8,1.1,1.4,1.7,1.6c0.6,0.3,1.6,0.4,3.1,0.5c0.6,0,0.9,0.2,0.9,0.4
				c0,0.2-0.3,0.2-0.8,0.2h-2.3c-1.5,0-2.1,0-1.8,0c-0.7,0-2.4,0-5.1,0c-0.4-0.7-0.7-1.4-1.1-2c-2,1.7-4.5,2.5-7.6,2.5
				c-2.8,0-5-0.7-6.7-2c-1.7-1.4-2.6-3.1-2.6-5.3c0-1.8,0.5-3.4,1.6-4.6c1.1-1.2,2.8-2.3,5.3-3.3c-0.9-0.9-1.6-1.6-2-2.1
				c-0.9-1.1-1.3-2.4-1.3-3.9c0-1.7,0.6-3,1.9-4.1c1.3-1.1,2.9-1.6,4.9-1.6c2,0,3.5,0.5,4.7,1.4c1.2,0.9,1.8,2.1,1.8,3.6
				c0,2.5-1.7,4.2-5.1,5.2c1.1,1.1,2.5,2.8,4.2,4.9c1.7,2.1,2.9,3.8,3.6,5c1.8-2.1,2.7-4.7,2.7-7.9c0-0.6-0.3-0.9-1-0.9
				c-2,0-3-0.1-3-0.4c0-0.2,0.4-0.3,1.2-0.3h3.3h3.2C113.6,162.6,114.3,162.7,114.3,163z M102.3,175.9c-3.9-5.3-6.9-9.1-9-11.5
				c-1.3,0.9-1.9,2.7-1.9,5.4c0,2.2,0.6,4,2,5.5c1.3,1.5,2.9,2.2,4.8,2.2C99.9,177.4,101.2,176.9,102.3,175.9z M98.9,157.4
				c0-3.1-0.8-4.7-2.3-4.7c-1.5,0-2.2,1-2.2,3.2c0,1,0.3,2,0.8,3.1c0.5,1.1,1.3,2,2.1,2.7C98.4,160.9,98.9,159.5,98.9,157.4z"/>
			<path fill="#EFC569" d="M141.1,171.7c0,1.6-0.5,2.9-1.4,4s-2.3,1.9-3.9,2.2c-1.3,0.3-2.6,0.5-3.8,0.5c-1.2,0-4.6,0.1-10.4,0.1
				c-0.8,0-1.3,0-1.4,0c-0.1,0-0.2-0.1-0.2-0.3c0-0.2,0.4-0.3,1.2-0.3c0.8,0,1.3-0.1,1.5-0.4c0.2-0.2,0.3-0.8,0.3-1.7v-21.5
				c0-0.7-0.6-1.1-1.7-1.1c-0.9,0-1.3-0.1-1.3-0.3c0-0.2,0.3-0.3,0.8-0.3c0.5,0,1,0,1.5,0h9c5.8,0,8.7,2,8.7,5.9
				c0,3.3-2.2,5.3-6.5,6.1l-0.1,0.2c2.5,0.5,4.3,1.2,5.3,2C140.3,168.1,141.1,169.7,141.1,171.7z M135.1,171.6c0-3.5-1-5.6-3-6.2
				c-0.8-0.2-1.9-0.3-3.4-0.3v2.2c0,0.6,0,1.5-0.1,2.7c0,0.6,0,1.7,0,3.2c0,2.7,0.1,4.1,0.2,4.3c0.2,0.3,0.8,0.4,1.7,0.4
				C133.5,177.9,135.1,175.8,135.1,171.6z M134.3,158.7c0-3.6-1.1-5.4-3.3-5.4c-0.8,0-1.3,0-1.6,0.1c-0.5,0.2-0.8,0.6-0.8,1.2v9.9
				c2.2,0,3.7-0.4,4.5-1.2C133.9,162.5,134.3,161,134.3,158.7z"/>
			<path fill="#EFC569" d="M159.2,178.2c0,0.1-0.1,0.2-0.2,0.2c-0.1,0-0.5,0-1,0c-0.1,0-0.5,0-1.2,0c-1.3,0-2.2-0.1-2.7-0.1
				c-0.6,0-1.1,0-1.5,0c-0.9,0-1.5,0.1-1.8,0.1c-0.5,0-0.7-0.1-0.7-0.3s0.5-0.3,1.5-0.3c0.2,0,0.4,0,0.6-0.1c0.3,0,0.4-0.1,0.4-0.3
				c0-0.1-0.1-0.5-0.3-1.1l-0.6-1.7c-0.1-0.4-0.3-1.1-0.7-2.1h-0.5h-2c-0.7,0-1.5,0-2.3,0c-0.2,0.4-0.5,1.1-0.9,2.4l-0.6,1.7
				c-0.1,0.3-0.1,0.5-0.1,0.6c0,0.3,0.2,0.5,0.6,0.6c0.1,0,0.5,0.1,1.3,0.1c0.2,0,0.4,0.1,0.4,0.2c0,0.1-0.2,0.2-0.5,0.2H142
				c-0.1,0-0.2,0-0.3,0c-0.2,0-0.4-0.1-0.4-0.3c0-0.1,0.3-0.2,0.8-0.2c0.7,0,1.1-0.2,1.3-0.4c0.2-0.2,0.5-1,0.9-2.2
				c0.3-0.9,0.8-2.2,1.4-3.9l3.2-8.7c0.2-0.4,0.4-1,0.7-1.8c0.2-0.6,0.3-0.9,0.4-0.9s0.3,0.4,0.6,1.2c0.4,1,1.9,5.1,4.6,12.2
				c0.4,0.9,0.7,1.8,1.1,2.8c0.3,0.8,0.6,1.3,0.9,1.5c0.2,0.1,0.8,0.2,1.6,0.2C159.1,178,159.2,178.1,159.2,178.2z M150.9,172.1
				c0-0.1-0.1-0.2-0.2-0.5c-0.7-2-1.2-3.5-1.5-4.3c-0.1-0.2-0.2-0.6-0.4-1l-0.2-0.5c-0.3,0.8-0.7,1.8-1.2,3.1
				c-0.5,1.5-0.9,2.5-1.1,3.1c0.2,0,0.3,0,0.6,0c0.2,0,0.4,0,0.6,0h1.5C149.4,172.1,150,172.1,150.9,172.1z"/>
			<path fill="#EFC569" d="M176.7,177.5c0,1-0.6,1.5-1.9,1.5c-1.6,0-2.9-0.5-3.9-1.5c-0.8-0.8-1.2-1.6-1.3-2.5l-0.3-2.2
				c-0.2-1.4-0.5-2.3-1-2.9s-1.2-0.8-2.2-0.8v6c0,1.4,0,2.1,0,2.2c0,0.3,0.1,0.5,0.4,0.6c0.2,0.1,0.7,0.2,1.4,0.2
				c0.4,0,0.6,0.1,0.6,0.2c0,0.1-0.1,0.2-0.3,0.2h-2.5h-0.4c-0.3,0-0.6,0-0.9,0h-1.9c-0.2,0-0.4,0-0.6,0c-0.2,0-0.3,0-0.4,0h-1.2
				c-0.2,0-0.4-0.1-0.4-0.2c0-0.1,0.4-0.2,1.1-0.3c0.6,0,0.9-0.2,1.1-0.4c0.1-0.1,0.1-0.5,0.1-1.1V163c0-0.9,0-1.5-0.1-1.6
				c0-0.2-0.1-0.3-0.3-0.4c-0.2-0.1-0.6-0.2-1.2-0.2c-0.4,0-0.6-0.1-0.6-0.2c0-0.1,0.1-0.2,0.2-0.2s0.6,0,1.3,0h0.5
				c0.3,0,0.6,0,0.9,0h0.9c0,0,0.2,0,0.6,0c0.3,0,0.6,0,0.9,0h1.5c2.5,0,4.1,0.2,5,0.6c0.7,0.3,1.3,0.8,1.7,1.4
				c0.4,0.6,0.6,1.3,0.6,2c0,1.7-0.9,2.9-2.6,3.7c-0.8,0.4-1.9,0.6-3.4,0.8l0,0.2c1.9,0.1,3.3,0.6,4.1,1.5c0.9,0.9,1.4,2.3,1.5,4.3
				c0.1,1.6,0.4,2.6,0.7,3c0.3,0.4,0.6,0.6,0.9,0.6c0.3,0,0.4-0.1,0.4-0.2c0-0.1-0.1-0.2-0.3-0.3c-0.2-0.1-0.3-0.3-0.3-0.5
				c0-0.5,0.3-0.7,0.8-0.7S176.7,176.9,176.7,177.5z M170.1,164.2c0-2.3-0.9-3.4-2.7-3.4c-0.6,0-0.9,0.2-1.1,0.6
				c-0.1,0.2-0.1,1.2-0.1,2.9v4.4c1.4,0,2.4-0.3,3-1S170.1,165.8,170.1,164.2z"/>
		</g>
		<g>
			<path fill="#EFC569" d="M86.4,134c0,0.2-0.1,0.3-0.3,0.3s-0.3-0.2-0.4-0.6c0-0.3-0.1-0.5-0.1-0.8c-0.1-0.5-0.3-1-0.5-1.3
				c-0.3-0.5-0.8-0.8-1.5-0.9c-0.4-0.1-0.8-0.1-1.1-0.1c-0.7,0-1.1,0-1.2,0v13c0,0.5,0.1,0.8,0.4,1c0.1,0.1,0.5,0.1,1.2,0.1
				c0.2,0,0.3,0.1,0.3,0.2c0,0.1-0.1,0.2-0.3,0.2c-0.1,0-0.2,0-0.3,0c-0.9,0-1.5,0-1.8,0c-0.5,0-0.9,0-1.3,0c-0.4,0-0.9,0-1.6,0
				c-0.3,0-0.5-0.1-0.5-0.2c0-0.1,0.3-0.2,0.9-0.2c0.4,0,0.7-0.1,0.9-0.3c0.1-0.1,0.1-0.4,0.1-0.9v-12.9c-1.4,0-2.3,0.1-2.6,0.2
				c-0.9,0.3-1.4,1.2-1.6,2.6c0,0.4-0.1,0.6-0.3,0.6c-0.2,0-0.3-0.2-0.3-0.5c0-0.2,0-0.3,0-0.5l0-0.5c0-0.7,0.1-1.5,0.2-2.6h1
				l4.4,0.1c0.5,0,1.3,0,2.4,0l3.6-0.1c0,0.8,0.1,2,0.3,3.6c0,0,0,0.1,0,0.2S86.4,134,86.4,134z"/>
			<path fill="#EFC569" d="M101.6,144.9c0,0.1-0.1,0.2-0.4,0.2h-2.9c-0.2,0-0.5,0-0.9,0s-0.7,0-0.9,0c-0.3,0-0.4-0.1-0.4-0.2
				c0-0.1,0.3-0.2,1-0.2c0.4,0,0.6-0.1,0.6-0.2c0.1-0.1,0.1-0.4,0.1-1v-6.3h-6.5v6.1c0,0.6,0,1,0.2,1.1c0.1,0.1,0.4,0.2,1,0.2
				c0.4,0,0.6,0.1,0.6,0.2c0,0.1-0.1,0.2-0.4,0.2h-0.2c-0.3,0-0.7,0-1.1,0c-0.4,0-0.6,0-0.7,0c-0.2,0-0.5,0-0.9,0c-0.4,0-1,0-1.8,0
				c-0.3,0-0.4-0.1-0.4-0.2c0-0.1,0.1-0.2,0.4-0.2c0.2,0,0.4,0,0.6,0c0.3,0,0.5-0.1,0.6-0.2c0-0.1,0.1-0.5,0.1-1.2V132
				c0-0.6,0-1-0.1-1.1s-0.3-0.2-0.7-0.2c-0.4,0-0.7-0.1-0.8-0.1c-0.1,0-0.1-0.1-0.1-0.2c0-0.1,0.1-0.2,0.3-0.2c0.1,0,0.2,0,0.4,0
				c0.4,0,1.2,0,2.5,0c0.7,0,1.2,0,1.5,0c0.1,0,0.2,0,0.4,0c0.3,0,0.4,0.1,0.4,0.2c0,0.1-0.2,0.2-0.7,0.2c-0.5,0-0.7,0.1-0.8,0.2
				c-0.1,0.1-0.1,0.4-0.1,1v5h6.5v-4.6c0-0.8-0.1-1.2-0.2-1.3s-0.5-0.2-1.2-0.2c-0.2,0-0.3-0.1-0.3-0.2c0-0.1,0.1-0.2,0.4-0.2h0.1
				c0.2,0,0.6,0,1.1,0c0.5,0,0.9,0,1.2,0c0.9,0,1.5,0,1.8,0c0.3,0,0.5,0,0.6,0c0.3,0,0.5,0.1,0.5,0.2s-0.3,0.2-0.9,0.2
				c-0.2,0-0.3,0-0.4,0c-0.1,0-0.2,0.1-0.3,0.2c0,0.1-0.1,0.5-0.1,1v11.4c0,0.7,0,1.1,0.1,1.2c0.1,0.2,0.6,0.2,1.2,0.2
				C101.5,144.7,101.6,144.8,101.6,144.9z"/>
			<path fill="#EFC569" d="M114.6,141.7c0,0.1,0,0.4,0,1.1s0,1.3,0,1.8v0.7c-1.4-0.1-4.2-0.1-8.3-0.1c-0.5,0-1,0-1.5,0
				c-0.5,0-0.8,0-1,0h-0.2c-0.3,0-0.4-0.1-0.4-0.2c0-0.1,0-0.1,0.1-0.1c0,0,0.3,0,0.8-0.1c0.4,0,0.6-0.1,0.7-0.2
				c0.1-0.1,0.1-0.5,0.1-1v-12.1c0-0.4-0.1-0.7-0.2-0.7c-0.1-0.1-0.5-0.1-1.2-0.1c-0.2,0-0.3-0.1-0.3-0.2s0.2-0.2,0.5-0.2h3.7
				c0.1,0,0.9,0,2.4,0s2.5,0,3,0c0.4,0,0.8,0,1.2-0.1c0,0.6,0.1,1.5,0.2,2.6l0.1,0.9c0,0.1,0,0.2,0,0.3c0,0.1-0.1,0.2-0.2,0.2
				c-0.2,0-0.3-0.2-0.3-0.5c-0.3-1.3-0.7-2.1-1.3-2.5c-0.5-0.3-1.7-0.4-3.6-0.4h-1.8v6.3h0.5c1.6,0,2.6-0.1,2.9-0.4
				c0.4-0.2,0.6-1,0.7-2.1c0-0.3,0.1-0.5,0.2-0.5c0.2,0,0.2,0.1,0.2,0.4c0,0.3,0,0.6,0,1.1c0,0.5,0,0.9,0,1.1c0,1.5,0,2.6,0.1,3.2
				c0,0.1,0,0.3,0,0.4c0,0.2-0.1,0.3-0.2,0.3c-0.1,0-0.2-0.1-0.2-0.2c0-0.1-0.1-0.5-0.2-1.2c-0.1-0.8-0.5-1.4-1-1.6
				c-0.3-0.1-0.9-0.1-2-0.1h-1v7.2c3.2,0,5-0.1,5.5-0.2c0.9-0.2,1.5-1.1,1.6-2.7c0-0.4,0.1-0.5,0.3-0.5
				C114.5,141.2,114.6,141.4,114.6,141.7z"/>
		</g>
	</g>
	<line fill="none" stroke="#FFFFFF" stroke-width="1.4782" stroke-miterlimit="10" x1="76.3" y1="292.4" x2="123" y2="292.4"/>
</g>
</svg>
