<?xml version="1.0" encoding="utf-8"?>
<!-- Generator: Adobe Illustrator 18.1.1, SVG Export Plug-In . SVG Version: 6.00 Build 0)  -->
<!DOCTYPE svg PUBLIC "-//W3C//DTD SVG 1.1//EN" "http://www.w3.org/Graphics/SVG/1.1/DTD/svg11.dtd">
<svg version="1.1" id="Layer_1" xmlns="http://www.w3.org/2000/svg" xmlns:xlink="http://www.w3.org/1999/xlink" x="0px" y="0px"
	 viewBox="0 0 227.7 293.1" enable-background="new 0 0 227.7 293.1" xml:space="preserve">
<g>
	<g>
		<rect x="13.2" y="125.7" fill="#729454" width="201.2" height="167.4"/>
	</g>
	<rect x="132" y="210.5" fill="#8EB7ED" width="73.6" height="57.1"/>
	<rect x="132" y="271.2" fill="#F7E588" width="73.6" height="21.7"/>
	<rect x="21.5" y="271.2" fill="#F7E588" width="73.2" height="21.7"/>
	<rect x="131.4" y="210.5" opacity="0.15" width="14.8" height="81.8"/>
	<rect x="21.5" y="210.5" fill="#8EB7ED" width="73.2" height="57.1"/>
	<rect x="81.6" y="210.5" opacity="0.15" width="13" height="81.8"/>
	<rect x="21.5" y="210.5" opacity="0.15" width="13.9" height="81.8"/>
	<rect x="191.7" y="210.5" opacity="0.15" width="13.9" height="81.8"/>
	<g>
		<g>
			<g>
				<path fill="#DB5102" d="M37.8,145c0,0.2,0,0.3,0,0.5c0,0.2,0,0.3,0,0.5c0,0.2,0,0.5,0,0.7c0,0.2,0,0.5,0,0.7c0,0.1,0,0.2,0,0.3
					c0,0.1,0,0.2,0,0.2s-0.1,0.1-0.1,0.2s-0.1,0.1-0.2,0.1c-0.2,0-0.4,0-0.7,0c-0.3,0-0.5,0-0.7,0c-0.1,0-0.2,0-0.3,0
					c-0.1,0-0.2,0-0.3,0c-0.1,0-0.2-0.1-0.2-0.2c0-0.1,0-0.2,0-0.4c0-0.1,0-0.2,0-0.3c0-0.1,0-0.2,0-0.4v-0.2c-0.2,0-0.3,0-0.5,0
					c-0.2,0-0.4,0-0.6,0c-0.3,0-0.5,0-0.8,0s-0.5,0.1-0.7,0.1c-0.2,0.1-0.4,0.2-0.5,0.3c-0.1,0.1-0.2,0.3-0.2,0.5
					c0,0.3,0.1,0.5,0.4,0.7c0.3,0.2,0.6,0.3,0.9,0.4c0.4,0.1,0.8,0.2,1.1,0.4c0.4,0.1,0.7,0.2,1,0.3c0.3,0.1,0.6,0.2,0.9,0.3
					c0.3,0.1,0.5,0.3,0.7,0.5c0.4,0.2,0.8,0.6,1.1,1c0.3,0.5,0.4,1,0.4,1.6c0,0.4-0.1,0.7-0.2,1c-0.1,0.3-0.3,0.6-0.4,0.9
					c-0.2,0.3-0.4,0.5-0.7,0.8s-0.5,0.4-0.8,0.6c-0.2,0.1-0.4,0.2-0.7,0.3c-0.3,0.1-0.5,0.1-0.8,0.2c-0.2,0.1-0.5,0.1-0.8,0.1
					s-0.6,0-0.9,0c-0.4,0-0.9,0-1.3-0.1s-0.8-0.1-1.2-0.2c-0.4-0.1-0.7-0.2-0.9-0.3c-0.3-0.1-0.5-0.2-0.6-0.3c0-0.4,0-0.7,0-1.1
					c0-0.4,0-0.7,0-1c0-0.2,0-0.3,0-0.4c0-0.1,0-0.3,0-0.4c0.2,0,0.6,0,0.9-0.1s0.7,0,1.1,0c0.2,0,0.4,0,0.5,0s0.2,0,0.2,0.1
					c0,0,0.1,0.1,0.1,0.1c0,0,0,0.1,0,0.2c0,0.1,0,0.2,0,0.4c0,0.1,0,0.3,0,0.4c0,0.2,0,0.3,0.1,0.5c0.4,0,0.8,0,1.1,0s0.6,0,0.9,0
					c0.3,0,0.5-0.1,0.8-0.2c0.2-0.1,0.4-0.2,0.6-0.4c0.1-0.1,0.1-0.2,0.2-0.3c0-0.1,0.1-0.2,0.1-0.3c0-0.2-0.1-0.4-0.3-0.6
					s-0.4-0.3-0.7-0.4c-0.3-0.1-0.6-0.2-0.9-0.3c-0.3-0.1-0.6-0.2-1-0.3c-0.3-0.1-0.6-0.2-0.9-0.3c-0.3-0.1-0.5-0.2-0.6-0.3
					c-0.1-0.1-0.2-0.1-0.4-0.2c-0.1-0.1-0.3-0.2-0.4-0.2s-0.3-0.2-0.4-0.3c-0.1-0.1-0.2-0.2-0.3-0.3c-0.1-0.1-0.2-0.2-0.3-0.4
					c-0.1-0.2-0.1-0.3-0.2-0.5c-0.1-0.2-0.1-0.4-0.1-0.6c0-0.2,0-0.4,0-0.5c0-0.4,0.1-0.7,0.1-0.9c0.1-0.3,0.2-0.5,0.3-0.7
					c0.1-0.2,0.3-0.4,0.4-0.6c0.2-0.2,0.4-0.4,0.7-0.6c0.2-0.1,0.4-0.3,0.7-0.4c0.3-0.1,0.5-0.2,0.8-0.2c0.3-0.1,0.6-0.1,0.8-0.1
					s0.5,0,0.8,0c0.3,0,0.6,0,1,0.1c0.4,0,0.8,0.1,1.2,0.2s0.8,0.1,1.1,0.2C37.3,144.7,37.6,144.8,37.8,145z"/>
				<path fill="#DB5102" d="M51,148c-0.1,0.1-0.3,0.1-0.5,0.1s-0.4,0-0.7,0c-0.2,0-0.4,0-0.6,0c-0.2,0-0.3,0-0.4-0.1
					c0,0,0-0.1,0-0.2s0-0.2,0-0.4s0-0.3,0-0.4c0-0.2,0-0.3,0-0.4c-0.2,0-0.3,0-0.4,0c-0.1,0-0.2,0-0.3,0c-0.1,0-0.2,0-0.4,0
					s-0.3,0-0.6,0c0,0.6,0,1.1,0,1.6s0.1,1,0.1,1.6c0,0.4,0,0.7,0,1.1c0,0.4,0,0.7-0.1,1.1s0,0.7,0,1.1c0,0.4,0,0.7,0.1,1.1
					c0.2,0,0.3,0,0.5,0s0.3,0,0.5,0c0.1,0.1,0.1,0.3,0.1,0.4c0,0.1,0,0.3,0,0.5c0,0.2,0,0.4,0,0.5c0,0.2,0,0.4,0,0.6
					c-0.1,0.1-0.2,0.2-0.4,0.2c-0.2,0-0.4,0-0.6,0c-0.2,0-0.4,0-0.7,0s-0.5,0-0.8,0s-0.6,0-0.8,0c-0.3,0-0.5,0-0.7,0
					c-0.1,0-0.2,0-0.3,0c-0.1,0-0.2,0-0.4,0s-0.2,0-0.3,0c-0.1,0-0.2,0-0.2,0c-0.1,0-0.1,0-0.1-0.1c0,0,0-0.1,0-0.1c0,0,0-0.1,0-0.1
					c0,0,0-0.1,0-0.2c0.1-0.3,0.1-0.5,0.1-0.7c0-0.2,0-0.5-0.1-0.7c0-0.1,0.1-0.1,0.2-0.2c0.1,0,0.2-0.1,0.3-0.1c0.1,0,0.2,0,0.4,0
					c0.1,0,0.2,0,0.3,0c0.1-1.2,0.2-2.4,0.2-3.7s-0.1-2.5-0.2-3.9c-0.3-0.1-0.5-0.1-0.8-0.1c-0.3,0-0.5,0-0.9,0c0,0.2,0,0.3,0,0.4
					c0,0.1,0,0.2,0,0.3s0,0.2,0,0.3c0,0.1,0,0.2,0,0.4c-0.1,0-0.3,0.1-0.5,0.1c-0.2,0-0.4,0-0.6,0c-0.2,0-0.4,0-0.7,0
					s-0.4,0-0.6-0.1c0-0.5,0.1-1.1,0-1.7s-0.1-1.2-0.2-1.7c0.8-0.1,1.7-0.2,2.5-0.2c0.8,0,1.6,0,2.4,0c0.8,0,1.6,0,2.4,0.1
					c0.8,0,1.6,0,2.5,0c0.1,0,0.2,0,0.4,0s0.3,0,0.4,0s0.3,0,0.4,0.1c0.1,0,0.2,0.1,0.2,0.1c0,0.1,0.1,0.3,0.1,0.6
					c0,0.2,0,0.4,0,0.6c0,0.4,0,0.7,0.1,1.1S51.1,147.6,51,148z"/>
				<path fill="#DB5102" d="M59.3,156.4c-0.1,0-0.3,0-0.5,0c-0.2,0-0.3,0-0.5,0c-0.8,0-1.5-0.1-2.1-0.3c-0.6-0.2-1.2-0.5-1.6-0.9
					c-0.1,0-0.1-0.1-0.2-0.2c-0.1-0.1-0.2-0.2-0.2-0.3c-0.1-0.1-0.2-0.2-0.2-0.3c-0.1-0.1-0.1-0.2-0.2-0.3c-0.1-0.1-0.2-0.3-0.4-0.6
					c-0.1-0.3-0.2-0.6-0.3-0.9c-0.1-0.3-0.2-0.7-0.2-1c-0.1-0.4-0.1-0.7-0.1-1.1c0-0.5,0.1-1,0.2-1.5s0.3-1.1,0.5-1.6
					c0.2-0.5,0.5-1,0.9-1.4s0.8-0.7,1.3-1c0.5-0.3,1-0.5,1.5-0.6c0.5-0.1,1-0.2,1.6-0.2c0.5,0,1,0.1,1.5,0.1c0.5,0.1,1,0.2,1.4,0.5
					c1,0.6,1.8,1.4,2.2,2.4c0.4,1,0.6,2.1,0.6,3.4c0,0.4,0,0.7,0,1c0,0.3-0.1,0.7-0.1,1c-0.2,0.5-0.4,1-0.7,1.4
					c-0.2,0.4-0.5,0.8-1,1.1c-0.2,0.2-0.4,0.3-0.6,0.4c-0.2,0.1-0.5,0.3-0.7,0.4c-0.3,0.1-0.5,0.2-0.8,0.3S59.7,156.4,59.3,156.4z
					 M61.4,150.7c0-0.1,0-0.3,0-0.4c0-0.1,0-0.3,0-0.4c0-0.2,0-0.5-0.1-0.8c-0.1-0.3-0.2-0.6-0.3-0.8c-0.1-0.3-0.3-0.5-0.4-0.8
					s-0.3-0.4-0.5-0.6c-0.1-0.1-0.2-0.2-0.3-0.2s-0.3-0.2-0.4-0.2c-0.1-0.1-0.3-0.1-0.4-0.2c-0.1,0-0.3-0.1-0.4-0.1
					c-0.3,0-0.7,0.1-1,0.3c-0.3,0.2-0.6,0.5-0.9,0.9c-0.3,0.4-0.5,0.8-0.6,1.2c-0.2,0.5-0.2,0.9-0.2,1.4c0,0.6,0.1,1.1,0.2,1.6
					c0.1,0.5,0.3,0.9,0.5,1.3c0.2,0.4,0.5,0.7,0.9,0.9c0.4,0.2,0.8,0.3,1.3,0.3c0.3,0,0.6,0,0.9-0.1c0.3-0.1,0.6-0.2,0.9-0.4
					c0.3-0.4,0.5-0.8,0.7-1.3C61.3,151.9,61.4,151.4,61.4,150.7z"/>
				<path fill="#DB5102" d="M73.5,150.9c0.2,0.1,0.3,0.3,0.5,0.4c0.1,0.2,0.2,0.3,0.3,0.4c0.2,0.2,0.3,0.5,0.4,0.7
					c0.1,0.3,0.2,0.5,0.4,0.8s0.3,0.4,0.5,0.6c0.2,0.2,0.4,0.3,0.8,0.3c0.2,0,0.4,0,0.6,0c0,0.2,0.1,0.3,0.1,0.5s0,0.4,0,0.5
					c0,0.2,0,0.3,0,0.5s-0.1,0.3-0.1,0.4c-0.3,0-0.6,0.1-0.9,0.1s-0.7,0-1.1,0s-0.7-0.1-1-0.2c-0.3-0.1-0.5-0.3-0.6-0.5
					c0,0,0-0.1-0.1-0.1c0-0.1-0.1-0.1-0.1-0.2s-0.1-0.2-0.1-0.2c0-0.1-0.1-0.1-0.1-0.2c-0.1-0.3-0.3-0.5-0.4-0.8
					c-0.1-0.3-0.3-0.6-0.5-0.8c-0.2-0.3-0.3-0.5-0.5-0.8s-0.3-0.5-0.5-0.7c-0.2,0-0.4,0-0.5,0c-0.2,0-0.3,0-0.4,0c0,0.2,0,0.4,0,0.6
					c0,0.2,0,0.3,0,0.5c0,0.2,0,0.3,0,0.5c0,0.2,0,0.4,0,0.6c0.1,0,0.2,0,0.3,0c0.1,0,0.2,0,0.2,0s0.2,0,0.2,0c0.1,0,0.2,0,0.2,0.1
					c0.1,0.1,0.2,0.2,0.2,0.3c0,0.1,0,0.3,0,0.5c0,0.2,0,0.4-0.1,0.6c0,0.2,0,0.4,0,0.5c-0.1,0.1-0.1,0.2-0.1,0.2
					c0,0-0.1,0.1-0.2,0.1c-0.1,0-0.1,0-0.2,0s-0.2,0-0.3,0c-0.2,0-0.3,0-0.6,0c-0.2,0-0.5,0-0.7,0c-0.3,0-0.5,0-0.8,0s-0.5,0-0.6,0
					c-0.1,0-0.2,0-0.4,0c-0.1,0-0.3,0-0.4,0s-0.3,0-0.4,0c-0.1,0-0.2,0-0.2,0c-0.1,0-0.1-0.1-0.1-0.2c0-0.1-0.1-0.2-0.1-0.3
					c0-0.1,0-0.2,0-0.4c0-0.1,0-0.3,0-0.5c0-0.2,0-0.3,0-0.5c0-0.2,0-0.3,0-0.5c0.1-0.1,0.1-0.1,0.2-0.1c0.1,0,0.2,0,0.2,0
					c0.1,0,0.2,0.1,0.3,0.1c0.1,0,0.2,0,0.3,0c0-0.7,0.1-1.3,0.1-1.9c0-0.6,0-1.2,0-1.8s0-1.2-0.1-1.9c0-0.6,0-1.3-0.1-2.1
					c-0.2,0-0.3-0.1-0.4,0c-0.1,0-0.2,0-0.4,0c-0.1,0-0.2,0-0.2,0c0,0-0.1,0-0.1-0.1c0-0.1,0-0.3,0-0.4c0-0.2,0-0.3,0-0.5
					c0-0.2,0-0.3,0-0.5c0-0.2,0-0.3,0-0.4c0.2-0.1,0.4-0.1,0.7-0.1c0.3,0,0.6,0,1,0c0.3,0,0.7,0,1,0c0.3,0,0.6,0,1,0
					c0.3,0,0.6,0,0.9,0c0.3,0,0.7,0,1,0c0.3,0,0.7,0,1,0.1c0.3,0,0.6,0.1,0.9,0.1c0.2,0,0.3,0.1,0.5,0.2c0.2,0.1,0.4,0.2,0.6,0.3
					c0.2,0.1,0.3,0.3,0.5,0.4c0.1,0.2,0.3,0.3,0.3,0.5c0.2,0.4,0.3,0.7,0.3,1.1c0.1,0.3,0.1,0.7,0,1.2c-0.1,0.4-0.2,0.8-0.4,1.2
					c-0.2,0.4-0.4,0.7-0.7,0.9c-0.2,0.2-0.4,0.3-0.5,0.4C74,150.7,73.8,150.8,73.5,150.9z M71.3,149.6c0.2,0,0.4,0,0.6-0.1
					c0.2-0.1,0.4-0.2,0.6-0.3c0.2-0.1,0.3-0.3,0.5-0.5c0.1-0.2,0.2-0.4,0.2-0.7c0-0.2,0-0.4-0.1-0.7s-0.2-0.4-0.3-0.6
					c-0.1-0.1-0.3-0.1-0.4-0.1c-0.2,0-0.3-0.1-0.5-0.1c-0.4-0.1-0.7-0.1-1-0.1c-0.3,0-0.6,0-0.9,0.1v3.1c0.2,0,0.5,0.1,0.7,0.1
					C70.9,149.6,71.1,149.6,71.3,149.6z"/>
				<path fill="#DB5102" d="M85.4,146.4c-0.2,0-0.4,0-0.7,0c-0.2,0-0.5,0-0.7,0s-0.5,0-0.7,0c-0.2,0-0.5,0-0.6,0.1c0,0.5,0,1,0,1.4
					s0,0.9,0,1.3c0.2,0,0.4,0.1,0.7,0c0.3,0,0.5,0,0.8,0c0.3,0,0.5,0,0.8,0c0.3,0,0.5,0,0.8,0.1c0.1,0.1,0.1,0.3,0.1,0.4
					c0,0.2,0,0.3,0,0.5s0,0.3,0,0.5c0,0.1,0,0.3,0.1,0.4c-0.1,0-0.1,0-0.1,0.1c-0.1,0.1-0.2,0.1-0.3,0.1s-0.2,0-0.3,0s-0.2,0-0.3,0
					s-0.2,0-0.3,0c-0.2,0-0.5,0-0.8,0.1c-0.3,0-0.6,0-0.9-0.1c-0.1,0.5-0.1,1,0,1.5s0.1,1,0,1.5c0.4,0.1,0.9,0.1,1.4,0.1
					c0.5,0,1,0,1.5-0.1c0-0.2,0-0.4,0-0.5c0-0.2-0.1-0.3-0.1-0.5c0-0.1,0.1-0.2,0.2-0.3c0.1-0.1,0.1-0.2,0.2-0.2c0.1,0,0.3,0,0.5,0
					c0.2,0,0.4,0,0.6,0c0.2,0,0.4,0,0.6,0c0.2,0,0.4,0.1,0.6,0.1c0,0.2,0,0.3,0,0.5c0,0.2,0,0.4-0.1,0.6c0,0.2,0,0.4-0.1,0.6
					c0,0.2,0,0.4,0,0.6c0,0.1,0,0.3,0.1,0.5s0,0.4,0,0.6c-0.1,0.1-0.2,0.1-0.4,0.1c-0.1,0-0.3,0-0.4,0c-0.2,0-0.5,0-0.7,0.1
					c-0.2,0-0.5,0.1-0.7,0.1c-0.1,0-0.3,0-0.5,0s-0.4,0-0.6,0s-0.4,0-0.6,0c-0.2,0-0.3,0-0.5,0c-0.8,0-1.5,0-2.3,0
					c-0.8,0-1.5,0-2.3,0c-0.2-0.1-0.3-0.2-0.3-0.4c0-0.2-0.1-0.3-0.1-0.5s0-0.4,0-0.6c0-0.2,0-0.4,0-0.7c0.1-0.1,0.3-0.1,0.4-0.1
					c0.1,0,0.3,0,0.5,0c0.1-1.2,0.1-2.5,0.1-3.7c0-1.2,0-2.5-0.1-3.9c-0.2,0-0.4,0-0.5,0c-0.2,0-0.3,0-0.4,0c0,0,0-0.1,0-0.2
					c0-0.1,0-0.3,0-0.5c0-0.2,0-0.3,0-0.5s-0.1-0.3-0.1-0.4c0.1,0,0.1-0.1,0.1-0.2s0-0.1,0-0.2c0.3-0.1,0.7-0.1,1.1-0.1
					c0.4,0,0.8,0,1.1,0c0.5,0,1-0.1,1.5,0c0.5,0,1,0,1.5,0c0.3,0,0.6,0,0.9,0.1s0.7,0,0.9,0c0.1,0,0.3,0,0.5,0c0.2,0,0.4,0,0.6-0.1
					c0.2,0,0.4,0,0.6,0c0.2,0,0.3,0.1,0.4,0.1c0.1,0.1,0.1,0.2,0.2,0.3c0,0.1,0,0.3,0,0.5c0,0.2-0.1,0.3-0.1,0.5
					c0,0.2-0.1,0.3-0.1,0.5c0,0.1,0,0.3,0,0.4c0,0.1,0,0.3,0.1,0.4c0,0.1,0,0.3,0,0.4c0,0.1,0,0.2-0.1,0.3c-0.2,0-0.4,0-0.7,0
					c-0.3,0-0.5,0-0.8,0.1c-0.2,0-0.5,0-0.6,0c-0.2,0-0.3-0.1-0.3-0.2c0-0.2,0-0.3,0-0.6S85.4,146.6,85.4,146.4z"/>
				<path fill="#DB5102" d="M99.2,144.5c0,0.3,0.1,0.5,0,0.8c0,0.2,0,0.5,0,0.8c0,0.2,0,0.4,0,0.7c0.1,0.2,0.1,0.4,0,0.6
					c0,0.1-0.1,0.2-0.2,0.2c-0.1,0-0.2,0.1-0.2,0.2c-0.3,0.1-0.7,0.1-1,0.2c-0.4,0-0.7-0.1-1-0.3c0-0.2,0-0.4,0-0.6
					c0-0.2,0-0.3,0-0.6c-0.3,0-0.5,0-0.7-0.1c-0.2,0-0.4,0-0.6,0s-0.4,0-0.5,0c-0.2,0-0.4,0-0.7,0.1c0,0.4,0,0.9,0,1.4s0,1-0.1,1.4
					c0.2,0,0.4,0,0.7,0s0.5,0,0.8,0s0.5,0,0.8,0s0.5,0.1,0.7,0.1c0,0.1,0,0.3,0,0.5c0,0.2,0,0.3,0,0.5s0,0.3,0,0.5
					c0,0.2-0.1,0.3-0.1,0.4c-0.1,0-0.2,0-0.3,0c-0.1,0-0.1-0.1-0.2-0.1c-0.2,0.1-0.3,0.1-0.5,0.2c-0.2,0-0.4,0-0.6,0
					c-0.2,0-0.4,0-0.6,0c-0.2,0-0.4,0-0.5,0c0,0.3,0,0.5,0,0.8c0,0.2,0,0.5,0,0.7c0,0.2,0,0.4,0,0.6c0,0.2,0,0.5,0,0.7
					c0.2,0.1,0.5,0.1,0.7,0.1c0.3,0,0.5,0,0.8,0c0.1,0.1,0.1,0.2,0.1,0.3s0,0.1-0.1,0.2c0,0.2,0,0.4,0,0.7c0,0.3,0,0.5,0,0.8
					c-0.1,0.1-0.2,0.1-0.3,0.1c-0.1,0-0.2,0-0.4,0c-0.3,0-0.7,0-1.1,0c-0.4,0-0.8,0-1.2,0.1c-0.3,0-0.6,0-0.9,0
					c-0.3-0.1-0.6-0.1-0.9,0c-0.1,0-0.1,0-0.2,0.1c-0.1,0-0.1,0-0.2,0.1c-0.1,0-0.1,0-0.2,0s-0.1,0-0.2-0.1c0-0.1,0-0.3,0-0.4
					c0-0.2,0-0.3,0-0.5c0-0.2,0-0.3,0-0.5c0-0.2,0-0.3-0.1-0.4c0.2,0,0.4,0,0.6,0c0.2,0,0.4,0,0.5,0c0.1-0.4,0.1-0.8,0-1.2
					c0-0.4,0-0.8,0-1.3c0-0.5,0-1.1,0.1-1.7c0-0.6,0-1.2,0-1.7c0-0.3,0-0.6,0-0.9s0-0.6,0-0.9c-0.1-0.1-0.2-0.1-0.3-0.1
					c-0.1,0-0.2,0-0.4,0s-0.2,0-0.4,0c-0.1,0-0.2,0-0.3-0.1c0-0.1,0-0.3,0-0.5s0-0.3,0-0.5c0-0.2,0-0.3,0-0.5c0-0.2,0-0.3,0-0.4
					c0.1-0.1,0.2-0.2,0.3-0.1s0.2,0,0.3,0.1c0.4,0,0.8,0,1.2,0c0.4,0,0.8,0,1.3,0s0.8,0,1.3,0s0.8,0,1.2,0c0.3,0,0.6,0,0.9,0
					c0.3,0,0.6,0,0.9,0c0.2,0,0.5,0,0.7,0c0.2,0,0.4,0.1,0.5,0.2C98.8,144.5,99,144.5,99.2,144.5z"/>
				<path fill="#DB5102" d="M108.5,150.9c0.2,0.1,0.3,0.3,0.5,0.4c0.1,0.2,0.2,0.3,0.3,0.4c0.2,0.2,0.3,0.5,0.4,0.7
					c0.1,0.3,0.2,0.5,0.4,0.8s0.3,0.4,0.5,0.6c0.2,0.2,0.4,0.3,0.8,0.3c0.2,0,0.4,0,0.6,0c0,0.2,0.1,0.3,0.1,0.5s0,0.4,0,0.5
					c0,0.2,0,0.3,0,0.5s-0.1,0.3-0.1,0.4c-0.3,0-0.6,0.1-0.9,0.1s-0.7,0-1.1,0s-0.7-0.1-1-0.2c-0.3-0.1-0.5-0.3-0.6-0.5
					c0,0,0-0.1-0.1-0.1c0-0.1-0.1-0.1-0.1-0.2s-0.1-0.2-0.1-0.2c0-0.1-0.1-0.1-0.1-0.2c-0.1-0.3-0.3-0.5-0.4-0.8
					c-0.1-0.3-0.3-0.6-0.5-0.8c-0.2-0.3-0.3-0.5-0.5-0.8s-0.3-0.5-0.5-0.7c-0.2,0-0.4,0-0.5,0c-0.2,0-0.3,0-0.4,0c0,0.2,0,0.4,0,0.6
					c0,0.2,0,0.3,0,0.5c0,0.2,0,0.3,0,0.5c0,0.2,0,0.4,0,0.6c0.1,0,0.2,0,0.3,0c0.1,0,0.2,0,0.2,0s0.2,0,0.2,0c0.1,0,0.2,0,0.2,0.1
					c0.1,0.1,0.2,0.2,0.2,0.3c0,0.1,0,0.3,0,0.5c0,0.2,0,0.4-0.1,0.6c0,0.2,0,0.4,0,0.5c-0.1,0.1-0.1,0.2-0.1,0.2
					c0,0-0.1,0.1-0.2,0.1c-0.1,0-0.1,0-0.2,0s-0.2,0-0.3,0c-0.2,0-0.3,0-0.6,0c-0.2,0-0.5,0-0.7,0c-0.3,0-0.5,0-0.8,0s-0.5,0-0.6,0
					c-0.1,0-0.2,0-0.4,0c-0.1,0-0.3,0-0.4,0s-0.3,0-0.4,0c-0.1,0-0.2,0-0.2,0c-0.1,0-0.1-0.1-0.1-0.2c0-0.1-0.1-0.2-0.1-0.3
					c0-0.1,0-0.2,0-0.4c0-0.1,0-0.3,0-0.5c0-0.2,0-0.3,0-0.5c0-0.2,0-0.3,0-0.5c0.1-0.1,0.1-0.1,0.2-0.1c0.1,0,0.2,0,0.2,0
					c0.1,0,0.2,0.1,0.3,0.1c0.1,0,0.2,0,0.3,0c0-0.7,0.1-1.3,0.1-1.9c0-0.6,0-1.2,0-1.8s0-1.2-0.1-1.9c0-0.6,0-1.3-0.1-2.1
					c-0.2,0-0.3-0.1-0.4,0c-0.1,0-0.2,0-0.4,0c-0.1,0-0.2,0-0.2,0c0,0-0.1,0-0.1-0.1c0-0.1,0-0.3,0-0.4c0-0.2,0-0.3,0-0.5
					c0-0.2,0-0.3,0-0.5c0-0.2,0-0.3,0-0.4c0.2-0.1,0.4-0.1,0.7-0.1c0.3,0,0.6,0,1,0c0.3,0,0.7,0,1,0c0.3,0,0.6,0,1,0
					c0.3,0,0.6,0,0.9,0c0.3,0,0.7,0,1,0c0.3,0,0.7,0,1,0.1c0.3,0,0.6,0.1,0.9,0.1c0.2,0,0.3,0.1,0.5,0.2c0.2,0.1,0.4,0.2,0.6,0.3
					c0.2,0.1,0.3,0.3,0.5,0.4c0.1,0.2,0.3,0.3,0.3,0.5c0.2,0.4,0.3,0.7,0.3,1.1c0.1,0.3,0.1,0.7,0,1.2c-0.1,0.4-0.2,0.8-0.4,1.2
					c-0.2,0.4-0.4,0.7-0.7,0.9c-0.2,0.2-0.4,0.3-0.5,0.4C109,150.7,108.7,150.8,108.5,150.9z M106.3,149.6c0.2,0,0.4,0,0.6-0.1
					c0.2-0.1,0.4-0.2,0.6-0.3c0.2-0.1,0.3-0.3,0.5-0.5c0.1-0.2,0.2-0.4,0.2-0.7c0-0.2,0-0.4-0.1-0.7s-0.2-0.4-0.3-0.6
					c-0.1-0.1-0.3-0.1-0.4-0.1c-0.2,0-0.3-0.1-0.5-0.1c-0.4-0.1-0.7-0.1-1-0.1c-0.3,0-0.6,0-0.9,0.1v3.1c0.2,0,0.5,0.1,0.7,0.1
					C105.9,149.6,106.1,149.6,106.3,149.6z"/>
				<path fill="#DB5102" d="M119.9,156.4c-0.1,0-0.3,0-0.5,0c-0.2,0-0.3,0-0.5,0c-0.8,0-1.5-0.1-2.1-0.3c-0.6-0.2-1.2-0.5-1.6-0.9
					c-0.1,0-0.1-0.1-0.2-0.2c-0.1-0.1-0.2-0.2-0.2-0.3c-0.1-0.1-0.2-0.2-0.2-0.3c-0.1-0.1-0.1-0.2-0.2-0.3c-0.1-0.1-0.2-0.3-0.4-0.6
					c-0.1-0.3-0.2-0.6-0.3-0.9c-0.1-0.3-0.2-0.7-0.2-1c-0.1-0.4-0.1-0.7-0.1-1.1c0-0.5,0.1-1,0.2-1.5s0.3-1.1,0.5-1.6
					c0.2-0.5,0.5-1,0.9-1.4s0.8-0.7,1.3-1c0.5-0.3,1-0.5,1.5-0.6c0.5-0.1,1-0.2,1.6-0.2c0.5,0,1,0.1,1.5,0.1c0.5,0.1,1,0.2,1.4,0.5
					c1,0.6,1.8,1.4,2.2,2.4c0.4,1,0.6,2.1,0.6,3.4c0,0.4,0,0.7,0,1c0,0.3-0.1,0.7-0.1,1c-0.2,0.5-0.4,1-0.7,1.4
					c-0.2,0.4-0.5,0.8-1,1.1c-0.2,0.2-0.4,0.3-0.6,0.4c-0.2,0.1-0.5,0.3-0.7,0.4c-0.3,0.1-0.5,0.2-0.8,0.3S120.2,156.4,119.9,156.4z
					 M122,150.7c0-0.1,0-0.3,0-0.4c0-0.1,0-0.3,0-0.4c0-0.2,0-0.5-0.1-0.8c-0.1-0.3-0.2-0.6-0.3-0.8c-0.1-0.3-0.3-0.5-0.4-0.8
					s-0.3-0.4-0.5-0.6c-0.1-0.1-0.2-0.2-0.3-0.2s-0.3-0.2-0.4-0.2c-0.1-0.1-0.3-0.1-0.4-0.2c-0.1,0-0.3-0.1-0.4-0.1
					c-0.3,0-0.7,0.1-1,0.3c-0.3,0.2-0.6,0.5-0.9,0.9c-0.3,0.4-0.5,0.8-0.6,1.2c-0.2,0.5-0.2,0.9-0.2,1.4c0,0.6,0.1,1.1,0.2,1.6
					c0.1,0.5,0.3,0.9,0.5,1.3c0.2,0.4,0.5,0.7,0.9,0.9c0.4,0.2,0.8,0.3,1.3,0.3c0.3,0,0.6,0,0.9-0.1c0.3-0.1,0.6-0.2,0.9-0.4
					c0.3-0.4,0.5-0.8,0.7-1.3C121.9,151.9,121.9,151.4,122,150.7z"/>
				<path fill="#DB5102" d="M139.2,144.5c0,0.3,0,0.5,0.1,0.8c0,0.3,0.1,0.5,0.1,0.7c0,0.1,0,0.2,0,0.3s-0.1,0.1-0.2,0.1
					c-0.1,0-0.2,0-0.3,0c-0.1,0-0.2,0-0.3,0c-0.1,0-0.2,0-0.2,0.1c0,0-0.1,0.1-0.1,0.2c0,0.1,0,0.1,0,0.2c0,0.1,0,0.1,0,0.2
					c0,0.3,0,0.6,0,0.9c0,0.3,0,0.6,0,0.9c0,0.4,0,0.9-0.1,1.3c0,0.4-0.1,0.8-0.1,1.3c0,0.5,0,1,0,1.5c0,0.5,0,1,0,1.4
					c0,0.3,0,0.6,0,0.9c0,0.3,0,0.6-0.1,0.9c-0.1,0.1-0.2,0.2-0.4,0.2c-0.2,0-0.4,0.1-0.6,0.1c-0.2,0-0.4,0-0.7,0
					c-0.2,0-0.4,0-0.5,0c-0.9-1.1-1.8-2.2-2.7-3.4c-0.9-1.2-1.7-2.4-2.5-3.6c0,0.2-0.1,0.5-0.1,0.7c0,0.2,0,0.5,0,0.7
					c0,0.4,0,0.8,0,1.2s0,0.8,0,1.2c0,0.2,0,0.4,0,0.6c0,0.2,0,0.4,0,0.6c0.1,0,0.2,0,0.3,0c0.1,0,0.2,0,0.3,0c0.1,0,0.2,0,0.3,0
					s0.2,0,0.2,0c0.1,0,0.1,0.1,0.2,0.2c0,0.1,0,0.2,0,0.3c0,0.1,0,0.3,0,0.4c0,0.1,0,0.3,0,0.4c0,0.2,0,0.3,0,0.4
					c0,0.1-0.2,0.1-0.4,0.1c-0.2,0-0.3,0-0.5,0c-0.2,0-0.3,0-0.5,0c-0.2,0-0.3,0-0.5,0.1c-0.2,0-0.4,0.1-0.6,0.1c-0.3,0-0.5,0-0.8,0
					c-0.3,0-0.5,0-0.8,0c-0.2,0-0.3,0-0.5,0c-0.2,0-0.3,0-0.5,0.1c0-0.1,0-0.1,0-0.2s0-0.1,0-0.2c0-0.2,0-0.4,0-0.6
					c0-0.2,0-0.4,0-0.6c0-0.2,0-0.3,0.1-0.3s0.3,0,0.6,0c0.1,0,0.2,0,0.3,0c0.1,0,0.2,0,0.3,0.1c0-0.3,0.1-0.7,0.1-1
					c0-0.3,0-0.7,0-1c0-0.8,0-1.6-0.1-2.3c0-0.8-0.1-1.5-0.1-2.2c0-0.2,0-0.4,0-0.6s0-0.4,0-0.6c-0.1-0.1-0.1-0.1-0.2-0.1
					c-0.1,0-0.2,0-0.2,0c-0.1,0-0.2,0-0.4,0c-0.1,0-0.2,0-0.4,0c-0.2,0-0.3,0-0.4-0.1c0-0.2,0-0.4,0-0.6c0-0.2,0-0.4,0-0.6
					c0-0.2,0-0.3,0.1-0.5s0.1-0.3,0.3-0.3c0.2,0.1,0.3,0.1,0.5,0.1c0.2,0,0.4,0,0.6,0c0.3,0,0.5,0,0.8,0c0.3,0,0.5,0,0.8,0
					c0.2,0,0.3,0,0.5,0s0.3,0,0.4,0.1c0.9,1.2,1.7,2.3,2.6,3.4c0.9,1.1,1.8,2.3,2.7,3.4c0.1-0.4,0.1-0.8,0.1-1.2
					c0-0.5,0-1.1-0.1-1.7c-0.1-0.6-0.1-1.2-0.1-1.8v-0.2c-0.1,0-0.1,0-0.2,0c-0.1,0-0.2,0-0.2,0c-0.1,0-0.2,0-0.2,0
					c-0.1,0-0.1,0-0.2,0c-0.1,0-0.1-0.1-0.2-0.2c0-0.3,0.1-0.5,0.1-0.8c0-0.3,0-0.6,0-0.8c0-0.1,0.1-0.1,0.2-0.1c0.1,0,0.2,0,0.4,0
					h0.2c0.2,0,0.5,0,0.7,0c0.3,0,0.5,0,0.8,0c0.4,0,0.8,0,1.2,0C138.6,144.4,138.9,144.5,139.2,144.5z"/>
				<path fill="#DB5102" d="M152.1,148c-0.1,0.1-0.3,0.1-0.5,0.1s-0.4,0-0.7,0c-0.2,0-0.4,0-0.6,0c-0.2,0-0.3,0-0.4-0.1
					c0,0,0-0.1,0-0.2s0-0.2,0-0.4s0-0.3,0-0.4c0-0.2,0-0.3,0-0.4c-0.2,0-0.3,0-0.4,0c-0.1,0-0.2,0-0.3,0c-0.1,0-0.2,0-0.4,0
					s-0.3,0-0.6,0c0,0.6,0,1.1,0,1.6s0.1,1,0.1,1.6c0,0.4,0,0.7,0,1.1c0,0.4,0,0.7-0.1,1.1s0,0.7,0,1.1c0,0.4,0,0.7,0.1,1.1
					c0.2,0,0.3,0,0.5,0s0.3,0,0.5,0c0.1,0.1,0.1,0.3,0.1,0.4c0,0.1,0,0.3,0,0.5c0,0.2,0,0.4,0,0.5c0,0.2,0,0.4,0,0.6
					c-0.1,0.1-0.2,0.2-0.4,0.2c-0.2,0-0.4,0-0.6,0c-0.2,0-0.4,0-0.7,0s-0.5,0-0.8,0s-0.6,0-0.8,0c-0.3,0-0.5,0-0.7,0
					c-0.1,0-0.2,0-0.3,0c-0.1,0-0.2,0-0.4,0s-0.2,0-0.3,0c-0.1,0-0.2,0-0.2,0c-0.1,0-0.1,0-0.1-0.1c0,0,0-0.1,0-0.1c0,0,0-0.1,0-0.1
					c0,0,0-0.1,0-0.2c0.1-0.3,0.1-0.5,0.1-0.7c0-0.2,0-0.5-0.1-0.7c0-0.1,0.1-0.1,0.2-0.2c0.1,0,0.2-0.1,0.3-0.1c0.1,0,0.2,0,0.4,0
					c0.1,0,0.2,0,0.3,0c0.1-1.2,0.2-2.4,0.2-3.7s-0.1-2.5-0.2-3.9c-0.3-0.1-0.5-0.1-0.8-0.1c-0.3,0-0.5,0-0.9,0c0,0.2,0,0.3,0,0.4
					c0,0.1,0,0.2,0,0.3s0,0.2,0,0.3c0,0.1,0,0.2,0,0.4c-0.1,0-0.3,0.1-0.5,0.1c-0.2,0-0.4,0-0.6,0c-0.2,0-0.4,0-0.7,0
					s-0.4,0-0.6-0.1c0-0.5,0.1-1.1,0-1.7s-0.1-1.2-0.2-1.7c0.8-0.1,1.7-0.2,2.5-0.2c0.8,0,1.6,0,2.4,0c0.8,0,1.6,0,2.4,0.1
					c0.8,0,1.6,0,2.5,0c0.1,0,0.2,0,0.4,0s0.3,0,0.4,0s0.3,0,0.4,0.1c0.1,0,0.2,0.1,0.2,0.1c0,0.1,0.1,0.3,0.1,0.6
					c0,0.2,0,0.4,0,0.6c0,0.4,0,0.7,0.1,1.1S152.2,147.6,152.1,148z"/>
				<path fill="#DB5102" d="M166.5,144.4c0,0.1,0,0.2,0,0.4c0,0.2,0,0.4,0,0.6c0,0.2,0,0.4,0,0.6c0,0.2-0.1,0.3-0.1,0.3
					c0,0-0.1,0-0.3,0c-0.2,0-0.3,0-0.5,0c-0.1,0.4-0.1,0.7-0.1,1.1c0,0.3,0,0.7,0,1c0,0.3,0,0.7,0,1c0,0.3,0,0.7,0,1.1
					c0,0.2,0,0.3,0,0.5c0,0.1,0,0.3,0,0.5c0,0.5,0,0.9-0.1,1.3c-0.1,0.4-0.1,0.9-0.1,1.4c0.5,0.1,1,0.1,1.4,0.1c0.5,0,0.9,0,1.3,0
					c0-0.1,0.1-0.3,0.1-0.4c0-0.1,0-0.2,0-0.3s0-0.2,0-0.3c0-0.1,0-0.2,0.1-0.2c0.1-0.1,0.3-0.1,0.5-0.1c0.2,0,0.4,0,0.7,0
					s0.4,0,0.6,0.1c0.2,0,0.4,0.1,0.5,0.1c0,0.3,0,0.6,0,0.8c0,0.3,0,0.5,0,0.8c0,0.3,0,0.5,0,0.8c0,0.2,0,0.5-0.1,0.7
					c-0.2,0-0.5,0.1-0.8,0.1c-0.3,0-0.7,0-1,0c-0.4,0-0.7,0-1.1,0c-0.4,0-0.8,0-1.1,0c-0.7,0.1-1.4,0.1-2.1,0
					c-0.8,0-1.5-0.1-2.3-0.1c-0.1-0.1-0.2-0.1-0.2-0.2c-0.1-0.1-0.1-0.1-0.1-0.2c0-0.1,0-0.2,0-0.3c0-0.1,0.1-0.3,0-0.4
					c0-0.1,0-0.2,0-0.3c0-0.1,0-0.2,0-0.2c0-0.2,0.1-0.4,0.3-0.4c0.2,0,0.4,0,0.6,0c0-0.4,0-0.9,0-1.4s0-1,0-1.6c0-0.5,0-1,0-1.5
					s0-0.8,0.1-1.1c0-0.4,0-0.8,0-1.2s0-0.8-0.1-1.2c-0.1,0-0.1-0.1-0.2-0.1s-0.2,0-0.3,0c-0.1,0-0.2,0-0.3,0c-0.1,0-0.2,0-0.2-0.1
					c0-0.1,0-0.2,0-0.4s0-0.3,0-0.5c0-0.2,0-0.3,0-0.5c0-0.2,0-0.3,0-0.4c0.1-0.1,0.2-0.1,0.4-0.1c0.1,0,0.3,0,0.4,0
					c0.1,0,0.3,0,0.5,0.1s0.3,0,0.5,0c0.2,0,0.4,0,0.6,0c0.2,0,0.4,0,0.5,0c0.1,0,0.3,0,0.4,0c0.2,0,0.3,0,0.5,0c0.2,0,0.3,0,0.5,0
					C166.2,144.3,166.3,144.4,166.5,144.4z"/>
				<path fill="#DB5102" d="M182,148c-0.1,0.1-0.3,0.1-0.5,0.1s-0.4,0-0.7,0c-0.2,0-0.4,0-0.6,0c-0.2,0-0.3,0-0.4-0.1
					c0,0,0-0.1,0-0.2s0-0.2,0-0.4s0-0.3,0-0.4c0-0.2,0-0.3,0-0.4c-0.2,0-0.3,0-0.4,0c-0.1,0-0.2,0-0.3,0c-0.1,0-0.2,0-0.4,0
					s-0.3,0-0.6,0c0,0.6,0,1.1,0,1.6s0.1,1,0.1,1.6c0,0.4,0,0.7,0,1.1c0,0.4,0,0.7-0.1,1.1s0,0.7,0,1.1c0,0.4,0,0.7,0.1,1.1
					c0.2,0,0.3,0,0.5,0s0.3,0,0.5,0c0.1,0.1,0.1,0.3,0.1,0.4c0,0.1,0,0.3,0,0.5c0,0.2,0,0.4,0,0.5c0,0.2,0,0.4,0,0.6
					c-0.1,0.1-0.2,0.2-0.4,0.2c-0.2,0-0.4,0-0.6,0c-0.2,0-0.4,0-0.7,0s-0.5,0-0.8,0s-0.6,0-0.8,0c-0.3,0-0.5,0-0.7,0
					c-0.1,0-0.2,0-0.3,0c-0.1,0-0.2,0-0.4,0s-0.2,0-0.3,0c-0.1,0-0.2,0-0.2,0c-0.1,0-0.1,0-0.1-0.1c0,0,0-0.1,0-0.1c0,0,0-0.1,0-0.1
					c0,0,0-0.1,0-0.2c0.1-0.3,0.1-0.5,0.1-0.7c0-0.2,0-0.5-0.1-0.7c0-0.1,0.1-0.1,0.2-0.2c0.1,0,0.2-0.1,0.3-0.1c0.1,0,0.2,0,0.4,0
					c0.1,0,0.2,0,0.3,0c0.1-1.2,0.2-2.4,0.2-3.7s-0.1-2.5-0.2-3.9c-0.3-0.1-0.5-0.1-0.8-0.1c-0.3,0-0.5,0-0.9,0c0,0.2,0,0.3,0,0.4
					c0,0.1,0,0.2,0,0.3s0,0.2,0,0.3c0,0.1,0,0.2,0,0.4c-0.1,0-0.3,0.1-0.5,0.1c-0.2,0-0.4,0-0.6,0c-0.2,0-0.4,0-0.7,0
					s-0.4,0-0.6-0.1c0-0.5,0.1-1.1,0-1.7s-0.1-1.2-0.2-1.7c0.8-0.1,1.7-0.2,2.5-0.2c0.8,0,1.6,0,2.4,0c0.8,0,1.6,0,2.4,0.1
					c0.8,0,1.6,0,2.5,0c0.1,0,0.2,0,0.4,0s0.3,0,0.4,0s0.3,0,0.4,0.1c0.1,0,0.2,0.1,0.2,0.1c0,0.1,0.1,0.3,0.1,0.6
					c0,0.2,0,0.4,0,0.6c0,0.4,0,0.7,0.1,1.1S182.1,147.6,182,148z"/>
				<path fill="#DB5102" d="M183.9,156.3c0-0.1,0-0.2,0-0.3s0-0.3,0-0.5c0-0.2,0-0.4,0-0.6c0-0.2,0-0.4,0-0.5
					c0.1-0.2,0.3-0.3,0.5-0.3c0.2,0,0.5,0,0.7,0.1c0-0.6,0-1.2,0-1.8c0-0.6-0.1-1.2-0.1-1.9c0-0.6-0.1-1.3-0.1-1.9
					c0-0.7,0-1.4,0.1-2.1c-0.2,0-0.4,0-0.6,0s-0.4,0-0.5-0.1c0-0.1,0-0.3,0-0.5c0-0.2,0-0.4,0-0.6c0-0.1,0-0.2,0-0.4s0-0.2,0-0.4
					c0-0.1,0.1-0.1,0.1-0.1c0,0,0,0,0.1,0c0.1,0,0.2,0,0.4,0s0.3,0,0.4,0c0.5,0,1,0,1.4,0c0.4,0,0.9,0,1.3,0s0.9,0,1.3,0
					s0.9,0,1.4,0.1c0.6,0.1,1.1,0.2,1.7,0.3c0.6,0.1,1,0.3,1.4,0.6c0.4,0.3,0.8,0.6,1.1,1c0.3,0.4,0.6,0.8,0.8,1.3
					c0.1,0.3,0.2,0.6,0.2,1c0,0.4,0.1,0.8,0.1,1.2s0,0.8-0.1,1.2c0,0.4-0.1,0.7-0.2,1c-0.1,0.6-0.2,1.1-0.5,1.5s-0.5,0.8-0.7,1.2
					c-0.1,0.1-0.2,0.3-0.4,0.4s-0.3,0.3-0.5,0.4c-0.2,0.1-0.4,0.2-0.6,0.3s-0.4,0.2-0.6,0.2c-0.2,0.1-0.5,0.1-0.8,0.1
					c-0.3,0-0.6,0.1-0.8,0.1c-0.3,0.1-0.6,0.1-0.9,0.1c-0.3,0-0.6,0-0.9,0s-0.6,0-0.9-0.1c-0.3,0-0.6,0-0.9,0c-0.5,0-1,0.1-1.5,0.1
					C184.9,156.4,184.4,156.4,183.9,156.3z M191.2,153.7c0.3-0.2,0.6-0.4,0.7-0.8c0.2-0.4,0.3-0.8,0.4-1.2c0.1-0.4,0.1-0.8,0.1-1.2
					c0-0.4,0-0.8-0.1-1.2c0-0.4-0.1-0.7-0.2-1c-0.1-0.3-0.3-0.6-0.4-0.8c-0.3-0.2-0.6-0.4-0.9-0.6c-0.3-0.2-0.7-0.3-1-0.3
					c-0.4,0-0.7,0-1-0.1c-0.3,0-0.6,0-0.9,0.2c-0.1,0.7-0.1,1.3-0.1,2s0,1.3,0,2c0,0.7,0,1.3,0.1,1.9c0,0.6,0,1.2,0,1.8
					c0.6,0.1,1.2,0.1,1.7,0S190.7,154.1,191.2,153.7z"/>
				<path fill="#DB5102" d="M199.8,151.8c0.4,0,0.7,0,1,0.1s0.5,0.2,0.7,0.4c0.3,0.2,0.6,0.6,0.7,1s0.2,0.9,0.1,1.3
					c-0.1,0.4-0.2,0.8-0.5,1.2c-0.3,0.3-0.6,0.6-1.1,0.6c-0.2,0-0.4,0.1-0.6,0.1c-0.2,0-0.5,0-0.7,0c-0.2,0-0.5-0.1-0.7-0.1
					c-0.2-0.1-0.4-0.1-0.5-0.2c-0.3-0.3-0.5-0.7-0.5-1.2c0-0.5,0-0.9,0.2-1.3c0.2-0.4,0.4-0.8,0.8-1.1
					C199,152.1,199.3,151.9,199.8,151.8z"/>
			</g>
		</g>
		<g>
			<path fill="#F7E588" d="M36.9,144.1c0,0.2,0,0.3,0,0.5c0,0.2,0,0.3,0,0.5c0,0.2,0,0.5,0,0.7c0,0.2,0,0.5,0,0.7c0,0.1,0,0.2,0,0.3
				c0,0.1,0,0.2,0,0.2s-0.1,0.1-0.1,0.2s-0.1,0.1-0.2,0.1c-0.2,0-0.4,0-0.7,0c-0.3,0-0.5,0-0.7,0c-0.1,0-0.2,0-0.3,0
				c-0.1,0-0.2,0-0.3,0c-0.1,0-0.2-0.1-0.2-0.2c0-0.1,0-0.2,0-0.4c0-0.1,0-0.2,0-0.3c0-0.1,0-0.2,0-0.4v-0.2c-0.2,0-0.3,0-0.5,0
				c-0.2,0-0.4,0-0.6,0c-0.3,0-0.5,0-0.8,0s-0.5,0.1-0.7,0.1c-0.2,0.1-0.4,0.2-0.5,0.3c-0.1,0.1-0.2,0.3-0.2,0.5
				c0,0.3,0.1,0.5,0.4,0.7c0.3,0.2,0.6,0.3,0.9,0.4c0.4,0.1,0.8,0.2,1.1,0.4c0.4,0.1,0.7,0.2,1,0.3c0.3,0.1,0.6,0.2,0.9,0.3
				c0.3,0.1,0.5,0.3,0.7,0.5c0.4,0.2,0.8,0.6,1.1,1c0.3,0.5,0.4,1,0.4,1.6c0,0.4-0.1,0.7-0.2,1c-0.1,0.3-0.3,0.6-0.4,0.9
				c-0.2,0.3-0.4,0.5-0.7,0.8s-0.5,0.4-0.8,0.6c-0.2,0.1-0.4,0.2-0.7,0.3c-0.3,0.1-0.5,0.1-0.8,0.2c-0.2,0.1-0.5,0.1-0.8,0.1
				s-0.6,0-0.9,0c-0.4,0-0.9,0-1.3-0.1s-0.8-0.1-1.2-0.2c-0.4-0.1-0.7-0.2-0.9-0.3c-0.3-0.1-0.5-0.2-0.6-0.3c0-0.4,0-0.7,0-1.1
				c0-0.4,0-0.7,0-1c0-0.2,0-0.3,0-0.4c0-0.1,0-0.3,0-0.4c0.2,0,0.6,0,0.9-0.1s0.7,0,1.1,0c0.2,0,0.4,0,0.5,0s0.2,0,0.2,0.1
				c0,0,0.1,0.1,0.1,0.1c0,0,0,0.1,0,0.2c0,0.1,0,0.2,0,0.4c0,0.1,0,0.3,0,0.4c0,0.2,0,0.3,0.1,0.5c0.4,0,0.8,0,1.1,0s0.6,0,0.9,0
				c0.3,0,0.5-0.1,0.8-0.2c0.2-0.1,0.4-0.2,0.6-0.4c0.1-0.1,0.1-0.2,0.2-0.3c0-0.1,0.1-0.2,0.1-0.3c0-0.2-0.1-0.4-0.3-0.6
				s-0.4-0.3-0.7-0.4c-0.3-0.1-0.6-0.2-0.9-0.3c-0.3-0.1-0.6-0.2-1-0.3c-0.3-0.1-0.6-0.2-0.9-0.3c-0.3-0.1-0.5-0.2-0.6-0.3
				c-0.1-0.1-0.2-0.1-0.4-0.2c-0.1-0.1-0.3-0.2-0.4-0.2s-0.3-0.2-0.4-0.3c-0.1-0.1-0.2-0.2-0.3-0.3c-0.1-0.1-0.2-0.2-0.3-0.4
				c-0.1-0.2-0.1-0.3-0.2-0.5c-0.1-0.2-0.1-0.4-0.1-0.6c0-0.2,0-0.4,0-0.5c0-0.4,0.1-0.7,0.1-0.9c0.1-0.3,0.2-0.5,0.3-0.7
				c0.1-0.2,0.3-0.4,0.4-0.6c0.2-0.2,0.4-0.4,0.7-0.6c0.2-0.1,0.4-0.3,0.7-0.4c0.3-0.1,0.5-0.2,0.8-0.2c0.3-0.1,0.6-0.1,0.8-0.1
				s0.5,0,0.8,0c0.3,0,0.6,0,1,0.1c0.4,0,0.8,0.1,1.2,0.2s0.8,0.1,1.1,0.2C36.4,143.8,36.7,143.9,36.9,144.1z"/>
			<path fill="#F7E588" d="M50.1,147.1c-0.1,0.1-0.3,0.1-0.5,0.1s-0.4,0-0.7,0c-0.2,0-0.4,0-0.6,0c-0.2,0-0.3,0-0.4-0.1
				c0,0,0-0.1,0-0.2s0-0.2,0-0.4s0-0.3,0-0.4c0-0.2,0-0.3,0-0.4c-0.2,0-0.3,0-0.4,0c-0.1,0-0.2,0-0.3,0c-0.1,0-0.2,0-0.4,0
				s-0.3,0-0.6,0c0,0.6,0,1.1,0,1.6s0.1,1,0.1,1.6c0,0.4,0,0.7,0,1.1c0,0.4,0,0.7-0.1,1.1s0,0.7,0,1.1c0,0.4,0,0.7,0.1,1.1
				c0.2,0,0.3,0,0.5,0s0.3,0,0.5,0c0.1,0.1,0.1,0.3,0.1,0.4c0,0.1,0,0.3,0,0.5c0,0.2,0,0.4,0,0.5c0,0.2,0,0.4,0,0.6
				c-0.1,0.1-0.2,0.2-0.4,0.2c-0.2,0-0.4,0-0.6,0c-0.2,0-0.4,0-0.7,0s-0.5,0-0.8,0s-0.6,0-0.8,0c-0.3,0-0.5,0-0.7,0
				c-0.1,0-0.2,0-0.3,0c-0.1,0-0.2,0-0.4,0s-0.2,0-0.3,0c-0.1,0-0.2,0-0.2,0c-0.1,0-0.1,0-0.1-0.1c0,0,0-0.1,0-0.1c0,0,0-0.1,0-0.1
				c0,0,0-0.1,0-0.2c0.1-0.3,0.1-0.5,0.1-0.7c0-0.2,0-0.5-0.1-0.7c0-0.1,0.1-0.1,0.2-0.2c0.1,0,0.2-0.1,0.3-0.1c0.1,0,0.2,0,0.4,0
				c0.1,0,0.2,0,0.3,0c0.1-1.2,0.2-2.4,0.2-3.7s-0.1-2.5-0.2-3.9c-0.3-0.1-0.5-0.1-0.8-0.1c-0.3,0-0.5,0-0.9,0c0,0.2,0,0.3,0,0.4
				c0,0.1,0,0.2,0,0.3s0,0.2,0,0.3c0,0.1,0,0.2,0,0.4c-0.1,0-0.3,0.1-0.5,0.1c-0.2,0-0.4,0-0.6,0c-0.2,0-0.4,0-0.7,0s-0.4,0-0.6-0.1
				c0-0.5,0.1-1.1,0-1.7s-0.1-1.2-0.2-1.7c0.8-0.1,1.7-0.2,2.5-0.2c0.8,0,1.6,0,2.4,0c0.8,0,1.6,0,2.4,0.1c0.8,0,1.6,0,2.5,0
				c0.1,0,0.2,0,0.4,0s0.3,0,0.4,0s0.3,0,0.4,0.1c0.1,0,0.2,0.1,0.2,0.1c0,0.1,0.1,0.3,0.1,0.6c0,0.2,0,0.4,0,0.6
				c0,0.4,0,0.7,0.1,1.1S50.2,146.7,50.1,147.1z"/>
			<path fill="#F7E588" d="M58.4,155.5c-0.1,0-0.3,0-0.5,0c-0.2,0-0.3,0-0.5,0c-0.8,0-1.5-0.1-2.1-0.3c-0.6-0.2-1.2-0.5-1.6-0.9
				c-0.1,0-0.1-0.1-0.2-0.2c-0.1-0.1-0.2-0.2-0.2-0.3c-0.1-0.1-0.2-0.2-0.2-0.3c-0.1-0.1-0.1-0.2-0.2-0.3c-0.1-0.1-0.2-0.3-0.4-0.6
				c-0.1-0.3-0.2-0.6-0.3-0.9c-0.1-0.3-0.2-0.7-0.2-1c-0.1-0.4-0.1-0.7-0.1-1.1c0-0.5,0.1-1,0.2-1.5s0.3-1.1,0.5-1.6
				c0.2-0.5,0.5-1,0.9-1.4s0.8-0.7,1.3-1c0.5-0.3,1-0.5,1.5-0.6c0.5-0.1,1-0.2,1.6-0.2c0.5,0,1,0.1,1.5,0.1c0.5,0.1,1,0.2,1.4,0.5
				c1,0.6,1.8,1.4,2.2,2.4c0.4,1,0.6,2.1,0.6,3.4c0,0.4,0,0.7,0,1c0,0.3-0.1,0.7-0.1,1c-0.2,0.5-0.4,1-0.7,1.4
				c-0.2,0.4-0.5,0.8-1,1.1c-0.2,0.2-0.4,0.3-0.6,0.4c-0.2,0.1-0.5,0.3-0.7,0.4c-0.3,0.1-0.5,0.2-0.8,0.3S58.8,155.5,58.4,155.5z
				 M60.5,149.8c0-0.1,0-0.3,0-0.4c0-0.1,0-0.3,0-0.4c0-0.2,0-0.5-0.1-0.8c-0.1-0.3-0.2-0.6-0.3-0.8c-0.1-0.3-0.3-0.5-0.4-0.8
				s-0.3-0.4-0.5-0.6c-0.1-0.1-0.2-0.2-0.3-0.2s-0.3-0.2-0.4-0.2c-0.1-0.1-0.3-0.1-0.4-0.2c-0.1,0-0.3-0.1-0.4-0.1
				c-0.3,0-0.7,0.1-1,0.3c-0.3,0.2-0.6,0.5-0.9,0.9c-0.3,0.4-0.5,0.8-0.6,1.2c-0.2,0.5-0.2,0.9-0.2,1.4c0,0.6,0.1,1.1,0.2,1.6
				c0.1,0.5,0.3,0.9,0.5,1.3c0.2,0.4,0.5,0.7,0.9,0.9c0.4,0.2,0.8,0.3,1.3,0.3c0.3,0,0.6,0,0.9-0.1c0.3-0.1,0.6-0.2,0.9-0.4
				c0.3-0.4,0.5-0.8,0.7-1.3C60.4,151,60.5,150.5,60.5,149.8z"/>
			<path fill="#F7E588" d="M72.6,150c0.2,0.1,0.3,0.3,0.5,0.4c0.1,0.2,0.2,0.3,0.3,0.4c0.2,0.2,0.3,0.5,0.4,0.7
				c0.1,0.3,0.2,0.5,0.4,0.8s0.3,0.4,0.5,0.6c0.2,0.2,0.4,0.3,0.8,0.3c0.2,0,0.4,0,0.6,0c0,0.2,0.1,0.3,0.1,0.5s0,0.4,0,0.5
				c0,0.2,0,0.3,0,0.5s-0.1,0.3-0.1,0.4c-0.3,0-0.6,0.1-0.9,0.1s-0.7,0-1.1,0s-0.7-0.1-1-0.2c-0.3-0.1-0.5-0.3-0.6-0.5
				c0,0,0-0.1-0.1-0.1c0-0.1-0.1-0.1-0.1-0.2s-0.1-0.2-0.1-0.2c0-0.1-0.1-0.1-0.1-0.2c-0.1-0.3-0.3-0.5-0.4-0.8
				c-0.1-0.3-0.3-0.6-0.5-0.8c-0.2-0.3-0.3-0.5-0.5-0.8s-0.3-0.5-0.5-0.7c-0.2,0-0.4,0-0.5,0c-0.2,0-0.3,0-0.4,0c0,0.2,0,0.4,0,0.6
				c0,0.2,0,0.3,0,0.5c0,0.2,0,0.3,0,0.5c0,0.2,0,0.4,0,0.6c0.1,0,0.2,0,0.3,0c0.1,0,0.2,0,0.2,0s0.2,0,0.2,0c0.1,0,0.2,0,0.2,0.1
				c0.1,0.1,0.2,0.2,0.2,0.3c0,0.1,0,0.3,0,0.5c0,0.2,0,0.4-0.1,0.6c0,0.2,0,0.4,0,0.5c-0.1,0.1-0.1,0.2-0.1,0.2
				c0,0-0.1,0.1-0.2,0.1c-0.1,0-0.1,0-0.2,0s-0.2,0-0.3,0c-0.2,0-0.3,0-0.6,0c-0.2,0-0.5,0-0.7,0c-0.3,0-0.5,0-0.8,0s-0.5,0-0.6,0
				c-0.1,0-0.2,0-0.4,0c-0.1,0-0.3,0-0.4,0s-0.3,0-0.4,0c-0.1,0-0.2,0-0.2,0c-0.1,0-0.1-0.1-0.1-0.2c0-0.1-0.1-0.2-0.1-0.3
				c0-0.1,0-0.2,0-0.4c0-0.1,0-0.3,0-0.5c0-0.2,0-0.3,0-0.5c0-0.2,0-0.3,0-0.5c0.1-0.1,0.1-0.1,0.2-0.1c0.1,0,0.2,0,0.2,0
				c0.1,0,0.2,0.1,0.3,0.1c0.1,0,0.2,0,0.3,0c0-0.7,0.1-1.3,0.1-1.9c0-0.6,0-1.2,0-1.8s0-1.2-0.1-1.9c0-0.6,0-1.3-0.1-2.1
				c-0.2,0-0.3-0.1-0.4,0c-0.1,0-0.2,0-0.4,0c-0.1,0-0.2,0-0.2,0c0,0-0.1,0-0.1-0.1c0-0.1,0-0.3,0-0.4c0-0.2,0-0.3,0-0.5
				c0-0.2,0-0.3,0-0.5c0-0.2,0-0.3,0-0.4c0.2-0.1,0.4-0.1,0.7-0.1c0.3,0,0.6,0,1,0c0.3,0,0.7,0,1,0c0.3,0,0.6,0,1,0
				c0.3,0,0.6,0,0.9,0c0.3,0,0.7,0,1,0c0.3,0,0.7,0,1,0.1c0.3,0,0.6,0.1,0.9,0.1c0.2,0,0.3,0.1,0.5,0.2c0.2,0.1,0.4,0.2,0.6,0.3
				c0.2,0.1,0.3,0.3,0.5,0.4c0.1,0.2,0.3,0.3,0.3,0.5c0.2,0.4,0.3,0.7,0.3,1.1c0.1,0.3,0.1,0.7,0,1.2c-0.1,0.4-0.2,0.8-0.4,1.2
				c-0.2,0.4-0.4,0.7-0.7,0.9c-0.2,0.2-0.4,0.3-0.5,0.4C73.1,149.8,72.9,149.9,72.6,150z M70.4,148.7c0.2,0,0.4,0,0.6-0.1
				c0.2-0.1,0.4-0.2,0.6-0.3c0.2-0.1,0.3-0.3,0.5-0.5c0.1-0.2,0.2-0.4,0.2-0.7c0-0.2,0-0.4-0.1-0.7s-0.2-0.4-0.3-0.6
				c-0.1-0.1-0.3-0.1-0.4-0.1c-0.2,0-0.3-0.1-0.5-0.1c-0.4-0.1-0.7-0.1-1-0.1c-0.3,0-0.6,0-0.9,0.1v3.1c0.2,0,0.5,0.1,0.7,0.1
				C70,148.7,70.2,148.7,70.4,148.7z"/>
			<path fill="#F7E588" d="M84.5,145.5c-0.2,0-0.4,0-0.7,0c-0.2,0-0.5,0-0.7,0s-0.5,0-0.7,0c-0.2,0-0.5,0-0.6,0.1c0,0.5,0,1,0,1.4
				s0,0.9,0,1.3c0.2,0,0.4,0.1,0.7,0c0.3,0,0.5,0,0.8,0c0.3,0,0.5,0,0.8,0c0.3,0,0.5,0,0.8,0.1c0.1,0.1,0.1,0.3,0.1,0.4
				c0,0.2,0,0.3,0,0.5s0,0.3,0,0.5c0,0.1,0,0.3,0.1,0.4c-0.1,0-0.1,0-0.1,0.1c-0.1,0.1-0.2,0.1-0.3,0.1s-0.2,0-0.3,0s-0.2,0-0.3,0
				s-0.2,0-0.3,0c-0.2,0-0.5,0-0.8,0.1c-0.3,0-0.6,0-0.9-0.1c-0.1,0.5-0.1,1,0,1.5s0.1,1,0,1.5c0.4,0.1,0.9,0.1,1.4,0.1
				c0.5,0,1,0,1.5-0.1c0-0.2,0-0.4,0-0.5c0-0.2-0.1-0.3-0.1-0.5c0-0.1,0.1-0.2,0.2-0.3c0.1-0.1,0.1-0.2,0.2-0.2c0.1,0,0.3,0,0.5,0
				c0.2,0,0.4,0,0.6,0c0.2,0,0.4,0,0.6,0c0.2,0,0.4,0.1,0.6,0.1c0,0.2,0,0.3,0,0.5c0,0.2,0,0.4-0.1,0.6c0,0.2,0,0.4-0.1,0.6
				c0,0.2,0,0.4,0,0.6c0,0.1,0,0.3,0.1,0.5s0,0.4,0,0.6c-0.1,0.1-0.2,0.1-0.4,0.1c-0.1,0-0.3,0-0.4,0c-0.2,0-0.5,0-0.7,0.1
				c-0.2,0-0.5,0.1-0.7,0.1c-0.1,0-0.3,0-0.5,0s-0.4,0-0.6,0s-0.4,0-0.6,0c-0.2,0-0.3,0-0.5,0c-0.8,0-1.5,0-2.3,0
				c-0.8,0-1.5,0-2.3,0c-0.2-0.1-0.3-0.2-0.3-0.4c0-0.2-0.1-0.3-0.1-0.5s0-0.4,0-0.6c0-0.2,0-0.4,0-0.7c0.1-0.1,0.3-0.1,0.4-0.1
				c0.1,0,0.3,0,0.5,0c0.1-1.2,0.1-2.5,0.1-3.7c0-1.2,0-2.5-0.1-3.9c-0.2,0-0.4,0-0.5,0c-0.2,0-0.3,0-0.4,0c0,0,0-0.1,0-0.2
				c0-0.1,0-0.3,0-0.5c0-0.2,0-0.3,0-0.5s-0.1-0.3-0.1-0.4c0.1,0,0.1-0.1,0.1-0.2s0-0.1,0-0.2c0.3-0.1,0.7-0.1,1.1-0.1
				c0.4,0,0.8,0,1.1,0c0.5,0,1-0.1,1.5,0c0.5,0,1,0,1.5,0c0.3,0,0.6,0,0.9,0.1s0.7,0,0.9,0c0.1,0,0.3,0,0.5,0c0.2,0,0.4,0,0.6-0.1
				c0.2,0,0.4,0,0.6,0c0.2,0,0.3,0.1,0.4,0.1c0.1,0.1,0.1,0.2,0.2,0.3c0,0.1,0,0.3,0,0.5c0,0.2-0.1,0.3-0.1,0.5
				c0,0.2-0.1,0.3-0.1,0.5c0,0.1,0,0.3,0,0.4c0,0.1,0,0.3,0.1,0.4c0,0.1,0,0.3,0,0.4c0,0.1,0,0.2-0.1,0.3c-0.2,0-0.4,0-0.7,0
				c-0.3,0-0.5,0-0.8,0.1c-0.2,0-0.5,0-0.6,0c-0.2,0-0.3-0.1-0.3-0.2c0-0.2,0-0.3,0-0.6S84.5,145.7,84.5,145.5z"/>
			<path fill="#F7E588" d="M98.3,143.6c0,0.3,0.1,0.5,0,0.8c0,0.2,0,0.5,0,0.8c0,0.2,0,0.4,0,0.7c0.1,0.2,0.1,0.4,0,0.6
				c0,0.1-0.1,0.2-0.2,0.2c-0.1,0-0.2,0.1-0.2,0.2c-0.3,0.1-0.7,0.1-1,0.2c-0.4,0-0.7-0.1-1-0.3c0-0.2,0-0.4,0-0.6
				c0-0.2,0-0.3,0-0.6c-0.3,0-0.5,0-0.7-0.1c-0.2,0-0.4,0-0.6,0s-0.4,0-0.5,0c-0.2,0-0.4,0-0.7,0.1c0,0.4,0,0.9,0,1.4s0,1-0.1,1.4
				c0.2,0,0.4,0,0.7,0s0.5,0,0.8,0s0.5,0,0.8,0s0.5,0.1,0.7,0.1c0,0.1,0,0.3,0,0.5c0,0.2,0,0.3,0,0.5s0,0.3,0,0.5
				c0,0.2-0.1,0.3-0.1,0.4c-0.1,0-0.2,0-0.3,0c-0.1,0-0.1-0.1-0.2-0.1c-0.2,0.1-0.3,0.1-0.5,0.2c-0.2,0-0.4,0-0.6,0
				c-0.2,0-0.4,0-0.6,0c-0.2,0-0.4,0-0.5,0c0,0.3,0,0.5,0,0.8c0,0.2,0,0.5,0,0.7c0,0.2,0,0.4,0,0.6c0,0.2,0,0.5,0,0.7
				c0.2,0.1,0.5,0.1,0.7,0.1c0.3,0,0.5,0,0.8,0c0.1,0.1,0.1,0.2,0.1,0.3s0,0.1-0.1,0.2c0,0.2,0,0.4,0,0.7c0,0.3,0,0.5,0,0.8
				c-0.1,0.1-0.2,0.1-0.3,0.1c-0.1,0-0.2,0-0.4,0c-0.3,0-0.7,0-1.1,0c-0.4,0-0.8,0-1.2,0.1c-0.3,0-0.6,0-0.9,0
				c-0.3-0.1-0.6-0.1-0.9,0c-0.1,0-0.1,0-0.2,0.1c-0.1,0-0.1,0-0.2,0.1c-0.1,0-0.1,0-0.2,0s-0.1,0-0.2-0.1c0-0.1,0-0.3,0-0.4
				c0-0.2,0-0.3,0-0.5c0-0.2,0-0.3,0-0.5c0-0.2,0-0.3-0.1-0.4c0.2,0,0.4,0,0.6,0c0.2,0,0.4,0,0.5,0c0.1-0.4,0.1-0.8,0-1.2
				c0-0.4,0-0.8,0-1.3c0-0.5,0-1.1,0.1-1.7c0-0.6,0-1.2,0-1.7c0-0.3,0-0.6,0-0.9s0-0.6,0-0.9c-0.1-0.1-0.2-0.1-0.3-0.1
				c-0.1,0-0.2,0-0.4,0s-0.2,0-0.4,0c-0.1,0-0.2,0-0.3-0.1c0-0.1,0-0.3,0-0.5s0-0.3,0-0.5c0-0.2,0-0.3,0-0.5c0-0.2,0-0.3,0-0.4
				c0.1-0.1,0.2-0.2,0.3-0.1s0.2,0,0.3,0.1c0.4,0,0.8,0,1.2,0c0.4,0,0.8,0,1.3,0s0.8,0,1.3,0s0.8,0,1.2,0c0.3,0,0.6,0,0.9,0
				c0.3,0,0.6,0,0.9,0c0.2,0,0.5,0,0.7,0c0.2,0,0.4,0.1,0.5,0.2C97.9,143.6,98.1,143.6,98.3,143.6z"/>
			<path fill="#F7E588" d="M107.6,150c0.2,0.1,0.3,0.3,0.5,0.4c0.1,0.2,0.2,0.3,0.3,0.4c0.2,0.2,0.3,0.5,0.4,0.7
				c0.1,0.3,0.2,0.5,0.4,0.8s0.3,0.4,0.5,0.6c0.2,0.2,0.4,0.3,0.8,0.3c0.2,0,0.4,0,0.6,0c0,0.2,0.1,0.3,0.1,0.5s0,0.4,0,0.5
				c0,0.2,0,0.3,0,0.5s-0.1,0.3-0.1,0.4c-0.3,0-0.6,0.1-0.9,0.1s-0.7,0-1.1,0s-0.7-0.1-1-0.2c-0.3-0.1-0.5-0.3-0.6-0.5
				c0,0,0-0.1-0.1-0.1c0-0.1-0.1-0.1-0.1-0.2s-0.1-0.2-0.1-0.2c0-0.1-0.1-0.1-0.1-0.2c-0.1-0.3-0.3-0.5-0.4-0.8
				c-0.1-0.3-0.3-0.6-0.5-0.8c-0.2-0.3-0.3-0.5-0.5-0.8s-0.3-0.5-0.5-0.7c-0.2,0-0.4,0-0.5,0c-0.2,0-0.3,0-0.4,0c0,0.2,0,0.4,0,0.6
				c0,0.2,0,0.3,0,0.5c0,0.2,0,0.3,0,0.5c0,0.2,0,0.4,0,0.6c0.1,0,0.2,0,0.3,0c0.1,0,0.2,0,0.2,0s0.2,0,0.2,0c0.1,0,0.2,0,0.2,0.1
				c0.1,0.1,0.2,0.2,0.2,0.3c0,0.1,0,0.3,0,0.5c0,0.2,0,0.4-0.1,0.6c0,0.2,0,0.4,0,0.5c-0.1,0.1-0.1,0.2-0.1,0.2
				c0,0-0.1,0.1-0.2,0.1c-0.1,0-0.1,0-0.2,0s-0.2,0-0.3,0c-0.2,0-0.3,0-0.6,0c-0.2,0-0.5,0-0.7,0c-0.3,0-0.5,0-0.8,0s-0.5,0-0.6,0
				c-0.1,0-0.2,0-0.4,0c-0.1,0-0.3,0-0.4,0s-0.3,0-0.4,0c-0.1,0-0.2,0-0.2,0c-0.1,0-0.1-0.1-0.1-0.2c0-0.1-0.1-0.2-0.1-0.3
				c0-0.1,0-0.2,0-0.4c0-0.1,0-0.3,0-0.5c0-0.2,0-0.3,0-0.5c0-0.2,0-0.3,0-0.5c0.1-0.1,0.1-0.1,0.2-0.1c0.1,0,0.2,0,0.2,0
				c0.1,0,0.2,0.1,0.3,0.1c0.1,0,0.2,0,0.3,0c0-0.7,0.1-1.3,0.1-1.9c0-0.6,0-1.2,0-1.8s0-1.2-0.1-1.9c0-0.6,0-1.3-0.1-2.1
				c-0.2,0-0.3-0.1-0.4,0c-0.1,0-0.2,0-0.4,0c-0.1,0-0.2,0-0.2,0c0,0-0.1,0-0.1-0.1c0-0.1,0-0.3,0-0.4c0-0.2,0-0.3,0-0.5
				c0-0.2,0-0.3,0-0.5c0-0.2,0-0.3,0-0.4c0.2-0.1,0.4-0.1,0.7-0.1c0.3,0,0.6,0,1,0c0.3,0,0.7,0,1,0c0.3,0,0.6,0,1,0
				c0.3,0,0.6,0,0.9,0c0.3,0,0.7,0,1,0c0.3,0,0.7,0,1,0.1c0.3,0,0.6,0.1,0.9,0.1c0.2,0,0.3,0.1,0.5,0.2c0.2,0.1,0.4,0.2,0.6,0.3
				c0.2,0.1,0.3,0.3,0.5,0.4c0.1,0.2,0.3,0.3,0.3,0.5c0.2,0.4,0.3,0.7,0.3,1.1c0.1,0.3,0.1,0.7,0,1.2c-0.1,0.4-0.2,0.8-0.4,1.2
				c-0.2,0.4-0.4,0.7-0.7,0.9c-0.2,0.2-0.4,0.3-0.5,0.4C108.1,149.8,107.8,149.9,107.6,150z M105.4,148.7c0.2,0,0.4,0,0.6-0.1
				c0.2-0.1,0.4-0.2,0.6-0.3c0.2-0.1,0.3-0.3,0.5-0.5c0.1-0.2,0.2-0.4,0.2-0.7c0-0.2,0-0.4-0.1-0.7s-0.2-0.4-0.3-0.6
				c-0.1-0.1-0.3-0.1-0.4-0.1c-0.2,0-0.3-0.1-0.5-0.1c-0.4-0.1-0.7-0.1-1-0.1c-0.3,0-0.6,0-0.9,0.1v3.1c0.2,0,0.5,0.1,0.7,0.1
				C105,148.7,105.2,148.7,105.4,148.7z"/>
			<path fill="#F7E588" d="M119,155.5c-0.1,0-0.3,0-0.5,0c-0.2,0-0.3,0-0.5,0c-0.8,0-1.5-0.1-2.1-0.3c-0.6-0.2-1.2-0.5-1.6-0.9
				c-0.1,0-0.1-0.1-0.2-0.2c-0.1-0.1-0.2-0.2-0.2-0.3c-0.1-0.1-0.2-0.2-0.2-0.3c-0.1-0.1-0.1-0.2-0.2-0.3c-0.1-0.1-0.2-0.3-0.4-0.6
				c-0.1-0.3-0.2-0.6-0.3-0.9c-0.1-0.3-0.2-0.7-0.2-1c-0.1-0.4-0.1-0.7-0.1-1.1c0-0.5,0.1-1,0.2-1.5s0.3-1.1,0.5-1.6
				c0.2-0.5,0.5-1,0.9-1.4s0.8-0.7,1.3-1c0.5-0.3,1-0.5,1.5-0.6c0.5-0.1,1-0.2,1.6-0.2c0.5,0,1,0.1,1.5,0.1c0.5,0.1,1,0.2,1.4,0.5
				c1,0.6,1.8,1.4,2.2,2.4c0.4,1,0.6,2.1,0.6,3.4c0,0.4,0,0.7,0,1c0,0.3-0.1,0.7-0.1,1c-0.2,0.5-0.4,1-0.7,1.4
				c-0.2,0.4-0.5,0.8-1,1.1c-0.2,0.2-0.4,0.3-0.6,0.4c-0.2,0.1-0.5,0.3-0.7,0.4c-0.3,0.1-0.5,0.2-0.8,0.3S119.3,155.5,119,155.5z
				 M121.1,149.8c0-0.1,0-0.3,0-0.4c0-0.1,0-0.3,0-0.4c0-0.2,0-0.5-0.1-0.8c-0.1-0.3-0.2-0.6-0.3-0.8c-0.1-0.3-0.3-0.5-0.4-0.8
				s-0.3-0.4-0.5-0.6c-0.1-0.1-0.2-0.2-0.3-0.2s-0.3-0.2-0.4-0.2c-0.1-0.1-0.3-0.1-0.4-0.2c-0.1,0-0.3-0.1-0.4-0.1
				c-0.3,0-0.7,0.1-1,0.3c-0.3,0.2-0.6,0.5-0.9,0.9c-0.3,0.4-0.5,0.8-0.6,1.2c-0.2,0.5-0.2,0.9-0.2,1.4c0,0.6,0.1,1.1,0.2,1.6
				c0.1,0.5,0.3,0.9,0.5,1.3c0.2,0.4,0.5,0.7,0.9,0.9c0.4,0.2,0.8,0.3,1.3,0.3c0.3,0,0.6,0,0.9-0.1c0.3-0.1,0.6-0.2,0.9-0.4
				c0.3-0.4,0.5-0.8,0.7-1.3C121,151,121,150.5,121.1,149.8z"/>
			<path fill="#F7E588" d="M138.3,143.6c0,0.3,0,0.5,0.1,0.8c0,0.3,0.1,0.5,0.1,0.7c0,0.1,0,0.2,0,0.3s-0.1,0.1-0.2,0.1
				c-0.1,0-0.2,0-0.3,0c-0.1,0-0.2,0-0.3,0c-0.1,0-0.2,0-0.2,0.1c0,0-0.1,0.1-0.1,0.2c0,0.1,0,0.1,0,0.2c0,0.1,0,0.1,0,0.2
				c0,0.3,0,0.6,0,0.9c0,0.3,0,0.6,0,0.9c0,0.4,0,0.9-0.1,1.3c0,0.4-0.1,0.8-0.1,1.3c0,0.5,0,1,0,1.5c0,0.5,0,1,0,1.4
				c0,0.3,0,0.6,0,0.9c0,0.3,0,0.6-0.1,0.9c-0.1,0.1-0.2,0.2-0.4,0.2c-0.2,0-0.4,0.1-0.6,0.1c-0.2,0-0.4,0-0.7,0c-0.2,0-0.4,0-0.5,0
				c-0.9-1.1-1.8-2.2-2.7-3.4c-0.9-1.2-1.7-2.4-2.5-3.6c0,0.2-0.1,0.5-0.1,0.7c0,0.2,0,0.5,0,0.7c0,0.4,0,0.8,0,1.2s0,0.8,0,1.2
				c0,0.2,0,0.4,0,0.6c0,0.2,0,0.4,0,0.6c0.1,0,0.2,0,0.3,0c0.1,0,0.2,0,0.3,0c0.1,0,0.2,0,0.3,0s0.2,0,0.2,0c0.1,0,0.1,0.1,0.2,0.2
				c0,0.1,0,0.2,0,0.3c0,0.1,0,0.3,0,0.4c0,0.1,0,0.3,0,0.4c0,0.2,0,0.3,0,0.4c0,0.1-0.2,0.1-0.4,0.1c-0.2,0-0.3,0-0.5,0
				c-0.2,0-0.3,0-0.5,0c-0.2,0-0.3,0-0.5,0.1c-0.2,0-0.4,0.1-0.6,0.1c-0.3,0-0.5,0-0.8,0c-0.3,0-0.5,0-0.8,0c-0.2,0-0.3,0-0.5,0
				c-0.2,0-0.3,0-0.5,0.1c0-0.1,0-0.1,0-0.2s0-0.1,0-0.2c0-0.2,0-0.4,0-0.6c0-0.2,0-0.4,0-0.6c0-0.2,0-0.3,0.1-0.3s0.3,0,0.6,0
				c0.1,0,0.2,0,0.3,0c0.1,0,0.2,0,0.3,0.1c0-0.3,0.1-0.7,0.1-1c0-0.3,0-0.7,0-1c0-0.8,0-1.6-0.1-2.3c0-0.8-0.1-1.5-0.1-2.2
				c0-0.2,0-0.4,0-0.6s0-0.4,0-0.6c-0.1-0.1-0.1-0.1-0.2-0.1c-0.1,0-0.2,0-0.2,0c-0.1,0-0.2,0-0.4,0c-0.1,0-0.2,0-0.4,0
				c-0.2,0-0.3,0-0.4-0.1c0-0.2,0-0.4,0-0.6c0-0.2,0-0.4,0-0.6c0-0.2,0-0.3,0.1-0.5s0.1-0.3,0.3-0.3c0.2,0.1,0.3,0.1,0.5,0.1
				c0.2,0,0.4,0,0.6,0c0.3,0,0.5,0,0.8,0c0.3,0,0.5,0,0.8,0c0.2,0,0.3,0,0.5,0s0.3,0,0.4,0.1c0.9,1.2,1.7,2.3,2.6,3.4
				c0.9,1.1,1.8,2.3,2.7,3.4c0.1-0.4,0.1-0.8,0.1-1.2c0-0.5,0-1.1-0.1-1.7c-0.1-0.6-0.1-1.2-0.1-1.8v-0.2c-0.1,0-0.1,0-0.2,0
				c-0.1,0-0.2,0-0.2,0c-0.1,0-0.2,0-0.2,0c-0.1,0-0.1,0-0.2,0c-0.1,0-0.1-0.1-0.2-0.2c0-0.3,0.1-0.5,0.1-0.8c0-0.3,0-0.6,0-0.8
				c0-0.1,0.1-0.1,0.2-0.1c0.1,0,0.2,0,0.4,0h0.2c0.2,0,0.5,0,0.7,0c0.3,0,0.5,0,0.8,0c0.4,0,0.8,0,1.2,0
				C137.7,143.6,138,143.6,138.3,143.6z"/>
			<path fill="#F7E588" d="M151.2,147.1c-0.1,0.1-0.3,0.1-0.5,0.1s-0.4,0-0.7,0c-0.2,0-0.4,0-0.6,0c-0.2,0-0.3,0-0.4-0.1
				c0,0,0-0.1,0-0.2s0-0.2,0-0.4s0-0.3,0-0.4c0-0.2,0-0.3,0-0.4c-0.2,0-0.3,0-0.4,0c-0.1,0-0.2,0-0.3,0c-0.1,0-0.2,0-0.4,0
				s-0.3,0-0.6,0c0,0.6,0,1.1,0,1.6s0.1,1,0.1,1.6c0,0.4,0,0.7,0,1.1c0,0.4,0,0.7-0.1,1.1s0,0.7,0,1.1c0,0.4,0,0.7,0.1,1.1
				c0.2,0,0.3,0,0.5,0s0.3,0,0.5,0c0.1,0.1,0.1,0.3,0.1,0.4c0,0.1,0,0.3,0,0.5c0,0.2,0,0.4,0,0.5c0,0.2,0,0.4,0,0.6
				c-0.1,0.1-0.2,0.2-0.4,0.2c-0.2,0-0.4,0-0.6,0c-0.2,0-0.4,0-0.7,0s-0.5,0-0.8,0s-0.6,0-0.8,0c-0.3,0-0.5,0-0.7,0
				c-0.1,0-0.2,0-0.3,0c-0.1,0-0.2,0-0.4,0s-0.2,0-0.3,0c-0.1,0-0.2,0-0.2,0c-0.1,0-0.1,0-0.1-0.1c0,0,0-0.1,0-0.1c0,0,0-0.1,0-0.1
				c0,0,0-0.1,0-0.2c0.1-0.3,0.1-0.5,0.1-0.7c0-0.2,0-0.5-0.1-0.7c0-0.1,0.1-0.1,0.2-0.2c0.1,0,0.2-0.1,0.3-0.1c0.1,0,0.2,0,0.4,0
				c0.1,0,0.2,0,0.3,0c0.1-1.2,0.2-2.4,0.2-3.7s-0.1-2.5-0.2-3.9c-0.3-0.1-0.5-0.1-0.8-0.1c-0.3,0-0.5,0-0.9,0c0,0.2,0,0.3,0,0.4
				c0,0.1,0,0.2,0,0.3s0,0.2,0,0.3c0,0.1,0,0.2,0,0.4c-0.1,0-0.3,0.1-0.5,0.1c-0.2,0-0.4,0-0.6,0c-0.2,0-0.4,0-0.7,0s-0.4,0-0.6-0.1
				c0-0.5,0.1-1.1,0-1.7s-0.1-1.2-0.2-1.7c0.8-0.1,1.7-0.2,2.5-0.2c0.8,0,1.6,0,2.4,0c0.8,0,1.6,0,2.4,0.1c0.8,0,1.6,0,2.5,0
				c0.1,0,0.2,0,0.4,0s0.3,0,0.4,0s0.3,0,0.4,0.1c0.1,0,0.2,0.1,0.2,0.1c0,0.1,0.1,0.3,0.1,0.6c0,0.2,0,0.4,0,0.6
				c0,0.4,0,0.7,0.1,1.1S151.3,146.7,151.2,147.1z"/>
			<path fill="#F7E588" d="M165.6,143.5c0,0.1,0,0.2,0,0.4c0,0.2,0,0.4,0,0.6c0,0.2,0,0.4,0,0.6c0,0.2-0.1,0.3-0.1,0.3
				c0,0-0.1,0-0.3,0c-0.2,0-0.3,0-0.5,0c-0.1,0.4-0.1,0.7-0.1,1.1c0,0.3,0,0.7,0,1c0,0.3,0,0.7,0,1c0,0.3,0,0.7,0,1.1
				c0,0.2,0,0.3,0,0.5c0,0.1,0,0.3,0,0.5c0,0.5,0,0.9-0.1,1.3c-0.1,0.4-0.1,0.9-0.1,1.4c0.5,0.1,1,0.1,1.4,0.1c0.5,0,0.9,0,1.3,0
				c0-0.1,0.1-0.3,0.1-0.4c0-0.1,0-0.2,0-0.3s0-0.2,0-0.3c0-0.1,0-0.2,0.1-0.2c0.1-0.1,0.3-0.1,0.5-0.1c0.2,0,0.4,0,0.7,0
				s0.4,0,0.6,0.1c0.2,0,0.4,0.1,0.5,0.1c0,0.3,0,0.6,0,0.8c0,0.3,0,0.5,0,0.8c0,0.3,0,0.5,0,0.8c0,0.2,0,0.5-0.1,0.7
				c-0.2,0-0.5,0.1-0.8,0.1c-0.3,0-0.7,0-1,0c-0.4,0-0.7,0-1.1,0c-0.4,0-0.8,0-1.1,0c-0.7,0.1-1.4,0.1-2.1,0c-0.8,0-1.5-0.1-2.3-0.1
				c-0.1-0.1-0.2-0.1-0.2-0.2c-0.1-0.1-0.1-0.1-0.1-0.2c0-0.1,0-0.2,0-0.3c0-0.1,0.1-0.3,0-0.4c0-0.1,0-0.2,0-0.3c0-0.1,0-0.2,0-0.2
				c0-0.2,0.1-0.4,0.3-0.4c0.2,0,0.4,0,0.6,0c0-0.4,0-0.9,0-1.4s0-1,0-1.6c0-0.5,0-1,0-1.5s0-0.8,0.1-1.1c0-0.4,0-0.8,0-1.2
				s0-0.8-0.1-1.2c-0.1,0-0.1-0.1-0.2-0.1s-0.2,0-0.3,0c-0.1,0-0.2,0-0.3,0c-0.1,0-0.2,0-0.2-0.1c0-0.1,0-0.2,0-0.4s0-0.3,0-0.5
				c0-0.2,0-0.3,0-0.5c0-0.2,0-0.3,0-0.4c0.1-0.1,0.2-0.1,0.4-0.1c0.1,0,0.3,0,0.4,0c0.1,0,0.3,0,0.5,0.1s0.3,0,0.5,0
				c0.2,0,0.4,0,0.6,0c0.2,0,0.4,0,0.5,0c0.1,0,0.3,0,0.4,0c0.2,0,0.3,0,0.5,0c0.2,0,0.3,0,0.5,0
				C165.3,143.5,165.4,143.5,165.6,143.5z"/>
			<path fill="#F7E588" d="M181.1,147.1c-0.1,0.1-0.3,0.1-0.5,0.1s-0.4,0-0.7,0c-0.2,0-0.4,0-0.6,0c-0.2,0-0.3,0-0.4-0.1
				c0,0,0-0.1,0-0.2s0-0.2,0-0.4s0-0.3,0-0.4c0-0.2,0-0.3,0-0.4c-0.2,0-0.3,0-0.4,0c-0.1,0-0.2,0-0.3,0c-0.1,0-0.2,0-0.4,0
				s-0.3,0-0.6,0c0,0.6,0,1.1,0,1.6s0.1,1,0.1,1.6c0,0.4,0,0.7,0,1.1c0,0.4,0,0.7-0.1,1.1s0,0.7,0,1.1c0,0.4,0,0.7,0.1,1.1
				c0.2,0,0.3,0,0.5,0s0.3,0,0.5,0c0.1,0.1,0.1,0.3,0.1,0.4c0,0.1,0,0.3,0,0.5c0,0.2,0,0.4,0,0.5c0,0.2,0,0.4,0,0.6
				c-0.1,0.1-0.2,0.2-0.4,0.2c-0.2,0-0.4,0-0.6,0c-0.2,0-0.4,0-0.7,0s-0.5,0-0.8,0s-0.6,0-0.8,0c-0.3,0-0.5,0-0.7,0
				c-0.1,0-0.2,0-0.3,0c-0.1,0-0.2,0-0.4,0s-0.2,0-0.3,0c-0.1,0-0.2,0-0.2,0c-0.1,0-0.1,0-0.1-0.1c0,0,0-0.1,0-0.1c0,0,0-0.1,0-0.1
				c0,0,0-0.1,0-0.2c0.1-0.3,0.1-0.5,0.1-0.7c0-0.2,0-0.5-0.1-0.7c0-0.1,0.1-0.1,0.2-0.2c0.1,0,0.2-0.1,0.3-0.1c0.1,0,0.2,0,0.4,0
				c0.1,0,0.2,0,0.3,0c0.1-1.2,0.2-2.4,0.2-3.7s-0.1-2.5-0.2-3.9c-0.3-0.1-0.5-0.1-0.8-0.1c-0.3,0-0.5,0-0.9,0c0,0.2,0,0.3,0,0.4
				c0,0.1,0,0.2,0,0.3s0,0.2,0,0.3c0,0.1,0,0.2,0,0.4c-0.1,0-0.3,0.1-0.5,0.1c-0.2,0-0.4,0-0.6,0c-0.2,0-0.4,0-0.7,0s-0.4,0-0.6-0.1
				c0-0.5,0.1-1.1,0-1.7s-0.1-1.2-0.2-1.7c0.8-0.1,1.7-0.2,2.5-0.2c0.8,0,1.6,0,2.4,0c0.8,0,1.6,0,2.4,0.1c0.8,0,1.6,0,2.5,0
				c0.1,0,0.2,0,0.4,0s0.3,0,0.4,0s0.3,0,0.4,0.1c0.1,0,0.2,0.1,0.2,0.1c0,0.1,0.1,0.3,0.1,0.6c0,0.2,0,0.4,0,0.6
				c0,0.4,0,0.7,0.1,1.1S181.2,146.7,181.1,147.1z"/>
			<path fill="#F7E588" d="M183,155.4c0-0.1,0-0.2,0-0.3s0-0.3,0-0.5c0-0.2,0-0.4,0-0.6c0-0.2,0-0.4,0-0.5c0.1-0.2,0.3-0.3,0.5-0.3
				c0.2,0,0.5,0,0.7,0.1c0-0.6,0-1.2,0-1.8c0-0.6-0.1-1.2-0.1-1.9c0-0.6-0.1-1.3-0.1-1.9c0-0.7,0-1.4,0.1-2.1c-0.2,0-0.4,0-0.6,0
				s-0.4,0-0.5-0.1c0-0.1,0-0.3,0-0.5c0-0.2,0-0.4,0-0.6c0-0.1,0-0.2,0-0.4s0-0.2,0-0.4c0-0.1,0.1-0.1,0.1-0.1c0,0,0,0,0.1,0
				c0.1,0,0.2,0,0.4,0s0.3,0,0.4,0c0.5,0,1,0,1.4,0c0.4,0,0.9,0,1.3,0s0.9,0,1.3,0s0.9,0,1.4,0.1c0.6,0.1,1.1,0.2,1.7,0.3
				c0.6,0.1,1,0.3,1.4,0.6c0.4,0.3,0.8,0.6,1.1,1c0.3,0.4,0.6,0.8,0.8,1.3c0.1,0.3,0.2,0.6,0.2,1c0,0.4,0.1,0.8,0.1,1.2
				s0,0.8-0.1,1.2c0,0.4-0.1,0.7-0.2,1c-0.1,0.6-0.2,1.1-0.5,1.5s-0.5,0.8-0.7,1.2c-0.1,0.1-0.2,0.3-0.4,0.4s-0.3,0.3-0.5,0.4
				c-0.2,0.1-0.4,0.2-0.6,0.3s-0.4,0.2-0.6,0.2c-0.2,0.1-0.5,0.1-0.8,0.1c-0.3,0-0.6,0.1-0.8,0.1c-0.3,0.1-0.6,0.1-0.9,0.1
				c-0.3,0-0.6,0-0.9,0s-0.6,0-0.9-0.1c-0.3,0-0.6,0-0.9,0c-0.5,0-1,0.1-1.5,0.1C184,155.5,183.5,155.5,183,155.4z M190.3,152.8
				c0.3-0.2,0.6-0.4,0.7-0.8c0.2-0.4,0.3-0.8,0.4-1.2c0.1-0.4,0.1-0.8,0.1-1.2c0-0.4,0-0.8-0.1-1.2c0-0.4-0.1-0.7-0.2-1
				c-0.1-0.3-0.3-0.6-0.4-0.8c-0.3-0.2-0.6-0.4-0.9-0.6c-0.3-0.2-0.7-0.3-1-0.3c-0.4,0-0.7,0-1-0.1c-0.3,0-0.6,0-0.9,0.2
				c-0.1,0.7-0.1,1.3-0.1,2s0,1.3,0,2c0,0.7,0,1.3,0.1,1.9c0,0.6,0,1.2,0,1.8c0.6,0.1,1.2,0.1,1.7,0S189.8,153.2,190.3,152.8z"/>
			<path fill="#F7E588" d="M198.9,150.9c0.4,0,0.7,0,1,0.1s0.5,0.2,0.7,0.4c0.3,0.2,0.6,0.6,0.7,1s0.2,0.9,0.1,1.3
				c-0.1,0.4-0.2,0.8-0.5,1.2c-0.3,0.3-0.6,0.6-1.1,0.6c-0.2,0-0.4,0.1-0.6,0.1c-0.2,0-0.5,0-0.7,0c-0.2,0-0.5-0.1-0.7-0.1
				c-0.2-0.1-0.4-0.1-0.5-0.2c-0.3-0.3-0.5-0.7-0.5-1.2c0-0.5,0-0.9,0.2-1.3c0.2-0.4,0.4-0.8,0.8-1.1
				C198.1,151.2,198.4,151,198.9,150.9z"/>
		</g>
		
			<rect x="22" y="134.2" fill="none" stroke="#F7E588" stroke-width="1.7952" stroke-linecap="round" stroke-linejoin="round" stroke-miterlimit="10" width="183.6" height="30.1"/>
	</g>
	<g>
		<polyline fill="#333333" points="91.3,292.9 91.3,209.9 136.3,209.9 136.3,292.9 		"/>
		<ellipse fill="#E6C634" cx="126.2" cy="255.5" rx="4.2" ry="4.3"/>
	</g>
	<g>
		<g>
			<polygon fill="#C69C6D" points="0,205.3 13.5,172.3 214.2,172.3 227.6,205.3 			"/>
			<path fill="#A67C52" d="M216.1,205.3h-4.7h-7.7H199h-7.7h-4.7h-7.7h-4.7h-7.7h-4.7H154h-4.7h-7.7h-4.7h-7.7h-4.7h-7.7h-4.7h-7.7
				h-4.7h-7.7h-4.7h-7.7h-4.7h-7.7h-4.7h-7.7H50h-7.7h-4.7h-7.7h-4.7h-7.7h-4.7H0.3c0,5.2,3.8,9.4,8.6,9.4c2.4,0,4.7-1.1,6.2-3
				c1.6,1.8,3.8,3,6.2,3s4.7-1.1,6.2-3c1.6,1.8,3.8,3,6.2,3s4.7-1.1,6.2-3c1.6,1.8,3.8,3,6.2,3c2.4,0,4.7-1.1,6.2-3
				c1.6,1.8,3.8,3,6.2,3c2.4,0,4.7-1.1,6.2-3c1.6,1.8,3.8,3,6.2,3s4.7-1.1,6.2-3c1.6,1.8,3.8,3,6.2,3c2.4,0,4.7-1.1,6.2-3
				c1.6,1.8,3.8,3,6.2,3s4.7-1.1,6.2-3c1.6,1.8,3.8,3,6.2,3c2.4,0,4.7-1.1,6.2-3c1.6,1.8,3.8,3,6.2,3c2.4,0,4.7-1.1,6.2-3
				c1.6,1.8,3.8,3,6.2,3c2.4,0,4.7-1.1,6.2-3c1.6,1.8,3.8,3,6.2,3c2.4,0,4.7-1.1,6.2-3c1.6,1.8,3.8,3,6.2,3s4.7-1.1,6.2-3
				c1.6,1.8,3.8,3,6.2,3c2.4,0,4.7-1.1,6.2-3c1.6,1.8,3.8,3,6.2,3c2.4,0,4.7-1.1,6.2-3c1.6,1.8,3.8,3,6.2,3c2.4,0,4.7-1.1,6.2-3
				c1.6,1.8,3.8,3,6.2,3s4.7-1.1,6.2-3c1.6,1.8,3.8,3,6.2,3c4.7,0,7.7-4.2,7.7-9.4H216.1z"/>
		</g>
		
			<polygon opacity="0.4" fill="none" stroke="#F7E588" stroke-width="1.7946" stroke-linecap="round" stroke-linejoin="round" stroke-miterlimit="10" points="
			8.1,198.7 218.7,198.7 210.2,175.9 17.3,175.9 		"/>
	</g>
	<g opacity="0.15">
		<rect x="42" y="247.1" fill="#333333" width="12.2" height="20.4"/>
		
			<rect x="59.3" y="247.1" transform="matrix(0.8313 -0.5558 0.5558 0.8313 -132.517 78.091)" fill="#333333" width="6.1" height="20.4"/>
		
			<rect x="67.5" y="247.1" transform="matrix(0.8313 -0.5558 0.5558 0.8313 -131.1323 82.6531)" fill="#333333" width="6.1" height="20.4"/>
		<circle fill="#333333" cx="154" cy="259.9" r="7.6"/>
		<g>
			<path fill="#333333" d="M190.8,239.1c0.6-0.6,1.4-0.7,2-0.4l0.1-0.1c0.4-0.9,1-1.9,2-2.8c0.9-0.9,1.9-1.6,2.8-2
				c0,0,0.2-0.2,0.4-0.4c0.2-0.2,0.1-0.7-0.3-1.1l-2.3-2.3c-0.4-0.4-0.9-0.5-1.1-0.3l-0.4,0.4c-0.4,0.9-1,1.9-2,2.9
				c-0.9,0.9-1.9,1.6-2.9,2l-0.1,0.1c0.4,0.6,0.3,1.5-0.3,2.2l-6.1,6.1c-0.3,0-0.7-0.2-1.3-1.1c-1-1.6-3.4-2.5-5.3,0.9
				c-2,3.4-0.3,4-5.9,4.6l0,0c-2,0.1-3.8,0.9-5.2,2.3c-3.4,3.4-3,9.2,0.9,13.1c3.8,3.8,9.7,4.2,13.1,0.9c0.1-0.1,0.1-0.1,0.2-0.2
				l0,0c0,0,0,0,0.1-0.1c0.3-0.3,0.5-0.6,0.7-0.9c0.9-1.2,2.1-3.4,1.8-5.8c-0.4-3.5,2.9-3.3,4.2-4.2c1.4-0.9,1.8-1.6,1.9-2.5
				c0,0-1.6,1.1-3.1-0.3c-1.2-1.2-0.7-3.2-0.1-4.3L190.8,239.1z"/>
		</g>
	</g>
</g>
</svg>
