<?xml version="1.0" encoding="utf-8"?>
<!-- Generator: Adobe Illustrator 18.1.1, SVG Export Plug-In . SVG Version: 6.00 Build 0)  -->
<!DOCTYPE svg PUBLIC "-//W3C//DTD SVG 1.1//EN" "http://www.w3.org/Graphics/SVG/1.1/DTD/svg11.dtd">
<svg version="1.1" id="Layer_1" xmlns="http://www.w3.org/2000/svg" xmlns:xlink="http://www.w3.org/1999/xlink" x="0px" y="0px"
	 viewBox="0 0 874.5 580.5" enable-background="new 0 0 874.5 580.5" xml:space="preserve">
<g>
	<g>
		<path fill="none" stroke="#E0BB9B" stroke-width="10.7796" stroke-miterlimit="10" d="M588.3,244.8"/>
		<g>
			<circle fill="none" stroke="#FFFFFF" stroke-miterlimit="10" cx="560.7" cy="160.5" r="3.2"/>
			<path fill="none" stroke="#FFFFFF" stroke-miterlimit="10" d="M544.5,157.8v-5.7c0-5.6,4.6-10.2,10.2-10.2h6.5
				c5.6,0,10.2,4.6,10.2,10.2V169c0,5.6-4.6,10.2-10.2,10.2h-6.5c-5.6,0-10.2-4.6-10.2-10.2v-6.1"/>
			<path fill="none" stroke="#FFFFFF" stroke-miterlimit="10" d="M553.2,160.5c0,1.5-6.8,2.8-10.8,2.8c-4,0-3.6-1.2-3.6-2.8
				c0-1.5-0.4-2.8,3.6-2.8C546.3,157.8,553.2,159,553.2,160.5z"/>
			<polygon fill="none" stroke="#FFFFFF" stroke-miterlimit="10" points="539.7,156.1 538.8,154.4 539.7,152.7 541.7,152.7 
				542.6,154.4 541.7,156.1 			"/>
			<polygon fill="none" stroke="#FFFFFF" stroke-miterlimit="10" points="539.7,168.8 538.8,167.1 539.7,165.5 541.7,165.5 
				542.6,167.1 541.7,168.8 			"/>
		</g>
		<g>
			<circle fill="none" stroke="#FFFFFF" stroke-miterlimit="10" cx="560.7" cy="114.2" r="3.2"/>
			<path fill="none" stroke="#FFFFFF" stroke-miterlimit="10" d="M544.5,111.5v-5.7c0-5.6,4.6-10.2,10.2-10.2h6.5
				c5.6,0,10.2,4.6,10.2,10.2v16.9c0,5.6-4.6,10.2-10.2,10.2h-6.5c-5.6,0-10.2-4.6-10.2-10.2v-6.1"/>
			<path fill="none" stroke="#FFFFFF" stroke-miterlimit="10" d="M553.2,114.2c0,1.5-6.8,2.8-10.8,2.8c-4,0-3.6-1.2-3.6-2.8
				s-0.4-2.8,3.6-2.8C546.3,111.4,553.2,112.7,553.2,114.2z"/>
			<polygon fill="none" stroke="#FFFFFF" stroke-miterlimit="10" points="539.7,109.7 538.8,108.1 539.7,106.4 541.7,106.4 
				542.6,108.1 541.7,109.7 			"/>
			<polygon fill="none" stroke="#FFFFFF" stroke-miterlimit="10" points="539.7,122.5 538.8,120.8 539.7,119.1 541.7,119.1 
				542.6,120.8 541.7,122.5 			"/>
		</g>
		<g>
			<ellipse fill="none" stroke="#FFFFFF" stroke-miterlimit="10" cx="685.1" cy="124.9" rx="20.5" ry="15"/>
			<ellipse fill="none" stroke="#FFFFFF" stroke-miterlimit="10" cx="691.3" cy="124.9" rx="8.7" ry="7.4"/>
			<ellipse fill="none" stroke="#FFFFFF" stroke-miterlimit="10" cx="685.8" cy="124.9" rx="14.6" ry="10"/>
			<path fill="#465E61" stroke="#FFFFFF" stroke-miterlimit="10" d="M704.5,109h3.1c1.9,0,3.5,1.6,3.5,3.5v24.8
				c0,1.9-1.6,3.5-3.5,3.5h-3.1c-1.9,0-3.5-1.6-3.5-3.5v-24.8C701,110.6,702.6,109,704.5,109z"/>
		</g>
		<g>
			<ellipse fill="none" stroke="#FFFFFF" stroke-miterlimit="10" cx="685.1" cy="188.3" rx="20.5" ry="15"/>
			<ellipse fill="none" stroke="#FFFFFF" stroke-miterlimit="10" cx="691.3" cy="188.3" rx="8.7" ry="7.4"/>
			<ellipse fill="none" stroke="#FFFFFF" stroke-miterlimit="10" cx="685.8" cy="188.3" rx="14.6" ry="10"/>
			<path fill="#465E61" stroke="#FFFFFF" stroke-miterlimit="10" d="M704.5,172.3h3.1c1.9,0,3.5,1.6,3.5,3.5v24.8
				c0,1.9-1.6,3.5-3.5,3.5h-3.1c-1.9,0-3.5-1.6-3.5-3.5v-24.8C701,173.9,702.6,172.3,704.5,172.3z"/>
		</g>
		<g>
			<ellipse fill="none" stroke="#FFFFFF" stroke-miterlimit="10" cx="685.1" cy="250.7" rx="20.5" ry="15"/>
			<ellipse fill="none" stroke="#FFFFFF" stroke-miterlimit="10" cx="691.3" cy="250.7" rx="8.7" ry="7.4"/>
			<ellipse fill="none" stroke="#FFFFFF" stroke-miterlimit="10" cx="685.8" cy="250.7" rx="14.6" ry="10"/>
			<path fill="#465E61" stroke="#FFFFFF" stroke-miterlimit="10" d="M704.5,234.8h3.1c1.9,0,3.5,1.6,3.5,3.5v24.8
				c0,1.9-1.6,3.5-3.5,3.5h-3.1c-1.9,0-3.5-1.6-3.5-3.5v-24.8C701,236.3,702.6,234.8,704.5,234.8z"/>
		</g>
	</g>
	<polygon fill="none" stroke="#FFFFFF" stroke-miterlimit="10" points="765.9,0.5 756.9,0.5 756.9,39.7 574.2,39.7 550.2,63.7 
		550.2,76.6 559.2,76.6 559.2,67.4 577.9,48.7 757.5,48.7 757.5,108.1 744.7,120.9 718.2,120.9 718.2,128.9 748,128.9 757.5,119.4 
		757.5,172.8 744.7,185.7 718.2,185.7 718.2,193.7 748,193.7 757.5,184.2 757.5,235.2 744.7,248 718.2,248 718.2,256 748,256 
		765.5,238.5 765.5,176.2 765.5,173 765.5,111.4 765.5,110.6 765.5,48.7 765.9,48.7 	"/>
	<circle fill="#FFFFFF" cx="760.5" cy="44" r="13.4"/>
	<path fill="#68BCC2" d="M764.1,45.5c0,2.7-1.6,3.8-3.6,3.8s-3.6-1.1-3.6-3.8c0-2.7,3.6-8.1,3.6-8.1S764.1,42.8,764.1,45.5z"/>
</g>
</svg>
