<?xml version="1.0" encoding="utf-8"?>
<!-- Generator: Adobe Illustrator 18.1.1, SVG Export Plug-In . SVG Version: 6.00 Build 0)  -->
<!DOCTYPE svg PUBLIC "-//W3C//DTD SVG 1.1//EN" "http://www.w3.org/Graphics/SVG/1.1/DTD/svg11.dtd">
<svg version="1.1" id="Layer_1" xmlns="http://www.w3.org/2000/svg" xmlns:xlink="http://www.w3.org/1999/xlink" x="0px" y="0px"
	 viewBox="0 0 874.5 580.5" enable-background="new 0 0 874.5 580.5" xml:space="preserve">
<g>
	<polygon fill="#35484A" stroke="#FFFFFF" stroke-miterlimit="10" points="496.5,403.8 480.5,387.9 480.5,294.2 469,282.6 
		497.6,253.9 497.6,168.8 520.4,146 617.3,146 617.3,56.8 587.3,56.8 587.3,116 507.9,116 467.6,156.4 467.6,241.5 448,261.1 
		83.2,261.1 83.2,291.1 355.9,291.1 355.9,431.7 385.9,431.7 385.9,291.1 435.1,291.1 450.5,306.6 450.5,400.3 484,433.8 
		649.1,433.8 649.1,403.8 	"/>
	<g>
		<line fill="none" stroke="#FFFFFF" stroke-miterlimit="10" stroke-dasharray="3" x1="82.5" y1="290.7" x2="82.2" y2="261.5"/>
		<line fill="none" stroke="#FFFFFF" stroke-miterlimit="10" stroke-dasharray="3" x1="132.8" y1="290.4" x2="132.4" y2="261.5"/>
		<line fill="none" stroke="#FFFFFF" stroke-miterlimit="10" stroke-dasharray="3" x1="183" y1="290.1" x2="182.6" y2="261.6"/>
		<line fill="none" stroke="#FFFFFF" stroke-miterlimit="10" stroke-dasharray="3" x1="233.2" y1="289.8" x2="232.8" y2="261.6"/>
		<line fill="none" stroke="#FFFFFF" stroke-miterlimit="10" stroke-dasharray="3" x1="283.5" y1="289.5" x2="282.9" y2="261.6"/>
		<line fill="none" stroke="#FFFFFF" stroke-miterlimit="10" stroke-dasharray="3" x1="333.7" y1="289.2" x2="333.1" y2="261.7"/>
		<line fill="none" stroke="#FFFFFF" stroke-miterlimit="10" stroke-dasharray="3" x1="384" y1="288.9" x2="383.3" y2="261.7"/>
		<line fill="none" stroke="#FFFFFF" stroke-miterlimit="10" stroke-dasharray="3" x1="434.2" y1="288.6" x2="433.5" y2="261.7"/>
		<line fill="none" stroke="#FFFFFF" stroke-miterlimit="10" stroke-dasharray="3" x1="485.2" y1="263.7" x2="466.6" y2="244.7"/>
		<line fill="none" stroke="#FFFFFF" stroke-miterlimit="10" stroke-dasharray="3" x1="494.9" y1="206.2" x2="468.7" y2="206.9"/>
		<line fill="none" stroke="#FFFFFF" stroke-miterlimit="10" stroke-dasharray="3" x1="495.6" y1="167.1" x2="476.7" y2="149.3"/>
		<line fill="none" stroke="#FFFFFF" stroke-miterlimit="10" stroke-dasharray="3" x1="525.5" y1="143.8" x2="524.7" y2="118.2"/>
		<line fill="none" stroke="#FFFFFF" stroke-miterlimit="10" stroke-dasharray="3" x1="575.8" y1="143.7" x2="574.9" y2="118.4"/>
		<line fill="none" stroke="#FFFFFF" stroke-miterlimit="10" stroke-dasharray="3" x1="614.3" y1="106.7" x2="589.4" y2="107.3"/>
		<line fill="none" stroke="#FFFFFF" stroke-miterlimit="10" stroke-dasharray="3" x1="614.8" y1="56.5" x2="590.2" y2="57.1"/>
	</g>
	<g>
		<line fill="none" stroke="#FFFFFF" stroke-miterlimit="10" stroke-dasharray="3" x1="355.9" y1="431.7" x2="385.9" y2="431.7"/>
		<line fill="none" stroke="#FFFFFF" stroke-miterlimit="10" stroke-dasharray="3" x1="355.9" y1="384.7" x2="385.9" y2="384.7"/>
		<line fill="none" stroke="#FFFFFF" stroke-miterlimit="10" stroke-dasharray="3" x1="355.9" y1="337.7" x2="385.9" y2="337.7"/>
		<line fill="none" stroke="#FFFFFF" stroke-miterlimit="10" stroke-dasharray="3" x1="355.9" y1="290.7" x2="385.9" y2="290.7"/>
	</g>
	<g>
		<line fill="none" stroke="#FFFFFF" stroke-miterlimit="10" stroke-dasharray="3" x1="448.1" y1="303.7" x2="470.7" y2="283.9"/>
		<line fill="none" stroke="#FFFFFF" stroke-miterlimit="10" stroke-dasharray="3" x1="451.4" y1="334.2" x2="481.4" y2="334.2"/>
		<line fill="none" stroke="#FFFFFF" stroke-miterlimit="10" stroke-dasharray="3" x1="451.4" y1="383.6" x2="481.4" y2="383.6"/>
		<line fill="none" stroke="#FFFFFF" stroke-miterlimit="10" stroke-dasharray="3" x1="550.4" y1="404.3" x2="550.4" y2="434.3"/>
		<line fill="none" stroke="#FFFFFF" stroke-miterlimit="10" stroke-dasharray="3" x1="599.5" y1="404.3" x2="599.5" y2="434.3"/>
		<line fill="none" stroke="#FFFFFF" stroke-miterlimit="10" stroke-dasharray="3" x1="503.1" y1="404.3" x2="503.1" y2="434.3"/>
	</g>
</g>
</svg>
