<?xml version="1.0" encoding="utf-8"?>
<!-- Generator: Adobe Illustrator 18.1.1, SVG Export Plug-In . SVG Version: 6.00 Build 0)  -->
<!DOCTYPE svg PUBLIC "-//W3C//DTD SVG 1.1//EN" "http://www.w3.org/Graphics/SVG/1.1/DTD/svg11.dtd">
<svg version="1.1" id="Layer_1" xmlns="http://www.w3.org/2000/svg" xmlns:xlink="http://www.w3.org/1999/xlink" x="0px" y="0px"
	 viewBox="0 0 874.5 580.5" enable-background="new 0 0 874.5 580.5" xml:space="preserve">
<g>
	<path fill="none" stroke="#FFFFFF" stroke-width="1.2581" stroke-miterlimit="10" d="M151.7,359.4l1.5,33.7
		c0.1,3.2-0.8,5.7-2.1,5.4l-8.8-1.5c-1.1-0.2-2-2.6-2.2-5.5l-1.4-29.5c-0.1-2.8,0.6-5.3,1.6-5.6l8.6-2.3
		C150.4,353.8,151.5,356.2,151.7,359.4z"/>
	<polyline fill="none" stroke="#FFFFFF" stroke-width="1.2581" stroke-miterlimit="10" points="149.1,354.2 153.8,354 154.9,357.2 
		156.7,395.4 155.8,398.4 151.1,398.6 	"/>
	<polyline fill="none" stroke="#FFFFFF" stroke-width="1.2581" stroke-miterlimit="10" points="139.8,382.3 136.8,382.4 
		134.8,386.8 134,369.5 136.4,374 139.4,373.9 	"/>
	<path fill="none" stroke="#FFFFFF" stroke-width="1.2581" stroke-miterlimit="10" d="M247.4,460.9l33.7,0.9
		c3.2,0.1,5.6,1.2,5.3,2.5l-2.1,8.6c-0.3,1.1-2.8,1.8-5.6,1.8l-29.5-0.8c-2.8-0.1-5.3-1-5.5-2l-1.7-8.7
		C241.8,461.8,244.2,460.8,247.4,460.9z"/>
	<polyline fill="none" stroke="#FFFFFF" stroke-width="1.2581" stroke-miterlimit="10" points="242,463.1 242.1,458.4 245.4,457.5 
		283.7,458.5 286.6,459.6 286.4,464.3 	"/>
	<polyline fill="none" stroke="#FFFFFF" stroke-width="1.2581" stroke-miterlimit="10" points="269.4,474.4 269.3,477.4 
		273.5,479.7 256.2,479.3 260.9,477.2 261,474.2 	"/>
	<g>
		<rect x="374.7" y="330.8" fill="none" stroke="#FFFFFF" stroke-miterlimit="10" width="59" height="57.9"/>
		<rect x="396.4" y="330.8" fill="none" stroke="#FFFFFF" stroke-miterlimit="10" width="37.2" height="62.9"/>
		<rect x="396.4" y="330.8" fill="none" stroke="#FFFFFF" stroke-miterlimit="10" width="37.2" height="39.1"/>
		<rect x="374.7" y="330.8" fill="none" stroke="#FFFFFF" stroke-miterlimit="10" width="19" height="62.9"/>
		<rect x="411.1" y="368.5" fill="#465E61" stroke="#FFFFFF" stroke-miterlimit="10" width="17.3" height="11.6"/>
		<polyline fill="#465E61" stroke="#FFFFFF" stroke-miterlimit="10" points="374.7,340.5 368.1,338.8 368.1,358.8 374.7,357 		"/>
		<polyline fill="#465E61" stroke="#FFFFFF" stroke-miterlimit="10" points="428.4,336.6 419.7,340.9 419.7,357.8 428,360.9 		"/>
	</g>
	<g>
		<rect x="299.3" y="325.8" fill="none" stroke="#FFFFFF" stroke-miterlimit="10" width="59" height="57.9"/>
		<rect x="321.1" y="325.8" fill="none" stroke="#FFFFFF" stroke-miterlimit="10" width="37.2" height="62.9"/>
		<rect x="321.1" y="325.8" fill="none" stroke="#FFFFFF" stroke-miterlimit="10" width="37.2" height="39.1"/>
		<rect x="299.3" y="325.8" fill="none" stroke="#FFFFFF" stroke-miterlimit="10" width="19" height="62.9"/>
		<rect x="335.7" y="363.6" fill="#465E61" stroke="#FFFFFF" stroke-miterlimit="10" width="17.3" height="11.6"/>
		<polyline fill="#465E61" stroke="#FFFFFF" stroke-miterlimit="10" points="299.3,335.5 292.8,333.8 292.8,353.8 299.3,352 		"/>
		<polyline fill="#465E61" stroke="#FFFFFF" stroke-miterlimit="10" points="353,331.7 344.4,335.9 344.4,352.8 352.6,355.9 		"/>
	</g>
</g>
</svg>
