<?xml version="1.0" encoding="utf-8"?>
<!-- Generator: Adobe Illustrator 18.1.0, SVG Export Plug-In . SVG Version: 6.00 Build 0)  -->
<!DOCTYPE svg PUBLIC "-//W3C//DTD SVG 1.1//EN" "http://www.w3.org/Graphics/SVG/1.1/DTD/svg11.dtd">
<svg version="1.1" id="Layer_1" xmlns="http://www.w3.org/2000/svg" xmlns:xlink="http://www.w3.org/1999/xlink" x="0px" y="0px"
	 viewBox="0 0 358.6 193.4" enable-background="new 0 0 358.6 193.4" xml:space="preserve">
<symbol  id="New_Symbol" viewBox="-33.7 -132.9 67.3 265.8">
	<g>
		<defs>
			<polygon id="SVGID_5_" points="8.8,-85.1 -22.2,-85.1 -22.2,82.9 8.8,82.9 			"/>
		</defs>
		<clipPath id="SVGID_1_">
			<use xlink:href="#SVGID_5_"  overflow="visible"/>
		</clipPath>
		<polygon clip-path="url(#SVGID_1_)" fill="#FFFFFF" points="8.8,-85.1 -22.2,-85.1 -22.2,82.9 8.8,82.9 		"/>
		<g clip-path="url(#SVGID_1_)">
			
				<line fill="#FF0010" stroke="#FF0000" stroke-width="7" stroke-linecap="round" stroke-linejoin="round" stroke-miterlimit="10" x1="-30.2" y1="119.4" x2="30.2" y2="59.1"/>
			
				<line fill="#FF0010" stroke="#FF0000" stroke-width="7" stroke-linecap="round" stroke-linejoin="round" stroke-miterlimit="10" x1="-30.2" y1="81.7" x2="30.2" y2="21.4"/>
			
				<line fill="#FF0010" stroke="#FF0000" stroke-width="7" stroke-linecap="round" stroke-linejoin="round" stroke-miterlimit="10" x1="-30.2" y1="44" x2="30.2" y2="-16.3"/>
			
				<line fill="#FF0010" stroke="#FF0000" stroke-width="7" stroke-linecap="round" stroke-linejoin="round" stroke-miterlimit="10" x1="-30.2" y1="6.3" x2="30.2" y2="-54"/>
			
				<line fill="#FF0010" stroke="#FF0000" stroke-width="7" stroke-linecap="round" stroke-linejoin="round" stroke-miterlimit="10" x1="-30.2" y1="-31.4" x2="30.2" y2="-91.7"/>
			
				<line fill="#FF0010" stroke="#FF0000" stroke-width="7" stroke-linecap="round" stroke-linejoin="round" stroke-miterlimit="10" x1="-30.2" y1="-69.1" x2="30.2" y2="-129.4"/>
		</g>
		<g clip-path="url(#SVGID_1_)">
			
				<line fill="none" stroke="#008CBF" stroke-width="7" stroke-linecap="round" stroke-linejoin="round" stroke-miterlimit="10" x1="-30.2" y1="129.4" x2="30.2" y2="69.1"/>
			
				<line fill="none" stroke="#008CBF" stroke-width="7" stroke-linecap="round" stroke-linejoin="round" stroke-miterlimit="10" x1="-30.2" y1="91.7" x2="30.2" y2="31.4"/>
			
				<line fill="none" stroke="#008CBF" stroke-width="7" stroke-linecap="round" stroke-linejoin="round" stroke-miterlimit="10" x1="-30.2" y1="54" x2="30.2" y2="-6.3"/>
			
				<line fill="none" stroke="#008CBF" stroke-width="7" stroke-linecap="round" stroke-linejoin="round" stroke-miterlimit="10" x1="-30.2" y1="16.3" x2="30.2" y2="-44"/>
			
				<line fill="none" stroke="#008CBF" stroke-width="7" stroke-linecap="round" stroke-linejoin="round" stroke-miterlimit="10" x1="-30.2" y1="-21.4" x2="30.2" y2="-81.7"/>
			
				<line fill="none" stroke="#008CBF" stroke-width="7" stroke-linecap="round" stroke-linejoin="round" stroke-miterlimit="10" x1="-30.2" y1="-59.1" x2="30.2" y2="-119.4"/>
		</g>
	</g>
	<path fill="#DEDEDE" d="M14.8,81.3h-42c0,0,1.7,22,21,22S14.8,81.3,14.8,81.3z"/>
	<path fill="#DEDEDE" d="M-27.2-78.6h42c0,0-4-19-22-19S-27.2-78.6-27.2-78.6z"/>
</symbol>
<g>
	<rect x="25.2" y="51.1" fill="#D1814F" width="310.1" height="142.3"/>
	<g>
		<rect x="23.4" y="47.9" fill="#2FB3B3" width="311.8" height="15.2"/>
	</g>
	<g>
		<linearGradient id="SVGID_2_" gradientUnits="userSpaceOnUse" x1="49.5807" y1="183.9758" x2="150.5285" y2="99.2705">
			<stop  offset="0" style="stop-color:#C5EDE8"/>
			<stop  offset="0.2532" style="stop-color:#FBFEFD"/>
			<stop  offset="0.2582" style="stop-color:#DEF5F2"/>
			<stop  offset="0.2615" style="stop-color:#C5EDE8"/>
			<stop  offset="0.4216" style="stop-color:#DEF5F2"/>
			<stop  offset="0.6325" style="stop-color:#FFFFFF"/>
			<stop  offset="0.8004" style="stop-color:#C9EEE9"/>
			<stop  offset="0.8045" style="stop-color:#D8F3EF"/>
			<stop  offset="1" style="stop-color:#C5EDE8"/>
		</linearGradient>
		
			<rect x="43.5" y="106.5" fill="url(#SVGID_2_)" stroke="#7DA6B3" stroke-width="4" stroke-miterlimit="10" width="113.1" height="70.3"/>
	</g>
	<g>
		<polyline fill="#485D78" points="190.1,193 190.1,124 231.1,124 231.1,193 		"/>
		<circle fill="#E6C634" cx="221.4" cy="159.5" r="3.9"/>
	</g>
	<text transform="matrix(1 0 0 1 72.9978 46.9364)" fill="#CC3D3D" font-family="'BriteScript-Regular'" font-size="42.247">Hairdresser</text>
	<g>
		<g>
			<polygon fill="#2FB3B3" points="132.3,149.2 134.4,149.3 107.5,135.2 101.2,138.2 			"/>
			<path fill="#2FB3B3" d="M98.4,129.4L85,116.7c0-0.3,0.1-0.6,0.1-0.8c0.1-3.7-2.8-7.2-6.9-8.2c-2.3-0.6-4.6-0.4-6.6,0.6
				c-2,1-3.5,2.7-4,4.7c-0.1,0.5-0.2,1-0.2,1.5c0,0,0,0,0,0c-0.1,2.8,1.6,5.5,4.2,7.1c-0.1,0.2-0.1,0.4-0.1,0.6c0,1.1,0.8,2,1.9,2
				c0.9,0,1.6-0.5,1.9-1.3c1.9,0.3,3.9,0,5.5-0.8c1.1-0.5,2.1-1.3,2.8-2.2l10.1,10.9L98.4,129.4z M79.8,120c-1.5,0.7-3.2,0.9-5,0.4
				c-3-0.8-5.2-3.3-5.1-5.9c0-0.3,0.1-0.7,0.1-1c0.4-1.4,1.3-2.5,2.7-3.2c1.5-0.7,3.2-0.9,5-0.4c3,0.8,5.2,3.3,5.1,5.9
				c0,0.3-0.1,0.7-0.1,1C82.2,118.2,81.2,119.3,79.8,120z"/>
			<path fill="#2FB3B3" d="M67.3,165c0.5-0.3,3.1-5.8,6.1-5.9c1.1,0.1,2.2,0.1,3.3-0.1c4.1-0.8,7.2-4.1,7.3-7.8c0-0.1,0-0.2,0-0.3
				l15.8-13.7l35-17l-3.1,0.4l-36.4,11.2l-0.2,4.3l-12.5,10.7c-0.6-0.8-1.4-1.5-2.4-2.1c-1.9-1.1-4.2-1.4-6.5-0.9
				c-4.1,0.8-7.2,4.1-7.3,7.8c0,0.5,0,1,0.1,1.6c0.2,1.2,0.8,2.2,1.5,3.1c1.1,3-1.6,5.9-2,6.7C65.6,163.8,66.8,165.3,67.3,165z
				 M97.4,134c0-0.7,0.6-1.2,1.3-1.2c0.7,0,1.2,0.6,1.2,1.3c0,0.7-0.6,1.2-1.3,1.2C98,135.3,97.4,134.7,97.4,134z M71.3,156
				c-1.4-0.8-2.3-1.9-2.6-3.3c-0.1-0.3-0.1-0.7-0.1-1c0.1-2.6,2.4-5,5.4-5.6c1.7-0.4,3.5-0.1,4.9,0.7c1.4,0.8,2.3,1.9,2.6,3.3
				c0.1,0.3,0.1,0.7,0.1,1c-0.1,2.6-2.4,5-5.4,5.6C74.5,157.1,72.7,156.8,71.3,156z"/>
		</g>
	</g>
	
		<use xlink:href="#New_Symbol"  width="67.3" height="265.8" x="-33.7" y="-132.9" transform="matrix(0.3622 0 0 -0.3622 300.5152 136.6934)" overflow="visible"/>
	<g>
		<g>
			<g>
				<g>
					<g>
						<polygon fill="#CC3D3D" points="23.2,107 0,107 23.4,56 43.6,56 						"/>
						<polygon fill="#FFFFFF" points="46.5,107 23.2,107 43.6,56 63.8,56 						"/>
					</g>
					<g>
						<polygon fill="#CC3D3D" points="67.7,107 44.5,107 62.1,56 82.3,56 						"/>
						<polygon fill="#FFFFFF" points="90.9,107 67.7,107 82.3,56 102.5,56 						"/>
					</g>
					<g>
						<polygon fill="#CC3D3D" points="112.1,107 88.9,107 100.7,56 120.9,56 						"/>
						<polygon fill="#FFFFFF" points="135.4,107 112.1,107 120.9,56 141.1,56 						"/>
					</g>
					<g>
						<polygon fill="#CC3D3D" points="156.6,107 133.4,107 139.4,56 159.6,56 						"/>
						<polygon fill="#FFFFFF" points="179.8,107 156.6,107 159.6,56 179.8,56 						"/>
					</g>
					<g>
						<polygon fill="#CC3D3D" points="202,107 178.8,107 178.9,56 199.1,56 						"/>
						<polygon fill="#FFFFFF" points="225.3,107 202,107 199.1,56 219.3,56 						"/>
					</g>
					<g>
						<polygon fill="#CC3D3D" points="246.5,107 223.3,107 217.5,56 237.7,56 						"/>
						<polygon fill="#FFFFFF" points="269.7,107 246.5,107 237.7,56 257.9,56 						"/>
					</g>
					<g>
						<polygon fill="#CC3D3D" points="290.9,107 267.7,107 256.2,56 276.4,56 						"/>
						<polygon fill="#FFFFFF" points="314.2,107 290.9,107 276.4,56 296.6,56 						"/>
					</g>
					<g>
						<polygon fill="#CC3D3D" points="335.4,107 312.2,107 294.8,56 315,56 						"/>
						<polygon fill="#FFFFFF" points="358.6,107 335.4,107 315,56 335.2,56 						"/>
					</g>
				</g>
			</g>
			<rect y="106.7" fill="#FFFFFF" width="358.6" height="7"/>
		</g>
		<rect x="24" y="113.4" opacity="0.2" fill="#314240" width="311.4" height="20.3"/>
	</g>
</g>
</svg>
