<?xml version="1.0" encoding="utf-8"?>
<!-- Generator: Adobe Illustrator 18.1.0, SVG Export Plug-In . SVG Version: 6.00 Build 0)  -->
<!DOCTYPE svg PUBLIC "-//W3C//DTD SVG 1.1//EN" "http://www.w3.org/Graphics/SVG/1.1/DTD/svg11.dtd">
<svg version="1.1" id="Layer_1" xmlns="http://www.w3.org/2000/svg" xmlns:xlink="http://www.w3.org/1999/xlink" x="0px" y="0px"
	 viewBox="0 0 452.3 528.2" enable-background="new 0 0 452.3 528.2" xml:space="preserve">
<g>
	<g>
		<g>
			<g>
				<polyline fill="none" stroke="#5BCFBA" stroke-width="1.0002" stroke-miterlimit="10" points="9.1,483.6 9.1,499 32.1,522 
					398,522 420.4,499.6 420.4,175.3 442.4,153.3 				"/>
				<g>
					<circle fill="#5BCFBA" cx="9.1" cy="483.8" r="3.8"/>
				</g>
				<g>
					
						<rect x="439" y="150.1" transform="matrix(0.7071 0.7071 -0.7071 0.7071 238.0569 -267.8262)" fill="#5BCFBA" width="6.6" height="6.6"/>
				</g>
			</g>
		</g>
		<g>
			<g>
				<polyline fill="none" stroke="#5BCFBA" stroke-width="1.0002" stroke-miterlimit="10" points="133.6,483.5 133.6,501 
					154.9,522.3 				"/>
				<g>
					<circle fill="#5BCFBA" cx="133.6" cy="483.7" r="3.8"/>
				</g>
			</g>
		</g>
		<g>
			<g>
				<polyline fill="none" stroke="#5BCFBA" stroke-width="1.0002" stroke-miterlimit="10" points="343.6,332.2 359.6,348.3 
					359.6,522 				"/>
				<g>
					<circle fill="#5BCFBA" cx="343.7" cy="332.4" r="3.8"/>
				</g>
			</g>
		</g>
	</g>
	<g>
		<g>
			<polyline fill="none" stroke="#5BCFBA" stroke-width="1.0002" stroke-miterlimit="10" points="35.4,23.6 53,6 341,6 364,29 
				364,198.1 382,216.1 420.4,216.1 			"/>
			<g>
				<circle fill="#5BCFBA" cx="35.6" cy="23.4" r="3.8"/>
			</g>
		</g>
	</g>
</g>
</svg>
