<?xml version="1.0" encoding="utf-8"?>
<!-- Generator: Adobe Illustrator 18.1.0, SVG Export Plug-In . SVG Version: 6.00 Build 0)  -->
<!DOCTYPE svg PUBLIC "-//W3C//DTD SVG 1.1//EN" "http://www.w3.org/Graphics/SVG/1.1/DTD/svg11.dtd">
<svg version="1.1" id="Layer_1" xmlns="http://www.w3.org/2000/svg" xmlns:xlink="http://www.w3.org/1999/xlink" x="0px" y="0px"
	 viewBox="0 0 338.6 370.8" enable-background="new 0 0 338.6 370.8" xml:space="preserve">
<g>
	<rect x="0" y="60.5" fill="#C46857" width="338.6" height="310.2"/>
	<path opacity="0.1" d="M66.6,156H30.3c-0.8,0-1.4-0.6-1.4-1.4V92.4c0-0.8,0.6-1.4,1.4-1.4h36.3c0.8,0,1.4,0.6,1.4,1.4v62.1
		C68,155.4,67.4,156,66.6,156z"/>
	<path opacity="0.1" d="M126.6,156H90.3c-0.8,0-1.4-0.6-1.4-1.4V92.4c0-0.8,0.6-1.4,1.4-1.4h36.3c0.8,0,1.4,0.6,1.4,1.4v62.1
		C128,155.4,127.4,156,126.6,156z"/>
	<path opacity="0.1" d="M186.6,156h-36.3c-0.8,0-1.4-0.6-1.4-1.4V92.4c0-0.8,0.6-1.4,1.4-1.4h36.3c0.8,0,1.4,0.6,1.4,1.4v62.1
		C188,155.4,187.4,156,186.6,156z"/>
	<path opacity="0.1" d="M246.6,156h-36.3c-0.8,0-1.4-0.6-1.4-1.4V92.4c0-0.8,0.6-1.4,1.4-1.4h36.3c0.8,0,1.4,0.6,1.4,1.4v62.1
		C248,155.4,247.4,156,246.6,156z"/>
	<path opacity="0.1" d="M306.6,156h-36.3c-0.8,0-1.4-0.6-1.4-1.4V92.4c0-0.8,0.6-1.4,1.4-1.4h36.3c0.8,0,1.4,0.6,1.4,1.4v62.1
		C308,155.4,307.4,156,306.6,156z"/>
	<path opacity="0.1" d="M66.6,240.4H30.3c-0.8,0-1.4-0.6-1.4-1.4v-62.1c0-0.8,0.6-1.4,1.4-1.4h36.3c0.8,0,1.4,0.6,1.4,1.4V239
		C68,239.8,67.4,240.4,66.6,240.4z"/>
	<path opacity="0.1" d="M126.6,240.4H90.3c-0.8,0-1.4-0.6-1.4-1.4v-62.1c0-0.8,0.6-1.4,1.4-1.4h36.3c0.8,0,1.4,0.6,1.4,1.4V239
		C128,239.8,127.4,240.4,126.6,240.4z"/>
	<path opacity="0.1" d="M62.2,332.1h-32c-0.8,0-1.4-0.6-1.4-1.4v-62.1c0-0.8,0.6-1.4,1.4-1.4h32c0.8,0,1.4,0.6,1.4,1.4v62.1
		C63.7,331.5,63,332.1,62.2,332.1z"/>
	<path opacity="0.1" d="M105.5,332.1H80.2c-0.8,0-1.4-0.6-1.4-1.4v-62.1c0-0.8,0.6-1.4,1.4-1.4h25.3c0.8,0,1.4,0.6,1.4,1.4v62.1
		C106.9,331.5,106.3,332.1,105.5,332.1z"/>
	<path opacity="0.1" d="M274.5,267.1h32c0.8,0,1.4,0.6,1.4,1.4v62.1c0,0.8-0.6,1.4-1.4,1.4h-32c-0.8,0-1.4-0.6-1.4-1.4v-62.1
		C273.1,267.7,273.7,267.1,274.5,267.1z"/>
	<path opacity="0.1" d="M231.3,267.1h25.3c0.8,0,1.4,0.6,1.4,1.4v62.1c0,0.8-0.6,1.4-1.4,1.4h-25.3c-0.8,0-1.4-0.6-1.4-1.4v-62.1
		C229.8,267.7,230.5,267.1,231.3,267.1z"/>
	<path opacity="0.1" d="M186.6,240.4h-36.3c-0.8,0-1.4-0.6-1.4-1.4v-62.1c0-0.8,0.6-1.4,1.4-1.4h36.3c0.8,0,1.4,0.6,1.4,1.4V239
		C188,239.8,187.4,240.4,186.6,240.4z"/>
	<path opacity="0.1" d="M246.6,240.4h-36.3c-0.8,0-1.4-0.6-1.4-1.4v-62.1c0-0.8,0.6-1.4,1.4-1.4h36.3c0.8,0,1.4,0.6,1.4,1.4V239
		C248,239.8,247.4,240.4,246.6,240.4z"/>
	<path opacity="0.1" d="M306.6,240.4h-36.3c-0.8,0-1.4-0.6-1.4-1.4v-62.1c0-0.8,0.6-1.4,1.4-1.4h36.3c0.8,0,1.4,0.6,1.4,1.4V239
		C308,239.8,307.4,240.4,306.6,240.4z"/>
	<g>
		<path fill="#2FAB9B" d="M291.3,46H45.6c-2.3,0-4.2-1.9-4.2-4.2V4.2c0-2.3,1.9-4.2,4.2-4.2h245.7c2.3,0,4.2,1.9,4.2,4.2v37.6
			C295.5,44.1,293.6,46,291.3,46z"/>
		<line fill="none" stroke="#E6C634" stroke-width="4" stroke-miterlimit="10" x1="83.4" y1="61.3" x2="83.4" y2="46.3"/>
		<line fill="none" stroke="#E6C634" stroke-width="4" stroke-miterlimit="10" x1="254.4" y1="61.3" x2="254.4" y2="46.3"/>
		
			<text transform="matrix(1 0 0 1 88.6939 32.0469)" fill="#FFFFFF" stroke="#FFFFFF" stroke-width="2" stroke-linecap="round" stroke-linejoin="round" stroke-miterlimit="10" font-family="'GillSans-SemiBold'" font-size="25.6916">the office</text>
	</g>
	<g>
		<rect x="119" y="257" opacity="0.2" fill="#314240" width="101" height="113"/>
		<linearGradient id="SVGID_1_" gradientUnits="userSpaceOnUse" x1="107.1244" y1="349.1587" x2="186.7847" y2="282.3158">
			<stop  offset="0" style="stop-color:#C5EDE8"/>
			<stop  offset="0.1638" style="stop-color:#FBFEFD"/>
			<stop  offset="0.341" style="stop-color:#DEF5F2"/>
			<stop  offset="0.5418" style="stop-color:#FFFFFF"/>
			<stop  offset="0.8907" style="stop-color:#D8F3EF"/>
			<stop  offset="0.8968" style="stop-color:#C9EEE9"/>
			<stop  offset="1" style="stop-color:#C5EDE8"/>
		</linearGradient>
		<rect x="124.6" y="261.5" fill="url(#SVGID_1_)" width="44.7" height="108.5"/>
		<linearGradient id="SVGID_2_" gradientUnits="userSpaceOnUse" x1="231.9399" y1="292.4942" x2="151.4237" y2="338.9803">
			<stop  offset="0" style="stop-color:#C5EDE8"/>
			<stop  offset="0.1638" style="stop-color:#FBFEFD"/>
			<stop  offset="0.341" style="stop-color:#DEF5F2"/>
			<stop  offset="0.5418" style="stop-color:#FFFFFF"/>
			<stop  offset="0.8907" style="stop-color:#D8F3EF"/>
			<stop  offset="0.8968" style="stop-color:#C9EEE9"/>
			<stop  offset="1" style="stop-color:#C5EDE8"/>
		</linearGradient>
		<rect x="169.3" y="261.5" fill="url(#SVGID_2_)" width="44.7" height="108.5"/>
		
			<line fill="none" stroke="#E6C634" stroke-width="4" stroke-linecap="round" stroke-linejoin="round" stroke-miterlimit="10" x1="157.4" y1="306.3" x2="157.4" y2="327.3"/>
		
			<line fill="none" stroke="#E6C634" stroke-width="4" stroke-linecap="round" stroke-linejoin="round" stroke-miterlimit="10" x1="179.4" y1="306.3" x2="179.4" y2="327.3"/>
	</g>
</g>
</svg>
