<?xml version="1.0" encoding="utf-8"?>
<!-- Generator: Adobe Illustrator 18.1.1, SVG Export Plug-In . SVG Version: 6.00 Build 0)  -->
<!DOCTYPE svg PUBLIC "-//W3C//DTD SVG 1.1//EN" "http://www.w3.org/Graphics/SVG/1.1/DTD/svg11.dtd">
<svg version="1.1" id="Layer_1" xmlns="http://www.w3.org/2000/svg" xmlns:xlink="http://www.w3.org/1999/xlink" x="0px" y="0px"
	 viewBox="0 0 477.7 472.4" enable-background="new 0 0 477.7 472.4" xml:space="preserve">
<g>
	<rect x="1" y="1.1" fill="#354B5E" width="475.7" height="471.3"/>
	<g>
		<g>
			<polygon fill="#FFFFFF" points="191.5,467.8 192.7,304.2 271.7,304.2 271.7,469.3 			"/>
		</g>
		<circle fill="#485D78" cx="253" cy="406" r="7.5"/>
	</g>
	<g>
		<g>
			<path fill="#FFFFFF" d="M139.5,326.1v89.2H62.9v-89.2H139.5 M156.9,308.6H45.4v124h111.5V308.6L156.9,308.6z"/>
		</g>
		
			<rect x="45.4" y="308.6" fill="none" stroke="#485D78" stroke-width="7.7529" stroke-miterlimit="10" width="111.5" height="124"/>
		<line fill="none" stroke="#FFFFFF" stroke-width="3.1833" stroke-miterlimit="10" x1="101.2" y1="421.6" x2="101.2" y2="319.7"/>
		<line fill="none" stroke="#FFFFFF" stroke-width="3.1833" stroke-miterlimit="10" x1="55.4" y1="368.7" x2="147" y2="368.7"/>
	</g>
	<g>
		<g>
			<path fill="#FFFFFF" d="M399.5,326.1v89.2h-76.6v-89.2H399.5 M416.9,308.6H305.4v124h111.5V308.6L416.9,308.6z"/>
		</g>
		
			<rect x="305.4" y="308.6" fill="none" stroke="#485D78" stroke-width="7.7529" stroke-miterlimit="10" width="111.5" height="124"/>
		<line fill="none" stroke="#FFFFFF" stroke-width="3.1833" stroke-miterlimit="10" x1="361.1" y1="421.6" x2="361.1" y2="319.7"/>
		<line fill="none" stroke="#FFFFFF" stroke-width="3.1833" stroke-miterlimit="10" x1="315.4" y1="368.7" x2="406.9" y2="368.7"/>
	</g>
	<g>
		<linearGradient id="SVGID_1_" gradientUnits="userSpaceOnUse" x1="238.8932" y1="140.4979" x2="238.8932" y2="1.0772">
			<stop  offset="4.454688e-02" style="stop-color:#FFE391"/>
			<stop  offset="4.848437e-02" style="stop-color:#D8B16C"/>
			<stop  offset="1" style="stop-color:#FFD369"/>
		</linearGradient>
		<polygon fill="url(#SVGID_1_)" points="1,140.5 156.9,140.5 156.9,97.9 295.4,97.9 295.4,140.5 476.8,140.5 476.8,1.1 1,1.1 		"/>
		<g>
			
				<rect x="295.4" y="113" opacity="3.000000e-02" fill="none" stroke="#000000" stroke-width="1.9109" stroke-miterlimit="10" width="32" height="22.4"/>
			
				<rect x="359.5" y="113" opacity="3.000000e-02" fill="none" stroke="#000000" stroke-width="1.9109" stroke-miterlimit="10" width="32" height="22.4"/>
			
				<rect x="422.9" y="113" opacity="3.000000e-02" fill="none" stroke="#000000" stroke-width="1.9109" stroke-miterlimit="10" width="32" height="22.4"/>
			
				<rect x="308" y="90.6" opacity="3.000000e-02" fill="none" stroke="#000000" stroke-width="1.9109" stroke-miterlimit="10" width="32" height="22.4"/>
			
				<rect x="295.4" y="90.6" opacity="3.000000e-02" fill="none" stroke="#000000" stroke-width="1.2636" stroke-miterlimit="10" width="14" height="22.4"/>
			
				<rect x="327.4" y="113" opacity="3.000000e-02" fill="none" stroke="#000000" stroke-width="1.9109" stroke-miterlimit="10" width="32" height="22.4"/>
			
				<rect x="390.9" y="113" opacity="3.000000e-02" fill="none" stroke="#000000" stroke-width="1.9109" stroke-miterlimit="10" width="32" height="22.4"/>
			
				<rect x="455" y="113" opacity="3.000000e-02" fill="none" stroke="#000000" stroke-width="1.9109" stroke-miterlimit="10" width="21.8" height="22.4"/>
			
				<rect x="340" y="90.6" opacity="3.000000e-02" fill="none" stroke="#000000" stroke-width="1.9109" stroke-miterlimit="10" width="32" height="22.4"/>
			
				<rect x="404" y="90.6" opacity="3.000000e-02" fill="none" stroke="#000000" stroke-width="1.9109" stroke-miterlimit="10" width="32" height="22.4"/>
			
				<rect x="372" y="90.6" opacity="3.000000e-02" fill="none" stroke="#000000" stroke-width="1.9109" stroke-miterlimit="10" width="32" height="22.4"/>
			
				<rect x="436.1" y="90.6" opacity="3.000000e-02" fill="none" stroke="#000000" stroke-width="1.9109" stroke-miterlimit="10" width="32" height="22.4"/>
			
				<rect x="468.1" y="90.6" opacity="3.000000e-02" fill="none" stroke="#000000" stroke-width="1.9109" stroke-miterlimit="10" width="8.6" height="22.4"/>
			
				<rect x="295.4" y="68.3" opacity="3.000000e-02" fill="none" stroke="#000000" stroke-width="1.9109" stroke-miterlimit="10" width="32" height="22.4"/>
			
				<rect x="359.5" y="68.3" opacity="3.000000e-02" fill="none" stroke="#000000" stroke-width="1.9109" stroke-miterlimit="10" width="32" height="22.4"/>
			
				<rect x="422.9" y="68.3" opacity="3.000000e-02" fill="none" stroke="#000000" stroke-width="1.9109" stroke-miterlimit="10" width="32" height="22.4"/>
			
				<rect x="308" y="45.9" opacity="3.000000e-02" fill="none" stroke="#000000" stroke-width="1.9109" stroke-miterlimit="10" width="32" height="22.4"/>
			
				<rect x="268.8" y="45.9" opacity="3.000000e-02" fill="none" stroke="#000000" stroke-width="2.1508" stroke-miterlimit="10" width="40.6" height="22.4"/>
			
				<rect x="327.4" y="68.3" opacity="3.000000e-02" fill="none" stroke="#000000" stroke-width="1.9109" stroke-miterlimit="10" width="32" height="22.4"/>
			
				<rect x="390.9" y="68.3" opacity="3.000000e-02" fill="none" stroke="#000000" stroke-width="1.9109" stroke-miterlimit="10" width="32" height="22.4"/>
			
				<rect x="455" y="68.3" opacity="3.000000e-02" fill="none" stroke="#000000" stroke-width="1.9109" stroke-miterlimit="10" width="21.8" height="22.4"/>
			
				<rect x="340" y="45.9" opacity="3.000000e-02" fill="none" stroke="#000000" stroke-width="1.9109" stroke-miterlimit="10" width="32" height="22.4"/>
			
				<rect x="404" y="45.9" opacity="3.000000e-02" fill="none" stroke="#000000" stroke-width="1.9109" stroke-miterlimit="10" width="32" height="22.4"/>
			
				<rect x="372" y="45.9" opacity="3.000000e-02" fill="none" stroke="#000000" stroke-width="1.9109" stroke-miterlimit="10" width="32" height="22.4"/>
			
				<rect x="436.1" y="45.9" opacity="3.000000e-02" fill="none" stroke="#000000" stroke-width="1.9109" stroke-miterlimit="10" width="32" height="22.4"/>
			
				<rect x="468.1" y="45.9" opacity="3.000000e-02" fill="none" stroke="#000000" stroke-width="1.9109" stroke-miterlimit="10" width="8.6" height="22.4"/>
			
				<rect x="295.4" y="23.5" opacity="3.000000e-02" fill="none" stroke="#000000" stroke-width="1.9109" stroke-miterlimit="10" width="32" height="22.4"/>
			
				<rect x="359.5" y="23.5" opacity="3.000000e-02" fill="none" stroke="#000000" stroke-width="1.9109" stroke-miterlimit="10" width="32" height="22.4"/>
			
				<rect x="422.9" y="23.5" opacity="3.000000e-02" fill="none" stroke="#000000" stroke-width="1.9109" stroke-miterlimit="10" width="32" height="22.4"/>
			
				<rect x="308" y="1.1" opacity="3.000000e-02" fill="none" stroke="#000000" stroke-width="1.9109" stroke-miterlimit="10" width="32" height="22.4"/>
			
				<rect x="268.8" y="1.1" opacity="3.000000e-02" fill="none" stroke="#000000" stroke-width="2.1508" stroke-miterlimit="10" width="40.6" height="22.4"/>
			
				<rect x="327.4" y="23.5" opacity="3.000000e-02" fill="none" stroke="#000000" stroke-width="1.9109" stroke-miterlimit="10" width="32" height="22.4"/>
			
				<rect x="390.9" y="23.5" opacity="3.000000e-02" fill="none" stroke="#000000" stroke-width="1.9109" stroke-miterlimit="10" width="32" height="22.4"/>
			
				<rect x="455" y="23.5" opacity="3.000000e-02" fill="none" stroke="#000000" stroke-width="1.9109" stroke-miterlimit="10" width="21.8" height="22.4"/>
			
				<rect x="340" y="1.1" opacity="3.000000e-02" fill="none" stroke="#000000" stroke-width="1.9109" stroke-miterlimit="10" width="32" height="22.4"/>
			
				<rect x="404" y="1.1" opacity="3.000000e-02" fill="none" stroke="#000000" stroke-width="1.9109" stroke-miterlimit="10" width="32" height="22.4"/>
			
				<rect x="372" y="1.1" opacity="3.000000e-02" fill="none" stroke="#000000" stroke-width="1.9109" stroke-miterlimit="10" width="32" height="22.4"/>
			
				<rect x="436.1" y="1.1" opacity="3.000000e-02" fill="none" stroke="#000000" stroke-width="1.9109" stroke-miterlimit="10" width="32" height="22.4"/>
			
				<rect x="468.1" y="1.1" opacity="3.000000e-02" fill="none" stroke="#000000" stroke-width="1.9109" stroke-miterlimit="10" width="8.6" height="22.4"/>
			
				<rect x="96.2" y="113" opacity="3.000000e-02" fill="none" stroke="#000000" stroke-width="1.9109" stroke-miterlimit="10" width="32" height="22.4"/>
			
				<rect x="108.7" y="90.6" opacity="3.000000e-02" fill="none" stroke="#000000" stroke-width="1.9109" stroke-miterlimit="10" width="32" height="22.4"/>
			
				<rect x="69.5" y="90.6" opacity="3.000000e-02" fill="none" stroke="#000000" stroke-width="2.1543" stroke-miterlimit="10" width="40.7" height="22.4"/>
			
				<rect x="128.2" y="113" opacity="3.000000e-02" fill="none" stroke="#000000" stroke-width="1.8106" stroke-miterlimit="10" width="28.8" height="22.4"/>
			
				<rect x="140.7" y="90.6" opacity="3.000000e-02" fill="none" stroke="#000000" stroke-width="1.3512" stroke-miterlimit="10" width="16" height="22.4"/>
			
				<rect x="204.8" y="90.6" opacity="3.000000e-02" fill="none" stroke="#000000" stroke-width="1.1608" stroke-miterlimit="10" width="32" height="8.3"/>
			
				<rect x="172.8" y="90.6" opacity="3.000000e-02" fill="none" stroke="#000000" stroke-width="1.1608" stroke-miterlimit="10" width="32" height="8.3"/>
			
				<rect x="156.8" y="90.6" opacity="3.000000e-02" fill="none" stroke="#000000" stroke-width="0.8208" stroke-miterlimit="10" width="16" height="8.3"/>
			
				<rect x="236.8" y="90.6" opacity="3.000000e-02" fill="none" stroke="#000000" stroke-width="1.1608" stroke-miterlimit="10" width="32" height="8.3"/>
			
				<rect x="268.8" y="95.5" opacity="3.000000e-02" fill="none" stroke="#000000" stroke-width="0.7282" stroke-miterlimit="10" width="26.6" height="3.9"/>
			
				<rect x="96.2" y="68.3" opacity="3.000000e-02" fill="none" stroke="#000000" stroke-width="1.9109" stroke-miterlimit="10" width="32" height="22.4"/>
			
				<rect x="160.2" y="68.3" opacity="3.000000e-02" fill="none" stroke="#000000" stroke-width="1.9109" stroke-miterlimit="10" width="32" height="22.4"/>
			
				<rect x="223.7" y="68.3" opacity="3.000000e-02" fill="none" stroke="#000000" stroke-width="1.9109" stroke-miterlimit="10" width="32" height="22.4"/>
			
				<rect x="108.7" y="45.9" opacity="3.000000e-02" fill="none" stroke="#000000" stroke-width="1.9109" stroke-miterlimit="10" width="32" height="22.4"/>
			
				<rect x="69.5" y="45.9" opacity="3.000000e-02" fill="none" stroke="#000000" stroke-width="2.1543" stroke-miterlimit="10" width="40.7" height="22.4"/>
			
				<rect x="128.2" y="68.3" opacity="3.000000e-02" fill="none" stroke="#000000" stroke-width="1.9109" stroke-miterlimit="10" width="32" height="22.4"/>
			
				<rect x="191.7" y="68.3" opacity="3.000000e-02" fill="none" stroke="#000000" stroke-width="1.9109" stroke-miterlimit="10" width="32" height="22.4"/>
			
				<rect x="255.7" y="68.3" opacity="3.000000e-02" fill="none" stroke="#000000" stroke-width="2.5783" stroke-miterlimit="10" width="39.7" height="22.4"/>
			
				<rect x="140.7" y="45.9" opacity="3.000000e-02" fill="none" stroke="#000000" stroke-width="1.9109" stroke-miterlimit="10" width="32" height="22.4"/>
			
				<rect x="204.8" y="45.9" opacity="3.000000e-02" fill="none" stroke="#000000" stroke-width="1.9109" stroke-miterlimit="10" width="32" height="22.4"/>
			
				<rect x="172.8" y="45.9" opacity="3.000000e-02" fill="none" stroke="#000000" stroke-width="1.9109" stroke-miterlimit="10" width="32" height="22.4"/>
			
				<rect x="236.8" y="45.9" opacity="3.000000e-02" fill="none" stroke="#000000" stroke-width="1.9109" stroke-miterlimit="10" width="32" height="22.4"/>
			
				<rect x="96.2" y="23.5" opacity="3.000000e-02" fill="none" stroke="#000000" stroke-width="1.9109" stroke-miterlimit="10" width="32" height="22.4"/>
			
				<rect x="160.2" y="23.5" opacity="3.000000e-02" fill="none" stroke="#000000" stroke-width="1.9109" stroke-miterlimit="10" width="32" height="22.4"/>
			
				<rect x="223.7" y="23.5" opacity="3.000000e-02" fill="none" stroke="#000000" stroke-width="1.9109" stroke-miterlimit="10" width="32" height="22.4"/>
			
				<rect x="108.7" y="1.1" opacity="3.000000e-02" fill="none" stroke="#000000" stroke-width="1.9109" stroke-miterlimit="10" width="32" height="22.4"/>
			
				<rect x="69.5" y="1.1" opacity="3.000000e-02" fill="none" stroke="#000000" stroke-width="2.1543" stroke-miterlimit="10" width="40.7" height="22.4"/>
			
				<rect x="128.2" y="23.5" opacity="3.000000e-02" fill="none" stroke="#000000" stroke-width="1.9109" stroke-miterlimit="10" width="32" height="22.4"/>
			
				<rect x="191.7" y="23.5" opacity="3.000000e-02" fill="none" stroke="#000000" stroke-width="1.9109" stroke-miterlimit="10" width="32" height="22.4"/>
			
				<rect x="255.7" y="23.5" opacity="3.000000e-02" fill="none" stroke="#000000" stroke-width="2.5783" stroke-miterlimit="10" width="39.7" height="22.4"/>
			
				<rect x="140.7" y="1.1" opacity="3.000000e-02" fill="none" stroke="#000000" stroke-width="1.9109" stroke-miterlimit="10" width="32" height="22.4"/>
			
				<rect x="204.8" y="1.1" opacity="3.000000e-02" fill="none" stroke="#000000" stroke-width="1.9109" stroke-miterlimit="10" width="32" height="22.4"/>
			
				<rect x="172.8" y="1.1" opacity="3.000000e-02" fill="none" stroke="#000000" stroke-width="1.9109" stroke-miterlimit="10" width="32" height="22.4"/>
			
				<rect x="236.8" y="1.1" opacity="3.000000e-02" fill="none" stroke="#000000" stroke-width="1.9109" stroke-miterlimit="10" width="32" height="22.4"/>
			
				<rect x="24.3" y="113" opacity="3.000000e-02" fill="none" stroke="#000000" stroke-width="1.9109" stroke-miterlimit="10" width="32" height="22.4"/>
			
				<rect x="1" y="113" opacity="3.000000e-02" fill="none" stroke="#000000" stroke-width="1.6303" stroke-miterlimit="10" width="23.3" height="22.4"/>
			
				<rect x="56.4" y="113" opacity="3.000000e-02" fill="none" stroke="#000000" stroke-width="2.5827" stroke-miterlimit="10" width="39.8" height="22.4"/>
			
				<rect x="1" y="90.6" opacity="3.000000e-02" fill="none" stroke="#000000" stroke-width="2.038" stroke-miterlimit="10" width="36.4" height="22.4"/>
			
				<rect x="37.4" y="90.6" opacity="3.000000e-02" fill="none" stroke="#000000" stroke-width="1.9109" stroke-miterlimit="10" width="32" height="22.4"/>
			
				<rect x="24.3" y="68.3" opacity="3.000000e-02" fill="none" stroke="#000000" stroke-width="1.9109" stroke-miterlimit="10" width="32" height="22.4"/>
			
				<rect x="1" y="68.3" opacity="3.000000e-02" fill="none" stroke="#000000" stroke-width="1.6303" stroke-miterlimit="10" width="23.3" height="22.4"/>
			
				<rect x="56.4" y="68.3" opacity="3.000000e-02" fill="none" stroke="#000000" stroke-width="2.5827" stroke-miterlimit="10" width="39.8" height="22.4"/>
			
				<rect x="1" y="45.9" opacity="3.000000e-02" fill="none" stroke="#000000" stroke-width="2.038" stroke-miterlimit="10" width="36.4" height="22.4"/>
			
				<rect x="37.4" y="45.9" opacity="3.000000e-02" fill="none" stroke="#000000" stroke-width="1.9109" stroke-miterlimit="10" width="32" height="22.4"/>
			
				<rect x="24.3" y="23.5" opacity="3.000000e-02" fill="none" stroke="#000000" stroke-width="1.9109" stroke-miterlimit="10" width="32" height="22.4"/>
			
				<rect x="1" y="23.5" opacity="3.000000e-02" fill="none" stroke="#000000" stroke-width="1.6303" stroke-miterlimit="10" width="23.3" height="22.4"/>
			
				<rect x="56.4" y="23.5" opacity="3.000000e-02" fill="none" stroke="#000000" stroke-width="2.5827" stroke-miterlimit="10" width="39.8" height="22.4"/>
			
				<rect x="1" y="1.1" opacity="3.000000e-02" fill="none" stroke="#000000" stroke-width="2.038" stroke-miterlimit="10" width="36.4" height="22.4"/>
			
				<rect x="37.4" y="1.1" opacity="3.000000e-02" fill="none" stroke="#000000" stroke-width="1.9109" stroke-miterlimit="10" width="32" height="22.4"/>
		</g>
	</g>
	<g>
		<g>
			<path fill="#EFC569" d="M98.7,189.3c0,5.1-1.9,9.2-5.7,12.3c-3.8,3.1-8.9,4.7-15.2,4.7c-1.6,0-3.9-0.2-6.8-0.6v22.9
				c0,3.3,0.2,5.2,0.7,5.8c0.4,0.6,2.1,0.9,4.9,1c1.6-0.1,2.4,0.2,2.4,0.8c0,0.5-0.5,0.8-1.4,0.8h-1.3c-0.3,0-1.7,0-4.1,0
				c-2.5,0-5,0-7.6,0H54.2c-2,0-3.1-0.1-3.4-0.2c-0.3-0.1-0.4-0.3-0.4-0.5c0-0.4,0.5-0.7,1.4-0.7c2.9-0.1,4.6-0.3,5.2-0.8
				c0.6-0.5,0.8-1.8,0.8-4.1v-46c0-3.8-0.1-6.1-0.4-6.9c-0.3-0.8-1.8-1.2-4.5-1.2c-1.6,0-2.4-0.2-2.4-0.7c0-0.5,0.7-0.8,2.2-0.8
				l25.5-0.1c6.2,0,10.9,1,14,2.9C96.5,180.7,98.7,184.5,98.7,189.3z M84.4,189.8c0-8.8-2.8-13.2-8.3-13.2c-3.3,0-5,1.5-5,4.4v23.4
				c2.4,0,4.1-0.1,5-0.3c1.7-0.3,3.2-1,4.5-2.1C83.1,199.8,84.4,195.7,84.4,189.8z"/>
			<path fill="#EFC569" d="M139.8,194c0,0.3-0.7,0.5-2.1,0.5c-1.7,0-2.8,0.3-3.2,0.9c-0.1,0.2-0.2,0.5-0.2,1.1V223
				c0,9.9-4.7,14.8-14.1,14.8c-4.8,0-8.6-1.5-11.2-4.4c-2-2.2-3-6.1-3-11.7v-24c0-1.3-0.2-2.1-0.6-2.4c-0.4-0.3-1.7-0.5-3.9-0.7
				c-0.5,0-0.7-0.2-0.7-0.5c0-0.4,0.4-0.6,1.1-0.6h0.5c0.4,0,0.7,0,0.9,0h3.9c3.7,0,6.4,0,8.1,0c2.3,0,3.2,0,2.7,0h1.3
				c0.7,0,1.1,0.2,1.1,0.6c0,0.4-0.6,0.6-1.9,0.6c-1.8,0-2.8,0.3-2.9,1c-0.1,0.5-0.1,0.9-0.1,1.3v23.4c0,3.4,0.1,5.5,0.2,6.4
				c0.3,2.7,1.1,4.7,2.3,5.9c1.5,1.5,3.6,2.2,6.1,2.2c2.8,0,4.9-0.9,6.2-2.7c1.6-2.2,2.4-6.2,2.4-11.9v-20.6c0-0.4,0-0.9,0-1.4
				c0-0.6,0-0.9,0-1.1c0-1.1-0.3-1.8-0.9-2.1c-0.4-0.2-1.2-0.4-2.4-0.4c-1.5,0-2.2-0.3-2.2-0.7c0-0.3,0.3-0.5,0.9-0.5
				c0.6,0,1.5,0,2.7,0.1c1.2,0.1,2.1,0.1,2.7,0.1c0,0,0.4-0.1,1.1-0.2c0.7,0,1.4,0,1.9,0h1.5C139.2,193.5,139.8,193.7,139.8,194z"/>
			<path fill="#EFC569" d="M176.4,225.5c0,2.6-0.8,4.8-2.4,6.7c-1.6,1.9-3.8,3.1-6.6,3.7c-2.2,0.5-4.3,0.8-6.2,0.9
				c-2,0.1-7.7,0.1-17.2,0.1c-1.3,0-2.1,0-2.4-0.1c-0.2,0-0.4-0.2-0.4-0.4c0-0.4,0.7-0.6,2-0.6c1.4,0,2.2-0.2,2.5-0.6
				c0.3-0.4,0.5-1.4,0.5-2.9v-35.7c0-1.2-1-1.8-2.9-1.9c-1.5,0-2.2-0.2-2.2-0.5c0-0.4,0.5-0.5,1.4-0.5c0.9,0,1.7,0,2.6,0h15
				c9.6,0,14.4,3.3,14.4,9.9c0,5.5-3.6,8.8-10.7,10.1l-0.1,0.3c4.2,0.9,7.1,2,8.7,3.3C175.1,219.4,176.4,222.2,176.4,225.5z
				 M166.4,225.2c0-5.9-1.7-9.3-5-10.2c-1.3-0.4-3.2-0.6-5.7-0.6v3.6c0,1,0,2.5-0.1,4.4c0,1-0.1,2.7-0.1,5.4c0,4.5,0.1,6.9,0.4,7.2
				c0.3,0.5,1.3,0.7,2.8,0.7C163.9,235.7,166.4,232.2,166.4,225.2z M165.3,203.9c0-6-1.8-9-5.5-9c-1.3,0-2.2,0.1-2.6,0.2
				c-0.9,0.3-1.3,0.9-1.3,1.9v16.5c3.6,0,6.1-0.6,7.5-1.9C164.6,210.2,165.3,207.7,165.3,203.9z"/>
			<path fill="#EFC569" d="M264.6,199.9c0,0.3-1.9,0.6-5.6,0.8c-2.1,0.1-3.4,0.4-3.9,0.7c-0.5,0.4-0.9,1.3-1.2,2.9
				c-1.5,8.1-4.3,14.4-8.3,18.9l0.6,1l1.9,3l2,3c1.3,2,2.6,3.3,4,3.9c1.4,0.6,3.8,1,7.4,1.2c1.4,0.1,2.1,0.4,2.1,0.9
				c0,0.4-0.6,0.6-1.8,0.6h-5.3c-3.6,0-5,0-4.4,0c-1.7,0-5.7,0-12,0c-0.9-1.7-1.8-3.2-2.6-4.6c-4.6,3.9-10.6,5.9-18,5.9
				c-6.5,0-11.8-1.6-15.9-4.9c-4.1-3.2-6.1-7.5-6.1-12.7c0-4.3,1.3-8,3.8-10.9c2.6-2.9,6.7-5.5,12.6-7.8c-2.2-2.2-3.7-3.9-4.6-5
				c-2-2.6-3-5.6-3-9.2c0-4,1.5-7.2,4.5-9.7c3-2.5,6.8-3.7,11.6-3.7c4.6,0,8.4,1.1,11.3,3.3c2.9,2.2,4.3,5,4.3,8.5
				c0,6-4,10.1-12.1,12.3c2.6,2.7,5.9,6.6,10,11.7c4,5.1,6.9,9.1,8.6,11.9c4.3-5,6.5-11.3,6.5-18.7c0-1.5-0.8-2.2-2.3-2.2
				c-4.7,0.1-7-0.2-7-0.9c0-0.5,1-0.7,2.9-0.7h7.9h7.6C263,199.1,264.6,199.3,264.6,199.9z M236.2,230.6
				c-9.3-12.5-16.5-21.7-21.4-27.4c-3,2.2-4.5,6.4-4.5,12.7c0,5.1,1.5,9.4,4.6,13c3.1,3.5,6.9,5.3,11.4,5.3
				C230.3,234.3,233.6,233,236.2,230.6z M228.1,186.7c0-7.4-1.8-11.1-5.5-11.1c-3.5,0-5.3,2.5-5.3,7.5c0,2.3,0.7,4.8,2,7.3
				c1.3,2.6,3,4.7,5,6.3C226.8,194.9,228.1,191.6,228.1,186.7z"/>
			<path fill="#EFC569" d="M328.2,220.7c0,3.7-1.1,6.9-3.4,9.5c-2.3,2.7-5.4,4.4-9.4,5.3c-3.2,0.7-6.1,1.1-8.9,1.3
				c-2.8,0.1-11,0.2-24.6,0.2c-1.9,0-3,0-3.4-0.1c-0.4-0.1-0.5-0.3-0.5-0.6c0-0.5,1-0.8,2.9-0.8c1.9,0,3.1-0.3,3.6-0.8
				c0.5-0.6,0.7-1.9,0.7-4.2v-51.1c0-1.7-1.4-2.6-4.2-2.7c-2.1-0.1-3.2-0.3-3.2-0.8c0-0.5,0.7-0.8,2-0.8c1.2,0,2.5,0,3.7,0h21.4
				c13.7,0,20.6,4.7,20.6,14.1c0,7.8-5.1,12.6-15.3,14.5l-0.2,0.4c6,1.3,10.2,2.8,12.5,4.7C326.3,212,328.2,216,328.2,220.7z
				 M313.9,220.3c0-8.4-2.4-13.3-7.1-14.6c-1.9-0.5-4.6-0.8-8.1-0.8v5.2c0,1.5-0.1,3.6-0.2,6.3c-0.1,1.4-0.1,3.9-0.1,7.7
				c0,6.4,0.2,9.8,0.5,10.3c0.5,0.7,1.8,1,4,1C310.3,235.2,313.9,230.2,313.9,220.3z M312.2,189.8c0-8.6-2.6-12.9-7.9-12.9
				c-1.9,0-3.1,0.1-3.8,0.3c-1.3,0.4-1.9,1.3-1.9,2.8v23.5c5.2,0,8.7-0.9,10.7-2.8C311.3,198.8,312.2,195.2,312.2,189.8z"/>
			<path fill="#EFC569" d="M370.4,236.1c0,0.3-0.2,0.5-0.5,0.6s-1.1,0.1-2.4,0.1c-0.3,0-1.3,0-2.8-0.1c-3.1-0.1-5.2-0.1-6.4-0.1
				c-1.4,0-2.6,0-3.6,0.1c-2.1,0.1-3.5,0.1-4.2,0.1c-1.1,0-1.7-0.2-1.7-0.6c0-0.4,1.2-0.6,3.6-0.7c0.6,0,1,0,1.3-0.1
				c0.7-0.1,1-0.3,1-0.7c0-0.2-0.2-1.1-0.7-2.6l-1.3-4.1c-0.2-0.9-0.8-2.6-1.6-5.1h-1.1H345c-1.7,0-3.6,0-5.6,0.1
				c-0.4,0.8-1.1,2.7-2.1,5.6l-1.4,4.1c-0.2,0.6-0.3,1.1-0.3,1.5c0,0.7,0.5,1.2,1.4,1.4c0.2,0,1.2,0.1,3.1,0.2
				c0.6,0,0.9,0.2,0.9,0.5c0,0.4-0.4,0.5-1.1,0.5h-10.3c-0.2,0-0.5,0-0.8,0c-0.6,0-0.9-0.2-0.9-0.6c0-0.2,0.6-0.4,1.9-0.5
				c1.7-0.1,2.7-0.4,3.2-0.9c0.5-0.5,1.2-2.3,2.2-5.2c0.8-2.1,1.9-5.2,3.4-9.2l7.5-20.8c0.4-0.9,0.9-2.3,1.6-4.3
				c0.5-1.4,0.8-2.1,1.1-2.1c0.2,0,0.7,1,1.4,2.9c0.8,2.5,4.5,12.1,11,29.1c0.8,2.2,1.7,4.4,2.5,6.6c0.7,1.9,1.4,3.1,2.1,3.5
				c0.5,0.3,1.8,0.5,3.9,0.4C370.2,235.6,370.4,235.8,370.4,236.1z M350.6,221.5c0-0.1-0.2-0.5-0.4-1.2c-1.7-4.8-2.9-8.2-3.6-10.2
				c-0.2-0.5-0.5-1.3-0.8-2.4l-0.4-1.1c-0.7,1.8-1.7,4.3-2.7,7.4c-1.2,3.5-2.1,6-2.6,7.4c0.4,0,0.8,0,1.4,0c0.5,0,1,0,1.4,0h3.5
				C347.1,221.5,348.6,221.5,350.6,221.5z"/>
			<path fill="#EFC569" d="M411.5,234.3c0,2.3-1.5,3.5-4.6,3.5c-3.8,0-6.9-1.2-9.2-3.6c-1.8-1.9-2.8-3.9-3.1-6l-0.6-5.1
				c-0.4-3.3-1.2-5.5-2.3-6.8c-1.1-1.3-2.9-1.9-5.3-1.9v14.2c0,3.3,0,5.1,0.1,5.3c0,0.7,0.3,1.2,0.9,1.5c0.6,0.3,1.7,0.4,3.3,0.4
				c1,0,1.5,0.2,1.5,0.6c0,0.3-0.2,0.5-0.7,0.5h-6.1h-1c-0.7,0-1.5,0-2.1,0h-4.5c-0.4,0-0.9,0-1.4,0c-0.5,0-0.7,0-0.9,0h-2.9
				c-0.6,0-0.9-0.1-0.9-0.4c0-0.3,0.9-0.5,2.6-0.6c1.4-0.1,2.2-0.4,2.5-1c0.1-0.3,0.2-1.2,0.2-2.6v-32.2c0-2.2,0-3.5-0.1-3.8
				c-0.1-0.4-0.4-0.7-0.8-0.9c-0.6-0.2-1.5-0.4-2.8-0.4c-0.9,0-1.4-0.2-1.4-0.6c0-0.3,0.2-0.5,0.6-0.5c0.4-0.1,1.4-0.1,3-0.1h1.1
				c0.7,0,1.5,0,2.2,0h2.1c0,0,0.5,0,1.3,0c0.8,0,1.5,0,2.2,0h3.6c5.8,0,9.8,0.5,11.9,1.4c1.7,0.7,3,1.8,4,3.2
				c1,1.5,1.5,3.1,1.5,4.8c0,4-2.1,6.9-6.2,8.9c-1.8,0.8-4.5,1.5-8.1,1.9l-0.1,0.4c4.5,0.3,7.8,1.5,9.9,3.6c2,2.1,3.3,5.5,3.7,10.2
				c0.3,3.7,0.9,6.1,1.6,7c0.7,0.9,1.4,1.4,2.2,1.4c0.6,0,0.9-0.2,0.9-0.5c0-0.2-0.2-0.4-0.7-0.7c-0.5-0.3-0.7-0.7-0.7-1.2
				c0-1.1,0.6-1.7,1.9-1.7C410.9,232.2,411.5,232.9,411.5,234.3z M395.7,202.8c0-5.4-2.1-8-6.4-8c-1.4,0-2.2,0.5-2.6,1.4
				c-0.2,0.6-0.3,2.8-0.3,6.8v10.4c3.2,0,5.6-0.8,7.1-2.4C395,209.2,395.7,206.5,395.7,202.8z"/>
			<path fill="#EFC569" d="M428.7,231.2c0,1.8-0.6,3.4-1.8,4.5c-1.2,1.2-2.7,1.8-4.5,1.8c-1.8,0-3.4-0.6-4.6-1.8
				c-1.2-1.2-1.9-2.7-1.9-4.5c0-1.8,0.6-3.4,1.9-4.6c1.2-1.2,2.8-1.9,4.6-1.9c1.7,0,3.2,0.6,4.5,1.9
				C428,227.8,428.7,229.4,428.7,231.2z"/>
		</g>
		<g>
			<path fill="#EFC569" d="M210.4,131.1c0,0.4-0.2,0.7-0.6,0.7c-0.4,0-0.7-0.4-0.9-1.3c-0.1-0.6-0.1-1.2-0.2-1.8
				c-0.2-1.2-0.6-2.3-1.2-3.1c-0.7-1.1-1.9-1.8-3.5-2.1c-1.1-0.2-1.9-0.3-2.6-0.3c-1.6,0-2.6,0.1-2.9,0.1v30.8c0,1.2,0.3,2,1,2.3
				c0.3,0.2,1.3,0.3,2.9,0.3c0.4,0,0.6,0.2,0.6,0.4c0,0.3-0.3,0.4-0.8,0.4c-0.3,0-0.5,0-0.7-0.1c-2-0.1-3.5-0.1-4.3-0.1
				c-1.1,0-2.2,0-3.2,0.1c-1,0.1-2.2,0.1-3.8,0.1c-0.8,0-1.2-0.1-1.2-0.4c0-0.3,0.7-0.5,2.2-0.5c1.1,0,1.7-0.2,2-0.7
				c0.2-0.3,0.3-1,0.3-2.1v-30.6c-3.4,0-5.5,0.2-6.3,0.5c-2.1,0.8-3.4,2.9-3.8,6.3c-0.1,1-0.3,1.5-0.7,1.5c-0.4,0-0.6-0.4-0.6-1.1
				c0-0.4,0-0.7,0.1-1.1l0.1-1.2c0.1-1.6,0.3-3.6,0.5-6.2h2.3l10.4,0.2c1.2,0,3.1,0,5.7,0l8.5-0.2c0.1,1.9,0.3,4.7,0.7,8.5
				c0,0.1,0,0.2,0.1,0.4C210.4,131,210.4,131.1,210.4,131.1z"/>
			<path fill="#EFC569" d="M246.2,157c0,0.3-0.3,0.5-1,0.5h-7c-0.5,0-1.2,0-2.1,0c-0.9,0-1.6,0-2,0c-0.7,0-1-0.1-1-0.4
				c0-0.3,0.8-0.5,2.4-0.6c0.8-0.1,1.3-0.2,1.5-0.4c0.1-0.2,0.2-1,0.2-2.4v-14.9h-15.4v14.5c0,1.5,0.1,2.4,0.4,2.7
				c0.2,0.3,1,0.5,2.4,0.6c0.9,0.1,1.3,0.2,1.3,0.5c0,0.3-0.3,0.5-1,0.5h-0.5c-0.8,0-1.7,0-2.6,0c-0.9,0-1.4,0-1.6,0
				c-0.5,0-1.2,0-2.1,0c-1,0-2.4,0-4.3,0c-0.7,0-1-0.1-1-0.4c0-0.3,0.3-0.4,1-0.5c0.4,0,0.9-0.1,1.4-0.1c0.7-0.1,1.2-0.2,1.4-0.5
				c0.1-0.2,0.2-1.1,0.2-2.9v-26.9c0-1.5-0.1-2.4-0.2-2.7c-0.2-0.3-0.7-0.4-1.6-0.5c-1.1-0.1-1.7-0.1-1.9-0.2
				c-0.2,0-0.3-0.2-0.3-0.4c0-0.3,0.2-0.4,0.7-0.4c0.1,0,0.4,0,0.9,0.1c0.9,0.1,2.9,0.1,6,0.1c1.7,0,2.9,0,3.6-0.1
				c0.2-0.1,0.5-0.1,0.9-0.1c0.6,0,0.9,0.2,0.9,0.5c0,0.3-0.6,0.5-1.7,0.5c-1.1,0-1.8,0.1-2,0.4c-0.2,0.3-0.3,1.1-0.3,2.4v11.8h15.4
				v-11c0-1.8-0.1-2.9-0.4-3.2c-0.3-0.3-1.2-0.5-2.9-0.4c-0.5,0-0.8-0.2-0.8-0.5c0-0.3,0.3-0.5,0.9-0.5h0.3c0.5,0,1.3,0,2.5,0
				c1.2,0,2.1,0,2.8,0c2.1,0,3.5,0,4.2,0c0.7,0,1.2,0,1.4,0c0.7,0,1.1,0.2,1.1,0.5c0,0.3-0.7,0.5-2.2,0.5c-0.4,0-0.8,0-1,0.1
				c-0.3,0.1-0.6,0.3-0.6,0.6c-0.1,0.3-0.1,1.1-0.1,2.4v27.2c0,1.6,0.1,2.6,0.3,2.9c0.3,0.4,1.3,0.6,2.9,0.6
				C245.9,156.5,246.2,156.7,246.2,157z"/>
			<path fill="#EFC569" d="M276.5,149.3c0,0.1,0,1-0.1,2.5c-0.1,1.5-0.1,3-0.1,4.4v1.7c-3.3-0.2-9.9-0.3-19.8-0.3
				c-1.2,0-2.4,0-3.5,0c-1.2,0-1.9,0-2.3,0h-0.5c-0.6,0-1-0.1-1-0.4c0-0.2,0.1-0.3,0.3-0.3c0.1,0,0.7,0,1.9-0.1
				c0.9-0.1,1.4-0.3,1.6-0.6c0.2-0.3,0.3-1.1,0.3-2.4v-28.8c0-1-0.1-1.6-0.4-1.8c-0.3-0.2-1.2-0.3-2.8-0.3c-0.5,0-0.8-0.1-0.8-0.4
				c0-0.3,0.4-0.4,1.1-0.4h8.7c0.3,0,2.2,0,5.8,0c3.5,0,5.9,0,7.1,0c1,0,2-0.1,2.8-0.2c0.1,1.5,0.2,3.5,0.5,6.1l0.2,2.2
				c0,0.2,0.1,0.4,0.1,0.7c0,0.3-0.2,0.5-0.5,0.5c-0.4,0-0.6-0.4-0.8-1.3c-0.6-3.1-1.7-5-3.2-5.9c-1.1-0.6-3.9-0.9-8.6-0.9h-4.2v15
				h1.2c3.8,0,6.1-0.3,7-0.9c0.8-0.6,1.4-2.3,1.7-5.1c0.1-0.7,0.3-1.1,0.6-1.1c0.4,0,0.6,0.3,0.6,0.9s0,1.5-0.1,2.7
				c-0.1,1.2-0.1,2.1-0.1,2.7c0,3.6,0.1,6.1,0.2,7.5c0,0.3,0,0.6,0,0.9c0,0.4-0.2,0.7-0.6,0.7c-0.2,0-0.4-0.1-0.5-0.4
				c-0.1-0.3-0.2-1.2-0.4-2.8c-0.3-2-1.1-3.3-2.5-3.7c-0.6-0.2-2.2-0.3-4.8-0.3h-2.3v17.1c7.5,0,11.9-0.2,13.2-0.5
				c2.2-0.5,3.5-2.7,3.8-6.5c0.1-0.8,0.3-1.3,0.7-1.3C276.4,148.2,276.5,148.5,276.5,149.3z"/>
		</g>
	</g>
</g>
</svg>
