<?xml version="1.0" encoding="utf-8"?>
<!-- Generator: Adobe Illustrator 18.1.1, SVG Export Plug-In . SVG Version: 6.00 Build 0)  -->
<!DOCTYPE svg PUBLIC "-//W3C//DTD SVG 1.1//EN" "http://www.w3.org/Graphics/SVG/1.1/DTD/svg11.dtd">
<svg version="1.1" id="Layer_1" xmlns="http://www.w3.org/2000/svg" xmlns:xlink="http://www.w3.org/1999/xlink" x="0px" y="0px"
	 viewBox="0 0 436.2 520.1" enable-background="new 0 0 436.2 520.1" xml:space="preserve">
<g>
	<rect x="12.7" y="0" fill="#FFFFFF" width="412.4" height="520.1"/>
	<rect x="-1" y="0" fill="#F0F0F0" width="436.2" height="43.7"/>
	<g>
		<g>
			<g>
				<linearGradient id="SVGID_1_" gradientUnits="userSpaceOnUse" x1="100.8065" y1="481.6271" x2="245.619" y2="360.115">
					<stop  offset="0" style="stop-color:#C5EDE8"/>
					<stop  offset="0.1638" style="stop-color:#FBFEFD"/>
					<stop  offset="0.341" style="stop-color:#DEF5F2"/>
					<stop  offset="0.5418" style="stop-color:#FFFFFF"/>
					<stop  offset="0.8907" style="stop-color:#D8F3EF"/>
					<stop  offset="0.8968" style="stop-color:#C9EEE9"/>
					<stop  offset="1" style="stop-color:#C5EDE8"/>
				</linearGradient>
				
					<rect x="127.1" y="328.8" fill="url(#SVGID_1_)" stroke="#E8E8E8" stroke-width="8.2449" stroke-miterlimit="10" width="92.2" height="184.2"/>
				<linearGradient id="SVGID_2_" gradientUnits="userSpaceOnUse" x1="339.8633" y1="377.883" x2="190.9482" y2="463.8591">
					<stop  offset="0" style="stop-color:#C5EDE8"/>
					<stop  offset="0.1638" style="stop-color:#FBFEFD"/>
					<stop  offset="0.341" style="stop-color:#DEF5F2"/>
					<stop  offset="0.5418" style="stop-color:#FFFFFF"/>
					<stop  offset="0.8907" style="stop-color:#D8F3EF"/>
					<stop  offset="0.8968" style="stop-color:#C9EEE9"/>
					<stop  offset="1" style="stop-color:#C5EDE8"/>
				</linearGradient>
				
					<rect x="219.3" y="328.8" fill="url(#SVGID_2_)" stroke="#E8E8E8" stroke-width="8.2449" stroke-miterlimit="10" width="92.2" height="184.2"/>
				
					<rect x="311.5" y="328.8" fill="#68BCC2" stroke="#E8E8E8" stroke-width="8.2449" stroke-miterlimit="10" width="92.2" height="184.2"/>
				
					<rect x="34.9" y="328.8" fill="#68BCC2" stroke="#E8E8E8" stroke-width="8.2449" stroke-miterlimit="10" width="92.2" height="184.2"/>
			</g>
			<g>
				<rect x="131.1" y="332.3" fill="#FFFFFF" width="83.5" height="83.5"/>
				<g>
					
						<rect x="166.7" y="351.8" transform="matrix(1 -4.514792e-03 4.514792e-03 1 -1.6806 0.7858)" opacity="0.6" fill="#07C999" width="13" height="41.6"/>
					
						<rect x="166.9" y="351.8" transform="matrix(4.514754e-03 1 -1 4.514754e-03 545.0635 197.7432)" opacity="0.6" fill="#07C999" width="12.6" height="41.6"/>
				</g>
				<rect x="223.7" y="332.3" fill="#FFFFFF" width="83.5" height="83.5"/>
				<g>
					
						<rect x="259.2" y="351.8" transform="matrix(1 -4.514792e-03 4.514792e-03 1 -1.6797 1.2035)" opacity="0.6" fill="#07C999" width="13" height="41.6"/>
					
						<rect x="259.4" y="351.8" transform="matrix(4.514754e-03 1 -1 4.514754e-03 637.1669 105.2232)" opacity="0.6" fill="#07C999" width="12.6" height="41.6"/>
				</g>
				<rect x="127.1" y="415.8" fill="#E8E8E8" width="92.2" height="17.9"/>
				<rect x="217.5" y="415.8" fill="#E8E8E8" width="92.2" height="17.9"/>
			</g>
		</g>
		<g>
			<g>
				<g>
					
						<path fill="#FF0010" stroke="#FF0000" stroke-width="2.9976" stroke-linecap="round" stroke-linejoin="round" stroke-miterlimit="10" d="
						M170.8,213.8c1.5,0,3,0.2,4.4,0.5c1.4,0.3,3,0.9,4.6,1.7v4.8c-1.6-0.9-3.1-1.6-4.5-2c-1.4-0.4-2.8-0.6-4.3-0.6
						c-1.9,0-3.6,0.4-5.1,1.2s-2.7,1.9-3.5,3.3c-0.8,1.4-1.3,3-1.3,4.7c0,1.8,0.4,3.3,1.2,4.7c0.8,1.4,2,2.5,3.5,3.2
						s3.2,1.1,5.1,1.1c1.4,0,2.8-0.2,4.1-0.6c1.3-0.4,3-1.2,5-2.2v4.8c-1.7,0.9-3.3,1.5-4.7,1.9s-3.1,0.6-5,0.6
						c-2.8,0-5.2-0.6-7.4-1.7c-2.2-1.1-3.9-2.7-5.1-4.8c-1.2-2.1-1.9-4.3-1.9-6.8c0-2.6,0.6-5,1.9-7.1c1.3-2.1,3.1-3.7,5.3-4.9
						C165.4,214.4,168,213.8,170.8,213.8z"/>
					
						<path fill="#FF0010" stroke="#FF0000" stroke-width="2.9976" stroke-linecap="round" stroke-linejoin="round" stroke-miterlimit="10" d="
						M190.2,214.1v22.3H203v4h-17.8v-26.3H190.2z"/>
					
						<path fill="#FF0010" stroke="#FF0000" stroke-width="2.9976" stroke-linecap="round" stroke-linejoin="round" stroke-miterlimit="10" d="
						M211.4,214.1v26.3h-5.1v-26.3H211.4z"/>
					
						<path fill="#FF0010" stroke="#FF0000" stroke-width="2.9976" stroke-linecap="round" stroke-linejoin="round" stroke-miterlimit="10" d="
						M221.9,214.1l15.6,18.3v-18.3h5v26.3h-4.4l-15.7-18.6v18.6h-5v-26.3H221.9z"/>
					
						<path fill="#FF0010" stroke="#FF0000" stroke-width="2.9976" stroke-linecap="round" stroke-linejoin="round" stroke-miterlimit="10" d="
						M253.7,214.1v26.3h-5.1v-26.3H253.7z"/>
					
						<path fill="#FF0010" stroke="#FF0000" stroke-width="2.9976" stroke-linecap="round" stroke-linejoin="round" stroke-miterlimit="10" d="
						M273.3,213.8c1.5,0,3,0.2,4.4,0.5c1.4,0.3,3,0.9,4.6,1.7v4.8c-1.6-0.9-3.1-1.6-4.5-2c-1.4-0.4-2.8-0.6-4.3-0.6
						c-1.9,0-3.6,0.4-5.1,1.2s-2.7,1.9-3.5,3.3c-0.8,1.4-1.3,3-1.3,4.7c0,1.8,0.4,3.3,1.2,4.7c0.8,1.4,2,2.5,3.5,3.2
						s3.2,1.1,5.1,1.1c1.4,0,2.8-0.2,4.1-0.6c1.3-0.4,3-1.2,5-2.2v4.8c-1.7,0.9-3.3,1.5-4.7,1.9s-3.1,0.6-5,0.6
						c-2.8,0-5.2-0.6-7.4-1.7c-2.2-1.1-3.9-2.7-5.1-4.8c-1.2-2.1-1.9-4.3-1.9-6.8c0-2.6,0.6-5,1.9-7.1c1.3-2.1,3.1-3.7,5.3-4.9
						C267.9,214.4,270.5,213.8,273.3,213.8z"/>
				</g>
			</g>
			<g>
				
					<path fill="#FF0010" stroke="#FF0000" stroke-width="2.9976" stroke-linecap="round" stroke-linejoin="round" stroke-miterlimit="10" d="
					M229.7,105.1v36.6h36.6v20.9h-36.6v36.6h-20.9v-36.6h-36.6v-20.9h36.6v-36.6H229.7z"/>
			</g>
			
				<rect x="34.9" y="66.8" fill="none" stroke="#E8E8E8" stroke-width="8.2449" stroke-miterlimit="10" width="368.8" height="225.7"/>
		</g>
	</g>
</g>
</svg>
