<?xml version="1.0" encoding="utf-8"?>
<!-- Generator: Adobe Illustrator 18.1.1, SVG Export Plug-In . SVG Version: 6.00 Build 0)  -->
<!DOCTYPE svg PUBLIC "-//W3C//DTD SVG 1.1//EN" "http://www.w3.org/Graphics/SVG/1.1/DTD/svg11.dtd">
<svg version="1.1" id="Layer_1" xmlns="http://www.w3.org/2000/svg" xmlns:xlink="http://www.w3.org/1999/xlink" x="0px" y="0px"
	 viewBox="0 0 582 635.9" enable-background="new 0 0 582 635.9" xml:space="preserve">
<g>
	<rect x="0" y="104" fill="#C46857" width="582" height="531.8"/>
	<path opacity="0.1" d="M114.5,268.1H52.1c-1.4,0-2.5-1.1-2.5-2.5V158.8c0-1.4,1.1-2.5,2.5-2.5h62.4c1.4,0,2.5,1.1,2.5,2.5v106.8
		C116.9,267,115.8,268.1,114.5,268.1z"/>
	<path opacity="0.1" d="M217.6,268.1h-62.4c-1.4,0-2.5-1.1-2.5-2.5V158.8c0-1.4,1.1-2.5,2.5-2.5h62.4c1.4,0,2.5,1.1,2.5,2.5v106.8
		C220.1,267,219,268.1,217.6,268.1z"/>
	<path opacity="0.1" d="M320.7,268.1h-62.4c-1.4,0-2.5-1.1-2.5-2.5V158.8c0-1.4,1.1-2.5,2.5-2.5h62.4c1.4,0,2.5,1.1,2.5,2.5v106.8
		C323.2,267,322.1,268.1,320.7,268.1z"/>
	<path opacity="0.1" d="M423.8,268.1h-62.4c-1.4,0-2.5-1.1-2.5-2.5V158.8c0-1.4,1.1-2.5,2.5-2.5h62.4c1.4,0,2.5,1.1,2.5,2.5v106.8
		C426.3,267,425.2,268.1,423.8,268.1z"/>
	<path opacity="0.1" d="M526.9,268.1h-62.4c-1.4,0-2.5-1.1-2.5-2.5V158.8c0-1.4,1.1-2.5,2.5-2.5h62.4c1.4,0,2.5,1.1,2.5,2.5v106.8
		C529.4,267,528.3,268.1,526.9,268.1z"/>
	<path opacity="0.1" d="M114.5,413.2H52.1c-1.4,0-2.5-1.1-2.5-2.5V304c0-1.4,1.1-2.5,2.5-2.5h62.4c1.4,0,2.5,1.1,2.5,2.5v106.8
		C116.9,412.1,115.8,413.2,114.5,413.2z"/>
	<path opacity="0.1" d="M217.6,413.2h-62.4c-1.4,0-2.5-1.1-2.5-2.5V304c0-1.4,1.1-2.5,2.5-2.5h62.4c1.4,0,2.5,1.1,2.5,2.5v106.8
		C220.1,412.1,219,413.2,217.6,413.2z"/>
	<path opacity="0.1" d="M107,570.7H52.1c-1.4,0-2.5-1.1-2.5-2.5V461.5c0-1.4,1.1-2.5,2.5-2.5H107c1.4,0,2.5,1.1,2.5,2.5v106.8
		C109.4,569.6,108.3,570.7,107,570.7z"/>
	<path opacity="0.1" d="M181.3,570.7h-43.4c-1.4,0-2.5-1.1-2.5-2.5V461.5c0-1.4,1.1-2.5,2.5-2.5h43.4c1.4,0,2.5,1.1,2.5,2.5v106.8
		C183.8,569.6,182.7,570.7,181.3,570.7z"/>
	<path opacity="0.1" d="M471.8,459h54.9c1.4,0,2.5,1.1,2.5,2.5v106.8c0,1.4-1.1,2.5-2.5,2.5h-54.9c-1.4,0-2.5-1.1-2.5-2.5V461.5
		C469.3,460.1,470.4,459,471.8,459z"/>
	<path opacity="0.1" d="M397.4,459h43.4c1.4,0,2.5,1.1,2.5,2.5v106.8c0,1.4-1.1,2.5-2.5,2.5h-43.4c-1.4,0-2.5-1.1-2.5-2.5V461.5
		C395,460.1,396.1,459,397.4,459z"/>
	<path opacity="0.1" d="M320.7,413.2h-62.4c-1.4,0-2.5-1.1-2.5-2.5V304c0-1.4,1.1-2.5,2.5-2.5h62.4c1.4,0,2.5,1.1,2.5,2.5v106.8
		C323.2,412.1,322.1,413.2,320.7,413.2z"/>
	<path opacity="0.1" d="M423.8,413.2h-62.4c-1.4,0-2.5-1.1-2.5-2.5V304c0-1.4,1.1-2.5,2.5-2.5h62.4c1.4,0,2.5,1.1,2.5,2.5v106.8
		C426.3,412.1,425.2,413.2,423.8,413.2z"/>
	<path opacity="0.1" d="M526.9,413.2h-62.4c-1.4,0-2.5-1.1-2.5-2.5V304c0-1.4,1.1-2.5,2.5-2.5h62.4c1.4,0,2.5,1.1,2.5,2.5v106.8
		C529.4,412.1,528.3,413.2,526.9,413.2z"/>
	<g>
		<path fill="#2FAB9B" d="M500.7,79.1H78.3c-4,0-7.2-3.2-7.2-7.2V7.2c0-4,3.2-7.2,7.2-7.2h422.3c4,0,7.2,3.2,7.2,7.2v64.6
			C507.9,75.8,504.6,79.1,500.7,79.1z"/>
		<line fill="none" stroke="#E6C634" stroke-width="8" stroke-miterlimit="10" x1="144.6" y1="106.6" x2="144.6" y2="79.6"/>
		<line fill="none" stroke="#E6C634" stroke-width="8" stroke-miterlimit="10" x1="436.6" y1="106.6" x2="436.6" y2="79.6"/>
		<g>
			
				<path fill="#FFFFFF" stroke="#FFFFFF" stroke-width="3.4371" stroke-linecap="round" stroke-linejoin="round" stroke-miterlimit="10" d="
				M180.9,25v4.5h-10.7v25.6h-5.8V29.5h-10.7V25H180.9z"/>
			
				<path fill="#FFFFFF" stroke="#FFFFFF" stroke-width="3.4371" stroke-linecap="round" stroke-linejoin="round" stroke-miterlimit="10" d="
				M190.6,25v12.7h15.6V25h5.8v30.1h-5.8V42.4h-15.6v12.7h-5.8V25H190.6z"/>
			
				<path fill="#FFFFFF" stroke="#FFFFFF" stroke-width="3.4371" stroke-linecap="round" stroke-linejoin="round" stroke-miterlimit="10" d="
				M238.4,25v4.5h-13.6v7.9h13.1V42h-13.1v8.6h13.9v4.5h-19.8V25H238.4z"/>
			
				<path fill="#FFFFFF" stroke="#FFFFFF" stroke-width="3.4371" stroke-linecap="round" stroke-linejoin="round" stroke-miterlimit="10" d="
				M271.8,24.6c3.1,0,5.9,0.6,8.4,1.9c2.5,1.3,4.5,3.1,6,5.6c1.5,2.4,2.2,5.1,2.2,8c0,2.8-0.7,5.4-2.2,7.8c-1.4,2.4-3.4,4.3-6,5.6
				s-5.4,2-8.5,2c-3.1,0-6-0.7-8.5-2c-2.6-1.4-4.5-3.2-6-5.6c-1.4-2.4-2.1-5-2.1-7.8c0-2.8,0.7-5.4,2.1-7.8c1.4-2.4,3.4-4.3,5.9-5.7
				C265.7,25.2,268.6,24.6,271.8,24.6z M261.2,40c0,2,0.5,3.8,1.4,5.4c0.9,1.6,2.2,2.8,3.8,3.7c1.6,0.9,3.4,1.3,5.5,1.3
				c3.1,0,5.6-1,7.6-2.9c2-1.9,3-4.4,3-7.5c0-2-0.4-3.8-1.3-5.4c-0.9-1.6-2.2-2.8-3.8-3.7c-1.6-0.9-3.5-1.3-5.5-1.3
				c-2,0-3.9,0.4-5.5,1.3c-1.6,0.9-2.9,2.1-3.8,3.7C261.6,36.2,261.2,38,261.2,40z"/>
			
				<path fill="#FFFFFF" stroke="#FFFFFF" stroke-width="3.4371" stroke-linecap="round" stroke-linejoin="round" stroke-miterlimit="10" d="
				M312.2,25v4.5h-12.5v7.8h12.5v4.6h-12.5v13.2h-5.8V25H312.2z"/>
			
				<path fill="#FFFFFF" stroke="#FFFFFF" stroke-width="3.4371" stroke-linecap="round" stroke-linejoin="round" stroke-miterlimit="10" d="
				M335.8,25v4.5h-12.5v7.8h12.5v4.6h-12.5v13.2h-5.8V25H335.8z"/>
			
				<path fill="#FFFFFF" stroke="#FFFFFF" stroke-width="3.4371" stroke-linecap="round" stroke-linejoin="round" stroke-miterlimit="10" d="
				M347.1,25v30.1h-5.8V25H347.1z"/>
			
				<path fill="#FFFFFF" stroke="#FFFFFF" stroke-width="3.4371" stroke-linecap="round" stroke-linejoin="round" stroke-miterlimit="10" d="
				M369.5,24.6c1.7,0,3.4,0.2,5,0.6s3.4,1,5.3,2v5.5c-1.9-1.1-3.6-1.8-5.1-2.3c-1.6-0.5-3.2-0.7-4.9-0.7c-2.1,0-4.1,0.4-5.8,1.3
				s-3.1,2.1-4,3.7c-1,1.6-1.4,3.4-1.4,5.4c0,2,0.5,3.8,1.4,5.4c0.9,1.6,2.3,2.8,4,3.7s3.7,1.3,5.8,1.3c1.7,0,3.2-0.2,4.7-0.7
				c1.5-0.5,3.4-1.3,5.7-2.6v5.5c-2,1-3.8,1.7-5.4,2.2c-1.6,0.4-3.6,0.6-5.7,0.6c-3.2,0-6-0.6-8.5-1.9c-2.5-1.3-4.5-3.1-5.9-5.5
				s-2.1-5-2.1-7.8c0-3,0.7-5.8,2.2-8.2c1.5-2.4,3.5-4.3,6.1-5.6C363.4,25.2,366.3,24.6,369.5,24.6z"/>
			
				<path fill="#FFFFFF" stroke="#FFFFFF" stroke-width="3.4371" stroke-linecap="round" stroke-linejoin="round" stroke-miterlimit="10" d="
				M405.4,25v4.5h-13.6v7.9h13.1V42h-13.1v8.6h13.9v4.5h-19.8V25H405.4z"/>
		</g>
	</g>
	<g>
		<rect x="204.6" y="441.7" opacity="0.2" fill="#314240" width="173.6" height="194.2"/>
		<linearGradient id="SVGID_1_" gradientUnits="userSpaceOnUse" x1="184.1002" y1="600.0515" x2="321.0014" y2="485.1777">
			<stop  offset="0" style="stop-color:#C5EDE8"/>
			<stop  offset="0.1638" style="stop-color:#FBFEFD"/>
			<stop  offset="0.341" style="stop-color:#DEF5F2"/>
			<stop  offset="0.5418" style="stop-color:#FFFFFF"/>
			<stop  offset="0.8907" style="stop-color:#D8F3EF"/>
			<stop  offset="0.8968" style="stop-color:#C9EEE9"/>
			<stop  offset="1" style="stop-color:#C5EDE8"/>
		</linearGradient>
		<rect x="214.1" y="449.4" fill="url(#SVGID_1_)" width="76.9" height="186.4"/>
		<linearGradient id="SVGID_2_" gradientUnits="userSpaceOnUse" x1="398.6036" y1="502.67" x2="260.2313" y2="582.5593">
			<stop  offset="0" style="stop-color:#C5EDE8"/>
			<stop  offset="0.1638" style="stop-color:#FBFEFD"/>
			<stop  offset="0.341" style="stop-color:#DEF5F2"/>
			<stop  offset="0.5418" style="stop-color:#FFFFFF"/>
			<stop  offset="0.8907" style="stop-color:#D8F3EF"/>
			<stop  offset="0.8968" style="stop-color:#C9EEE9"/>
			<stop  offset="1" style="stop-color:#C5EDE8"/>
		</linearGradient>
		<rect x="291" y="449.4" fill="url(#SVGID_2_)" width="76.9" height="186.4"/>
		
			<line fill="none" stroke="#E6C634" stroke-width="8" stroke-linecap="round" stroke-linejoin="round" stroke-miterlimit="10" x1="270.6" y1="526.6" x2="270.6" y2="562.6"/>
		
			<line fill="none" stroke="#E6C634" stroke-width="8" stroke-linecap="round" stroke-linejoin="round" stroke-miterlimit="10" x1="308.6" y1="526.6" x2="308.6" y2="562.6"/>
	</g>
</g>
</svg>
