<?xml version="1.0" encoding="utf-8"?>
<!-- Generator: Adobe Illustrator 18.1.1, SVG Export Plug-In . SVG Version: 6.00 Build 0)  -->
<!DOCTYPE svg PUBLIC "-//W3C//DTD SVG 1.1//EN" "http://www.w3.org/Graphics/SVG/1.1/DTD/svg11.dtd">
<svg version="1.1" id="Layer_1" xmlns="http://www.w3.org/2000/svg" xmlns:xlink="http://www.w3.org/1999/xlink" x="0px" y="0px"
	 viewBox="0 0 541.4 353.7" enable-background="new 0 0 541.4 353.7" xml:space="preserve">
<g>
	<g>
		<rect x="33.9" y="0" fill="#729454" width="475.8" height="353.7"/>
		<g>
			<polyline fill="#333333" points="226.9,353.6 226.9,192.6 312.9,192.6 312.9,353.6 			"/>
			<ellipse fill="#E6C634" cx="292.7" cy="280.8" rx="8.2" ry="8.3"/>
		</g>
	</g>
	<g>
		<g>
			<path fill="#DB5102" d="M91.3,43.7c-0.1,0.4-0.1,0.8-0.1,1.2c0,0.4,0,0.8,0,1.2c0,0.6,0,1.1,0,1.7c0,0.6,0,1.1,0,1.6
				c0,0.2,0,0.4,0,0.6c0,0.2,0,0.4,0,0.5c0,0.2-0.1,0.3-0.3,0.4c-0.1,0.1-0.3,0.1-0.6,0.1c-0.4,0-1,0-1.7-0.1
				c-0.7-0.1-1.2-0.1-1.7-0.1c-0.2,0-0.4,0-0.7,0c-0.3,0-0.5,0-0.6,0c-0.3,0-0.5-0.2-0.5-0.4c-0.1-0.2-0.1-0.5-0.1-0.8
				c0-0.3,0-0.5,0-0.8c0-0.3,0-0.6,0-0.9v-0.6c-0.4,0-0.8,0-1.2,0c-0.4,0-0.9,0-1.5,0c-0.6,0-1.3,0-1.9,0.1
				c-0.6,0.1-1.2,0.2-1.7,0.4c-0.5,0.2-0.9,0.4-1.2,0.7c-0.3,0.3-0.5,0.8-0.5,1.3c0,0.7,0.3,1.3,1,1.6c0.7,0.4,1.4,0.7,2.2,0.9
				c0.9,0.3,1.8,0.6,2.7,0.8c0.9,0.3,1.6,0.5,2.3,0.7c0.8,0.2,1.5,0.4,2.1,0.7c0.6,0.2,1.2,0.6,1.6,1.1c1,0.5,1.9,1.3,2.6,2.5
				c0.7,1.1,1,2.4,1,3.8c0,0.8-0.1,1.7-0.4,2.5c-0.3,0.8-0.6,1.5-1.1,2.2c-0.4,0.7-1,1.3-1.6,1.9c-0.6,0.6-1.3,1-2,1.4
				c-0.4,0.2-0.9,0.4-1.6,0.6c-0.7,0.2-1.3,0.3-1.9,0.5c-0.6,0.1-1.2,0.2-2,0.3s-1.5,0.1-2.1,0.1c-1.1,0-2.1-0.1-3.1-0.2
				c-1-0.1-1.9-0.3-2.8-0.5c-0.9-0.2-1.6-0.4-2.2-0.7c-0.6-0.2-1.1-0.5-1.5-0.7c-0.1-0.8-0.1-1.7-0.1-2.6c0-0.9,0-1.7,0-2.4
				c0-0.4,0-0.7,0-1c0-0.3,0-0.6,0-0.8c0.6-0.1,1.3-0.1,2.2-0.1c0.9,0,1.8-0.1,2.5-0.1c0.5,0,0.9,0,1.2,0.1c0.3,0,0.4,0.1,0.5,0.2
				c0.1,0.1,0.1,0.2,0.1,0.3s0,0.3,0,0.4c0,0.3,0,0.6-0.1,0.9c-0.1,0.3-0.1,0.6-0.1,0.9c0,0.4,0.1,0.8,0.3,1.1c0.9,0,1.8,0,2.6,0
				c0.8,0,1.5,0,2.2-0.1c0.7-0.1,1.3-0.2,1.8-0.5s1-0.6,1.5-1c0.2-0.2,0.3-0.4,0.4-0.7c0.1-0.3,0.2-0.5,0.2-0.8c0-0.5-0.2-1-0.6-1.4
				c-0.4-0.4-0.9-0.7-1.6-1c-0.6-0.3-1.3-0.6-2.1-0.8c-0.8-0.2-1.5-0.5-2.3-0.6c-0.7-0.2-1.4-0.4-2.1-0.6c-0.6-0.2-1.1-0.4-1.5-0.7
				c-0.2-0.1-0.5-0.3-0.9-0.5c-0.3-0.2-0.7-0.4-1-0.6c-0.3-0.2-0.7-0.4-1-0.7c-0.3-0.2-0.6-0.5-0.7-0.7c-0.2-0.2-0.4-0.6-0.6-0.9
				c-0.2-0.4-0.3-0.8-0.5-1.2c-0.1-0.4-0.2-0.9-0.3-1.3c-0.1-0.4-0.1-0.8-0.1-1.2c0.1-0.8,0.2-1.6,0.3-2.2s0.4-1.2,0.6-1.7
				s0.6-1,1-1.5c0.4-0.5,0.9-0.9,1.6-1.4c0.4-0.3,1-0.6,1.6-0.9c0.6-0.2,1.2-0.4,1.9-0.6c0.7-0.2,1.3-0.3,2-0.3
				c0.7-0.1,1.3-0.1,1.9-0.1c0.6,0,1.4,0,2.3,0.1c0.9,0.1,1.9,0.2,2.8,0.4c1,0.2,1.9,0.4,2.7,0.6C90.1,43.2,90.8,43.4,91.3,43.7z"/>
			<path fill="#DB5102" d="M122.3,50.8c-0.3,0.1-0.7,0.2-1.2,0.3c-0.5,0-1,0.1-1.6,0.1c-0.5,0-1,0-1.5-0.1c-0.4-0.1-0.8-0.1-0.9-0.2
				c-0.1-0.1-0.1-0.2-0.1-0.5c0-0.3,0-0.6,0-0.9s0-0.7,0-1.1c0-0.4,0-0.7-0.1-1c-0.4,0-0.8,0-1.1,0c-0.3,0-0.5-0.1-0.8-0.1
				c-0.3,0-0.6,0-0.9-0.1c-0.3,0-0.8,0-1.4,0.1c-0.1,1.4-0.1,2.7,0,3.9c0.1,1.2,0.2,2.5,0.2,3.7c0,0.9,0,1.7-0.1,2.6
				c-0.1,0.9-0.1,1.7-0.1,2.6c0,0.9-0.1,1.7-0.1,2.6c0,0.9,0.1,1.8,0.2,2.7c0.4,0,0.8,0,1.1-0.1c0.3-0.1,0.7,0,1.2,0.1
				c0.2,0.3,0.3,0.6,0.3,1s0.1,0.7,0.1,1.1c0,0.4,0,0.8,0,1.3c0,0.4,0,0.9,0,1.3c-0.2,0.3-0.5,0.4-0.9,0.4c-0.4-0.1-0.9,0-1.5,0
				c-0.4,0-0.9,0-1.6,0s-1.3,0-2,0c-0.7,0-1.4,0-2,0c-0.7,0-1.2,0-1.7,0c-0.2,0-0.4,0-0.6,0s-0.6,0-0.8,0c-0.3,0-0.6,0-0.8,0
				c-0.2,0-0.4,0-0.5-0.1c-0.2-0.1-0.3-0.1-0.3-0.2c0-0.1-0.1-0.1,0-0.2c0-0.1,0-0.2,0.1-0.3c0-0.1,0-0.3,0-0.4
				c0.1-0.6,0.2-1.2,0.2-1.8c0-0.6-0.1-1.1-0.2-1.6c0.1-0.2,0.2-0.3,0.5-0.4c0.2-0.1,0.5-0.2,0.7-0.2c0.3,0,0.6,0,0.9,0
				c0.3,0,0.6,0,0.8,0.1c0.3-2.9,0.4-5.8,0.4-8.8c0-3-0.2-6-0.4-9.2c-0.6-0.2-1.2-0.3-1.8-0.3c-0.6,0-1.3,0-2,0.1c0,0.4,0,0.7,0.1,1
				c0,0.3,0,0.6,0,0.8s0,0.5,0,0.7s0,0.5,0,0.8c-0.3,0.1-0.7,0.2-1.2,0.2c-0.5,0-1,0.1-1.5,0.1c-0.5,0-1.1,0-1.6-0.1
				c-0.5,0-1-0.1-1.5-0.2c0.1-1.2,0.1-2.5,0.1-4c0-1.5-0.2-2.8-0.4-4c2-0.3,4-0.5,5.9-0.6c1.9-0.1,3.8-0.1,5.8,0
				c1.9,0,3.8,0.1,5.8,0.1c1.9,0.1,3.9,0,5.9,0c0.3,0,0.6,0,0.9,0c0.3,0,0.7,0,1,0.1c0.3,0,0.6,0.1,0.8,0.2c0.2,0.1,0.4,0.2,0.4,0.3
				c0.1,0.3,0.2,0.8,0.1,1.3c0,0.5,0,1,0,1.4c0,0.8,0.1,1.7,0.2,2.6C122.6,49.2,122.6,50.1,122.3,50.8z"/>
			<path fill="#DB5102" d="M141.8,70.9c-0.3,0-0.7,0-1.1,0.1c-0.4,0-0.8,0-1.2,0c-1.9,0-3.6-0.2-5.1-0.6c-1.5-0.4-2.8-1.2-3.9-2.2
				c-0.2-0.1-0.3-0.3-0.5-0.5s-0.4-0.5-0.6-0.7c-0.2-0.3-0.4-0.5-0.6-0.8c-0.2-0.2-0.3-0.5-0.5-0.6c-0.3-0.3-0.6-0.8-0.9-1.4
				c-0.3-0.6-0.6-1.3-0.8-2.1c-0.2-0.8-0.4-1.6-0.6-2.5S126,57.8,126,57c0-1.1,0.1-2.3,0.4-3.6c0.3-1.3,0.7-2.6,1.3-3.9
				c0.5-1.3,1.1-2.4,2-3.3c0.9-1,1.9-1.8,3-2.4c1.1-0.7,2.3-1.2,3.5-1.5c1.2-0.3,2.5-0.5,3.7-0.5c1.2,0.1,2.4,0.2,3.6,0.3
				s2.3,0.6,3.3,1.2c2.5,1.5,4.2,3.4,5.2,5.7c1,2.3,1.5,5,1.5,8.1c0,0.8,0,1.7-0.1,2.5c-0.1,0.8-0.2,1.6-0.3,2.4
				c-0.5,1.2-1.1,2.3-1.6,3.2c-0.5,1-1.3,1.8-2.3,2.6c-0.5,0.4-1,0.7-1.5,1c-0.5,0.3-1.1,0.6-1.7,0.9c-0.6,0.3-1.3,0.5-2,0.7
				C143.5,70.7,142.7,70.8,141.8,70.9z M146.8,57.4c0-0.3,0-0.6,0-0.9c0-0.3,0-0.6,0-0.9c0-0.6-0.1-1.2-0.3-1.8
				c-0.2-0.7-0.5-1.3-0.8-2c-0.3-0.7-0.7-1.3-1-1.8c-0.4-0.6-0.8-1-1.1-1.4c-0.2-0.2-0.4-0.4-0.7-0.6c-0.3-0.2-0.6-0.4-0.9-0.6
				c-0.3-0.2-0.7-0.3-1-0.4c-0.3-0.1-0.7-0.2-1-0.2c-0.8,0-1.6,0.3-2.3,0.8c-0.8,0.5-1.5,1.2-2.1,2.1c-0.6,0.9-1.1,1.8-1.5,2.9
				c-0.4,1.1-0.6,2.2-0.6,3.3c0,1.3,0.1,2.6,0.4,3.7c0.3,1.2,0.7,2.2,1.2,3.1c0.6,0.9,1.3,1.5,2.1,2c0.9,0.5,1.9,0.7,3.1,0.7
				c0.7,0,1.4-0.1,2.2-0.3c0.7-0.2,1.5-0.5,2.2-1c0.8-0.9,1.3-1.9,1.6-3C146.6,60.2,146.8,58.9,146.8,57.4z"/>
			<path fill="#DB5102" d="M175.4,57.8c0.4,0.3,0.8,0.6,1.1,1c0.3,0.4,0.6,0.7,0.8,1c0.4,0.6,0.7,1.1,1,1.8c0.3,0.6,0.6,1.2,0.9,1.8
				c0.3,0.6,0.7,1.1,1.2,1.5c0.5,0.4,1.1,0.7,1.8,0.8c0.5-0.1,1-0.1,1.3,0.1c0.1,0.4,0.1,0.8,0.2,1.2c0.1,0.4,0.1,0.9,0.1,1.3
				c0,0.4,0,0.8,0,1.2c0,0.4-0.1,0.7-0.3,1c-0.6,0.1-1.3,0.2-2.2,0.2c-0.9,0.1-1.7,0.1-2.6,0c-0.9,0-1.6-0.2-2.3-0.4
				c-0.7-0.2-1.2-0.6-1.5-1.2c0-0.1-0.1-0.2-0.2-0.3c-0.1-0.2-0.2-0.3-0.3-0.5c-0.1-0.2-0.2-0.4-0.3-0.5c-0.1-0.2-0.2-0.3-0.2-0.4
				c-0.3-0.6-0.6-1.2-1-1.9s-0.7-1.3-1.1-2s-0.8-1.3-1.2-1.8c-0.4-0.6-0.8-1.1-1.2-1.6c-0.5-0.1-0.9-0.1-1.3-0.1
				c-0.4,0-0.7,0.1-0.9,0.1c-0.1,0.6-0.1,1-0.1,1.5c0,0.4,0,0.8,0.1,1.2c0,0.4,0.1,0.8,0.1,1.2c0,0.4,0.1,0.9,0.1,1.5
				c0.2,0.1,0.5,0.1,0.6,0.1c0.2,0,0.4-0.1,0.6-0.1c0.2-0.1,0.4-0.1,0.6-0.1c0.2,0,0.4,0,0.6,0.1c0.2,0.1,0.4,0.4,0.4,0.7
				c0.1,0.3,0.1,0.7,0,1.2c0,0.4-0.1,0.9-0.2,1.4c-0.1,0.5-0.1,0.9-0.1,1.2c-0.1,0.2-0.2,0.4-0.4,0.5c-0.1,0.1-0.2,0.2-0.4,0.2
				c-0.1,0-0.3,0-0.5,0c-0.2,0-0.4,0-0.6-0.1c-0.4,0-0.8-0.1-1.4-0.1c-0.5,0-1.1,0-1.7,0c-0.6,0-1.2,0-1.8,0c-0.6,0-1.1,0-1.5,0.1
				c-0.3,0.1-0.6,0.1-0.9,0.1c-0.3,0-0.7,0-1,0.1c-0.3,0-0.6,0-0.9,0c-0.3,0-0.5,0-0.6-0.1c-0.1-0.1-0.2-0.2-0.4-0.4
				c-0.1-0.2-0.2-0.4-0.2-0.6c-0.1-0.3-0.1-0.6,0-0.9c0-0.3,0.1-0.7,0.1-1.1c0-0.4,0.1-0.8,0.1-1.2c0-0.4,0-0.8-0.1-1.1
				c0.1-0.1,0.3-0.2,0.5-0.2c0.2,0,0.4,0,0.6-0.1c0.2,0.1,0.5,0.1,0.7,0.2c0.3,0.1,0.5,0.1,0.8,0c0.1-1.5,0.2-3,0.2-4.5
				c0-1.4,0-2.9,0-4.3c0-1.4-0.1-2.9-0.2-4.5c-0.1-1.5-0.1-3.2-0.1-4.9c-0.4-0.1-0.7-0.1-0.9-0.1c-0.2,0-0.6,0.1-1,0.1
				c-0.2,0-0.4-0.1-0.5-0.1c-0.1,0-0.2-0.1-0.3-0.2c0.1-0.3,0.1-0.6,0.1-1s0-0.8,0-1.2c0-0.4,0-0.8,0-1.2c0-0.4,0-0.7,0.1-1
				c0.4-0.2,1-0.3,1.8-0.3c0.8,0,1.5,0,2.3,0c0.8,0,1.6,0,2.4,0c0.8,0,1.5,0,2.3-0.1c0.7-0.1,1.4-0.1,2.1-0.1c0.8,0,1.6,0,2.4,0
				c0.8,0,1.6,0.1,2.3,0.2c0.8,0.1,1.5,0.2,2.1,0.4c0.4,0.1,0.8,0.3,1.2,0.5s0.9,0.5,1.3,0.8c0.4,0.3,0.8,0.7,1.2,1
				c0.4,0.4,0.6,0.7,0.7,1.1c0.4,0.9,0.6,1.8,0.8,2.6c0.2,0.8,0.2,1.7,0.1,2.8c-0.1,0.9-0.4,1.9-0.9,2.8c-0.5,0.9-1,1.6-1.6,2.1
				c-0.4,0.4-0.9,0.7-1.3,0.9C176.5,57.5,176,57.7,175.4,57.8z M170.2,54.7c0.4,0,0.8-0.1,1.3-0.3c0.5-0.2,0.9-0.4,1.4-0.7
				c0.4-0.3,0.8-0.7,1.1-1.2c0.3-0.5,0.4-1.1,0.4-1.7c0-0.5-0.1-1.1-0.2-1.7c-0.1-0.6-0.4-1.1-0.8-1.3c-0.3-0.1-0.6-0.2-1-0.3
				c-0.4-0.1-0.8-0.2-1.2-0.2c-0.8-0.1-1.6-0.2-2.3-0.2c-0.7,0-1.4,0.1-2,0.1v7.3c0.5,0.1,1.1,0.1,1.7,0.2
				C169.1,54.8,169.7,54.8,170.2,54.7z"/>
			<path fill="#DB5102" d="M203.4,47c-0.5,0-1-0.1-1.6-0.1c-0.6,0-1.2,0-1.8,0c-0.6,0-1.2,0-1.7,0.1c-0.6,0-1.1,0.1-1.5,0.2
				c-0.1,1.2,0,2.3,0.1,3.3c0.1,1,0.1,2-0.1,3c0.5,0.1,1,0.1,1.6,0.1c0.6,0,1.2-0.1,1.9-0.1c0.6,0,1.3,0,2,0c0.7,0,1.3,0.1,1.9,0.3
				c0.2,0.3,0.2,0.6,0.2,1c0,0.4,0,0.7-0.1,1.1c0,0.4-0.1,0.7-0.1,1.1c0,0.4,0,0.6,0.2,0.9c-0.1,0-0.2,0.1-0.2,0.3
				c-0.3,0.1-0.6,0.2-0.8,0.2c-0.2,0-0.5,0-0.8-0.1c-0.3,0-0.5-0.1-0.8-0.1c-0.2,0-0.5,0-0.8,0c-0.5,0.1-1.2,0.1-1.9,0.2
				c-0.8,0.1-1.5,0-2.1-0.2c-0.2,1.2-0.2,2.5,0,3.7c0.1,1.2,0.1,2.4,0,3.6c1,0.2,2.1,0.3,3.4,0.3c1.3,0,2.5-0.1,3.6-0.1
				c0.1-0.4,0.1-0.9,0-1.3c-0.1-0.4-0.2-0.8-0.4-1.1c0.1-0.2,0.2-0.4,0.4-0.6c0.1-0.2,0.3-0.4,0.4-0.6c0.3,0,0.7,0,1.2,0
				c0.4,0,0.9,0,1.3-0.1c0.5,0,0.9,0,1.4,0c0.5,0,1,0.2,1.4,0.3c0,0.4,0,0.8-0.1,1.3c-0.1,0.5-0.1,0.9-0.2,1.4
				c-0.1,0.5-0.1,1-0.1,1.4c0,0.5,0,0.9,0,1.4c0,0.3,0.1,0.8,0.2,1.3c0.1,0.5,0.1,1-0.1,1.4c-0.3,0.3-0.6,0.4-0.9,0.3
				c-0.3-0.1-0.6-0.1-0.9-0.1c-0.6,0-1.1,0-1.7,0.1c-0.5,0.1-1.1,0.1-1.7,0.1c-0.3,0-0.7,0-1.1,0c-0.4,0-0.9,0-1.3,0
				c-0.5,0-0.9,0-1.3,0c-0.4,0-0.8,0-1.2-0.1c-1.8-0.1-3.6-0.1-5.4,0c-1.8,0.1-3.6,0-5.5-0.1c-0.4-0.3-0.6-0.6-0.7-1
				s-0.2-0.8-0.2-1.3c0-0.5,0-1,0.1-1.5c0.1-0.5,0.1-1.1,0.1-1.6c0.3-0.2,0.7-0.3,1-0.2c0.4,0.1,0.7,0.1,1.1,0.1
				c0.2-2.9,0.3-5.9,0.3-8.7c0-2.9-0.1-6-0.3-9.2c-0.5,0-0.9,0.1-1.3,0.1c-0.4,0.1-0.7,0-1-0.1c-0.1,0-0.1-0.2-0.1-0.5
				c0-0.3,0-0.7,0-1.1c0-0.4,0-0.8-0.1-1.3c0-0.4-0.2-0.8-0.3-1c0.1-0.1,0.2-0.2,0.2-0.4c0-0.2,0-0.3,0.1-0.4
				c0.8-0.2,1.6-0.2,2.5-0.2c0.9,0.1,1.8,0.1,2.6,0c1.2-0.1,2.3-0.1,3.5-0.1c1.2,0,2.3,0.1,3.5,0.1c0.7,0.1,1.4,0.1,2.2,0.1
				c0.8,0,1.6,0.1,2.2,0.1c0.3,0,0.6,0,1.1-0.1c0.5-0.1,1-0.1,1.4-0.1c0.5,0,0.9,0,1.4,0c0.4,0,0.7,0.1,0.9,0.3
				c0.2,0.2,0.3,0.5,0.4,0.8c0,0.3,0,0.7,0,1.1c-0.1,0.4-0.1,0.8-0.2,1.2c-0.1,0.4-0.1,0.8-0.1,1.1c0,0.3,0,0.7,0.1,1
				c0.1,0.3,0.1,0.6,0.2,1c0.1,0.3,0.1,0.6,0.1,0.9c0,0.3-0.1,0.6-0.2,0.8c-0.4,0-1,0-1.6,0.1c-0.6,0.1-1.2,0.1-1.8,0.1
				c-0.6,0-1.1,0-1.5-0.1c-0.4-0.1-0.6-0.3-0.7-0.6c-0.1-0.4-0.1-0.8,0-1.4C203.4,48.1,203.4,47.6,203.4,47z"/>
			<path fill="#DB5102" d="M235.9,42.6c0.1,0.7,0.1,1.3,0.1,1.9c0,0.6-0.1,1.2-0.1,1.9c-0.1,0.5,0,1.1,0.1,1.6c0.1,0.6,0.1,1,0,1.3
				c-0.1,0.2-0.2,0.4-0.4,0.5c-0.2,0.1-0.4,0.3-0.4,0.5c-0.8,0.2-1.6,0.3-2.4,0.4s-1.7-0.2-2.4-0.7c0-0.6,0-1-0.1-1.4
				c0-0.4,0-0.8,0-1.3c-0.6-0.1-1.1-0.1-1.6-0.2c-0.5-0.1-0.9-0.1-1.3-0.1c-0.4,0-0.9,0-1.3,0c-0.4,0-1,0.1-1.6,0.2
				c0.1,1,0.1,2.1,0.1,3.3c0,1.2-0.1,2.3-0.2,3.4c0.5,0.1,1,0.1,1.6,0.1s1.2,0,1.8,0c0.6,0,1.3,0.1,1.9,0.1c0.6,0,1.2,0.1,1.8,0.3
				c0,0.3,0,0.7,0,1.1c0,0.4,0.1,0.8,0.1,1.2s0,0.8-0.1,1.1c-0.1,0.4-0.2,0.7-0.4,0.9c-0.3,0.1-0.5,0-0.7-0.1
				c-0.1-0.1-0.3-0.2-0.5-0.2c-0.4,0.2-0.8,0.3-1.3,0.4c-0.5,0-1,0-1.5,0c-0.5,0-1,0-1.5-0.1c-0.5,0-0.9,0-1.3,0.1
				c0,0.7,0,1.3,0,1.9c0,0.6,0,1.1-0.1,1.6c0,0.5,0,1,0,1.5s0,1.1,0.1,1.7c0.5,0.1,1.1,0.2,1.7,0.2c0.6,0,1.2,0,1.8,0
				c0.2,0.3,0.3,0.5,0.3,0.7c0,0.2,0,0.3-0.2,0.5c0,0.4,0,1,0,1.7c0,0.7,0,1.3,0,1.8c-0.2,0.2-0.5,0.3-0.7,0.3s-0.6-0.1-0.8-0.1
				c-0.8,0-1.6,0-2.5,0s-1.8,0.1-2.8,0.2c-0.7,0.1-1.5,0-2.2-0.1s-1.4-0.2-2.1-0.1c-0.2,0-0.4,0.1-0.5,0.1c-0.2,0.1-0.3,0.1-0.5,0.2
				c-0.2,0-0.3,0.1-0.5,0c-0.2,0-0.3-0.1-0.5-0.2c0-0.3,0-0.7,0-1.1c0-0.4,0-0.8,0-1.2c0-0.4,0-0.8,0-1.1c0-0.4-0.1-0.7-0.2-1
				c0.4,0,0.9,0,1.4-0.1c0.5-0.1,1-0.1,1.3-0.1c0.1-1,0.2-1.9,0.1-2.9c-0.1-1-0.1-2,0-3.1c0.1-1.3,0.1-2.6,0.2-4.1
				c0.1-1.4,0.1-2.8,0-4.2c0-0.8,0-1.5,0-2.2c0.1-0.7,0.1-1.4,0-2.2c-0.2-0.2-0.5-0.3-0.7-0.3c-0.3,0-0.6,0-0.9,0.1
				c-0.3,0.1-0.6,0.1-0.9,0.1c-0.3,0-0.5-0.1-0.7-0.2c-0.1-0.3-0.1-0.7-0.1-1.1s0-0.8,0-1.2c0-0.4,0-0.8,0.1-1.2c0-0.4,0-0.7,0-1
				c0.2-0.3,0.4-0.4,0.6-0.3c0.2,0.1,0.5,0.1,0.8,0.1c0.9,0,1.9,0,2.9,0c1,0,2,0,3-0.1c1,0,2,0,3,0s1.9,0,2.8,0.1
				c0.7,0.1,1.3,0.1,2,0.1c0.7,0,1.4,0,2.1-0.1c0.6,0,1.1-0.1,1.6-0.1c0.5,0,0.9,0.1,1.3,0.5C234.9,42.6,235.4,42.5,235.9,42.6z"/>
			<path fill="#DB5102" d="M257.8,57.8c0.4,0.3,0.8,0.6,1.1,1c0.3,0.4,0.6,0.7,0.8,1c0.4,0.6,0.7,1.1,1,1.8c0.3,0.6,0.6,1.2,0.9,1.8
				c0.3,0.6,0.7,1.1,1.2,1.5c0.5,0.4,1.1,0.7,1.8,0.8c0.5-0.1,1-0.1,1.3,0.1c0.1,0.4,0.1,0.8,0.2,1.2c0.1,0.4,0.1,0.9,0.1,1.3
				c0,0.4,0,0.8,0,1.2c0,0.4-0.1,0.7-0.3,1c-0.6,0.1-1.3,0.2-2.2,0.2c-0.9,0.1-1.7,0.1-2.6,0c-0.9,0-1.6-0.2-2.3-0.4
				c-0.7-0.2-1.2-0.6-1.5-1.2c0-0.1-0.1-0.2-0.2-0.3c-0.1-0.2-0.2-0.3-0.3-0.5c-0.1-0.2-0.2-0.4-0.3-0.5c-0.1-0.2-0.2-0.3-0.2-0.4
				c-0.3-0.6-0.6-1.2-1-1.9s-0.7-1.3-1.1-2s-0.8-1.3-1.2-1.8c-0.4-0.6-0.8-1.1-1.2-1.6c-0.5-0.1-0.9-0.1-1.3-0.1
				c-0.4,0-0.7,0.1-0.9,0.1c-0.1,0.6-0.1,1-0.1,1.5c0,0.4,0,0.8,0.1,1.2c0,0.4,0.1,0.8,0.1,1.2c0,0.4,0.1,0.9,0.1,1.5
				c0.2,0.1,0.5,0.1,0.6,0.1c0.2,0,0.4-0.1,0.6-0.1c0.2-0.1,0.4-0.1,0.6-0.1c0.2,0,0.4,0,0.6,0.1c0.2,0.1,0.4,0.4,0.4,0.7
				c0.1,0.3,0.1,0.7,0,1.2c0,0.4-0.1,0.9-0.2,1.4c-0.1,0.5-0.1,0.9-0.1,1.2c-0.1,0.2-0.2,0.4-0.4,0.5c-0.1,0.1-0.2,0.2-0.4,0.2
				c-0.1,0-0.3,0-0.5,0c-0.2,0-0.4,0-0.6-0.1c-0.4,0-0.8-0.1-1.4-0.1c-0.5,0-1.1,0-1.7,0c-0.6,0-1.2,0-1.8,0c-0.6,0-1.1,0-1.5,0.1
				c-0.3,0.1-0.6,0.1-0.9,0.1c-0.3,0-0.7,0-1,0.1c-0.3,0-0.6,0-0.9,0c-0.3,0-0.5,0-0.6-0.1c-0.1-0.1-0.2-0.2-0.4-0.4
				c-0.1-0.2-0.2-0.4-0.2-0.6c-0.1-0.3-0.1-0.6,0-0.9c0-0.3,0.1-0.7,0.1-1.1c0-0.4,0.1-0.8,0.1-1.2c0-0.4,0-0.8-0.1-1.1
				c0.1-0.1,0.3-0.2,0.5-0.2c0.2,0,0.4,0,0.6-0.1c0.2,0.1,0.5,0.1,0.7,0.2c0.3,0.1,0.5,0.1,0.8,0c0.1-1.5,0.2-3,0.2-4.5
				c0-1.4,0-2.9,0-4.3c0-1.4-0.1-2.9-0.2-4.5c-0.1-1.5-0.1-3.2-0.1-4.9c-0.4-0.1-0.7-0.1-0.9-0.1c-0.2,0-0.6,0.1-1,0.1
				c-0.2,0-0.4-0.1-0.5-0.1c-0.1,0-0.2-0.1-0.3-0.2c0.1-0.3,0.1-0.6,0.1-1s0-0.8,0-1.2c0-0.4,0-0.8,0-1.2c0-0.4,0-0.7,0.1-1
				c0.4-0.2,1-0.3,1.8-0.3c0.8,0,1.5,0,2.3,0c0.8,0,1.6,0,2.4,0c0.8,0,1.5,0,2.3-0.1c0.7-0.1,1.4-0.1,2.1-0.1c0.8,0,1.6,0,2.4,0
				c0.8,0,1.6,0.1,2.3,0.2c0.8,0.1,1.5,0.2,2.1,0.4c0.4,0.1,0.8,0.3,1.2,0.5s0.9,0.5,1.3,0.8c0.4,0.3,0.8,0.7,1.2,1
				c0.4,0.4,0.6,0.7,0.7,1.1c0.4,0.9,0.6,1.8,0.8,2.6c0.2,0.8,0.2,1.7,0.1,2.8c-0.1,0.9-0.4,1.9-0.9,2.8c-0.5,0.9-1,1.6-1.6,2.1
				c-0.4,0.4-0.9,0.7-1.3,0.9C258.9,57.5,258.4,57.7,257.8,57.8z M252.6,54.7c0.4,0,0.8-0.1,1.3-0.3c0.5-0.2,0.9-0.4,1.4-0.7
				c0.4-0.3,0.8-0.7,1.1-1.2c0.3-0.5,0.4-1.1,0.4-1.7c0-0.5-0.1-1.1-0.2-1.7c-0.1-0.6-0.4-1.1-0.8-1.3c-0.3-0.1-0.6-0.2-1-0.3
				c-0.4-0.1-0.8-0.2-1.2-0.2c-0.8-0.1-1.6-0.2-2.3-0.2c-0.7,0-1.4,0.1-2,0.1v7.3c0.5,0.1,1.1,0.1,1.7,0.2
				C251.5,54.8,252.1,54.8,252.6,54.7z"/>
			<path fill="#DB5102" d="M284.6,70.9c-0.3,0-0.7,0-1.1,0.1c-0.4,0-0.8,0-1.2,0c-1.9,0-3.6-0.2-5.1-0.6c-1.5-0.4-2.8-1.2-3.9-2.2
				c-0.2-0.1-0.3-0.3-0.5-0.5s-0.4-0.5-0.6-0.7c-0.2-0.3-0.4-0.5-0.6-0.8c-0.2-0.2-0.3-0.5-0.5-0.6c-0.3-0.3-0.6-0.8-0.9-1.4
				c-0.3-0.6-0.6-1.3-0.8-2.1c-0.2-0.8-0.4-1.6-0.6-2.5s-0.2-1.7-0.2-2.6c0-1.1,0.1-2.3,0.4-3.6c0.3-1.3,0.7-2.6,1.3-3.9
				c0.5-1.3,1.1-2.4,2-3.3c0.9-1,1.9-1.8,3-2.4c1.1-0.7,2.3-1.2,3.5-1.5c1.2-0.3,2.5-0.5,3.7-0.5c1.2,0.1,2.4,0.2,3.6,0.3
				s2.3,0.6,3.3,1.2c2.5,1.5,4.2,3.4,5.2,5.7c1,2.3,1.5,5,1.5,8.1c0,0.8,0,1.7-0.1,2.5c-0.1,0.8-0.2,1.6-0.3,2.4
				c-0.5,1.2-1.1,2.3-1.6,3.2c-0.5,1-1.3,1.8-2.3,2.6c-0.5,0.4-1,0.7-1.5,1c-0.5,0.3-1.1,0.6-1.7,0.9c-0.6,0.3-1.3,0.5-2,0.7
				C286.2,70.7,285.4,70.8,284.6,70.9z M289.6,57.4c0-0.3,0-0.6,0-0.9c0-0.3,0-0.6,0-0.9c0-0.6-0.1-1.2-0.3-1.8
				c-0.2-0.7-0.5-1.3-0.8-2c-0.3-0.7-0.7-1.3-1-1.8c-0.4-0.6-0.8-1-1.1-1.4c-0.2-0.2-0.4-0.4-0.7-0.6c-0.3-0.2-0.6-0.4-0.9-0.6
				c-0.3-0.2-0.7-0.3-1-0.4c-0.3-0.1-0.7-0.2-1-0.2c-0.8,0-1.6,0.3-2.3,0.8c-0.8,0.5-1.5,1.2-2.1,2.1c-0.6,0.9-1.1,1.8-1.5,2.9
				c-0.4,1.1-0.6,2.2-0.6,3.3c0,1.3,0.1,2.6,0.4,3.7c0.3,1.2,0.7,2.2,1.2,3.1c0.6,0.9,1.3,1.5,2.1,2c0.9,0.5,1.9,0.7,3.1,0.7
				c0.7,0,1.4-0.1,2.2-0.3c0.7-0.2,1.5-0.5,2.2-1c0.8-0.9,1.3-1.9,1.6-3C289.4,60.2,289.5,58.9,289.6,57.4z"/>
			<path fill="#DB5102" d="M330.2,42.6c0,0.6,0,1.2,0.1,1.9c0.1,0.6,0.1,1.2,0.1,1.7c0,0.3,0,0.5-0.1,0.7c-0.1,0.2-0.2,0.3-0.5,0.3
				c-0.2,0-0.5,0-0.7-0.1c-0.2-0.1-0.5-0.1-0.7-0.1c-0.2,0-0.4,0.1-0.5,0.2c-0.1,0.1-0.2,0.2-0.2,0.4c0,0.2,0,0.3,0,0.5
				c0,0.2,0,0.4,0,0.5c0,0.7,0,1.4,0.1,2.1c0.1,0.7,0.1,1.4,0.1,2.2c0,1.1,0,2.1-0.1,3.1c-0.1,1-0.1,2-0.1,3c0,1.2,0,2.4,0.1,3.5
				c0,1.2,0.1,2.3,0.1,3.4c0,0.7,0,1.4,0,2.1c0,0.7-0.1,1.4-0.2,2c-0.2,0.2-0.6,0.4-1.1,0.5c-0.5,0.1-1,0.1-1.5,0.1
				c-0.5,0-1.1,0-1.6,0c-0.5,0-0.9,0-1.2,0c-2.2-2.6-4.4-5.3-6.4-8.1c-2-2.8-4-5.6-6-8.5c-0.1,0.6-0.1,1.1-0.2,1.7
				c0,0.6,0,1.1,0,1.7c0,1,0,1.9,0.1,2.9c0,0.9,0.1,1.9,0.1,2.8c0,0.5,0,1,0,1.4c0,0.5,0,0.9-0.1,1.4c0.2,0.1,0.5,0.1,0.7,0.1
				c0.2,0,0.4,0,0.6,0c0.2,0,0.4,0,0.7,0c0.2,0,0.4,0,0.6,0.1c0.2,0.1,0.3,0.2,0.5,0.4c-0.1,0.2-0.1,0.5-0.1,0.8c0,0.3,0,0.6,0,0.9
				c0,0.3,0,0.6,0,0.9c0,0.4,0,0.8-0.1,1c-0.1,0.2-0.4,0.3-0.9,0.3c-0.4,0-0.8,0-1.2-0.1c-0.4-0.1-0.8-0.1-1.3-0.1
				c-0.4,0-0.7,0.1-1.1,0.2c-0.4,0.1-0.9,0.2-1.4,0.2c-0.6,0-1.2,0-1.9-0.1s-1.3-0.1-1.9-0.1c-0.4,0-0.8,0-1.2,0
				c-0.4,0-0.7,0.1-1.1,0.2c0-0.1,0-0.3,0-0.4s0-0.3,0-0.4c0-0.4,0-0.9-0.1-1.5c-0.1-0.5-0.1-1-0.1-1.4c0-0.5,0.1-0.7,0.3-0.8
				c0.2-0.1,0.7-0.1,1.3-0.1c0.3,0,0.5,0,0.8,0c0.2,0,0.5,0.1,0.7,0.2c0.1-0.8,0.1-1.6,0.2-2.4c0-0.8,0-1.6,0-2.4
				c0-1.9,0-3.7-0.1-5.6c-0.1-1.8-0.1-3.6-0.1-5.3c0-0.5,0-1,0-1.5s0-0.9,0.1-1.4c-0.2-0.2-0.3-0.3-0.5-0.3
				c-0.2-0.1-0.4-0.1-0.6-0.1c-0.3,0-0.6,0-0.9,0.1c-0.3,0.1-0.6,0.1-0.9,0.1c-0.4,0-0.8-0.1-1-0.4c0.1-0.4,0.1-0.9,0.1-1.4
				c0-0.5,0-0.9,0-1.4c0-0.4,0.1-0.8,0.2-1.2c0.1-0.4,0.3-0.6,0.6-0.8c0.4,0.1,0.8,0.2,1.2,0.3c0.4,0.1,0.9,0.1,1.3,0.1
				c0.6,0,1.2,0,1.9-0.1c0.7-0.1,1.3-0.1,1.9-0.1c0.4,0,0.7,0,1.1,0c0.4,0,0.7,0.1,1.1,0.2c2,2.8,4.1,5.5,6.3,8.2
				c2.1,2.7,4.3,5.4,6.4,8c0.2-0.9,0.2-1.9,0.2-2.9c0-1.3-0.1-2.6-0.2-4c-0.1-1.4-0.2-2.8-0.2-4.3v-0.6c-0.1,0-0.3,0-0.6,0
				c-0.2,0-0.4,0-0.6,0c-0.2,0-0.4,0-0.6,0c-0.2,0-0.4,0-0.5-0.1c-0.2-0.1-0.3-0.2-0.4-0.4c0.1-0.6,0.2-1.3,0.1-2c0-0.7,0-1.3,0-1.9
				c0-0.2,0.2-0.3,0.4-0.3c0.3,0,0.6-0.1,0.9-0.1h0.6c0.5,0,1.1,0,1.7,0c0.6,0,1.3,0,2,0c0.9,0,1.9,0,2.8,0
				C328.8,42.5,329.6,42.5,330.2,42.6z"/>
			<path fill="#DB5102" d="M360.6,50.8c-0.3,0.1-0.7,0.2-1.2,0.3c-0.5,0-1,0.1-1.6,0.1c-0.5,0-1,0-1.5-0.1c-0.4-0.1-0.8-0.1-0.9-0.2
				c-0.1-0.1-0.1-0.2-0.1-0.5c0-0.3,0-0.6,0-0.9s0-0.7,0-1.1c0-0.4,0-0.7-0.1-1c-0.4,0-0.8,0-1.1,0c-0.3,0-0.5-0.1-0.8-0.1
				c-0.3,0-0.6,0-0.9-0.1c-0.3,0-0.8,0-1.4,0.1c-0.1,1.4-0.1,2.7,0,3.9c0.1,1.2,0.2,2.5,0.2,3.7c0,0.9,0,1.7-0.1,2.6
				c-0.1,0.9-0.1,1.7-0.1,2.6c0,0.9-0.1,1.7-0.1,2.6c0,0.9,0.1,1.8,0.2,2.7c0.4,0,0.8,0,1.1-0.1c0.3-0.1,0.7,0,1.2,0.1
				c0.2,0.3,0.3,0.6,0.3,1s0.1,0.7,0.1,1.1c0,0.4,0,0.8,0,1.3c0,0.4,0,0.9,0,1.3c-0.2,0.3-0.5,0.4-0.9,0.4c-0.4-0.1-0.9,0-1.5,0
				c-0.4,0-0.9,0-1.6,0s-1.3,0-2,0c-0.7,0-1.4,0-2,0c-0.7,0-1.2,0-1.7,0c-0.2,0-0.4,0-0.6,0s-0.6,0-0.8,0c-0.3,0-0.6,0-0.8,0
				c-0.2,0-0.4,0-0.5-0.1c-0.2-0.1-0.3-0.1-0.3-0.2c0-0.1-0.1-0.1,0-0.2c0-0.1,0-0.2,0.1-0.3c0-0.1,0-0.3,0-0.4
				c0.1-0.6,0.2-1.2,0.2-1.8c0-0.6-0.1-1.1-0.2-1.6c0.1-0.2,0.2-0.3,0.5-0.4c0.2-0.1,0.5-0.2,0.7-0.2c0.3,0,0.6,0,0.9,0
				c0.3,0,0.6,0,0.8,0.1c0.3-2.9,0.4-5.8,0.4-8.8c0-3-0.2-6-0.4-9.2c-0.6-0.2-1.2-0.3-1.8-0.3c-0.6,0-1.3,0-2,0.1c0,0.4,0,0.7,0.1,1
				c0,0.3,0,0.6,0,0.8s0,0.5,0,0.7s0,0.5,0,0.8c-0.3,0.1-0.7,0.2-1.2,0.2c-0.5,0-1,0.1-1.5,0.1c-0.5,0-1.1,0-1.6-0.1
				c-0.5,0-1-0.1-1.5-0.2c0.1-1.2,0.1-2.5,0.1-4c0-1.5-0.2-2.8-0.4-4c2-0.3,4-0.5,5.9-0.6c1.9-0.1,3.8-0.1,5.8,0
				c1.9,0,3.8,0.1,5.8,0.1c1.9,0.1,3.9,0,5.9,0c0.3,0,0.6,0,0.9,0c0.3,0,0.7,0,1,0.1c0.3,0,0.6,0.1,0.8,0.2c0.2,0.1,0.4,0.2,0.4,0.3
				c0.1,0.3,0.2,0.8,0.1,1.3c0,0.5,0,1,0,1.4c0,0.8,0.1,1.7,0.2,2.6C360.9,49.2,360.9,50.1,360.6,50.8z"/>
			<path fill="#DB5102" d="M395,42.5c0,0.2,0.1,0.5,0.1,0.9c0.1,0.4,0.1,0.9,0.1,1.4c0,0.5,0,0.9,0,1.3c0,0.4-0.1,0.7-0.3,0.8
				c-0.1,0.1-0.4,0.1-0.7,0.1c-0.4,0-0.8,0-1.3,0c-0.1,0.9-0.2,1.7-0.2,2.5c0,0.8,0,1.6,0,2.4c0,0.8,0.1,1.6,0.1,2.5
				c0,0.8,0,1.7,0,2.6c0,0.4,0,0.7,0,1.1c0.1,0.4,0.1,0.7,0.1,1.1c0.1,1.1,0,2.1-0.2,3.1c-0.2,1-0.2,2.1-0.2,3.2
				c1.2,0.2,2.3,0.2,3.4,0.1c1.1-0.1,2.2-0.1,3.2-0.1c0.1-0.3,0.2-0.6,0.2-0.9c0-0.3,0-0.5,0-0.7s0-0.5,0-0.6c0-0.2,0.1-0.4,0.1-0.5
				c0.3-0.2,0.7-0.3,1.2-0.3c0.5-0.1,1-0.1,1.6-0.1c0.5,0,1.1,0.1,1.5,0.1c0.5,0.1,0.8,0.2,1.1,0.4c-0.1,0.7-0.1,1.4-0.1,2
				c0,0.7,0.1,1.3,0.1,1.9c0,0.6,0.1,1.2,0,1.8c0,0.6-0.1,1.2-0.3,1.7c-0.5,0.1-1.1,0.2-1.8,0.2c-0.7,0-1.6,0-2.4,0
				c-0.9,0-1.8,0-2.7,0c-0.9,0-1.9,0-2.7,0.1c-1.6,0.1-3.3,0.2-5.1,0.1c-1.8-0.1-3.6-0.1-5.4-0.2c-0.2-0.2-0.4-0.3-0.5-0.4
				c-0.1-0.1-0.2-0.3-0.3-0.6c-0.1-0.2,0-0.5,0.1-0.8c0.1-0.3,0.1-0.7,0.1-1c0-0.2,0-0.4-0.1-0.6c-0.1-0.2-0.1-0.4,0-0.5
				c0.1-0.5,0.3-0.8,0.8-0.9s1-0.1,1.5,0.1c-0.1-1-0.1-2.1-0.1-3.3s0-2.5,0-3.7c0-1.2,0.1-2.4,0.1-3.4c0.1-1.1,0.1-1.9,0.2-2.6
				c0-0.9,0-1.9-0.1-2.8c0-1-0.1-1.9-0.2-2.8c-0.1-0.1-0.3-0.2-0.5-0.2c-0.2,0-0.5,0-0.7,0c-0.2,0-0.5,0-0.7,0
				c-0.2,0-0.4-0.1-0.5-0.2c-0.1-0.3-0.1-0.6-0.1-1c0-0.4,0-0.8,0.1-1.2c0-0.4,0.1-0.8,0.1-1.2c0-0.4,0.1-0.7,0.1-1
				c0.3-0.1,0.6-0.2,0.9-0.2c0.3,0,0.7,0,1,0c0.4,0,0.7,0.1,1.1,0.2c0.4,0.1,0.8,0.1,1.2,0.1c0.4,0,0.9,0,1.3,0c0.5,0,0.9,0,1.2,0
				c0.3,0,0.7-0.1,1-0.1c0.4-0.1,0.7-0.1,1.1-0.1c0.4,0,0.7,0,1.1,0C394.2,42.3,394.6,42.3,395,42.5z"/>
			<path fill="#DB5102" d="M431.4,50.8c-0.3,0.1-0.7,0.2-1.2,0.3c-0.5,0-1,0.1-1.6,0.1c-0.5,0-1,0-1.5-0.1c-0.4-0.1-0.8-0.1-0.9-0.2
				c-0.1-0.1-0.1-0.2-0.1-0.5c0-0.3,0-0.6,0-0.9s0-0.7,0-1.1c0-0.4,0-0.7-0.1-1c-0.4,0-0.8,0-1.1,0c-0.3,0-0.5-0.1-0.8-0.1
				c-0.3,0-0.6,0-0.9-0.1c-0.3,0-0.8,0-1.4,0.1c-0.1,1.4-0.1,2.7,0,3.9c0.1,1.2,0.2,2.5,0.2,3.7c0,0.9,0,1.7-0.1,2.6
				c-0.1,0.9-0.1,1.7-0.1,2.6c0,0.9-0.1,1.7-0.1,2.6c0,0.9,0.1,1.8,0.2,2.7c0.4,0,0.8,0,1.1-0.1c0.3-0.1,0.7,0,1.2,0.1
				c0.2,0.3,0.3,0.6,0.3,1s0.1,0.7,0.1,1.1c0,0.4,0,0.8,0,1.3c0,0.4,0,0.9,0,1.3c-0.2,0.3-0.5,0.4-0.9,0.4c-0.4-0.1-0.9,0-1.5,0
				c-0.4,0-0.9,0-1.6,0s-1.3,0-2,0c-0.7,0-1.4,0-2,0c-0.7,0-1.2,0-1.7,0c-0.2,0-0.4,0-0.6,0s-0.6,0-0.8,0c-0.3,0-0.6,0-0.8,0
				c-0.2,0-0.4,0-0.5-0.1c-0.2-0.1-0.3-0.1-0.3-0.2c0-0.1-0.1-0.1,0-0.2c0-0.1,0-0.2,0.1-0.3c0-0.1,0-0.3,0-0.4
				c0.1-0.6,0.2-1.2,0.2-1.8c0-0.6-0.1-1.1-0.2-1.6c0.1-0.2,0.2-0.3,0.5-0.4c0.2-0.1,0.5-0.2,0.7-0.2c0.3,0,0.6,0,0.9,0
				c0.3,0,0.6,0,0.8,0.1c0.3-2.9,0.4-5.8,0.4-8.8c0-3-0.2-6-0.4-9.2c-0.6-0.2-1.2-0.3-1.8-0.3c-0.6,0-1.3,0-2,0.1c0,0.4,0,0.7,0.1,1
				c0,0.3,0,0.6,0,0.8s0,0.5,0,0.7s0,0.5,0,0.8c-0.3,0.1-0.7,0.2-1.2,0.2c-0.5,0-1,0.1-1.5,0.1c-0.5,0-1.1,0-1.6-0.1
				c-0.5,0-1-0.1-1.5-0.2c0.1-1.2,0.1-2.5,0.1-4c0-1.5-0.2-2.8-0.4-4c2-0.3,4-0.5,5.9-0.6c1.9-0.1,3.8-0.1,5.8,0
				c1.9,0,3.8,0.1,5.8,0.1c1.9,0.1,3.9,0,5.9,0c0.3,0,0.6,0,0.9,0c0.3,0,0.7,0,1,0.1c0.3,0,0.6,0.1,0.8,0.2c0.2,0.1,0.4,0.2,0.4,0.3
				c0.1,0.3,0.2,0.8,0.1,1.3c0,0.5,0,1,0,1.4c0,0.8,0.1,1.7,0.2,2.6C431.7,49.2,431.6,50.1,431.4,50.8z"/>
			<path fill="#DB5102" d="M435.8,70.6c0-0.2,0-0.5,0-0.8s0-0.7,0-1.2c0-0.4,0-0.9,0-1.3s0-0.9-0.1-1.3c0.3-0.4,0.7-0.7,1.3-0.6
				c0.6,0,1.1,0.1,1.6,0.3c0.1-1.4,0.1-2.9,0-4.4c-0.1-1.5-0.2-2.9-0.3-4.4s-0.2-3-0.2-4.6c0-1.6,0-3.2,0.2-4.9c-0.5,0-1,0-1.5,0.1
				c-0.5,0.1-1,0-1.2-0.2c-0.1-0.3-0.1-0.7,0-1.1c0.1-0.4,0.1-0.9,0-1.5c0-0.3,0-0.6-0.1-0.9c0-0.3,0-0.6,0.1-0.8
				c0.1-0.1,0.1-0.2,0.2-0.2c0,0,0.1,0,0.2-0.1c0.2-0.1,0.5-0.1,0.9,0c0.4,0,0.7,0,0.9,0c1.2,0,2.3-0.1,3.3-0.1s2.1-0.1,3.2-0.1
				c1,0,2.1,0,3.2,0c1.1,0,2.2,0.1,3.3,0.2c1.3,0.1,2.6,0.4,3.9,0.7c1.3,0.3,2.4,0.8,3.3,1.4c1,0.6,1.9,1.4,2.7,2.4
				c0.8,0.9,1.4,2,1.8,3c0.2,0.7,0.4,1.5,0.5,2.4c0.1,0.9,0.2,1.9,0.2,2.8c0,1-0.1,1.9-0.2,2.8s-0.3,1.7-0.5,2.3
				c-0.2,1.4-0.6,2.6-1.1,3.5c-0.5,0.9-1.1,1.9-1.8,2.9c-0.2,0.3-0.5,0.6-0.9,1c-0.4,0.3-0.8,0.6-1.2,0.9c-0.4,0.3-0.9,0.5-1.4,0.7
				c-0.5,0.2-0.9,0.4-1.4,0.5c-0.6,0.1-1.2,0.2-1.9,0.3c-0.7,0.1-1.3,0.2-2,0.3c-0.7,0.1-1.3,0.2-2.1,0.2c-0.7,0-1.4,0-2.2,0
				c-0.7,0-1.4-0.1-2.2-0.1c-0.7-0.1-1.4-0.1-2,0c-1.3,0.1-2.4,0.2-3.5,0.3C438,71,436.9,70.9,435.8,70.6z M453.1,64.6
				c0.8-0.4,1.3-1,1.8-1.9c0.4-0.9,0.7-1.8,0.9-2.8c0.2-0.9,0.2-1.9,0.3-2.8c0-1,0-1.9-0.2-2.8c-0.1-0.9-0.3-1.7-0.6-2.5
				c-0.3-0.7-0.6-1.4-1-1.9c-0.6-0.5-1.3-1-2.1-1.5c-0.8-0.5-1.6-0.7-2.5-0.8c-0.8-0.1-1.6-0.1-2.4-0.1c-0.7,0-1.5,0.1-2.2,0.4
				c-0.1,1.6-0.2,3.2-0.2,4.7c0,1.6,0,3.1,0.1,4.7c0.1,1.6,0.1,3.1,0.2,4.6c0.1,1.5,0.1,2.9,0.1,4.3c1.4,0.1,2.8,0.1,4,0
				C450.6,65.9,451.8,65.4,453.1,64.6z"/>
			<path fill="#DB5102" d="M473.2,59.9c0.9,0,1.6,0,2.3,0.2c0.7,0.2,1.2,0.5,1.7,1c0.8,0.6,1.4,1.4,1.7,2.4c0.3,1,0.4,2,0.3,3.1
				c-0.2,1-0.6,2-1.2,2.8c-0.6,0.8-1.5,1.3-2.5,1.5c-0.5,0.1-1,0.1-1.5,0.1c-0.6,0-1.1,0-1.7-0.1c-0.6-0.1-1.1-0.2-1.6-0.3
				c-0.5-0.1-0.9-0.3-1.2-0.5c-0.8-0.8-1.2-1.8-1.3-2.9c-0.1-1.1,0.1-2.1,0.5-3.2c0.4-1,1-1.9,1.8-2.7
				C471.3,60.6,472.2,60.1,473.2,59.9z"/>
		</g>
	</g>
	<g>
		<path fill="#F7E588" d="M89.2,41.6c-0.1,0.4-0.1,0.8-0.1,1.2c0,0.4,0,0.8,0,1.2c0,0.6,0,1.1,0,1.7c0,0.6,0,1.1,0,1.6
			c0,0.2,0,0.4,0,0.6c0,0.2,0,0.4,0,0.5c0,0.2-0.1,0.3-0.3,0.4c-0.1,0.1-0.3,0.1-0.6,0.1c-0.4,0-1,0-1.7-0.1
			c-0.7-0.1-1.2-0.1-1.7-0.1c-0.2,0-0.4,0-0.7,0c-0.3,0-0.5,0-0.6,0c-0.3,0-0.5-0.2-0.5-0.4c-0.1-0.2-0.1-0.5-0.1-0.8
			c0-0.3,0-0.5,0-0.8c0-0.3,0-0.6,0-0.9v-0.6c-0.4,0-0.8,0-1.2,0c-0.4,0-0.9,0-1.5,0c-0.6,0-1.3,0-1.9,0.1c-0.6,0.1-1.2,0.2-1.7,0.4
			c-0.5,0.2-0.9,0.4-1.2,0.7C75.2,46.5,75,47,75,47.5c0,0.7,0.3,1.3,1,1.6c0.7,0.4,1.4,0.7,2.2,0.9c0.9,0.3,1.8,0.6,2.7,0.8
			c0.9,0.3,1.6,0.5,2.3,0.7c0.8,0.2,1.5,0.4,2.1,0.7c0.6,0.2,1.2,0.6,1.6,1.1c1,0.5,1.9,1.3,2.6,2.5c0.7,1.1,1,2.4,1,3.8
			c0,0.8-0.1,1.7-0.4,2.5c-0.3,0.8-0.6,1.5-1.1,2.2c-0.4,0.7-1,1.3-1.6,1.9c-0.6,0.6-1.3,1-2,1.4c-0.4,0.2-0.9,0.4-1.6,0.6
			c-0.7,0.2-1.3,0.3-1.9,0.5c-0.6,0.1-1.2,0.2-2,0.3S78.6,69,77.9,69c-1.1,0-2.1-0.1-3.1-0.2c-1-0.1-1.9-0.3-2.8-0.5
			c-0.9-0.2-1.6-0.4-2.2-0.7c-0.6-0.2-1.1-0.5-1.5-0.7c-0.1-0.8-0.1-1.7-0.1-2.6c0-0.9,0-1.7,0-2.4c0-0.4,0-0.7,0-1
			c0-0.3,0-0.6,0-0.8c0.6-0.1,1.3-0.1,2.2-0.1c0.9,0,1.8-0.1,2.5-0.1c0.5,0,0.9,0,1.2,0.1c0.3,0,0.4,0.1,0.5,0.2
			c0.1,0.1,0.1,0.2,0.1,0.3s0,0.3,0,0.4c0,0.3,0,0.6-0.1,0.9c-0.1,0.3-0.1,0.6-0.1,0.9c0,0.4,0.1,0.8,0.3,1.1c0.9,0,1.8,0,2.6,0
			c0.8,0,1.5,0,2.2-0.1c0.7-0.1,1.3-0.2,1.8-0.5s1-0.6,1.5-1c0.2-0.2,0.3-0.4,0.4-0.7c0.1-0.3,0.2-0.5,0.2-0.8c0-0.5-0.2-1-0.6-1.4
			c-0.4-0.4-0.9-0.7-1.6-1c-0.6-0.3-1.3-0.6-2.1-0.8c-0.8-0.2-1.5-0.5-2.3-0.6c-0.7-0.2-1.4-0.4-2.1-0.6c-0.6-0.2-1.1-0.4-1.5-0.7
			c-0.2-0.1-0.5-0.3-0.9-0.5c-0.3-0.2-0.7-0.4-1-0.6c-0.3-0.2-0.7-0.4-1-0.7c-0.3-0.2-0.6-0.5-0.7-0.7c-0.2-0.2-0.4-0.6-0.6-0.9
			c-0.2-0.4-0.3-0.8-0.5-1.2c-0.1-0.4-0.2-0.9-0.3-1.3c-0.1-0.4-0.1-0.8-0.1-1.2c0.1-0.8,0.2-1.6,0.3-2.2s0.4-1.2,0.6-1.7
			s0.6-1,1-1.5c0.4-0.5,0.9-0.9,1.6-1.4c0.4-0.3,1-0.6,1.6-0.9c0.6-0.2,1.2-0.4,1.9-0.6c0.7-0.2,1.3-0.3,2-0.3
			c0.7-0.1,1.3-0.1,1.9-0.1c0.6,0,1.4,0,2.3,0.1c0.9,0.1,1.9,0.2,2.8,0.4c1,0.2,1.9,0.4,2.7,0.6C88,41.1,88.7,41.3,89.2,41.6z"/>
		<path fill="#F7E588" d="M120.2,48.7c-0.3,0.1-0.7,0.2-1.2,0.3c-0.5,0-1,0.1-1.6,0.1c-0.5,0-1,0-1.5-0.1c-0.4-0.1-0.8-0.1-0.9-0.2
			c-0.1-0.1-0.1-0.2-0.1-0.5c0-0.3,0-0.6,0-0.9s0-0.7,0-1.1c0-0.4,0-0.7-0.1-1c-0.4,0-0.8,0-1.1,0c-0.3,0-0.5-0.1-0.8-0.1
			c-0.3,0-0.6,0-0.9-0.1c-0.3,0-0.8,0-1.4,0.1c-0.1,1.4-0.1,2.7,0,3.9c0.1,1.2,0.2,2.5,0.2,3.7c0,0.9,0,1.7-0.1,2.6
			c-0.1,0.9-0.1,1.7-0.1,2.6c0,0.9-0.1,1.7-0.1,2.6c0,0.9,0.1,1.8,0.2,2.7c0.4,0,0.8,0,1.1-0.1c0.3-0.1,0.7,0,1.2,0.1
			c0.2,0.3,0.3,0.6,0.3,1s0.1,0.7,0.1,1.1c0,0.4,0,0.8,0,1.3c0,0.4,0,0.9,0,1.3c-0.2,0.3-0.5,0.4-0.9,0.4c-0.4-0.1-0.9,0-1.5,0
			c-0.4,0-0.9,0-1.6,0s-1.3,0-2,0c-0.7,0-1.4,0-2,0c-0.7,0-1.2,0-1.7,0c-0.2,0-0.4,0-0.6,0s-0.6,0-0.8,0c-0.3,0-0.6,0-0.8,0
			c-0.2,0-0.4,0-0.5-0.1c-0.2-0.1-0.3-0.1-0.3-0.2c0-0.1-0.1-0.1,0-0.2c0-0.1,0-0.2,0.1-0.3c0-0.1,0-0.3,0-0.4
			c0.1-0.6,0.2-1.2,0.2-1.8c0-0.6-0.1-1.1-0.2-1.6c0.1-0.2,0.2-0.3,0.5-0.4c0.2-0.1,0.5-0.2,0.7-0.2c0.3,0,0.6,0,0.9,0
			c0.3,0,0.6,0,0.8,0.1c0.3-2.9,0.4-5.8,0.4-8.8c0-3-0.2-6-0.4-9.2c-0.6-0.2-1.2-0.3-1.8-0.3c-0.6,0-1.3,0-2,0.1c0,0.4,0,0.7,0.1,1
			c0,0.3,0,0.6,0,0.8s0,0.5,0,0.7s0,0.5,0,0.8c-0.3,0.1-0.7,0.2-1.2,0.2c-0.5,0-1,0.1-1.5,0.1c-0.5,0-1.1,0-1.6-0.1
			c-0.5,0-1-0.1-1.5-0.2c0.1-1.2,0.1-2.5,0.1-4c0-1.5-0.2-2.8-0.4-4c2-0.3,4-0.5,5.9-0.6c1.9-0.1,3.8-0.1,5.8,0
			c1.9,0,3.8,0.1,5.8,0.1c1.9,0.1,3.9,0,5.9,0c0.3,0,0.6,0,0.9,0c0.3,0,0.7,0,1,0.1c0.3,0,0.6,0.1,0.8,0.2c0.2,0.1,0.4,0.2,0.4,0.3
			c0.1,0.3,0.2,0.8,0.1,1.3c0,0.5,0,1,0,1.4c0,0.8,0.1,1.7,0.2,2.6C120.5,47.1,120.4,47.9,120.2,48.7z"/>
		<path fill="#F7E588" d="M139.7,68.8c-0.3,0-0.7,0-1.1,0.1c-0.4,0-0.8,0-1.2,0c-1.9,0-3.6-0.2-5.1-0.6c-1.5-0.4-2.8-1.2-3.9-2.2
			c-0.2-0.1-0.3-0.3-0.5-0.5s-0.4-0.5-0.6-0.7c-0.2-0.3-0.4-0.5-0.6-0.8c-0.2-0.2-0.3-0.5-0.5-0.6c-0.3-0.3-0.6-0.8-0.9-1.4
			c-0.3-0.6-0.6-1.3-0.8-2.1c-0.2-0.8-0.4-1.6-0.6-2.5s-0.2-1.7-0.2-2.6c0-1.1,0.1-2.3,0.4-3.6c0.3-1.3,0.7-2.6,1.3-3.9
			c0.5-1.3,1.1-2.4,2-3.3c0.9-1,1.9-1.8,3-2.4c1.1-0.7,2.3-1.2,3.5-1.5c1.2-0.3,2.5-0.5,3.7-0.5c1.2,0.1,2.4,0.2,3.6,0.3
			s2.3,0.6,3.3,1.2c2.5,1.5,4.2,3.4,5.2,5.7c1,2.3,1.5,5,1.5,8.1c0,0.8,0,1.7-0.1,2.5c-0.1,0.8-0.2,1.6-0.3,2.4
			c-0.5,1.2-1.1,2.3-1.6,3.2c-0.5,1-1.3,1.8-2.3,2.6c-0.5,0.4-1,0.7-1.5,1c-0.5,0.3-1.1,0.6-1.7,0.9c-0.6,0.3-1.3,0.5-2,0.7
			C141.4,68.6,140.6,68.7,139.7,68.8z M144.7,55.3c0-0.3,0-0.6,0-0.9c0-0.3,0-0.6,0-0.9c0-0.6-0.1-1.2-0.3-1.8
			c-0.2-0.7-0.5-1.3-0.8-2c-0.3-0.7-0.7-1.3-1-1.8c-0.4-0.6-0.8-1-1.1-1.4c-0.2-0.2-0.4-0.4-0.7-0.6c-0.3-0.2-0.6-0.4-0.9-0.6
			c-0.3-0.2-0.7-0.3-1-0.4c-0.3-0.1-0.7-0.2-1-0.2c-0.8,0-1.6,0.3-2.3,0.8c-0.8,0.5-1.5,1.2-2.1,2.1c-0.6,0.9-1.1,1.8-1.5,2.9
			c-0.4,1.1-0.6,2.2-0.6,3.3c0,1.3,0.1,2.6,0.4,3.7c0.3,1.2,0.7,2.2,1.2,3.1c0.6,0.9,1.3,1.5,2.1,2c0.9,0.5,1.9,0.7,3.1,0.7
			c0.7,0,1.4-0.1,2.2-0.3c0.7-0.2,1.5-0.5,2.2-1c0.8-0.9,1.3-1.9,1.6-3C144.5,58.1,144.7,56.8,144.7,55.3z"/>
		<path fill="#F7E588" d="M173.2,55.7c0.4,0.3,0.8,0.6,1.1,1c0.3,0.4,0.6,0.7,0.8,1c0.4,0.6,0.7,1.1,1,1.8c0.3,0.6,0.6,1.2,0.9,1.8
			c0.3,0.6,0.7,1.1,1.2,1.5c0.5,0.4,1.1,0.7,1.8,0.8c0.5-0.1,1-0.1,1.3,0.1c0.1,0.4,0.1,0.8,0.2,1.2c0.1,0.4,0.1,0.9,0.1,1.3
			c0,0.4,0,0.8,0,1.2c0,0.4-0.1,0.7-0.3,1c-0.6,0.1-1.3,0.2-2.2,0.2c-0.9,0.1-1.7,0.1-2.6,0c-0.9,0-1.6-0.2-2.3-0.4
			c-0.7-0.2-1.2-0.6-1.5-1.2c0-0.1-0.1-0.2-0.2-0.3c-0.1-0.2-0.2-0.3-0.3-0.5c-0.1-0.2-0.2-0.4-0.3-0.5c-0.1-0.2-0.2-0.3-0.2-0.4
			c-0.3-0.6-0.6-1.2-1-1.9s-0.7-1.3-1.1-2s-0.8-1.3-1.2-1.8c-0.4-0.6-0.8-1.1-1.2-1.6c-0.5-0.1-0.9-0.1-1.3-0.1
			c-0.4,0-0.7,0.1-0.9,0.1c-0.1,0.6-0.1,1-0.1,1.5c0,0.4,0,0.8,0.1,1.2c0,0.4,0.1,0.8,0.1,1.2c0,0.4,0.1,0.9,0.1,1.5
			c0.2,0.1,0.5,0.1,0.6,0.1c0.2,0,0.4-0.1,0.6-0.1c0.2-0.1,0.4-0.1,0.6-0.1c0.2,0,0.4,0,0.6,0.1c0.2,0.1,0.4,0.4,0.4,0.7
			c0.1,0.3,0.1,0.7,0,1.2c0,0.4-0.1,0.9-0.2,1.4c-0.1,0.5-0.1,0.9-0.1,1.2c-0.1,0.2-0.2,0.4-0.4,0.5c-0.1,0.1-0.2,0.2-0.4,0.2
			c-0.1,0-0.3,0-0.5,0c-0.2,0-0.4,0-0.6-0.1c-0.4,0-0.8-0.1-1.4-0.1c-0.5,0-1.1,0-1.7,0c-0.6,0-1.2,0-1.8,0c-0.6,0-1.1,0-1.5,0.1
			c-0.3,0.1-0.6,0.1-0.9,0.1c-0.3,0-0.7,0-1,0.1c-0.3,0-0.6,0-0.9,0c-0.3,0-0.5,0-0.6-0.1c-0.1-0.1-0.2-0.2-0.4-0.4
			c-0.1-0.2-0.2-0.4-0.2-0.6c-0.1-0.3-0.1-0.6,0-0.9c0-0.3,0.1-0.7,0.1-1.1c0-0.4,0.1-0.8,0.1-1.2c0-0.4,0-0.8-0.1-1.1
			c0.1-0.1,0.3-0.2,0.5-0.2c0.2,0,0.4,0,0.6-0.1c0.2,0.1,0.5,0.1,0.7,0.2c0.3,0.1,0.5,0.1,0.8,0c0.1-1.5,0.2-3,0.2-4.5
			c0-1.4,0-2.9,0-4.3c0-1.4-0.1-2.9-0.2-4.5c-0.1-1.5-0.1-3.2-0.1-4.9c-0.4-0.1-0.7-0.1-0.9-0.1c-0.2,0-0.6,0.1-1,0.1
			c-0.2,0-0.4-0.1-0.5-0.1c-0.1,0-0.2-0.1-0.3-0.2c0.1-0.3,0.1-0.6,0.1-1s0-0.8,0-1.2c0-0.4,0-0.8,0-1.2c0-0.4,0-0.7,0.1-1
			c0.4-0.2,1-0.3,1.8-0.3c0.8,0,1.5,0,2.3,0c0.8,0,1.6,0,2.4,0c0.8,0,1.5,0,2.3-0.1c0.7-0.1,1.4-0.1,2.1-0.1c0.8,0,1.6,0,2.4,0
			c0.8,0,1.6,0.1,2.3,0.2c0.8,0.1,1.5,0.2,2.1,0.4c0.4,0.1,0.8,0.3,1.2,0.5s0.9,0.5,1.3,0.8c0.4,0.3,0.8,0.7,1.2,1
			c0.4,0.4,0.6,0.7,0.7,1.1c0.4,0.9,0.6,1.8,0.8,2.6c0.2,0.8,0.2,1.7,0.1,2.8c-0.1,0.9-0.4,1.9-0.9,2.8c-0.5,0.9-1,1.6-1.6,2.1
			c-0.4,0.4-0.9,0.7-1.3,0.9C174.3,55.3,173.8,55.5,173.2,55.7z M168.1,52.6c0.4,0,0.8-0.1,1.3-0.3c0.5-0.2,0.9-0.4,1.4-0.7
			c0.4-0.3,0.8-0.7,1.1-1.2c0.3-0.5,0.4-1.1,0.4-1.7c0-0.5-0.1-1.1-0.2-1.7c-0.1-0.6-0.4-1.1-0.8-1.3c-0.3-0.1-0.6-0.2-1-0.3
			c-0.4-0.1-0.8-0.2-1.2-0.2c-0.8-0.1-1.6-0.2-2.3-0.2c-0.7,0-1.4,0.1-2,0.1v7.3c0.5,0.1,1.1,0.1,1.7,0.2
			C167,52.6,167.5,52.6,168.1,52.6z"/>
		<path fill="#F7E588" d="M201.3,44.9c-0.5,0-1-0.1-1.6-0.1c-0.6,0-1.2,0-1.8,0c-0.6,0-1.2,0-1.7,0.1c-0.6,0-1.1,0.1-1.5,0.2
			c-0.1,1.2,0,2.3,0.1,3.3c0.1,1,0.1,2-0.1,3c0.5,0.1,1,0.1,1.6,0.1c0.6,0,1.2-0.1,1.9-0.1c0.6,0,1.3,0,2,0c0.7,0,1.3,0.1,1.9,0.3
			c0.2,0.3,0.2,0.6,0.2,1c0,0.4,0,0.7-0.1,1.1c0,0.4-0.1,0.7-0.1,1.1c0,0.4,0,0.6,0.2,0.9c-0.1,0-0.2,0.1-0.2,0.3
			c-0.3,0.1-0.6,0.2-0.8,0.2c-0.2,0-0.5,0-0.8-0.1c-0.3,0-0.5-0.1-0.8-0.1c-0.2,0-0.5,0-0.8,0c-0.5,0.1-1.2,0.1-1.9,0.2
			c-0.8,0.1-1.5,0-2.1-0.2c-0.2,1.2-0.2,2.5,0,3.7c0.1,1.2,0.1,2.4,0,3.6c1,0.2,2.1,0.3,3.4,0.3c1.3,0,2.5-0.1,3.6-0.1
			c0.1-0.4,0.1-0.9,0-1.3c-0.1-0.4-0.2-0.8-0.4-1.1c0.1-0.2,0.2-0.4,0.4-0.6c0.1-0.2,0.3-0.4,0.4-0.6c0.3,0,0.7,0,1.2,0
			c0.4,0,0.9,0,1.3-0.1c0.5,0,0.9,0,1.4,0c0.5,0,1,0.2,1.4,0.3c0,0.4,0,0.8-0.1,1.3c-0.1,0.5-0.1,0.9-0.2,1.4
			c-0.1,0.5-0.1,1-0.1,1.4c0,0.5,0,0.9,0,1.4c0,0.3,0.1,0.8,0.2,1.3c0.1,0.5,0.1,1-0.1,1.4c-0.3,0.3-0.6,0.4-0.9,0.3
			c-0.3-0.1-0.6-0.1-0.9-0.1c-0.6,0-1.1,0-1.7,0.1c-0.5,0.1-1.1,0.1-1.7,0.1c-0.3,0-0.7,0-1.1,0c-0.4,0-0.9,0-1.3,0
			c-0.5,0-0.9,0-1.3,0c-0.4,0-0.8,0-1.2-0.1c-1.8-0.1-3.6-0.1-5.4,0c-1.8,0.1-3.6,0-5.5-0.1c-0.4-0.3-0.6-0.6-0.7-1
			s-0.2-0.8-0.2-1.3c0-0.5,0-1,0.1-1.5c0.1-0.5,0.1-1.1,0.1-1.6c0.3-0.2,0.7-0.3,1-0.2c0.4,0.1,0.7,0.1,1.1,0.1
			c0.2-2.9,0.3-5.9,0.3-8.7c0-2.9-0.1-6-0.3-9.2c-0.5,0-0.9,0.1-1.3,0.1c-0.4,0.1-0.7,0-1-0.1c-0.1,0-0.1-0.2-0.1-0.5
			c0-0.3,0-0.7,0-1.1c0-0.4,0-0.8-0.1-1.3c0-0.4-0.2-0.8-0.3-1c0.1-0.1,0.2-0.2,0.2-0.4c0-0.2,0-0.3,0.1-0.4
			c0.8-0.2,1.6-0.2,2.5-0.2c0.9,0.1,1.8,0.1,2.6,0c1.2-0.1,2.3-0.1,3.5-0.1c1.2,0,2.3,0.1,3.5,0.1c0.7,0.1,1.4,0.1,2.2,0.1
			c0.8,0,1.6,0.1,2.2,0.1c0.3,0,0.6,0,1.1-0.1c0.5-0.1,1-0.1,1.4-0.1c0.5,0,0.9,0,1.4,0c0.4,0,0.7,0.1,0.9,0.3
			c0.2,0.2,0.3,0.5,0.4,0.8c0,0.3,0,0.7,0,1.1c-0.1,0.4-0.1,0.8-0.2,1.2c-0.1,0.4-0.1,0.8-0.1,1.1c0,0.3,0,0.7,0.1,1
			c0.1,0.3,0.1,0.6,0.2,1c0.1,0.3,0.1,0.6,0.1,0.9c0,0.3-0.1,0.6-0.2,0.8c-0.4,0-1,0-1.6,0.1c-0.6,0.1-1.2,0.1-1.8,0.1
			c-0.6,0-1.1,0-1.5-0.1c-0.4-0.1-0.6-0.3-0.7-0.6c-0.1-0.4-0.1-0.8,0-1.4C201.3,46,201.3,45.5,201.3,44.9z"/>
		<path fill="#F7E588" d="M233.8,40.5c0.1,0.7,0.1,1.3,0.1,1.9c0,0.6-0.1,1.2-0.1,1.9c-0.1,0.5,0,1.1,0.1,1.6c0.1,0.6,0.1,1,0,1.3
			c-0.1,0.2-0.2,0.4-0.4,0.5c-0.2,0.1-0.4,0.3-0.4,0.5c-0.8,0.2-1.6,0.3-2.4,0.4s-1.7-0.2-2.4-0.7c0-0.6,0-1-0.1-1.4
			c0-0.4,0-0.8,0-1.3c-0.6-0.1-1.1-0.1-1.6-0.2c-0.5-0.1-0.9-0.1-1.3-0.1c-0.4,0-0.9,0-1.3,0c-0.4,0-1,0.1-1.6,0.2
			c0.1,1,0.1,2.1,0.1,3.3c0,1.2-0.1,2.3-0.2,3.4c0.5,0.1,1,0.1,1.6,0.1s1.2,0,1.8,0c0.6,0,1.3,0.1,1.9,0.1c0.6,0,1.2,0.1,1.8,0.3
			c0,0.3,0,0.7,0,1.1c0,0.4,0.1,0.8,0.1,1.2s0,0.8-0.1,1.1c-0.1,0.4-0.2,0.7-0.4,0.9c-0.3,0.1-0.5,0-0.7-0.1
			c-0.1-0.1-0.3-0.2-0.5-0.2c-0.4,0.2-0.8,0.3-1.3,0.4c-0.5,0-1,0-1.5,0c-0.5,0-1,0-1.5-0.1c-0.5,0-0.9,0-1.3,0.1c0,0.7,0,1.3,0,1.9
			c0,0.6,0,1.1-0.1,1.6c0,0.5,0,1,0,1.5s0,1.1,0.1,1.7c0.5,0.1,1.1,0.2,1.7,0.2c0.6,0,1.2,0,1.8,0c0.2,0.3,0.3,0.5,0.3,0.7
			c0,0.2,0,0.3-0.2,0.5c0,0.4,0,1,0,1.7c0,0.7,0,1.3,0,1.8c-0.2,0.2-0.5,0.3-0.7,0.3s-0.6-0.1-0.8-0.1c-0.8,0-1.6,0-2.5,0
			s-1.8,0.1-2.8,0.2c-0.7,0.1-1.5,0-2.2-0.1s-1.4-0.2-2.1-0.1c-0.2,0-0.4,0.1-0.5,0.1c-0.2,0.1-0.3,0.1-0.5,0.2
			c-0.2,0-0.3,0.1-0.5,0c-0.2,0-0.3-0.1-0.5-0.2c0-0.3,0-0.7,0-1.1c0-0.4,0-0.8,0-1.2c0-0.4,0-0.8,0-1.1c0-0.4-0.1-0.7-0.2-1
			c0.4,0,0.9,0,1.4-0.1c0.5-0.1,1-0.1,1.3-0.1c0.1-1,0.2-1.9,0.1-2.9c-0.1-1-0.1-2,0-3.1c0.1-1.3,0.1-2.6,0.2-4.1
			c0.1-1.4,0.1-2.8,0-4.2c0-0.8,0-1.5,0-2.2c0.1-0.7,0.1-1.4,0-2.2c-0.2-0.2-0.5-0.3-0.7-0.3c-0.3,0-0.6,0-0.9,0.1
			c-0.3,0.1-0.6,0.1-0.9,0.1c-0.3,0-0.5-0.1-0.7-0.2c-0.1-0.3-0.1-0.7-0.1-1.1s0-0.8,0-1.2c0-0.4,0-0.8,0.1-1.2c0-0.4,0-0.7,0-1
			c0.2-0.3,0.4-0.4,0.6-0.3c0.2,0.1,0.5,0.1,0.8,0.1c0.9,0,1.9,0,2.9,0c1,0,2,0,3-0.1c1,0,2,0,3,0s1.9,0,2.8,0.1
			c0.7,0.1,1.3,0.1,2,0.1c0.7,0,1.4,0,2.1-0.1c0.6,0,1.1-0.1,1.6-0.1c0.5,0,0.9,0.1,1.3,0.5C232.8,40.5,233.3,40.4,233.8,40.5z"/>
		<path fill="#F7E588" d="M255.7,55.7c0.4,0.3,0.8,0.6,1.1,1c0.3,0.4,0.6,0.7,0.8,1c0.4,0.6,0.7,1.1,1,1.8c0.3,0.6,0.6,1.2,0.9,1.8
			c0.3,0.6,0.7,1.1,1.2,1.5c0.5,0.4,1.1,0.7,1.8,0.8c0.5-0.1,1-0.1,1.3,0.1c0.1,0.4,0.1,0.8,0.2,1.2c0.1,0.4,0.1,0.9,0.1,1.3
			c0,0.4,0,0.8,0,1.2c0,0.4-0.1,0.7-0.3,1c-0.6,0.1-1.3,0.2-2.2,0.2c-0.9,0.1-1.7,0.1-2.6,0c-0.9,0-1.6-0.2-2.3-0.4
			c-0.7-0.2-1.2-0.6-1.5-1.2c0-0.1-0.1-0.2-0.2-0.3c-0.1-0.2-0.2-0.3-0.3-0.5c-0.1-0.2-0.2-0.4-0.3-0.5c-0.1-0.2-0.2-0.3-0.2-0.4
			c-0.3-0.6-0.6-1.2-1-1.9s-0.7-1.3-1.1-2s-0.8-1.3-1.2-1.8c-0.4-0.6-0.8-1.1-1.2-1.6c-0.5-0.1-0.9-0.1-1.3-0.1
			c-0.4,0-0.7,0.1-0.9,0.1c-0.1,0.6-0.1,1-0.1,1.5c0,0.4,0,0.8,0.1,1.2c0,0.4,0.1,0.8,0.1,1.2c0,0.4,0.1,0.9,0.1,1.5
			c0.2,0.1,0.5,0.1,0.6,0.1c0.2,0,0.4-0.1,0.6-0.1c0.2-0.1,0.4-0.1,0.6-0.1c0.2,0,0.4,0,0.6,0.1c0.2,0.1,0.4,0.4,0.4,0.7
			c0.1,0.3,0.1,0.7,0,1.2c0,0.4-0.1,0.9-0.2,1.4c-0.1,0.5-0.1,0.9-0.1,1.2c-0.1,0.2-0.2,0.4-0.4,0.5c-0.1,0.1-0.2,0.2-0.4,0.2
			c-0.1,0-0.3,0-0.5,0c-0.2,0-0.4,0-0.6-0.1c-0.4,0-0.8-0.1-1.4-0.1c-0.5,0-1.1,0-1.7,0c-0.6,0-1.2,0-1.8,0c-0.6,0-1.1,0-1.5,0.1
			c-0.3,0.1-0.6,0.1-0.9,0.1c-0.3,0-0.7,0-1,0.1c-0.3,0-0.6,0-0.9,0c-0.3,0-0.5,0-0.6-0.1c-0.1-0.1-0.2-0.2-0.4-0.4
			c-0.1-0.2-0.2-0.4-0.2-0.6c-0.1-0.3-0.1-0.6,0-0.9c0-0.3,0.1-0.7,0.1-1.1c0-0.4,0.1-0.8,0.1-1.2c0-0.4,0-0.8-0.1-1.1
			c0.1-0.1,0.3-0.2,0.5-0.2c0.2,0,0.4,0,0.6-0.1c0.2,0.1,0.5,0.1,0.7,0.2c0.3,0.1,0.5,0.1,0.8,0c0.1-1.5,0.2-3,0.2-4.5
			c0-1.4,0-2.9,0-4.3c0-1.4-0.1-2.9-0.2-4.5c-0.1-1.5-0.1-3.2-0.1-4.9c-0.4-0.1-0.7-0.1-0.9-0.1c-0.2,0-0.6,0.1-1,0.1
			c-0.2,0-0.4-0.1-0.5-0.1c-0.1,0-0.2-0.1-0.3-0.2c0.1-0.3,0.1-0.6,0.1-1s0-0.8,0-1.2c0-0.4,0-0.8,0-1.2c0-0.4,0-0.7,0.1-1
			c0.4-0.2,1-0.3,1.8-0.3c0.8,0,1.5,0,2.3,0c0.8,0,1.6,0,2.4,0c0.8,0,1.5,0,2.3-0.1c0.7-0.1,1.4-0.1,2.1-0.1c0.8,0,1.6,0,2.4,0
			c0.8,0,1.6,0.1,2.3,0.2c0.8,0.1,1.5,0.2,2.1,0.4c0.4,0.1,0.8,0.3,1.2,0.5s0.9,0.5,1.3,0.8c0.4,0.3,0.8,0.7,1.2,1
			c0.4,0.4,0.6,0.7,0.7,1.1c0.4,0.9,0.6,1.8,0.8,2.6c0.2,0.8,0.2,1.7,0.1,2.8c-0.1,0.9-0.4,1.9-0.9,2.8c-0.5,0.9-1,1.6-1.6,2.1
			c-0.4,0.4-0.9,0.7-1.3,0.9C256.8,55.3,256.3,55.5,255.7,55.7z M250.5,52.6c0.4,0,0.8-0.1,1.3-0.3c0.5-0.2,0.9-0.4,1.4-0.7
			c0.4-0.3,0.8-0.7,1.1-1.2c0.3-0.5,0.4-1.1,0.4-1.7c0-0.5-0.1-1.1-0.2-1.7c-0.1-0.6-0.4-1.1-0.8-1.3c-0.3-0.1-0.6-0.2-1-0.3
			c-0.4-0.1-0.8-0.2-1.2-0.2c-0.8-0.1-1.6-0.2-2.3-0.2c-0.7,0-1.4,0.1-2,0.1v7.3c0.5,0.1,1.1,0.1,1.7,0.2
			C249.4,52.6,250,52.6,250.5,52.6z"/>
		<path fill="#F7E588" d="M282.4,68.8c-0.3,0-0.7,0-1.1,0.1c-0.4,0-0.8,0-1.2,0c-1.9,0-3.6-0.2-5.1-0.6c-1.5-0.4-2.8-1.2-3.9-2.2
			c-0.2-0.1-0.3-0.3-0.5-0.5s-0.4-0.5-0.6-0.7c-0.2-0.3-0.4-0.5-0.6-0.8c-0.2-0.2-0.3-0.5-0.5-0.6c-0.3-0.3-0.6-0.8-0.9-1.4
			c-0.3-0.6-0.6-1.3-0.8-2.1c-0.2-0.8-0.4-1.6-0.6-2.5s-0.2-1.7-0.2-2.6c0-1.1,0.1-2.3,0.4-3.6c0.3-1.3,0.7-2.6,1.3-3.9
			c0.5-1.3,1.1-2.4,2-3.3c0.9-1,1.9-1.8,3-2.4c1.1-0.7,2.3-1.2,3.5-1.5c1.2-0.3,2.5-0.5,3.7-0.5c1.2,0.1,2.4,0.2,3.6,0.3
			s2.3,0.6,3.3,1.2c2.5,1.5,4.2,3.4,5.2,5.7c1,2.3,1.5,5,1.5,8.1c0,0.8,0,1.7-0.1,2.5c-0.1,0.8-0.2,1.6-0.3,2.4
			c-0.5,1.2-1.1,2.3-1.6,3.2c-0.5,1-1.3,1.8-2.3,2.6c-0.5,0.4-1,0.7-1.5,1c-0.5,0.3-1.1,0.6-1.7,0.9c-0.6,0.3-1.3,0.5-2,0.7
			C284.1,68.6,283.3,68.7,282.4,68.8z M287.4,55.3c0-0.3,0-0.6,0-0.9c0-0.3,0-0.6,0-0.9c0-0.6-0.1-1.2-0.3-1.8
			c-0.2-0.7-0.5-1.3-0.8-2c-0.3-0.7-0.7-1.3-1-1.8c-0.4-0.6-0.8-1-1.1-1.4c-0.2-0.2-0.4-0.4-0.7-0.6c-0.3-0.2-0.6-0.4-0.9-0.6
			c-0.3-0.2-0.7-0.3-1-0.4c-0.3-0.1-0.7-0.2-1-0.2c-0.8,0-1.6,0.3-2.3,0.8c-0.8,0.5-1.5,1.2-2.1,2.1c-0.6,0.9-1.1,1.8-1.5,2.9
			c-0.4,1.1-0.6,2.2-0.6,3.3c0,1.3,0.1,2.6,0.4,3.7c0.3,1.2,0.7,2.2,1.2,3.1c0.6,0.9,1.3,1.5,2.1,2c0.9,0.5,1.9,0.7,3.1,0.7
			c0.7,0,1.4-0.1,2.2-0.3c0.7-0.2,1.5-0.5,2.2-1c0.8-0.9,1.3-1.9,1.6-3C287.2,58.1,287.4,56.8,287.4,55.3z"/>
		<path fill="#F7E588" d="M328.1,40.5c0,0.6,0,1.2,0.1,1.9c0.1,0.6,0.1,1.2,0.1,1.7c0,0.3,0,0.5-0.1,0.7c-0.1,0.2-0.2,0.3-0.5,0.3
			c-0.2,0-0.5,0-0.7-0.1c-0.2-0.1-0.5-0.1-0.7-0.1c-0.2,0-0.4,0.1-0.5,0.2c-0.1,0.1-0.2,0.2-0.2,0.4c0,0.2,0,0.3,0,0.5
			c0,0.2,0,0.4,0,0.5c0,0.7,0,1.4,0.1,2.1c0.1,0.7,0.1,1.4,0.1,2.2c0,1.1,0,2.1-0.1,3.1c-0.1,1-0.1,2-0.1,3c0,1.2,0,2.4,0.1,3.5
			c0,1.2,0.1,2.3,0.1,3.4c0,0.7,0,1.4,0,2.1c0,0.7-0.1,1.4-0.2,2c-0.2,0.2-0.6,0.4-1.1,0.5c-0.5,0.1-1,0.1-1.5,0.1
			c-0.5,0-1.1,0-1.6,0c-0.5,0-0.9,0-1.2,0c-2.2-2.6-4.4-5.3-6.4-8.1c-2-2.8-4-5.6-6-8.5c-0.1,0.6-0.1,1.1-0.2,1.7c0,0.6,0,1.1,0,1.7
			c0,1,0,1.9,0.1,2.9c0,0.9,0.1,1.9,0.1,2.8c0,0.5,0,1,0,1.4c0,0.5,0,0.9-0.1,1.4c0.2,0.1,0.5,0.1,0.7,0.1c0.2,0,0.4,0,0.6,0
			c0.2,0,0.4,0,0.7,0c0.2,0,0.4,0,0.6,0.1c0.2,0.1,0.3,0.2,0.5,0.4c-0.1,0.2-0.1,0.5-0.1,0.8c0,0.3,0,0.6,0,0.9c0,0.3,0,0.6,0,0.9
			c0,0.4,0,0.8-0.1,1c-0.1,0.2-0.4,0.3-0.9,0.3c-0.4,0-0.8,0-1.2-0.1c-0.4-0.1-0.8-0.1-1.3-0.1c-0.4,0-0.7,0.1-1.1,0.2
			c-0.4,0.1-0.9,0.2-1.4,0.2c-0.6,0-1.2,0-1.9-0.1s-1.3-0.1-1.9-0.1c-0.4,0-0.8,0-1.2,0c-0.4,0-0.7,0.1-1.1,0.2c0-0.1,0-0.3,0-0.4
			s0-0.3,0-0.4c0-0.4,0-0.9-0.1-1.5c-0.1-0.5-0.1-1-0.1-1.4c0-0.5,0.1-0.7,0.3-0.8c0.2-0.1,0.7-0.1,1.3-0.1c0.3,0,0.5,0,0.8,0
			c0.2,0,0.5,0.1,0.7,0.2c0.1-0.8,0.1-1.6,0.2-2.4c0-0.8,0-1.6,0-2.4c0-1.9,0-3.7-0.1-5.6c-0.1-1.8-0.1-3.6-0.1-5.3c0-0.5,0-1,0-1.5
			s0-0.9,0.1-1.4c-0.2-0.2-0.3-0.3-0.5-0.3c-0.2-0.1-0.4-0.1-0.6-0.1c-0.3,0-0.6,0-0.9,0.1c-0.3,0.1-0.6,0.1-0.9,0.1
			c-0.4,0-0.8-0.1-1-0.4c0.1-0.4,0.1-0.9,0.1-1.4c0-0.5,0-0.9,0-1.4c0-0.4,0.1-0.8,0.2-1.2c0.1-0.4,0.3-0.6,0.6-0.8
			c0.4,0.1,0.8,0.2,1.2,0.3c0.4,0.1,0.9,0.1,1.3,0.1c0.6,0,1.2,0,1.9-0.1c0.7-0.1,1.3-0.1,1.9-0.1c0.4,0,0.7,0,1.1,0
			c0.4,0,0.7,0.1,1.1,0.2c2,2.8,4.1,5.5,6.3,8.2c2.1,2.7,4.3,5.4,6.4,8c0.2-0.9,0.2-1.9,0.2-2.9c0-1.3-0.1-2.6-0.2-4
			c-0.1-1.4-0.2-2.8-0.2-4.3V45c-0.1,0-0.3,0-0.6,0c-0.2,0-0.4,0-0.6,0c-0.2,0-0.4,0-0.6,0c-0.2,0-0.4,0-0.5-0.1
			c-0.2-0.1-0.3-0.2-0.4-0.4c0.1-0.6,0.2-1.3,0.1-2c0-0.7,0-1.3,0-1.9c0-0.2,0.2-0.3,0.4-0.3c0.3,0,0.6-0.1,0.9-0.1h0.6
			c0.5,0,1.1,0,1.7,0c0.6,0,1.3,0,2,0c0.9,0,1.9,0,2.8,0C326.6,40.4,327.4,40.4,328.1,40.5z"/>
		<path fill="#F7E588" d="M358.5,48.7c-0.3,0.1-0.7,0.2-1.2,0.3c-0.5,0-1,0.1-1.6,0.1c-0.5,0-1,0-1.5-0.1c-0.4-0.1-0.8-0.1-0.9-0.2
			c-0.1-0.1-0.1-0.2-0.1-0.5c0-0.3,0-0.6,0-0.9s0-0.7,0-1.1c0-0.4,0-0.7-0.1-1c-0.4,0-0.8,0-1.1,0c-0.3,0-0.5-0.1-0.8-0.1
			c-0.3,0-0.6,0-0.9-0.1c-0.3,0-0.8,0-1.4,0.1c-0.1,1.4-0.1,2.7,0,3.9c0.1,1.2,0.2,2.5,0.2,3.7c0,0.9,0,1.7-0.1,2.6
			c-0.1,0.9-0.1,1.7-0.1,2.6c0,0.9-0.1,1.7-0.1,2.6c0,0.9,0.1,1.8,0.2,2.7c0.4,0,0.8,0,1.1-0.1c0.3-0.1,0.7,0,1.2,0.1
			c0.2,0.3,0.3,0.6,0.3,1s0.1,0.7,0.1,1.1c0,0.4,0,0.8,0,1.3c0,0.4,0,0.9,0,1.3c-0.2,0.3-0.5,0.4-0.9,0.4c-0.4-0.1-0.9,0-1.5,0
			c-0.4,0-0.9,0-1.6,0s-1.3,0-2,0c-0.7,0-1.4,0-2,0c-0.7,0-1.2,0-1.7,0c-0.2,0-0.4,0-0.6,0s-0.6,0-0.8,0c-0.3,0-0.6,0-0.8,0
			c-0.2,0-0.4,0-0.5-0.1c-0.2-0.1-0.3-0.1-0.3-0.2c0-0.1-0.1-0.1,0-0.2c0-0.1,0-0.2,0.1-0.3c0-0.1,0-0.3,0-0.4
			c0.1-0.6,0.2-1.2,0.2-1.8c0-0.6-0.1-1.1-0.2-1.6c0.1-0.2,0.2-0.3,0.5-0.4c0.2-0.1,0.5-0.2,0.7-0.2c0.3,0,0.6,0,0.9,0
			c0.3,0,0.6,0,0.8,0.1c0.3-2.9,0.4-5.8,0.4-8.8c0-3-0.2-6-0.4-9.2c-0.6-0.2-1.2-0.3-1.8-0.3c-0.6,0-1.3,0-2,0.1c0,0.4,0,0.7,0.1,1
			c0,0.3,0,0.6,0,0.8s0,0.5,0,0.7s0,0.5,0,0.8c-0.3,0.1-0.7,0.2-1.2,0.2c-0.5,0-1,0.1-1.5,0.1c-0.5,0-1.1,0-1.6-0.1
			c-0.5,0-1-0.1-1.5-0.2c0.1-1.2,0.1-2.5,0.1-4c0-1.5-0.2-2.8-0.4-4c2-0.3,4-0.5,5.9-0.6c1.9-0.1,3.8-0.1,5.8,0
			c1.9,0,3.8,0.1,5.8,0.1c1.9,0.1,3.9,0,5.9,0c0.3,0,0.6,0,0.9,0c0.3,0,0.7,0,1,0.1c0.3,0,0.6,0.1,0.8,0.2c0.2,0.1,0.4,0.2,0.4,0.3
			c0.1,0.3,0.2,0.8,0.1,1.3c0,0.5,0,1,0,1.4c0,0.8,0.1,1.7,0.2,2.6C358.8,47.1,358.7,47.9,358.5,48.7z"/>
		<path fill="#F7E588" d="M392.8,40.3c0,0.2,0.1,0.5,0.1,0.9c0.1,0.4,0.1,0.9,0.1,1.4c0,0.5,0,0.9,0,1.3c0,0.4-0.1,0.7-0.3,0.8
			c-0.1,0.1-0.4,0.1-0.7,0.1c-0.4,0-0.8,0-1.3,0c-0.1,0.9-0.2,1.7-0.2,2.5c0,0.8,0,1.6,0,2.4c0,0.8,0.1,1.6,0.1,2.5
			c0,0.8,0,1.7,0,2.6c0,0.4,0,0.7,0,1.1c0.1,0.4,0.1,0.7,0.1,1.1c0.1,1.1,0,2.1-0.2,3.1c-0.2,1-0.2,2.1-0.2,3.2
			c1.2,0.2,2.3,0.2,3.4,0.1c1.1-0.1,2.2-0.1,3.2-0.1c0.1-0.3,0.2-0.6,0.2-0.9c0-0.3,0-0.5,0-0.7s0-0.5,0-0.6c0-0.2,0.1-0.4,0.1-0.5
			c0.3-0.2,0.7-0.3,1.2-0.3c0.5-0.1,1-0.1,1.6-0.1c0.5,0,1.1,0.1,1.5,0.1c0.5,0.1,0.8,0.2,1.1,0.4c-0.1,0.7-0.1,1.4-0.1,2
			c0,0.7,0.1,1.3,0.1,1.9c0,0.6,0.1,1.2,0,1.8c0,0.6-0.1,1.2-0.3,1.7c-0.5,0.1-1.1,0.2-1.8,0.2c-0.7,0-1.6,0-2.4,0
			c-0.9,0-1.8,0-2.7,0c-0.9,0-1.9,0-2.7,0.1c-1.6,0.1-3.3,0.2-5.1,0.1c-1.8-0.1-3.6-0.1-5.4-0.2c-0.2-0.2-0.4-0.3-0.5-0.4
			c-0.1-0.1-0.2-0.3-0.3-0.6c-0.1-0.2,0-0.5,0.1-0.8c0.1-0.3,0.1-0.7,0.1-1c0-0.2,0-0.4-0.1-0.6c-0.1-0.2-0.1-0.4,0-0.5
			c0.1-0.5,0.3-0.8,0.8-0.9s1-0.1,1.5,0.1c-0.1-1-0.1-2.1-0.1-3.3s0-2.5,0-3.7c0-1.2,0.1-2.4,0.1-3.4c0.1-1.1,0.1-1.9,0.2-2.6
			c0-0.9,0-1.9-0.1-2.8c0-1-0.1-1.9-0.2-2.8c-0.1-0.1-0.3-0.2-0.5-0.2c-0.2,0-0.5,0-0.7,0c-0.2,0-0.5,0-0.7,0
			c-0.2,0-0.4-0.1-0.5-0.2c-0.1-0.3-0.1-0.6-0.1-1c0-0.4,0-0.8,0.1-1.2c0-0.4,0.1-0.8,0.1-1.2c0-0.4,0.1-0.7,0.1-1
			c0.3-0.1,0.6-0.2,0.9-0.2c0.3,0,0.7,0,1,0c0.4,0,0.7,0.1,1.1,0.2c0.4,0.1,0.8,0.1,1.2,0.1c0.4,0,0.9,0,1.3,0c0.5,0,0.9,0,1.2,0
			c0.3,0,0.7-0.1,1-0.1c0.4-0.1,0.7-0.1,1.1-0.1c0.4,0,0.7,0,1.1,0C392.1,40.1,392.5,40.2,392.8,40.3z"/>
		<path fill="#F7E588" d="M429.3,48.7c-0.3,0.1-0.7,0.2-1.2,0.3c-0.5,0-1,0.1-1.6,0.1c-0.5,0-1,0-1.5-0.1c-0.4-0.1-0.8-0.1-0.9-0.2
			c-0.1-0.1-0.1-0.2-0.1-0.5c0-0.3,0-0.6,0-0.9s0-0.7,0-1.1c0-0.4,0-0.7-0.1-1c-0.4,0-0.8,0-1.1,0c-0.3,0-0.5-0.1-0.8-0.1
			c-0.3,0-0.6,0-0.9-0.1c-0.3,0-0.8,0-1.4,0.1c-0.1,1.4-0.1,2.7,0,3.9c0.1,1.2,0.2,2.5,0.2,3.7c0,0.9,0,1.7-0.1,2.6
			c-0.1,0.9-0.1,1.7-0.1,2.6c0,0.9-0.1,1.7-0.1,2.6c0,0.9,0.1,1.8,0.2,2.7c0.4,0,0.8,0,1.1-0.1c0.3-0.1,0.7,0,1.2,0.1
			c0.2,0.3,0.3,0.6,0.3,1s0.1,0.7,0.1,1.1c0,0.4,0,0.8,0,1.3c0,0.4,0,0.9,0,1.3c-0.2,0.3-0.5,0.4-0.9,0.4c-0.4-0.1-0.9,0-1.5,0
			c-0.4,0-0.9,0-1.6,0s-1.3,0-2,0c-0.7,0-1.4,0-2,0c-0.7,0-1.2,0-1.7,0c-0.2,0-0.4,0-0.6,0s-0.6,0-0.8,0c-0.3,0-0.6,0-0.8,0
			c-0.2,0-0.4,0-0.5-0.1c-0.2-0.1-0.3-0.1-0.3-0.2c0-0.1-0.1-0.1,0-0.2c0-0.1,0-0.2,0.1-0.3c0-0.1,0-0.3,0-0.4
			c0.1-0.6,0.2-1.2,0.2-1.8c0-0.6-0.1-1.1-0.2-1.6c0.1-0.2,0.2-0.3,0.5-0.4c0.2-0.1,0.5-0.2,0.7-0.2c0.3,0,0.6,0,0.9,0
			c0.3,0,0.6,0,0.8,0.1c0.3-2.9,0.4-5.8,0.4-8.8c0-3-0.2-6-0.4-9.2c-0.6-0.2-1.2-0.3-1.8-0.3c-0.6,0-1.3,0-2,0.1c0,0.4,0,0.7,0.1,1
			c0,0.3,0,0.6,0,0.8s0,0.5,0,0.7s0,0.5,0,0.8c-0.3,0.1-0.7,0.2-1.2,0.2c-0.5,0-1,0.1-1.5,0.1c-0.5,0-1.1,0-1.6-0.1
			c-0.5,0-1-0.1-1.5-0.2c0.1-1.2,0.1-2.5,0.1-4c0-1.5-0.2-2.8-0.4-4c2-0.3,4-0.5,5.9-0.6c1.9-0.1,3.8-0.1,5.8,0
			c1.9,0,3.8,0.1,5.8,0.1c1.9,0.1,3.9,0,5.9,0c0.3,0,0.6,0,0.9,0c0.3,0,0.7,0,1,0.1c0.3,0,0.6,0.1,0.8,0.2c0.2,0.1,0.4,0.2,0.4,0.3
			c0.1,0.3,0.2,0.8,0.1,1.3c0,0.5,0,1,0,1.4c0,0.8,0.1,1.7,0.2,2.6C429.6,47.1,429.5,47.9,429.3,48.7z"/>
		<path fill="#F7E588" d="M433.7,68.4c0-0.2,0-0.5,0-0.8s0-0.7,0-1.2c0-0.4,0-0.9,0-1.3s0-0.9-0.1-1.3c0.3-0.4,0.7-0.7,1.3-0.6
			c0.6,0,1.1,0.1,1.6,0.3c0.1-1.4,0.1-2.9,0-4.4c-0.1-1.5-0.2-2.9-0.3-4.4s-0.2-3-0.2-4.6c0-1.6,0-3.2,0.2-4.9c-0.5,0-1,0-1.5,0.1
			c-0.5,0.1-1,0-1.2-0.2c-0.1-0.3-0.1-0.7,0-1.1c0.1-0.4,0.1-0.9,0-1.5c0-0.3,0-0.6-0.1-0.9c0-0.3,0-0.6,0.1-0.8
			c0.1-0.1,0.1-0.2,0.2-0.2c0,0,0.1,0,0.2-0.1c0.2-0.1,0.5-0.1,0.9,0c0.4,0,0.7,0,0.9,0c1.2,0,2.3-0.1,3.3-0.1s2.1-0.1,3.2-0.1
			c1,0,2.1,0,3.2,0c1.1,0,2.2,0.1,3.3,0.2c1.3,0.1,2.6,0.4,3.9,0.7c1.3,0.3,2.4,0.8,3.3,1.4c1,0.6,1.9,1.4,2.7,2.4
			c0.8,0.9,1.4,2,1.8,3c0.2,0.7,0.4,1.5,0.5,2.4c0.1,0.9,0.2,1.9,0.2,2.8c0,1-0.1,1.9-0.2,2.8s-0.3,1.7-0.5,2.3
			c-0.2,1.4-0.6,2.6-1.1,3.5c-0.5,0.9-1.1,1.9-1.8,2.9c-0.2,0.3-0.5,0.6-0.9,1c-0.4,0.3-0.8,0.6-1.2,0.9c-0.4,0.3-0.9,0.5-1.4,0.7
			c-0.5,0.2-0.9,0.4-1.4,0.5c-0.6,0.1-1.2,0.2-1.9,0.3c-0.7,0.1-1.3,0.2-2,0.3c-0.7,0.1-1.3,0.2-2.1,0.2c-0.7,0-1.4,0-2.2,0
			c-0.7,0-1.4-0.1-2.2-0.1c-0.7-0.1-1.4-0.1-2,0c-1.3,0.1-2.4,0.2-3.5,0.3C435.9,68.9,434.8,68.8,433.7,68.4z M451,62.4
			c0.8-0.4,1.3-1,1.8-1.9c0.4-0.9,0.7-1.8,0.9-2.8c0.2-0.9,0.2-1.9,0.3-2.8c0-1,0-1.9-0.2-2.8c-0.1-0.9-0.3-1.7-0.6-2.5
			c-0.3-0.7-0.6-1.4-1-1.9c-0.6-0.5-1.3-1-2.1-1.5c-0.8-0.5-1.6-0.7-2.5-0.8c-0.8-0.1-1.6-0.1-2.4-0.1c-0.7,0-1.5,0.1-2.2,0.4
			c-0.1,1.6-0.2,3.2-0.2,4.7c0,1.6,0,3.1,0.1,4.7c0.1,1.6,0.1,3.1,0.2,4.6c0.1,1.5,0.1,2.9,0.1,4.3c1.4,0.1,2.8,0.1,4,0
			C448.4,63.8,449.7,63.3,451,62.4z"/>
		<path fill="#F7E588" d="M471.1,57.8c0.9,0,1.6,0,2.3,0.2c0.7,0.2,1.2,0.5,1.7,1c0.8,0.6,1.4,1.4,1.7,2.4c0.3,1,0.4,2,0.3,3.1
			c-0.2,1-0.6,2-1.2,2.8c-0.6,0.8-1.5,1.3-2.5,1.5c-0.5,0.1-1,0.1-1.5,0.1c-0.6,0-1.1,0-1.7-0.1c-0.6-0.1-1.1-0.2-1.6-0.3
			c-0.5-0.1-0.9-0.3-1.2-0.5c-0.8-0.8-1.2-1.8-1.3-2.9c-0.1-1.1,0.1-2.1,0.5-3.2c0.4-1,1-1.9,1.8-2.7C469.1,58.5,470,58,471.1,57.8z
			"/>
	</g>
	<rect x="313.6" y="193.1" fill="#8EB7ED" width="175" height="111"/>
	<rect x="313.6" y="311.1" fill="#F7E588" width="175" height="42.1"/>
	<rect x="52.2" y="311.1" fill="#F7E588" width="173.9" height="42.1"/>
	<rect x="313.6" y="193.1" opacity="0.15" width="35.2" height="159"/>
	<rect x="52.2" y="193.1" fill="#8EB7ED" width="173.9" height="111"/>
	<rect x="195.2" y="193.1" opacity="0.15" width="30.9" height="159"/>
	<rect x="52.2" y="193.1" opacity="0.15" width="33.1" height="159"/>
	<rect x="455.5" y="193.1" opacity="0.15" width="33.1" height="159"/>
	<g>
		<polygon fill="#C69C6D" points="0.4,178.8 32.6,100.3 509.8,100.3 541.8,178.8 		"/>
		<path fill="#A67C52" d="M514.4,178.8h-11.1h-18.4h-11.1h-18.4h-11.1h-18.4h-11.1h-18.4h-11.1h-18.4h-11.1h-18.4H326h-18.4h-11.1
			h-18.4h-11.1h-18.4h-11.1H219h-11.1h-18.4h-11.1h-18.4h-11.1h-18.4h-11.1h-18.4H89.7H71.3H60.1H41.7H30.6H1.1
			c0,12.4,9.1,22.4,20.3,22.4c5.8,0,11.1-2.7,14.8-7c3.7,4.3,8.9,7,14.8,7s11.1-2.7,14.8-7c3.7,4.3,8.9,7,14.8,7s11.1-2.7,14.8-7
			c3.7,4.3,8.9,7,14.8,7s11.1-2.7,14.8-7c3.7,4.3,8.9,7,14.8,7s11.1-2.7,14.8-7c3.7,4.3,8.9,7,14.8,7s11.1-2.7,14.8-7
			c3.7,4.3,8.9,7,14.8,7s11.1-2.7,14.8-7c3.7,4.3,8.9,7,14.8,7c5.8,0,11.1-2.7,14.8-7c3.7,4.3,8.9,7,14.8,7c5.8,0,11.1-2.7,14.8-7
			c3.7,4.3,8.9,7,14.8,7s11.1-2.7,14.8-7c3.7,4.3,8.9,7,14.8,7s11.1-2.7,14.8-7c3.7,4.3,8.9,7,14.8,7s11.1-2.7,14.8-7
			c3.7,4.3,8.9,7,14.8,7c5.8,0,11.1-2.7,14.8-7c3.7,4.3,8.9,7,14.8,7s11.1-2.7,14.8-7c3.7,4.3,8.9,7,14.8,7s11.1-2.7,14.8-7
			c3.7,4.3,8.9,7,14.8,7s11.1-2.7,14.8-7c3.7,4.3,8.9,7,14.8,7s11.1-2.7,14.8-7c3.7,4.3,8.9,7,14.8,7c11.2,0,18.2-10,18.2-22.4
			H514.4z"/>
	</g>
	
		<rect x="52.2" y="18.1" fill="none" stroke="#F7E588" stroke-width="4.2681" stroke-linecap="round" stroke-linejoin="round" stroke-miterlimit="10" width="436.4" height="71.5"/>
	
		<polygon opacity="0.4" fill="none" stroke="#F7E588" stroke-width="4.2681" stroke-linecap="round" stroke-linejoin="round" stroke-miterlimit="10" points="
		19.7,163.3 520.6,163.3 500.4,108.8 41.5,108.8 	"/>
	<g opacity="0.15">
		<rect x="99.7" y="255" fill="#333333" width="29.3" height="49.1"/>
		
			<rect x="141.3" y="255" transform="matrix(0.8313 -0.5558 0.5558 0.8313 -130.2992 129.7743)" fill="#333333" width="14.7" height="49.1"/>
		
			<rect x="161.1" y="255" transform="matrix(0.8313 -0.5558 0.5558 0.8313 -126.9662 140.7553)" fill="#333333" width="14.7" height="49.1"/>
		<circle fill="#333333" cx="372.8" cy="286.4" r="17.6"/>
		<g>
			<path fill="#333333" d="M458,238.3c1.4-1.3,3.3-1.6,4.7-0.9l0.3-0.3c0.9-2.1,2.4-4.4,4.6-6.6c2.2-2.2,4.5-3.7,6.6-4.6
				c0,0,0.4-0.4,0.9-0.9c0.5-0.5,0.2-1.7-0.7-2.6l-5.3-5.3c-0.9-0.9-2-1.2-2.5-0.7l-0.9,0.9c-0.9,2.1-2.4,4.5-4.6,6.6
				c-2.2,2.2-4.5,3.7-6.6,4.6l-0.2,0.2c0.9,1.4,0.6,3.5-0.7,5l-14.2,14.1c-0.6,0-1.6-0.5-2.9-2.6c-2.4-3.7-7.9-5.7-12.4,2.1
				c-4.5,7.9-0.8,9.2-13.7,10.7l0,0c-4.6,0.3-8.9,2-12.2,5.3c-7.8,7.8-6.9,21.4,2,30.3c8.9,8.9,22.5,9.8,30.3,2
				c0.1-0.1,0.3-0.3,0.4-0.4l0,0c0,0,0.1-0.1,0.1-0.2c0.6-0.7,1.2-1.4,1.7-2.2c2-2.9,4.9-8,4.2-13.3c-1-8.1,6.6-7.7,9.8-9.8
				c3.1-2,4.3-3.8,4.3-5.8c0,0-3.7,2.6-7.2-0.8c-2.7-2.7-1.5-7.4-0.3-9.9L458,238.3z"/>
		</g>
	</g>
</g>
</svg>
