<?xml version="1.0" encoding="utf-8"?>
<!-- Generator: Adobe Illustrator 18.1.1, SVG Export Plug-In . SVG Version: 6.00 Build 0)  -->
<!DOCTYPE svg PUBLIC "-//W3C//DTD SVG 1.1//EN" "http://www.w3.org/Graphics/SVG/1.1/DTD/svg11.dtd">
<svg version="1.1" id="Layer_1" xmlns="http://www.w3.org/2000/svg" xmlns:xlink="http://www.w3.org/1999/xlink" x="0px" y="0px"
	 viewBox="0 0 577.1 348.6" enable-background="new 0 0 577.1 348.6" xml:space="preserve">
<symbol  id="New_Symbol" viewBox="-33.7 -132.9 67.3 265.8">
	<g>
		<defs>
			<polygon id="SVGID_32_" points="8.8,-85.1 -22.2,-85.1 -22.2,82.9 8.8,82.9 			"/>
		</defs>
		<clipPath id="SVGID_1_">
			<use xlink:href="#SVGID_32_"  overflow="visible"/>
		</clipPath>
		<polygon clip-path="url(#SVGID_1_)" fill="#FFFFFF" points="8.8,-85.1 -22.2,-85.1 -22.2,82.9 8.8,82.9 		"/>
		<g clip-path="url(#SVGID_1_)">
			
				<line fill="#FF0010" stroke="#FF0000" stroke-width="7" stroke-linecap="round" stroke-linejoin="round" stroke-miterlimit="10" x1="-30.2" y1="119.4" x2="30.2" y2="59.1"/>
			
				<line fill="#FF0010" stroke="#FF0000" stroke-width="7" stroke-linecap="round" stroke-linejoin="round" stroke-miterlimit="10" x1="-30.2" y1="81.7" x2="30.2" y2="21.4"/>
			
				<line fill="#FF0010" stroke="#FF0000" stroke-width="7" stroke-linecap="round" stroke-linejoin="round" stroke-miterlimit="10" x1="-30.2" y1="44" x2="30.2" y2="-16.3"/>
			
				<line fill="#FF0010" stroke="#FF0000" stroke-width="7" stroke-linecap="round" stroke-linejoin="round" stroke-miterlimit="10" x1="-30.2" y1="6.3" x2="30.2" y2="-54"/>
			
				<line fill="#FF0010" stroke="#FF0000" stroke-width="7" stroke-linecap="round" stroke-linejoin="round" stroke-miterlimit="10" x1="-30.2" y1="-31.4" x2="30.2" y2="-91.7"/>
			
				<line fill="#FF0010" stroke="#FF0000" stroke-width="7" stroke-linecap="round" stroke-linejoin="round" stroke-miterlimit="10" x1="-30.2" y1="-69.1" x2="30.2" y2="-129.4"/>
		</g>
		<g clip-path="url(#SVGID_1_)">
			
				<line fill="none" stroke="#008CBF" stroke-width="7" stroke-linecap="round" stroke-linejoin="round" stroke-miterlimit="10" x1="-30.2" y1="129.4" x2="30.2" y2="69.1"/>
			
				<line fill="none" stroke="#008CBF" stroke-width="7" stroke-linecap="round" stroke-linejoin="round" stroke-miterlimit="10" x1="-30.2" y1="91.7" x2="30.2" y2="31.4"/>
			
				<line fill="none" stroke="#008CBF" stroke-width="7" stroke-linecap="round" stroke-linejoin="round" stroke-miterlimit="10" x1="-30.2" y1="54" x2="30.2" y2="-6.3"/>
			
				<line fill="none" stroke="#008CBF" stroke-width="7" stroke-linecap="round" stroke-linejoin="round" stroke-miterlimit="10" x1="-30.2" y1="16.3" x2="30.2" y2="-44"/>
			
				<line fill="none" stroke="#008CBF" stroke-width="7" stroke-linecap="round" stroke-linejoin="round" stroke-miterlimit="10" x1="-30.2" y1="-21.4" x2="30.2" y2="-81.7"/>
			
				<line fill="none" stroke="#008CBF" stroke-width="7" stroke-linecap="round" stroke-linejoin="round" stroke-miterlimit="10" x1="-30.2" y1="-59.1" x2="30.2" y2="-119.4"/>
		</g>
	</g>
	<path fill="#DEDEDE" d="M14.8,81.3h-42c0,0,1.7,22,21,22S14.8,81.3,14.8,81.3z"/>
	<path fill="#DEDEDE" d="M-27.2-78.6h42c0,0-4-19-22-19S-27.2-78.6-27.2-78.6z"/>
</symbol>
<g>
	<rect x="37.5" y="89.2" fill="#D1814F" width="500.7" height="259.4"/>
	<g>
		<rect x="37" y="88" fill="#2FB3B3" width="501.2" height="24.8"/>
	</g>
	<g>
		<linearGradient id="SVGID_2_" gradientUnits="userSpaceOnUse" x1="81.8904" y1="331.4268" x2="265.9225" y2="177.0056">
			<stop  offset="0" style="stop-color:#C5EDE8"/>
			<stop  offset="0.2532" style="stop-color:#FBFEFD"/>
			<stop  offset="0.2582" style="stop-color:#DEF5F2"/>
			<stop  offset="0.2615" style="stop-color:#C5EDE8"/>
			<stop  offset="0.4216" style="stop-color:#DEF5F2"/>
			<stop  offset="0.6325" style="stop-color:#FFFFFF"/>
			<stop  offset="0.8004" style="stop-color:#C9EEE9"/>
			<stop  offset="0.8045" style="stop-color:#D8F3EF"/>
			<stop  offset="1" style="stop-color:#C5EDE8"/>
		</linearGradient>
		
			<rect x="70.8" y="190.2" fill="url(#SVGID_2_)" stroke="#7DA6B3" stroke-width="7.2922" stroke-miterlimit="10" width="206.1" height="128.1"/>
	</g>
	<g>
		<polyline fill="#485D78" points="327.1,346.6 327.1,195.6 427.1,195.6 427.1,346.6 		"/>
		<circle fill="#E6C634" cx="404.2" cy="277.2" r="7.1"/>
	</g>
	<g>
		<path fill="#CC3D3D" d="M133.6,15.4c-0.2,14.8-3.9,69.4-1.8,71.5c-4.5-2.2-8.6-4.2-8.6-11.6c-0.1-3.2,0-11.6,0-21.4
			c-1.3,0.2-2.8,0.4-4.5,0.5c-3.9,0.2-8.9-0.2-14.1-0.5c-0.7,17-1.2,33-0.1,33.7c-5.7-3.2-7.9-4.2-8.2-10c-2.7-8.1-8.3-24.1-16.2-26
			c2.2-7.9,8.7-6.9,13.9-7.2h1.8c-0.1-20.3-0.2-43-1.3-44.4c8,3.3,11.9,3.6,11.6,13.5c0.1,3.5-0.5,16.8-1.2,31.1
			c4.2,0.1,9.7,0,16.4-0.4l1.8-0.2c0.1-20.4-0.1-43.1-1.5-44.1C132.1,4.4,133.7,6,133.6,15.4z M95.8,53c-1.7-0.2-3.4-0.3-4.9-0.5
			c1.9,2.5,3.8,5.9,5,9.9L95.8,53z"/>
		<path fill="#CC3D3D" d="M178.4,73.2c-1.3,8.9-7.2,14.7-13.5,12.4c-1.9-0.7-4.2-2.6-5.7-5.9c-1.7,3.6-4.4,6.2-8.2,6.5
			c-7.2,0.5-12.2-5.9-11.9-19c0.4-13.2,6.2-23.4,14.7-23.3c7.5,0.2,11.2,6,9.7,13c2.4,1.8,2,4,1.8,9.6c-0.2,4.9-0.5,12.8,2.3,14.3
			c2.8,1.5,7.7-4.3,8.2-14.2C177.7,67.3,179.2,67.7,178.4,73.2z M157.8,62.5c-1.4-0.2-2.6-0.9-3.3-1.7c1.8-1.4,4.3-11.9-0.5-12.1
			c-4,0.5-6.8,10.2-7,18.9c-0.2,7.2,1.4,13.7,4.6,13.7C154.8,81.3,157.9,72,157.8,62.5z"/>
		<path fill="#CC3D3D" d="M234.5,72.6c-1.7,9.9-7.3,14.3-12.8,13.7c-10-1.2-11-15.1-8.5-35.2c-2.5,0-4.9-0.2-6.9-0.5
			c-0.2,4.7-1.2,16.8-4.6,25.2c-5.5,14.8-21.3,14-21.8-1.9c-0.4-11.8,1.2-28.8-0.1-29.6c7.6,2,10,3.8,9.2,12.6
			c-0.5,4.9-1.1,12-1.1,16.6c-0.1,13.1,8.8,4.6,11.5-7.8c1.5-8,1.8-13.4,1.8-16.5c-3.7-1.8-5.8-4.9-5.8-10.1c0-9.5,4.2-9.4,8.4-6.9
			c3.4,1.9,4.2,5.9,3.7,11.3c0.6,0.2,2.7,1.1,7.3,0c3.6-0.8,8.2,4.2,7.7,7.9c-1.4,10-3.5,27.5,0.8,28.8c5.2,1.5,8.6-9.2,8.8-15.3
			C234.7,66,235.2,68.7,234.5,72.6z M180.6,27c8.7-2.4,11.6,2.5,8.8,7.6C187,38.8,177.7,36,180.6,27z"/>
		<path fill="#CC3D3D" d="M276.5,75.2c-2,8.3-6.5,11.7-11,11.2c-3.7-0.4-6.4-2.1-8.1-8c-2.2,6.1-5.8,8.2-9.3,8.2
			c-5.1-0.1-11.8-4.5-11.9-18.7c-0.2-15,6.2-24.2,14.3-24c1.5,0,3.4,0.3,5,1.9c0.4-16.6,1.4-32.9-0.6-34.6
			c7.4,1.2,13.1,4.6,11.8,17.9c-1.2,12.6-3.3,16.9-3.3,40.9c0,9.4,1.8,11.2,4.2,11.1c3.1-0.2,6.8-6.2,7-13.2
			C277.1,68.9,277.8,69.7,276.5,75.2z M255.2,62.8c0-10.9-2.2-13.9-4.1-13.9c-2.9,0-6.1,4.8-6.5,16.3c-0.4,9.2,1.8,15.4,4.6,15.4
			C252.1,80.6,255.2,74.4,255.2,62.8z"/>
		<path fill="#CC3D3D" d="M303.6,51.2c-0.2,3.4-1.8,12.2-0.9,12.7c-5.9-2.2-9.3-3.5-9.2-9.6c0.1-6.2-0.7-5-2.4-1.6
			c-1.8,3.6-4.2,9.5-5.2,16.9c-0.6,9-1.2,16.9-0.5,17.4c-5.9-2.3-7.6-3.6-7.7-10.9c-0.2-13.5,1-29.3-0.3-31.3c5.9,1.6,8.2,1.9,9,5.9
			c3.1-7,7.1-7.2,9.9-6.2C299.6,45.7,303.9,47,303.6,51.2z"/>
		<path fill="#CC3D3D" d="M341.1,71.3c-1.6,9-9.2,16.4-19.1,15c-6.6-0.9-14.8-7.5-14.4-21c0.4-14.3,9.5-23,17.3-21.2
			c12,2.8,9.2,24-8.2,26.6c1.2,5.2,3.9,8.2,7.3,9.3c6.2,2.2,15-6.2,14.8-14.2C339.8,66.2,341.9,66.4,341.1,71.3z M316.1,66.5v0.2
			c8.9-2.8,12.2-16.2,6.5-18C319.1,50.3,315.7,58.5,316.1,66.5z"/>
		<path fill="#CC3D3D" d="M360.1,46c5.2,9.5,11,17.1,11,25.4c0,10.9-7.2,15.9-15.4,15.9c-8,0-15.2-7.5-14.2-16.7
			c0.6-6,3.9-8.9,7.5-9.7c1.5-3,4.6-9.5,5.9-13.9c-1-1.8-3.3-6.2-2.8-12c0.6-8.1,6.3-8.2,9.5-5.8c2.9,2.2,1.5,6.5,1.1,8.6
			C362.1,40.3,361.1,43.1,360.1,46z M357.9,51.8c-1.5,3.7-3,7.1-4.2,9.2c1.4,0.5,2.5,1.2,3.4,2.2c-9.7,4.2-8.9,18.5-2.1,19.6
			c4,0.7,7.4-5.4,8-11.9C363.6,63.8,360.1,56,357.9,51.8z M404.3,71.4c0,10.9-7.2,15.9-15.4,15.9c-8,0-15.2-7.5-14.2-16.7
			c0.6-6,3.9-8.9,7.5-9.7c1.5-3,4.6-9.5,5.9-13.9c-1-1.8-3.3-6.2-2.8-12c0.6-8.1,6.3-8.2,9.5-5.8c2.9,2.2,1.5,6.5,1.1,8.6
			c-0.6,2.5-1.5,5.3-2.5,8.2C398.6,55.5,404.3,63.1,404.3,71.4z M391.1,51.8c-1.5,3.7-3,7.1-4.2,9.2c1.4,0.5,2.5,1.2,3.4,2.2
			c-9.7,4.2-8.9,18.5-2.1,19.6c4,0.7,7.4-5.4,8-11.9C396.8,63.8,393.3,56,391.1,51.8z"/>
		<path fill="#CC3D3D" d="M478.5,71.9c-2.1,9.6-7.3,15.2-13.6,14.3c-10.6-1.4-11-15.1-8.5-35.2c-2.5,0-4.7-0.2-6.6-0.4
			c-1.9,17.6-8.2,35-22.7,35.4c-8.1,0.2-16.6-7.2-16.5-19.9c0.2-15.9,9.9-24.4,17.6-22.1c12.6,3.9,4.6,24.2-9.1,26
			c1,7,5.2,9.9,7.7,10c8.2,0.5,16.2-10.5,17.9-30.8c-3.9-1.7-6.1-4.8-6.1-10.2c0-9.5,4.2-9.4,8.4-6.9c3.4,1.9,4.2,5.9,3.7,11.3
			c0.6,0.2,2.7,1.1,7.3,0c3.6-0.8,8.2,4.2,7.7,7.9c-1.4,10-3.6,26.2,0,28.8c4.4,3.2,10.5-8,10.6-14.9
			C478.9,66.5,479.3,68.1,478.5,71.9z M418.9,66.6c7.9-3.3,10.4-17.6,6.6-18.3C422.3,47.8,419.1,57,418.9,66.6z"/>
	</g>
	<g>
		<g>
			<polygon fill="#2FB3B3" points="232.6,268.1 236.5,268.1 187.5,242.5 176,248.1 			"/>
			<path fill="#2FB3B3" d="M170.8,231.9l-24.4-23.1c0.1-0.5,0.1-1,0.1-1.5c0.2-6.8-5.1-13.1-12.5-15c-4.1-1.1-8.4-0.7-12,1
				c-3.7,1.8-6.3,4.8-7.3,8.6c-0.2,0.9-0.4,1.9-0.4,2.8c0,0,0,0,0,0c-0.1,5.2,2.9,10.1,7.7,13c-0.1,0.3-0.2,0.7-0.2,1
				c-0.1,2,1.5,3.7,3.5,3.7c1.6,0,2.9-0.9,3.5-2.3c3.5,0.5,7,0.1,10.1-1.4c2.1-1,3.8-2.4,5.1-4.1l18.3,19.9L170.8,231.9z M137,214.8
				c-2.7,1.3-5.9,1.6-9,0.7c-5.5-1.4-9.4-6-9.3-10.7c0-0.6,0.1-1.2,0.3-1.8c0.7-2.5,2.4-4.5,5-5.8c2.7-1.3,5.9-1.6,9-0.7
				c5.5,1.4,9.4,6,9.3,10.7c0,0.6-0.1,1.2-0.3,1.9C141.4,211.5,139.6,213.6,137,214.8z"/>
			<path fill="#2FB3B3" d="M114.2,296.9c0.8-0.5,5.6-10.5,11.1-10.7c2,0.3,4,0.2,6.1-0.2c7.6-1.5,13.2-7.5,13.4-14.3
				c0-0.2,0-0.4,0-0.6l28.8-25l63.8-30.9l-5.6,0.6l-66.4,20.4l-0.4,7.8l-22.7,19.5c-1.1-1.5-2.6-2.8-4.4-3.7
				c-3.5-2-7.7-2.6-11.9-1.7c-7.6,1.5-13.2,7.5-13.4,14.3c0,0.9,0.1,1.9,0.2,2.8c0.4,2.1,1.4,4,2.7,5.7c2,5.4-3,10.7-3.6,12.2
				C111.1,294.6,113.3,297.4,114.2,296.9z M169.1,240.4c0-1.3,1.1-2.2,2.3-2.2c1.2,0,2.2,1.1,2.2,2.3c0,1.2-1.1,2.2-2.3,2.2
				C170.1,242.7,169.1,241.7,169.1,240.4z M121.5,280.4c-2.5-1.4-4.1-3.5-4.7-6.1c-0.1-0.6-0.2-1.2-0.2-1.9c0.1-4.8,4.3-9,9.9-10.2
				c3.2-0.6,6.4-0.2,9,1.3c2.5,1.4,4.1,3.5,4.6,6.1c0.1,0.6,0.2,1.2,0.2,1.9c-0.1,4.8-4.3,9-9.9,10.2
				C127.3,282.3,124.1,281.9,121.5,280.4z"/>
		</g>
	</g>
	
		<use xlink:href="#New_Symbol"  width="67.3" height="265.8" x="-33.7" y="-132.9" transform="matrix(0.6602 0 0 -0.6602 483.2358 245.229)" overflow="visible"/>
	<g>
		<g>
			<g>
				<g>
					<g>
						<polygon fill="#CC3D3D" points="36.6,187.6 -0.8,187.6 36.9,105.6 69.4,105.6 						"/>
						<polygon fill="#FFFFFF" points="74,187.6 36.6,187.6 69.4,105.6 101.9,105.6 						"/>
					</g>
					<g>
						<polygon fill="#CC3D3D" points="108.2,187.6 70.8,187.6 99.1,105.6 131.6,105.6 						"/>
						<polygon fill="#FFFFFF" points="145.6,187.6 108.2,187.6 131.6,105.6 164.1,105.6 						"/>
					</g>
					<g>
						<polygon fill="#CC3D3D" points="179.7,187.6 142.3,187.6 161.3,105.6 193.8,105.6 						"/>
						<polygon fill="#FFFFFF" points="217.1,187.6 179.7,187.6 193.8,105.6 226.3,105.6 						"/>
					</g>
					<g>
						<polygon fill="#CC3D3D" points="251.2,187.6 213.8,187.6 223.5,105.6 256,105.6 						"/>
						<polygon fill="#FFFFFF" points="288.6,187.6 251.2,187.6 256,105.6 288.5,105.6 						"/>
					</g>
					<g>
						<polygon fill="#CC3D3D" points="324.4,187.6 287,187.6 287.1,105.6 319.6,105.6 						"/>
						<polygon fill="#FFFFFF" points="361.8,187.6 324.4,187.6 319.6,105.6 352.1,105.6 						"/>
					</g>
					<g>
						<polygon fill="#CC3D3D" points="395.9,187.6 358.5,187.6 349.3,105.6 381.8,105.6 						"/>
						<polygon fill="#FFFFFF" points="433.3,187.6 395.9,187.6 381.8,105.6 414.3,105.6 						"/>
					</g>
					<g>
						<polygon fill="#CC3D3D" points="467.5,187.6 430.1,187.6 411.5,105.6 444,105.6 						"/>
						<polygon fill="#FFFFFF" points="504.8,187.6 467.5,187.6 444,105.6 476.5,105.6 						"/>
					</g>
					<g>
						<polygon fill="#CC3D3D" points="539,187.6 501.6,187.6 473.7,105.6 506.2,105.6 						"/>
						<polygon fill="#FFFFFF" points="576.4,187.6 539,187.6 506.2,105.6 538.7,105.6 						"/>
					</g>
				</g>
			</g>
			<rect x="-0.8" y="187.5" fill="#FFFFFF" width="577.1" height="11.4"/>
		</g>
		<rect x="37.5" y="198.5" opacity="0.2" fill="#314240" width="501.5" height="33.1"/>
	</g>
</g>
</svg>
