<?xml version="1.0" encoding="utf-8"?>
<!-- Generator: Adobe Illustrator 18.1.1, SVG Export Plug-In . SVG Version: 6.00 Build 0)  -->
<!DOCTYPE svg PUBLIC "-//W3C//DTD SVG 1.1//EN" "http://www.w3.org/Graphics/SVG/1.1/DTD/svg11.dtd">
<svg version="1.1" id="Layer_1" xmlns="http://www.w3.org/2000/svg" xmlns:xlink="http://www.w3.org/1999/xlink" x="0px" y="0px"
	 viewBox="0 0 229.9 167.6" enable-background="new 0 0 229.9 167.6" xml:space="preserve">
<symbol  id="New_Symbol" viewBox="-33.7 -132.9 67.3 265.8">
	<g>
		<defs>
			<polygon id="SVGID_7_" points="8.8,-85.1 -22.2,-85.1 -22.2,82.9 8.8,82.9 			"/>
		</defs>
		<clipPath id="SVGID_1_">
			<use xlink:href="#SVGID_7_"  overflow="visible"/>
		</clipPath>
		<polygon clip-path="url(#SVGID_1_)" fill="#FFFFFF" points="8.8,-85.1 -22.2,-85.1 -22.2,82.9 8.8,82.9 		"/>
		<g clip-path="url(#SVGID_1_)">
			
				<line fill="#FF0010" stroke="#FF0000" stroke-width="7" stroke-linecap="round" stroke-linejoin="round" stroke-miterlimit="10" x1="-30.2" y1="119.4" x2="30.2" y2="59.1"/>
			
				<line fill="#FF0010" stroke="#FF0000" stroke-width="7" stroke-linecap="round" stroke-linejoin="round" stroke-miterlimit="10" x1="-30.2" y1="81.7" x2="30.2" y2="21.4"/>
			
				<line fill="#FF0010" stroke="#FF0000" stroke-width="7" stroke-linecap="round" stroke-linejoin="round" stroke-miterlimit="10" x1="-30.2" y1="44" x2="30.2" y2="-16.3"/>
			
				<line fill="#FF0010" stroke="#FF0000" stroke-width="7" stroke-linecap="round" stroke-linejoin="round" stroke-miterlimit="10" x1="-30.2" y1="6.3" x2="30.2" y2="-54"/>
			
				<line fill="#FF0010" stroke="#FF0000" stroke-width="7" stroke-linecap="round" stroke-linejoin="round" stroke-miterlimit="10" x1="-30.2" y1="-31.4" x2="30.2" y2="-91.7"/>
			
				<line fill="#FF0010" stroke="#FF0000" stroke-width="7" stroke-linecap="round" stroke-linejoin="round" stroke-miterlimit="10" x1="-30.2" y1="-69.1" x2="30.2" y2="-129.4"/>
		</g>
		<g clip-path="url(#SVGID_1_)">
			
				<line fill="none" stroke="#008CBF" stroke-width="7" stroke-linecap="round" stroke-linejoin="round" stroke-miterlimit="10" x1="-30.2" y1="129.4" x2="30.2" y2="69.1"/>
			
				<line fill="none" stroke="#008CBF" stroke-width="7" stroke-linecap="round" stroke-linejoin="round" stroke-miterlimit="10" x1="-30.2" y1="91.7" x2="30.2" y2="31.4"/>
			
				<line fill="none" stroke="#008CBF" stroke-width="7" stroke-linecap="round" stroke-linejoin="round" stroke-miterlimit="10" x1="-30.2" y1="54" x2="30.2" y2="-6.3"/>
			
				<line fill="none" stroke="#008CBF" stroke-width="7" stroke-linecap="round" stroke-linejoin="round" stroke-miterlimit="10" x1="-30.2" y1="16.3" x2="30.2" y2="-44"/>
			
				<line fill="none" stroke="#008CBF" stroke-width="7" stroke-linecap="round" stroke-linejoin="round" stroke-miterlimit="10" x1="-30.2" y1="-21.4" x2="30.2" y2="-81.7"/>
			
				<line fill="none" stroke="#008CBF" stroke-width="7" stroke-linecap="round" stroke-linejoin="round" stroke-miterlimit="10" x1="-30.2" y1="-59.1" x2="30.2" y2="-119.4"/>
		</g>
	</g>
	<path fill="#DEDEDE" d="M14.8,81.3h-42c0,0,1.7,22,21,22S14.8,81.3,14.8,81.3z"/>
	<path fill="#DEDEDE" d="M-27.2-78.6h42c0,0-4-19-22-19S-27.2-78.6-27.2-78.6z"/>
</symbol>
<g>
	<rect x="15" y="40.6" fill="#D1814F" width="200" height="127"/>
	<g>
		<rect x="15" y="40" fill="#2FB3B3" width="200.2" height="12.1"/>
	</g>
	<g>
		<polyline fill="#485D78" points="136,167.4 136,93.4 184,93.4 184,167.4 		"/>
		<circle fill="#E6C634" cx="173.5" cy="133.6" r="3.5"/>
	</g>
	<g>
		<path fill="#CC3D3D" d="M46.6,7.2c-0.1,6.9-1.8,32.3-0.9,33.3c-2.1-1-4-2-4-5.4c0-1.5,0-5.4,0-10c-0.6,0.1-1.3,0.2-2.1,0.2
			c-1.8,0.1-4.1-0.1-6.6-0.3c-0.3,7.9-0.5,15.4,0,15.7c-2.7-1.5-3.7-2-3.8-4.7c-1.3-3.8-3.9-11.2-7.5-12.1c1-3.7,4.1-3.2,6.5-3.3H29
			c0-9.5-0.1-20.1-0.6-20.7c3.7,1.5,5.6,1.7,5.4,6.3c0,1.7-0.3,7.8-0.5,14.5c2,0,4.5,0,7.6-0.2l0.9-0.1c0-9.5,0-20.1-0.7-20.5
			C45.9,2,46.6,2.8,46.6,7.2z M29,24.7c-0.8-0.1-1.6-0.1-2.3-0.3c0.9,1.1,1.8,2.8,2.3,4.6L29,24.7z"/>
		<path fill="#CC3D3D" d="M67.9,34.1c-0.6,4.1-3.4,6.9-6.3,5.8c-0.9-0.3-1.9-1.2-2.7-2.8c-0.8,1.7-2,2.9-3.8,3.1
			c-3.3,0.3-5.7-2.8-5.5-8.9c0.2-6.2,2.9-10.9,6.9-10.8c3.5,0.1,5.2,2.8,4.5,6.1c1.1,0.9,0.9,1.9,0.9,4.5c-0.1,2.3-0.2,6,1.1,6.7
			c1.3,0.7,3.6-2,3.8-6.6C67.5,31.4,68.3,31.6,67.9,34.1z M58.3,29.1c-0.6-0.1-1.2-0.4-1.5-0.8c0.8-0.6,2-5.6-0.2-5.6
			c-1.9,0.3-3.2,4.7-3.3,8.8c-0.1,3.4,0.6,6.4,2.2,6.4C56.9,37.9,58.3,33.6,58.3,29.1z"/>
		<path fill="#CC3D3D" d="M94.3,33.8c-0.8,4.6-3.4,6.7-6,6.4c-4.7-0.5-5.1-7-3.9-16.4c-1.2,0-2.3-0.1-3.2-0.2
			c-0.1,2.2-0.6,7.8-2.2,11.7c-2.6,6.9-9.9,6.5-10.2-0.9c-0.2-5.5,0.5-13.4,0-13.8c3.6,0.9,4.7,1.8,4.3,5.9
			c-0.2,2.3-0.5,5.6-0.5,7.8c0,6.1,4.1,2.2,5.3-3.6c0.7-3.7,0.8-6.2,0.8-7.7C77,22.1,76,20.7,76,18.2c0-4.4,1.9-4.4,3.9-3.2
			c1.6,0.9,2,2.8,1.7,5.3c0.3,0.1,1.3,0.5,3.4,0c1.7-0.4,3.8,2,3.6,3.7C88,28.7,87.1,36.8,89,37.4c2.4,0.7,4-4.3,4.1-7.1
			C94.4,30.8,94.6,32,94.3,33.8z M69.1,12.6c4.1-1.1,5.4,1.1,4.1,3.6C72.2,18.1,67.8,16.8,69.1,12.6z"/>
		<path fill="#CC3D3D" d="M114.1,35c-0.9,3.9-3,5.5-5.1,5.2c-1.7-0.2-3-1-3.8-3.7c-1,2.8-2.7,3.8-4.3,3.8c-2.4,0-5.5-2.1-5.6-8.7
			c-0.1-7,2.9-11.3,6.7-11.2c0.7,0,1.6,0.1,2.3,0.9c0.2-7.7,0.6-15.3-0.3-16.1c3.4,0.5,6.1,2.2,5.5,8.4c-0.6,5.9-1.5,7.9-1.5,19.1
			c0,4.4,0.8,5.2,2,5.2c1.4-0.1,3.2-2.9,3.3-6.2C114.4,32.1,114.7,32.5,114.1,35z M104.2,29.3c0-5.1-1-6.5-1.9-6.5
			c-1.4,0-2.8,2.2-3.1,7.6c-0.2,4.3,0.8,7.2,2.2,7.2C102.7,37.6,104.2,34.7,104.2,29.3z"/>
		<path fill="#CC3D3D" d="M127,23.9c-0.1,1.6-0.8,5.7-0.4,5.9c-2.7-1-4.3-1.6-4.3-4.5c0-2.9-0.3-2.3-1.1-0.8c-0.8,1.7-2,4.5-2.4,7.9
			c-0.3,4.2-0.6,7.9-0.3,8.1c-2.7-1.1-3.6-1.7-3.6-5.1c-0.1-6.3,0.5-13.7-0.1-14.6c2.7,0.8,3.8,0.9,4.2,2.8c1.4-3.3,3.3-3.4,4.6-2.9
			C125.1,21.3,127.1,21.9,127,23.9z"/>
		<path fill="#CC3D3D" d="M144.8,33.2c-0.8,4.2-4.3,7.6-8.9,7c-3.1-0.4-6.9-3.5-6.7-9.8c0.2-6.7,4.4-10.7,8.1-9.9
			c5.6,1.3,4.3,11.2-3.8,12.4c0.5,2.4,1.8,3.8,3.4,4.3c2.9,1,7-2.9,6.9-6.6C144.2,30.8,145.2,31,144.8,33.2z M133.2,31v0.1
			c4.1-1.3,5.7-7.6,3.1-8.4C134.6,23.4,133,27.3,133.2,31z"/>
		<path fill="#CC3D3D" d="M153.9,21.4c2.4,4.5,5.1,8,5.1,11.8c0,5.1-3.4,7.4-7.2,7.4c-3.7,0-7.1-3.5-6.6-7.8
			c0.3-2.8,1.8-4.2,3.5-4.5c0.7-1.4,2.2-4.5,2.8-6.5c-0.5-0.9-1.5-2.9-1.3-5.6c0.3-3.8,2.9-3.8,4.5-2.7c1.4,1,0.7,3,0.5,4
			C154.8,18.8,154.4,20.1,153.9,21.4z M152.9,24.2c-0.7,1.7-1.4,3.3-2,4.3c0.6,0.2,1.2,0.6,1.6,1c-4.5,2-4.1,8.6-1,9.2
			c1.9,0.3,3.4-2.5,3.7-5.6C155.6,29.7,153.9,26.1,152.9,24.2z M174.6,33.3c0,5.1-3.4,7.4-7.2,7.4c-3.7,0-7.1-3.5-6.6-7.8
			c0.3-2.8,1.8-4.2,3.5-4.5c0.7-1.4,2.2-4.5,2.8-6.5c-0.5-0.9-1.5-2.9-1.3-5.6c0.3-3.8,2.9-3.8,4.5-2.7c1.4,1,0.7,3,0.5,4
			c-0.3,1.1-0.7,2.5-1.2,3.8C171.9,25.9,174.6,29.4,174.6,33.3z M168.4,24.2c-0.7,1.7-1.4,3.3-2,4.3c0.6,0.2,1.2,0.6,1.6,1
			c-4.5,2-4.1,8.6-1,9.2c1.9,0.3,3.4-2.5,3.7-5.6C171,29.7,169.4,26.1,168.4,24.2z"/>
		<path fill="#CC3D3D" d="M209.5,33.5c-1,4.5-3.4,7.1-6.4,6.7c-5-0.6-5.1-7-3.9-16.4c-1.1,0-2.2-0.1-3.1-0.2
			c-0.9,8.2-3.8,16.3-10.6,16.5c-3.8,0.1-7.8-3.4-7.7-9.3c0.1-7.4,4.6-11.4,8.2-10.3c5.9,1.8,2.2,11.3-4.2,12.1
			c0.5,3.3,2.4,4.6,3.6,4.7c3.8,0.2,7.5-4.9,8.3-14.4c-1.8-0.8-2.8-2.2-2.8-4.7c0-4.4,1.9-4.4,3.9-3.2c1.6,0.9,2,2.8,1.7,5.3
			c0.3,0.1,1.3,0.5,3.4,0c1.7-0.4,3.8,2,3.6,3.7c-0.6,4.7-1.7,12.2,0,13.4c2,1.5,4.9-3.7,5-6.9C209.7,31,209.9,31.7,209.5,33.5z
			 M181.7,31.1c3.7-1.5,4.8-8.2,3.1-8.5C183.3,22.3,181.8,26.6,181.7,31.1z"/>
	</g>
	<g>
		<g>
			<linearGradient id="SVGID_2_" gradientUnits="userSpaceOnUse" x1="30.0727" y1="159.1407" x2="120.163" y2="83.5459">
				<stop  offset="0" style="stop-color:#C5EDE8"/>
				<stop  offset="0.2532" style="stop-color:#FBFEFD"/>
				<stop  offset="0.2582" style="stop-color:#DEF5F2"/>
				<stop  offset="0.2615" style="stop-color:#C5EDE8"/>
				<stop  offset="0.4216" style="stop-color:#DEF5F2"/>
				<stop  offset="0.6325" style="stop-color:#FFFFFF"/>
				<stop  offset="0.8004" style="stop-color:#C9EEE9"/>
				<stop  offset="0.8045" style="stop-color:#D8F3EF"/>
				<stop  offset="1" style="stop-color:#C5EDE8"/>
			</linearGradient>
			
				<rect x="24.7" y="90" fill="url(#SVGID_2_)" stroke="#7DA6B3" stroke-width="3.5698" stroke-miterlimit="10" width="100.9" height="62.7"/>
		</g>
		<g>
			<g>
				<polygon fill="#2FB3B3" points="103.9,128.1 105.8,128.2 81.8,115.6 76.1,118.3 				"/>
				<path fill="#2FB3B3" d="M73.6,110.4L61.7,99.1c0-0.3,0.1-0.5,0.1-0.8c0.1-3.3-2.5-6.4-6.1-7.4c-2-0.5-4.1-0.4-5.9,0.5
					c-1.8,0.9-3.1,2.4-3.6,4.2c-0.1,0.5-0.2,0.9-0.2,1.4c0,0,0,0,0,0c-0.1,2.5,1.4,4.9,3.8,6.4c-0.1,0.2-0.1,0.3-0.1,0.5
					c0,1,0.7,1.8,1.7,1.8c0.8,0,1.4-0.4,1.7-1.1c1.7,0.3,3.4,0,4.9-0.7c1-0.5,1.9-1.2,2.5-2l9,9.8L73.6,110.4z M57.1,102
					c-1.3,0.6-2.9,0.8-4.4,0.4c-2.7-0.7-4.6-2.9-4.5-5.2c0-0.3,0.1-0.6,0.1-0.9c0.3-1.2,1.2-2.2,2.4-2.8c1.3-0.6,2.9-0.8,4.4-0.4
					c2.7,0.7,4.6,2.9,4.5,5.2c0,0.3-0.1,0.6-0.1,0.9C59.2,100.4,58.3,101.4,57.1,102z"/>
				<path fill="#2FB3B3" d="M45.9,142.2c0.4-0.2,2.7-5.2,5.4-5.2c1,0.1,2,0.1,3-0.1c3.7-0.7,6.5-3.7,6.6-7c0-0.1,0-0.2,0-0.3
					l14.1-12.2l31.2-15.1l-2.7,0.3l-32.5,10l-0.2,3.8l-11.1,9.5c-0.6-0.7-1.3-1.3-2.1-1.8c-1.7-1-3.8-1.3-5.8-0.8
					c-3.7,0.7-6.5,3.7-6.6,7c0,0.5,0,0.9,0.1,1.4c0.2,1,0.7,2,1.3,2.8c1,2.6-1.4,5.2-1.8,6C44.4,141.1,45.5,142.5,45.9,142.2z
					 M72.8,114.6c0-0.6,0.5-1.1,1.1-1.1c0.6,0,1.1,0.5,1.1,1.1c0,0.6-0.5,1.1-1.1,1.1C73.3,115.7,72.8,115.2,72.8,114.6z
					 M49.5,134.2c-1.2-0.7-2-1.7-2.3-3c-0.1-0.3-0.1-0.6-0.1-0.9c0.1-2.3,2.1-4.4,4.8-5c1.6-0.3,3.1-0.1,4.4,0.6
					c1.2,0.7,2,1.7,2.3,3c0.1,0.3,0.1,0.6,0.1,0.9c-0.1,2.3-2.1,4.4-4.8,5C52.3,135.1,50.7,134.9,49.5,134.2z"/>
			</g>
		</g>
	</g>
	
		<use xlink:href="#New_Symbol"  width="67.3" height="265.8" x="-33.7" y="-132.9" transform="matrix(0.3232 0 0 -0.3232 200.0644 116.9438)" overflow="visible"/>
	<g>
		<g>
			<g>
				<g>
					<g>
						<polygon fill="#CC3D3D" points="14.9,88.4 0,88.4 15,49.4 28,49.4 						"/>
						<polygon fill="#FFFFFF" points="29.8,88.4 14.9,88.4 28,49.4 40.9,49.4 						"/>
					</g>
					<g>
						<polygon fill="#CC3D3D" points="43.4,88.4 28.5,88.4 39.8,49.4 52.7,49.4 						"/>
						<polygon fill="#FFFFFF" points="58.3,88.4 43.4,88.4 52.7,49.4 65.7,49.4 						"/>
					</g>
					<g>
						<polygon fill="#CC3D3D" points="71.9,88.4 57,88.4 64.6,49.4 77.5,49.4 						"/>
						<polygon fill="#FFFFFF" points="86.8,88.4 71.9,88.4 77.5,49.4 90.5,49.4 						"/>
					</g>
					<g>
						<polygon fill="#CC3D3D" points="100.4,88.4 85.5,88.4 89.3,49.4 102.3,49.4 						"/>
						<polygon fill="#FFFFFF" points="115.3,88.4 100.4,88.4 102.3,49.4 115.3,49.4 						"/>
					</g>
					<g>
						<polygon fill="#CC3D3D" points="129.5,88.4 114.6,88.4 114.7,49.4 127.6,49.4 						"/>
						<polygon fill="#FFFFFF" points="144.4,88.4 129.5,88.4 127.6,49.4 140.6,49.4 						"/>
					</g>
					<g>
						<polygon fill="#CC3D3D" points="158,88.4 143.1,88.4 139.5,49.4 152.4,49.4 						"/>
						<polygon fill="#FFFFFF" points="172.9,88.4 158,88.4 152.4,49.4 165.4,49.4 						"/>
					</g>
					<g>
						<polygon fill="#CC3D3D" points="186.5,88.4 171.6,88.4 164.2,49.4 177.2,49.4 						"/>
						<polygon fill="#FFFFFF" points="201.4,88.4 186.5,88.4 177.2,49.4 190.2,49.4 						"/>
					</g>
					<g>
						<polygon fill="#CC3D3D" points="215,88.4 200.1,88.4 189,49.4 202,49.4 						"/>
						<polygon fill="#FFFFFF" points="229.9,88.4 215,88.4 202,49.4 214.9,49.4 						"/>
					</g>
				</g>
			</g>
			<rect x="0" y="88.7" fill="#FFFFFF" width="229.9" height="5.6"/>
		</g>
		<rect x="15.2" y="94" opacity="0.2" fill="#314240" width="199.8" height="16.2"/>
	</g>
</g>
</svg>
