<?xml version="1.0" encoding="utf-8"?>
<!-- Generator: Adobe Illustrator 18.1.1, SVG Export Plug-In . SVG Version: 6.00 Build 0)  -->
<!DOCTYPE svg PUBLIC "-//W3C//DTD SVG 1.1//EN" "http://www.w3.org/Graphics/SVG/1.1/DTD/svg11.dtd">
<svg version="1.1" id="Layer_1" xmlns="http://www.w3.org/2000/svg" xmlns:xlink="http://www.w3.org/1999/xlink" x="0px" y="0px"
	 viewBox="0 0 227.7 167.4" enable-background="new 0 0 227.7 167.4" xml:space="preserve">
<g>
	<g>
		<rect x="13.2" y="0" fill="#729454" width="201.2" height="167.4"/>
	</g>
	<rect x="132" y="84.8" fill="#8EB7ED" width="73.6" height="57.1"/>
	<rect x="132" y="145.5" fill="#F7E588" width="73.6" height="21.7"/>
	<rect x="21.5" y="145.5" fill="#F7E588" width="73.2" height="21.7"/>
	<rect x="131.4" y="84.8" opacity="0.15" width="14.8" height="81.8"/>
	<rect x="21.5" y="84.8" fill="#8EB7ED" width="73.2" height="57.1"/>
	<rect x="81.6" y="84.8" opacity="0.15" width="13" height="81.8"/>
	<rect x="21.5" y="84.8" opacity="0.15" width="13.9" height="81.8"/>
	<rect x="191.7" y="84.8" opacity="0.15" width="13.9" height="81.8"/>
	<g>
		<g>
			<g>
				<path fill="#DB5102" d="M37.8,19.3c0,0.2,0,0.3,0,0.5c0,0.2,0,0.3,0,0.5c0,0.2,0,0.5,0,0.7c0,0.2,0,0.5,0,0.7c0,0.1,0,0.2,0,0.3
					c0,0.1,0,0.2,0,0.2s-0.1,0.1-0.1,0.2s-0.1,0.1-0.2,0.1c-0.2,0-0.4,0-0.7,0c-0.3,0-0.5,0-0.7,0c-0.1,0-0.2,0-0.3,0
					c-0.1,0-0.2,0-0.3,0c-0.1,0-0.2-0.1-0.2-0.2c0-0.1,0-0.2,0-0.4c0-0.1,0-0.2,0-0.3c0-0.1,0-0.2,0-0.4v-0.2c-0.2,0-0.3,0-0.5,0
					c-0.2,0-0.4,0-0.6,0c-0.3,0-0.5,0-0.8,0s-0.5,0.1-0.7,0.1c-0.2,0.1-0.4,0.2-0.5,0.3c-0.1,0.1-0.2,0.3-0.2,0.5
					c0,0.3,0.1,0.5,0.4,0.7c0.3,0.2,0.6,0.3,0.9,0.4c0.4,0.1,0.8,0.2,1.1,0.4c0.4,0.1,0.7,0.2,1,0.3c0.3,0.1,0.6,0.2,0.9,0.3
					c0.3,0.1,0.5,0.3,0.7,0.5c0.4,0.2,0.8,0.6,1.1,1c0.3,0.5,0.4,1,0.4,1.6c0,0.4-0.1,0.7-0.2,1c-0.1,0.3-0.3,0.6-0.4,0.9
					c-0.2,0.3-0.4,0.5-0.7,0.8s-0.5,0.4-0.8,0.6c-0.2,0.1-0.4,0.2-0.7,0.3c-0.3,0.1-0.5,0.1-0.8,0.2c-0.2,0.1-0.5,0.1-0.8,0.1
					s-0.6,0-0.9,0c-0.4,0-0.9,0-1.3-0.1s-0.8-0.1-1.2-0.2c-0.4-0.1-0.7-0.2-0.9-0.3c-0.3-0.1-0.5-0.2-0.6-0.3c0-0.4,0-0.7,0-1.1
					c0-0.4,0-0.7,0-1c0-0.2,0-0.3,0-0.4c0-0.1,0-0.3,0-0.4c0.2,0,0.6,0,0.9-0.1s0.7,0,1.1,0c0.2,0,0.4,0,0.5,0s0.2,0,0.2,0.1
					c0,0,0.1,0.1,0.1,0.1c0,0,0,0.1,0,0.2c0,0.1,0,0.2,0,0.4c0,0.1,0,0.3,0,0.4c0,0.2,0,0.3,0.1,0.5c0.4,0,0.8,0,1.1,0s0.6,0,0.9,0
					c0.3,0,0.5-0.1,0.8-0.2c0.2-0.1,0.4-0.2,0.6-0.4c0.1-0.1,0.1-0.2,0.2-0.3c0-0.1,0.1-0.2,0.1-0.3c0-0.2-0.1-0.4-0.3-0.6
					s-0.4-0.3-0.7-0.4c-0.3-0.1-0.6-0.2-0.9-0.3c-0.3-0.1-0.6-0.2-1-0.3c-0.3-0.1-0.6-0.2-0.9-0.3c-0.3-0.1-0.5-0.2-0.6-0.3
					c-0.1-0.1-0.2-0.1-0.4-0.2c-0.1-0.1-0.3-0.2-0.4-0.2s-0.3-0.2-0.4-0.3c-0.1-0.1-0.2-0.2-0.3-0.3c-0.1-0.1-0.2-0.2-0.3-0.4
					c-0.1-0.2-0.1-0.3-0.2-0.5c-0.1-0.2-0.1-0.4-0.1-0.6c0-0.2,0-0.4,0-0.5c0-0.4,0.1-0.7,0.1-0.9c0.1-0.3,0.2-0.5,0.3-0.7
					c0.1-0.2,0.3-0.4,0.4-0.6c0.2-0.2,0.4-0.4,0.7-0.6c0.2-0.1,0.4-0.3,0.7-0.4c0.3-0.1,0.5-0.2,0.8-0.2c0.3-0.1,0.6-0.1,0.8-0.1
					s0.5,0,0.8,0c0.3,0,0.6,0,1,0.1c0.4,0,0.8,0.1,1.2,0.2s0.8,0.1,1.1,0.2C37.3,19.1,37.6,19.2,37.8,19.3z"/>
				<path fill="#DB5102" d="M51,22.3c-0.1,0.1-0.3,0.1-0.5,0.1s-0.4,0-0.7,0c-0.2,0-0.4,0-0.6,0c-0.2,0-0.3,0-0.4-0.1
					c0,0,0-0.1,0-0.2s0-0.2,0-0.4s0-0.3,0-0.4c0-0.2,0-0.3,0-0.4c-0.2,0-0.3,0-0.4,0c-0.1,0-0.2,0-0.3,0c-0.1,0-0.2,0-0.4,0
					s-0.3,0-0.6,0c0,0.6,0,1.1,0,1.6s0.1,1,0.1,1.6c0,0.4,0,0.7,0,1.1c0,0.4,0,0.7-0.1,1.1s0,0.7,0,1.1c0,0.4,0,0.7,0.1,1.1
					c0.2,0,0.3,0,0.5,0s0.3,0,0.5,0c0.1,0.1,0.1,0.3,0.1,0.4c0,0.1,0,0.3,0,0.5c0,0.2,0,0.4,0,0.5c0,0.2,0,0.4,0,0.6
					c-0.1,0.1-0.2,0.2-0.4,0.2c-0.2,0-0.4,0-0.6,0c-0.2,0-0.4,0-0.7,0s-0.5,0-0.8,0s-0.6,0-0.8,0c-0.3,0-0.5,0-0.7,0
					c-0.1,0-0.2,0-0.3,0c-0.1,0-0.2,0-0.4,0s-0.2,0-0.3,0c-0.1,0-0.2,0-0.2,0c-0.1,0-0.1,0-0.1-0.1c0,0,0-0.1,0-0.1c0,0,0-0.1,0-0.1
					c0,0,0-0.1,0-0.2c0.1-0.3,0.1-0.5,0.1-0.7c0-0.2,0-0.5-0.1-0.7c0-0.1,0.1-0.1,0.2-0.2c0.1,0,0.2-0.1,0.3-0.1c0.1,0,0.2,0,0.4,0
					c0.1,0,0.2,0,0.3,0c0.1-1.2,0.2-2.4,0.2-3.7s-0.1-2.5-0.2-3.9c-0.3-0.1-0.5-0.1-0.8-0.1c-0.3,0-0.5,0-0.9,0c0,0.2,0,0.3,0,0.4
					c0,0.1,0,0.2,0,0.3s0,0.2,0,0.3c0,0.1,0,0.2,0,0.4c-0.1,0-0.3,0.1-0.5,0.1c-0.2,0-0.4,0-0.6,0c-0.2,0-0.4,0-0.7,0
					s-0.4,0-0.6-0.1c0-0.5,0.1-1.1,0-1.7s-0.1-1.2-0.2-1.7c0.8-0.1,1.7-0.2,2.5-0.2c0.8,0,1.6,0,2.4,0c0.8,0,1.6,0,2.4,0.1
					c0.8,0,1.6,0,2.5,0c0.1,0,0.2,0,0.4,0s0.3,0,0.4,0s0.3,0,0.4,0.1c0.1,0,0.2,0.1,0.2,0.1c0,0.1,0.1,0.3,0.1,0.6
					c0,0.2,0,0.4,0,0.6c0,0.4,0,0.7,0.1,1.1S51.1,22,51,22.3z"/>
				<path fill="#DB5102" d="M59.3,30.7c-0.1,0-0.3,0-0.5,0c-0.2,0-0.3,0-0.5,0c-0.8,0-1.5-0.1-2.1-0.3c-0.6-0.2-1.2-0.5-1.6-0.9
					c-0.1,0-0.1-0.1-0.2-0.2c-0.1-0.1-0.2-0.2-0.2-0.3c-0.1-0.1-0.2-0.2-0.2-0.3c-0.1-0.1-0.1-0.2-0.2-0.3c-0.1-0.1-0.2-0.3-0.4-0.6
					c-0.1-0.3-0.2-0.6-0.3-0.9c-0.1-0.3-0.2-0.7-0.2-1c-0.1-0.4-0.1-0.7-0.1-1.1c0-0.5,0.1-1,0.2-1.5s0.3-1.1,0.5-1.6
					c0.2-0.5,0.5-1,0.9-1.4s0.8-0.7,1.3-1c0.5-0.3,1-0.5,1.5-0.6c0.5-0.1,1-0.2,1.6-0.2c0.5,0,1,0.1,1.5,0.1c0.5,0.1,1,0.2,1.4,0.5
					c1,0.6,1.8,1.4,2.2,2.4c0.4,1,0.6,2.1,0.6,3.4c0,0.4,0,0.7,0,1c0,0.3-0.1,0.7-0.1,1c-0.2,0.5-0.4,1-0.7,1.4
					c-0.2,0.4-0.5,0.8-1,1.1c-0.2,0.2-0.4,0.3-0.6,0.4c-0.2,0.1-0.5,0.3-0.7,0.4c-0.3,0.1-0.5,0.2-0.8,0.3S59.7,30.7,59.3,30.7z
					 M61.4,25.1c0-0.1,0-0.3,0-0.4c0-0.1,0-0.3,0-0.4c0-0.2,0-0.5-0.1-0.8c-0.1-0.3-0.2-0.6-0.3-0.8c-0.1-0.3-0.3-0.5-0.4-0.8
					s-0.3-0.4-0.5-0.6c-0.1-0.1-0.2-0.2-0.3-0.2s-0.3-0.2-0.4-0.2c-0.1-0.1-0.3-0.1-0.4-0.2c-0.1,0-0.3-0.1-0.4-0.1
					c-0.3,0-0.7,0.1-1,0.3c-0.3,0.2-0.6,0.5-0.9,0.9c-0.3,0.4-0.5,0.8-0.6,1.2c-0.2,0.5-0.2,0.9-0.2,1.4c0,0.6,0.1,1.1,0.2,1.6
					c0.1,0.5,0.3,0.9,0.5,1.3c0.2,0.4,0.5,0.7,0.9,0.9c0.4,0.2,0.8,0.3,1.3,0.3c0.3,0,0.6,0,0.9-0.1c0.3-0.1,0.6-0.2,0.9-0.4
					c0.3-0.4,0.5-0.8,0.7-1.3C61.3,26.2,61.4,25.7,61.4,25.1z"/>
				<path fill="#DB5102" d="M73.5,25.2c0.2,0.1,0.3,0.3,0.5,0.4c0.1,0.2,0.2,0.3,0.3,0.4c0.2,0.2,0.3,0.5,0.4,0.7
					c0.1,0.3,0.2,0.5,0.4,0.8s0.3,0.4,0.5,0.6c0.2,0.2,0.4,0.3,0.8,0.3c0.2,0,0.4,0,0.6,0c0,0.2,0.1,0.3,0.1,0.5s0,0.4,0,0.5
					c0,0.2,0,0.3,0,0.5s-0.1,0.3-0.1,0.4c-0.3,0-0.6,0.1-0.9,0.1s-0.7,0-1.1,0s-0.7-0.1-1-0.2c-0.3-0.1-0.5-0.3-0.6-0.5
					c0,0,0-0.1-0.1-0.1c0-0.1-0.1-0.1-0.1-0.2S73,29.5,73,29.4c0-0.1-0.1-0.1-0.1-0.2c-0.1-0.3-0.3-0.5-0.4-0.8
					c-0.1-0.3-0.3-0.6-0.5-0.8c-0.2-0.3-0.3-0.5-0.5-0.8s-0.3-0.5-0.5-0.7c-0.2,0-0.4,0-0.5,0c-0.2,0-0.3,0-0.4,0c0,0.2,0,0.4,0,0.6
					c0,0.2,0,0.3,0,0.5c0,0.2,0,0.3,0,0.5c0,0.2,0,0.4,0,0.6c0.1,0,0.2,0,0.3,0c0.1,0,0.2,0,0.2,0s0.2,0,0.2,0c0.1,0,0.2,0,0.2,0.1
					c0.1,0.1,0.2,0.2,0.2,0.3c0,0.1,0,0.3,0,0.5c0,0.2,0,0.4-0.1,0.6c0,0.2,0,0.4,0,0.5c-0.1,0.1-0.1,0.2-0.1,0.2
					c0,0-0.1,0.1-0.2,0.1c-0.1,0-0.1,0-0.2,0s-0.2,0-0.3,0c-0.2,0-0.3,0-0.6,0c-0.2,0-0.5,0-0.7,0c-0.3,0-0.5,0-0.8,0s-0.5,0-0.6,0
					c-0.1,0-0.2,0-0.4,0c-0.1,0-0.3,0-0.4,0s-0.3,0-0.4,0c-0.1,0-0.2,0-0.2,0c-0.1,0-0.1-0.1-0.1-0.2c0-0.1-0.1-0.2-0.1-0.3
					c0-0.1,0-0.2,0-0.4c0-0.1,0-0.3,0-0.5c0-0.2,0-0.3,0-0.5c0-0.2,0-0.3,0-0.5c0.1-0.1,0.1-0.1,0.2-0.1c0.1,0,0.2,0,0.2,0
					c0.1,0,0.2,0.1,0.3,0.1c0.1,0,0.2,0,0.3,0c0-0.7,0.1-1.3,0.1-1.9c0-0.6,0-1.2,0-1.8s0-1.2-0.1-1.9c0-0.6,0-1.3-0.1-2.1
					c-0.2,0-0.3-0.1-0.4,0c-0.1,0-0.2,0-0.4,0c-0.1,0-0.2,0-0.2,0c0,0-0.1,0-0.1-0.1c0-0.1,0-0.3,0-0.4c0-0.2,0-0.3,0-0.5
					c0-0.2,0-0.3,0-0.5c0-0.2,0-0.3,0-0.4c0.2-0.1,0.4-0.1,0.7-0.1c0.3,0,0.6,0,1,0c0.3,0,0.7,0,1,0c0.3,0,0.6,0,1,0
					c0.3,0,0.6,0,0.9,0c0.3,0,0.7,0,1,0c0.3,0,0.7,0,1,0.1c0.3,0,0.6,0.1,0.9,0.1c0.2,0,0.3,0.1,0.5,0.2c0.2,0.1,0.4,0.2,0.6,0.3
					c0.2,0.1,0.3,0.3,0.5,0.4c0.1,0.2,0.3,0.3,0.3,0.5c0.2,0.4,0.3,0.7,0.3,1.1c0.1,0.3,0.1,0.7,0,1.2c-0.1,0.4-0.2,0.8-0.4,1.2
					c-0.2,0.4-0.4,0.7-0.7,0.9c-0.2,0.2-0.4,0.3-0.5,0.4C74,25.1,73.8,25.2,73.5,25.2z M71.3,23.9c0.2,0,0.4,0,0.6-0.1
					c0.2-0.1,0.4-0.2,0.6-0.3c0.2-0.1,0.3-0.3,0.5-0.5c0.1-0.2,0.2-0.4,0.2-0.7c0-0.2,0-0.4-0.1-0.7s-0.2-0.4-0.3-0.6
					c-0.1-0.1-0.3-0.1-0.4-0.1c-0.2,0-0.3-0.1-0.5-0.1c-0.4-0.1-0.7-0.1-1-0.1c-0.3,0-0.6,0-0.9,0.1v3.1c0.2,0,0.5,0.1,0.7,0.1
					C70.9,23.9,71.1,23.9,71.3,23.9z"/>
				<path fill="#DB5102" d="M85.4,20.7c-0.2,0-0.4,0-0.7,0c-0.2,0-0.5,0-0.7,0s-0.5,0-0.7,0c-0.2,0-0.5,0-0.6,0.1c0,0.5,0,1,0,1.4
					s0,0.9,0,1.3c0.2,0,0.4,0.1,0.7,0c0.3,0,0.5,0,0.8,0c0.3,0,0.5,0,0.8,0c0.3,0,0.5,0,0.8,0.1c0.1,0.1,0.1,0.3,0.1,0.4
					c0,0.2,0,0.3,0,0.5s0,0.3,0,0.5c0,0.1,0,0.3,0.1,0.4c-0.1,0-0.1,0-0.1,0.1c-0.1,0.1-0.2,0.1-0.3,0.1s-0.2,0-0.3,0s-0.2,0-0.3,0
					s-0.2,0-0.3,0c-0.2,0-0.5,0-0.8,0.1c-0.3,0-0.6,0-0.9-0.1c-0.1,0.5-0.1,1,0,1.5s0.1,1,0,1.5c0.4,0.1,0.9,0.1,1.4,0.1
					c0.5,0,1,0,1.5-0.1c0-0.2,0-0.4,0-0.5c0-0.2-0.1-0.3-0.1-0.5c0-0.1,0.1-0.2,0.2-0.3c0.1-0.1,0.1-0.2,0.2-0.2c0.1,0,0.3,0,0.5,0
					c0.2,0,0.4,0,0.6,0c0.2,0,0.4,0,0.6,0c0.2,0,0.4,0.1,0.6,0.1c0,0.2,0,0.3,0,0.5c0,0.2,0,0.4-0.1,0.6c0,0.2,0,0.4-0.1,0.6
					c0,0.2,0,0.4,0,0.6c0,0.1,0,0.3,0.1,0.5s0,0.4,0,0.6c-0.1,0.1-0.2,0.1-0.4,0.1c-0.1,0-0.3,0-0.4,0c-0.2,0-0.5,0-0.7,0.1
					c-0.2,0-0.5,0.1-0.7,0.1c-0.1,0-0.3,0-0.5,0s-0.4,0-0.6,0s-0.4,0-0.6,0c-0.2,0-0.3,0-0.5,0c-0.8,0-1.5,0-2.3,0
					c-0.8,0-1.5,0-2.3,0c-0.2-0.1-0.3-0.2-0.3-0.4c0-0.2-0.1-0.3-0.1-0.5s0-0.4,0-0.6c0-0.2,0-0.4,0-0.7c0.1-0.1,0.3-0.1,0.4-0.1
					c0.1,0,0.3,0,0.5,0c0.1-1.2,0.1-2.5,0.1-3.7c0-1.2,0-2.5-0.1-3.9c-0.2,0-0.4,0-0.5,0c-0.2,0-0.3,0-0.4,0c0,0,0-0.1,0-0.2
					c0-0.1,0-0.3,0-0.5c0-0.2,0-0.3,0-0.5s-0.1-0.3-0.1-0.4c0.1,0,0.1-0.1,0.1-0.2s0-0.1,0-0.2c0.3-0.1,0.7-0.1,1.1-0.1
					c0.4,0,0.8,0,1.1,0c0.5,0,1-0.1,1.5,0c0.5,0,1,0,1.5,0c0.3,0,0.6,0,0.9,0.1s0.7,0,0.9,0c0.1,0,0.3,0,0.5,0c0.2,0,0.4,0,0.6-0.1
					c0.2,0,0.4,0,0.6,0c0.2,0,0.3,0.1,0.4,0.1c0.1,0.1,0.1,0.2,0.2,0.3c0,0.1,0,0.3,0,0.5c0,0.2-0.1,0.3-0.1,0.5
					c0,0.2-0.1,0.3-0.1,0.5c0,0.1,0,0.3,0,0.4c0,0.1,0,0.3,0.1,0.4c0,0.1,0,0.3,0,0.4c0,0.1,0,0.2-0.1,0.3c-0.2,0-0.4,0-0.7,0
					c-0.3,0-0.5,0-0.8,0.1c-0.2,0-0.5,0-0.6,0c-0.2,0-0.3-0.1-0.3-0.2c0-0.2,0-0.3,0-0.6S85.4,20.9,85.4,20.7z"/>
				<path fill="#DB5102" d="M99.2,18.8c0,0.3,0.1,0.5,0,0.8c0,0.2,0,0.5,0,0.8c0,0.2,0,0.4,0,0.7c0.1,0.2,0.1,0.4,0,0.6
					c0,0.1-0.1,0.2-0.2,0.2c-0.1,0-0.2,0.1-0.2,0.2c-0.3,0.1-0.7,0.1-1,0.2c-0.4,0-0.7-0.1-1-0.3c0-0.2,0-0.4,0-0.6
					c0-0.2,0-0.3,0-0.6c-0.3,0-0.5,0-0.7-0.1c-0.2,0-0.4,0-0.6,0s-0.4,0-0.5,0c-0.2,0-0.4,0-0.7,0.1c0,0.4,0,0.9,0,1.4s0,1-0.1,1.4
					c0.2,0,0.4,0,0.7,0s0.5,0,0.8,0s0.5,0,0.8,0s0.5,0.1,0.7,0.1c0,0.1,0,0.3,0,0.5c0,0.2,0,0.3,0,0.5s0,0.3,0,0.5
					c0,0.2-0.1,0.3-0.1,0.4c-0.1,0-0.2,0-0.3,0c-0.1,0-0.1-0.1-0.2-0.1c-0.2,0.1-0.3,0.1-0.5,0.2c-0.2,0-0.4,0-0.6,0
					c-0.2,0-0.4,0-0.6,0c-0.2,0-0.4,0-0.5,0c0,0.3,0,0.5,0,0.8c0,0.2,0,0.5,0,0.7c0,0.2,0,0.4,0,0.6c0,0.2,0,0.5,0,0.7
					c0.2,0.1,0.5,0.1,0.7,0.1c0.3,0,0.5,0,0.8,0c0.1,0.1,0.1,0.2,0.1,0.3s0,0.1-0.1,0.2c0,0.2,0,0.4,0,0.7c0,0.3,0,0.5,0,0.8
					c-0.1,0.1-0.2,0.1-0.3,0.1c-0.1,0-0.2,0-0.4,0c-0.3,0-0.7,0-1.1,0c-0.4,0-0.8,0-1.2,0.1c-0.3,0-0.6,0-0.9,0
					c-0.3-0.1-0.6-0.1-0.9,0c-0.1,0-0.1,0-0.2,0.1c-0.1,0-0.1,0-0.2,0.1c-0.1,0-0.1,0-0.2,0s-0.1,0-0.2-0.1c0-0.1,0-0.3,0-0.4
					c0-0.2,0-0.3,0-0.5c0-0.2,0-0.3,0-0.5c0-0.2,0-0.3-0.1-0.4c0.2,0,0.4,0,0.6,0c0.2,0,0.4,0,0.5,0c0.1-0.4,0.1-0.8,0-1.2
					c0-0.4,0-0.8,0-1.3c0-0.5,0-1.1,0.1-1.7c0-0.6,0-1.2,0-1.7c0-0.3,0-0.6,0-0.9s0-0.6,0-0.9c-0.1-0.1-0.2-0.1-0.3-0.1
					c-0.1,0-0.2,0-0.4,0s-0.2,0-0.4,0c-0.1,0-0.2,0-0.3-0.1c0-0.1,0-0.3,0-0.5s0-0.3,0-0.5c0-0.2,0-0.3,0-0.5c0-0.2,0-0.3,0-0.4
					c0.1-0.1,0.2-0.2,0.3-0.1s0.2,0,0.3,0.1c0.4,0,0.8,0,1.2,0c0.4,0,0.8,0,1.3,0s0.8,0,1.3,0s0.8,0,1.2,0c0.3,0,0.6,0,0.9,0
					c0.3,0,0.6,0,0.9,0c0.2,0,0.5,0,0.7,0c0.2,0,0.4,0.1,0.5,0.2C98.8,18.8,99,18.8,99.2,18.8z"/>
				<path fill="#DB5102" d="M108.5,25.2c0.2,0.1,0.3,0.3,0.5,0.4c0.1,0.2,0.2,0.3,0.3,0.4c0.2,0.2,0.3,0.5,0.4,0.7
					c0.1,0.3,0.2,0.5,0.4,0.8s0.3,0.4,0.5,0.6c0.2,0.2,0.4,0.3,0.8,0.3c0.2,0,0.4,0,0.6,0c0,0.2,0.1,0.3,0.1,0.5s0,0.4,0,0.5
					c0,0.2,0,0.3,0,0.5s-0.1,0.3-0.1,0.4c-0.3,0-0.6,0.1-0.9,0.1s-0.7,0-1.1,0s-0.7-0.1-1-0.2c-0.3-0.1-0.5-0.3-0.6-0.5
					c0,0,0-0.1-0.1-0.1c0-0.1-0.1-0.1-0.1-0.2s-0.1-0.2-0.1-0.2c0-0.1-0.1-0.1-0.1-0.2c-0.1-0.3-0.3-0.5-0.4-0.8
					c-0.1-0.3-0.3-0.6-0.5-0.8c-0.2-0.3-0.3-0.5-0.5-0.8s-0.3-0.5-0.5-0.7c-0.2,0-0.4,0-0.5,0c-0.2,0-0.3,0-0.4,0c0,0.2,0,0.4,0,0.6
					c0,0.2,0,0.3,0,0.5c0,0.2,0,0.3,0,0.5c0,0.2,0,0.4,0,0.6c0.1,0,0.2,0,0.3,0c0.1,0,0.2,0,0.2,0s0.2,0,0.2,0c0.1,0,0.2,0,0.2,0.1
					c0.1,0.1,0.2,0.2,0.2,0.3c0,0.1,0,0.3,0,0.5c0,0.2,0,0.4-0.1,0.6c0,0.2,0,0.4,0,0.5c-0.1,0.1-0.1,0.2-0.1,0.2
					c0,0-0.1,0.1-0.2,0.1c-0.1,0-0.1,0-0.2,0s-0.2,0-0.3,0c-0.2,0-0.3,0-0.6,0c-0.2,0-0.5,0-0.7,0c-0.3,0-0.5,0-0.8,0s-0.5,0-0.6,0
					c-0.1,0-0.2,0-0.4,0c-0.1,0-0.3,0-0.4,0s-0.3,0-0.4,0c-0.1,0-0.2,0-0.2,0c-0.1,0-0.1-0.1-0.1-0.2c0-0.1-0.1-0.2-0.1-0.3
					c0-0.1,0-0.2,0-0.4c0-0.1,0-0.3,0-0.5c0-0.2,0-0.3,0-0.5c0-0.2,0-0.3,0-0.5c0.1-0.1,0.1-0.1,0.2-0.1c0.1,0,0.2,0,0.2,0
					c0.1,0,0.2,0.1,0.3,0.1c0.1,0,0.2,0,0.3,0c0-0.7,0.1-1.3,0.1-1.9c0-0.6,0-1.2,0-1.8s0-1.2-0.1-1.9c0-0.6,0-1.3-0.1-2.1
					c-0.2,0-0.3-0.1-0.4,0c-0.1,0-0.2,0-0.4,0c-0.1,0-0.2,0-0.2,0c0,0-0.1,0-0.1-0.1c0-0.1,0-0.3,0-0.4c0-0.2,0-0.3,0-0.5
					c0-0.2,0-0.3,0-0.5c0-0.2,0-0.3,0-0.4c0.2-0.1,0.4-0.1,0.7-0.1c0.3,0,0.6,0,1,0c0.3,0,0.7,0,1,0c0.3,0,0.6,0,1,0
					c0.3,0,0.6,0,0.9,0c0.3,0,0.7,0,1,0c0.3,0,0.7,0,1,0.1c0.3,0,0.6,0.1,0.9,0.1c0.2,0,0.3,0.1,0.5,0.2c0.2,0.1,0.4,0.2,0.6,0.3
					c0.2,0.1,0.3,0.3,0.5,0.4c0.1,0.2,0.3,0.3,0.3,0.5c0.2,0.4,0.3,0.7,0.3,1.1c0.1,0.3,0.1,0.7,0,1.2c-0.1,0.4-0.2,0.8-0.4,1.2
					c-0.2,0.4-0.4,0.7-0.7,0.9c-0.2,0.2-0.4,0.3-0.5,0.4C109,25.1,108.7,25.2,108.5,25.2z M106.3,23.9c0.2,0,0.4,0,0.6-0.1
					c0.2-0.1,0.4-0.2,0.6-0.3c0.2-0.1,0.3-0.3,0.5-0.5c0.1-0.2,0.2-0.4,0.2-0.7c0-0.2,0-0.4-0.1-0.7s-0.2-0.4-0.3-0.6
					c-0.1-0.1-0.3-0.1-0.4-0.1c-0.2,0-0.3-0.1-0.5-0.1c-0.4-0.1-0.7-0.1-1-0.1c-0.3,0-0.6,0-0.9,0.1v3.1c0.2,0,0.5,0.1,0.7,0.1
					C105.9,23.9,106.1,23.9,106.3,23.9z"/>
				<path fill="#DB5102" d="M119.9,30.7c-0.1,0-0.3,0-0.5,0c-0.2,0-0.3,0-0.5,0c-0.8,0-1.5-0.1-2.1-0.3c-0.6-0.2-1.2-0.5-1.6-0.9
					c-0.1,0-0.1-0.1-0.2-0.2c-0.1-0.1-0.2-0.2-0.2-0.3c-0.1-0.1-0.2-0.2-0.2-0.3c-0.1-0.1-0.1-0.2-0.2-0.3c-0.1-0.1-0.2-0.3-0.4-0.6
					c-0.1-0.3-0.2-0.6-0.3-0.9c-0.1-0.3-0.2-0.7-0.2-1c-0.1-0.4-0.1-0.7-0.1-1.1c0-0.5,0.1-1,0.2-1.5s0.3-1.1,0.5-1.6
					c0.2-0.5,0.5-1,0.9-1.4s0.8-0.7,1.3-1c0.5-0.3,1-0.5,1.5-0.6c0.5-0.1,1-0.2,1.6-0.2c0.5,0,1,0.1,1.5,0.1c0.5,0.1,1,0.2,1.4,0.5
					c1,0.6,1.8,1.4,2.2,2.4c0.4,1,0.6,2.1,0.6,3.4c0,0.4,0,0.7,0,1c0,0.3-0.1,0.7-0.1,1c-0.2,0.5-0.4,1-0.7,1.4
					c-0.2,0.4-0.5,0.8-1,1.1c-0.2,0.2-0.4,0.3-0.6,0.4c-0.2,0.1-0.5,0.3-0.7,0.4c-0.3,0.1-0.5,0.2-0.8,0.3S120.2,30.7,119.9,30.7z
					 M122,25.1c0-0.1,0-0.3,0-0.4c0-0.1,0-0.3,0-0.4c0-0.2,0-0.5-0.1-0.8c-0.1-0.3-0.2-0.6-0.3-0.8c-0.1-0.3-0.3-0.5-0.4-0.8
					s-0.3-0.4-0.5-0.6c-0.1-0.1-0.2-0.2-0.3-0.2s-0.3-0.2-0.4-0.2c-0.1-0.1-0.3-0.1-0.4-0.2c-0.1,0-0.3-0.1-0.4-0.1
					c-0.3,0-0.7,0.1-1,0.3c-0.3,0.2-0.6,0.5-0.9,0.9c-0.3,0.4-0.5,0.8-0.6,1.2c-0.2,0.5-0.2,0.9-0.2,1.4c0,0.6,0.1,1.1,0.2,1.6
					c0.1,0.5,0.3,0.9,0.5,1.3c0.2,0.4,0.5,0.7,0.9,0.9c0.4,0.2,0.8,0.3,1.3,0.3c0.3,0,0.6,0,0.9-0.1c0.3-0.1,0.6-0.2,0.9-0.4
					c0.3-0.4,0.5-0.8,0.7-1.3C121.9,26.2,121.9,25.7,122,25.1z"/>
				<path fill="#DB5102" d="M139.2,18.8c0,0.3,0,0.5,0.1,0.8c0,0.3,0.1,0.5,0.1,0.7c0,0.1,0,0.2,0,0.3s-0.1,0.1-0.2,0.1
					c-0.1,0-0.2,0-0.3,0c-0.1,0-0.2,0-0.3,0c-0.1,0-0.2,0-0.2,0.1c0,0-0.1,0.1-0.1,0.2c0,0.1,0,0.1,0,0.2c0,0.1,0,0.1,0,0.2
					c0,0.3,0,0.6,0,0.9c0,0.3,0,0.6,0,0.9c0,0.4,0,0.9-0.1,1.3c0,0.4-0.1,0.8-0.1,1.3c0,0.5,0,1,0,1.5c0,0.5,0,1,0,1.4
					c0,0.3,0,0.6,0,0.9c0,0.3,0,0.6-0.1,0.9c-0.1,0.1-0.2,0.2-0.4,0.2c-0.2,0-0.4,0.1-0.6,0.1c-0.2,0-0.4,0-0.7,0
					c-0.2,0-0.4,0-0.5,0c-0.9-1.1-1.8-2.2-2.7-3.4c-0.9-1.2-1.7-2.4-2.5-3.6c0,0.2-0.1,0.5-0.1,0.7c0,0.2,0,0.5,0,0.7
					c0,0.4,0,0.8,0,1.2s0,0.8,0,1.2c0,0.2,0,0.4,0,0.6c0,0.2,0,0.4,0,0.6c0.1,0,0.2,0,0.3,0c0.1,0,0.2,0,0.3,0c0.1,0,0.2,0,0.3,0
					s0.2,0,0.2,0c0.1,0,0.1,0.1,0.2,0.2c0,0.1,0,0.2,0,0.3c0,0.1,0,0.3,0,0.4c0,0.1,0,0.3,0,0.4c0,0.2,0,0.3,0,0.4
					c0,0.1-0.2,0.1-0.4,0.1c-0.2,0-0.3,0-0.5,0c-0.2,0-0.3,0-0.5,0c-0.2,0-0.3,0-0.5,0.1c-0.2,0-0.4,0.1-0.6,0.1c-0.3,0-0.5,0-0.8,0
					c-0.3,0-0.5,0-0.8,0c-0.2,0-0.3,0-0.5,0c-0.2,0-0.3,0-0.5,0.1c0-0.1,0-0.1,0-0.2s0-0.1,0-0.2c0-0.2,0-0.4,0-0.6
					c0-0.2,0-0.4,0-0.6c0-0.2,0-0.3,0.1-0.3s0.3,0,0.6,0c0.1,0,0.2,0,0.3,0c0.1,0,0.2,0,0.3,0.1c0-0.3,0.1-0.7,0.1-1
					c0-0.3,0-0.7,0-1c0-0.8,0-1.6-0.1-2.3c0-0.8-0.1-1.5-0.1-2.2c0-0.2,0-0.4,0-0.6s0-0.4,0-0.6c-0.1-0.1-0.1-0.1-0.2-0.1
					c-0.1,0-0.2,0-0.2,0c-0.1,0-0.2,0-0.4,0c-0.1,0-0.2,0-0.4,0c-0.2,0-0.3,0-0.4-0.1c0-0.2,0-0.4,0-0.6c0-0.2,0-0.4,0-0.6
					c0-0.2,0-0.3,0.1-0.5s0.1-0.3,0.3-0.3c0.2,0.1,0.3,0.1,0.5,0.1c0.2,0,0.4,0,0.6,0c0.3,0,0.5,0,0.8,0c0.3,0,0.5,0,0.8,0
					c0.2,0,0.3,0,0.5,0s0.3,0,0.4,0.1c0.9,1.2,1.7,2.3,2.6,3.4c0.9,1.1,1.8,2.3,2.7,3.4c0.1-0.4,0.1-0.8,0.1-1.2
					c0-0.5,0-1.1-0.1-1.7c-0.1-0.6-0.1-1.2-0.1-1.8v-0.2c-0.1,0-0.1,0-0.2,0c-0.1,0-0.2,0-0.2,0c-0.1,0-0.2,0-0.2,0
					c-0.1,0-0.1,0-0.2,0c-0.1,0-0.1-0.1-0.2-0.2c0-0.3,0.1-0.5,0.1-0.8c0-0.3,0-0.6,0-0.8c0-0.1,0.1-0.1,0.2-0.1c0.1,0,0.2,0,0.4,0
					h0.2c0.2,0,0.5,0,0.7,0c0.3,0,0.5,0,0.8,0c0.4,0,0.8,0,1.2,0C138.6,18.8,138.9,18.8,139.2,18.8z"/>
				<path fill="#DB5102" d="M152.1,22.3c-0.1,0.1-0.3,0.1-0.5,0.1s-0.4,0-0.7,0c-0.2,0-0.4,0-0.6,0c-0.2,0-0.3,0-0.4-0.1
					c0,0,0-0.1,0-0.2s0-0.2,0-0.4s0-0.3,0-0.4c0-0.2,0-0.3,0-0.4c-0.2,0-0.3,0-0.4,0c-0.1,0-0.2,0-0.3,0c-0.1,0-0.2,0-0.4,0
					s-0.3,0-0.6,0c0,0.6,0,1.1,0,1.6s0.1,1,0.1,1.6c0,0.4,0,0.7,0,1.1c0,0.4,0,0.7-0.1,1.1s0,0.7,0,1.1c0,0.4,0,0.7,0.1,1.1
					c0.2,0,0.3,0,0.5,0s0.3,0,0.5,0c0.1,0.1,0.1,0.3,0.1,0.4c0,0.1,0,0.3,0,0.5c0,0.2,0,0.4,0,0.5c0,0.2,0,0.4,0,0.6
					c-0.1,0.1-0.2,0.2-0.4,0.2c-0.2,0-0.4,0-0.6,0c-0.2,0-0.4,0-0.7,0s-0.5,0-0.8,0s-0.6,0-0.8,0c-0.3,0-0.5,0-0.7,0
					c-0.1,0-0.2,0-0.3,0c-0.1,0-0.2,0-0.4,0s-0.2,0-0.3,0c-0.1,0-0.2,0-0.2,0c-0.1,0-0.1,0-0.1-0.1c0,0,0-0.1,0-0.1c0,0,0-0.1,0-0.1
					c0,0,0-0.1,0-0.2c0.1-0.3,0.1-0.5,0.1-0.7c0-0.2,0-0.5-0.1-0.7c0-0.1,0.1-0.1,0.2-0.2c0.1,0,0.2-0.1,0.3-0.1c0.1,0,0.2,0,0.4,0
					c0.1,0,0.2,0,0.3,0c0.1-1.2,0.2-2.4,0.2-3.7s-0.1-2.5-0.2-3.9c-0.3-0.1-0.5-0.1-0.8-0.1c-0.3,0-0.5,0-0.9,0c0,0.2,0,0.3,0,0.4
					c0,0.1,0,0.2,0,0.3s0,0.2,0,0.3c0,0.1,0,0.2,0,0.4c-0.1,0-0.3,0.1-0.5,0.1c-0.2,0-0.4,0-0.6,0c-0.2,0-0.4,0-0.7,0
					s-0.4,0-0.6-0.1c0-0.5,0.1-1.1,0-1.7s-0.1-1.2-0.2-1.7c0.8-0.1,1.7-0.2,2.5-0.2c0.8,0,1.6,0,2.4,0c0.8,0,1.6,0,2.4,0.1
					c0.8,0,1.6,0,2.5,0c0.1,0,0.2,0,0.4,0s0.3,0,0.4,0s0.3,0,0.4,0.1c0.1,0,0.2,0.1,0.2,0.1c0,0.1,0.1,0.3,0.1,0.6
					c0,0.2,0,0.4,0,0.6c0,0.4,0,0.7,0.1,1.1S152.2,22,152.1,22.3z"/>
				<path fill="#DB5102" d="M166.5,18.8c0,0.1,0,0.2,0,0.4c0,0.2,0,0.4,0,0.6c0,0.2,0,0.4,0,0.6c0,0.2-0.1,0.3-0.1,0.3
					c0,0-0.1,0-0.3,0c-0.2,0-0.3,0-0.5,0c-0.1,0.4-0.1,0.7-0.1,1.1c0,0.3,0,0.7,0,1c0,0.3,0,0.7,0,1c0,0.3,0,0.7,0,1.1
					c0,0.2,0,0.3,0,0.5c0,0.1,0,0.3,0,0.5c0,0.5,0,0.9-0.1,1.3c-0.1,0.4-0.1,0.9-0.1,1.4c0.5,0.1,1,0.1,1.4,0.1c0.5,0,0.9,0,1.3,0
					c0-0.1,0.1-0.3,0.1-0.4c0-0.1,0-0.2,0-0.3s0-0.2,0-0.3c0-0.1,0-0.2,0.1-0.2c0.1-0.1,0.3-0.1,0.5-0.1c0.2,0,0.4,0,0.7,0
					s0.4,0,0.6,0.1c0.2,0,0.4,0.1,0.5,0.1c0,0.3,0,0.6,0,0.8c0,0.3,0,0.5,0,0.8c0,0.3,0,0.5,0,0.8c0,0.2,0,0.5-0.1,0.7
					c-0.2,0-0.5,0.1-0.8,0.1c-0.3,0-0.7,0-1,0c-0.4,0-0.7,0-1.1,0c-0.4,0-0.8,0-1.1,0c-0.7,0.1-1.4,0.1-2.1,0
					c-0.8,0-1.5-0.1-2.3-0.1c-0.1-0.1-0.2-0.1-0.2-0.2c-0.1-0.1-0.1-0.1-0.1-0.2c0-0.1,0-0.2,0-0.3c0-0.1,0.1-0.3,0-0.4
					c0-0.1,0-0.2,0-0.3c0-0.1,0-0.2,0-0.2c0-0.2,0.1-0.4,0.3-0.4c0.2,0,0.4,0,0.6,0c0-0.4,0-0.9,0-1.4s0-1,0-1.6c0-0.5,0-1,0-1.5
					s0-0.8,0.1-1.1c0-0.4,0-0.8,0-1.2s0-0.8-0.1-1.2c-0.1,0-0.1-0.1-0.2-0.1s-0.2,0-0.3,0c-0.1,0-0.2,0-0.3,0c-0.1,0-0.2,0-0.2-0.1
					c0-0.1,0-0.2,0-0.4s0-0.3,0-0.5c0-0.2,0-0.3,0-0.5c0-0.2,0-0.3,0-0.4c0.1-0.1,0.2-0.1,0.4-0.1c0.1,0,0.3,0,0.4,0
					c0.1,0,0.3,0,0.5,0.1s0.3,0,0.5,0c0.2,0,0.4,0,0.6,0c0.2,0,0.4,0,0.5,0c0.1,0,0.3,0,0.4,0c0.2,0,0.3,0,0.5,0c0.2,0,0.3,0,0.5,0
					C166.2,18.7,166.3,18.7,166.5,18.8z"/>
				<path fill="#DB5102" d="M182,22.3c-0.1,0.1-0.3,0.1-0.5,0.1s-0.4,0-0.7,0c-0.2,0-0.4,0-0.6,0c-0.2,0-0.3,0-0.4-0.1
					c0,0,0-0.1,0-0.2s0-0.2,0-0.4s0-0.3,0-0.4c0-0.2,0-0.3,0-0.4c-0.2,0-0.3,0-0.4,0c-0.1,0-0.2,0-0.3,0c-0.1,0-0.2,0-0.4,0
					s-0.3,0-0.6,0c0,0.6,0,1.1,0,1.6s0.1,1,0.1,1.6c0,0.4,0,0.7,0,1.1c0,0.4,0,0.7-0.1,1.1s0,0.7,0,1.1c0,0.4,0,0.7,0.1,1.1
					c0.2,0,0.3,0,0.5,0s0.3,0,0.5,0c0.1,0.1,0.1,0.3,0.1,0.4c0,0.1,0,0.3,0,0.5c0,0.2,0,0.4,0,0.5c0,0.2,0,0.4,0,0.6
					c-0.1,0.1-0.2,0.2-0.4,0.2c-0.2,0-0.4,0-0.6,0c-0.2,0-0.4,0-0.7,0s-0.5,0-0.8,0s-0.6,0-0.8,0c-0.3,0-0.5,0-0.7,0
					c-0.1,0-0.2,0-0.3,0c-0.1,0-0.2,0-0.4,0s-0.2,0-0.3,0c-0.1,0-0.2,0-0.2,0c-0.1,0-0.1,0-0.1-0.1c0,0,0-0.1,0-0.1c0,0,0-0.1,0-0.1
					c0,0,0-0.1,0-0.2c0.1-0.3,0.1-0.5,0.1-0.7c0-0.2,0-0.5-0.1-0.7c0-0.1,0.1-0.1,0.2-0.2c0.1,0,0.2-0.1,0.3-0.1c0.1,0,0.2,0,0.4,0
					c0.1,0,0.2,0,0.3,0c0.1-1.2,0.2-2.4,0.2-3.7s-0.1-2.5-0.2-3.9c-0.3-0.1-0.5-0.1-0.8-0.1c-0.3,0-0.5,0-0.9,0c0,0.2,0,0.3,0,0.4
					c0,0.1,0,0.2,0,0.3s0,0.2,0,0.3c0,0.1,0,0.2,0,0.4c-0.1,0-0.3,0.1-0.5,0.1c-0.2,0-0.4,0-0.6,0c-0.2,0-0.4,0-0.7,0
					s-0.4,0-0.6-0.1c0-0.5,0.1-1.1,0-1.7s-0.1-1.2-0.2-1.7c0.8-0.1,1.7-0.2,2.5-0.2c0.8,0,1.6,0,2.4,0c0.8,0,1.6,0,2.4,0.1
					c0.8,0,1.6,0,2.5,0c0.1,0,0.2,0,0.4,0s0.3,0,0.4,0s0.3,0,0.4,0.1c0.1,0,0.2,0.1,0.2,0.1c0,0.1,0.1,0.3,0.1,0.6
					c0,0.2,0,0.4,0,0.6c0,0.4,0,0.7,0.1,1.1S182.1,22,182,22.3z"/>
				<path fill="#DB5102" d="M183.9,30.6c0-0.1,0-0.2,0-0.3s0-0.3,0-0.5c0-0.2,0-0.4,0-0.6c0-0.2,0-0.4,0-0.5
					c0.1-0.2,0.3-0.3,0.5-0.3c0.2,0,0.5,0,0.7,0.1c0-0.6,0-1.2,0-1.8c0-0.6-0.1-1.2-0.1-1.9c0-0.6-0.1-1.3-0.1-1.9
					c0-0.7,0-1.4,0.1-2.1c-0.2,0-0.4,0-0.6,0s-0.4,0-0.5-0.1c0-0.1,0-0.3,0-0.5c0-0.2,0-0.4,0-0.6c0-0.1,0-0.2,0-0.4s0-0.2,0-0.4
					c0-0.1,0.1-0.1,0.1-0.1c0,0,0,0,0.1,0c0.1,0,0.2,0,0.4,0s0.3,0,0.4,0c0.5,0,1,0,1.4,0c0.4,0,0.9,0,1.3,0s0.9,0,1.3,0
					s0.9,0,1.4,0.1c0.6,0.1,1.1,0.2,1.7,0.3c0.6,0.1,1,0.3,1.4,0.6c0.4,0.3,0.8,0.6,1.1,1c0.3,0.4,0.6,0.8,0.8,1.3
					c0.1,0.3,0.2,0.6,0.2,1c0,0.4,0.1,0.8,0.1,1.2s0,0.8-0.1,1.2c0,0.4-0.1,0.7-0.2,1c-0.1,0.6-0.2,1.1-0.5,1.5s-0.5,0.8-0.7,1.2
					c-0.1,0.1-0.2,0.3-0.4,0.4s-0.3,0.3-0.5,0.4c-0.2,0.1-0.4,0.2-0.6,0.3s-0.4,0.2-0.6,0.2c-0.2,0.1-0.5,0.1-0.8,0.1
					c-0.3,0-0.6,0.1-0.8,0.1c-0.3,0.1-0.6,0.1-0.9,0.1c-0.3,0-0.6,0-0.9,0s-0.6,0-0.9-0.1c-0.3,0-0.6,0-0.9,0c-0.5,0-1,0.1-1.5,0.1
					C184.9,30.8,184.4,30.7,183.9,30.6z M191.2,28.1c0.3-0.2,0.6-0.4,0.7-0.8c0.2-0.4,0.3-0.8,0.4-1.2c0.1-0.4,0.1-0.8,0.1-1.2
					c0-0.4,0-0.8-0.1-1.2c0-0.4-0.1-0.7-0.2-1c-0.1-0.3-0.3-0.6-0.4-0.8c-0.3-0.2-0.6-0.4-0.9-0.6c-0.3-0.2-0.7-0.3-1-0.3
					c-0.4,0-0.7,0-1-0.1c-0.3,0-0.6,0-0.9,0.2c-0.1,0.7-0.1,1.3-0.1,2s0,1.3,0,2c0,0.7,0,1.3,0.1,1.9c0,0.6,0,1.2,0,1.8
					c0.6,0.1,1.2,0.1,1.7,0S190.7,28.4,191.2,28.1z"/>
				<path fill="#DB5102" d="M199.8,26.1c0.4,0,0.7,0,1,0.1s0.5,0.2,0.7,0.4c0.3,0.2,0.6,0.6,0.7,1s0.2,0.9,0.1,1.3
					c-0.1,0.4-0.2,0.8-0.5,1.2c-0.3,0.3-0.6,0.6-1.1,0.6c-0.2,0-0.4,0.1-0.6,0.1c-0.2,0-0.5,0-0.7,0c-0.2,0-0.5-0.1-0.7-0.1
					c-0.2-0.1-0.4-0.1-0.5-0.2c-0.3-0.3-0.5-0.7-0.5-1.2c0-0.5,0-0.9,0.2-1.3c0.2-0.4,0.4-0.8,0.8-1.1
					C199,26.4,199.3,26.2,199.8,26.1z"/>
			</g>
		</g>
		<g>
			<path fill="#F7E588" d="M36.9,18.4c0,0.2,0,0.3,0,0.5c0,0.2,0,0.3,0,0.5c0,0.2,0,0.5,0,0.7c0,0.2,0,0.5,0,0.7c0,0.1,0,0.2,0,0.3
				c0,0.1,0,0.2,0,0.2s-0.1,0.1-0.1,0.2s-0.1,0.1-0.2,0.1c-0.2,0-0.4,0-0.7,0c-0.3,0-0.5,0-0.7,0c-0.1,0-0.2,0-0.3,0
				c-0.1,0-0.2,0-0.3,0c-0.1,0-0.2-0.1-0.2-0.2c0-0.1,0-0.2,0-0.4c0-0.1,0-0.2,0-0.3c0-0.1,0-0.2,0-0.4v-0.2c-0.2,0-0.3,0-0.5,0
				c-0.2,0-0.4,0-0.6,0c-0.3,0-0.5,0-0.8,0S31.9,20,31.7,20c-0.2,0.1-0.4,0.2-0.5,0.3c-0.1,0.1-0.2,0.3-0.2,0.5
				c0,0.3,0.1,0.5,0.4,0.7c0.3,0.2,0.6,0.3,0.9,0.4c0.4,0.1,0.8,0.2,1.1,0.4c0.4,0.1,0.7,0.2,1,0.3c0.3,0.1,0.6,0.2,0.9,0.3
				c0.3,0.1,0.5,0.3,0.7,0.5c0.4,0.2,0.8,0.6,1.1,1c0.3,0.5,0.4,1,0.4,1.6c0,0.4-0.1,0.7-0.2,1c-0.1,0.3-0.3,0.6-0.4,0.9
				c-0.2,0.3-0.4,0.5-0.7,0.8s-0.5,0.4-0.8,0.6c-0.2,0.1-0.4,0.2-0.7,0.3c-0.3,0.1-0.5,0.1-0.8,0.2c-0.2,0.1-0.5,0.1-0.8,0.1
				s-0.6,0-0.9,0c-0.4,0-0.9,0-1.3-0.1s-0.8-0.1-1.2-0.2c-0.4-0.1-0.7-0.2-0.9-0.3c-0.3-0.1-0.5-0.2-0.6-0.3c0-0.4,0-0.7,0-1.1
				c0-0.4,0-0.7,0-1c0-0.2,0-0.3,0-0.4c0-0.1,0-0.3,0-0.4c0.2,0,0.6,0,0.9-0.1s0.7,0,1.1,0c0.2,0,0.4,0,0.5,0s0.2,0,0.2,0.1
				c0,0,0.1,0.1,0.1,0.1c0,0,0,0.1,0,0.2c0,0.1,0,0.2,0,0.4c0,0.1,0,0.3,0,0.4c0,0.2,0,0.3,0.1,0.5c0.4,0,0.8,0,1.1,0s0.6,0,0.9,0
				c0.3,0,0.5-0.1,0.8-0.2c0.2-0.1,0.4-0.2,0.6-0.4c0.1-0.1,0.1-0.2,0.2-0.3c0-0.1,0.1-0.2,0.1-0.3c0-0.2-0.1-0.4-0.3-0.6
				s-0.4-0.3-0.7-0.4c-0.3-0.1-0.6-0.2-0.9-0.3c-0.3-0.1-0.6-0.2-1-0.3c-0.3-0.1-0.6-0.2-0.9-0.3c-0.3-0.1-0.5-0.2-0.6-0.3
				c-0.1-0.1-0.2-0.1-0.4-0.2c-0.1-0.1-0.3-0.2-0.4-0.2s-0.3-0.2-0.4-0.3c-0.1-0.1-0.2-0.2-0.3-0.3c-0.1-0.1-0.2-0.2-0.3-0.4
				c-0.1-0.2-0.1-0.3-0.2-0.5c-0.1-0.2-0.1-0.4-0.1-0.6c0-0.2,0-0.4,0-0.5c0-0.4,0.1-0.7,0.1-0.9c0.1-0.3,0.2-0.5,0.3-0.7
				c0.1-0.2,0.3-0.4,0.4-0.6c0.2-0.2,0.4-0.4,0.7-0.6c0.2-0.1,0.4-0.3,0.7-0.4c0.3-0.1,0.5-0.2,0.8-0.2c0.3-0.1,0.6-0.1,0.8-0.1
				s0.5,0,0.8,0c0.3,0,0.6,0,1,0.1c0.4,0,0.8,0.1,1.2,0.2s0.8,0.1,1.1,0.2C36.4,18.2,36.7,18.3,36.9,18.4z"/>
			<path fill="#F7E588" d="M50.1,21.4c-0.1,0.1-0.3,0.1-0.5,0.1s-0.4,0-0.7,0c-0.2,0-0.4,0-0.6,0c-0.2,0-0.3,0-0.4-0.1
				c0,0,0-0.1,0-0.2s0-0.2,0-0.4s0-0.3,0-0.4c0-0.2,0-0.3,0-0.4c-0.2,0-0.3,0-0.4,0c-0.1,0-0.2,0-0.3,0c-0.1,0-0.2,0-0.4,0
				s-0.3,0-0.6,0c0,0.6,0,1.1,0,1.6s0.1,1,0.1,1.6c0,0.4,0,0.7,0,1.1c0,0.4,0,0.7-0.1,1.1s0,0.7,0,1.1c0,0.4,0,0.7,0.1,1.1
				c0.2,0,0.3,0,0.5,0s0.3,0,0.5,0c0.1,0.1,0.1,0.3,0.1,0.4c0,0.1,0,0.3,0,0.5c0,0.2,0,0.4,0,0.5c0,0.2,0,0.4,0,0.6
				c-0.1,0.1-0.2,0.2-0.4,0.2c-0.2,0-0.4,0-0.6,0c-0.2,0-0.4,0-0.7,0s-0.5,0-0.8,0s-0.6,0-0.8,0c-0.3,0-0.5,0-0.7,0
				c-0.1,0-0.2,0-0.3,0c-0.1,0-0.2,0-0.4,0s-0.2,0-0.3,0c-0.1,0-0.2,0-0.2,0c-0.1,0-0.1,0-0.1-0.1c0,0,0-0.1,0-0.1c0,0,0-0.1,0-0.1
				c0,0,0-0.1,0-0.2C42,29,42,28.7,42,28.5c0-0.2,0-0.5-0.1-0.7c0-0.1,0.1-0.1,0.2-0.2c0.1,0,0.2-0.1,0.3-0.1c0.1,0,0.2,0,0.4,0
				c0.1,0,0.2,0,0.3,0c0.1-1.2,0.2-2.4,0.2-3.7s-0.1-2.5-0.2-3.9c-0.3-0.1-0.5-0.1-0.8-0.1c-0.3,0-0.5,0-0.9,0c0,0.2,0,0.3,0,0.4
				c0,0.1,0,0.2,0,0.3s0,0.2,0,0.3c0,0.1,0,0.2,0,0.4c-0.1,0-0.3,0.1-0.5,0.1c-0.2,0-0.4,0-0.6,0c-0.2,0-0.4,0-0.7,0s-0.4,0-0.6-0.1
				c0-0.5,0.1-1.1,0-1.7S39,18.5,38.9,18c0.8-0.1,1.7-0.2,2.5-0.2c0.8,0,1.6,0,2.4,0c0.8,0,1.6,0,2.4,0.1c0.8,0,1.6,0,2.5,0
				c0.1,0,0.2,0,0.4,0s0.3,0,0.4,0s0.3,0,0.4,0.1C50,18,50,18,50,18.1c0,0.1,0.1,0.3,0.1,0.6c0,0.2,0,0.4,0,0.6c0,0.4,0,0.7,0.1,1.1
				S50.2,21.1,50.1,21.4z"/>
			<path fill="#F7E588" d="M58.4,29.8c-0.1,0-0.3,0-0.5,0c-0.2,0-0.3,0-0.5,0c-0.8,0-1.5-0.1-2.1-0.3c-0.6-0.2-1.2-0.5-1.6-0.9
				c-0.1,0-0.1-0.1-0.2-0.2c-0.1-0.1-0.2-0.2-0.2-0.3c-0.1-0.1-0.2-0.2-0.2-0.3c-0.1-0.1-0.1-0.2-0.2-0.3c-0.1-0.1-0.2-0.3-0.4-0.6
				c-0.1-0.3-0.2-0.6-0.3-0.9c-0.1-0.3-0.2-0.7-0.2-1c-0.1-0.4-0.1-0.7-0.1-1.1c0-0.5,0.1-1,0.2-1.5s0.3-1.1,0.5-1.6
				c0.2-0.5,0.5-1,0.9-1.4s0.8-0.7,1.3-1c0.5-0.3,1-0.5,1.5-0.6c0.5-0.1,1-0.2,1.6-0.2c0.5,0,1,0.1,1.5,0.1c0.5,0.1,1,0.2,1.4,0.5
				c1,0.6,1.8,1.4,2.2,2.4c0.4,1,0.6,2.1,0.6,3.4c0,0.4,0,0.7,0,1c0,0.3-0.1,0.7-0.1,1c-0.2,0.5-0.4,1-0.7,1.4
				c-0.2,0.4-0.5,0.8-1,1.1c-0.2,0.2-0.4,0.3-0.6,0.4c-0.2,0.1-0.5,0.3-0.7,0.4c-0.3,0.1-0.5,0.2-0.8,0.3S58.8,29.8,58.4,29.8z
				 M60.5,24.2c0-0.1,0-0.3,0-0.4c0-0.1,0-0.3,0-0.4c0-0.2,0-0.5-0.1-0.8c-0.1-0.3-0.2-0.6-0.3-0.8c-0.1-0.3-0.3-0.5-0.4-0.8
				s-0.3-0.4-0.5-0.6c-0.1-0.1-0.2-0.2-0.3-0.2S58.6,20,58.5,20c-0.1-0.1-0.3-0.1-0.4-0.2c-0.1,0-0.3-0.1-0.4-0.1
				c-0.3,0-0.7,0.1-1,0.3c-0.3,0.2-0.6,0.5-0.9,0.9c-0.3,0.4-0.5,0.8-0.6,1.2c-0.2,0.5-0.2,0.9-0.2,1.4c0,0.6,0.1,1.1,0.2,1.6
				c0.1,0.5,0.3,0.9,0.5,1.3c0.2,0.4,0.5,0.7,0.9,0.9c0.4,0.2,0.8,0.3,1.3,0.3c0.3,0,0.6,0,0.9-0.1c0.3-0.1,0.6-0.2,0.9-0.4
				c0.3-0.4,0.5-0.8,0.7-1.3C60.4,25.3,60.5,24.8,60.5,24.2z"/>
			<path fill="#F7E588" d="M72.6,24.3c0.2,0.1,0.3,0.3,0.5,0.4c0.1,0.2,0.2,0.3,0.3,0.4c0.2,0.2,0.3,0.5,0.4,0.7
				c0.1,0.3,0.2,0.5,0.4,0.8s0.3,0.4,0.5,0.6c0.2,0.2,0.4,0.3,0.8,0.3c0.2,0,0.4,0,0.6,0c0,0.2,0.1,0.3,0.1,0.5s0,0.4,0,0.5
				c0,0.2,0,0.3,0,0.5s-0.1,0.3-0.1,0.4c-0.3,0-0.6,0.1-0.9,0.1s-0.7,0-1.1,0s-0.7-0.1-1-0.2c-0.3-0.1-0.5-0.3-0.6-0.5
				c0,0,0-0.1-0.1-0.1c0-0.1-0.1-0.1-0.1-0.2s-0.1-0.2-0.1-0.2c0-0.1-0.1-0.1-0.1-0.2c-0.1-0.3-0.3-0.5-0.4-0.8
				c-0.1-0.3-0.3-0.6-0.5-0.8c-0.2-0.3-0.3-0.5-0.5-0.8s-0.3-0.5-0.5-0.7c-0.2,0-0.4,0-0.5,0c-0.2,0-0.3,0-0.4,0c0,0.2,0,0.4,0,0.6
				c0,0.2,0,0.3,0,0.5c0,0.2,0,0.3,0,0.5c0,0.2,0,0.4,0,0.6c0.1,0,0.2,0,0.3,0c0.1,0,0.2,0,0.2,0s0.2,0,0.2,0c0.1,0,0.2,0,0.2,0.1
				c0.1,0.1,0.2,0.2,0.2,0.3c0,0.1,0,0.3,0,0.5c0,0.2,0,0.4-0.1,0.6c0,0.2,0,0.4,0,0.5c-0.1,0.1-0.1,0.2-0.1,0.2
				c0,0-0.1,0.1-0.2,0.1c-0.1,0-0.1,0-0.2,0s-0.2,0-0.3,0c-0.2,0-0.3,0-0.6,0c-0.2,0-0.5,0-0.7,0c-0.3,0-0.5,0-0.8,0s-0.5,0-0.6,0
				c-0.1,0-0.2,0-0.4,0c-0.1,0-0.3,0-0.4,0s-0.3,0-0.4,0c-0.1,0-0.2,0-0.2,0c-0.1,0-0.1-0.1-0.1-0.2c0-0.1-0.1-0.2-0.1-0.3
				c0-0.1,0-0.2,0-0.4c0-0.1,0-0.3,0-0.5c0-0.2,0-0.3,0-0.5c0-0.2,0-0.3,0-0.5c0.1-0.1,0.1-0.1,0.2-0.1c0.1,0,0.2,0,0.2,0
				c0.1,0,0.2,0.1,0.3,0.1c0.1,0,0.2,0,0.3,0c0-0.7,0.1-1.3,0.1-1.9c0-0.6,0-1.2,0-1.8s0-1.2-0.1-1.9c0-0.6,0-1.3-0.1-2.1
				c-0.2,0-0.3-0.1-0.4,0c-0.1,0-0.2,0-0.4,0c-0.1,0-0.2,0-0.2,0c0,0-0.1,0-0.1-0.1c0-0.1,0-0.3,0-0.4c0-0.2,0-0.3,0-0.5
				c0-0.2,0-0.3,0-0.5c0-0.2,0-0.3,0-0.4c0.2-0.1,0.4-0.1,0.7-0.1c0.3,0,0.6,0,1,0c0.3,0,0.7,0,1,0c0.3,0,0.6,0,1,0
				c0.3,0,0.6,0,0.9,0c0.3,0,0.7,0,1,0c0.3,0,0.7,0,1,0.1c0.3,0,0.6,0.1,0.9,0.1c0.2,0,0.3,0.1,0.5,0.2c0.2,0.1,0.4,0.2,0.6,0.3
				c0.2,0.1,0.3,0.3,0.5,0.4c0.1,0.2,0.3,0.3,0.3,0.5c0.2,0.4,0.3,0.7,0.3,1.1c0.1,0.3,0.1,0.7,0,1.2c-0.1,0.4-0.2,0.8-0.4,1.2
				c-0.2,0.4-0.4,0.7-0.7,0.9c-0.2,0.2-0.4,0.3-0.5,0.4C73.1,24.2,72.9,24.3,72.6,24.3z M70.4,23c0.2,0,0.4,0,0.6-0.1
				c0.2-0.1,0.4-0.2,0.6-0.3c0.2-0.1,0.3-0.3,0.5-0.5c0.1-0.2,0.2-0.4,0.2-0.7c0-0.2,0-0.4-0.1-0.7s-0.2-0.4-0.3-0.6
				c-0.1-0.1-0.3-0.1-0.4-0.1c-0.2,0-0.3-0.1-0.5-0.1c-0.4-0.1-0.7-0.1-1-0.1c-0.3,0-0.6,0-0.9,0.1v3.1c0.2,0,0.5,0.1,0.7,0.1
				C70,23,70.2,23,70.4,23z"/>
			<path fill="#F7E588" d="M84.5,19.8c-0.2,0-0.4,0-0.7,0c-0.2,0-0.5,0-0.7,0s-0.5,0-0.7,0c-0.2,0-0.5,0-0.6,0.1c0,0.5,0,1,0,1.4
				s0,0.9,0,1.3c0.2,0,0.4,0.1,0.7,0c0.3,0,0.5,0,0.8,0c0.3,0,0.5,0,0.8,0c0.3,0,0.5,0,0.8,0.1c0.1,0.1,0.1,0.3,0.1,0.4
				c0,0.2,0,0.3,0,0.5s0,0.3,0,0.5c0,0.1,0,0.3,0.1,0.4c-0.1,0-0.1,0-0.1,0.1c-0.1,0.1-0.2,0.1-0.3,0.1s-0.2,0-0.3,0s-0.2,0-0.3,0
				s-0.2,0-0.3,0c-0.2,0-0.5,0-0.8,0.1c-0.3,0-0.6,0-0.9-0.1c-0.1,0.5-0.1,1,0,1.5s0.1,1,0,1.5c0.4,0.1,0.9,0.1,1.4,0.1
				c0.5,0,1,0,1.5-0.1c0-0.2,0-0.4,0-0.5c0-0.2-0.1-0.3-0.1-0.5c0-0.1,0.1-0.2,0.2-0.3c0.1-0.1,0.1-0.2,0.2-0.2c0.1,0,0.3,0,0.5,0
				c0.2,0,0.4,0,0.6,0c0.2,0,0.4,0,0.6,0c0.2,0,0.4,0.1,0.6,0.1c0,0.2,0,0.3,0,0.5c0,0.2,0,0.4-0.1,0.6c0,0.2,0,0.4-0.1,0.6
				c0,0.2,0,0.4,0,0.6c0,0.1,0,0.3,0.1,0.5s0,0.4,0,0.6c-0.1,0.1-0.2,0.1-0.4,0.1c-0.1,0-0.3,0-0.4,0c-0.2,0-0.5,0-0.7,0.1
				c-0.2,0-0.5,0.1-0.7,0.1c-0.1,0-0.3,0-0.5,0s-0.4,0-0.6,0s-0.4,0-0.6,0c-0.2,0-0.3,0-0.5,0c-0.8,0-1.5,0-2.3,0
				c-0.8,0-1.5,0-2.3,0c-0.2-0.1-0.3-0.2-0.3-0.4c0-0.2-0.1-0.3-0.1-0.5s0-0.4,0-0.6c0-0.2,0-0.4,0-0.7c0.1-0.1,0.3-0.1,0.4-0.1
				c0.1,0,0.3,0,0.5,0c0.1-1.2,0.1-2.5,0.1-3.7c0-1.2,0-2.5-0.1-3.9c-0.2,0-0.4,0-0.5,0c-0.2,0-0.3,0-0.4,0c0,0,0-0.1,0-0.2
				c0-0.1,0-0.3,0-0.5c0-0.2,0-0.3,0-0.5s-0.1-0.3-0.1-0.4c0.1,0,0.1-0.1,0.1-0.2s0-0.1,0-0.2c0.3-0.1,0.7-0.1,1.1-0.1
				c0.4,0,0.8,0,1.1,0c0.5,0,1-0.1,1.5,0c0.5,0,1,0,1.5,0c0.3,0,0.6,0,0.9,0.1s0.7,0,0.9,0c0.1,0,0.3,0,0.5,0c0.2,0,0.4,0,0.6-0.1
				c0.2,0,0.4,0,0.6,0c0.2,0,0.3,0.1,0.4,0.1c0.1,0.1,0.1,0.2,0.2,0.3c0,0.1,0,0.3,0,0.5c0,0.2-0.1,0.3-0.1,0.5
				c0,0.2-0.1,0.3-0.1,0.5c0,0.1,0,0.3,0,0.4c0,0.1,0,0.3,0.1,0.4c0,0.1,0,0.3,0,0.4c0,0.1,0,0.2-0.1,0.3c-0.2,0-0.4,0-0.7,0
				c-0.3,0-0.5,0-0.8,0.1c-0.2,0-0.5,0-0.6,0c-0.2,0-0.3-0.1-0.3-0.2c0-0.2,0-0.3,0-0.6S84.5,20,84.5,19.8z"/>
			<path fill="#F7E588" d="M98.3,17.9c0,0.3,0.1,0.5,0,0.8c0,0.2,0,0.5,0,0.8c0,0.2,0,0.4,0,0.7c0.1,0.2,0.1,0.4,0,0.6
				c0,0.1-0.1,0.2-0.2,0.2c-0.1,0-0.2,0.1-0.2,0.2c-0.3,0.1-0.7,0.1-1,0.2c-0.4,0-0.7-0.1-1-0.3c0-0.2,0-0.4,0-0.6
				c0-0.2,0-0.3,0-0.6c-0.3,0-0.5,0-0.7-0.1c-0.2,0-0.4,0-0.6,0s-0.4,0-0.5,0c-0.2,0-0.4,0-0.7,0.1c0,0.4,0,0.9,0,1.4s0,1-0.1,1.4
				c0.2,0,0.4,0,0.7,0s0.5,0,0.8,0s0.5,0,0.8,0s0.5,0.1,0.7,0.1c0,0.1,0,0.3,0,0.5c0,0.2,0,0.3,0,0.5s0,0.3,0,0.5
				c0,0.2-0.1,0.3-0.1,0.4c-0.1,0-0.2,0-0.3,0c-0.1,0-0.1-0.1-0.2-0.1c-0.2,0.1-0.3,0.1-0.5,0.2c-0.2,0-0.4,0-0.6,0
				c-0.2,0-0.4,0-0.6,0c-0.2,0-0.4,0-0.5,0c0,0.3,0,0.5,0,0.8c0,0.2,0,0.5,0,0.7c0,0.2,0,0.4,0,0.6c0,0.2,0,0.5,0,0.7
				c0.2,0.1,0.5,0.1,0.7,0.1c0.3,0,0.5,0,0.8,0C95,27.8,95,27.9,95,28s0,0.1-0.1,0.2c0,0.2,0,0.4,0,0.7c0,0.3,0,0.5,0,0.8
				c-0.1,0.1-0.2,0.1-0.3,0.1c-0.1,0-0.2,0-0.4,0c-0.3,0-0.7,0-1.1,0c-0.4,0-0.8,0-1.2,0.1c-0.3,0-0.6,0-0.9,0
				c-0.3-0.1-0.6-0.1-0.9,0c-0.1,0-0.1,0-0.2,0.1c-0.1,0-0.1,0-0.2,0.1c-0.1,0-0.1,0-0.2,0s-0.1,0-0.2-0.1c0-0.1,0-0.3,0-0.4
				c0-0.2,0-0.3,0-0.5c0-0.2,0-0.3,0-0.5c0-0.2,0-0.3-0.1-0.4c0.2,0,0.4,0,0.6,0c0.2,0,0.4,0,0.5,0c0.1-0.4,0.1-0.8,0-1.2
				c0-0.4,0-0.8,0-1.3c0-0.5,0-1.1,0.1-1.7c0-0.6,0-1.2,0-1.7c0-0.3,0-0.6,0-0.9s0-0.6,0-0.9c-0.1-0.1-0.2-0.1-0.3-0.1
				c-0.1,0-0.2,0-0.4,0s-0.2,0-0.4,0c-0.1,0-0.2,0-0.3-0.1c0-0.1,0-0.3,0-0.5s0-0.3,0-0.5c0-0.2,0-0.3,0-0.5c0-0.2,0-0.3,0-0.4
				c0.1-0.1,0.2-0.2,0.3-0.1s0.2,0,0.3,0.1c0.4,0,0.8,0,1.2,0c0.4,0,0.8,0,1.3,0s0.8,0,1.3,0s0.8,0,1.2,0c0.3,0,0.6,0,0.9,0
				c0.3,0,0.6,0,0.9,0c0.2,0,0.5,0,0.7,0c0.2,0,0.4,0.1,0.5,0.2C97.9,17.9,98.1,17.9,98.3,17.9z"/>
			<path fill="#F7E588" d="M107.6,24.3c0.2,0.1,0.3,0.3,0.5,0.4c0.1,0.2,0.2,0.3,0.3,0.4c0.2,0.2,0.3,0.5,0.4,0.7
				c0.1,0.3,0.2,0.5,0.4,0.8s0.3,0.4,0.5,0.6c0.2,0.2,0.4,0.3,0.8,0.3c0.2,0,0.4,0,0.6,0c0,0.2,0.1,0.3,0.1,0.5s0,0.4,0,0.5
				c0,0.2,0,0.3,0,0.5s-0.1,0.3-0.1,0.4c-0.3,0-0.6,0.1-0.9,0.1s-0.7,0-1.1,0s-0.7-0.1-1-0.2c-0.3-0.1-0.5-0.3-0.6-0.5
				c0,0,0-0.1-0.1-0.1c0-0.1-0.1-0.1-0.1-0.2s-0.1-0.2-0.1-0.2c0-0.1-0.1-0.1-0.1-0.2c-0.1-0.3-0.3-0.5-0.4-0.8
				c-0.1-0.3-0.3-0.6-0.5-0.8c-0.2-0.3-0.3-0.5-0.5-0.8s-0.3-0.5-0.5-0.7c-0.2,0-0.4,0-0.5,0c-0.2,0-0.3,0-0.4,0c0,0.2,0,0.4,0,0.6
				c0,0.2,0,0.3,0,0.5c0,0.2,0,0.3,0,0.5c0,0.2,0,0.4,0,0.6c0.1,0,0.2,0,0.3,0c0.1,0,0.2,0,0.2,0s0.2,0,0.2,0c0.1,0,0.2,0,0.2,0.1
				c0.1,0.1,0.2,0.2,0.2,0.3c0,0.1,0,0.3,0,0.5c0,0.2,0,0.4-0.1,0.6c0,0.2,0,0.4,0,0.5c-0.1,0.1-0.1,0.2-0.1,0.2
				c0,0-0.1,0.1-0.2,0.1c-0.1,0-0.1,0-0.2,0s-0.2,0-0.3,0c-0.2,0-0.3,0-0.6,0c-0.2,0-0.5,0-0.7,0c-0.3,0-0.5,0-0.8,0s-0.5,0-0.6,0
				c-0.1,0-0.2,0-0.4,0c-0.1,0-0.3,0-0.4,0s-0.3,0-0.4,0c-0.1,0-0.2,0-0.2,0c-0.1,0-0.1-0.1-0.1-0.2c0-0.1-0.1-0.2-0.1-0.3
				c0-0.1,0-0.2,0-0.4c0-0.1,0-0.3,0-0.5c0-0.2,0-0.3,0-0.5c0-0.2,0-0.3,0-0.5c0.1-0.1,0.1-0.1,0.2-0.1c0.1,0,0.2,0,0.2,0
				c0.1,0,0.2,0.1,0.3,0.1c0.1,0,0.2,0,0.3,0c0-0.7,0.1-1.3,0.1-1.9c0-0.6,0-1.2,0-1.8s0-1.2-0.1-1.9c0-0.6,0-1.3-0.1-2.1
				c-0.2,0-0.3-0.1-0.4,0c-0.1,0-0.2,0-0.4,0c-0.1,0-0.2,0-0.2,0c0,0-0.1,0-0.1-0.1c0-0.1,0-0.3,0-0.4c0-0.2,0-0.3,0-0.5
				c0-0.2,0-0.3,0-0.5c0-0.2,0-0.3,0-0.4c0.2-0.1,0.4-0.1,0.7-0.1c0.3,0,0.6,0,1,0c0.3,0,0.7,0,1,0c0.3,0,0.6,0,1,0
				c0.3,0,0.6,0,0.9,0c0.3,0,0.7,0,1,0c0.3,0,0.7,0,1,0.1c0.3,0,0.6,0.1,0.9,0.1c0.2,0,0.3,0.1,0.5,0.2c0.2,0.1,0.4,0.2,0.6,0.3
				c0.2,0.1,0.3,0.3,0.5,0.4c0.1,0.2,0.3,0.3,0.3,0.5c0.2,0.4,0.3,0.7,0.3,1.1c0.1,0.3,0.1,0.7,0,1.2c-0.1,0.4-0.2,0.8-0.4,1.2
				c-0.2,0.4-0.4,0.7-0.7,0.9c-0.2,0.2-0.4,0.3-0.5,0.4C108.1,24.2,107.8,24.3,107.6,24.3z M105.4,23c0.2,0,0.4,0,0.6-0.1
				c0.2-0.1,0.4-0.2,0.6-0.3c0.2-0.1,0.3-0.3,0.5-0.5c0.1-0.2,0.2-0.4,0.2-0.7c0-0.2,0-0.4-0.1-0.7s-0.2-0.4-0.3-0.6
				c-0.1-0.1-0.3-0.1-0.4-0.1c-0.2,0-0.3-0.1-0.5-0.1c-0.4-0.1-0.7-0.1-1-0.1c-0.3,0-0.6,0-0.9,0.1v3.1c0.2,0,0.5,0.1,0.7,0.1
				C105,23,105.2,23,105.4,23z"/>
			<path fill="#F7E588" d="M119,29.8c-0.1,0-0.3,0-0.5,0c-0.2,0-0.3,0-0.5,0c-0.8,0-1.5-0.1-2.1-0.3c-0.6-0.2-1.2-0.5-1.6-0.9
				c-0.1,0-0.1-0.1-0.2-0.2c-0.1-0.1-0.2-0.2-0.2-0.3c-0.1-0.1-0.2-0.2-0.2-0.3c-0.1-0.1-0.1-0.2-0.2-0.3c-0.1-0.1-0.2-0.3-0.4-0.6
				c-0.1-0.3-0.2-0.6-0.3-0.9c-0.1-0.3-0.2-0.7-0.2-1c-0.1-0.4-0.1-0.7-0.1-1.1c0-0.5,0.1-1,0.2-1.5s0.3-1.1,0.5-1.6
				c0.2-0.5,0.5-1,0.9-1.4s0.8-0.7,1.3-1c0.5-0.3,1-0.5,1.5-0.6c0.5-0.1,1-0.2,1.6-0.2c0.5,0,1,0.1,1.5,0.1c0.5,0.1,1,0.2,1.4,0.5
				c1,0.6,1.8,1.4,2.2,2.4c0.4,1,0.6,2.1,0.6,3.4c0,0.4,0,0.7,0,1c0,0.3-0.1,0.7-0.1,1c-0.2,0.5-0.4,1-0.7,1.4
				c-0.2,0.4-0.5,0.8-1,1.1c-0.2,0.2-0.4,0.3-0.6,0.4c-0.2,0.1-0.5,0.3-0.7,0.4c-0.3,0.1-0.5,0.2-0.8,0.3S119.3,29.8,119,29.8z
				 M121.1,24.2c0-0.1,0-0.3,0-0.4c0-0.1,0-0.3,0-0.4c0-0.2,0-0.5-0.1-0.8c-0.1-0.3-0.2-0.6-0.3-0.8c-0.1-0.3-0.3-0.5-0.4-0.8
				s-0.3-0.4-0.5-0.6c-0.1-0.1-0.2-0.2-0.3-0.2S119.2,20,119,20c-0.1-0.1-0.3-0.1-0.4-0.2c-0.1,0-0.3-0.1-0.4-0.1
				c-0.3,0-0.7,0.1-1,0.3c-0.3,0.2-0.6,0.5-0.9,0.9c-0.3,0.4-0.5,0.8-0.6,1.2c-0.2,0.5-0.2,0.9-0.2,1.4c0,0.6,0.1,1.1,0.2,1.6
				c0.1,0.5,0.3,0.9,0.5,1.3c0.2,0.4,0.5,0.7,0.9,0.9c0.4,0.2,0.8,0.3,1.3,0.3c0.3,0,0.6,0,0.9-0.1c0.3-0.1,0.6-0.2,0.9-0.4
				c0.3-0.4,0.5-0.8,0.7-1.3C121,25.3,121,24.8,121.1,24.2z"/>
			<path fill="#F7E588" d="M138.3,17.9c0,0.3,0,0.5,0.1,0.8c0,0.3,0.1,0.5,0.1,0.7c0,0.1,0,0.2,0,0.3s-0.1,0.1-0.2,0.1
				c-0.1,0-0.2,0-0.3,0c-0.1,0-0.2,0-0.3,0c-0.1,0-0.2,0-0.2,0.1c0,0-0.1,0.1-0.1,0.2c0,0.1,0,0.1,0,0.2c0,0.1,0,0.1,0,0.2
				c0,0.3,0,0.6,0,0.9c0,0.3,0,0.6,0,0.9c0,0.4,0,0.9-0.1,1.3c0,0.4-0.1,0.8-0.1,1.3c0,0.5,0,1,0,1.5c0,0.5,0,1,0,1.4
				c0,0.3,0,0.6,0,0.9c0,0.3,0,0.6-0.1,0.9c-0.1,0.1-0.2,0.2-0.4,0.2c-0.2,0-0.4,0.1-0.6,0.1c-0.2,0-0.4,0-0.7,0c-0.2,0-0.4,0-0.5,0
				c-0.9-1.1-1.8-2.2-2.7-3.4c-0.9-1.2-1.7-2.4-2.5-3.6c0,0.2-0.1,0.5-0.1,0.7c0,0.2,0,0.5,0,0.7c0,0.4,0,0.8,0,1.2s0,0.8,0,1.2
				c0,0.2,0,0.4,0,0.6c0,0.2,0,0.4,0,0.6c0.1,0,0.2,0,0.3,0c0.1,0,0.2,0,0.3,0c0.1,0,0.2,0,0.3,0s0.2,0,0.2,0c0.1,0,0.1,0.1,0.2,0.2
				c0,0.1,0,0.2,0,0.3c0,0.1,0,0.3,0,0.4c0,0.1,0,0.3,0,0.4c0,0.2,0,0.3,0,0.4c0,0.1-0.2,0.1-0.4,0.1c-0.2,0-0.3,0-0.5,0
				c-0.2,0-0.3,0-0.5,0c-0.2,0-0.3,0-0.5,0.1c-0.2,0-0.4,0.1-0.6,0.1c-0.3,0-0.5,0-0.8,0c-0.3,0-0.5,0-0.8,0c-0.2,0-0.3,0-0.5,0
				c-0.2,0-0.3,0-0.5,0.1c0-0.1,0-0.1,0-0.2s0-0.1,0-0.2c0-0.2,0-0.4,0-0.6c0-0.2,0-0.4,0-0.6c0-0.2,0-0.3,0.1-0.3s0.3,0,0.6,0
				c0.1,0,0.2,0,0.3,0c0.1,0,0.2,0,0.3,0.1c0-0.3,0.1-0.7,0.1-1c0-0.3,0-0.7,0-1c0-0.8,0-1.6-0.1-2.3c0-0.8-0.1-1.5-0.1-2.2
				c0-0.2,0-0.4,0-0.6s0-0.4,0-0.6c-0.1-0.1-0.1-0.1-0.2-0.1c-0.1,0-0.2,0-0.2,0c-0.1,0-0.2,0-0.4,0c-0.1,0-0.2,0-0.4,0
				c-0.2,0-0.3,0-0.4-0.1c0-0.2,0-0.4,0-0.6c0-0.2,0-0.4,0-0.6c0-0.2,0-0.3,0.1-0.5s0.1-0.3,0.3-0.3c0.2,0.1,0.3,0.1,0.5,0.1
				c0.2,0,0.4,0,0.6,0c0.3,0,0.5,0,0.8,0c0.3,0,0.5,0,0.8,0c0.2,0,0.3,0,0.5,0s0.3,0,0.4,0.1c0.9,1.2,1.7,2.3,2.6,3.4
				c0.9,1.1,1.8,2.3,2.7,3.4c0.1-0.4,0.1-0.8,0.1-1.2c0-0.5,0-1.1-0.1-1.7c-0.1-0.6-0.1-1.2-0.1-1.8v-0.2c-0.1,0-0.1,0-0.2,0
				c-0.1,0-0.2,0-0.2,0c-0.1,0-0.2,0-0.2,0c-0.1,0-0.1,0-0.2,0c-0.1,0-0.1-0.1-0.2-0.2c0-0.3,0.1-0.5,0.1-0.8c0-0.3,0-0.6,0-0.8
				c0-0.1,0.1-0.1,0.2-0.1c0.1,0,0.2,0,0.4,0h0.2c0.2,0,0.5,0,0.7,0c0.3,0,0.5,0,0.8,0c0.4,0,0.8,0,1.2,0
				C137.7,17.9,138,17.9,138.3,17.9z"/>
			<path fill="#F7E588" d="M151.2,21.4c-0.1,0.1-0.3,0.1-0.5,0.1s-0.4,0-0.7,0c-0.2,0-0.4,0-0.6,0c-0.2,0-0.3,0-0.4-0.1
				c0,0,0-0.1,0-0.2s0-0.2,0-0.4s0-0.3,0-0.4c0-0.2,0-0.3,0-0.4c-0.2,0-0.3,0-0.4,0c-0.1,0-0.2,0-0.3,0c-0.1,0-0.2,0-0.4,0
				s-0.3,0-0.6,0c0,0.6,0,1.1,0,1.6s0.1,1,0.1,1.6c0,0.4,0,0.7,0,1.1c0,0.4,0,0.7-0.1,1.1s0,0.7,0,1.1c0,0.4,0,0.7,0.1,1.1
				c0.2,0,0.3,0,0.5,0s0.3,0,0.5,0c0.1,0.1,0.1,0.3,0.1,0.4c0,0.1,0,0.3,0,0.5c0,0.2,0,0.4,0,0.5c0,0.2,0,0.4,0,0.6
				c-0.1,0.1-0.2,0.2-0.4,0.2c-0.2,0-0.4,0-0.6,0c-0.2,0-0.4,0-0.7,0s-0.5,0-0.8,0s-0.6,0-0.8,0c-0.3,0-0.5,0-0.7,0
				c-0.1,0-0.2,0-0.3,0c-0.1,0-0.2,0-0.4,0s-0.2,0-0.3,0c-0.1,0-0.2,0-0.2,0c-0.1,0-0.1,0-0.1-0.1c0,0,0-0.1,0-0.1c0,0,0-0.1,0-0.1
				c0,0,0-0.1,0-0.2c0.1-0.3,0.1-0.5,0.1-0.7c0-0.2,0-0.5-0.1-0.7c0-0.1,0.1-0.1,0.2-0.2c0.1,0,0.2-0.1,0.3-0.1c0.1,0,0.2,0,0.4,0
				c0.1,0,0.2,0,0.3,0c0.1-1.2,0.2-2.4,0.2-3.7s-0.1-2.5-0.2-3.9c-0.3-0.1-0.5-0.1-0.8-0.1c-0.3,0-0.5,0-0.9,0c0,0.2,0,0.3,0,0.4
				c0,0.1,0,0.2,0,0.3s0,0.2,0,0.3c0,0.1,0,0.2,0,0.4c-0.1,0-0.3,0.1-0.5,0.1c-0.2,0-0.4,0-0.6,0c-0.2,0-0.4,0-0.7,0s-0.4,0-0.6-0.1
				c0-0.5,0.1-1.1,0-1.7s-0.1-1.2-0.2-1.7c0.8-0.1,1.7-0.2,2.5-0.2c0.8,0,1.6,0,2.4,0c0.8,0,1.6,0,2.4,0.1c0.8,0,1.6,0,2.5,0
				c0.1,0,0.2,0,0.4,0s0.3,0,0.4,0s0.3,0,0.4,0.1c0.1,0,0.2,0.1,0.2,0.1c0,0.1,0.1,0.3,0.1,0.6c0,0.2,0,0.4,0,0.6
				c0,0.4,0,0.7,0.1,1.1S151.3,21.1,151.2,21.4z"/>
			<path fill="#F7E588" d="M165.6,17.9c0,0.1,0,0.2,0,0.4c0,0.2,0,0.4,0,0.6c0,0.2,0,0.4,0,0.6c0,0.2-0.1,0.3-0.1,0.3
				c0,0-0.1,0-0.3,0c-0.2,0-0.3,0-0.5,0c-0.1,0.4-0.1,0.7-0.1,1.1c0,0.3,0,0.7,0,1c0,0.3,0,0.7,0,1c0,0.3,0,0.7,0,1.1
				c0,0.2,0,0.3,0,0.5c0,0.1,0,0.3,0,0.5c0,0.5,0,0.9-0.1,1.3c-0.1,0.4-0.1,0.9-0.1,1.4c0.5,0.1,1,0.1,1.4,0.1c0.5,0,0.9,0,1.3,0
				c0-0.1,0.1-0.3,0.1-0.4c0-0.1,0-0.2,0-0.3s0-0.2,0-0.3c0-0.1,0-0.2,0.1-0.2c0.1-0.1,0.3-0.1,0.5-0.1c0.2,0,0.4,0,0.7,0
				s0.4,0,0.6,0.1c0.2,0,0.4,0.1,0.5,0.1c0,0.3,0,0.6,0,0.8c0,0.3,0,0.5,0,0.8c0,0.3,0,0.5,0,0.8c0,0.2,0,0.5-0.1,0.7
				c-0.2,0-0.5,0.1-0.8,0.1c-0.3,0-0.7,0-1,0c-0.4,0-0.7,0-1.1,0c-0.4,0-0.8,0-1.1,0c-0.7,0.1-1.4,0.1-2.1,0c-0.8,0-1.5-0.1-2.3-0.1
				c-0.1-0.1-0.2-0.1-0.2-0.2c-0.1-0.1-0.1-0.1-0.1-0.2c0-0.1,0-0.2,0-0.3c0-0.1,0.1-0.3,0-0.4c0-0.1,0-0.2,0-0.3c0-0.1,0-0.2,0-0.2
				c0-0.2,0.1-0.4,0.3-0.4c0.2,0,0.4,0,0.6,0c0-0.4,0-0.9,0-1.4s0-1,0-1.6c0-0.5,0-1,0-1.5s0-0.8,0.1-1.1c0-0.4,0-0.8,0-1.2
				s0-0.8-0.1-1.2c-0.1,0-0.1-0.1-0.2-0.1s-0.2,0-0.3,0c-0.1,0-0.2,0-0.3,0c-0.1,0-0.2,0-0.2-0.1c0-0.1,0-0.2,0-0.4s0-0.3,0-0.5
				c0-0.2,0-0.3,0-0.5c0-0.2,0-0.3,0-0.4c0.1-0.1,0.2-0.1,0.4-0.1c0.1,0,0.3,0,0.4,0c0.1,0,0.3,0,0.5,0.1s0.3,0,0.5,0
				c0.2,0,0.4,0,0.6,0c0.2,0,0.4,0,0.5,0c0.1,0,0.3,0,0.4,0c0.2,0,0.3,0,0.5,0c0.2,0,0.3,0,0.5,0C165.3,17.8,165.4,17.8,165.6,17.9z
				"/>
			<path fill="#F7E588" d="M181.1,21.4c-0.1,0.1-0.3,0.1-0.5,0.1s-0.4,0-0.7,0c-0.2,0-0.4,0-0.6,0c-0.2,0-0.3,0-0.4-0.1
				c0,0,0-0.1,0-0.2s0-0.2,0-0.4s0-0.3,0-0.4c0-0.2,0-0.3,0-0.4c-0.2,0-0.3,0-0.4,0c-0.1,0-0.2,0-0.3,0c-0.1,0-0.2,0-0.4,0
				s-0.3,0-0.6,0c0,0.6,0,1.1,0,1.6s0.1,1,0.1,1.6c0,0.4,0,0.7,0,1.1c0,0.4,0,0.7-0.1,1.1s0,0.7,0,1.1c0,0.4,0,0.7,0.1,1.1
				c0.2,0,0.3,0,0.5,0s0.3,0,0.5,0c0.1,0.1,0.1,0.3,0.1,0.4c0,0.1,0,0.3,0,0.5c0,0.2,0,0.4,0,0.5c0,0.2,0,0.4,0,0.6
				c-0.1,0.1-0.2,0.2-0.4,0.2c-0.2,0-0.4,0-0.6,0c-0.2,0-0.4,0-0.7,0s-0.5,0-0.8,0s-0.6,0-0.8,0c-0.3,0-0.5,0-0.7,0
				c-0.1,0-0.2,0-0.3,0c-0.1,0-0.2,0-0.4,0s-0.2,0-0.3,0c-0.1,0-0.2,0-0.2,0c-0.1,0-0.1,0-0.1-0.1c0,0,0-0.1,0-0.1c0,0,0-0.1,0-0.1
				c0,0,0-0.1,0-0.2c0.1-0.3,0.1-0.5,0.1-0.7c0-0.2,0-0.5-0.1-0.7c0-0.1,0.1-0.1,0.2-0.2c0.1,0,0.2-0.1,0.3-0.1c0.1,0,0.2,0,0.4,0
				c0.1,0,0.2,0,0.3,0c0.1-1.2,0.2-2.4,0.2-3.7s-0.1-2.5-0.2-3.9c-0.3-0.1-0.5-0.1-0.8-0.1c-0.3,0-0.5,0-0.9,0c0,0.2,0,0.3,0,0.4
				c0,0.1,0,0.2,0,0.3s0,0.2,0,0.3c0,0.1,0,0.2,0,0.4c-0.1,0-0.3,0.1-0.5,0.1c-0.2,0-0.4,0-0.6,0c-0.2,0-0.4,0-0.7,0s-0.4,0-0.6-0.1
				c0-0.5,0.1-1.1,0-1.7s-0.1-1.2-0.2-1.7c0.8-0.1,1.7-0.2,2.5-0.2c0.8,0,1.6,0,2.4,0c0.8,0,1.6,0,2.4,0.1c0.8,0,1.6,0,2.5,0
				c0.1,0,0.2,0,0.4,0s0.3,0,0.4,0s0.3,0,0.4,0.1c0.1,0,0.2,0.1,0.2,0.1c0,0.1,0.1,0.3,0.1,0.6c0,0.2,0,0.4,0,0.6
				c0,0.4,0,0.7,0.1,1.1S181.2,21.1,181.1,21.4z"/>
			<path fill="#F7E588" d="M183,29.7c0-0.1,0-0.2,0-0.3s0-0.3,0-0.5c0-0.2,0-0.4,0-0.6c0-0.2,0-0.4,0-0.5c0.1-0.2,0.3-0.3,0.5-0.3
				c0.2,0,0.5,0,0.7,0.1c0-0.6,0-1.2,0-1.8c0-0.6-0.1-1.2-0.1-1.9c0-0.6-0.1-1.3-0.1-1.9c0-0.7,0-1.4,0.1-2.1c-0.2,0-0.4,0-0.6,0
				s-0.4,0-0.5-0.1c0-0.1,0-0.3,0-0.5c0-0.2,0-0.4,0-0.6c0-0.1,0-0.2,0-0.4s0-0.2,0-0.4C183,18,183,18,183,18c0,0,0,0,0.1,0
				c0.1,0,0.2,0,0.4,0s0.3,0,0.4,0c0.5,0,1,0,1.4,0c0.4,0,0.9,0,1.3,0s0.9,0,1.3,0s0.9,0,1.4,0.1c0.6,0.1,1.1,0.2,1.7,0.3
				c0.6,0.1,1,0.3,1.4,0.6c0.4,0.3,0.8,0.6,1.1,1c0.3,0.4,0.6,0.8,0.8,1.3c0.1,0.3,0.2,0.6,0.2,1c0,0.4,0.1,0.8,0.1,1.2
				s0,0.8-0.1,1.2c0,0.4-0.1,0.7-0.2,1c-0.1,0.6-0.2,1.1-0.5,1.5s-0.5,0.8-0.7,1.2c-0.1,0.1-0.2,0.3-0.4,0.4s-0.3,0.3-0.5,0.4
				c-0.2,0.1-0.4,0.2-0.6,0.3s-0.4,0.2-0.6,0.2c-0.2,0.1-0.5,0.1-0.8,0.1c-0.3,0-0.6,0.1-0.8,0.1c-0.3,0.1-0.6,0.1-0.9,0.1
				c-0.3,0-0.6,0-0.9,0s-0.6,0-0.9-0.1c-0.3,0-0.6,0-0.9,0c-0.5,0-1,0.1-1.5,0.1C184,29.9,183.5,29.8,183,29.7z M190.3,27.2
				c0.3-0.2,0.6-0.4,0.7-0.8c0.2-0.4,0.3-0.8,0.4-1.2c0.1-0.4,0.1-0.8,0.1-1.2c0-0.4,0-0.8-0.1-1.2c0-0.4-0.1-0.7-0.2-1
				c-0.1-0.3-0.3-0.6-0.4-0.8c-0.3-0.2-0.6-0.4-0.9-0.6c-0.3-0.2-0.7-0.3-1-0.3c-0.4,0-0.7,0-1-0.1c-0.3,0-0.6,0-0.9,0.2
				c-0.1,0.7-0.1,1.3-0.1,2s0,1.3,0,2c0,0.7,0,1.3,0.1,1.9c0,0.6,0,1.2,0,1.8c0.6,0.1,1.2,0.1,1.7,0S189.8,27.5,190.3,27.2z"/>
			<path fill="#F7E588" d="M198.9,25.2c0.4,0,0.7,0,1,0.1s0.5,0.2,0.7,0.4c0.3,0.2,0.6,0.6,0.7,1s0.2,0.9,0.1,1.3
				c-0.1,0.4-0.2,0.8-0.5,1.2c-0.3,0.3-0.6,0.6-1.1,0.6c-0.2,0-0.4,0.1-0.6,0.1c-0.2,0-0.5,0-0.7,0c-0.2,0-0.5-0.1-0.7-0.1
				c-0.2-0.1-0.4-0.1-0.5-0.2c-0.3-0.3-0.5-0.7-0.5-1.2c0-0.5,0-0.9,0.2-1.3c0.2-0.4,0.4-0.8,0.8-1.1
				C198.1,25.5,198.4,25.3,198.9,25.2z"/>
		</g>
		
			<rect x="22" y="8.5" fill="none" stroke="#F7E588" stroke-width="1.7952" stroke-linecap="round" stroke-linejoin="round" stroke-miterlimit="10" width="183.6" height="30.1"/>
	</g>
	<g>
		<polyline fill="#333333" points="91.3,167.2 91.3,84.2 136.3,84.2 136.3,167.2 		"/>
		<ellipse fill="#E6C634" cx="126.2" cy="129.9" rx="4.2" ry="4.3"/>
	</g>
	<g>
		<g>
			<polygon fill="#C69C6D" points="0,79.6 13.5,46.6 214.2,46.6 227.6,79.6 			"/>
			<path fill="#A67C52" d="M216.1,79.6h-4.7h-7.7H199h-7.7h-4.7h-7.7h-4.7h-7.7h-4.7H154h-4.7h-7.7h-4.7h-7.7h-4.7h-7.7h-4.7h-7.7
				h-4.7h-7.7h-4.7h-7.7h-4.7h-7.7h-4.7h-7.7H50h-7.7h-4.7h-7.7h-4.7h-7.7h-4.7H0.3c0,5.2,3.8,9.4,8.6,9.4c2.4,0,4.7-1.1,6.2-3
				c1.6,1.8,3.8,3,6.2,3s4.7-1.1,6.2-3c1.6,1.8,3.8,3,6.2,3s4.7-1.1,6.2-3c1.6,1.8,3.8,3,6.2,3c2.4,0,4.7-1.1,6.2-3
				c1.6,1.8,3.8,3,6.2,3c2.4,0,4.7-1.1,6.2-3c1.6,1.8,3.8,3,6.2,3s4.7-1.1,6.2-3c1.6,1.8,3.8,3,6.2,3c2.4,0,4.7-1.1,6.2-3
				c1.6,1.8,3.8,3,6.2,3s4.7-1.1,6.2-3c1.6,1.8,3.8,3,6.2,3c2.4,0,4.7-1.1,6.2-3c1.6,1.8,3.8,3,6.2,3c2.4,0,4.7-1.1,6.2-3
				c1.6,1.8,3.8,3,6.2,3c2.4,0,4.7-1.1,6.2-3c1.6,1.8,3.8,3,6.2,3c2.4,0,4.7-1.1,6.2-3c1.6,1.8,3.8,3,6.2,3s4.7-1.1,6.2-3
				c1.6,1.8,3.8,3,6.2,3c2.4,0,4.7-1.1,6.2-3c1.6,1.8,3.8,3,6.2,3c2.4,0,4.7-1.1,6.2-3c1.6,1.8,3.8,3,6.2,3c2.4,0,4.7-1.1,6.2-3
				c1.6,1.8,3.8,3,6.2,3s4.7-1.1,6.2-3c1.6,1.8,3.8,3,6.2,3c4.7,0,7.7-4.2,7.7-9.4H216.1z"/>
		</g>
		
			<polygon opacity="0.4" fill="none" stroke="#F7E588" stroke-width="1.7946" stroke-linecap="round" stroke-linejoin="round" stroke-miterlimit="10" points="
			8.1,73.1 218.7,73.1 210.2,50.2 17.3,50.2 		"/>
	</g>
	<g opacity="0.15">
		<rect x="42" y="121.5" fill="#333333" width="12.2" height="20.4"/>
		
			<rect x="59.3" y="121.5" transform="matrix(0.8313 -0.5558 0.5558 0.8313 -62.6699 56.891)" fill="#333333" width="6.1" height="20.4"/>
		
			<rect x="67.5" y="121.5" transform="matrix(0.8313 -0.5558 0.5558 0.8313 -61.2853 61.4531)" fill="#333333" width="6.1" height="20.4"/>
		<circle fill="#333333" cx="154" cy="134.3" r="7.6"/>
		<g>
			<path fill="#333333" d="M190.8,113.5c0.6-0.6,1.4-0.7,2-0.4l0.1-0.1c0.4-0.9,1-1.9,2-2.8c0.9-0.9,1.9-1.6,2.8-2
				c0,0,0.2-0.2,0.4-0.4c0.2-0.2,0.1-0.7-0.3-1.1l-2.3-2.3c-0.4-0.4-0.9-0.5-1.1-0.3l-0.4,0.4c-0.4,0.9-1,1.9-2,2.9
				c-0.9,0.9-1.9,1.6-2.9,2l-0.1,0.1c0.4,0.6,0.3,1.5-0.3,2.2l-6.1,6.1c-0.3,0-0.7-0.2-1.3-1.1c-1-1.6-3.4-2.5-5.3,0.9
				c-2,3.4-0.3,4-5.9,4.6l0,0c-2,0.1-3.8,0.9-5.2,2.3c-3.4,3.4-3,9.2,0.9,13.1c3.8,3.8,9.7,4.2,13.1,0.9c0.1-0.1,0.1-0.1,0.2-0.2
				l0,0c0,0,0,0,0.1-0.1c0.3-0.3,0.5-0.6,0.7-0.9c0.9-1.2,2.1-3.4,1.8-5.8c-0.4-3.5,2.9-3.3,4.2-4.2c1.4-0.9,1.8-1.6,1.9-2.5
				c0,0-1.6,1.1-3.1-0.3c-1.2-1.2-0.7-3.2-0.1-4.3L190.8,113.5z"/>
		</g>
	</g>
</g>
</svg>
