<?xml version="1.0" encoding="utf-8"?>
<!-- Generator: Adobe Illustrator 18.1.1, SVG Export Plug-In . SVG Version: 6.00 Build 0)  -->
<!DOCTYPE svg PUBLIC "-//W3C//DTD SVG 1.1//EN" "http://www.w3.org/Graphics/SVG/1.1/DTD/svg11.dtd">
<svg version="1.1" id="Layer_1" xmlns="http://www.w3.org/2000/svg" xmlns:xlink="http://www.w3.org/1999/xlink" x="0px" y="0px"
	 viewBox="0 0 874.5 580.5" enable-background="new 0 0 874.5 580.5" xml:space="preserve">
<g id="New_Symbol_1">
</g>
<g>
	<g>
		<path fill="none" stroke="#FFFFFF" stroke-width="1.2581" stroke-miterlimit="10" d="M407.7,404.1l-8.3-32.7
			c-0.8-3.1-0.3-5.7,1-5.8l8.9-0.3c1.1,0,2.5,2.2,3.2,4.9l7.3,28.6c0.7,2.7,0.5,5.4-0.5,5.8l-7.9,4
			C410.1,409.3,408.5,407.3,407.7,404.1z"/>
		<polyline fill="none" stroke="#FFFFFF" stroke-width="1.2581" stroke-miterlimit="10" points="411.3,408.7 406.7,409.9 405,407 
			395.5,369.8 395.8,366.8 400.4,365.7 		"/>
		<polyline fill="none" stroke="#FFFFFF" stroke-width="1.2581" stroke-miterlimit="10" points="414.7,379.3 417.6,378.6 
			418.7,373.9 423,390.7 419.7,386.7 416.8,387.4 		"/>
	</g>
	<path fill="#FFFFFF" d="M418.3,374.2c1,0,1.6-1,2-2.1c0.2-0.4,0.5-1.7,1.4-1.2c0.4,0.2,0.7,0.4,1.1,0.5c0.7,0.2,1.3-0.1,1.9-0.4
		l12.7,28.1l11-4.9L433,360.1l-11,4.9l2.5,5.4c-0.1,0.1-0.3,0.1-0.4,0.2c-0.9,0.5-1.5,0-2.2-0.4c-0.4-0.2-0.7-0.2-1.1,0
		c-1.2,0.7-0.9,3.7-2.6,3.3 M432.3,361.9l14.2,31.6l-8.4,3.8l-14.2-31.6L432.3,361.9z M439,392.5l0.8,1.7l-1.7,0.8l-0.8-1.7
		L439,392.5z M437.8,389.7l0.8,1.7l-1.7,0.8l-0.8-1.7L437.8,389.7z M436.5,386.9l0.8,1.7l-1.7,0.8l-0.8-1.7L436.5,386.9z
		 M435.2,384.1l0.8,1.7l-1.7,0.8l-0.8-1.7L435.2,384.1z M433.9,381.2l0.8,1.7l-1.7,0.8l-0.8-1.7L433.9,381.2z M432.7,378.4l0.8,1.7
		l-1.7,0.8l-0.8-1.7L432.7,378.4z M431.4,375.5l0.8,1.7l-1.7,0.8l-0.8-1.7L431.4,375.5z M430.1,372.8l0.8,1.7l-1.7,0.8l-0.8-1.7
		L430.1,372.8z M442.1,392.5l0.8,1.7l-1.7,0.8l-0.8-1.7L442.1,392.5z M440.8,389.8l0.8,1.7l-1.7,0.8l-0.8-1.7L440.8,389.8z
		 M439.5,386.9l0.8,1.7l-1.7,0.8l-0.8-1.7L439.5,386.9z M438.3,384.2l0.8,1.7l-1.7,0.8l-0.8-1.7L438.3,384.2z M436.9,381.2l0.8,1.7
		l-1.7,0.8l-0.8-1.7L436.9,381.2z M435.7,378.5l0.8,1.7l-1.7,0.8l-0.8-1.7L435.7,378.5z M434.4,375.6l0.8,1.7l-1.7,0.8l-0.8-1.7
		L434.4,375.6z M433.2,372.8l0.8,1.7l-1.7,0.8l-0.8-1.7L433.2,372.8z M430.3,366.6l0.8,1.7l-1.7,0.8l-0.8-1.7L430.3,366.6z
		 M431,366.5l-0.8-1.7l1.7-0.8l0.8,1.7L431,366.5z M432.4,369.5l-0.8-1.7l1.7-0.8l0.8,1.7L432.4,369.5z M443.5,393.3l-0.8-1.7
		l1.7-0.8l0.8,1.7L443.5,393.3z M442.2,390.5l-0.8-1.7l1.7-0.8l0.8,1.7L442.2,390.5z M440.9,387.7l-0.8-1.7l1.7-0.8l0.8,1.7
		L440.9,387.7z M439.7,384.9l-0.8-1.7l1.7-0.8l0.8,1.7L439.7,384.9z M438.4,382l-0.8-1.7l1.7-0.8l0.8,1.7L438.4,382z M437.1,379.2
		l-0.8-1.7l1.7-0.8l0.8,1.7L437.1,379.2z M435.8,376.3l-0.8-1.7l1.7-0.8l0.8,1.7L435.8,376.3z M434.6,373.6l-0.8-1.7l1.7-0.8
		l0.8,1.7L434.6,373.6z M426.2,369.4l1.2,2.7l1-0.4l-1.2-2.7L426.2,369.4z M427.1,369.2l1.1,2.4l-0.7,0.3l-1.1-2.4L427.1,369.2z
		 M424.8,366.2l1.2,2.7l1-0.4l-1.2-2.7L424.8,366.2z M425.7,366l1.1,2.4l-0.7,0.3l-1.1-2.4L425.7,366z"/>
</g>
</svg>
