<?xml version="1.0" encoding="utf-8"?>
<!-- Generator: Adobe Illustrator 18.1.1, SVG Export Plug-In . SVG Version: 6.00 Build 0)  -->
<!DOCTYPE svg PUBLIC "-//W3C//DTD SVG 1.1//EN" "http://www.w3.org/Graphics/SVG/1.1/DTD/svg11.dtd">
<svg version="1.1" id="Layer_1" xmlns="http://www.w3.org/2000/svg" xmlns:xlink="http://www.w3.org/1999/xlink" x="0px" y="0px"
	 viewBox="0 0 874.5 580.5" enable-background="new 0 0 874.5 580.5" xml:space="preserve">
<g id="New_Symbol_1">
</g>
<g>
	
		<circle opacity="0.1" fill="#E0BB9B" stroke="#E0BB9B" stroke-width="0.5" stroke-miterlimit="10" stroke-dasharray="2" cx="330.2" cy="271.2" r="97.1"/>
	<g>
		<polygon fill="none" stroke="#FFFFFF" stroke-width="1.2581" stroke-miterlimit="10" points="324.2,281.5 324.7,285.3 
			333.7,285.3 334.1,281.5 334.1,276 324.2,276 		"/>
		<path fill="none" stroke="#FFFFFF" stroke-width="1.2581" stroke-miterlimit="10" d="M342.8,265c-0.1-0.1-0.3-0.3-0.4-0.4l0.4-0.6
			h-1.2c-1.1-0.7-2.6-1.3-3.3-1.3c-1,0-2,0.5-2.5,1.3h-1.1c-0.5-0.8-1.5-1.3-2.5-1.3s-2,0.5-2.5,1.3h-1c-0.5-0.8-1.5-1.3-2.5-1.3
			s-2,0.5-2.5,1.3h-0.9c-0.5-0.8-1.5-1.3-2.5-1.3c-0.7,0-2.2,0.7-3.3,1.3h-1.4l0.5,0.7c-0.1,0.1-0.2,0.2-0.3,0.3h0.5l7.7,10.9h10.3
			L342,265H342.8z"/>
	</g>
	<path opacity="0.1" fill="#E0BB9B" stroke="#E0BB9B" stroke-width="0.5" stroke-miterlimit="10" stroke-dasharray="2" d="
		M390.6,271.2c0-53.6,43.5-97.1,97.1-97.1c53.6,0,97.1,43.5,97.1,97.1c0,15.8-3.8,30.8-10.5,44l-52.8,0.9c0,0,2.7,24.2,0,33.9
		c-1.7,6-7.6-5.5-18.6,5.5c-11,11-7.5,12.8-15.2,12.8C434,368.2,390.6,324.8,390.6,271.2z"/>
	<g>
		<polygon fill="none" stroke="#FFFFFF" stroke-width="1.2581" stroke-miterlimit="10" points="481.7,281.5 482.1,285.3 
			491.2,285.3 491.6,281.5 491.6,276 481.7,276 		"/>
		<path fill="none" stroke="#FFFFFF" stroke-width="1.2581" stroke-miterlimit="10" d="M500.2,265c-0.1-0.1-0.3-0.3-0.4-0.4l0.4-0.6
			H499c-1.1-0.7-2.6-1.3-3.3-1.3c-1,0-2,0.5-2.5,1.3h-1.1c-0.5-0.8-1.5-1.3-2.5-1.3s-2,0.5-2.5,1.3h-1c-0.5-0.8-1.5-1.3-2.5-1.3
			s-2,0.5-2.5,1.3h-0.9c-0.5-0.8-1.5-1.3-2.5-1.3c-0.7,0-2.2,0.7-3.3,1.3h-1.4l0.5,0.7c-0.1,0.1-0.2,0.2-0.3,0.3h0.5l7.7,10.9h10.3
			l7.7-10.9H500.2z"/>
	</g>
</g>
</svg>
