<?xml version="1.0" encoding="utf-8"?>
<!-- Generator: Adobe Illustrator 18.1.1, SVG Export Plug-In . SVG Version: 6.00 Build 0)  -->
<!DOCTYPE svg PUBLIC "-//W3C//DTD SVG 1.1//EN" "http://www.w3.org/Graphics/SVG/1.1/DTD/svg11.dtd">
<svg version="1.1" id="Layer_1" xmlns="http://www.w3.org/2000/svg" xmlns:xlink="http://www.w3.org/1999/xlink" x="0px" y="0px"
	 viewBox="0 0 874.5 580.5" enable-background="new 0 0 874.5 580.5" xml:space="preserve">
<g id="New_Symbol_1">
</g>
<g>
	<g>
		<g>
			<path fill="none" stroke="#FFFFFF" stroke-miterlimit="10" d="M633.3,357.8c-0.1-0.2-0.2-0.5-0.4-0.7l0,0l2.9,6.3l2.9,6.3
				l2.9,6.3l2.9,6.3l0,0c-0.1-0.3-0.2-0.5-0.3-0.7L633.3,357.8z"/>
			<path fill="none" stroke="#FFFFFF" stroke-miterlimit="10" d="M610,360.4c-2.3,2.1-3.2,5.4-2.2,8.3l5-2.3L610,360.4z"/>
			<path fill="none" stroke="#FFFFFF" stroke-miterlimit="10" d="M611.9,359.2l-2,0.9l0.1,0.3C610.6,359.9,611.2,359.5,611.9,359.2z
				"/>
			<path fill="none" stroke="#FFFFFF" stroke-miterlimit="10" d="M612.8,366.5l5-2.3l-2.9-6.3l-3,1.4c-0.7,0.3-1.3,0.8-1.9,1.3
				L612.8,366.5z"/>
			
				<rect x="615.4" y="357" transform="matrix(0.4209 0.9071 -0.9071 0.4209 684.7544 -353.0786)" fill="none" stroke="#FFFFFF" stroke-miterlimit="10" width="7" height="5.6"/>
			<path fill="none" stroke="#FFFFFF" stroke-miterlimit="10" d="M625,353.1l-2,0.9c0.7-0.3,1.4-0.5,2.1-0.6L625,353.1z"/>
			<path fill="none" stroke="#FFFFFF" stroke-miterlimit="10" d="M627.9,359.4l-2.8-6.1c-0.7,0.1-1.4,0.3-2.1,0.6l-3.1,1.4l2.9,6.3
				L627.9,359.4z"/>
			<path fill="none" stroke="#FFFFFF" stroke-miterlimit="10" d="M625.1,353.4l2.8,6.1l5-2.3l0,0
				C631.3,354.4,628.2,352.9,625.1,353.4z"/>
			<path fill="none" stroke="#FFFFFF" stroke-miterlimit="10" d="M608.2,369.5c-0.1-0.2-0.2-0.5-0.3-0.7l-0.1,0l2.9,6.3l0,0
				L608.2,369.5z"/>
			<path fill="none" stroke="#FFFFFF" stroke-miterlimit="10" d="M612.8,366.5l-5,2.3c0.1,0.2,0.2,0.5,0.3,0.7l2.6,5.6l5-2.3
				L612.8,366.5z"/>
			
				<rect x="613.3" y="365.7" transform="matrix(0.4209 0.9071 -0.9071 0.4209 691.414 -346.1523)" fill="none" stroke="#FFFFFF" stroke-miterlimit="10" width="7" height="5.6"/>
			
				<rect x="618.4" y="363.3" transform="matrix(0.4209 0.9071 -0.9071 0.4209 692.2105 -352.0758)" fill="none" stroke="#FFFFFF" stroke-miterlimit="10" width="7" height="5.6"/>
			
				<rect x="623.4" y="361" transform="matrix(0.4209 0.9071 -0.9071 0.4209 693.0071 -357.9994)" fill="none" stroke="#FFFFFF" stroke-miterlimit="10" width="7" height="5.6"/>
			
				<rect x="629.2" y="358" transform="matrix(-0.9071 0.4209 -0.4209 -0.9071 1357.3105 423.3149)" fill="none" stroke="#FFFFFF" stroke-miterlimit="10" width="5.6" height="7"/>
			
				<rect x="612.2" y="374.8" transform="matrix(0.9071 -0.4209 0.4209 0.9071 -102.3583 292.8537)" fill="none" stroke="#FFFFFF" stroke-miterlimit="10" width="0" height="7"/>
			
				<rect x="612" y="373.6" transform="matrix(0.9071 -0.4209 0.4209 0.9071 -101.6322 293.8053)" fill="none" stroke="#FFFFFF" stroke-miterlimit="10" width="5.5" height="7"/>
			
				<rect x="617" y="371.3" transform="matrix(0.9071 -0.4209 0.4209 0.9071 -100.1856 295.7014)" fill="none" stroke="#FFFFFF" stroke-miterlimit="10" width="5.6" height="7"/>
			
				<rect x="621.3" y="369.7" transform="matrix(0.4209 0.9071 -0.9071 0.4209 699.6667 -351.0731)" fill="none" stroke="#FFFFFF" stroke-miterlimit="10" width="7" height="5.6"/>
			
				<rect x="627.1" y="366.6" transform="matrix(-0.9071 0.4209 -0.4209 -0.9071 1356.9684 440.7489)" fill="none" stroke="#FFFFFF" stroke-miterlimit="10" width="5.6" height="7"/>
			
				<rect x="632.1" y="364.3" transform="matrix(-0.9071 0.4209 -0.4209 -0.9071 1365.5919 434.1697)" fill="none" stroke="#FFFFFF" stroke-miterlimit="10" width="5.6" height="7"/>
			
				<rect x="615.2" y="381.1" transform="matrix(0.9071 -0.4209 0.4209 0.9071 -104.7542 294.6815)" fill="none" stroke="#FFFFFF" stroke-miterlimit="10" width="0" height="7"/>
			
				<rect x="614.9" y="380" transform="matrix(0.9071 -0.4209 0.4209 0.9071 -104.0281 295.6331)" fill="none" stroke="#FFFFFF" stroke-miterlimit="10" width="5.5" height="7"/>
			
				<rect x="619.2" y="378.4" transform="matrix(-0.4209 -0.9071 0.9071 -0.4209 539.0946 1106.437)" fill="none" stroke="#FFFFFF" stroke-miterlimit="10" width="7" height="5.6"/>
			
				<rect x="624.3" y="376" transform="matrix(-0.4209 -0.9071 0.9071 -0.4209 548.3733 1107.6855)" fill="none" stroke="#FFFFFF" stroke-miterlimit="10" width="7" height="5.6"/>
			
				<rect x="630" y="373" transform="matrix(-0.9071 0.4209 -0.4209 -0.9071 1365.2495 451.6037)" fill="none" stroke="#FFFFFF" stroke-miterlimit="10" width="5.6" height="7"/>
			
				<rect x="635" y="370.6" transform="matrix(-0.9071 0.4209 -0.4209 -0.9071 1373.873 445.0245)" fill="none" stroke="#FFFFFF" stroke-miterlimit="10" width="5.6" height="7"/>
			<path fill="none" stroke="#FFFFFF" stroke-miterlimit="10" d="M619.3,393.4l-2.6-5.6l0,0l2.9,6.3l0.1,0
				C619.5,393.9,619.4,393.7,619.3,393.4z"/>
			<path fill="none" stroke="#FFFFFF" stroke-miterlimit="10" d="M616.7,387.8l2.6,5.6c0.1,0.2,0.2,0.5,0.4,0.7l5-2.3l-2.9-6.3
				L616.7,387.8z"/>
			
				<rect x="622.2" y="384.7" transform="matrix(-0.4209 -0.9071 0.9071 -0.4209 537.5237 1118.1168)" fill="none" stroke="#FFFFFF" stroke-miterlimit="10" width="7" height="5.6"/>
			
				<rect x="627.2" y="382.4" transform="matrix(-0.4209 -0.9071 0.9071 -0.4209 546.8024 1119.3654)" fill="none" stroke="#FFFFFF" stroke-miterlimit="10" width="7" height="5.6"/>
			
				<rect x="632.2" y="380" transform="matrix(-0.4209 -0.9071 0.9071 -0.4209 556.0813 1120.613)" fill="none" stroke="#FFFFFF" stroke-miterlimit="10" width="7" height="5.6"/>
			
				<rect x="638" y="377" transform="matrix(-0.9071 0.4209 -0.4209 -0.9071 1382.1542 455.8794)" fill="none" stroke="#FFFFFF" stroke-miterlimit="10" width="5.6" height="7"/>
			<path fill="none" stroke="#FFFFFF" stroke-miterlimit="10" d="M627.4,397.9l-2.8-6l-5,2.3C621.3,396.9,624.4,398.3,627.4,397.9z"
				/>
			<path fill="none" stroke="#FFFFFF" stroke-miterlimit="10" d="M627.5,398.2l2-0.9c-0.7,0.3-1.4,0.5-2.2,0.6L627.5,398.2z"/>
			<path fill="none" stroke="#FFFFFF" stroke-miterlimit="10" d="M624.6,391.8l2.8,6c0.7-0.1,1.5-0.3,2.2-0.6l3-1.4l-2.9-6.3
				L624.6,391.8z"/>
			
				<rect x="630.1" y="388.7" transform="matrix(-0.4209 -0.9071 0.9071 -0.4209 545.2315 1131.0452)" fill="none" stroke="#FFFFFF" stroke-miterlimit="10" width="7" height="5.6"/>
			<path fill="none" stroke="#FFFFFF" stroke-miterlimit="10" d="M640.7,392.1l2-0.9l-0.1-0.3C642,391.3,641.4,391.7,640.7,392.1z"
				/>
			<path fill="none" stroke="#FFFFFF" stroke-miterlimit="10" d="M639.7,384.8l-5,2.3l2.9,6.3l3.1-1.4c0.7-0.3,1.3-0.7,1.8-1.2
				L639.7,384.8z"/>
			<path fill="none" stroke="#FFFFFF" stroke-miterlimit="10" d="M639.7,384.8l2.8,6.1c2.3-2,3.3-5.4,2.2-8.4l0,0L639.7,384.8z"/>
		</g>
		<path fill="none" stroke="#FFFFFF" stroke-miterlimit="10" d="M640.7,392.1l-11.1,5.2c-3.9,1.8-8.5,0.1-10.3-3.8l-11.1-24
			c-1.8-3.9-0.1-8.5,3.8-10.3L623,354c3.9-1.8,8.5-0.1,10.3,3.8l11.1,24C646.2,385.6,644.5,390.3,640.7,392.1z"/>
	</g>
	<g>
		<polygon fill="none" stroke="#FFFFFF" stroke-miterlimit="10" points="656.7,414.4 668.7,428.4 609.4,428.4 608.3,414.4 		"/>
		<polyline fill="none" stroke="#FFFFFF" stroke-miterlimit="10" points="609.4,427.3 609.4,467.1 668.3,467.1 668.7,428.3 		"/>
		<polygon fill="none" stroke="#FFFFFF" stroke-miterlimit="10" points="595.5,413.9 596.7,428.4 596.7,467.1 539.1,467.1 
			539.1,428.1 542.2,413.9 		"/>
		<line fill="none" stroke="#FFFFFF" stroke-miterlimit="10" x1="596.7" y1="428.4" x2="539.1" y2="428.4"/>
		<ellipse fill="none" stroke="#FFFFFF" stroke-miterlimit="10" cx="568.9" cy="421.5" rx="11.2" ry="3.5"/>
		<ellipse fill="none" stroke="#FFFFFF" stroke-miterlimit="10" cx="637.5" cy="421.5" rx="11.2" ry="3.5"/>
	</g>
	<path fill="none" stroke="#FFFFFF" stroke-miterlimit="10" d="M531.1,320.8c0,0,44.7,41.4,147.8,33.2c0,0-36.5,10.8-152.7,56.5"/>
	<path fill="#FFFFFF" d="M539.1,344.8c0,0,9.9-3.9,15.4-9.5s26.6,9.5,26.6,9.5s-8.8,7.5-5.9,13.9C578.2,365,539.1,344.8,539.1,344.8
		z"/>
	<path fill="#FFFFFF" stroke="#465E61" stroke-miterlimit="10" d="M562.2,437.5v11.5c0,1.2,1,2.1,2.1,2.1h18.7c1.2,0,2.1-1,2.1-2.1
		v-9.4c0-1.2-1-2.1-2.1-2.1h-25.8c-1.2,0-2.1,1-2.1,2.1V456c0,1.2,1,2.1,2.1,2.1h19.6c1.2,0,2.1-1,2.1-2.1v-17.6"/>
	<path fill="#FFFFFF" stroke="#465E61" stroke-miterlimit="10" d="M594.7,438.9l-28-11c-1-0.4-2.1,0.1-2.5,1.1l-6.3,16
		c-0.4,1,0.1,2.1,1.1,2.5l28,11c1,0.4,2.1-0.1,2.5-1.1l6.3-16C596.2,440.4,595.7,439.3,594.7,438.9z"/>
	<path fill="#FFFFFF" stroke="#465E61" stroke-miterlimit="10" d="M648.5,436.4l-29.5,6.2c-1,0.2-1.7,1.2-1.5,2.2l3.5,16.8
		c0.2,1,1.2,1.7,2.2,1.5l29.5-6.2c1-0.2,1.7-1.2,1.5-2.2l-3.5-16.8C650.6,436.8,649.5,436.2,648.5,436.4z"/>
	<path fill="#FFFFFF" stroke="#465E61" stroke-miterlimit="10" d="M651.4,431.8L622,438c-1,0.2-1.7,1.2-1.5,2.2l3.5,16.8
		c0.2,1,1.2,1.7,2.2,1.5l29.5-6.2c1-0.2,1.7-1.2,1.5-2.2l-3.5-16.8C653.5,432.2,652.5,431.6,651.4,431.8z"/>
	<path fill="#FFFFFF" stroke="#465E61" stroke-miterlimit="10" d="M659.3,436.6l-30,2.6c-1,0.1-1.8,1-1.7,2l1.5,17.2
		c0.1,1,1,1.8,2,1.7l30-2.6c1-0.1,1.8-1,1.7-2l-1.5-17.2C661.2,437.3,660.3,436.6,659.3,436.6z"/>
</g>
</svg>
