<?xml version="1.0" encoding="utf-8"?>
<!-- Generator: Adobe Illustrator 18.1.1, SVG Export Plug-In . SVG Version: 6.00 Build 0)  -->
<!DOCTYPE svg PUBLIC "-//W3C//DTD SVG 1.1//EN" "http://www.w3.org/Graphics/SVG/1.1/DTD/svg11.dtd">
<svg version="1.1" id="Layer_1" xmlns="http://www.w3.org/2000/svg" xmlns:xlink="http://www.w3.org/1999/xlink" x="0px" y="0px"
	 viewBox="0 0 874.5 580.5" enable-background="new 0 0 874.5 580.5" xml:space="preserve">
<path fill="none" stroke="#E0BB9B" stroke-width="10.7796" stroke-linecap="square" stroke-miterlimit="10" d="M393.6,296"/>
<g>
	<g>
		<g>
			<path fill-rule="evenodd" clip-rule="evenodd" fill="#FFFFFF" d="M413,93.2c1.1,0,1,1.1,1,2.2c0,0.2,0,0.4,0,0.7
				c0.4-0.4,0.8-0.9,1.2-1.3c0.1-0.2,0.3-0.4,0.4-0.4c0.4-0.2,0.9,0,1,0.4c0.2,0.6-0.6,1.1-0.9,1.5c-0.6,0.6-1.2,1.3-1.7,1.9
				c0,0.5,0,0.9,0,1.4c0.3-0.2,0.5-0.7,0.8-0.8c0.5-0.2,0.9,0.2,0.9,0.6c0,0.4-0.3,0.6-0.5,0.8c-0.4,0.5-0.9,0.9-1.3,1.4
				c0,0.5,0,1,0,1.6c0.4-0.2,0.8-0.5,1.2-0.7c0-0.2,0.1-0.3,0.1-0.5c0.1-0.4,0.5-2,0.8-2.2c0.4-0.3,1.2,0,1.1,0.7
				c-0.1,0.3-0.2,0.7-0.3,1c0.4-0.2,0.9-0.5,1.3-0.7c0-0.2,0.2-0.8,0.3-1c0.2-0.8,0.5-1.5,0.7-2.3c0.1-0.4,0.3-0.8,0.9-0.7
				c0.3,0.1,0.5,0.3,0.5,0.5c0.1,0.3-0.1,0.6-0.2,0.8c-0.2,0.6-0.3,1.1-0.5,1.7c0.6-0.3,2.4-1.8,3-0.6c0.6,1.2-1.5,1.6-2,2.1
				c0,0,0,0,0,0c0.6,0.3,1.9,0.2,2.4,0.6c0.3,0.2,0.3,0.7,0.1,1c-0.4,0.4-1.4,0-1.9-0.1c-0.8-0.2-1.6-0.3-2.4-0.5
				c-0.4,0.2-0.8,0.5-1.2,0.7c0.4,0.1,1,0.2,1.2,0.4c0.3,0.4,0.1,0.9-0.3,1.1c-0.3,0.1-1.8-0.3-2.2-0.4c-0.1,0-0.3-0.1-0.4-0.1
				c-0.4,0.3-0.9,0.5-1.3,0.8c0,0,0,0,0,0c0.4,0.2,0.8,0.5,1.2,0.7c0.2,0,0.4-0.1,0.6-0.1c0.4-0.1,2.1-0.5,2.4-0.3
				c0.3,0.2,0.5,0.8,0.1,1.1c-0.3,0.2-0.9,0.3-1.3,0.3c0,0,0,0,0,0c0.4,0.2,0.8,0.5,1.3,0.7c0.3-0.2,0.8-0.2,1.1-0.3
				c0.9-0.2,1.7-0.4,2.6-0.6c0.3-0.1,0.6,0.2,0.7,0.4c0.1,0.3,0,0.7-0.2,0.8c-0.3,0.2-2,0.6-2.5,0.6c0,0,0,0,0,0
				c0.3,0.2,0.6,0.3,0.8,0.5c0.6,0.3,1.9,0.9,1.1,1.9c-0.7,0.8-2.2-0.6-2.8-0.8v0c0.2,0.7,0.5,1.4,0.7,2.2c0.1,0.5-0.4,1-0.9,0.8
				c-0.5-0.2-0.7-1.5-0.9-2.1c-0.2-0.6-0.4-1.2-0.6-1.8c-0.4-0.2-0.8-0.5-1.2-0.7c0.1,0.3,0.4,0.7,0.3,1.1c-0.1,0.4-0.7,0.7-1.1,0.4
				c-0.3-0.2-0.6-1.7-0.8-2.1c0-0.1-0.1-0.3-0.1-0.4c-0.4-0.2-0.9-0.5-1.3-0.7c0,0.4,0,0.7,0,1.1c0.5,0.6,1,1.1,1.6,1.7
				c0.1,0.1,0.2,0.4,0.2,0.7c-0.1,0.2-0.2,0.3-0.4,0.4c-0.7,0.3-1-0.5-1.4-0.8c0,0.5,0,0.9,0,1.4c0.6,0.6,1.2,1.3,1.7,1.9
				c0.3,0.3,1.1,0.9,0.9,1.5c-0.1,0.3-0.6,0.6-1,0.4c-0.2-0.1-0.3-0.3-0.4-0.4c-0.4-0.4-0.8-0.9-1.2-1.3c0,0.6,0,1.2,0,1.8
				c0,0.3,0,0.6,0,0.8c-0.1,0.3-0.4,0.5-0.7,0.6c-0.7,0.1-1-0.4-1-1c0-0.8,0-1.5,0-2.3c0,0,0,0,0,0c0,0-0.1,0.1-0.1,0.1
				c-0.5,0.6-1,1.1-1.5,1.7c-0.4,0.3-1,0-1-0.4c-0.1-0.4,0.2-0.6,0.4-0.8c0.6-0.6,1.1-1.2,1.7-1.8c0.1-0.1,0.7-0.7,0.7-0.7
				c0.1-0.2,0-1.4,0-1.5c-0.1,0.2-0.7,0.9-1,0.9c-0.5,0.1-0.9-0.2-0.9-0.7c0.1-0.4,0.3-0.5,0.5-0.8c0.4-0.5,0.9-1,1.3-1.5
				c0-0.3,0-0.7,0-1c-0.3,0.2-0.7,0.4-1,0.6c-0.3,0.6-0.5,2.2-1,2.6c-0.5,0.3-1-0.1-1-0.6c0-0.3,0.2-0.7,0.3-1c0,0,0,0,0,0
				c-0.4,0.2-0.8,0.5-1.2,0.7c-0.3,1-0.6,1.9-0.9,2.9c-0.2,0.5-0.2,1-0.7,1.1c-0.4,0.1-0.9-0.3-0.8-0.8c0.2-0.7,0.5-1.4,0.7-2.2
				c-0.7,0.4-1.4,0.8-2.2,1.2c-0.5,0.2-1-0.1-1.1-0.4c-0.3-0.6,0.1-1,0.5-1.2c0.7-0.4,1.3-0.8,2-1.2c-0.4-0.1-2.3-0.4-2.5-0.6
				c-0.2-0.2-0.3-0.6-0.1-0.9c0.2-0.3,0.6-0.3,1-0.2c0.8,0.2,1.6,0.4,2.4,0.5c0.3,0.1,0.7,0.1,1,0.2c0.4-0.3,0.9-0.5,1.3-0.8
				c-0.4-0.1-1.2-0.2-1.4-0.5c-0.2-0.3-0.1-0.8,0.2-1c0.4-0.2,1.9,0.2,2.3,0.3c0.2,0,0.4,0.1,0.6,0.1c0.3-0.2,0.6-0.3,0.8-0.5
				c0,0,0,0,0,0c-0.2-0.1-0.8-0.6-1-0.6c-0.6,0.1-1.2,0.3-1.9,0.4c-0.2,0.1-0.6,0.2-0.8,0c-0.4-0.2-0.5-0.8-0.1-1.1
				c0.2-0.2,0.8-0.2,1.1-0.3c-0.4-0.2-0.8-0.5-1.2-0.7c-0.8,0.2-1.6,0.3-2.5,0.5c-0.5,0.1-1.3,0.5-1.7,0.1c-0.3-0.2-0.3-0.8,0-1.1
				c0.2-0.1,0.4-0.1,0.7-0.2c0.6-0.1,1.2-0.3,1.7-0.4c0,0,0,0,0,0c-0.2-0.1-0.4-0.3-0.7-0.4c-0.4-0.3-1.4-0.6-1.6-1
				c-0.2-0.3-0.2-0.8,0-1c0.2-0.2,0.6-0.5,1.1-0.3c0.7,0.4,1.5,0.8,2.2,1.3c0,0,0,0,0,0c-0.2-0.6-0.3-1.1-0.5-1.7
				c-0.1-0.2-0.2-0.5-0.2-0.8c0.1-0.3,0.3-0.5,0.6-0.5c0.6-0.1,0.7,0.5,0.8,0.9c0.3,1,0.7,2.1,1,3.1c0.4,0.2,0.9,0.5,1.3,0.7
				c0,0,0,0,0,0c-0.1-0.4-0.2-0.7-0.3-1.1c-0.1-0.5,0.6-0.9,1-0.7c0.4,0.2,0.7,1.8,0.9,2.3c0,0.1,0.1,0.3,0.1,0.4
				c0.3,0.2,0.6,0.4,0.9,0.5c0,0,0-0.1,0-0.1c0-0.4,0-0.9,0-1.3c0-0.2-0.3-0.4-0.4-0.5c-0.4-0.4-0.7-0.8-1.1-1.2
				c-0.1-0.2-0.4-0.4-0.4-0.7c0.1-0.5,0.6-0.8,1.1-0.5c0.3,0.3,0.5,0.6,0.8,0.8c0,0,0-0.1,0-0.1c0-0.5,0-0.9,0-1.4
				c-0.3-0.1-0.6-0.6-0.8-0.9c-0.6-0.6-1.2-1.3-1.8-1.9c-0.2-0.2-0.2-0.6,0-0.8c0.2-0.2,0.6-0.3,0.9-0.1c0.5,0.6,1.1,1.2,1.6,1.8
				c0,0,0,0,0,0c0-0.5-0.1-2.2,0.2-2.6C412.5,93.4,412.7,93.4,413,93.2z"/>
		</g>
	</g>
	<g>
		<g>
			<path fill-rule="evenodd" clip-rule="evenodd" fill="#FFFFFF" d="M413,133.6c1.1,0,1,1.1,1,2.2c0,0.2,0,0.4,0,0.7
				c0.4-0.4,0.8-0.9,1.2-1.3c0.1-0.2,0.3-0.4,0.4-0.4c0.4-0.2,0.9,0,1,0.4c0.2,0.6-0.6,1.1-0.9,1.5c-0.6,0.6-1.2,1.3-1.7,1.9
				c0,0.5,0,0.9,0,1.4c0.3-0.2,0.5-0.7,0.8-0.8c0.5-0.2,0.9,0.2,0.9,0.6c0,0.4-0.3,0.6-0.5,0.8c-0.4,0.5-0.9,0.9-1.3,1.4
				c0,0.5,0,1,0,1.6c0.4-0.2,0.8-0.5,1.2-0.7c0-0.2,0.1-0.3,0.1-0.5c0.1-0.4,0.5-2,0.8-2.2c0.4-0.3,1.2,0,1.1,0.7
				c-0.1,0.3-0.2,0.7-0.3,1c0.4-0.2,0.9-0.5,1.3-0.7c0-0.2,0.2-0.8,0.3-1c0.2-0.8,0.5-1.5,0.7-2.3c0.1-0.4,0.3-0.8,0.9-0.7
				c0.3,0.1,0.5,0.3,0.5,0.5c0.1,0.3-0.1,0.6-0.2,0.8c-0.2,0.6-0.3,1.1-0.5,1.7c0.6-0.3,2.4-1.8,3-0.6c0.6,1.2-1.5,1.6-2,2.1
				c0,0,0,0,0,0c0.6,0.3,1.9,0.2,2.4,0.6c0.3,0.2,0.3,0.7,0.1,1c-0.4,0.4-1.4,0-1.9-0.1c-0.8-0.2-1.6-0.3-2.4-0.5
				c-0.4,0.2-0.8,0.5-1.2,0.7c0.4,0.1,1,0.2,1.2,0.4c0.3,0.4,0.1,0.9-0.3,1.1c-0.3,0.1-1.8-0.3-2.2-0.4c-0.1,0-0.3-0.1-0.4-0.1
				c-0.4,0.3-0.9,0.5-1.3,0.8c0,0,0,0,0,0c0.4,0.2,0.8,0.5,1.2,0.7c0.2,0,0.4-0.1,0.6-0.1c0.4-0.1,2.1-0.5,2.4-0.3
				c0.3,0.2,0.5,0.8,0.1,1.1c-0.3,0.2-0.9,0.3-1.3,0.3c0,0,0,0,0,0c0.4,0.2,0.8,0.5,1.3,0.7c0.3-0.2,0.8-0.2,1.1-0.3
				c0.9-0.2,1.7-0.4,2.6-0.6c0.3-0.1,0.6,0.2,0.7,0.4c0.1,0.3,0,0.7-0.2,0.8c-0.3,0.2-2,0.6-2.5,0.6c0,0,0,0,0,0
				c0.3,0.2,0.6,0.3,0.8,0.5c0.6,0.3,1.9,0.9,1.1,1.9c-0.7,0.8-2.2-0.6-2.8-0.8v0c0.2,0.7,0.5,1.4,0.7,2.2c0.1,0.5-0.4,1-0.9,0.8
				c-0.5-0.2-0.7-1.5-0.9-2.1c-0.2-0.6-0.4-1.2-0.6-1.8c-0.4-0.2-0.8-0.5-1.2-0.7c0.1,0.3,0.4,0.7,0.3,1.1c-0.1,0.4-0.7,0.7-1.1,0.4
				c-0.3-0.2-0.6-1.7-0.8-2.1c0-0.1-0.1-0.3-0.1-0.4c-0.4-0.2-0.9-0.5-1.3-0.7c0,0.4,0,0.7,0,1.1c0.5,0.6,1,1.1,1.6,1.7
				c0.1,0.1,0.2,0.4,0.2,0.7c-0.1,0.2-0.2,0.3-0.4,0.4c-0.7,0.3-1-0.5-1.4-0.8c0,0.5,0,0.9,0,1.4c0.6,0.6,1.2,1.3,1.7,1.9
				c0.3,0.3,1.1,0.9,0.9,1.5c-0.1,0.3-0.6,0.6-1,0.4c-0.2-0.1-0.3-0.3-0.4-0.4c-0.4-0.4-0.8-0.9-1.2-1.3c0,0.6,0,1.2,0,1.8
				c0,0.3,0,0.6,0,0.8c-0.1,0.3-0.4,0.5-0.7,0.6c-0.7,0.1-1-0.4-1-1c0-0.8,0-1.5,0-2.3c0,0,0,0,0,0c0,0-0.1,0.1-0.1,0.1
				c-0.5,0.6-1,1.1-1.5,1.7c-0.4,0.3-1,0-1-0.4c-0.1-0.4,0.2-0.6,0.4-0.8c0.6-0.6,1.1-1.2,1.7-1.8c0.1-0.1,0.7-0.7,0.7-0.7
				c0.1-0.2,0-1.4,0-1.5c-0.1,0.2-0.7,0.9-1,0.9c-0.5,0.1-0.9-0.2-0.9-0.7c0.1-0.4,0.3-0.5,0.5-0.8c0.4-0.5,0.9-1,1.3-1.5
				c0-0.3,0-0.7,0-1c-0.3,0.2-0.7,0.4-1,0.6c-0.3,0.6-0.5,2.2-1,2.6c-0.5,0.3-1-0.1-1-0.6c0-0.3,0.2-0.7,0.3-1c0,0,0,0,0,0
				c-0.4,0.2-0.8,0.5-1.2,0.7c-0.3,1-0.6,1.9-0.9,2.9c-0.2,0.5-0.2,1-0.7,1.1c-0.4,0.1-0.9-0.3-0.8-0.8c0.2-0.7,0.5-1.4,0.7-2.2
				c-0.7,0.4-1.4,0.8-2.2,1.2c-0.5,0.2-1-0.1-1.1-0.4c-0.3-0.6,0.1-1,0.5-1.2c0.7-0.4,1.3-0.8,2-1.2c-0.4-0.1-2.3-0.4-2.5-0.6
				c-0.2-0.2-0.3-0.6-0.1-0.9c0.2-0.3,0.6-0.3,1-0.2c0.8,0.2,1.6,0.4,2.4,0.5c0.3,0.1,0.7,0.1,1,0.2c0.4-0.3,0.9-0.5,1.3-0.8
				c-0.4-0.1-1.2-0.2-1.4-0.5c-0.2-0.3-0.1-0.8,0.2-1c0.4-0.2,1.9,0.2,2.3,0.3c0.2,0,0.4,0.1,0.6,0.1c0.3-0.2,0.6-0.3,0.8-0.5
				c0,0,0,0,0,0c-0.2-0.1-0.8-0.6-1-0.6c-0.6,0.1-1.2,0.3-1.9,0.4c-0.2,0.1-0.6,0.2-0.8,0c-0.4-0.2-0.5-0.8-0.1-1.1
				c0.2-0.2,0.8-0.2,1.1-0.3c-0.4-0.2-0.8-0.5-1.2-0.7c-0.8,0.2-1.6,0.3-2.5,0.5c-0.5,0.1-1.3,0.5-1.7,0.1c-0.3-0.2-0.3-0.8,0-1.1
				c0.2-0.1,0.4-0.1,0.7-0.2c0.6-0.1,1.2-0.3,1.7-0.4c0,0,0,0,0,0c-0.2-0.1-0.4-0.3-0.7-0.4c-0.4-0.3-1.4-0.6-1.6-1
				c-0.2-0.3-0.2-0.8,0-1c0.2-0.2,0.6-0.5,1.1-0.3c0.7,0.4,1.5,0.8,2.2,1.3c0,0,0,0,0,0c-0.2-0.6-0.3-1.1-0.5-1.7
				c-0.1-0.2-0.2-0.5-0.2-0.8c0.1-0.3,0.3-0.5,0.6-0.5c0.6-0.1,0.7,0.5,0.8,0.9c0.3,1,0.7,2.1,1,3.1c0.4,0.2,0.9,0.5,1.3,0.7
				c0,0,0,0,0,0c-0.1-0.4-0.2-0.7-0.3-1.1c-0.1-0.5,0.6-0.9,1-0.7c0.4,0.2,0.7,1.8,0.9,2.3c0,0.1,0.1,0.3,0.1,0.4
				c0.3,0.2,0.6,0.4,0.9,0.5c0,0,0-0.1,0-0.1c0-0.4,0-0.9,0-1.3c0-0.2-0.3-0.4-0.4-0.5c-0.4-0.4-0.7-0.8-1.1-1.2
				c-0.1-0.2-0.4-0.4-0.4-0.7c0.1-0.5,0.6-0.8,1.1-0.5c0.3,0.3,0.5,0.6,0.8,0.8c0,0,0-0.1,0-0.1c0-0.5,0-0.9,0-1.4
				c-0.3-0.1-0.6-0.6-0.8-0.9c-0.6-0.6-1.2-1.3-1.8-1.9c-0.2-0.2-0.2-0.6,0-0.8c0.2-0.2,0.6-0.3,0.9-0.1c0.5,0.6,1.1,1.2,1.6,1.8
				c0,0,0,0,0,0c0-0.5-0.1-2.2,0.2-2.6C412.5,133.7,412.7,133.7,413,133.6z"/>
		</g>
	</g>
	<g>
		<g>
			<path fill-rule="evenodd" clip-rule="evenodd" fill="#FFFFFF" d="M413,173.8c1.1,0,1,1.1,1,2.2c0,0.2,0,0.4,0,0.7
				c0.4-0.4,0.8-0.9,1.2-1.3c0.1-0.2,0.3-0.4,0.4-0.4c0.4-0.2,0.9,0,1,0.4c0.2,0.6-0.6,1.1-0.9,1.5c-0.6,0.6-1.2,1.3-1.7,1.9
				c0,0.5,0,0.9,0,1.4c0.3-0.2,0.5-0.7,0.8-0.8c0.5-0.2,0.9,0.2,0.9,0.6c0,0.4-0.3,0.6-0.5,0.8c-0.4,0.5-0.9,0.9-1.3,1.4
				c0,0.5,0,1,0,1.6c0.4-0.2,0.8-0.5,1.2-0.7c0-0.2,0.1-0.3,0.1-0.5c0.1-0.4,0.5-2,0.8-2.2c0.4-0.3,1.2,0,1.1,0.7
				c-0.1,0.3-0.2,0.7-0.3,1c0.4-0.2,0.9-0.5,1.3-0.7c0-0.2,0.2-0.8,0.3-1c0.2-0.8,0.5-1.5,0.7-2.3c0.1-0.4,0.3-0.8,0.9-0.7
				c0.3,0.1,0.5,0.3,0.5,0.5c0.1,0.3-0.1,0.6-0.2,0.8c-0.2,0.6-0.3,1.1-0.5,1.7c0.6-0.3,2.4-1.8,3-0.6c0.6,1.2-1.5,1.6-2,2.1
				c0,0,0,0,0,0c0.6,0.3,1.9,0.2,2.4,0.6c0.3,0.2,0.3,0.7,0.1,1c-0.4,0.4-1.4,0-1.9-0.1c-0.8-0.2-1.6-0.3-2.4-0.5
				c-0.4,0.2-0.8,0.5-1.2,0.7c0.4,0.1,1,0.2,1.2,0.4c0.3,0.4,0.1,0.9-0.3,1.1c-0.3,0.1-1.8-0.3-2.2-0.4c-0.1,0-0.3-0.1-0.4-0.1
				c-0.4,0.3-0.9,0.5-1.3,0.8c0,0,0,0,0,0c0.4,0.2,0.8,0.5,1.2,0.7c0.2,0,0.4-0.1,0.6-0.1c0.4-0.1,2.1-0.5,2.4-0.3
				c0.3,0.2,0.5,0.8,0.1,1.1c-0.3,0.2-0.9,0.3-1.3,0.3c0,0,0,0,0,0c0.4,0.2,0.8,0.5,1.3,0.7c0.3-0.2,0.8-0.2,1.1-0.3
				c0.9-0.2,1.7-0.4,2.6-0.6c0.3-0.1,0.6,0.2,0.7,0.4c0.1,0.3,0,0.7-0.2,0.8c-0.3,0.2-2,0.6-2.5,0.6c0,0,0,0,0,0
				c0.3,0.2,0.6,0.3,0.8,0.5c0.6,0.3,1.9,0.9,1.1,1.9c-0.7,0.8-2.2-0.6-2.8-0.8v0c0.2,0.7,0.5,1.4,0.7,2.2c0.1,0.5-0.4,1-0.9,0.8
				c-0.5-0.2-0.7-1.5-0.9-2.1c-0.2-0.6-0.4-1.2-0.6-1.8c-0.4-0.2-0.8-0.5-1.2-0.7c0.1,0.3,0.4,0.7,0.3,1.1c-0.1,0.4-0.7,0.7-1.1,0.4
				c-0.3-0.2-0.6-1.7-0.8-2.1c0-0.1-0.1-0.3-0.1-0.4c-0.4-0.2-0.9-0.5-1.3-0.7c0,0.4,0,0.7,0,1.1c0.5,0.6,1,1.1,1.6,1.7
				c0.1,0.1,0.2,0.4,0.2,0.7c-0.1,0.2-0.2,0.3-0.4,0.4c-0.7,0.3-1-0.5-1.4-0.8c0,0.5,0,0.9,0,1.4c0.6,0.6,1.2,1.3,1.7,1.9
				c0.3,0.3,1.1,0.9,0.9,1.5c-0.1,0.3-0.6,0.6-1,0.4c-0.2-0.1-0.3-0.3-0.4-0.4c-0.4-0.4-0.8-0.9-1.2-1.3c0,0.6,0,1.2,0,1.8
				c0,0.3,0,0.6,0,0.8c-0.1,0.3-0.4,0.5-0.7,0.6c-0.7,0.1-1-0.4-1-1c0-0.8,0-1.5,0-2.3c0,0,0,0,0,0c0,0-0.1,0.1-0.1,0.1
				c-0.5,0.6-1,1.1-1.5,1.7c-0.4,0.3-1,0-1-0.4c-0.1-0.4,0.2-0.6,0.4-0.8c0.6-0.6,1.1-1.2,1.7-1.8c0.1-0.1,0.7-0.7,0.7-0.7
				c0.1-0.2,0-1.4,0-1.5c-0.1,0.2-0.7,0.9-1,0.9c-0.5,0.1-0.9-0.2-0.9-0.7c0.1-0.4,0.3-0.5,0.5-0.8c0.4-0.5,0.9-1,1.3-1.5
				c0-0.3,0-0.7,0-1c-0.3,0.2-0.7,0.4-1,0.6c-0.3,0.6-0.5,2.2-1,2.6c-0.5,0.3-1-0.1-1-0.6c0-0.3,0.2-0.7,0.3-1c0,0,0,0,0,0
				c-0.4,0.2-0.8,0.5-1.2,0.7c-0.3,1-0.6,1.9-0.9,2.9c-0.2,0.5-0.2,1-0.7,1.1c-0.4,0.1-0.9-0.3-0.8-0.8c0.2-0.7,0.5-1.4,0.7-2.2
				c-0.7,0.4-1.4,0.8-2.2,1.2c-0.5,0.2-1-0.1-1.1-0.4c-0.3-0.6,0.1-1,0.5-1.2c0.7-0.4,1.3-0.8,2-1.2c-0.4-0.1-2.3-0.4-2.5-0.6
				c-0.2-0.2-0.3-0.6-0.1-0.9c0.2-0.3,0.6-0.3,1-0.2c0.8,0.2,1.6,0.4,2.4,0.5c0.3,0.1,0.7,0.1,1,0.2c0.4-0.3,0.9-0.5,1.3-0.8
				c-0.4-0.1-1.2-0.2-1.4-0.5c-0.2-0.3-0.1-0.8,0.2-1c0.4-0.2,1.9,0.2,2.3,0.3c0.2,0,0.4,0.1,0.6,0.1c0.3-0.2,0.6-0.3,0.8-0.5
				c0,0,0,0,0,0c-0.2-0.1-0.8-0.6-1-0.6c-0.6,0.1-1.2,0.3-1.9,0.4c-0.2,0.1-0.6,0.2-0.8,0c-0.4-0.2-0.5-0.8-0.1-1.1
				c0.2-0.2,0.8-0.2,1.1-0.3c-0.4-0.2-0.8-0.5-1.2-0.7c-0.8,0.2-1.6,0.3-2.5,0.5c-0.5,0.1-1.3,0.5-1.7,0.1c-0.3-0.2-0.3-0.8,0-1.1
				c0.2-0.1,0.4-0.1,0.7-0.2c0.6-0.1,1.2-0.3,1.7-0.4c0,0,0,0,0,0c-0.2-0.1-0.4-0.3-0.7-0.4c-0.4-0.3-1.4-0.6-1.6-1
				c-0.2-0.3-0.2-0.8,0-1c0.2-0.2,0.6-0.5,1.1-0.3c0.7,0.4,1.5,0.8,2.2,1.3c0,0,0,0,0,0c-0.2-0.6-0.3-1.1-0.5-1.7
				c-0.1-0.2-0.2-0.5-0.2-0.8c0.1-0.3,0.3-0.5,0.6-0.5c0.6-0.1,0.7,0.5,0.8,0.9c0.3,1,0.7,2.1,1,3.1c0.4,0.2,0.9,0.5,1.3,0.7
				c0,0,0,0,0,0c-0.1-0.4-0.2-0.7-0.3-1.1c-0.1-0.5,0.6-0.9,1-0.7c0.4,0.2,0.7,1.8,0.9,2.3c0,0.1,0.1,0.3,0.1,0.4
				c0.3,0.2,0.6,0.4,0.9,0.5c0,0,0-0.1,0-0.1c0-0.4,0-0.9,0-1.3c0-0.2-0.3-0.4-0.4-0.5c-0.4-0.4-0.7-0.8-1.1-1.2
				c-0.1-0.2-0.4-0.4-0.4-0.7c0.1-0.5,0.6-0.8,1.1-0.5c0.3,0.3,0.5,0.6,0.8,0.8c0,0,0-0.1,0-0.1c0-0.5,0-0.9,0-1.4
				c-0.3-0.1-0.6-0.6-0.8-0.9c-0.6-0.6-1.2-1.3-1.8-1.9c-0.2-0.2-0.2-0.6,0-0.8c0.2-0.2,0.6-0.3,0.9-0.1c0.5,0.6,1.1,1.2,1.6,1.8
				c0,0,0,0,0,0c0-0.5-0.1-2.2,0.2-2.6C412.5,173.9,412.7,173.9,413,173.8z"/>
		</g>
	</g>
</g>
<g id="New_Symbol_1">
</g>
</svg>
