<?xml version="1.0" encoding="utf-8"?>
<!-- Generator: Adobe Illustrator 18.1.1, SVG Export Plug-In . SVG Version: 6.00 Build 0)  -->
<!DOCTYPE svg PUBLIC "-//W3C//DTD SVG 1.1//EN" "http://www.w3.org/Graphics/SVG/1.1/DTD/svg11.dtd">
<svg version="1.1" id="Layer_1" xmlns="http://www.w3.org/2000/svg" xmlns:xlink="http://www.w3.org/1999/xlink" x="0px" y="0px"
	 viewBox="0 0 874.5 580.5" enable-background="new 0 0 874.5 580.5" xml:space="preserve">
<g id="New_Symbol_1">
</g>
<g>
	<polygon fill="none" stroke="#FFFFFF" stroke-miterlimit="10" points="747.7,340.5 747.4,339.5 747.4,172 729.8,154.1 700,154.1 
		700,162.2 726.5,162.2 739.4,175.4 739.4,257.5 729.8,247.8 700,247.8 700,255.9 726.5,255.9 739.4,269 739.4,339.5 715.1,363.8 
		721.1,369.8 742.9,348 765,370 770.7,363.3 	"/>
	<ellipse fill="#FFFFFF" cx="770.7" cy="393.5" rx="13.4" ry="13.7"/>
	<path fill="#C26868" d="M767.1,395.4c0,2.8,1.6,3.9,3.6,3.9c2,0,3.6-1.1,3.6-3.9s-3.6-8.3-3.6-8.3S767.1,392.6,767.1,395.4z"/>
	<ellipse fill="#FFFFFF" cx="717.4" cy="393.5" rx="13.4" ry="13.7"/>
	<path fill="#68BCC2" d="M713.8,396.4c0,2.8,1.6,3.9,3.6,3.9s3.6-1.1,3.6-3.9s-3.6-8.3-3.6-8.3S713.8,393.6,713.8,396.4z"/>
	<rect x="695.5" y="245.8" fill="none" stroke="#FFFFFF" stroke-miterlimit="10" width="4.5" height="12.7"/>
	<rect x="695.5" y="151.6" fill="none" stroke="#FFFFFF" stroke-miterlimit="10" width="4.5" height="12.7"/>
	<rect x="737.1" y="268.2" fill="none" stroke="#FFFFFF" stroke-miterlimit="10" width="12.7" height="4.5"/>
	<rect x="737.1" y="184.8" fill="none" stroke="#FFFFFF" stroke-miterlimit="10" width="12.7" height="4.5"/>
	<rect x="737.1" y="330.8" fill="none" stroke="#FFFFFF" stroke-miterlimit="10" width="12.7" height="4.5"/>
	
		<rect x="714.1" y="361.7" transform="matrix(-0.7071 0.7071 -0.7071 -0.7071 1483.2086 121.7187)" fill="none" stroke="#FFFFFF" stroke-miterlimit="10" width="4.5" height="12.7"/>
	
		<rect x="766.5" y="361.7" transform="matrix(-0.7071 -0.7071 0.7071 -0.7071 1052.0847 1171.8716)" fill="none" stroke="#FFFFFF" stroke-miterlimit="10" width="4.5" height="12.7"/>
	<g>
		<path fill="none" stroke="#FFFFFF" stroke-miterlimit="10" d="M653.8,136.1H625c-4.8,0-8.7,3.9-8.7,8.7v0c0,1.5,0.4,2.9,1.1,4.2
			l3.6,6.4c1.6,2.8,1.4,6.3-0.3,9l-2.9,4.4c-0.9,1.4-1.4,3.1-1.4,4.8v0.7c0,4.8,3.9,8.7,8.7,8.7h28.8c4.8,0,8.7-3.9,8.7-8.7v-29.5
			C662.5,140,658.6,136.1,653.8,136.1z"/>
		<circle fill="none" stroke="#FFFFFF" stroke-miterlimit="10" cx="631.8" cy="159.6" r="4.4"/>
		<path fill="none" stroke="#FFFFFF" stroke-miterlimit="10" d="M642.3,159.6c0-2.1,9.6-3.9,15.1-3.9c5.6,0,5,1.7,5,3.9
			s0.5,3.9-5,3.9C651.9,163.5,642.3,161.8,642.3,159.6z"/>
		<polygon fill="none" stroke="#FFFFFF" stroke-miterlimit="10" points="661.1,165.9 662.5,168.2 661.1,170.6 658.4,170.6 
			657.1,168.2 658.4,165.9 		"/>
		<polygon fill="none" stroke="#FFFFFF" stroke-miterlimit="10" points="661.1,148.1 662.5,150.4 661.1,152.7 658.4,152.7 
			657.1,150.4 658.4,148.1 		"/>
	</g>
	<g>
		<path fill="none" stroke="#FFFFFF" stroke-miterlimit="10" d="M653.8,228.1H625c-4.8,0-8.7,3.9-8.7,8.7v0c0,1.5,0.4,2.9,1.1,4.2
			l3.6,6.4c1.6,2.8,1.4,6.3-0.3,9l-2.9,4.4c-0.9,1.4-1.4,3.1-1.4,4.8v0.7c0,4.8,3.9,8.7,8.7,8.7h28.8c4.8,0,8.7-3.9,8.7-8.7v-29.5
			C662.5,232,658.6,228.1,653.8,228.1z"/>
		<circle fill="none" stroke="#FFFFFF" stroke-miterlimit="10" cx="631.8" cy="251.6" r="4.4"/>
		<path fill="none" stroke="#FFFFFF" stroke-miterlimit="10" d="M642.3,251.6c0-2.1,9.6-3.9,15.1-3.9c5.6,0,5,1.7,5,3.9
			c0,2.1,0.5,3.9-5,3.9C651.9,255.5,642.3,253.8,642.3,251.6z"/>
		<polygon fill="none" stroke="#FFFFFF" stroke-miterlimit="10" points="661.1,257.9 662.5,260.2 661.1,262.5 658.4,262.5 
			657.1,260.2 658.4,257.9 		"/>
		<polygon fill="none" stroke="#FFFFFF" stroke-miterlimit="10" points="661.1,240 662.5,242.4 661.1,244.7 658.4,244.7 
			657.1,242.4 658.4,240 		"/>
	</g>
</g>
</svg>
