<?xml version="1.0" encoding="utf-8"?>
<!-- Generator: Adobe Illustrator 18.1.1, SVG Export Plug-In . SVG Version: 6.00 Build 0)  -->
<!DOCTYPE svg PUBLIC "-//W3C//DTD SVG 1.1//EN" "http://www.w3.org/Graphics/SVG/1.1/DTD/svg11.dtd">
<svg version="1.1" id="Layer_1" xmlns="http://www.w3.org/2000/svg" xmlns:xlink="http://www.w3.org/1999/xlink" x="0px" y="0px"
	 viewBox="0 0 874.5 580.5" enable-background="new 0 0 874.5 580.5" xml:space="preserve">
<g>
	<g>
		<g>
			<g>
				<polyline fill="none" stroke="#5BCFBA" stroke-width="1.0002" stroke-miterlimit="10" points="435.4,516 435.4,531.5 
					458.4,554.5 824.3,554.5 846.8,532.1 846.8,207.8 868.7,185.8 				"/>
				<g>
					<circle fill="#5BCFBA" cx="435.4" cy="516.2" r="3.8"/>
				</g>
				<g>
					
						<rect x="865.3" y="182.6" transform="matrix(0.7071 0.7071 -0.7071 0.7071 385.8854 -559.771)" fill="#5BCFBA" width="6.6" height="6.6"/>
				</g>
			</g>
		</g>
		<g>
			<g>
				<polyline fill="none" stroke="#5BCFBA" stroke-width="1.0002" stroke-miterlimit="10" points="559.9,516 559.9,533.5 
					581.2,554.8 				"/>
				<g>
					<circle fill="#5BCFBA" cx="559.9" cy="516.2" r="3.8"/>
				</g>
			</g>
		</g>
		<g>
			<g>
				<polyline fill="none" stroke="#5BCFBA" stroke-width="1.0002" stroke-miterlimit="10" points="769.9,364.7 785.9,380.8 
					785.9,554.5 				"/>
				<g>
					<circle fill="#5BCFBA" cx="770" cy="364.8" r="3.8"/>
				</g>
			</g>
		</g>
	</g>
	<g>
		<g>
			<polyline fill="none" stroke="#5BCFBA" stroke-width="1.0002" stroke-miterlimit="10" points="461.8,56 479.3,38.5 767.3,38.5 
				790.3,61.5 790.3,230.6 808.3,248.6 846.8,248.6 			"/>
			<g>
				<circle fill="#5BCFBA" cx="461.9" cy="55.9" r="3.8"/>
			</g>
		</g>
	</g>
</g>
<g>
	<path fill="none" stroke="#FFFFFF" stroke-width="1.2581" stroke-miterlimit="10" d="M476,92.5h-33.6c-3.2,0-5.6,1.4-5.3,3
		l1.9,10.9c0.2,1.3,2.7,2.4,5.5,2.4h29.4c2.8,0,5.3-1.1,5.5-2.4l1.9-10.9C481.6,93.9,479.3,92.5,476,92.5z"/>
	<polyline fill="none" stroke="#FFFFFF" stroke-width="1.2581" stroke-miterlimit="10" points="481.4,95.5 481.4,89.6 478.1,88.3 
		439.9,88.3 437.1,89.6 437.1,95.5 	"/>
	<polyline fill="none" stroke="#FFFFFF" stroke-width="1.2581" stroke-miterlimit="10" points="453.8,108.8 453.8,112.5 
		449.6,115.4 466.8,115.4 462.2,112.5 462.2,108.8 	"/>
</g>
<g>
	<path fill="none" stroke="#FFFFFF" stroke-width="1.2581" stroke-miterlimit="10" d="M411,438.7h33.7c3.2,0,5.6,1.1,5.3,2.4
		l-1.9,8.7c-0.2,1.1-2.7,1.9-5.5,1.9h-29.5c-2.8,0-5.3-0.8-5.5-1.9l-1.9-8.7C405.3,439.8,407.7,438.7,411,438.7z"/>
	<polyline fill="none" stroke="#FFFFFF" stroke-width="1.2581" stroke-miterlimit="10" points="405.6,441.1 405.6,436.4 
		408.9,435.4 447.2,435.4 450.1,436.4 450.1,441.1 	"/>
	<polyline fill="none" stroke="#FFFFFF" stroke-width="1.2581" stroke-miterlimit="10" points="433.3,451.7 433.3,454.7 
		437.5,456.9 420.3,456.9 424.9,454.7 424.9,451.7 	"/>
</g>
<g>
	<path fill="none" stroke="#FFFFFF" stroke-width="1.2581" stroke-miterlimit="10" d="M535,438.7h33.7c3.2,0,5.6,1.1,5.3,2.4
		l-1.9,8.7c-0.2,1.1-2.7,1.9-5.5,1.9h-29.5c-2.8,0-5.3-0.8-5.5-1.9l-1.9-8.7C529.3,439.8,531.7,438.7,535,438.7z"/>
	<polyline fill="none" stroke="#FFFFFF" stroke-width="1.2581" stroke-miterlimit="10" points="529.6,441.1 529.6,436.4 
		532.9,435.4 571.2,435.4 574.1,436.4 574.1,441.1 	"/>
	<polyline fill="none" stroke="#FFFFFF" stroke-width="1.2581" stroke-miterlimit="10" points="557.3,451.7 557.3,454.7 
		561.5,456.9 544.3,456.9 548.9,454.7 548.9,451.7 	"/>
</g>
<g>
	<path fill="none" stroke="#FFFFFF" stroke-width="1.2581" stroke-miterlimit="10" d="M729.1,344.3V378c0,3.2-1.1,5.6-2.4,5.3
		l-8.7-1.9c-1.1-0.2-1.9-2.7-1.9-5.5v-29.5c0-2.8,0.8-5.3,1.9-5.5l8.7-1.9C728,338.6,729.1,341,729.1,344.3z"/>
	<polyline fill="none" stroke="#FFFFFF" stroke-width="1.2581" stroke-miterlimit="10" points="726.7,338.9 731.4,338.9 
		732.4,342.2 732.4,380.5 731.4,383.4 726.7,383.3 	"/>
	<polyline fill="none" stroke="#FFFFFF" stroke-width="1.2581" stroke-miterlimit="10" points="716.1,366.6 713.2,366.6 
		710.9,370.8 710.9,353.5 713.2,358.2 716.1,358.2 	"/>
</g>
</svg>
