<?xml version="1.0" encoding="utf-8"?>
<!-- Generator: Adobe Illustrator 18.1.1, SVG Export Plug-In . SVG Version: 6.00 Build 0)  -->
<!DOCTYPE svg PUBLIC "-//W3C//DTD SVG 1.1//EN" "http://www.w3.org/Graphics/SVG/1.1/DTD/svg11.dtd">
<svg version="1.1" id="Layer_1" xmlns="http://www.w3.org/2000/svg" xmlns:xlink="http://www.w3.org/1999/xlink" x="0px" y="0px"
	 viewBox="0 0 874.5 580.5" enable-background="new 0 0 874.5 580.5" xml:space="preserve">
<symbol  id="chair" viewBox="-23.7 -25.3 43.2 50.3">
	<path fill="none" stroke="#E0BB9B" stroke-width="1.3029" stroke-miterlimit="10" d="M15.4-24.6h-28.7c-1.9,0-3.4,1.5-3.4,3.4V7.3
		c0,1.9,1.5,3.4,3.4,3.4h28.7c1.9,0,3.4-1.5,3.4-3.4v-28.6C18.8-23.1,17.3-24.6,15.4-24.6z"/>
	<path fill="none" stroke="#E0BB9B" stroke-width="1.3029" stroke-miterlimit="10" d="M18.8,17.3c0-3.9-7.9-7-17.7-7
		s-17.7,3.2-17.7,7s7.9,7,17.7,7S18.8,21.2,18.8,17.3z"/>
	<path fill="none" stroke="#E0BB9B" stroke-width="1.3029" stroke-miterlimit="10" d="M-23.7,11.9"/>
</symbol>
<g>
	<g>
		<g>
			<g>
				<rect x="114.1" y="88.1" fill="#465E61" width="623.6" height="421.2"/>
				<path fill="#E0BB9B" d="M732.2,93.5V504H119.5V93.5H732.2 M743,82.8H108.7v432H743V82.8L743,82.8z"/>
			</g>
			<rect x="141.5" y="111.4" fill="none" stroke="#E0BB9B" stroke-miterlimit="10" width="570.8" height="374.6"/>
			<polygon fill="none" stroke="#E0BB9B" stroke-miterlimit="10" points="732.2,504.1 712.2,486.3 141.5,486.3 117.3,504.8 			"/>
			<polygon fill="none" stroke="#E0BB9B" stroke-miterlimit="10" points="732.2,93.9 712.2,112.3 141.5,112.3 117.3,93.5 
				444.4,93.8 			"/>
		</g>
		
			<use xlink:href="#chair"  width="43.2" height="50.3" id="XMLID_30_" x="-23.7" y="-25.3" transform="matrix(4.987940e-02 0.9988 0.9988 -4.987940e-02 215.6058 384.5679)" overflow="visible"/>
		<path fill="#E0BB9B" d="M163.7,373.8c0.9,0.5,1.9-0.1,2.8-0.9c0.4-0.3,1.3-1.3,1.8-0.4c0.2,0.4,0.4,0.7,0.7,1
			c0.5,0.5,1.2,0.5,1.9,0.5l-2.4,30.7l12,1l3-37.3l-12-1l-0.5,5.9c-0.1,0-0.3,0-0.4,0c-1.1,0-1.4-0.7-1.8-1.4
			c-0.2-0.4-0.5-0.6-1-0.6c-1.4,0-2.5,2.8-3.9,1.6 M181.8,369.8l-2.7,34.5l-9.2-0.7l2.7-34.5L181.8,369.8z M173,399.8l-0.2,1.9
			l-1.9-0.2l0.2-1.9L173,399.8z M173.2,396.8l-0.2,1.9l-1.9-0.2l0.2-1.9L173.2,396.8z M173.4,393.7l-0.2,1.9l-1.9-0.2l0.2-1.9
			L173.4,393.7z M173.7,390.6l-0.2,1.9l-1.9-0.2l0.2-1.9L173.7,390.6z M173.9,387.4l-0.2,1.9l-1.9-0.2l0.2-1.9L173.9,387.4z
			 M174.2,384.4l-0.2,1.9l-1.9-0.2l0.2-1.9L174.2,384.4z M174.4,381.3l-0.2,1.9l-1.9-0.2l0.2-1.9L174.4,381.3z M174.7,378.3
			l-0.2,1.9l-1.9-0.2l0.2-1.9L174.7,378.3z M175.6,401.3l-0.2,1.9l-1.9-0.2l0.2-1.9L175.6,401.3z M175.8,398.3l-0.2,1.9l-1.9-0.2
			l0.2-1.9L175.8,398.3z M176.1,395.2l-0.2,1.9l-1.9-0.2l0.2-1.9L176.1,395.2z M176.3,392.1l-0.2,1.9l-1.9-0.2l0.2-1.9L176.3,392.1z
			 M176.6,388.9l-0.2,1.9l-1.9-0.2l0.2-1.9L176.6,388.9z M176.8,385.9l-0.2,1.9l-1.9-0.2l0.2-1.9L176.8,385.9z M177.1,382.8
			l-0.2,1.9l-1.9-0.2l0.2-1.9L177.1,382.8z M177.3,379.8l-0.2,1.9l-1.9-0.2l0.2-1.9L177.3,379.8z M177.8,372.9l-0.2,1.9l-1.9-0.2
			l0.2-1.9L177.8,372.9z M178.5,373.2l0.2-1.9l1.9,0.2l-0.2,1.9L178.5,373.2z M178.2,376.5l0.2-1.9l1.9,0.2l-0.2,1.9L178.2,376.5z
			 M176.5,402.7l0.2-1.9l1.9,0.2l-0.2,1.9L176.5,402.7z M176.7,399.6l0.2-1.9l1.9,0.2l-0.2,1.9L176.7,399.6z M177,396.5l0.2-1.9
			l1.9,0.2l-0.2,1.9L177,396.5z M177.2,393.5l0.2-1.9l1.9,0.2l-0.2,1.9L177.2,393.5z M177.5,390.3l0.2-1.9l1.9,0.2l-0.2,1.9
			L177.5,390.3z M177.7,387.2l0.2-1.9l1.9,0.2l-0.2,1.9L177.7,387.2z M177.9,384.1l0.2-1.9l1.9,0.2l-0.2,1.9L177.9,384.1z
			 M178.2,381.1l0.2-1.9l1.9,0.2l-0.2,1.9L178.2,381.1z M172.8,373.4l-0.2,2.9l1,0.1l0.2-2.9L172.8,373.4z M173.7,373.6l-0.2,2.6
			l-0.8-0.1l0.2-2.6L173.7,373.6z M173.1,369.9l-0.2,2.9l1,0.1l0.2-2.9L173.1,369.9z M174,370.1l-0.2,2.6l-0.8-0.1l0.2-2.6
			L174,370.1z"/>
		<g>
			<g>
				
					<rect x="106.4" y="363.3" transform="matrix(-4.581901e-02 -0.9989 0.9989 -4.581901e-02 -220.0029 567.0028)" fill="none" stroke="#E0BB9B" stroke-width="1.2611" stroke-miterlimit="10" width="108.7" height="50.5"/>
			</g>
			<polyline fill="none" stroke="#E0BB9B" stroke-width="0.8133" stroke-miterlimit="10" points="184,333.1 189.8,335.7 190.5,352 
				184.8,351.3 			"/>
			<polyline fill="none" stroke="#E0BB9B" stroke-width="0.8217" stroke-miterlimit="10" points="189,441.9 194.5,438.4 
				193.7,421.8 188.1,423.3 			"/>
		</g>
		
			<use xlink:href="#chair"  width="43.2" height="50.3" id="XMLID_29_" x="-23.7" y="-25.3" transform="matrix(0.9998 2.154656e-02 2.154656e-02 -0.9998 274.3421 416.3978)" overflow="visible"/>
		<path fill="#E0BB9B" d="M259.9,467.4c0.6-0.9,0-1.9-0.7-2.8c-0.3-0.4-1.2-1.3-0.2-1.8c0.4-0.2,0.7-0.3,1-0.6
			c0.5-0.5,0.6-1.1,0.7-1.8l30.5,4.6l1.8-11.9l-37-5.6l-1.8,11.9l5.9,0.9c0,0.1,0,0.3,0,0.4c-0.1,1.1-0.8,1.3-1.6,1.7
			c-0.4,0.2-0.6,0.5-0.6,0.9c-0.1,1.4,2.6,2.7,1.3,4 M257.2,449.1l34.2,5.2l-1.4,9.2l-34.2-5.2L257.2,449.1z M286.5,460l1.9,0.3
			l-0.3,1.9l-1.9-0.3L286.5,460z M283.5,459.6l1.9,0.3l-0.3,1.9l-1.9-0.3L283.5,459.6z M280.4,459.1l1.9,0.3l-0.3,1.9l-1.9-0.3
			L280.4,459.1z M277.4,458.7l1.9,0.3l-0.3,1.9l-1.9-0.3L277.4,458.7z M274.2,458.2l1.9,0.3l-0.3,1.9l-1.9-0.3L274.2,458.2z
			 M271.2,457.7l1.9,0.3l-0.3,1.9l-1.9-0.3L271.2,457.7z M268.1,457.2l1.9,0.3l-0.3,1.9l-1.9-0.3L268.1,457.2z M265.1,456.8l1.9,0.3
			l-0.3,1.9l-1.9-0.3L265.1,456.8z M288.2,457.5l1.9,0.3l-0.3,1.9l-1.9-0.3L288.2,457.5z M285.2,457.1l1.9,0.3l-0.3,1.9l-1.9-0.3
			L285.2,457.1z M282.1,456.6l1.9,0.3l-0.3,1.9l-1.9-0.3L282.1,456.6z M279.1,456.1l1.9,0.3l-0.3,1.9l-1.9-0.3L279.1,456.1z
			 M275.9,455.6l1.9,0.3l-0.3,1.9l-1.9-0.3L275.9,455.6z M272.9,455.2l1.9,0.3l-0.3,1.9l-1.9-0.3L272.9,455.2z M269.8,454.7l1.9,0.3
			l-0.3,1.9l-1.9-0.3L269.8,454.7z M266.8,454.3l1.9,0.3l-0.3,1.9l-1.9-0.3L266.8,454.3z M260,453.2l1.9,0.3l-0.3,1.9l-1.9-0.3
			L260,453.2z M260.4,452.6l-1.9-0.3l0.3-1.9l1.9,0.3L260.4,452.6z M263.6,453.1l-1.9-0.3l0.3-1.9l1.9,0.3L263.6,453.1z
			 M289.6,456.7l-1.9-0.3l0.3-1.9l1.9,0.3L289.6,456.7z M286.6,456.3l-1.9-0.3l0.3-1.9l1.9,0.3L286.6,456.3z M283.5,455.8l-1.9-0.3
			l0.3-1.9l1.9,0.3L283.5,455.8z M280.5,455.3l-1.9-0.3l0.3-1.9l1.9,0.3L280.5,455.3z M277.3,454.9l-1.9-0.3l0.3-1.9l1.9,0.3
			L277.3,454.9z M274.3,454.4l-1.9-0.3l0.3-1.9l1.9,0.3L274.3,454.4z M271.2,453.9l-1.9-0.3l0.3-1.9l1.9,0.3L271.2,453.9z
			 M268.2,453.5l-1.9-0.3l0.3-1.9l1.9,0.3L268.2,453.5z M260.2,458.3l2.9,0.4l0.2-1l-2.9-0.4L260.2,458.3z M260.4,457.4l2.6,0.4
			l-0.1,0.8l-2.6-0.4L260.4,457.4z M256.7,457.7l2.9,0.4l0.2-1l-2.9-0.4L256.7,457.7z M257,456.9l2.6,0.4l-0.1,0.8l-2.6-0.4
			L257,456.9z"/>
		<g>
			<g>
				
					<rect x="220.1" y="446.1" transform="matrix(-0.9997 -2.561042e-02 2.561042e-02 -0.9997 536.6869 949.5836)" fill="none" stroke="#E0BB9B" stroke-width="1.2611" stroke-miterlimit="10" width="108.7" height="50.5"/>
			</g>
			<polyline fill="none" stroke="#E0BB9B" stroke-width="0.8133" stroke-miterlimit="10" points="220.8,444.3 223.7,438.7 
				240,439.1 239,444.7 			"/>
			<polyline fill="none" stroke="#E0BB9B" stroke-width="0.8217" stroke-miterlimit="10" points="329.6,447.1 326.5,441.3 
				309.9,440.9 311,446.6 			"/>
		</g>
		<g>
			<path fill="none" stroke="#E0BB9B" stroke-miterlimit="10" d="M410.7,241.6v-132c0-1,0.8-1.8,1.8-1.8h45.7c1,0,1.8,0.8,1.8,1.8
				v132c0,1-0.8,1.8-1.8,1.8h-45.7C411.6,243.4,410.7,242.6,410.7,241.6z"/>
			<path fill="none" stroke="#E0BB9B" stroke-miterlimit="10" d="M420.3,124.8L420.3,124.8c0-6,4.9-11,11-11h8.2c6,0,11,4.9,11,11v0
				c0,6-4.9,11-11,11h-8.2C425.3,135.7,420.3,130.8,420.3,124.8z"/>
			<rect x="410.6" y="133" fill="#465E61" stroke="#E0BB9B" stroke-miterlimit="10" width="48.8" height="110.4"/>
			<circle fill="#465E61" stroke="#E0BB9B" stroke-miterlimit="10" cx="412.8" cy="106.3" r="3.3"/>
			<circle fill="#465E61" stroke="#E0BB9B" stroke-miterlimit="10" cx="461.1" cy="106.3" r="3.3"/>
			<circle fill="#465E61" stroke="#E0BB9B" stroke-miterlimit="10" cx="412.8" cy="243.4" r="3.3"/>
			<circle fill="#465E61" stroke="#E0BB9B" stroke-miterlimit="10" cx="461.1" cy="243.4" r="3.3"/>
		</g>
		<g>
			<path fill="none" stroke="#E0BB9B" stroke-miterlimit="10" d="M323.9,241.6v-132c0-1,0.8-1.8,1.8-1.8h45.7c1,0,1.8,0.8,1.8,1.8
				v132c0,1-0.8,1.8-1.8,1.8h-45.7C324.8,243.4,323.9,242.6,323.9,241.6z"/>
			<path fill="none" stroke="#E0BB9B" stroke-miterlimit="10" d="M333.5,124.8L333.5,124.8c0-6,4.9-11,11-11h8.2c6,0,11,4.9,11,11v0
				c0,6-4.9,11-11,11h-8.2C338.4,135.7,333.5,130.8,333.5,124.8z"/>
			<rect x="323.8" y="133" fill="#465E61" stroke="#E0BB9B" stroke-miterlimit="10" width="48.8" height="110.4"/>
			<circle fill="#465E61" stroke="#E0BB9B" stroke-miterlimit="10" cx="325.9" cy="106.3" r="3.3"/>
			<circle fill="#465E61" stroke="#E0BB9B" stroke-miterlimit="10" cx="374.3" cy="106.3" r="3.3"/>
			<circle fill="#465E61" stroke="#E0BB9B" stroke-miterlimit="10" cx="325.9" cy="243.4" r="3.3"/>
			<circle fill="#465E61" stroke="#E0BB9B" stroke-miterlimit="10" cx="374.3" cy="243.4" r="3.3"/>
		</g>
		<g>
			<path fill="none" stroke="#E0BB9B" stroke-miterlimit="10" d="M235.2,241.6v-132c0-1,0.8-1.8,1.8-1.8h45.7c1,0,1.8,0.8,1.8,1.8
				v132c0,1-0.8,1.8-1.8,1.8h-45.7C236.1,243.4,235.2,242.6,235.2,241.6z"/>
			<path fill="none" stroke="#E0BB9B" stroke-miterlimit="10" d="M244.8,124.8L244.8,124.8c0-6,4.9-11,11-11h8.2c6,0,11,4.9,11,11v0
				c0,6-4.9,11-11,11h-8.2C249.8,135.7,244.8,130.8,244.8,124.8z"/>
			<rect x="235.1" y="133" fill="#465E61" stroke="#E0BB9B" stroke-miterlimit="10" width="48.8" height="110.4"/>
			<circle fill="#465E61" stroke="#E0BB9B" stroke-miterlimit="10" cx="237.3" cy="106.3" r="3.3"/>
			<circle fill="#465E61" stroke="#E0BB9B" stroke-miterlimit="10" cx="285.6" cy="106.3" r="3.3"/>
			<circle fill="#465E61" stroke="#E0BB9B" stroke-miterlimit="10" cx="237.3" cy="243.4" r="3.3"/>
			<circle fill="#465E61" stroke="#E0BB9B" stroke-miterlimit="10" cx="285.6" cy="243.4" r="3.3"/>
		</g>
		<g>
			<path fill="none" stroke="#E0BB9B" stroke-miterlimit="10" d="M147.2,241.6v-132c0-1,0.8-1.8,1.8-1.8h45.7c1,0,1.8,0.8,1.8,1.8
				v132c0,1-0.8,1.8-1.8,1.8h-45.7C148.1,243.4,147.2,242.6,147.2,241.6z"/>
			<path fill="none" stroke="#E0BB9B" stroke-miterlimit="10" d="M156.8,124.8L156.8,124.8c0-6,4.9-11,11-11h8.2c6,0,11,4.9,11,11v0
				c0,6-4.9,11-11,11h-8.2C161.8,135.7,156.8,130.8,156.8,124.8z"/>
			<rect x="147.1" y="133" fill="#465E61" stroke="#E0BB9B" stroke-miterlimit="10" width="48.8" height="110.4"/>
			<circle fill="#465E61" stroke="#E0BB9B" stroke-miterlimit="10" cx="149.3" cy="106.3" r="3.3"/>
			<circle fill="#465E61" stroke="#E0BB9B" stroke-miterlimit="10" cx="197.6" cy="106.3" r="3.3"/>
			<circle fill="#465E61" stroke="#E0BB9B" stroke-miterlimit="10" cx="149.3" cy="243.4" r="3.3"/>
			<circle fill="#465E61" stroke="#E0BB9B" stroke-miterlimit="10" cx="197.6" cy="243.4" r="3.3"/>
		</g>
		<polyline fill="none" stroke="#E0BB9B" stroke-width="10.7796" stroke-miterlimit="10" points="280.6,330.9 453.4,330.9 
			453.4,509.1 		"/>
		<line fill="none" stroke="#E0BB9B" stroke-width="10.7796" stroke-miterlimit="10" x1="112.7" y1="330.9" x2="238.4" y2="330.9"/>
		<polyline fill="none" stroke="#E0BB9B" stroke-width="10.7796" stroke-miterlimit="10" points="534.8,255 534.8,293.2 
			740.8,293.2 		"/>
		<path fill="none" stroke="#E0BB9B" stroke-width="10.7796" stroke-miterlimit="10" d="M596.3,255"/>
		<line fill="none" stroke="#E0BB9B" stroke-width="10.7796" stroke-miterlimit="10" x1="534.8" y1="88" x2="534.8" y2="210.7"/>
		<polyline fill="none" stroke="#E0BB9B" stroke-width="4" stroke-miterlimit="10" points="626.5,96.9 626.5,162.8 740.8,162.8 		
			"/>
		<polyline fill="none" stroke="#E0BB9B" stroke-width="4" stroke-miterlimit="10" points="626.5,162.6 626.5,228.6 740.8,228.6 		
			"/>
		<polyline fill="none" stroke="#E0BB9B" stroke-width="4" stroke-miterlimit="10" points="626.5,227.3 626.5,293.2 740.8,293.2 		
			"/>
		<rect x="537.2" y="86.8" fill="none" stroke="#E0BB9B" stroke-miterlimit="10" width="46.7" height="110.5"/>
		<g>
			<line fill="none" stroke="#E0BB9B" stroke-width="3" stroke-miterlimit="10" x1="495.8" y1="234" x2="532.2" y2="256.3"/>
			<g>
				<g>
					<path fill="none" stroke="#E0BB9B" stroke-miterlimit="10" d="M497.2,234.7c0.2-0.4,0.5-0.9,0.7-1.3"/>
					<path fill="none" stroke="#E0BB9B" stroke-miterlimit="10" stroke-dasharray="3.048,3.048" d="M499.5,230.8
						c7.5-11.3,19.9-19.1,34.3-20"/>
					<path fill="none" stroke="#E0BB9B" stroke-miterlimit="10" d="M535.3,210.7c0.5,0,1,0,1.5,0"/>
				</g>
			</g>
		</g>
		<g>
			<line fill="none" stroke="#E0BB9B" stroke-width="3" stroke-miterlimit="10" x1="666.1" y1="128.6" x2="627.7" y2="106.3"/>
			<g>
				<g>
					<path fill="none" stroke="#E0BB9B" stroke-miterlimit="10" d="M664.7,127.9c-0.2,0.4-0.5,0.9-0.7,1.3"/>
					<path fill="none" stroke="#E0BB9B" stroke-miterlimit="10" stroke-dasharray="3.048,3.048" d="M662.4,131.8
						c-7.5,11.3-19.9,19.1-34.3,20"/>
					<path fill="none" stroke="#E0BB9B" stroke-miterlimit="10" d="M626.6,151.9c-0.5,0-1,0-1.5,0"/>
				</g>
			</g>
		</g>
		<g>
			<line fill="none" stroke="#E0BB9B" stroke-width="3" stroke-miterlimit="10" x1="666.1" y1="194.1" x2="627.7" y2="171.8"/>
			<g>
				<g>
					<path fill="none" stroke="#E0BB9B" stroke-miterlimit="10" d="M664.7,193.3c-0.2,0.4-0.5,0.9-0.7,1.3"/>
					<path fill="none" stroke="#E0BB9B" stroke-miterlimit="10" stroke-dasharray="3.048,3.048" d="M662.4,197.3
						c-7.5,11.3-19.9,19.1-34.3,20"/>
					<path fill="none" stroke="#E0BB9B" stroke-miterlimit="10" d="M626.6,217.4c-0.5,0-1,0-1.5,0"/>
				</g>
			</g>
		</g>
		<g>
			<line fill="none" stroke="#E0BB9B" stroke-width="3" stroke-miterlimit="10" x1="666.1" y1="258.7" x2="627.7" y2="236.4"/>
			<g>
				<g>
					<path fill="none" stroke="#E0BB9B" stroke-miterlimit="10" d="M664.7,258c-0.2,0.4-0.5,0.9-0.7,1.3"/>
					<path fill="none" stroke="#E0BB9B" stroke-miterlimit="10" stroke-dasharray="3.048,3.048" d="M662.4,261.9
						c-7.5,11.3-19.9,19.1-34.3,20"/>
					<path fill="none" stroke="#E0BB9B" stroke-miterlimit="10" d="M626.6,282c-0.5,0-1,0-1.5,0"/>
				</g>
			</g>
		</g>
		<g>
			<line fill="none" stroke="#E0BB9B" stroke-width="3" stroke-miterlimit="10" x1="495.8" y1="385.7" x2="532.2" y2="408.1"/>
			<g>
				<g>
					<path fill="none" stroke="#E0BB9B" stroke-miterlimit="10" d="M497.2,386.5c0.2-0.4,0.5-0.9,0.7-1.3"/>
					<path fill="none" stroke="#E0BB9B" stroke-miterlimit="10" stroke-dasharray="3.048,3.048" d="M499.5,382.6
						c7.5-11.3,19.9-19.1,34.3-20"/>
					<path fill="none" stroke="#E0BB9B" stroke-miterlimit="10" d="M535.3,362.4c0.5,0,1,0,1.5,0"/>
				</g>
			</g>
		</g>
		<line fill="none" stroke="#E0BB9B" stroke-width="10.7796" stroke-miterlimit="10" x1="535.3" y1="363.1" x2="535.3" y2="296"/>
		<line fill="none" stroke="#E0BB9B" stroke-width="10.7796" stroke-miterlimit="10" x1="535.3" y1="509.1" x2="535.3" y2="406.1"/>
		<g>
			<circle fill="none" stroke="#E0BB9B" stroke-miterlimit="10" cx="571.7" cy="333.2" r="2.9"/>
			<path fill="none" stroke="#E0BB9B" stroke-miterlimit="10" d="M574.2,318.5h5.1c5,0,9.2,4.1,9.2,9.2v5.9c0,5-4.1,9.2-9.2,9.2
				h-15.2c-5,0-9.2-4.1-9.2-9.2v-5.9c0-5,4.1-9.2,9.2-9.2h5.5"/>
			<path fill="none" stroke="#E0BB9B" stroke-miterlimit="10" d="M571.7,326.4c-1.4,0-2.5-6.2-2.5-9.7c0-3.6,1.1-3.2,2.5-3.2
				c1.4,0,2.5-0.3,2.5,3.2C574.2,320.2,573.1,326.4,571.7,326.4z"/>
			<polygon fill="none" stroke="#E0BB9B" stroke-miterlimit="10" points="575.7,314.2 577.2,313.4 578.7,314.2 578.7,316 
				577.2,316.9 575.7,316 			"/>
			<polygon fill="none" stroke="#E0BB9B" stroke-miterlimit="10" points="564.2,314.2 565.7,313.4 567.2,314.2 567.2,316 
				565.7,316.9 564.2,316 			"/>
		</g>
		
			<rect x="615.4" y="318.6" transform="matrix(-0.1893 -0.9819 0.9819 -0.1893 413.2744 1003.3992)" fill="none" stroke="#E0BB9B" stroke-miterlimit="10" width="10.8" height="25.1"/>
		<polygon fill="none" stroke="#E0BB9B" stroke-miterlimit="10" points="535.3,305.3 535.3,349.2 683.3,349.2 683.3,454.1 
			535.3,454.1 535.3,492.7 683.3,492.7 722.6,492.7 722.6,305.1 		"/>
		<g>
			<g>
				<line fill="#4EFF17" x1="203.5" y1="118.5" x2="226.6" y2="141.6"/>
				<g>
					<line fill="none" stroke="#E0BB9B" stroke-miterlimit="10" x1="205.3" y1="120.2" x2="224.8" y2="139.8"/>
					<g>
						<circle fill="#E0BB9B" cx="205.4" cy="120.3" r="2.6"/>
					</g>
					<g>
						<circle fill="#E0BB9B" cx="224.7" cy="139.7" r="2.6"/>
					</g>
				</g>
			</g>
			<g>
				<line fill="#4EFF17" x1="204.1" y1="141.8" x2="227" y2="118.9"/>
				<g>
					<line fill="none" stroke="#E0BB9B" stroke-miterlimit="10" x1="205.9" y1="140" x2="225.2" y2="120.6"/>
					<g>
						<circle fill="#E0BB9B" cx="206" cy="139.9" r="2.6"/>
					</g>
					<g>
						<circle fill="#E0BB9B" cx="225.2" cy="120.7" r="2.6"/>
					</g>
				</g>
			</g>
			<path fill="#E0BB9B" stroke="#E0BB9B" stroke-miterlimit="10" d="M215,139L215,139c0,0,0-1.1,0-2.4V122c0-1.3,0-2.4,0-2.4l0,0
				c0,0,0,1.1,0,2.4v14.5C215,137.9,215,139,215,139z"/>
		</g>
		<g>
			<g>
				<line fill="#4EFF17" x1="292.3" y1="118.5" x2="315.3" y2="141.6"/>
				<g>
					<line fill="none" stroke="#E0BB9B" stroke-miterlimit="10" x1="294" y1="120.2" x2="313.6" y2="139.8"/>
					<g>
						<circle fill="#E0BB9B" cx="294.1" cy="120.3" r="2.6"/>
					</g>
					<g>
						<circle fill="#E0BB9B" cx="313.5" cy="139.7" r="2.6"/>
					</g>
				</g>
			</g>
			<g>
				<line fill="#4EFF17" x1="292.9" y1="141.8" x2="315.8" y2="118.9"/>
				<g>
					<line fill="none" stroke="#E0BB9B" stroke-miterlimit="10" x1="294.6" y1="140" x2="314" y2="120.6"/>
					<g>
						<circle fill="#E0BB9B" cx="294.7" cy="139.9" r="2.6"/>
					</g>
					<g>
						<circle fill="#E0BB9B" cx="313.9" cy="120.7" r="2.6"/>
					</g>
				</g>
			</g>
			<path fill="#E0BB9B" stroke="#E0BB9B" stroke-miterlimit="10" d="M303.8,139L303.8,139c0,0,0-1.1,0-2.4V122c0-1.3,0-2.4,0-2.4
				l0,0c0,0,0,1.1,0,2.4v14.5C303.8,137.9,303.8,139,303.8,139z"/>
		</g>
		<g>
			<g>
				<line fill="#4EFF17" x1="380.4" y1="118.5" x2="403.5" y2="141.6"/>
				<g>
					<line fill="none" stroke="#E0BB9B" stroke-miterlimit="10" x1="382.2" y1="120.2" x2="401.7" y2="139.8"/>
					<g>
						<circle fill="#E0BB9B" cx="382.3" cy="120.3" r="2.6"/>
					</g>
					<g>
						<circle fill="#E0BB9B" cx="401.6" cy="139.7" r="2.6"/>
					</g>
				</g>
			</g>
			<g>
				<line fill="#4EFF17" x1="381" y1="141.8" x2="403.9" y2="118.9"/>
				<g>
					<line fill="none" stroke="#E0BB9B" stroke-miterlimit="10" x1="382.8" y1="140" x2="402.2" y2="120.6"/>
					<g>
						<circle fill="#E0BB9B" cx="382.9" cy="139.9" r="2.6"/>
					</g>
					<g>
						<circle fill="#E0BB9B" cx="402.1" cy="120.7" r="2.6"/>
					</g>
				</g>
			</g>
			<path fill="#E0BB9B" stroke="#E0BB9B" stroke-miterlimit="10" d="M391.9,139L391.9,139c0,0,0-1.1,0-2.4V122c0-1.3,0-2.4,0-2.4
				l0,0c0,0,0,1.1,0,2.4v14.5C391.9,137.9,391.9,139,391.9,139z"/>
		</g>
		<g>
			<g>
				<line fill="#4EFF17" x1="468.6" y1="118.5" x2="491.7" y2="141.6"/>
				<g>
					<line fill="none" stroke="#E0BB9B" stroke-miterlimit="10" x1="470.4" y1="120.2" x2="489.9" y2="139.8"/>
					<g>
						<circle fill="#E0BB9B" cx="470.4" cy="120.3" r="2.6"/>
					</g>
					<g>
						<circle fill="#E0BB9B" cx="489.8" cy="139.7" r="2.6"/>
					</g>
				</g>
			</g>
			<g>
				<line fill="#4EFF17" x1="469.2" y1="141.8" x2="492.1" y2="118.9"/>
				<g>
					<line fill="none" stroke="#E0BB9B" stroke-miterlimit="10" x1="471" y1="140" x2="490.3" y2="120.6"/>
					<g>
						<circle fill="#E0BB9B" cx="471" cy="139.9" r="2.6"/>
					</g>
					<g>
						<circle fill="#E0BB9B" cx="490.2" cy="120.7" r="2.6"/>
					</g>
				</g>
			</g>
			<path fill="#E0BB9B" stroke="#E0BB9B" stroke-miterlimit="10" d="M480.1,139L480.1,139c0,0,0-1.1,0-2.4V122c0-1.3,0-2.4,0-2.4
				l0,0c0,0,0,1.1,0,2.4v14.5C480.1,137.9,480.1,139,480.1,139z"/>
		</g>
		<g>
			<line fill="none" stroke="#E0BB9B" stroke-width="3" stroke-miterlimit="10" x1="258.4" y1="291.8" x2="236.1" y2="328.2"/>
			<g>
				<g>
					<path fill="none" stroke="#E0BB9B" stroke-miterlimit="10" d="M257.7,293.2c0.4,0.2,0.9,0.5,1.3,0.7"/>
					<path fill="none" stroke="#E0BB9B" stroke-miterlimit="10" stroke-dasharray="3.048,3.048" d="M261.6,295.5
						c11.3,7.5,19.1,19.9,20,34.3"/>
					<path fill="none" stroke="#E0BB9B" stroke-miterlimit="10" d="M281.7,331.3c0,0.5,0,1,0,1.5"/>
				</g>
			</g>
		</g>
	</g>
	<g>
		<g>
			<g>
				<circle fill="none" stroke="#FFFFFF" stroke-miterlimit="10" cx="712.7" cy="424.1" r="6.8"/>
				<circle fill="none" stroke="#FFFFFF" stroke-miterlimit="10" cx="712.7" cy="443.2" r="6.8"/>
				<circle fill="none" stroke="#FFFFFF" stroke-miterlimit="10" cx="695.5" cy="443.2" r="6.8"/>
				<circle fill="none" stroke="#FFFFFF" stroke-miterlimit="10" cx="695.5" cy="424.1" r="6.8"/>
			</g>
			<g>
				<circle fill="none" stroke="#FFFFFF" stroke-miterlimit="10" cx="712.7" cy="372.4" r="6.8"/>
				<circle fill="none" stroke="#FFFFFF" stroke-miterlimit="10" cx="712.7" cy="391.5" r="6.8"/>
				<circle fill="none" stroke="#FFFFFF" stroke-miterlimit="10" cx="695.5" cy="391.5" r="6.8"/>
				<circle fill="none" stroke="#FFFFFF" stroke-miterlimit="10" cx="695.5" cy="372.4" r="6.8"/>
			</g>
			<path fill="#465E61" stroke="#FFFFFF" stroke-miterlimit="10" d="M681.8,361l11.9-16.6c0,0,0,0,0,0c2.2,1.2,4.7,2,7.4,2
				c8.2,0,14.8-6.6,14.8-14.8c0-8.2-6.6-14.8-14.8-14.8s-14.8,6.6-14.8,14.8c0,3.6,1.3,6.9,3.4,9.4c-0.1,0.1-0.2,0.2-0.3,0.3
				l-11.9,16.6c-0.3,0.5-0.5,1-0.5,1.5c0,0.8,0.4,1.6,1.1,2.2C679.3,362.5,681,362.2,681.8,361z"/>
			<path fill="#465E61" stroke="#FFFFFF" stroke-miterlimit="10" d="M671.9,319.9l16.5,5.4c0,0,0,0,0,0c-0.5,2.1-0.4,4.3,0.3,6.5
				c2.1,6.6,9.2,10.3,15.8,8.2c6.6-2.1,10.3-9.2,8.2-15.8c-2.1-6.6-9.2-10.3-15.8-8.2c-2.9,0.9-5.2,2.8-6.8,5.2
				c-0.1-0.1-0.2-0.1-0.3-0.2l-16.5-5.4c-0.5-0.2-0.9-0.1-1.4,0c-0.7,0.2-1.2,0.7-1.5,1.5C670.1,318.3,670.7,319.5,671.9,319.9z"/>
		</g>
		<g>
			<g>
				<g>
					<path fill="none" stroke="#FFFFFF" stroke-width="1.2581" stroke-miterlimit="10" d="M159.7,369.6l1.5,33.7
						c0.1,3.2-0.8,5.7-2.1,5.4l-8.8-1.5c-1.1-0.2-2-2.6-2.2-5.5l-1.4-29.5c-0.1-2.8,0.6-5.3,1.6-5.6l8.6-2.3
						C158.4,364,159.5,366.4,159.7,369.6z"/>
					<polyline fill="none" stroke="#FFFFFF" stroke-width="1.2581" stroke-miterlimit="10" points="157.1,364.4 161.8,364.1 
						162.9,367.4 164.7,405.6 163.8,408.6 159.1,408.7 					"/>
					<polyline fill="none" stroke="#FFFFFF" stroke-width="1.2581" stroke-miterlimit="10" points="147.8,392.5 144.8,392.6 
						142.8,397 142,379.7 144.4,384.2 147.4,384.1 					"/>
				</g>
				<g>
					<path fill="none" stroke="#FFFFFF" stroke-width="1.2581" stroke-miterlimit="10" d="M255.4,471.1l33.7,0.9
						c3.2,0.1,5.6,1.2,5.3,2.5l-2.1,8.6c-0.3,1.1-2.8,1.8-5.6,1.8l-29.5-0.8c-2.8-0.1-5.3-1-5.5-2l-1.7-8.7
						C249.8,472,252.2,471,255.4,471.1z"/>
					<polyline fill="none" stroke="#FFFFFF" stroke-width="1.2581" stroke-miterlimit="10" points="250,473.3 250.1,468.6 
						253.4,467.7 291.7,468.7 294.6,469.8 294.4,474.5 					"/>
					<polyline fill="none" stroke="#FFFFFF" stroke-width="1.2581" stroke-miterlimit="10" points="277.4,484.6 277.3,487.6 
						281.5,489.9 264.2,489.5 268.9,487.4 269,484.4 					"/>
				</g>
			</g>
			<g>
				<g>
					<rect x="382.7" y="341" fill="none" stroke="#FFFFFF" stroke-miterlimit="10" width="59" height="57.9"/>
					<rect x="404.4" y="341" fill="none" stroke="#FFFFFF" stroke-miterlimit="10" width="37.2" height="62.9"/>
					<rect x="404.4" y="341" fill="none" stroke="#FFFFFF" stroke-miterlimit="10" width="37.2" height="39.1"/>
					<rect x="382.7" y="341" fill="none" stroke="#FFFFFF" stroke-miterlimit="10" width="19" height="62.9"/>
					<rect x="419.1" y="378.7" fill="#465E61" stroke="#FFFFFF" stroke-miterlimit="10" width="17.3" height="11.6"/>
					<polyline fill="#465E61" stroke="#FFFFFF" stroke-miterlimit="10" points="382.7,350.7 376.1,348.9 376.1,369 382.7,367.2 
											"/>
					<polyline fill="#465E61" stroke="#FFFFFF" stroke-miterlimit="10" points="436.4,346.8 427.7,351.1 427.7,368 436,371.1 					
						"/>
				</g>
				<g>
					<rect x="307.3" y="336" fill="none" stroke="#FFFFFF" stroke-miterlimit="10" width="59" height="57.9"/>
					<rect x="329.1" y="336" fill="none" stroke="#FFFFFF" stroke-miterlimit="10" width="37.2" height="62.9"/>
					<rect x="329.1" y="336" fill="none" stroke="#FFFFFF" stroke-miterlimit="10" width="37.2" height="39.1"/>
					<rect x="307.3" y="336" fill="none" stroke="#FFFFFF" stroke-miterlimit="10" width="19" height="62.9"/>
					<rect x="343.7" y="373.7" fill="#465E61" stroke="#FFFFFF" stroke-miterlimit="10" width="17.3" height="11.6"/>
					<polyline fill="#465E61" stroke="#FFFFFF" stroke-miterlimit="10" points="307.3,345.7 300.8,344 300.8,364 307.3,362.2 					
						"/>
					<polyline fill="#465E61" stroke="#FFFFFF" stroke-miterlimit="10" points="361,341.8 352.4,346.1 352.4,363 360.6,366.1 					
						"/>
				</g>
			</g>
		</g>
		<g>
			<polygon fill="#35484A" stroke="#FFFFFF" stroke-miterlimit="10" points="504.5,414 488.5,398.1 488.5,304.4 477,292.8 
				505.6,264.1 505.6,179 528.4,156.2 625.3,156.2 625.3,67 595.3,67 595.3,126.2 515.9,126.2 475.6,166.6 475.6,251.7 456,271.3 
				91.2,271.3 91.2,301.3 363.9,301.3 363.9,441.9 393.9,441.9 393.9,301.3 443.1,301.3 458.5,316.8 458.5,410.5 492,444 738,444 
				842.5,523.1 842.5,489.1 743,414 			"/>
			<g>
				<line fill="none" stroke="#FFFFFF" stroke-miterlimit="10" stroke-dasharray="3" x1="90.5" y1="300.8" x2="90.2" y2="271.7"/>
				<line fill="none" stroke="#FFFFFF" stroke-miterlimit="10" stroke-dasharray="3" x1="140.8" y1="300.6" x2="140.4" y2="271.7"/>
				<line fill="none" stroke="#FFFFFF" stroke-miterlimit="10" stroke-dasharray="3" x1="191" y1="300.3" x2="190.6" y2="271.8"/>
				<line fill="none" stroke="#FFFFFF" stroke-miterlimit="10" stroke-dasharray="3" x1="241.2" y1="300" x2="240.8" y2="271.8"/>
				<line fill="none" stroke="#FFFFFF" stroke-miterlimit="10" stroke-dasharray="3" x1="291.5" y1="299.7" x2="290.9" y2="271.8"/>
				<line fill="none" stroke="#FFFFFF" stroke-miterlimit="10" stroke-dasharray="3" x1="341.7" y1="299.4" x2="341.1" y2="271.9"/>
				<line fill="none" stroke="#FFFFFF" stroke-miterlimit="10" stroke-dasharray="3" x1="392" y1="299.1" x2="391.3" y2="271.9"/>
				<line fill="none" stroke="#FFFFFF" stroke-miterlimit="10" stroke-dasharray="3" x1="442.2" y1="298.8" x2="441.5" y2="271.9"/>
				<line fill="none" stroke="#FFFFFF" stroke-miterlimit="10" stroke-dasharray="3" x1="493.2" y1="273.9" x2="474.6" y2="254.9"/>
				<line fill="none" stroke="#FFFFFF" stroke-miterlimit="10" stroke-dasharray="3" x1="502.9" y1="216.4" x2="476.7" y2="217.1"/>
				<line fill="none" stroke="#FFFFFF" stroke-miterlimit="10" stroke-dasharray="3" x1="503.6" y1="177.3" x2="484.7" y2="159.5"/>
				<line fill="none" stroke="#FFFFFF" stroke-miterlimit="10" stroke-dasharray="3" x1="533.5" y1="154" x2="532.7" y2="128.4"/>
				<line fill="none" stroke="#FFFFFF" stroke-miterlimit="10" stroke-dasharray="3" x1="583.8" y1="153.9" x2="582.9" y2="128.6"/>
				<line fill="none" stroke="#FFFFFF" stroke-miterlimit="10" stroke-dasharray="3" x1="622.3" y1="116.9" x2="597.4" y2="117.5"/>
				<line fill="none" stroke="#FFFFFF" stroke-miterlimit="10" stroke-dasharray="3" x1="622.8" y1="66.6" x2="598.2" y2="67.3"/>
			</g>
			<g>
				<line fill="none" stroke="#FFFFFF" stroke-miterlimit="10" stroke-dasharray="3" x1="363.9" y1="441.9" x2="393.9" y2="441.9"/>
				<line fill="none" stroke="#FFFFFF" stroke-miterlimit="10" stroke-dasharray="3" x1="363.9" y1="394.9" x2="393.9" y2="394.9"/>
				<line fill="none" stroke="#FFFFFF" stroke-miterlimit="10" stroke-dasharray="3" x1="363.9" y1="347.9" x2="393.9" y2="347.9"/>
				<line fill="none" stroke="#FFFFFF" stroke-miterlimit="10" stroke-dasharray="3" x1="363.9" y1="300.8" x2="393.9" y2="300.8"/>
			</g>
			<g>
				<line fill="none" stroke="#FFFFFF" stroke-miterlimit="10" stroke-dasharray="3" x1="456.1" y1="313.9" x2="478.7" y2="294.1"/>
				<line fill="none" stroke="#FFFFFF" stroke-miterlimit="10" stroke-dasharray="3" x1="459.4" y1="344.4" x2="489.4" y2="344.4"/>
				<line fill="none" stroke="#FFFFFF" stroke-miterlimit="10" stroke-dasharray="3" x1="459.4" y1="393.8" x2="489.4" y2="393.8"/>
				<line fill="none" stroke="#FFFFFF" stroke-miterlimit="10" stroke-dasharray="3" x1="558.4" y1="414.5" x2="558.4" y2="444.5"/>
				<line fill="none" stroke="#FFFFFF" stroke-miterlimit="10" stroke-dasharray="3" x1="607.5" y1="414.5" x2="607.5" y2="444.5"/>
				<line fill="none" stroke="#FFFFFF" stroke-miterlimit="10" stroke-dasharray="3" x1="658.4" y1="414.5" x2="658.4" y2="444.5"/>
				<line fill="none" stroke="#FFFFFF" stroke-miterlimit="10" stroke-dasharray="3" x1="712.2" y1="414.5" x2="712.2" y2="444.5"/>
				<line fill="none" stroke="#FFFFFF" stroke-miterlimit="10" stroke-dasharray="3" x1="775.3" y1="434.6" x2="757.6" y2="458.8"/>
				<line fill="none" stroke="#FFFFFF" stroke-miterlimit="10" stroke-dasharray="3" x1="814.1" y1="462.4" x2="796.4" y2="486.6"/>
				<line fill="none" stroke="#FFFFFF" stroke-miterlimit="10" stroke-dasharray="3" x1="511.1" y1="414.5" x2="511.1" y2="444.5"/>
			</g>
		</g>
		<g>
			<g>
				<g>
					<circle fill="none" stroke="#FFFFFF" stroke-miterlimit="10" cx="568.7" cy="170.7" r="3.2"/>
					<path fill="none" stroke="#FFFFFF" stroke-miterlimit="10" d="M552.5,168v-5.7c0-5.6,4.6-10.2,10.2-10.2h6.5
						c5.6,0,10.2,4.6,10.2,10.2v16.9c0,5.6-4.6,10.2-10.2,10.2h-6.5c-5.6,0-10.2-4.6-10.2-10.2v-6.1"/>
					<path fill="none" stroke="#FFFFFF" stroke-miterlimit="10" d="M561.2,170.7c0,1.5-6.8,2.8-10.8,2.8c-4,0-3.6-1.2-3.6-2.8
						c0-1.5-0.4-2.8,3.6-2.8C554.3,168,561.2,169.2,561.2,170.7z"/>
					<polygon fill="none" stroke="#FFFFFF" stroke-miterlimit="10" points="547.7,166.3 546.8,164.6 547.7,162.9 549.7,162.9 
						550.6,164.6 549.7,166.3 					"/>
					<polygon fill="none" stroke="#FFFFFF" stroke-miterlimit="10" points="547.7,179 546.8,177.3 547.7,175.7 549.7,175.7 
						550.6,177.3 549.7,179 					"/>
				</g>
				<g>
					<circle fill="none" stroke="#FFFFFF" stroke-miterlimit="10" cx="568.7" cy="124.4" r="3.2"/>
					<path fill="none" stroke="#FFFFFF" stroke-miterlimit="10" d="M552.5,121.6V116c0-5.6,4.6-10.2,10.2-10.2h6.5
						c5.6,0,10.2,4.6,10.2,10.2v16.9c0,5.6-4.6,10.2-10.2,10.2h-6.5c-5.6,0-10.2-4.6-10.2-10.2v-6.1"/>
					<path fill="none" stroke="#FFFFFF" stroke-miterlimit="10" d="M561.2,124.4c0,1.5-6.8,2.8-10.8,2.8c-4,0-3.6-1.2-3.6-2.8
						s-0.4-2.8,3.6-2.8C554.3,121.6,561.2,122.9,561.2,124.4z"/>
					<polygon fill="none" stroke="#FFFFFF" stroke-miterlimit="10" points="547.7,119.9 546.8,118.3 547.7,116.6 549.7,116.6 
						550.6,118.3 549.7,119.9 					"/>
					<polygon fill="none" stroke="#FFFFFF" stroke-miterlimit="10" points="547.7,132.7 546.8,131 547.7,129.3 549.7,129.3 
						550.6,131 549.7,132.7 					"/>
				</g>
			</g>
			<g>
				<g>
					<ellipse fill="none" stroke="#FFFFFF" stroke-miterlimit="10" cx="693.1" cy="135.1" rx="20.5" ry="15"/>
					<ellipse fill="none" stroke="#FFFFFF" stroke-miterlimit="10" cx="699.3" cy="135.1" rx="8.7" ry="7.4"/>
					<ellipse fill="none" stroke="#FFFFFF" stroke-miterlimit="10" cx="693.8" cy="135.1" rx="14.6" ry="10"/>
					<path fill="#465E61" stroke="#FFFFFF" stroke-miterlimit="10" d="M712.5,119.2h3.1c1.9,0,3.5,1.6,3.5,3.5v24.8
						c0,1.9-1.6,3.5-3.5,3.5h-3.1c-1.9,0-3.5-1.6-3.5-3.5v-24.8C709,120.8,710.6,119.2,712.5,119.2z"/>
				</g>
				<g>
					<ellipse fill="none" stroke="#FFFFFF" stroke-miterlimit="10" cx="693.1" cy="198.5" rx="20.5" ry="15"/>
					<ellipse fill="none" stroke="#FFFFFF" stroke-miterlimit="10" cx="699.3" cy="198.5" rx="8.7" ry="7.4"/>
					<ellipse fill="none" stroke="#FFFFFF" stroke-miterlimit="10" cx="693.8" cy="198.5" rx="14.6" ry="10"/>
					<path fill="#465E61" stroke="#FFFFFF" stroke-miterlimit="10" d="M712.5,182.5h3.1c1.9,0,3.5,1.6,3.5,3.5v24.8
						c0,1.9-1.6,3.5-3.5,3.5h-3.1c-1.9,0-3.5-1.6-3.5-3.5V186C709,184.1,710.6,182.5,712.5,182.5z"/>
				</g>
				<g>
					<ellipse fill="none" stroke="#FFFFFF" stroke-miterlimit="10" cx="693.1" cy="260.9" rx="20.5" ry="15"/>
					<ellipse fill="none" stroke="#FFFFFF" stroke-miterlimit="10" cx="699.3" cy="260.9" rx="8.7" ry="7.4"/>
					<ellipse fill="none" stroke="#FFFFFF" stroke-miterlimit="10" cx="693.8" cy="260.9" rx="14.6" ry="10"/>
					<path fill="#465E61" stroke="#FFFFFF" stroke-miterlimit="10" d="M712.5,244.9h3.1c1.9,0,3.5,1.6,3.5,3.5v24.8
						c0,1.9-1.6,3.5-3.5,3.5h-3.1c-1.9,0-3.5-1.6-3.5-3.5v-24.8C709,246.5,710.6,244.9,712.5,244.9z"/>
				</g>
			</g>
			<g>
				<polygon fill="none" stroke="#FFFFFF" stroke-miterlimit="10" points="842.5,59.5 842.5,50.5 764.9,49.9 582.2,49.9 558.2,73.9 
					558.2,86.8 567.2,86.8 567.2,77.6 585.9,58.9 765.5,58.9 765.5,118.3 752.7,131.1 726.2,131.1 726.2,139.1 756,139.1 
					765.5,129.6 765.5,183 752.7,195.9 726.2,195.9 726.2,203.9 756,203.9 765.5,194.3 765.5,245.4 752.7,258.2 726.2,258.2 
					726.2,266.2 756,266.2 773.5,248.7 773.5,186.3 773.5,183.2 773.5,121.6 773.5,120.8 773.5,58.9 773.9,58.9 				"/>
				<circle fill="#FFFFFF" cx="768.5" cy="54.2" r="13.4"/>
				<path fill="#68BCC2" d="M772.1,55.7c0,2.7-1.6,3.8-3.6,3.8s-3.6-1.1-3.6-3.8c0-2.7,3.6-8.1,3.6-8.1S772.1,53,772.1,55.7z"/>
			</g>
		</g>
	</g>
</g>
</svg>
