<?xml version="1.0" encoding="utf-8"?>
<!-- Generator: Adobe Illustrator 18.1.1, SVG Export Plug-In . SVG Version: 6.00 Build 0)  -->
<!DOCTYPE svg PUBLIC "-//W3C//DTD SVG 1.1//EN" "http://www.w3.org/Graphics/SVG/1.1/DTD/svg11.dtd">
<svg version="1.1" id="Layer_1" xmlns="http://www.w3.org/2000/svg" xmlns:xlink="http://www.w3.org/1999/xlink" x="0px" y="0px"
	 viewBox="0 0 874.5 580.5" enable-background="new 0 0 874.5 580.5" xml:space="preserve">
<path fill="none" stroke="#E0BB9B" stroke-width="10.7796" stroke-linecap="square" stroke-miterlimit="10" d="M393.6,296"/>
<path fill="none" stroke="#FFFFFF" stroke-width="1.2581" stroke-miterlimit="10" d="M282.6,406.1h6.1c-0.1,0.9-0.5,1.6-1,2.2
	c-0.6,0.6-1.2,0.9-2,0.9c-0.8,0-1.5-0.3-2-0.9C283.1,407.8,282.8,407,282.6,406.1z M281.2,405.4h9.1l0.4-3.8h-9.9L281.2,405.4z
	 M296,387.4c0,2.7-0.9,5-2.7,6.9c0,0-0.1,0.1-0.1,0.2c-0.1,0.2-0.2,0.4-0.4,0.6c-0.3,0.5-0.6,1.1-0.8,1.7c-0.3,0.6-0.5,1.3-0.7,1.9
	c0,0.1-0.1,0.2-0.1,0.3c0,0.2,0,0.3-0.1,0.3c0,0,0,0.1-0.1,0.2c0,0.1,0,0.2,0,0.2v0.1v1v1.2h-1.2h-1h-6.2h-1h-1.2v-1.2v-1l0-0.1
	c0-0.1,0-0.2-0.1-0.4c0-0.2-0.1-0.4-0.1-0.5c-0.2-0.6-0.4-1.3-0.7-1.9c-0.3-0.6-0.6-1.2-0.9-1.8c-0.1-0.2-0.3-0.5-0.4-0.6
	c0,0-0.1-0.1-0.1-0.2v0c-1.8-1.9-2.6-4.2-2.6-6.8c0-2.8,1-5.2,3-7.2c2-2,4.4-3,7.2-3c2.8,0,5.2,1,7.2,3
	C294.9,382.2,296,384.6,296,387.4z M281.2,385.5l1.9,3.7l0.8,1.7l0.8-1.7l1-2.1l1,2.1l0.8,1.7l0.8-1.7l1.9-3.7"/>
<g>
	<g>
		<g>
			<path opacity="0.5" fill="none" stroke="#FFFFFF" stroke-width="2" stroke-miterlimit="10" d="M187.5,459.7
				c5.4,0,9.8,4.4,9.8,9.8"/>
			<path opacity="0.4556" fill="none" stroke="#FFFFFF" stroke-width="2" stroke-miterlimit="10" d="M187.1,445.3
				c13.6,0,24.6,11,24.6,24.6"/>
			<path opacity="0.4111" fill="none" stroke="#FFFFFF" stroke-width="2" stroke-miterlimit="10" d="M186.7,430.9
				c21.8,0,39.5,17.7,39.5,39.5"/>
			<path opacity="0.3667" fill="none" stroke="#FFFFFF" stroke-width="2" stroke-miterlimit="10" d="M186.4,416.6
				c30,0,54.3,24.3,54.3,54.3"/>
			<path opacity="0.3222" fill="none" stroke="#FFFFFF" stroke-width="2" stroke-miterlimit="10" d="M186,402.2
				c38.2,0,69.1,31,69.1,69.1"/>
			<path opacity="0.2778" fill="none" stroke="#FFFFFF" stroke-width="2" stroke-miterlimit="10" d="M185.6,387.8
				c46.4,0,84,37.6,84,84"/>
			<path opacity="0.2333" fill="none" stroke="#FFFFFF" stroke-width="2" stroke-miterlimit="10" d="M185.2,373.4
				c54.6,0,98.8,44.2,98.8,98.8"/>
			<path opacity="0.1889" fill="none" stroke="#FFFFFF" stroke-width="2" stroke-miterlimit="10" d="M184.9,359
				c62.8,0,113.7,50.9,113.7,113.7"/>
			<path opacity="0.1444" fill="none" stroke="#FFFFFF" stroke-width="2" stroke-miterlimit="10" d="M184.5,344.6
				c71,0,128.5,57.5,128.5,128.5"/>
			<path opacity="0.1" fill="none" stroke="#FFFFFF" stroke-width="2" stroke-miterlimit="10" d="M184.1,330.2
				c79.2,0,143.3,64.2,143.3,143.3"/>
		</g>
		<circle fill="#FFFFFF" stroke="#FFFFFF" stroke-width="2" stroke-miterlimit="10" cx="185.5" cy="472.6" r="6.5"/>
	</g>
	<g>
		<g>
			<polyline fill="none" stroke="#5BCFBA" stroke-width="1.0002" stroke-miterlimit="10" points="723.2,96.9 741.2,114.9 
				741.2,310.3 615.2,310.3 590.8,285.2 			"/>
			<g>
				
					<rect x="720" y="93.8" transform="matrix(-0.7071 0.7071 -0.7071 -0.7071 1303.4567 -345.7643)" fill="#5BCFBA" width="6.6" height="6.6"/>
			</g>
			<g>
				<circle fill="#5BCFBA" cx="590.9" cy="285.4" r="3.8"/>
			</g>
		</g>
	</g>
	<g>
		<g>
			<polyline fill="none" stroke="#5BCFBA" stroke-width="1.0002" stroke-miterlimit="10" points="184,508.2 201.9,525.8 
				260.7,525.8 285.7,502 285.4,420.5 			"/>
			<g>
				
					<rect x="180.8" y="505" transform="matrix(-0.7009 0.7133 -0.7133 -0.7009 675.7426 733.3)" fill="#5BCFBA" width="6.6" height="6.6"/>
			</g>
			<g>
				<circle fill="#5BCFBA" cx="285.4" cy="420.7" r="3.8"/>
			</g>
		</g>
	</g>
	<g>
		<g>
			<polyline fill="none" stroke="#5BCFBA" stroke-width="1.0002" stroke-miterlimit="10" points="741.2,307.3 741.2,434.7 
				614,434.7 552.6,373.4 			"/>
			<g>
				<circle fill="#5BCFBA" cx="552.7" cy="373.5" r="3.8"/>
			</g>
		</g>
	</g>
	<path fill="none" stroke="#FFFFFF" stroke-width="1.2581" stroke-miterlimit="10" d="M588.2,273.4h6.1c-0.1,0.9-0.5,1.6-1,2.2
		c-0.6,0.6-1.2,0.9-2,0.9c-0.8,0-1.5-0.3-2-0.9C588.7,275,588.3,274.3,588.2,273.4z M586.7,272.6h9.1l0.4-3.8h-9.9L586.7,272.6z
		 M601.5,254.6c0,2.7-0.9,5-2.7,6.9c0,0-0.1,0.1-0.1,0.2c-0.1,0.2-0.2,0.4-0.4,0.6c-0.3,0.5-0.6,1.1-0.8,1.7
		c-0.3,0.6-0.5,1.3-0.7,1.9c0,0.1-0.1,0.2-0.1,0.3c0,0.2,0,0.3-0.1,0.3c0,0,0,0.1-0.1,0.2c0,0.1,0,0.2,0,0.2v0.1v1v1.2h-1.2h-1h-6.2
		h-1H586V268v-1l0-0.1c0-0.1,0-0.2-0.1-0.4c0-0.2-0.1-0.4-0.1-0.5c-0.2-0.6-0.4-1.3-0.7-1.9c-0.3-0.6-0.6-1.2-0.9-1.8
		c-0.1-0.2-0.3-0.5-0.4-0.6c0,0-0.1-0.1-0.1-0.2v0c-1.8-1.9-2.6-4.2-2.6-6.8c0-2.8,1-5.2,3-7.2c2-2,4.4-3,7.2-3s5.2,1,7.2,3
		C600.5,249.4,601.5,251.8,601.5,254.6z M586.7,252.8l1.9,3.7l0.8,1.7l0.8-1.7l1-2.1l1,2.1l0.8,1.7l0.8-1.7l1.9-3.7"/>
	<path fill="none" stroke="#FFFFFF" stroke-width="1.2581" stroke-miterlimit="10" d="M547.8,360.9h6.1c-0.1,0.9-0.5,1.6-1,2.2
		c-0.6,0.6-1.2,0.9-2,0.9c-0.8,0-1.5-0.3-2-0.9C548.3,362.5,548,361.8,547.8,360.9z M546.4,360.1h9.1l0.4-3.8h-9.9L546.4,360.1z
		 M561.1,342.1c0,2.7-0.9,5-2.7,6.9c0,0-0.1,0.1-0.1,0.2c-0.1,0.2-0.2,0.4-0.4,0.6c-0.3,0.5-0.6,1.1-0.8,1.7
		c-0.3,0.6-0.5,1.3-0.7,1.9c0,0.1-0.1,0.2-0.1,0.3c0,0.2,0,0.3-0.1,0.3c0,0,0,0.1-0.1,0.2c0,0.1,0,0.2,0,0.2v0.1v1v1.2H555h-1h-6.2
		h-1h-1.2v-1.2v-1l0-0.1c0-0.1,0-0.2-0.1-0.4c0-0.2-0.1-0.4-0.1-0.5c-0.2-0.6-0.4-1.3-0.7-1.9c-0.3-0.6-0.6-1.2-0.9-1.8
		c-0.1-0.2-0.3-0.5-0.4-0.6c0,0-0.1-0.1-0.1-0.2v0c-1.8-1.9-2.6-4.2-2.6-6.8c0-2.8,1-5.2,3-7.2c2-2,4.4-3,7.2-3s5.2,1,7.2,3
		C560.1,336.9,561.1,339.3,561.1,342.1z M546.3,340.3l1.9,3.7l0.8,1.7l0.8-1.7l1-2.1l1,2.1l0.8,1.7l0.8-1.7l1.9-3.7"/>
	<g>
		<g>
			<path opacity="0.5" fill="none" stroke="#FFFFFF" stroke-width="2" stroke-miterlimit="10" d="M683.1,104.6
				c-5.4,0-9.8-4.4-9.8-9.8"/>
			<path opacity="0.4556" fill="none" stroke="#FFFFFF" stroke-width="2" stroke-miterlimit="10" d="M683.5,119
				c-13.6,0-24.6-11-24.6-24.6"/>
			<path opacity="0.4111" fill="none" stroke="#FFFFFF" stroke-width="2" stroke-miterlimit="10" d="M683.9,133.4
				c-21.8,0-39.5-17.7-39.5-39.5"/>
			<path opacity="0.3667" fill="none" stroke="#FFFFFF" stroke-width="2" stroke-miterlimit="10" d="M684.3,147.7
				c-30,0-54.3-24.3-54.3-54.3"/>
			<path opacity="0.3222" fill="none" stroke="#FFFFFF" stroke-width="2" stroke-miterlimit="10" d="M684.6,162.1
				c-38.2,0-69.1-31-69.1-69.1"/>
			<path opacity="0.2778" fill="none" stroke="#FFFFFF" stroke-width="2" stroke-miterlimit="10" d="M685,176.5
				c-46.4,0-84-37.6-84-84"/>
			<path opacity="0.2333" fill="none" stroke="#FFFFFF" stroke-width="2" stroke-miterlimit="10" d="M685.4,190.9
				c-54.6,0-98.8-44.2-98.8-98.8"/>
			<path opacity="0.1889" fill="none" stroke="#FFFFFF" stroke-width="2" stroke-miterlimit="10" d="M685.8,205.3
				c-62.8,0-113.7-50.9-113.7-113.7"/>
			<path opacity="0.1444" fill="none" stroke="#FFFFFF" stroke-width="2" stroke-miterlimit="10" d="M686.1,219.7
				c-71,0-128.5-57.5-128.5-128.5"/>
			<path opacity="0.1" fill="none" stroke="#FFFFFF" stroke-width="2" stroke-miterlimit="10" d="M686.5,234.1
				c-79.2,0-143.3-64.2-143.3-143.3"/>
		</g>
		<circle fill="#FFFFFF" stroke="#FFFFFF" stroke-width="2" stroke-miterlimit="10" cx="685.2" cy="91.7" r="6.5"/>
	</g>
</g>
</svg>
