<?xml version="1.0" encoding="utf-8"?>
<!-- Generator: Adobe Illustrator 18.1.1, SVG Export Plug-In . SVG Version: 6.00 Build 0)  -->
<!DOCTYPE svg PUBLIC "-//W3C//DTD SVG 1.1//EN" "http://www.w3.org/Graphics/SVG/1.1/DTD/svg11.dtd">
<svg version="1.1" id="Layer_1" xmlns="http://www.w3.org/2000/svg" xmlns:xlink="http://www.w3.org/1999/xlink" x="0px" y="0px"
	 viewBox="0 0 874.5 580.5" enable-background="new 0 0 874.5 580.5" xml:space="preserve">
<g>
	<g>
		<g>
			<g>
				<g>
					<path fill="none" stroke="#FFFFFF" stroke-width="1.2581" stroke-miterlimit="10" d="M159.7,369.6l1.5,33.7
						c0.1,3.2-0.8,5.7-2.1,5.4l-8.8-1.5c-1.1-0.2-2-2.6-2.2-5.5l-1.4-29.5c-0.1-2.8,0.6-5.3,1.6-5.6l8.6-2.3
						C158.4,364,159.5,366.4,159.7,369.6z"/>
					<polyline fill="none" stroke="#FFFFFF" stroke-width="1.2581" stroke-miterlimit="10" points="157.1,364.4 161.8,364.1 
						162.9,367.4 164.7,405.6 163.8,408.6 159.1,408.7 					"/>
					<polyline fill="none" stroke="#FFFFFF" stroke-width="1.2581" stroke-miterlimit="10" points="147.8,392.5 144.8,392.6 
						142.8,397 142,379.7 144.4,384.2 147.4,384.1 					"/>
				</g>
				<g>
					<path fill="none" stroke="#FFFFFF" stroke-width="1.2581" stroke-miterlimit="10" d="M255.4,471.1l33.7,0.9
						c3.2,0.1,5.6,1.2,5.3,2.5l-2.1,8.6c-0.3,1.1-2.8,1.8-5.6,1.8l-29.5-0.8c-2.8-0.1-5.3-1-5.5-2l-1.7-8.7
						C249.8,472,252.2,471,255.4,471.1z"/>
					<polyline fill="none" stroke="#FFFFFF" stroke-width="1.2581" stroke-miterlimit="10" points="250,473.3 250.1,468.6 
						253.4,467.7 291.7,468.7 294.6,469.8 294.4,474.5 					"/>
					<polyline fill="none" stroke="#FFFFFF" stroke-width="1.2581" stroke-miterlimit="10" points="277.4,484.6 277.3,487.6 
						281.5,489.9 264.2,489.5 268.9,487.4 269,484.4 					"/>
				</g>
			</g>
			<g>
				<g>
					<rect x="382.7" y="341" fill="none" stroke="#FFFFFF" stroke-miterlimit="10" width="59" height="57.9"/>
					<rect x="404.4" y="341" fill="none" stroke="#FFFFFF" stroke-miterlimit="10" width="37.2" height="62.9"/>
					<rect x="404.4" y="341" fill="none" stroke="#FFFFFF" stroke-miterlimit="10" width="37.2" height="39.1"/>
					<rect x="382.7" y="341" fill="none" stroke="#FFFFFF" stroke-miterlimit="10" width="19" height="62.9"/>
					<rect x="419.1" y="378.7" fill="#465E61" stroke="#FFFFFF" stroke-miterlimit="10" width="17.3" height="11.6"/>
					<polyline fill="#465E61" stroke="#FFFFFF" stroke-miterlimit="10" points="382.7,350.7 376.1,348.9 376.1,369 382.7,367.2 
											"/>
					<polyline fill="#465E61" stroke="#FFFFFF" stroke-miterlimit="10" points="436.4,346.8 427.7,351.1 427.7,368 436,371.1 					
						"/>
				</g>
				<g>
					<rect x="307.3" y="336" fill="none" stroke="#FFFFFF" stroke-miterlimit="10" width="59" height="57.9"/>
					<rect x="329.1" y="336" fill="none" stroke="#FFFFFF" stroke-miterlimit="10" width="37.2" height="62.9"/>
					<rect x="329.1" y="336" fill="none" stroke="#FFFFFF" stroke-miterlimit="10" width="37.2" height="39.1"/>
					<rect x="307.3" y="336" fill="none" stroke="#FFFFFF" stroke-miterlimit="10" width="19" height="62.9"/>
					<rect x="343.7" y="373.7" fill="#465E61" stroke="#FFFFFF" stroke-miterlimit="10" width="17.3" height="11.6"/>
					<polyline fill="#465E61" stroke="#FFFFFF" stroke-miterlimit="10" points="307.3,345.7 300.8,344 300.8,364 307.3,362.2 					
						"/>
					<polyline fill="#465E61" stroke="#FFFFFF" stroke-miterlimit="10" points="361,341.8 352.4,346.1 352.4,363 360.6,366.1 					
						"/>
				</g>
			</g>
		</g>
	</g>
</g>
</svg>
