<?xml version="1.0" encoding="utf-8"?>
<!-- Generator: Adobe Illustrator 18.1.1, SVG Export Plug-In . SVG Version: 6.00 Build 0)  -->
<!DOCTYPE svg PUBLIC "-//W3C//DTD SVG 1.1//EN" "http://www.w3.org/Graphics/SVG/1.1/DTD/svg11.dtd">
<svg version="1.1" id="Layer_1" xmlns="http://www.w3.org/2000/svg" xmlns:xlink="http://www.w3.org/1999/xlink" x="0px" y="0px"
	 viewBox="0 0 874.5 580.5" enable-background="new 0 0 874.5 580.5" xml:space="preserve">
<symbol  id="New_Symbol_1_1_" viewBox="-27.8 -25.2 55.5 50.4">
	<g>
		<path fill="none" stroke="#E0BB9B" stroke-miterlimit="10" d="M-11,24.7h22.4c4.9,0,8.9-4,8.9-8.9V-7.7c0-4.9-4-8.9-8.9-8.9H-11
			c-4.9,0-8.9,4-8.9,8.9v23.6C-19.9,20.7-15.9,24.7-11,24.7z"/>
		<g>
			<path fill="none" stroke="#E0BB9B" stroke-miterlimit="10" d="M27.3-12.7"/>
			<path fill="none" stroke="#E0BB9B" stroke-miterlimit="10" d="M-19.6-8.3c0-4.7,3.9-8.6,8.6-8.6H11c4.7,0,8.6,3.9,8.6,8.6
				c0,9.2,7.7,6.3,7.7-4.5c0-6.2-5.4-12-12-12h-30.5c-6.6,0-11.3,5.7-11.3,12C-26.5-3.5-19.6-0.7-19.6-8.3z"/>
			<path fill="none" stroke="#E0BB9B" stroke-miterlimit="10" d="M19.6-8.3"/>
		</g>
		<path fill="none" stroke="#E0BB9B" stroke-miterlimit="10" d="M23.8,19.5L23.8,19.5c1.9,0,3.5-1.6,3.5-3.5V-6.7
			c0-1.9-1.6-3.5-3.5-3.5h0c-1.9,0-3.5,1.6-3.5,3.5V16C20.3,17.9,21.8,19.5,23.8,19.5z"/>
		<path fill="none" stroke="#E0BB9B" stroke-miterlimit="10" d="M-23.8,19.5L-23.8,19.5c1.9,0,3.5-1.6,3.5-3.5V-6.7
			c0-1.9-1.6-3.5-3.5-3.5h0c-1.9,0-3.5,1.6-3.5,3.5V16C-27.3,17.9-25.7,19.5-23.8,19.5z"/>
	</g>
</symbol>
<symbol  id="New_Symbol_2" viewBox="-33.2 -5.1 66.3 10.2">
	<line fill="none" stroke="#E0BB9B" stroke-width="4" stroke-miterlimit="10" x1="-33.2" y1="-3.1" x2="33.2" y2="-3.1"/>
	<line fill="none" stroke="#E0BB9B" stroke-width="2" stroke-miterlimit="10" x1="-21.6" y1="-0.7" x2="-21.6" y2="5.1"/>
	<line fill="none" stroke="#E0BB9B" stroke-width="2" stroke-miterlimit="10" x1="21.5" y1="-0.7" x2="21.5" y2="5.1"/>
</symbol>
<symbol  id="chair" viewBox="-23.7 -25.3 43.2 50.3">
	<path fill="none" stroke="#E0BB9B" stroke-width="1.3029" stroke-miterlimit="10" d="M15.4-24.6h-28.7c-1.9,0-3.4,1.5-3.4,3.4V7.3
		c0,1.9,1.5,3.4,3.4,3.4h28.7c1.9,0,3.4-1.5,3.4-3.4v-28.6C18.8-23.1,17.3-24.6,15.4-24.6z"/>
	<path fill="none" stroke="#E0BB9B" stroke-width="1.3029" stroke-miterlimit="10" d="M18.8,17.3c0-3.9-7.9-7-17.7-7
		s-17.7,3.2-17.7,7s7.9,7,17.7,7S18.8,21.2,18.8,17.3z"/>
	<path fill="none" stroke="#E0BB9B" stroke-width="1.3029" stroke-miterlimit="10" d="M-23.7,11.9"/>
</symbol>
<g id="New_Symbol_1">
</g>
<g>
	<g>
		<g>
			<rect x="153.7" y="93.1" fill="#465E61" width="530.6" height="386.2"/>
			<path fill="#E0BB9B" d="M678.9,98.5V474H159.1V98.5H678.9 M689.7,87.8H148.4v397h541.3V87.8L689.7,87.8z"/>
		</g>
		<g>
			<path fill="#E0BB9B" d="M688.7,88.8v395H151.3v-395H688.7 M689.7,87.8H150.3v397h539.3V87.8L689.7,87.8z"/>
		</g>
		<rect x="181.1" y="116.4" fill="none" stroke="#E0BB9B" stroke-miterlimit="10" width="477.8" height="339.6"/>
		<polygon fill="none" stroke="#E0BB9B" stroke-miterlimit="10" points="678.9,474 658.9,456.1 181.1,456.1 157,474.6 		"/>
		<polygon fill="none" stroke="#E0BB9B" stroke-miterlimit="10" points="678.9,98.8 658.9,117.1 181.1,117.1 157,98.3 		"/>
	</g>
</g>
<g>
	<g>
		<path fill="none" stroke="#E0BB9B" stroke-miterlimit="10" d="M605.5,239.3l-1.4,27.9c-0.3,6.1-5.5,10.8-11.6,10.5l-29.4-1.5
			c-6.1-0.3-10.8-5.5-10.5-11.6l1.4-27.9c0.3-6.1,5.5-10.8,11.6-10.5l29.4,1.5C601.1,228,605.9,233.2,605.5,239.3z"/>
		<g>
			<path fill="none" stroke="#E0BB9B" stroke-miterlimit="10" d="M559.5,277.8"/>
			<path fill="none" stroke="#E0BB9B" stroke-miterlimit="10" d="M566.2,231.5c-4.7-0.2-8.8,3.4-9,8.1l-1.1,21.8
				c-0.2,4.7,3.4,8.8,8.1,9c9.2,0.5,5.8,7.9-4.8,7.4c-6.2-0.3-11.6-6-11.3-12.5l1.5-30.3c0.3-6.5,6.3-10.9,12.5-10.6
				C571.3,224.9,573.8,231.9,566.2,231.5z"/>
			<path fill="none" stroke="#E0BB9B" stroke-miterlimit="10" d="M564.3,270.4"/>
		</g>
		<path fill="none" stroke="#E0BB9B" stroke-miterlimit="10" d="M591.6,276L591.6,276c-0.1,1.9-1.7,3.4-3.7,3.3l-22.5-1.1
			c-1.9-0.1-3.4-1.7-3.3-3.7v0c0.1-1.9,1.7-3.4,3.7-3.3l22.5,1.1C590.2,272.4,591.7,274,591.6,276z"/>
		<path fill="none" stroke="#E0BB9B" stroke-miterlimit="10" d="M594,228.8L594,228.8c-0.1,1.9-1.7,3.4-3.7,3.3l-22.5-1.1
			c-1.9-0.1-3.4-1.7-3.3-3.7v0c0.1-1.9,1.7-3.4,3.7-3.3l22.5,1.1C592.6,225.2,594.1,226.9,594,228.8z"/>
	</g>
	<g>
		<path fill="none" stroke="#E0BB9B" stroke-miterlimit="10" d="M607.7,145.1l0.7,28c0.2,6.1-4.7,11.2-10.8,11.3l-29.4,0.8
			c-6.1,0.2-11.2-4.7-11.3-10.8l-0.7-28c-0.2-6.1,4.7-11.2,10.8-11.3l29.4-0.8C602.4,134.2,607.5,139.1,607.7,145.1z"/>
		<g>
			<path fill="none" stroke="#E0BB9B" stroke-miterlimit="10" d="M564.7,187.1"/>
			<path fill="none" stroke="#E0BB9B" stroke-miterlimit="10" d="M567.9,140.4c-4.7,0.1-8.5,4.1-8.3,8.8l0.6,21.8
				c0.1,4.7,4.1,8.5,8.8,8.3c9.2-0.2,6.4,7.5-4.2,7.7c-6.2,0.2-12.1-5.1-12.2-11.6l-0.8-30.4c-0.2-6.6,5.4-11.3,11.6-11.5
				C572.5,133.4,575.5,140.2,567.9,140.4z"/>
			<path fill="none" stroke="#E0BB9B" stroke-miterlimit="10" d="M568.9,179.3"/>
		</g>
		<path fill="none" stroke="#E0BB9B" stroke-miterlimit="10" d="M596.6,182.8L596.6,182.8c0,1.9-1.5,3.5-3.4,3.6l-22.5,0.6
			c-1.9,0-3.5-1.5-3.6-3.4v0c0-1.9,1.5-3.5,3.4-3.6l22.5-0.6C595,179.3,596.6,180.9,596.6,182.8z"/>
		<path fill="none" stroke="#E0BB9B" stroke-miterlimit="10" d="M595.4,135.5L595.4,135.5c0,1.9-1.5,3.5-3.4,3.6l-22.5,0.6
			c-1.9,0-3.5-1.5-3.6-3.4v0c0-1.9,1.5-3.5,3.4-3.6l22.5-0.6C593.7,132.1,595.3,133.6,595.4,135.5z"/>
	</g>
	<polygon fill="none" stroke="#E0BB9B" stroke-width="1.2561" stroke-miterlimit="10" points="435.2,316.1 456.2,426.9 456.2,464.9 
		402.8,464.9 402.8,433.1 382.9,316.1 	"/>
	<polyline fill="none" stroke="#E0BB9B" stroke-width="4" stroke-miterlimit="10" points="402.8,464.9 402.8,433.1 382.9,316.1 
		432.2,316.1 	"/>
	<g>
		<polygon fill="#35484A" points="158.9,326.6 188.9,314.3 188.9,281.1 158.9,260.5 		"/>
		<g>
			<line fill="none" stroke="#E0BB9B" stroke-width="3" stroke-miterlimit="10" x1="208.4" y1="293.4" x2="158.3" y2="262.7"/>
			<g>
				<g>
					<path fill="none" stroke="#E0BB9B" stroke-miterlimit="10" d="M206.5,292.4c-0.2,0.4-0.5,0.9-0.7,1.3"/>
					<path fill="none" stroke="#E0BB9B" stroke-miterlimit="10" stroke-dasharray="3.0439,3.0439" d="M204.2,296.3
						c-10.3,16.7-28.4,28-49.1,29"/>
					<path fill="none" stroke="#E0BB9B" stroke-miterlimit="10" d="M153.6,325.4c-0.5,0-1,0-1.5,0"/>
				</g>
			</g>
		</g>
	</g>
	
		<use xlink:href="#chair"  width="43.2" height="50.3" id="XMLID_66_" x="-23.7" y="-25.3" transform="matrix(-0.9896 0.144 0.144 0.9896 299.4827 193.0709)" overflow="visible"/>
	
		<use xlink:href="#chair"  width="43.2" height="50.3" id="XMLID_65_" x="-23.7" y="-25.3" transform="matrix(-0.9124 0.4093 0.4093 0.9124 218.4814 193.0709)" overflow="visible"/>
	
		<use xlink:href="#chair"  width="43.2" height="50.3" id="XMLID_64_" x="-23.7" y="-25.3" transform="matrix(-1 -3.916070e-03 -3.916070e-03 1 379.101 191.3526)" overflow="visible"/>
	<path fill="none" stroke="#E0BB9B" stroke-width="1.2561" stroke-miterlimit="10" d="M483.3,113.3h-60.4c-4.4,0-8.4,1.6-11,4
		c-2.4-2.4-6.3-4-10.6-4h-51.5c-4.9,0-9.2,2-11.5,5.1c-2.5-3-6.9-5.1-11.9-5.1h-58.6c-4.5,0-8.5,1.6-11.1,4.2
		c-2.4-2.7-6.5-4.5-11.1-4.5h-51.5c-7.3,0-13.3,4.6-13.3,10.2v17c0,5.6,6,10.2,13.3,10.2h51.5c4.4,0,8.3-1.6,10.7-4.2
		c2.6,2.7,6.7,4.5,11.4,4.5h58.6c5,0,9.4-2,11.9-5.1c2.3,3,6.6,5.1,11.5,5.1h51.5c4.3,0,8.1-1.6,10.6-4c2.6,2.5,6.6,4,11,4h60.4
		c7.8,0,14.2-4.9,14.2-10.8v-15.7C497.5,118.2,491.1,113.3,483.3,113.3z"/>
	<path fill="none" stroke="#E0BB9B" stroke-width="1.2561" stroke-miterlimit="10" d="M642.1,119.9h19.3c3.4,0,6.1,2.8,6.1,6.1v65.9
		c0,3.4-2.8,6.1-6.1,6.1h-19.3c-3.4,0-6.1-2.8-6.1-6.1V126C636,122.6,638.7,119.9,642.1,119.9z"/>
	
		<use xlink:href="#chair"  width="43.2" height="50.3" id="XMLID_63_" x="-23.7" y="-25.3" transform="matrix(-0.9911 -0.1334 -0.1334 0.9911 454.8732 191.3526)" overflow="visible"/>
	
		<use xlink:href="#New_Symbol_1_1_"  width="55.5" height="50.4" x="-27.8" y="-25.2" transform="matrix(-1.354336e-02 0.9999 0.9999 1.354336e-02 191.5526 380.4339)" overflow="visible"/>
	
		<use xlink:href="#New_Symbol_1_1_"  width="55.5" height="50.4" id="XMLID_62_" x="-27.8" y="-25.2" transform="matrix(0.9951 9.847996e-02 9.847996e-02 -0.9951 247.1056 433.0703)" overflow="visible"/>
	
		<use xlink:href="#New_Symbol_1_1_"  width="55.5" height="50.4" id="XMLID_61_" x="-27.8" y="-25.2" transform="matrix(0.6308 -0.7759 -0.7759 -0.6308 318.3451 429.3664)" overflow="visible"/>
	
		<use xlink:href="#New_Symbol_1_1_"  width="55.5" height="50.4" id="XMLID_60_" x="-27.8" y="-25.2" transform="matrix(-0.138 -0.9904 -0.9904 0.138 345.1251 356.0081)" overflow="visible"/>
	<path fill="none" stroke="#E0BB9B" stroke-width="1.2561" stroke-miterlimit="10" d="M642.1,211.9h19.3c3.4,0,6.1,2.8,6.1,6.1v65.9
		c0,3.4-2.8,6.1-6.1,6.1h-19.3c-3.4,0-6.1-2.8-6.1-6.1V218C636,214.6,638.7,211.9,642.1,211.9z"/>
	
		<use xlink:href="#New_Symbol_2"  width="66.3" height="10.2" x="-33.2" y="-5.1" transform="matrix(1 0 0 -0.7637 219.1005 107.2584)" overflow="visible"/>
	
		<use xlink:href="#New_Symbol_2"  width="66.3" height="10.2" x="-33.2" y="-5.1" transform="matrix(1 0 0 -0.7637 297.0564 107.2584)" overflow="visible"/>
	
		<use xlink:href="#New_Symbol_2"  width="66.3" height="10.2" x="-33.2" y="-5.1" transform="matrix(1 0 0 -0.7637 375.5201 107.2584)" overflow="visible"/>
	
		<use xlink:href="#New_Symbol_2"  width="66.3" height="10.2" x="-33.2" y="-5.1" transform="matrix(1 0 0 -0.7637 454.4828 107.2584)" overflow="visible"/>
	<line fill="#656565" stroke="#E0BB9B" stroke-width="10.7796" stroke-miterlimit="10" x1="521.4" y1="392" x2="521.4" y2="480.8"/>
	<polyline fill="none" stroke="#E0BB9B" stroke-width="10.7796" stroke-miterlimit="10" points="686.3,316.1 521.4,316.1 521.4,350 
			"/>
	<g>
		<line fill="none" stroke="#E0BB9B" stroke-width="3" stroke-miterlimit="10" x1="486.5" y1="372.9" x2="521.4" y2="394.6"/>
		<g>
			<g>
				<path fill="none" stroke="#E0BB9B" stroke-miterlimit="10" d="M486.5,372.9c0.2-0.4,0.5-0.9,0.7-1.3"/>
				<path fill="none" stroke="#E0BB9B" stroke-miterlimit="10" stroke-dasharray="3.048,3.048" d="M488.8,368.9
					c7.5-11.3,20-19,34.4-19.9"/>
				<path fill="none" stroke="#E0BB9B" stroke-miterlimit="10" d="M524.7,349c0.5,0,1,0,1.5,0"/>
			</g>
		</g>
	</g>
</g>
<path fill="none" stroke="#E0BB9B" stroke-width="1.2561" stroke-miterlimit="10" d="M225,133.4l-5.5,6.1l2.7,2.7l5.8-5.8l5.6-3.1
	l4.4,4.4l2.2-4.4l-4-4c0,0,0.6-4.5-6.4-4.5S225,133.4,225,133.4z"/>
<path fill="none" stroke="#E0BB9B" stroke-width="0.5" stroke-miterlimit="10" d="M239.3,135.9c0,0,4.3,4.3,8.4,0.2
	c4.1-4.1,0.2-3.7,4.6-11.2c4.4-7.5,8.9-10.4,8.9-10.4"/>
<path fill="none" stroke="#E0BB9B" stroke-width="1.2561" stroke-miterlimit="10" d="M428,126.9l-5.6-6l-3,2.5l5.2,6.3l2.5,5.9
	l-4.8,4l4.2,2.6l4.4-3.6c0,0,4.4,1,5.1-5.9S428,126.9,428,126.9z"/>
<path fill="none" stroke="#E0BB9B" stroke-width="0.5" stroke-miterlimit="10" d="M407.5,114.6c0,0,4.4,9.5,0,16.9
	c-4.4,7.5-25.5-8.4-21,0c4.5,8.4,11.1,19.5,16.9,13.7c5.8-5.8,21.6-4.1,21.6-4.1"/>
<g>
	<circle fill="none" stroke="#E0BB9B" stroke-width="1.2561" stroke-miterlimit="10" cx="304.4" cy="132.1" r="0.3"/>
	<path fill="none" stroke="#E0BB9B" stroke-width="1.2561" stroke-miterlimit="10" d="M301.1,140.7c0-1.2,0.8-2.1,1.7-2.1
		c0.9,0,1.6,1,1.6,2.1c0,1.2-0.8,2.1-1.7,2.1c-0.4,0-0.7-0.2-1-0.5C301.3,142,301.1,141.4,301.1,140.7L301.1,140.7z M305.5,131.8
		c0.1-0.9,0.4-5,0.3-7.7c-0.1-3.2-0.4-3.6-0.7-3.5l-1.8,11.9c-0.3,2.6,0.2,2.6-0.7,3.8c-0.5,0.8-1.3,1.6-1.7,2.2
		c-0.5,0.5-0.8,1.3-0.8,2.2c0,0.9,0.3,1.7,0.9,2.3c0.5,0.5,1,0.7,1.6,0.7c1.4,0,2.4-1.3,2.6-3c0.1-1.1-1-3.6-1-4.5
		c0-0.7,0.3-1.6,0.7-2.5C305.2,133.2,305.4,132.7,305.5,131.8z"/>
	<path fill="none" stroke="#E0BB9B" stroke-width="1.2561" stroke-miterlimit="10" d="M312.6,138.9c-0.1,0.4-0.3,0.7-0.6,1
		c-0.7,0.5-1.9,0.2-2.6-0.7c-0.7-0.9-0.6-2.1,0.1-2.7c0.7-0.5,1.9-0.2,2.6,0.7C312.5,137.7,312.6,138.4,312.6,138.9L312.6,138.9z
		 M304.9,133.8c0.8,0.5,1.6,1.1,2,1.6c0.5,0.8,1.1,3.5,1.8,4.3c1.1,1.3,2.7,1.8,3.8,0.9c0.5-0.4,0.8-0.9,0.9-1.5
		c0.1-0.8-0.1-1.7-0.6-2.4c-0.5-0.7-1.2-1.2-2-1.3c-0.6-0.2-1.8-0.5-2.7-0.8c-1.4-0.5-1-0.8-2.7-2.7l-8.3-8.7
		c-0.2,0.1-0.3,0.6,1.5,3.3c1.5,2.3,4.2,5.5,4.7,6.1C303.9,133.2,304.4,133.5,304.9,133.8z"/>
</g>
<g>
	<circle fill="none" stroke="#E0BB9B" stroke-miterlimit="10" cx="480.8" cy="135.9" r="0.1"/>
	<path fill="none" stroke="#E0BB9B" stroke-miterlimit="10" d="M476.6,134.9c0.5-0.1,1,0.2,1.1,0.6c0.1,0.4-0.3,0.8-0.8,0.9
		c-0.5,0.1-1-0.2-1.1-0.6c0-0.2,0-0.3,0.1-0.5C476.1,135.1,476.4,135,476.6,134.9L476.6,134.9z M481,136.3c0.4,0,2.3-0.2,3.5-0.4
		c1.4-0.3,1.6-0.4,1.5-0.6l-5.5,0.1c-1.2,0-1.1,0.3-1.8,0c-0.4-0.2-0.8-0.5-1.1-0.6c-0.3-0.2-0.7-0.3-1.1-0.2
		c-0.4,0.1-0.8,0.3-1,0.6c-0.2,0.2-0.3,0.5-0.2,0.8c0.1,0.6,0.8,1,1.5,1c0.5,0,1.5-0.7,2-0.8c0.3-0.1,0.8,0,1.2,0.1
		C480.3,136.3,480.6,136.3,481,136.3z"/>
	<path fill="none" stroke="#E0BB9B" stroke-miterlimit="10" d="M478.3,140c-0.2,0-0.4-0.1-0.5-0.2c-0.3-0.3-0.2-0.8,0.2-1.2
		c0.4-0.4,0.9-0.4,1.2-0.1c0.3,0.3,0.2,0.8-0.2,1.2C478.8,139.9,478.5,140,478.3,140L478.3,140z M480.1,136.2
		c-0.2,0.4-0.4,0.8-0.6,1c-0.3,0.3-1.5,0.8-1.8,1.1c-0.5,0.6-0.6,1.3-0.2,1.8c0.2,0.2,0.5,0.3,0.8,0.3c0.4,0,0.7-0.2,1-0.4
		c0.3-0.3,0.4-0.6,0.5-1c0.1-0.3,0.1-0.8,0.2-1.3c0.2-0.7,0.3-0.5,1-1.4l3.4-4.4c-0.1-0.1-0.3-0.1-1.4,0.9c-0.9,0.9-2.2,2.3-2.4,2.6
		C480.3,135.7,480.2,135.9,480.1,136.2z"/>
</g>
</svg>
