<?xml version="1.0" encoding="utf-8"?>
<!-- Generator: Adobe Illustrator 18.1.1, SVG Export Plug-In . SVG Version: 6.00 Build 0)  -->
<!DOCTYPE svg PUBLIC "-//W3C//DTD SVG 1.1//EN" "http://www.w3.org/Graphics/SVG/1.1/DTD/svg11.dtd">
<svg version="1.1" id="Layer_1" xmlns="http://www.w3.org/2000/svg" xmlns:xlink="http://www.w3.org/1999/xlink" x="0px" y="0px"
	 viewBox="0 0 874.5 580.5" enable-background="new 0 0 874.5 580.5" xml:space="preserve">
<g>
	<path fill="none" stroke="#FFFFFF" stroke-width="1.2581" stroke-miterlimit="10" d="M476,92.5h-33.6c-3.2,0-5.6,1.4-5.3,3
		l1.9,10.9c0.2,1.3,2.7,2.4,5.5,2.4h29.4c2.8,0,5.3-1.1,5.5-2.4l1.9-10.9C481.6,93.9,479.3,92.5,476,92.5z"/>
	<polyline fill="none" stroke="#FFFFFF" stroke-width="1.2581" stroke-miterlimit="10" points="481.4,95.5 481.4,89.6 478.1,88.3 
		439.9,88.3 437.1,89.6 437.1,95.5 	"/>
	<polyline fill="none" stroke="#FFFFFF" stroke-width="1.2581" stroke-miterlimit="10" points="453.8,108.8 453.8,112.5 
		449.6,115.4 466.8,115.4 462.2,112.5 462.2,108.8 	"/>
</g>
<path opacity="0.1" fill="#E0BB9B" stroke="#E0BB9B" stroke-width="0.5" stroke-miterlimit="10" stroke-dasharray="2" d="
	M306.2,281.9c-0.2-2.6-0.3-5.3-0.3-8c0-7.8,0.9-15.4,2.7-22.7l23.4-0.5v-43c17.7-19,43-30.9,71.1-30.9c53.6,0,97.1,43.5,97.1,97.1
	S456.6,371,403,371c-19.2,0-37.1-5.6-52.1-15.2c-4.4-2.8,0.9-16.9-3-20.3c-2.4-2.1-14.1,6.6-16.3,4.2c-9.9-10.7-17.4-23.7-21.6-38
	l6.1-7.8l4.3-4.9L306.2,281.9z"/>
<path opacity="0.1" fill="#E0BB9B" stroke="#E0BB9B" stroke-width="0.5" stroke-miterlimit="10" stroke-dasharray="2" d="
	M613.5,196.9c1.2,0.9,2.9,4.3,3.5,2.9c2.4-5.6-11.7,24.8-4,46.8c3,8.4,27.7,3.6,18.4,4.2c-4.7,0.3,7.6,25.4,19.2,32.6
	c-4.9,49-46.3,87.3-96.6,87.3c-53.6,0-97.1-43.5-97.1-97.1s43.5-97.1,97.1-97.1C576.4,176.5,597.1,184.1,613.5,196.9"/>
<path fill="none" stroke="#FFFFFF" stroke-width="1.2581" stroke-miterlimit="10" d="M399.9,286.8h6.1c-0.1,0.9-0.5,1.6-1,2.2
	c-0.6,0.6-1.2,0.9-2,0.9s-1.5-0.3-2-0.9C400.4,288.5,400,287.7,399.9,286.8z M398.4,286.1h9.1l0.4-3.8H398L398.4,286.1z
	 M413.2,268.1c0,2.7-0.9,5-2.7,6.9c0,0-0.1,0.1-0.1,0.2c-0.1,0.2-0.2,0.4-0.4,0.6c-0.3,0.5-0.6,1.1-0.8,1.7
	c-0.3,0.6-0.5,1.3-0.7,1.9c0,0.1-0.1,0.2-0.1,0.3c0,0.2,0,0.3-0.1,0.3c0,0,0,0.1-0.1,0.2c0,0.1,0,0.2,0,0.2v0.1v1v1.2H407h-1h-6.2
	h-1h-1.2v-1.2v-1l0-0.1c0-0.1,0-0.2-0.1-0.4c0-0.2-0.1-0.4-0.1-0.5c-0.2-0.6-0.4-1.3-0.7-1.9c-0.3-0.6-0.6-1.2-0.9-1.8
	c-0.1-0.2-0.3-0.5-0.4-0.6c0,0-0.1-0.1-0.1-0.2v0c-1.8-1.9-2.6-4.2-2.6-6.8c0-2.8,1-5.2,3-7.2c2-2,4.4-3,7.2-3c2.8,0,5.2,1,7.2,3
	C412.2,262.9,413.2,265.3,413.2,268.1z M398.4,266.2l1.9,3.7l0.8,1.7l0.8-1.7l1-2.1l1,2.1l0.8,1.7l0.8-1.7l1.9-3.7"/>
<path fill="none" stroke="#FFFFFF" stroke-width="1.2581" stroke-miterlimit="10" d="M550.9,286.5h6.1c-0.1,0.9-0.5,1.6-1,2.2
	c-0.6,0.6-1.2,0.9-2,0.9c-0.8,0-1.5-0.3-2-0.9C551.4,288.1,551,287.4,550.9,286.5z M549.4,285.7h9.1l0.4-3.8H549L549.4,285.7z
	 M564.2,267.7c0,2.7-0.9,5-2.7,6.9c0,0-0.1,0.1-0.1,0.2c-0.1,0.2-0.2,0.4-0.4,0.6c-0.3,0.5-0.6,1.1-0.8,1.7
	c-0.3,0.6-0.5,1.3-0.7,1.9c0,0.1-0.1,0.2-0.1,0.3c0,0.2,0,0.3-0.1,0.3c0,0,0,0.1-0.1,0.2c0,0.1,0,0.2,0,0.2v0.1v1v1.2H558h-1h-6.2
	h-1h-1.2v-1.2v-1l0-0.1c0-0.1,0-0.2-0.1-0.4c0-0.2-0.1-0.4-0.1-0.5c-0.2-0.6-0.4-1.3-0.7-1.9c-0.3-0.6-0.6-1.2-0.9-1.8
	c-0.1-0.2-0.3-0.5-0.4-0.6c0,0-0.1-0.1-0.1-0.2v0c-1.8-1.9-2.6-4.2-2.6-6.8c0-2.8,1-5.2,3-7.2c2-2,4.4-3,7.2-3s5.2,1,7.2,3
	C563.2,262.5,564.2,264.9,564.2,267.7z M549.4,265.9l1.9,3.7l0.8,1.7l0.8-1.7l1-2.1l1,2.1l0.8,1.7l0.8-1.7l1.9-3.7"/>
</svg>
